# Blender 5.2.1 LTS
# www.blender.org
o Bed
v -0.484043 -0.485294 0.480000
v -0.484043 -0.470588 0.490000
v -0.494681 -0.470588 0.480000
v -0.484043 -0.323529 0.490000
v -0.484043 -0.308824 0.480000
v -0.494681 -0.323529 0.480000
v -0.484043 -0.485294 -0.480000
v -0.494681 -0.470588 -0.480000
v -0.484043 -0.470588 -0.490000
v -0.484043 -0.308824 -0.480000
v -0.484043 -0.323529 -0.490000
v -0.494681 -0.323529 -0.480000
v -0.452128 -0.485294 0.480000
v -0.441489 -0.470588 0.480000
v -0.452128 -0.470588 0.490000
v -0.452128 -0.308824 0.480000
v -0.452128 -0.323529 0.490000
v -0.441489 -0.323529 0.480000
v -0.452128 -0.485294 -0.480000
v -0.452128 -0.470588 -0.490000
v -0.441489 -0.470588 -0.480000
v -0.452128 -0.308824 -0.480000
v -0.441489 -0.323529 -0.480000
v -0.452128 -0.323529 -0.490000
v 0.452128 -0.485294 0.480000
v 0.452128 -0.470588 0.490000
v 0.441489 -0.470588 0.480000
v 0.452128 -0.323529 0.490000
v 0.452128 -0.308824 0.480000
v 0.441489 -0.323529 0.480000
v 0.452128 -0.485294 -0.480000
v 0.441489 -0.470588 -0.480000
v 0.452128 -0.470588 -0.490000
v 0.452128 -0.308824 -0.480000
v 0.452128 -0.323529 -0.490000
v 0.441489 -0.323529 -0.480000
v 0.484043 -0.485294 0.480000
v 0.494681 -0.470588 0.480000
v 0.484043 -0.470588 0.490000
v 0.484043 -0.308824 0.480000
v 0.484043 -0.323529 0.490000
v 0.494681 -0.323529 0.480000
v 0.484043 -0.485294 -0.480000
v 0.484043 -0.470588 -0.490000
v 0.494681 -0.470588 -0.480000
v 0.484043 -0.308824 -0.480000
v 0.494681 -0.323529 -0.480000
v 0.484043 -0.323529 -0.490000
v -0.465957 -0.485294 0.483000
v -0.465957 -0.467647 0.495000
v -0.478723 -0.467647 0.483000
v -0.465957 -0.061765 0.495000
v -0.465957 -0.044118 0.483000
v -0.478723 -0.061765 0.483000
v -0.465957 -0.485294 0.457000
v -0.478723 -0.467647 0.457000
v -0.465957 -0.467647 0.445000
v -0.465957 -0.044118 0.457000
v -0.465957 -0.061765 0.445000
v -0.478723 -0.061765 0.457000
v 0.465957 -0.485294 0.483000
v 0.478723 -0.467647 0.483000
v 0.465957 -0.467647 0.495000
v 0.465957 -0.044118 0.483000
v 0.465957 -0.061765 0.495000
v 0.478723 -0.061765 0.483000
v 0.465957 -0.485294 0.457000
v 0.465957 -0.467647 0.445000
v 0.478723 -0.467647 0.457000
v 0.465957 -0.044118 0.457000
v 0.478723 -0.061765 0.457000
v 0.465957 -0.061765 0.445000
v -0.489362 -0.500000 0.490000
v -0.489362 -0.485294 0.500000
v -0.500000 -0.485294 0.490000
v -0.489362 0.014706 0.500000
v -0.489362 0.029412 0.490000
v -0.500000 0.014706 0.490000
v -0.489362 -0.500000 0.450000
v -0.500000 -0.485294 0.450000
v -0.489362 -0.485294 0.440000
v -0.489362 0.029412 0.450000
v -0.489362 0.014706 0.440000
v -0.500000 0.014706 0.450000
v -0.446808 -0.500000 0.490000
v -0.436170 -0.485294 0.490000
v -0.446808 -0.485294 0.500000
v -0.446808 0.029412 0.490000
v -0.446808 0.014706 0.500000
v -0.436170 0.014706 0.490000
v -0.446808 -0.500000 0.450000
v -0.446808 -0.485294 0.440000
v -0.436170 -0.485294 0.450000
v -0.446808 0.029412 0.450000
v -0.436170 0.014706 0.450000
v -0.446808 0.014706 0.440000
v 0.446808 -0.500000 0.490000
v 0.446808 -0.485294 0.500000
v 0.436170 -0.485294 0.490000
v 0.446808 0.014706 0.500000
v 0.446808 0.029412 0.490000
v 0.436170 0.014706 0.490000
v 0.446808 -0.500000 0.450000
v 0.436170 -0.485294 0.450000
v 0.446808 -0.485294 0.440000
v 0.446808 0.029412 0.450000
v 0.446808 0.014706 0.440000
v 0.436170 0.014706 0.450000
v 0.489362 -0.500000 0.490000
v 0.500000 -0.485294 0.490000
v 0.489362 -0.485294 0.500000
v 0.489362 0.029412 0.490000
v 0.489362 0.014706 0.500000
v 0.500000 0.014706 0.490000
v 0.489362 -0.500000 0.450000
v 0.489362 -0.485294 0.440000
v 0.500000 -0.485294 0.450000
v 0.489362 0.029412 0.450000
v 0.500000 0.014706 0.450000
v 0.489362 0.014706 0.440000
v -0.465957 -0.485294 -0.457000
v -0.465957 -0.467647 -0.445000
v -0.478723 -0.467647 -0.457000
v -0.465957 0.408824 -0.445000
v -0.465957 0.426471 -0.457000
v -0.478723 0.408824 -0.457000
v -0.465957 -0.485294 -0.483000
v -0.478723 -0.467647 -0.483000
v -0.465957 -0.467647 -0.495000
v -0.465957 0.426471 -0.483000
v -0.465957 0.408824 -0.495000
v -0.478723 0.408824 -0.483000
v 0.465957 -0.485294 -0.457000
v 0.478723 -0.467647 -0.457000
v 0.465957 -0.467647 -0.445000
v 0.465957 0.426471 -0.457000
v 0.465957 0.408824 -0.445000
v 0.478723 0.408824 -0.457000
v 0.465957 -0.485294 -0.483000
v 0.465957 -0.467647 -0.495000
v 0.478723 -0.467647 -0.483000
v 0.465957 0.426471 -0.483000
v 0.478723 0.408824 -0.483000
v 0.465957 0.408824 -0.495000
v -0.489362 -0.500000 -0.450000
v -0.489362 -0.485294 -0.440000
v -0.500000 -0.485294 -0.450000
v -0.489362 0.485294 -0.440000
v -0.489362 0.500000 -0.450000
v -0.500000 0.485294 -0.450000
v -0.489362 -0.500000 -0.490000
v -0.500000 -0.485294 -0.490000
v -0.489362 -0.485294 -0.500000
v -0.489362 0.500000 -0.490000
v -0.489362 0.485294 -0.500000
v -0.500000 0.485294 -0.490000
v -0.446808 -0.500000 -0.450000
v -0.436170 -0.485294 -0.450000
v -0.446808 -0.485294 -0.440000
v -0.446808 0.500000 -0.450000
v -0.446808 0.485294 -0.440000
v -0.436170 0.485294 -0.450000
v -0.446808 -0.500000 -0.490000
v -0.446808 -0.485294 -0.500000
v -0.436170 -0.485294 -0.490000
v -0.446808 0.500000 -0.490000
v -0.436170 0.485294 -0.490000
v -0.446808 0.485294 -0.500000
v 0.446808 -0.500000 -0.450000
v 0.446808 -0.485294 -0.440000
v 0.436170 -0.485294 -0.450000
v 0.446808 0.485294 -0.440000
v 0.446808 0.500000 -0.450000
v 0.436170 0.485294 -0.450000
v 0.446808 -0.500000 -0.490000
v 0.436170 -0.485294 -0.490000
v 0.446808 -0.485294 -0.500000
v 0.446808 0.500000 -0.490000
v 0.446808 0.485294 -0.500000
v 0.436170 0.485294 -0.490000
v 0.489362 -0.500000 -0.450000
v 0.500000 -0.485294 -0.450000
v 0.489362 -0.485294 -0.440000
v 0.489362 0.500000 -0.450000
v 0.489362 0.485294 -0.440000
v 0.500000 0.485294 -0.450000
v 0.489362 -0.500000 -0.490000
v 0.489362 -0.485294 -0.500000
v 0.500000 -0.485294 -0.490000
v 0.489362 0.500000 -0.490000
v 0.500000 0.485294 -0.490000
v 0.489362 0.485294 -0.500000
v -0.425532 -0.330882 0.450000
v -0.425532 -0.286765 0.480000
v -0.457447 -0.286765 0.450000
v -0.425532 -0.317961 0.471213
v -0.443958 -0.312236 0.467320
v -0.448099 -0.286765 0.471213
v -0.448099 -0.317961 0.450000
v -0.425532 -0.154412 0.480000
v -0.425532 -0.110541 0.450000
v -0.457447 -0.154412 0.450000
v -0.425532 -0.123216 0.471213
v -0.443958 -0.128940 0.467320
v -0.448099 -0.123288 0.450000
v -0.448099 -0.154412 0.471213
v -0.425532 -0.330882 -0.410000
v -0.457447 -0.286765 -0.410000
v -0.425532 -0.286765 -0.440000
v -0.448099 -0.317961 -0.410000
v -0.443958 -0.312236 -0.427321
v -0.448099 -0.286765 -0.431213
v -0.425532 -0.317961 -0.431213
v -0.425532 -0.111524 -0.410000
v -0.425532 -0.154906 -0.440000
v -0.457447 -0.154412 -0.410000
v -0.425532 -0.123926 -0.431213
v -0.443958 -0.129282 -0.427320
v -0.448099 -0.154620 -0.431213
v -0.448099 -0.123577 -0.410000
v 0.425532 -0.330882 0.450000
v 0.457447 -0.286765 0.450000
v 0.425532 -0.286765 0.480000
v 0.448099 -0.317961 0.450000
v 0.443958 -0.312236 0.467321
v 0.448099 -0.286765 0.471213
v 0.425532 -0.317961 0.471213
v 0.425532 -0.110541 0.450000
v 0.425532 -0.154412 0.480000
v 0.457447 -0.154412 0.450000
v 0.425532 -0.123216 0.471213
v 0.443958 -0.128940 0.467320
v 0.448099 -0.154412 0.471213
v 0.448099 -0.123288 0.450000
v 0.425532 -0.330882 -0.410000
v 0.425532 -0.286765 -0.440000
v 0.457447 -0.286765 -0.410000
v 0.425532 -0.317961 -0.431213
v 0.443958 -0.312236 -0.427320
v 0.448099 -0.286765 -0.431213
v 0.448099 -0.317961 -0.410000
v 0.425532 -0.111524 -0.410000
v 0.457447 -0.154412 -0.410000
v 0.425532 -0.154906 -0.440000
v 0.448099 -0.123577 -0.410000
v 0.443958 -0.129282 -0.427321
v 0.448099 -0.154620 -0.431213
v 0.425532 -0.123926 -0.431213
v -0.234043 -0.169118 -0.250000
v -0.234043 -0.110294 -0.210000
v -0.276596 -0.110294 -0.250000
v -0.234043 -0.151889 -0.221716
v -0.258611 -0.144256 -0.226906
v -0.264132 -0.110294 -0.221716
v -0.264132 -0.151889 -0.250000
v -0.234043 -0.095588 -0.210000
v -0.234043 -0.036765 -0.250000
v -0.276596 -0.095588 -0.250000
v -0.234043 -0.053994 -0.221716
v -0.258611 -0.061626 -0.226906
v -0.264132 -0.053994 -0.250000
v -0.264132 -0.095588 -0.221716
v -0.234043 -0.169118 -0.370000
v -0.276596 -0.110294 -0.370000
v -0.234043 -0.110294 -0.410000
v -0.264132 -0.151889 -0.370000
v -0.258611 -0.144256 -0.393094
v -0.264132 -0.110294 -0.398284
v -0.234043 -0.151889 -0.398284
v -0.234043 -0.036765 -0.370000
v -0.234043 -0.095588 -0.410000
v -0.276596 -0.095588 -0.370000
v -0.234043 -0.053994 -0.398284
v -0.258611 -0.061626 -0.393094
v -0.264132 -0.095588 -0.398284
v -0.264132 -0.053994 -0.370000
v 0.234043 -0.169118 -0.250000
v 0.276596 -0.110294 -0.250000
v 0.234043 -0.110294 -0.210000
v 0.264132 -0.151889 -0.250000
v 0.258611 -0.144256 -0.226906
v 0.264132 -0.110294 -0.221716
v 0.234043 -0.151889 -0.221716
v 0.234043 -0.036765 -0.250000
v 0.234043 -0.095588 -0.210000
v 0.276596 -0.095588 -0.250000
v 0.234043 -0.053994 -0.221716
v 0.258611 -0.061626 -0.226906
v 0.264132 -0.095588 -0.221716
v 0.264132 -0.053994 -0.250000
v 0.234043 -0.169118 -0.370000
v 0.234043 -0.110294 -0.410000
v 0.276596 -0.110294 -0.370000
v 0.234043 -0.151889 -0.398284
v 0.258611 -0.144256 -0.393094
v 0.264132 -0.110294 -0.398284
v 0.264132 -0.151889 -0.370000
v 0.234043 -0.036765 -0.370000
v 0.276596 -0.095588 -0.370000
v 0.234043 -0.095588 -0.410000
v 0.264132 -0.053994 -0.370000
v 0.258611 -0.061626 -0.393094
v 0.264132 -0.095588 -0.398284
v 0.234043 -0.053994 -0.398284
vn -0.6137 -0.4440 0.6529
vn -0.6137 0.4440 0.6529
vn -0.6137 -0.4440 -0.6529
vn -0.6137 0.4440 -0.6529
vn 0.6137 -0.4440 0.6529
vn 0.6137 0.4440 0.6529
vn 0.6137 -0.4440 -0.6529
vn 0.6137 0.4440 -0.6529
vn -0.8102 -0.5861 -0.0000
vn -0.6849 -0.0000 0.7286
vn -0.8102 0.5861 -0.0000
vn -0.6849 -0.0000 -0.7286
vn -0.0000 -0.5623 -0.8269
vn -0.0000 0.5623 -0.8269
vn 0.6849 -0.0000 -0.7286
vn 0.8102 -0.5861 -0.0000
vn 0.8102 0.5861 -0.0000
vn 0.6849 -0.0000 0.7286
vn -0.0000 -0.5623 0.8269
vn -0.0000 0.5623 0.8269
vn -0.0000 -1.0000 -0.0000
vn -1.0000 -0.0000 -0.0000
vn -0.0000 -0.0000 1.0000
vn -0.0000 1.0000 -0.0000
vn -0.0000 -0.0000 -1.0000
vn 1.0000 -0.0000 -0.0000
vn -0.4605 -0.8042 0.3759
vn -0.2764 -0.2606 0.9251
vn -0.8955 -0.2059 0.3946
vn -0.3557 0.1974 0.9135
vn -0.3512 0.8038 0.4802
vn -0.9114 0.2737 0.3072
vn -0.3513 -0.7996 -0.4871
vn -0.9113 -0.2731 -0.3081
vn -0.3557 -0.1974 -0.9135
vn -0.4369 0.8181 -0.3739
vn -0.2719 0.2626 -0.9258
vn -0.8945 0.2071 -0.3962
vn 0.3513 -0.7996 0.4871
vn 0.9113 -0.2731 0.3081
vn 0.3557 -0.1974 0.9135
vn 0.4564 0.8079 0.3728
vn 0.2764 0.2606 0.9251
vn 0.8955 0.2059 0.3946
vn 0.4605 -0.8042 -0.3759
vn 0.2764 -0.2606 -0.9251
vn 0.8955 -0.2059 -0.3946
vn 0.3367 0.8129 -0.4753
vn 0.9103 0.2760 -0.3085
vn 0.3535 0.1982 -0.9142
vn -0.4969 -0.8678 -0.0000
vn -0.9579 -0.2870 -0.0000
vn -0.3628 -0.0000 0.9319
vn -0.9151 -0.0000 0.4032
vn -0.4918 0.8707 -0.0010
vn -0.9577 0.2876 -0.0001
vn -0.3628 -0.0000 -0.9319
vn -0.9151 -0.0000 -0.4032
vn -0.0000 -0.8540 -0.5202
vn -0.0000 -0.2711 -0.9625
vn -0.0000 0.8633 -0.5047
vn -0.0000 0.2729 -0.9621
vn 0.9151 -0.0000 -0.4032
vn 0.3628 -0.0000 -0.9319
vn 0.4969 -0.8678 -0.0000
vn 0.9579 -0.2870 -0.0000
vn 0.4711 0.8821 -0.0003
vn 0.9570 0.2901 -0.0000
vn 0.3628 -0.0000 0.9319
vn 0.9151 -0.0000 0.4032
vn -0.0000 -0.8540 0.5202
vn -0.0000 -0.2711 0.9625
vn -0.0000 0.8584 0.5129
vn -0.0000 0.2711 0.9625
vn -0.0000 1.0000 -0.0011
vn -0.3513 0.7996 0.4871
vn -0.9113 0.2731 0.3081
vn -0.4605 0.8042 -0.3759
vn -0.2764 0.2606 -0.9251
vn -0.8955 0.2059 -0.3946
vn 0.4605 0.8042 0.3759
vn 0.3513 0.7996 -0.4871
vn 0.9113 0.2731 -0.3081
vn 0.3557 0.1974 -0.9135
vn -0.4969 0.8678 -0.0000
vn -0.9579 0.2870 -0.0000
vn -0.0000 0.8540 -0.5202
vn -0.0000 0.2711 -0.9625
vn 0.4969 0.8678 -0.0000
vn 0.9579 0.2870 -0.0000
vn -0.0000 0.8540 0.5202
vn -0.3513 -0.7996 0.4871
vn -0.3557 -0.1974 0.9135
vn -0.9113 -0.2731 0.3081
vn -0.2764 0.2606 0.9251
vn -0.4564 0.8079 0.3728
vn -0.8955 0.2059 0.3946
vn -0.4605 -0.8042 -0.3759
vn -0.8955 -0.2059 -0.3946
vn -0.2764 -0.2606 -0.9251
vn -0.3367 0.8129 -0.4753
vn -0.3535 0.1982 -0.9142
vn -0.9103 0.2760 -0.3085
vn 0.4605 -0.8042 0.3759
vn 0.8955 -0.2059 0.3946
vn 0.2764 -0.2606 0.9251
vn 0.3512 0.8038 0.4802
vn 0.3557 0.1974 0.9135
vn 0.9114 0.2737 0.3072
vn 0.3513 -0.7996 -0.4871
vn 0.3557 -0.1974 -0.9135
vn 0.9113 -0.2731 -0.3081
vn 0.4369 0.8181 -0.3739
vn 0.8945 0.2071 -0.3962
vn 0.2719 0.2626 -0.9258
vn -0.4711 0.8821 -0.0003
vn -0.9570 0.2901 -0.0000
vn 0.4918 0.8707 -0.0010
vn 0.9577 0.2876 -0.0001
vn -0.4605 0.8042 0.3759
vn -0.3513 0.7996 -0.4871
vn -0.3557 0.1974 -0.9135
vn -0.9113 0.2731 -0.3081
vn 0.3513 0.7996 0.4871
vn 0.9113 0.2731 0.3081
vn 0.4605 0.8042 -0.3759
vn 0.8955 0.2059 -0.3946
vn 0.2764 0.2606 -0.9251
s 0
f 1//1 2//1 3//1
f 4//2 5//2 6//2
f 7//3 8//3 9//3
f 10//4 11//4 12//4
f 13//5 14//5 15//5
f 16//6 17//6 18//6
f 19//7 20//7 21//7
f 22//8 23//8 24//8
f 1//9 8//9 7//9
f 4//10 3//10 2//10
f 10//11 6//11 5//11
f 9//12 12//12 11//12
f 7//13 20//13 19//13
f 22//14 11//14 10//14
f 21//15 24//15 23//15
f 19//16 14//16 13//16
f 16//17 23//17 22//17
f 15//18 18//18 17//18
f 13//19 2//19 1//19
f 5//20 17//20 16//20
f 19//21 1//21 7//21
f 6//22 8//22 3//22
f 17//23 2//23 15//23
f 10//24 16//24 22//24
f 11//25 20//25 9//25
f 23//26 14//26 21//26
f 25//1 26//1 27//1
f 28//2 29//2 30//2
f 31//3 32//3 33//3
f 34//4 35//4 36//4
f 37//5 38//5 39//5
f 40//6 41//6 42//6
f 43//7 44//7 45//7
f 46//8 47//8 48//8
f 25//9 32//9 31//9
f 28//10 27//10 26//10
f 34//11 30//11 29//11
f 33//12 36//12 35//12
f 31//13 44//13 43//13
f 46//14 35//14 34//14
f 45//15 48//15 47//15
f 43//16 38//16 37//16
f 40//17 47//17 46//17
f 39//18 42//18 41//18
f 37//19 26//19 25//19
f 29//20 41//20 40//20
f 43//21 25//21 31//21
f 30//22 32//22 27//22
f 41//23 26//23 39//23
f 34//24 40//24 46//24
f 35//25 44//25 33//25
f 47//26 38//26 45//26
f 49//1 50//1 51//1
f 52//2 53//2 54//2
f 55//3 56//3 57//3
f 58//4 59//4 60//4
f 61//5 62//5 63//5
f 64//6 65//6 66//6
f 67//7 68//7 69//7
f 70//8 71//8 72//8
f 49//9 56//9 55//9
f 52//10 51//10 50//10
f 58//11 54//11 53//11
f 57//12 60//12 59//12
f 55//13 68//13 67//13
f 70//14 59//14 58//14
f 69//15 72//15 71//15
f 67//16 62//16 61//16
f 64//17 71//17 70//17
f 63//18 66//18 65//18
f 61//19 50//19 49//19
f 53//20 65//20 64//20
f 67//21 49//21 55//21
f 54//22 56//22 51//22
f 65//23 50//23 63//23
f 58//24 64//24 70//24
f 59//25 68//25 57//25
f 71//26 62//26 69//26
f 73//1 74//1 75//1
f 76//2 77//2 78//2
f 79//3 80//3 81//3
f 82//4 83//4 84//4
f 85//5 86//5 87//5
f 88//6 89//6 90//6
f 91//7 92//7 93//7
f 94//8 95//8 96//8
f 73//9 80//9 79//9
f 76//10 75//10 74//10
f 82//11 78//11 77//11
f 81//12 84//12 83//12
f 79//13 92//13 91//13
f 94//14 83//14 82//14
f 93//15 96//15 95//15
f 91//16 86//16 85//16
f 88//17 95//17 94//17
f 87//18 90//18 89//18
f 85//19 74//19 73//19
f 77//20 89//20 88//20
f 91//21 73//21 79//21
f 78//22 80//22 75//22
f 89//23 74//23 87//23
f 82//24 88//24 94//24
f 83//25 92//25 81//25
f 95//26 86//26 93//26
f 97//1 98//1 99//1
f 100//2 101//2 102//2
f 103//3 104//3 105//3
f 106//4 107//4 108//4
f 109//5 110//5 111//5
f 112//6 113//6 114//6
f 115//7 116//7 117//7
f 118//8 119//8 120//8
f 97//9 104//9 103//9
f 100//10 99//10 98//10
f 106//11 102//11 101//11
f 105//12 108//12 107//12
f 103//13 116//13 115//13
f 118//14 107//14 106//14
f 117//15 120//15 119//15
f 115//16 110//16 109//16
f 112//17 119//17 118//17
f 111//18 114//18 113//18
f 109//19 98//19 97//19
f 101//20 113//20 112//20
f 115//21 97//21 103//21
f 102//22 104//22 99//22
f 113//23 98//23 111//23
f 106//24 112//24 118//24
f 107//25 116//25 105//25
f 119//26 110//26 117//26
f 121//1 122//1 123//1
f 124//2 125//2 126//2
f 127//3 128//3 129//3
f 130//4 131//4 132//4
f 133//5 134//5 135//5
f 136//6 137//6 138//6
f 139//7 140//7 141//7
f 142//8 143//8 144//8
f 121//9 128//9 127//9
f 124//10 123//10 122//10
f 130//11 126//11 125//11
f 129//12 132//12 131//12
f 127//13 140//13 139//13
f 142//14 131//14 130//14
f 141//15 144//15 143//15
f 139//16 134//16 133//16
f 136//17 143//17 142//17
f 135//18 138//18 137//18
f 133//19 122//19 121//19
f 125//20 137//20 136//20
f 139//21 121//21 127//21
f 126//22 128//22 123//22
f 137//23 122//23 135//23
f 130//24 136//24 142//24
f 131//25 140//25 129//25
f 143//26 134//26 141//26
f 145//1 146//1 147//1
f 148//2 149//2 150//2
f 151//3 152//3 153//3
f 154//4 155//4 156//4
f 157//5 158//5 159//5
f 160//6 161//6 162//6
f 163//7 164//7 165//7
f 166//8 167//8 168//8
f 145//9 152//9 151//9
f 148//10 147//10 146//10
f 154//11 150//11 149//11
f 153//12 156//12 155//12
f 151//13 164//13 163//13
f 166//14 155//14 154//14
f 165//15 168//15 167//15
f 163//16 158//16 157//16
f 160//17 167//17 166//17
f 159//18 162//18 161//18
f 157//19 146//19 145//19
f 149//20 161//20 160//20
f 163//21 145//21 151//21
f 150//22 152//22 147//22
f 161//23 146//23 159//23
f 154//24 160//24 166//24
f 155//25 164//25 153//25
f 167//26 158//26 165//26
f 169//1 170//1 171//1
f 172//2 173//2 174//2
f 175//3 176//3 177//3
f 178//4 179//4 180//4
f 181//5 182//5 183//5
f 184//6 185//6 186//6
f 187//7 188//7 189//7
f 190//8 191//8 192//8
f 169//9 176//9 175//9
f 172//10 171//10 170//10
f 178//11 174//11 173//11
f 177//12 180//12 179//12
f 175//13 188//13 187//13
f 190//14 179//14 178//14
f 189//15 192//15 191//15
f 187//16 182//16 181//16
f 184//17 191//17 190//17
f 183//18 186//18 185//18
f 181//19 170//19 169//19
f 173//20 185//20 184//20
f 187//21 169//21 175//21
f 174//22 176//22 171//22
f 185//23 170//23 183//23
f 178//24 184//24 190//24
f 179//25 188//25 177//25
f 191//26 182//26 189//26
f 193//27 197//27 199//27
f 194//28 197//28 196//28
f 195//29 197//29 198//29
f 200//30 204//30 206//30
f 201//31 204//31 203//31
f 202//32 204//32 205//32
f 207//33 211//33 213//33
f 208//34 211//34 210//34
f 209//35 211//35 212//35
f 214//36 218//36 220//36
f 215//37 218//37 217//37
f 216//38 218//38 219//38
f 221//39 225//39 227//39
f 222//40 225//40 224//40
f 223//41 225//41 226//41
f 228//42 232//42 234//42
f 229//43 232//43 231//43
f 230//44 232//44 233//44
f 235//45 239//45 241//45
f 236//46 239//46 238//46
f 237//47 239//47 240//47
f 242//48 246//48 248//48
f 243//49 246//49 245//49
f 244//50 246//50 247//50
f 193//51 210//51 207//51
f 199//52 208//52 210//52
f 200//53 198//53 194//53
f 206//54 195//54 198//54
f 214//55 205//55 201//55
f 220//56 202//56 205//56
f 215//57 212//57 219//57
f 219//58 208//58 216//58
f 207//59 238//59 235//59
f 213//60 236//60 238//60
f 242//61 217//61 214//61
f 248//62 215//62 217//62
f 237//63 247//63 243//63
f 240//64 244//64 247//64
f 235//65 224//65 221//65
f 241//66 222//66 224//66
f 242//67 234//67 245//67
f 245//68 230//68 243//68
f 223//69 233//69 229//69
f 226//70 230//70 233//70
f 221//71 196//71 193//71
f 227//72 194//72 196//72
f 201//73 231//73 228//73
f 203//74 229//74 231//74
f 235//21 193//21 207//21
f 202//22 208//22 195//22
f 229//23 194//23 223//23
f 214//75 228//75 242//75
f 215//25 236//25 209//25
f 243//26 222//26 237//26
f 249//27 253//27 255//27
f 250//28 253//28 252//28
f 251//29 253//29 254//29
f 256//30 260//30 262//30
f 257//76 260//76 259//76
f 258//77 260//77 261//77
f 263//33 267//33 269//33
f 264//34 267//34 266//34
f 265//35 267//35 268//35
f 270//78 274//78 276//78
f 271//79 274//79 273//79
f 272//80 274//80 275//80
f 277//39 281//39 283//39
f 278//40 281//40 280//40
f 279//41 281//41 282//41
f 284//81 288//81 290//81
f 285//43 288//43 287//43
f 286//44 288//44 289//44
f 291//45 295//45 297//45
f 292//46 295//46 294//46
f 293//47 295//47 296//47
f 298//82 302//82 304//82
f 299//83 302//83 301//83
f 300//84 302//84 303//84
f 249//51 266//51 263//51
f 255//52 264//52 266//52
f 256//53 254//53 250//53
f 262//54 251//54 254//54
f 270//85 261//85 257//85
f 276//86 258//86 261//86
f 265//57 275//57 271//57
f 268//58 272//58 275//58
f 263//59 294//59 291//59
f 269//60 292//60 294//60
f 298//87 273//87 270//87
f 304//88 271//88 273//88
f 293//63 303//63 299//63
f 296//64 300//64 303//64
f 291//65 280//65 277//65
f 297//66 278//66 280//66
f 284//89 301//89 298//89
f 290//90 299//90 301//90
f 279//69 289//69 285//69
f 282//70 286//70 289//70
f 277//71 252//71 249//71
f 283//72 250//72 252//72
f 257//91 287//91 284//91
f 259//74 285//74 287//74
f 291//21 249//21 263//21
f 258//22 264//22 251//22
f 285//23 250//23 279//23
f 270//24 284//24 298//24
f 271//25 292//25 265//25
f 299//26 278//26 293//26
f 1//9 3//9 8//9
f 4//10 6//10 3//10
f 10//11 12//11 6//11
f 9//12 8//12 12//12
f 7//13 9//13 20//13
f 22//14 24//14 11//14
f 21//15 20//15 24//15
f 19//16 21//16 14//16
f 16//17 18//17 23//17
f 15//18 14//18 18//18
f 13//19 15//19 2//19
f 5//20 4//20 17//20
f 19//21 13//21 1//21
f 6//22 12//22 8//22
f 17//23 4//23 2//23
f 10//24 5//24 16//24
f 11//25 24//25 20//25
f 23//26 18//26 14//26
f 25//9 27//9 32//9
f 28//10 30//10 27//10
f 34//11 36//11 30//11
f 33//12 32//12 36//12
f 31//13 33//13 44//13
f 46//14 48//14 35//14
f 45//15 44//15 48//15
f 43//16 45//16 38//16
f 40//17 42//17 47//17
f 39//18 38//18 42//18
f 37//19 39//19 26//19
f 29//20 28//20 41//20
f 43//21 37//21 25//21
f 30//22 36//22 32//22
f 41//23 28//23 26//23
f 34//24 29//24 40//24
f 35//25 48//25 44//25
f 47//26 42//26 38//26
f 49//9 51//9 56//9
f 52//10 54//10 51//10
f 58//11 60//11 54//11
f 57//12 56//12 60//12
f 55//13 57//13 68//13
f 70//14 72//14 59//14
f 69//15 68//15 72//15
f 67//16 69//16 62//16
f 64//17 66//17 71//17
f 63//18 62//18 66//18
f 61//19 63//19 50//19
f 53//20 52//20 65//20
f 67//21 61//21 49//21
f 54//22 60//22 56//22
f 65//23 52//23 50//23
f 58//24 53//24 64//24
f 59//25 72//25 68//25
f 71//26 66//26 62//26
f 73//9 75//9 80//9
f 76//10 78//10 75//10
f 82//11 84//11 78//11
f 81//12 80//12 84//12
f 79//13 81//13 92//13
f 94//14 96//14 83//14
f 93//15 92//15 96//15
f 91//16 93//16 86//16
f 88//17 90//17 95//17
f 87//18 86//18 90//18
f 85//19 87//19 74//19
f 77//20 76//20 89//20
f 91//21 85//21 73//21
f 78//22 84//22 80//22
f 89//23 76//23 74//23
f 82//24 77//24 88//24
f 83//25 96//25 92//25
f 95//26 90//26 86//26
f 97//9 99//9 104//9
f 100//10 102//10 99//10
f 106//11 108//11 102//11
f 105//12 104//12 108//12
f 103//13 105//13 116//13
f 118//14 120//14 107//14
f 117//15 116//15 120//15
f 115//16 117//16 110//16
f 112//17 114//17 119//17
f 111//18 110//18 114//18
f 109//19 111//19 98//19
f 101//20 100//20 113//20
f 115//21 109//21 97//21
f 102//22 108//22 104//22
f 113//23 100//23 98//23
f 106//24 101//24 112//24
f 107//25 120//25 116//25
f 119//26 114//26 110//26
f 121//9 123//9 128//9
f 124//10 126//10 123//10
f 130//11 132//11 126//11
f 129//12 128//12 132//12
f 127//13 129//13 140//13
f 142//14 144//14 131//14
f 141//15 140//15 144//15
f 139//16 141//16 134//16
f 136//17 138//17 143//17
f 135//18 134//18 138//18
f 133//19 135//19 122//19
f 125//20 124//20 137//20
f 139//21 133//21 121//21
f 126//22 132//22 128//22
f 137//23 124//23 122//23
f 130//24 125//24 136//24
f 131//25 144//25 140//25
f 143//26 138//26 134//26
f 145//9 147//9 152//9
f 148//10 150//10 147//10
f 154//11 156//11 150//11
f 153//12 152//12 156//12
f 151//13 153//13 164//13
f 166//14 168//14 155//14
f 165//15 164//15 168//15
f 163//16 165//16 158//16
f 160//17 162//17 167//17
f 159//18 158//18 162//18
f 157//19 159//19 146//19
f 149//20 148//20 161//20
f 163//21 157//21 145//21
f 150//22 156//22 152//22
f 161//23 148//23 146//23
f 154//24 149//24 160//24
f 155//25 168//25 164//25
f 167//26 162//26 158//26
f 169//9 171//9 176//9
f 172//10 174//10 171//10
f 178//11 180//11 174//11
f 177//12 176//12 180//12
f 175//13 177//13 188//13
f 190//14 192//14 179//14
f 189//15 188//15 192//15
f 187//16 189//16 182//16
f 184//17 186//17 191//17
f 183//18 182//18 186//18
f 181//19 183//19 170//19
f 173//20 172//20 185//20
f 187//21 181//21 169//21
f 174//22 180//22 176//22
f 185//23 172//23 170//23
f 178//24 173//24 184//24
f 179//25 192//25 188//25
f 191//26 186//26 182//26
f 193//92 196//92 197//92
f 194//93 198//93 197//93
f 195//94 199//94 197//94
f 200//95 203//95 204//95
f 201//96 205//96 204//96
f 202//97 206//97 204//97
f 207//98 210//98 211//98
f 208//99 212//99 211//99
f 209//100 213//100 211//100
f 214//101 217//101 218//101
f 215//102 219//102 218//102
f 216//103 220//103 218//103
f 221//104 224//104 225//104
f 222//105 226//105 225//105
f 223//106 227//106 225//106
f 228//107 231//107 232//107
f 229//108 233//108 232//108
f 230//109 234//109 232//109
f 235//110 238//110 239//110
f 236//111 240//111 239//111
f 237//112 241//112 239//112
f 242//113 245//113 246//113
f 243//114 247//114 246//114
f 244//115 248//115 246//115
f 193//51 199//51 210//51
f 199//52 195//52 208//52
f 200//53 206//53 198//53
f 206//54 202//54 195//54
f 214//116 220//116 205//116
f 220//117 216//117 202//117
f 215//57 209//57 212//57
f 219//58 212//58 208//58
f 207//59 213//59 238//59
f 213//60 209//60 236//60
f 242//61 248//61 217//61
f 248//62 244//62 215//62
f 237//63 240//63 247//63
f 240//64 236//64 244//64
f 235//65 241//65 224//65
f 241//66 237//66 222//66
f 242//118 228//118 234//118
f 245//119 234//119 230//119
f 223//69 226//69 233//69
f 226//70 222//70 230//70
f 221//71 227//71 196//71
f 227//72 223//72 194//72
f 201//73 203//73 231//73
f 203//74 200//74 229//74
f 235//21 221//21 193//21
f 202//22 216//22 208//22
f 229//23 200//23 194//23
f 214//75 201//75 228//75
f 215//25 244//25 236//25
f 243//26 230//26 222//26
f 249//92 252//92 253//92
f 250//93 254//93 253//93
f 251//94 255//94 253//94
f 256//95 259//95 260//95
f 257//120 261//120 260//120
f 258//97 262//97 260//97
f 263//98 266//98 267//98
f 264//99 268//99 267//99
f 265//100 269//100 267//100
f 270//121 273//121 274//121
f 271//122 275//122 274//122
f 272//123 276//123 274//123
f 277//104 280//104 281//104
f 278//105 282//105 281//105
f 279//106 283//106 281//106
f 284//124 287//124 288//124
f 285//108 289//108 288//108
f 286//125 290//125 288//125
f 291//110 294//110 295//110
f 292//111 296//111 295//111
f 293//112 297//112 295//112
f 298//126 301//126 302//126
f 299//127 303//127 302//127
f 300//128 304//128 302//128
f 249//51 255//51 266//51
f 255//52 251//52 264//52
f 256//53 262//53 254//53
f 262//54 258//54 251//54
f 270//85 276//85 261//85
f 276//86 272//86 258//86
f 265//57 268//57 275//57
f 268//58 264//58 272//58
f 263//59 269//59 294//59
f 269//60 265//60 292//60
f 298//87 304//87 273//87
f 304//88 300//88 271//88
f 293//63 296//63 303//63
f 296//64 292//64 300//64
f 291//65 297//65 280//65
f 297//66 293//66 278//66
f 284//89 290//89 301//89
f 290//90 286//90 299//90
f 279//69 282//69 289//69
f 282//70 278//70 286//70
f 277//71 283//71 252//71
f 283//72 279//72 250//72
f 257//91 259//91 287//91
f 259//74 256//74 285//74
f 291//21 277//21 249//21
f 258//22 272//22 264//22
f 285//23 256//23 250//23
f 270//24 257//24 284//24
f 271//25 300//25 292//25
f 299//26 286//26 278//26
