# Blender 5.2.1 LTS
# www.blender.org
o Boulder
v 0.326287 -0.498549 0.198156
v 0.431273 0.037229 -0.036162
v 0.457594 -0.042094 0.023222
v 0.463781 -0.225027 0.107844
v 0.455593 -0.386554 0.117381
v 0.157124 0.081594 0.390368
v 0.230514 -0.325227 0.398382
v 0.265287 -0.097144 0.374445
v -0.355081 0.043429 0.273725
v -0.254733 -0.356750 0.391588
v -0.254193 -0.101930 0.404909
v -0.330637 -0.097762 0.347411
v -0.382162 -0.022599 -0.304165
v -0.327455 -0.166067 -0.320943
v -0.397334 0.067828 -0.267483
v 0.113016 0.052818 -0.465516
v 0.195500 -0.060186 -0.457040
v 0.292060 -0.423021 -0.392449
v 0.314018 -0.497401 -0.335031
v -0.037515 -0.396508 -0.466700
v -0.007163 -0.221675 -0.495530
v 0.074759 -0.091009 -0.500000
v 0.058584 -0.007344 -0.494939
v 0.002482 0.500000 0.037173
v 0.090070 0.480867 0.120035
v 0.023876 0.356125 0.274893
v 0.077678 0.292587 0.316800
v 0.156126 0.244720 0.333116
v 0.226985 0.381020 -0.087459
v 0.074063 0.467597 -0.062397
v -0.086232 0.447560 0.107220
v -0.173999 0.377372 0.116599
v -0.205211 0.302356 0.168184
v -0.328461 0.162444 0.194389
v -0.076172 0.484383 -0.038920
v -0.322378 0.268004 -0.195538
v -0.353796 0.174402 -0.296208
v 0.040570 0.449154 -0.147958
v 0.089172 0.323186 -0.266149
v 0.200150 0.372379 -0.143758
v 0.312674 0.289370 -0.157939
v 0.233743 0.299580 -0.234903
v 0.199052 0.227391 -0.306170
v 0.350119 0.241164 -0.057955
v 0.314974 0.221912 -0.240597
v 0.102079 0.212369 -0.372015
v 0.406218 0.149931 -0.097642
v 0.161053 0.115446 -0.407735
v -0.151005 0.442047 -0.108761
v -0.139832 0.397753 -0.223332
v -0.067810 0.370233 -0.257752
v -0.203653 0.378195 -0.200046
v 0.025219 0.261972 -0.343063
v -0.027261 0.279348 -0.308473
v -0.123929 0.229790 -0.343177
v -0.259885 0.293767 -0.293405
v 0.017761 0.136228 -0.433012
v -0.266160 0.193602 -0.355933
v -0.161382 0.429651 0.029006
v -0.257706 0.352899 0.006296
v -0.277097 0.350606 -0.132662
v -0.259013 0.252626 0.098664
v -0.316603 0.297211 -0.049881
v -0.381539 0.205772 -0.145109
v -0.368762 0.177026 -0.054121
v -0.373382 0.114394 0.065324
v -0.060674 0.414543 0.200077
v -0.103101 0.323508 0.231946
v -0.258751 0.197694 0.278261
v -0.030914 0.220520 0.320141
v 0.087758 0.175370 0.352578
v 0.129836 0.469942 -0.052422
v 0.190510 0.448676 0.045967
v 0.124096 0.384802 0.239553
v 0.267071 0.358257 0.163367
v 0.298865 0.321612 0.067545
v 0.311629 0.276145 0.002749
v 0.200108 0.290697 0.279465
v 0.345916 0.189128 0.095187
v 0.213624 0.146225 0.363088
v 0.298779 0.164982 0.311660
v 0.347484 0.185334 0.209771
v 0.410820 0.106215 0.013642
v 0.379585 0.106621 0.168430
v 0.460175 0.013064 -0.128981
v 0.415255 0.074239 -0.224571
v 0.449664 -0.075110 -0.210080
v 0.313267 0.121882 -0.333049
v 0.404019 -0.183110 -0.285877
v 0.359880 -0.022431 -0.332287
v 0.365764 -0.239253 -0.349057
v 0.245393 0.028468 -0.413113
v 0.306292 -0.118026 -0.400689
v -0.030487 0.039754 -0.463271
v -0.088513 0.094923 -0.436766
v -0.066566 -0.137647 -0.493174
v -0.118625 -0.062650 -0.464384
v -0.223363 0.118231 -0.385901
v -0.125563 -0.239524 -0.484664
v -0.201265 -0.035138 -0.440066
v -0.189131 -0.147940 -0.449268
v -0.161553 -0.378103 -0.438398
v -0.284498 -0.031565 -0.373113
v -0.203188 -0.295048 -0.420025
v -0.266556 -0.239873 -0.392489
v -0.339917 0.045927 -0.339288
v -0.412071 0.091706 -0.145286
v -0.455875 -0.191018 -0.141160
v -0.468572 -0.041194 -0.055707
v -0.428509 0.039722 0.021095
v -0.500000 -0.258054 0.104169
v -0.411822 -0.003610 0.105720
v -0.361137 0.108452 0.165475
v -0.494851 -0.328303 0.039017
v -0.457590 -0.116801 0.147078
v -0.422183 -0.039995 0.166802
v -0.267506 0.038995 0.358055
v -0.172443 0.011720 0.411951
v -0.203566 -0.143922 0.428863
v -0.145333 0.150719 0.366529
v -0.032567 0.108226 0.387529
v -0.163303 -0.249524 0.466153
v -0.083328 -0.060076 0.448545
v -0.088951 -0.134941 0.475053
v 0.026751 0.024730 0.443102
v -0.146844 -0.475393 0.431049
v -0.088733 -0.382488 0.486314
v -0.027568 -0.233227 0.500000
v 0.296387 0.045397 0.362238
v 0.329653 -0.084091 0.326825
v 0.354799 0.063414 0.285741
v 0.343377 -0.146337 0.298625
v 0.383047 -0.028379 0.232744
v 0.391288 -0.280582 0.250255
v 0.435208 -0.216756 0.194679
v 0.460067 -0.073206 0.131043
v 0.437790 0.044778 0.040401
v 0.470661 -0.088530 0.075425
v 0.400549 -0.409126 0.192452
v 0.271014 -0.224812 -0.445506
v 0.148695 -0.130016 -0.483375
v 0.209156 -0.358597 -0.465671
v 0.157684 -0.283705 -0.479801
v 0.053732 -0.304766 -0.473627
v 0.216088 -0.495493 -0.421302
v 0.087664 -0.497856 -0.462782
v -0.080588 -0.496420 -0.423878
v -0.409467 -0.061888 -0.231281
v -0.371367 -0.170567 -0.264912
v -0.440143 -0.285668 -0.164787
v -0.318547 -0.290555 -0.263376
v -0.298168 -0.266694 -0.342067
v -0.399522 -0.341830 -0.188616
v -0.403602 -0.406643 -0.142418
v -0.455758 -0.379937 -0.083776
v -0.239886 -0.396983 -0.345020
v -0.335936 -0.497540 -0.158640
v -0.178252 -0.497678 -0.365398
v -0.273529 -0.448441 -0.252963
v -0.206117 -0.495678 -0.296145
v -0.421034 -0.497960 -0.088412
v -0.467989 -0.497802 0.012809
v -0.403581 -0.080329 0.258958
v -0.460944 -0.252171 0.202638
v -0.383348 -0.312512 0.286861
v -0.430553 -0.342462 0.224818
v -0.489368 -0.380772 0.137673
v -0.326648 -0.379778 0.338612
v -0.398779 -0.484890 0.240652
v -0.423792 -0.497642 0.169894
v -0.228714 -0.471619 0.394954
v -0.234249 -0.499225 0.375038
v 0.105749 -0.081084 0.467079
v 0.198754 -0.070777 0.405936
v 0.037898 -0.199257 0.487076
v 0.171760 -0.208600 0.449199
v 0.204656 -0.277946 0.433909
v 0.019256 -0.374285 0.480268
v 0.290307 -0.293532 0.307088
v 0.107829 -0.451677 0.456097
v 0.233302 -0.495999 0.314564
v 0.335426 -0.432277 0.233579
v -0.096585 -0.498818 0.431138
v 0.037218 -0.495599 0.455439
v 0.183061 -0.496576 0.343964
v 0.464677 -0.034419 -0.093291
v 0.493567 -0.156640 -0.016974
v 0.465465 -0.175184 -0.141109
v 0.500000 -0.257915 0.032121
v 0.477449 -0.355019 -0.065137
v 0.434381 -0.271676 -0.176005
v 0.445935 -0.422110 -0.098527
v 0.422116 -0.367141 -0.200996
v 0.459080 -0.435214 -0.020605
v 0.429860 -0.499522 0.075883
v 0.379270 -0.409314 -0.279882
v 0.407065 -0.497607 0.139061
v 0.422379 -0.500000 -0.129816
v 0.390497 -0.497407 -0.221042
v 0.013381 -0.473143 -0.351888
v -0.102303 -0.460467 -0.179023
v -0.265706 -0.479196 -0.174712
v -0.292231 -0.497132 -0.219634
v -0.229930 -0.461798 -0.035524
v -0.331546 -0.472233 0.172384
v -0.092980 -0.450606 0.120599
v -0.117352 -0.478663 0.369617
v 0.052499 -0.468920 0.271297
v 0.264436 -0.478264 -0.309139
v 0.270794 -0.465403 -0.138041
v 0.210537 -0.465913 0.129531
v 0.052427 -0.447067 -0.043988
vn 0.6157 0.7578 -0.2159
vn -0.0037 0.9778 -0.2093
vn 0.5482 0.7471 -0.3760
vn 0.3809 0.7632 -0.5220
vn 0.3570 0.7087 -0.6085
vn 0.5219 0.7701 -0.3669
vn 0.5048 0.7556 -0.4175
vn -0.1838 0.7339 -0.6539
vn 0.3762 0.6899 -0.6184
vn 0.7391 0.6684 0.0835
vn 0.7455 0.6652 0.0415
vn 0.5770 0.6406 -0.5067
vn 0.3436 0.6693 -0.6587
vn 0.8399 0.5400 -0.0542
vn 0.4405 0.5146 -0.7357
vn 0.4197 0.5276 -0.7386
vn 0.8699 0.4702 0.1487
vn 0.4100 0.6153 -0.6733
vn 0.8514 0.4749 -0.2226
vn 0.7841 0.4913 -0.3792
vn 0.7409 0.4490 -0.4994
vn 0.3444 0.5640 -0.7505
vn 0.0660 0.9618 -0.2656
vn 0.1759 0.7088 -0.6831
vn 0.0713 0.9690 -0.2368
vn -0.0946 0.9132 -0.3963
vn -0.1715 0.9132 -0.3698
vn 0.0210 0.8019 -0.5971
vn -0.3919 0.8446 -0.3647
vn -0.1022 0.8180 -0.5660
vn 0.1111 0.5216 -0.8459
vn 0.1816 0.6903 -0.7004
vn 0.0511 0.5040 -0.8622
vn -0.1724 0.5613 -0.8095
vn -0.4099 0.7856 -0.4635
vn -0.6655 0.7072 -0.2387
vn -0.0259 0.5790 -0.8149
vn 0.2181 0.4516 -0.8652
vn 0.0666 0.5779 -0.8134
vn -0.1634 0.7596 -0.6295
vn -0.0594 0.5313 -0.8451
vn -0.5664 0.4617 -0.6827
vn -0.1250 0.5821 -0.8034
vn 0.2221 0.5637 -0.7956
vn -0.1765 0.5295 -0.8298
vn -0.2230 0.5156 -0.8273
vn -0.0093 0.3649 -0.9310
vn -0.5814 0.2015 -0.7883
vn -0.6276 0.6593 -0.4141
vn -0.7415 0.5908 -0.3179
vn -0.3752 0.9047 0.2021
vn -0.4150 0.8886 0.1953
vn -0.5185 0.8542 0.0378
vn -0.6263 0.7792 0.0229
vn -0.5574 0.7458 0.3648
vn -0.5357 0.8052 -0.2542
vn -0.5943 0.8012 0.0697
vn -0.6349 0.7002 0.3265
vn -0.8149 0.5179 0.2601
vn -0.7284 0.6791 0.0904
vn -0.7573 0.4478 0.4754
vn -0.7862 0.5842 -0.2013
vn -0.8107 0.5854 -0.0093
vn -0.7957 0.3273 0.5097
vn -0.8293 0.3844 0.4055
vn -0.7383 0.6679 0.0936
vn -0.8925 0.3787 0.2450
vn -0.7962 0.5465 -0.2596
vn -0.7727 0.5740 0.2711
vn -0.8428 0.4895 0.2241
vn -0.7791 0.6129 0.1316
vn -0.8313 0.5491 -0.0858
vn -0.9205 0.3130 -0.2340
vn -0.9441 0.2524 0.2123
vn -0.8804 0.3832 0.2794
vn -0.2284 0.8958 0.3814
vn -0.1825 0.8980 0.4003
vn -0.0124 0.7813 0.6241
vn -0.5425 0.7332 0.4100
vn -0.5900 0.6096 0.5295
vn -0.5325 0.4898 0.6903
vn -0.3883 0.4604 0.7983
vn -0.4576 0.7448 0.4856
vn -0.3863 0.4286 0.8167
vn -0.2321 0.3910 0.8907
vn -0.6891 0.6622 0.2944
vn -0.2966 0.6309 0.7169
vn -0.0639 0.6229 0.7797
vn -0.1542 0.2763 0.9486
vn -0.0383 0.5146 0.8566
vn 0.0340 0.5139 0.8572
vn -0.7668 0.4659 0.4416
vn -0.4412 0.4224 0.7918
vn -0.0491 0.5290 0.8472
vn 0.1510 0.4635 0.8731
vn 0.1039 0.6074 0.7876
vn -0.0220 0.2901 0.9567
vn 0.2976 0.9499 -0.0952
vn -0.0294 0.9971 -0.0699
vn 0.3132 0.9496 0.0121
vn -0.0019 0.7792 0.6268
vn 0.4893 0.8155 0.3090
vn 0.4077 0.7649 0.4987
vn 0.7606 0.6493 0.0041
vn 0.7654 0.6337 -0.1121
vn 0.8380 0.5103 -0.1930
vn 0.1849 0.5747 0.7972
vn 0.3172 0.5758 0.7535
vn 0.4525 0.6322 0.6289
vn 0.9443 0.3264 -0.0430
vn 0.8159 0.5403 0.2060
vn 0.3990 0.5086 0.7630
vn 0.5216 0.5716 0.6334
vn 0.7544 0.4730 0.4551
vn 0.8867 0.4455 0.1238
vn 0.9425 0.3343 -0.0018
vn 0.8546 0.4841 0.1879
vn -0.0668 0.3301 0.9416
vn 0.0760 0.3306 0.9407
vn 0.3803 0.4652 0.7993
vn 0.9259 0.3777 -0.0002
vn 0.8590 0.4880 0.1548
vn 0.8590 0.4677 0.2081
vn 0.9676 0.2460 0.0566
vn 0.9961 0.0332 -0.0814
vn 0.9394 0.2584 0.2252
vn 0.9256 0.3179 0.2055
vn 0.9026 0.3950 -0.1713
vn 0.9848 0.0386 -0.1696
vn 0.9297 0.1832 -0.3196
vn 0.9005 -0.1413 -0.4113
vn 0.9219 -0.1347 -0.3633
vn 0.8255 0.1371 -0.5474
vn 0.7577 0.2415 -0.6063
vn 0.8163 0.0583 -0.5746
vn 0.9532 -0.0442 -0.2990
vn 0.8916 -0.1144 -0.4382
vn 0.6224 0.1970 -0.7575
vn 0.8963 -0.1042 -0.4311
vn 0.7907 0.1335 -0.5974
vn 0.7686 0.0265 -0.6392
vn 0.6219 0.1942 -0.7586
vn 0.3845 0.4236 -0.8202
vn 0.8024 -0.2573 -0.5384
vn 0.7164 0.0552 -0.6955
vn 0.5052 0.1378 -0.8519
vn 0.2591 0.3078 -0.9155
vn 0.5247 0.3239 -0.7873
vn -0.1146 0.0379 -0.9927
vn -0.0678 -0.1509 -0.9862
vn -0.2534 -0.2868 -0.9239
vn 0.0443 0.4063 -0.9127
vn -0.1385 0.3588 -0.9231
vn -0.2288 0.2069 -0.9512
vn -0.1004 0.3431 -0.9339
vn -0.2331 0.2109 -0.9493
vn -0.0249 0.0104 -0.9996
vn -0.2282 0.2068 -0.9514
vn -0.3104 0.2214 -0.9245
vn -0.0864 -0.0332 -0.9957
vn -0.3421 0.1203 -0.9319
vn -0.1737 0.3056 -0.9362
vn -0.3451 0.1203 -0.9308
vn -0.2666 0.0498 -0.9625
vn -0.2503 -0.2475 -0.9360
vn -0.6113 0.1838 -0.7698
vn -0.5929 0.0019 -0.8053
vn -0.6262 0.0186 -0.7795
vn -0.4195 0.0941 -0.9029
vn -0.4286 0.1130 -0.8964
vn -0.5853 -0.1159 -0.8025
vn -0.5923 -0.1023 -0.7992
vn -0.4854 -0.1256 -0.8652
vn -0.7645 -0.0059 -0.6446
vn -0.7533 0.1345 -0.6437
vn -0.8742 -0.0243 -0.4849
vn -0.9899 0.0562 -0.1304
vn -0.9527 0.2553 -0.1648
vn -0.9482 0.1428 -0.2837
vn -0.9167 0.1365 -0.3756
vn -0.9087 0.4153 0.0430
vn -0.9089 0.4154 0.0364
vn -0.9544 -0.0873 -0.2856
vn -0.9810 0.0264 -0.1921
vn -0.9157 0.3158 0.2484
vn -0.9387 0.1945 0.2847
vn -0.8385 0.3998 0.3701
vn -0.9278 0.3481 0.1341
vn -0.9591 -0.0828 -0.2705
vn -0.9904 0.0478 -0.1298
vn -0.9346 0.3248 -0.1454
vn -0.9130 0.3995 0.0831
vn -0.9224 0.3799 0.0699
vn -0.9595 -0.1121 -0.2583
vn -0.8894 0.3682 0.2709
vn -0.5546 -0.1014 0.8259
vn -0.6646 0.2520 0.7034
vn -0.6330 0.3754 0.6771
vn -0.5809 0.2069 0.7873
vn -0.3825 0.3536 0.8536
vn -0.4223 0.2498 0.8713
vn -0.4578 -0.0454 0.8879
vn -0.3079 0.1634 0.9373
vn -0.6474 0.0222 0.7619
vn -0.3010 0.2134 0.9294
vn -0.2648 0.1563 0.9516
vn -0.0885 0.3630 0.9276
vn -0.0556 0.3199 0.9458
vn -0.5713 0.3117 0.7592
vn -0.2632 0.3980 0.8788
vn -0.4041 -0.1692 0.8989
vn -0.5250 -0.1679 0.8344
vn -0.2432 0.0107 0.9699
vn -0.2509 0.0880 0.9640
vn 0.1343 0.3218 0.9372
vn -0.1382 0.2410 0.9606
vn -0.0061 0.2166 0.9762
vn 0.5956 -0.0065 0.8033
vn 0.2647 0.1693 0.9494
vn 0.2221 0.1742 0.9593
vn 0.4285 0.3447 0.8352
vn 0.4230 -0.0147 0.9060
vn 0.6018 -0.0631 0.7961
vn 0.7902 0.0357 0.6118
vn 0.7405 0.2492 0.6241
vn 0.8219 0.3359 0.4600
vn 0.9310 0.2316 0.2820
vn 0.6479 -0.1912 0.7373
vn 0.8758 -0.0253 0.4821
vn 0.8729 -0.0130 0.4877
vn 0.9556 0.1464 0.2558
vn 0.4989 -0.1306 0.8567
vn 0.7965 0.0677 0.6009
vn 0.8214 0.2623 0.5064
vn 0.4982 -0.2739 0.8227
vn 0.7416 0.0706 0.6671
vn 0.8152 0.1108 0.5685
vn 0.9038 0.3547 0.2396
vn 0.9580 0.2650 0.1095
vn 0.5832 -0.2978 0.7558
vn 0.8182 -0.1857 0.5441
vn 0.8463 -0.1332 0.5158
vn 0.9486 -0.0295 0.3150
vn 0.9489 -0.0249 0.3146
vn 0.9725 0.2295 -0.0393
vn 0.9270 0.3572 -0.1141
vn 0.7883 -0.1771 -0.5892
vn 0.3038 0.1512 -0.9407
vn 0.3312 0.1555 -0.9307
vn 0.2732 0.1106 -0.9556
vn 0.5188 0.1794 -0.8359
vn 0.3663 0.1032 -0.9248
vn 0.2995 0.0053 -0.9541
vn 0.1488 -0.1355 -0.9795
vn 0.2544 -0.0076 -0.9671
vn -0.0539 -0.0264 -0.9982
vn 0.1648 -0.1367 -0.9768
vn 0.7001 -0.1143 -0.7049
vn 0.5859 -0.1509 -0.7962
vn 0.1065 -0.1797 -0.9779
vn 0.5337 -0.2362 -0.8120
vn 0.1063 -0.1133 -0.9879
vn -0.0462 -0.0641 -0.9969
vn -0.0165 -0.0590 -0.9981
vn 0.2997 -0.2804 -0.9119
vn 0.7843 -0.2171 -0.5812
vn 0.6122 -0.3619 -0.7030
vn -0.2171 -0.3040 -0.9276
vn -0.7537 0.1345 -0.6433
vn -0.5794 -0.0595 -0.8129
vn -0.9342 -0.0121 -0.3565
vn -0.5798 -0.1270 -0.8048
vn -0.7596 -0.2180 -0.6128
vn -0.8860 -0.1782 -0.4280
vn -0.7769 -0.0791 -0.6246
vn -0.7302 -0.3291 -0.5987
vn -0.8124 -0.1165 -0.5713
vn -0.9300 -0.2070 -0.3036
vn -0.6859 -0.1991 -0.7000
vn -0.5623 -0.2576 -0.7858
vn -0.7229 -0.3094 -0.6178
vn -0.8620 -0.3779 -0.3378
vn -0.7755 -0.3334 -0.5362
vn -0.7748 -0.3334 -0.5372
vn -0.7252 -0.2192 -0.6527
vn -0.5995 -0.3230 -0.7323
vn -0.7413 -0.2524 -0.6219
vn -0.5018 -0.3566 -0.7881
vn -0.7009 -0.2978 -0.6482
vn -0.8451 -0.2713 -0.4605
vn -0.8095 -0.0865 -0.5807
vn -0.6804 -0.3965 -0.6164
vn -0.7758 -0.2048 -0.5968
vn -0.8349 -0.4456 -0.3231
vn -0.6875 -0.4973 -0.5292
vn -0.6025 -0.3179 -0.7320
vn -0.8801 -0.2429 -0.4079
vn -0.4638 -0.4135 -0.7835
vn -0.6406 -0.2507 -0.7258
vn -0.9197 0.1684 0.3547
vn -0.8951 0.3129 0.3176
vn -0.7335 0.2103 0.6463
vn -0.8129 0.2383 0.5314
vn -0.9336 0.2185 0.2841
vn -0.7286 0.0188 0.6847
vn -0.7706 0.0094 0.6373
vn -0.6020 -0.0763 0.7948
vn -0.7671 -0.1027 0.6332
vn -0.6744 -0.0003 0.7384
vn -0.9298 0.0198 0.3676
vn -0.7967 -0.1228 0.5917
vn -0.5840 -0.0411 0.8107
vn -0.9792 -0.1719 0.1079
vn -0.9919 -0.1053 -0.0711
vn -0.7677 -0.1009 0.6328
vn -0.7480 -0.2502 0.6148
vn -0.9200 -0.1658 0.3551
vn -0.7391 -0.1119 0.6643
vn -0.8727 -0.4218 0.2460
vn -0.6424 -0.2381 0.7285
vn -0.5679 -0.1047 0.8164
vn -0.3012 -0.9142 0.2712
vn -0.6041 -0.3830 0.6988
vn -0.3698 -0.4937 0.7871
vn 0.2634 -0.9316 -0.2505
vn -0.2928 -0.6256 0.7231
vn 0.1538 0.0784 0.9850
vn 0.2094 0.3622 0.9083
vn 0.5176 0.2257 0.8253
vn 0.5302 0.1577 0.8331
vn 0.4774 0.1767 0.8607
vn 0.2727 0.0063 0.9621
vn 0.2657 -0.0857 0.9602
vn 0.5595 0.0836 0.8246
vn 0.7735 -0.0516 0.6317
vn 0.2240 -0.0617 0.9726
vn 0.8499 -0.2054 0.4853
vn 0.0644 -0.1173 0.9910
vn 0.2131 -0.0606 0.9751
vn 0.2873 -0.0379 0.9571
vn 0.6046 -0.2400 0.7595
vn 0.8492 -0.2214 0.4793
vn 0.6735 -0.1630 0.7210
vn -0.1926 -0.4099 0.8916
vn 0.0831 -0.4316 0.8982
vn -0.1691 -0.2216 0.9604
vn 0.1056 -0.1844 0.9772
vn 0.6872 -0.3858 0.6155
vn 0.4699 -0.3827 0.7954
vn 0.4304 -0.7005 0.5693
vn -0.0659 -0.9948 -0.0776
vn 0.7098 -0.4057 0.5759
vn 0.9648 0.2409 -0.1059
vn 0.9264 0.3677 0.0805
vn 0.9586 0.2743 0.0763
vn 0.9559 0.2928 0.0212
vn 0.9691 0.0842 -0.2320
vn 0.9821 -0.0048 0.1884
vn 0.9095 0.0521 0.4124
vn 0.9805 0.1327 0.1452
vn 0.9803 -0.0323 -0.1951
vn 0.9758 -0.0266 -0.2169
vn 0.8986 -0.0197 0.4383
vn 0.8537 -0.1533 -0.4977
vn 0.9010 -0.1420 -0.4100
vn 0.9745 -0.2243 -0.0020
vn 0.9652 -0.0572 -0.2551
vn 0.9597 -0.2588 0.1094
vn 0.9591 -0.2568 0.1193
vn 0.9210 -0.3278 -0.2105
vn 0.8148 -0.2544 0.5210
vn 0.8870 -0.3232 0.3298
vn 0.9576 -0.2105 -0.1969
vn 0.9386 -0.1614 -0.3048
vn 0.9006 -0.1562 -0.4056
vn 0.8914 -0.4521 -0.0314
vn 0.9280 -0.1746 -0.3293
vn 0.5860 -0.4434 0.6783
vn 0.5431 -0.4041 0.7360
vn -0.2703 -0.9456 0.1813
vn -0.2347 -0.9405 0.2456
vn -0.0357 -0.9854 0.1667
vn -0.0514 -0.9815 0.1843
vn -0.0333 -0.9965 0.0761
vn -0.0198 -0.9980 0.0599
vn 0.0492 -0.9674 0.2485
vn -0.0274 -0.9912 0.1297
vn 0.1135 -0.9792 0.1685
vn 0.1212 -0.9896 0.0774
vn 0.1165 -0.9818 0.1499
vn 0.1515 -0.9669 0.2056
vn 0.2298 -0.9430 0.2408
vn 0.1158 -0.9888 0.0938
vn 0.2905 -0.9353 0.2019
vn 0.0594 -0.9978 0.0310
vn 0.3137 -0.8724 0.3748
vn 0.1458 -0.9882 0.0475
vn 0.1193 -0.9912 0.0569
vn 0.2667 -0.9609 -0.0740
vn 0.2282 -0.9716 0.0628
vn 0.0889 -0.9960 -0.0066
vn 0.1603 -0.9654 -0.2055
vn 0.0458 -0.9985 0.0314
vn 0.0523 -0.9840 -0.1701
vn 0.1463 -0.9244 -0.3522
vn 0.0236 -0.9980 -0.0581
vn -0.1454 -0.9659 -0.2141
vn -0.2047 -0.9755 0.0809
vn -0.2248 -0.9731 0.0509
vn -0.2230 -0.9748 0.0104
vn -0.1693 -0.9851 -0.0312
vn -0.1573 -0.9868 -0.0373
vn -0.0935 -0.9954 -0.0229
vn 0.0835 -0.9383 -0.3356
vn -0.0775 -0.9701 -0.2300
vn -0.0480 -0.9961 -0.0747
vn -0.1005 -0.9764 -0.1910
vn -0.1123 -0.9829 -0.1460
vn -0.1945 -0.9717 -0.1341
vn -0.0484 -0.9968 -0.0642
vt 0.420455 0.413334
vt 0.423299 0.397125
vt 0.440425 0.427393
vt 0.475116 0.430668
vt 0.453829 0.444112
vt 0.448416 0.387513
vt 0.499396 0.386788
vt 0.428679 0.356091
vt 0.463790 0.360511
vt 0.492489 0.344779
vt 0.394803 0.368903
vt 0.401363 0.353728
vt 0.452657 0.334319
vt 0.526382 0.347081
vt 0.396932 0.322933
vt 0.523940 0.321694
vt 0.370199 0.326287
vt 0.472376 0.307857
vt 0.429537 0.294781
vt 0.625878 0.453843
vt 0.645975 0.446763
vt 0.636364 0.472382
vt 0.590485 0.389250
vt 0.634802 0.386034
vt 0.614394 0.428452
vt 0.657530 0.391207
vt 0.667304 0.415392
vt 0.678124 0.390032
vt 0.601797 0.359452
vt 0.619017 0.365369
vt 0.569770 0.348297
vt 0.644791 0.340358
vt 0.683139 0.354119
vt 0.688992 0.381227
vt 0.558513 0.333121
vt 0.591184 0.321501
vt 0.682301 0.326338
vt 0.712905 0.329817
vt 0.554383 0.299817
vt 0.623179 0.302925
vt 0.667925 0.305788
vt 0.706889 0.298140
vt 0.769296 0.353254
vt 0.788508 0.377385
vt 0.776071 0.399443
vt 0.735748 0.327618
vt 0.754378 0.357100
vt 0.812633 0.441170
vt 0.845685 0.424744
vt 0.827545 0.456164
vt 0.832232 0.413732
vt 0.790396 0.413123
vt 0.827522 0.380682
vt 0.856469 0.395243
vt 0.857549 0.365238
vt 0.875696 0.371932
vt 0.810427 0.359267
vt 0.781550 0.332932
vt 0.808119 0.329144
vt 0.889827 0.334071
vt 0.844990 0.315757
vt 0.832477 0.293274
vt 0.883355 0.311065
vt 0.740906 0.300396
vt 0.780145 0.306456
vt 0.917695 0.298339
vt 0.078675 0.418180
vt 0.093860 0.392934
vt 0.096765 0.449826
vt 0.122351 0.417192
vt 0.119258 0.376272
vt 0.054792 0.398045
vt 0.047960 0.374982
vt 0.083992 0.367492
vt 0.040082 0.331703
vt 0.114357 0.346705
vt 0.143007 0.363071
vt 0.015072 0.340776
vt 0.084096 0.318593
vt 0.157380 0.338782
vt 0.119823 0.310369
vt 0.011120 0.299202
vt 0.050043 0.289533
vt 0.142573 0.288511
vt 0.180869 0.311868
vt 0.218882 0.379116
vt 0.234122 0.384746
vt 0.228370 0.395551
vt 0.195972 0.339435
vt 0.215199 0.347207
vt 0.204546 0.354286
vt 0.255310 0.416345
vt 0.280925 0.447215
vt 0.262589 0.451254
vt 0.295082 0.432706
vt 0.287597 0.406494
vt 0.275746 0.366356
vt 0.298442 0.368296
vt 0.315077 0.396377
vt 0.323421 0.368799
vt 0.238825 0.355345
vt 0.309663 0.335097
vt 0.339071 0.344998
vt 0.247931 0.317372
vt 0.276896 0.323481
vt 0.348733 0.320310
vt 0.190092 0.309986
vt 0.216167 0.316106
vt 0.294694 0.305322
vt 0.340801 0.293039
vt 0.369586 0.296648
vt 0.397511 0.245176
vt 0.399398 0.286711
vt 0.385534 0.275909
vt 0.421208 0.263192
vt 0.412223 0.221160
vt 0.446458 0.240778
vt 0.462726 0.275227
vt 0.418741 0.198624
vt 0.468967 0.230828
vt 0.505561 0.290661
vt 0.449036 0.191293
vt 0.490377 0.253803
vt 0.427197 0.165729
vt 0.478535 0.165912
vt 0.507827 0.232763
vt 0.529121 0.268554
vt 0.593518 0.234595
vt 0.573832 0.280702
vt 0.566808 0.258755
vt 0.600168 0.190764
vt 0.630851 0.227420
vt 0.617397 0.158342
vt 0.644026 0.191766
vt 0.604118 0.287650
vt 0.611443 0.247879
vt 0.630002 0.270427
vt 0.654876 0.272212
vt 0.652057 0.244140
vt 0.689301 0.278021
vt 0.680477 0.225930
vt 0.660538 0.214003
vt 0.710395 0.250017
vt 0.726620 0.278106
vt 0.771512 0.215652
vt 0.782114 0.237502
vt 0.751305 0.271676
vt 0.808173 0.268920
vt 0.801033 0.191750
vt 0.836008 0.203259
vt 0.854832 0.224580
vt 0.857131 0.285562
vt 0.865130 0.252425
vt 0.877924 0.274649
vt 0.831339 0.167870
vt 0.074804 0.185357
vt 0.089145 0.224884
vt 0.060799 0.212863
vt 0.031751 0.264955
vt 0.058378 0.257871
vt 0.081354 0.282455
vt 0.075038 0.248179
vt 0.108911 0.268775
vt 0.108851 0.250247
vt 0.091520 0.170413
vt 0.112658 0.197617
vt 0.129071 0.230750
vt 0.167963 0.263708
vt 0.212066 0.207589
vt 0.244746 0.263678
vt 0.220870 0.264206
vt 0.198998 0.268082
vt 0.236345 0.287856
vt 0.261954 0.292506
vt 0.240077 0.214839
vt 0.258599 0.248971
vt 0.278407 0.278097
vt 0.277230 0.220085
vt 0.313200 0.260158
vt 0.265700 0.183186
vt 0.297139 0.233292
vt 0.332354 0.259240
vt 0.292495 0.188055
vt 0.323386 0.196740
vt 0.324700 0.229310
vt 0.349488 0.275019
vt 0.496104 0.186917
vt 0.545086 0.248603
vt 0.526789 0.204824
vt 0.572725 0.213234
vt 0.541656 0.219559
vt 0.520416 0.173753
vt 0.558810 0.169824
vt 0.735437 0.244445
vt 0.725747 0.211752
vt 0.702422 0.222775
vt 0.757710 0.202100
vt 0.686896 0.186853
vt 0.774428 0.186635
vt 0.717626 0.174602
vt 0.759269 0.157752
vt 0.666844 0.159968
vt 0.732416 0.154970
vt 0.794017 0.162804
vt 0.689238 0.155631
vt 0.884565 0.226771
vt 0.905493 0.264428
vt 0.936427 0.261814
vt 0.918957 0.210681
vt 0.954726 0.235395
vt 0.893532 0.208900
vt 0.936943 0.199118
vt 0.867481 0.197750
vt 0.963101 0.201105
vt 0.904408 0.184653
vt 0.881797 0.172099
vt 0.969495 0.180324
vt 0.963822 0.167364
vt 0.994318 0.167302
vt 0.899269 0.133226
vt 0.992467 0.150773
vt 0.148292 0.236872
vt 0.187766 0.234969
vt 0.197854 0.221114
vt 0.144269 0.201370
vt 0.171172 0.189431
vt 0.221347 0.168139
vt 0.108464 0.162137
vt 0.150998 0.174931
vt 0.201821 0.165995
vt 0.120405 0.128760
vt 0.279466 0.153209
vt 0.362693 0.249749
vt 0.348712 0.222744
vt 0.374487 0.203972
vt 0.385722 0.192023
vt 0.363468 0.187244
vt 0.339120 0.177282
vt 0.313884 0.169266
vt 0.394854 0.167463
vt 0.463600 0.141778
vt 0.498517 0.131821
vt 0.572416 0.117192
vt 0.506497 0.075732
vt 0.569038 0.049683
vt 0.539732 0.017368
vt 0.628033 0.143031
vt 0.662459 0.112263
vt 0.709902 0.065319
vt 0.737153 0.122627
vt 0.760934 0.080057
vt 0.717105 0.017611
vt 0.727727 0.002702
vt 0.846304 0.108752
vt 0.869743 0.078780
vt 0.921018 0.061677
vt 0.968342 0.124487
vt 0.890530 0.038473
vt 0.951986 0.087908
vt 0.320311 0.089789
vt 0.391009 0.100596
vt 0.426442 0.120256
vt 0.368096 0.025991
vt 0.172002 0.103548
vt 0.167826 0.032792
vt 0.225953 0.090587
vt 0.193290 0.019869
s 0
f 73/1/1 29/2/1 72/3/1
f 72/3/2 38/4/2 30/5/2
f 29/2/3 40/6/3 72/3/3
f 72/3/4 40/6/4 38/4/4
f 40/6/5 39/7/5 38/4/5
f 29/2/6 41/8/6 40/6/6
f 41/8/7 42/9/7 40/6/7
f 42/9/8 43/10/8 40/6/8
f 40/6/9 43/10/9 39/7/9
f 77/11/10 44/12/10 29/2/10
f 44/12/11 41/8/11 29/2/11
f 45/13/12 42/9/12 41/8/12
f 43/10/13 46/14/13 39/7/13
f 47/15/14 41/8/14 44/12/14
f 45/13/15 43/10/15 42/9/15
f 43/10/16 48/16/16 46/14/16
f 83/17/17 47/15/17 44/12/17
f 45/13/18 88/18/18 43/10/18
f 47/15/19 86/19/19 41/8/19
f 41/8/20 86/19/20 45/13/20
f 86/19/21 88/18/21 45/13/21
f 43/10/22 88/18/22 48/16/22
f 30/20/23 35/21/23 24/22/23
f 39/23/24 51/24/24 38/25/24
f 38/25/25 35/21/25 30/20/25
f 38/25/26 50/26/26 35/21/26
f 35/21/27 50/26/27 49/27/27
f 38/25/28 51/24/28 50/26/28
f 50/26/29 52/28/29 49/27/29
f 53/29/30 54/30/30 39/23/30
f 39/23/31 54/30/31 51/24/31
f 46/31/32 53/29/32 39/23/32
f 54/30/33 55/32/33 51/24/33
f 51/24/34 55/32/34 50/26/34
f 50/26/35 56/33/35 52/28/35
f 52/28/36 56/33/36 36/34/36
f 55/32/37 56/33/37 50/26/37
f 48/35/38 57/36/38 46/31/38
f 46/31/39 57/36/39 53/29/39
f 53/29/40 55/32/40 54/30/40
f 55/32/41 58/37/41 56/33/41
f 58/37/42 37/38/42 56/33/42
f 53/29/43 57/36/43 55/32/43
f 16/39/44 57/36/44 48/35/44
f 57/36/45 95/40/45 55/32/45
f 95/40/46 98/41/46 55/32/46
f 55/32/47 98/41/47 58/37/47
f 58/37/48 106/42/48 37/38/48
f 36/43/49 61/44/49 52/45/49
f 37/46/50 36/43/50 56/47/50
f 35/48/51 31/49/51 24/50/51
f 35/48/52 59/51/52 31/49/52
f 49/52/53 59/51/53 35/48/53
f 49/52/54 60/53/54 59/51/54
f 59/51/55 32/54/55 31/49/55
f 52/45/56 61/44/56 49/52/56
f 61/44/57 60/53/57 49/52/57
f 60/53/58 32/54/58 59/51/58
f 62/55/59 33/56/59 32/54/59
f 61/44/60 63/57/60 60/53/60
f 60/53/61 62/55/61 32/54/61
f 36/43/62 64/58/62 61/44/62
f 64/58/63 63/57/63 61/44/63
f 63/57/64 65/59/64 60/53/64
f 65/59/65 62/55/65 60/53/65
f 62/55/66 34/60/66 33/56/66
f 64/58/67 65/59/67 63/57/67
f 37/46/68 64/58/68 36/43/68
f 65/59/69 66/61/69 62/55/69
f 65/59/70 110/62/70 66/61/70
f 66/61/71 113/63/71 62/55/71
f 62/55/72 113/63/72 34/60/72
f 37/46/73 15/64/73 64/58/73
f 107/65/74 65/59/74 64/58/74
f 113/63/75 9/66/75 34/60/75
f 31/67/76 67/68/76 24/69/76
f 24/69/77 67/68/77 25/70/77
f 67/68/78 26/71/78 25/70/78
f 32/72/79 67/68/79 31/67/79
f 33/73/80 67/68/80 32/72/80
f 33/73/81 68/74/81 67/68/81
f 67/68/82 68/74/82 26/71/82
f 69/75/83 68/74/83 33/73/83
f 68/74/84 70/76/84 26/71/84
f 26/71/85 70/76/85 27/77/85
f 34/78/86 69/75/86 33/73/86
f 69/75/87 120/79/87 68/74/87
f 120/79/88 70/76/88 68/74/88
f 70/76/89 71/80/89 27/77/89
f 70/76/90 121/81/90 71/80/90
f 120/79/91 121/81/91 70/76/91
f 9/82/92 69/75/92 34/78/92
f 117/83/93 120/79/93 69/75/93
f 121/81/94 125/84/94 71/80/94
f 71/80/95 125/84/95 6/85/95
f 27/86/96 74/87/96 26/88/96
f 71/89/97 28/90/97 27/91/97
f 25/92/98 30/93/98 24/94/98
f 25/92/99 72/95/99 30/93/99
f 25/92/100 73/96/100 72/95/100
f 26/88/101 74/87/101 25/92/101
f 25/92/102 75/97/102 73/96/102
f 25/92/103 74/87/103 75/97/103
f 75/97/104 76/98/104 73/96/104
f 73/96/105 76/98/105 29/99/105
f 76/98/106 77/100/106 29/99/106
f 27/86/107 28/90/107 74/87/107
f 28/90/108 78/101/108 74/87/108
f 74/87/109 78/101/109 75/97/109
f 76/98/110 79/102/110 77/100/110
f 77/100/111 79/102/111 44/103/111
f 28/90/112 81/104/112 78/101/112
f 78/101/113 81/104/113 75/97/113
f 81/104/114 82/105/114 75/97/114
f 75/97/115 82/105/115 76/98/115
f 82/105/116 79/102/116 76/98/116
f 79/102/117 83/106/117 44/103/117
f 71/89/118 6/107/118 28/90/118
f 6/107/119 80/108/119 28/90/119
f 80/108/120 81/104/120 28/90/120
f 82/105/121 84/109/121 79/102/121
f 84/109/122 137/110/122 79/102/122
f 79/102/123 137/110/123 83/106/123
f 2/111/124 47/15/124 83/106/124
f 188/112/125 85/113/125 186/114/125
f 186/114/126 85/113/126 2/111/126
f 2/111/127 85/113/127 47/15/127
f 85/113/128 86/19/128 47/15/128
f 188/112/129 87/115/129 85/113/129
f 85/113/130 87/115/130 86/19/130
f 191/116/131 87/115/131 188/112/131
f 191/116/132 89/117/132 87/115/132
f 87/115/133 90/118/133 86/19/133
f 90/118/134 88/18/134 86/19/134
f 89/117/135 90/118/135 87/115/135
f 191/116/136 193/119/136 89/117/136
f 193/119/137 91/120/137 89/117/137
f 90/118/138 92/121/138 88/18/138
f 196/122/139 91/120/139 193/119/139
f 91/120/140 93/123/140 89/117/140
f 89/117/141 93/123/141 90/118/141
f 90/118/142 93/123/142 92/121/142
f 92/121/143 48/16/143 88/18/143
f 199/124/144 19/125/144 196/122/144
f 91/120/145 140/126/145 93/123/145
f 93/123/146 17/127/146 92/121/146
f 92/121/147 17/127/147 48/16/147
f 17/127/148 16/39/148 48/16/148
f 21/128/149 23/129/149 22/130/149
f 20/131/150 99/132/150 21/128/150
f 147/133/151 102/134/151 20/131/151
f 23/129/152 57/36/152 16/39/152
f 23/129/153 94/135/153 57/36/153
f 23/129/154 96/136/154 94/135/154
f 94/135/155 95/40/155 57/36/155
f 94/135/156 97/137/156 95/40/156
f 21/128/157 96/136/157 23/129/157
f 96/136/158 97/137/158 94/135/158
f 97/137/159 98/41/159 95/40/159
f 21/128/160 99/132/160 96/136/160
f 96/136/161 99/132/161 97/137/161
f 97/137/162 100/138/162 98/41/162
f 99/132/163 101/139/163 97/137/163
f 101/139/164 100/138/164 97/137/164
f 20/131/165 102/134/165 99/132/165
f 103/140/166 98/41/166 100/138/166
f 101/139/167 105/141/167 100/138/167
f 105/141/168 103/140/168 100/138/168
f 103/140/169 106/42/169 98/41/169
f 98/41/170 106/42/170 58/37/170
f 102/134/171 104/142/171 99/132/171
f 99/132/172 104/142/172 101/139/172
f 104/142/173 105/141/173 101/139/173
f 105/141/174 14/143/174 103/140/174
f 13/144/175 37/38/175 106/42/175
f 150/145/176 108/146/176 148/147/176
f 148/147/177 107/65/177 15/64/177
f 15/64/178 107/65/178 64/58/178
f 148/147/179 108/146/179 107/65/179
f 108/146/180 109/148/180 107/65/180
f 107/65/181 109/148/181 65/59/181
f 109/148/182 110/62/182 65/59/182
f 150/145/183 155/149/183 108/146/183
f 108/146/184 114/150/184 109/148/184
f 111/151/185 112/152/185 109/148/185
f 109/148/186 112/152/186 110/62/186
f 110/62/187 112/152/187 66/61/187
f 112/152/188 113/63/188 66/61/188
f 155/149/189 114/150/189 108/146/189
f 114/150/190 111/151/190 109/148/190
f 111/151/191 115/153/191 112/152/191
f 115/153/192 116/154/192 112/152/192
f 112/152/193 116/154/193 113/63/193
f 162/155/194 114/150/194 155/149/194
f 116/154/195 9/66/195 113/63/195
f 171/156/196 122/157/196 10/158/196
f 12/159/197 117/83/197 9/82/197
f 9/82/198 117/83/198 69/75/198
f 12/159/199 11/160/199 117/83/199
f 117/83/200 118/161/200 120/79/200
f 11/160/201 118/161/201 117/83/201
f 10/158/202 119/162/202 11/160/202
f 11/160/203 119/162/203 118/161/203
f 10/158/204 122/157/204 119/162/204
f 122/157/205 123/163/205 119/162/205
f 119/162/206 123/163/206 118/161/206
f 123/163/207 121/81/207 118/161/207
f 118/161/208 121/81/208 120/79/208
f 122/157/209 124/164/209 123/163/209
f 123/163/210 125/84/210 121/81/210
f 171/156/211 126/165/211 122/157/211
f 126/165/212 127/166/212 122/157/212
f 127/166/213 128/167/213 122/157/213
f 122/157/214 128/167/214 124/164/214
f 124/164/215 128/167/215 123/163/215
f 128/167/216 125/84/216 123/163/216
f 128/167/217 173/168/217 125/84/217
f 7/169/218 130/170/218 8/171/218
f 174/172/219 80/108/219 6/85/219
f 174/172/220 129/173/220 80/108/220
f 129/173/221 81/104/221 80/108/221
f 174/172/222 8/171/222 129/173/222
f 130/170/223 129/173/223 8/171/223
f 130/170/224 131/174/224 129/173/224
f 129/173/225 131/174/225 81/104/225
f 131/174/226 82/105/226 81/104/226
f 131/174/227 84/109/227 82/105/227
f 179/175/228 132/176/228 130/170/228
f 132/176/229 133/177/229 130/170/229
f 130/170/230 133/177/230 131/174/230
f 131/174/231 133/177/231 84/109/231
f 179/175/232 134/178/232 132/176/232
f 134/178/233 133/177/233 132/176/233
f 133/177/234 136/179/234 84/109/234
f 182/180/235 134/178/235 179/175/235
f 134/178/236 135/181/236 133/177/236
f 135/181/237 136/179/237 133/177/237
f 136/179/238 137/110/238 84/109/238
f 138/182/239 137/110/239 136/179/239
f 182/180/240 139/183/240 134/178/240
f 139/183/241 5/184/241 134/178/241
f 134/178/242 5/184/242 135/181/242
f 5/184/243 4/185/243 135/181/243
f 135/181/244 4/185/244 136/179/244
f 138/182/245 3/186/245 137/110/245
f 137/110/246 2/111/246 83/106/246
f 196/122/247 18/187/247 91/120/247
f 17/127/248 141/188/248 16/39/248
f 141/188/249 23/129/249 16/39/249
f 141/188/250 22/130/250 23/129/250
f 93/123/251 140/126/251 17/127/251
f 140/126/252 141/188/252 17/127/252
f 140/126/253 142/189/253 141/188/253
f 141/188/254 144/190/254 22/130/254
f 142/189/255 143/191/255 141/188/255
f 143/191/256 144/190/256 141/188/256
f 144/190/257 21/128/257 22/130/257
f 91/120/258 18/187/258 140/126/258
f 18/187/259 142/189/259 140/126/259
f 144/190/260 20/131/260 21/128/260
f 18/187/261 145/192/261 142/189/261
f 142/189/262 146/193/262 143/191/262
f 143/191/263 146/193/263 144/190/263
f 144/190/264 146/193/264 20/131/264
f 145/192/265 146/193/265 142/189/265
f 196/122/266 19/125/266 18/187/266
f 19/125/267 145/192/267 18/187/267
f 146/193/268 147/133/268 20/131/268
f 13/144/269 15/64/269 37/38/269
f 103/140/270 13/144/270 106/42/270
f 13/144/271 148/147/271 15/64/271
f 103/140/272 14/143/272 13/144/272
f 14/143/273 149/194/273 13/144/273
f 13/144/274 149/194/274 148/147/274
f 149/194/275 150/145/275 148/147/275
f 14/143/276 151/195/276 149/194/276
f 105/141/277 152/196/277 14/143/277
f 152/196/278 151/195/278 14/143/278
f 149/194/279 153/197/279 150/145/279
f 151/195/280 153/197/280 149/194/280
f 105/141/281 156/198/281 152/196/281
f 156/198/282 151/195/282 152/196/282
f 153/197/283 154/199/283 150/145/283
f 154/199/284 155/149/284 150/145/284
f 102/134/285 156/198/285 104/142/285
f 104/142/286 156/198/286 105/141/286
f 159/200/287 157/201/287 151/195/287
f 151/195/288 157/201/288 153/197/288
f 102/134/289 158/202/289 156/198/289
f 156/198/290 159/200/290 151/195/290
f 159/200/291 203/203/291 157/201/291
f 153/197/292 157/201/292 154/199/292
f 154/199/293 161/204/293 155/149/293
f 158/202/294 160/205/294 156/198/294
f 160/205/295 159/200/295 156/198/295
f 157/201/296 161/204/296 154/199/296
f 161/204/297 162/155/297 155/149/297
f 147/133/298 158/202/298 102/134/298
f 160/205/299 203/203/299 159/200/299
f 111/151/300 164/206/300 115/153/300
f 116/154/301 163/207/301 9/66/301
f 9/66/302 163/207/302 12/208/302
f 115/153/303 164/206/303 116/154/303
f 116/154/304 164/206/304 163/207/304
f 164/206/305 165/209/305 163/207/305
f 163/207/306 165/209/306 12/208/306
f 165/209/307 11/210/307 12/208/307
f 164/206/308 166/211/308 165/209/308
f 165/209/309 168/212/309 11/210/309
f 111/151/310 167/213/310 164/206/310
f 167/213/311 166/211/311 164/206/311
f 168/212/312 10/214/312 11/210/312
f 114/150/313 162/155/313 111/151/313
f 162/155/314 167/213/314 111/151/314
f 166/211/315 169/215/315 165/209/315
f 167/213/316 170/216/316 166/211/316
f 170/216/317 169/215/317 166/211/317
f 165/209/318 169/215/318 168/212/318
f 162/155/319 170/216/319 167/213/319
f 169/215/320 171/217/320 168/212/320
f 168/212/321 171/217/321 10/214/321
f 170/216/322 172/218/322 169/215/322
f 169/215/323 172/218/323 171/217/323
f 172/218/324 126/219/324 171/217/324
f 170/216/325 205/220/325 172/218/325
f 172/218/326 183/221/326 126/219/326
f 128/167/327 175/222/327 173/168/327
f 125/84/328 173/168/328 6/85/328
f 173/168/329 174/172/329 6/85/329
f 173/168/330 176/223/330 174/172/330
f 176/223/331 8/171/331 174/172/331
f 173/168/332 175/222/332 176/223/332
f 175/222/333 177/224/333 176/223/333
f 176/223/334 177/224/334 8/171/334
f 177/224/335 7/169/335 8/171/335
f 128/167/336 178/225/336 175/222/336
f 7/169/337 179/175/337 130/170/337
f 127/166/338 178/225/338 128/167/338
f 178/225/339 180/226/339 175/222/339
f 175/222/340 180/226/340 177/224/340
f 177/224/341 180/226/341 7/169/341
f 7/169/342 181/227/342 179/175/342
f 181/227/343 182/180/343 179/175/343
f 126/165/344 183/228/344 127/166/344
f 127/166/345 183/228/345 178/225/345
f 183/228/346 184/229/346 178/225/346
f 178/225/347 184/229/347 180/226/347
f 180/226/348 185/230/348 7/169/348
f 7/169/349 185/230/349 181/227/349
f 184/229/350 185/230/350 180/226/350
f 207/231/351 185/230/351 184/229/351
f 181/227/352 1/232/352 182/180/352
f 137/110/353 3/186/353 2/111/353
f 3/186/354 186/114/354 2/111/354
f 187/233/355 186/114/355 3/186/355
f 138/182/356 187/233/356 3/186/356
f 187/233/357 188/112/357 186/114/357
f 136/179/358 4/185/358 138/182/358
f 4/185/359 189/234/359 138/182/359
f 138/182/360 189/234/360 187/233/360
f 189/234/361 190/235/361 187/233/361
f 190/235/362 188/112/362 187/233/362
f 4/185/363 5/184/363 189/234/363
f 190/235/364 192/236/364 188/112/364
f 188/112/365 192/236/365 191/116/365
f 189/234/366 194/237/366 190/235/366
f 192/236/367 193/119/367 191/116/367
f 5/184/368 195/238/368 189/234/368
f 195/238/369 194/237/369 189/234/369
f 194/237/370 192/236/370 190/235/370
f 139/183/371 197/239/371 5/184/371
f 197/239/372 195/238/372 5/184/372
f 194/237/373 198/240/373 192/236/373
f 192/236/374 198/240/374 193/119/374
f 193/119/375 199/124/375 196/122/375
f 194/237/376 195/238/376 198/240/376
f 198/240/377 199/124/377 193/119/377
f 182/180/378 1/232/378 139/183/378
f 139/183/379 1/232/379 197/239/379
f 199/241/380 209/242/380 19/125/380
f 209/242/381 145/192/381 19/125/381
f 209/242/382 146/193/382 145/192/382
f 200/243/383 146/193/383 209/242/383
f 210/244/384 200/243/384 209/242/384
f 210/244/385 201/245/385 200/243/385
f 200/243/386 147/133/386 146/193/386
f 210/244/387 212/246/387 201/245/387
f 200/243/388 158/247/388 147/133/388
f 200/248/389 160/205/389 158/202/389
f 201/249/390 202/250/390 200/248/390
f 200/248/391 202/250/391 160/205/391
f 202/250/392 203/203/392 160/205/392
f 201/249/393 204/251/393 202/250/393
f 202/250/394 157/201/394 203/203/394
f 212/252/395 206/253/395 201/249/395
f 202/250/396 161/204/396 157/201/396
f 202/254/397 205/220/397 161/204/397
f 161/204/398 205/220/398 162/155/398
f 205/220/399 170/216/399 162/155/399
f 202/254/400 204/255/400 205/220/400
f 204/255/401 206/256/401 205/220/401
f 205/220/402 207/257/402 172/218/402
f 201/258/403 206/256/403 204/255/403
f 206/256/404 208/259/404 205/220/404
f 207/257/405 183/221/405 172/218/405
f 208/259/406 207/257/406 205/220/406
f 1/232/407 211/260/407 197/239/407
f 199/124/408 210/261/408 209/262/408
f 198/240/409 210/261/409 199/124/409
f 195/238/410 210/261/410 198/240/410
f 195/238/411 197/239/411 210/261/411
f 197/239/412 211/260/412 210/261/412
f 210/261/413 211/260/413 212/263/413
f 207/231/414 184/229/414 183/228/414
f 207/231/415 208/264/415 185/230/415
f 206/265/416 211/266/416 208/264/416
f 208/264/417 181/227/417 185/230/417
f 208/264/418 211/266/418 181/227/418
f 181/227/419 211/266/419 1/232/419
f 206/265/420 212/267/420 211/266/420
