# Blender 5.2.1 LTS
# www.blender.org
o Chandelier
v -0.002956 -0.112070 -0.014392
v -0.002956 0.500000 -0.014392
v 0.008152 -0.112070 -0.007196
v 0.008152 0.500000 -0.007196
v 0.008152 -0.112070 0.007196
v 0.008152 0.500000 0.007196
v -0.002956 -0.112070 0.014392
v -0.002956 0.500000 0.014392
v -0.014065 -0.112070 0.007196
v -0.014065 0.500000 0.007196
v -0.014065 -0.112070 -0.007196
v -0.014065 0.500000 -0.007196
v -0.002956 -0.426158 -0.053969
v -0.002956 -0.087909 -0.053969
v 0.025317 -0.426158 -0.043662
v 0.025317 -0.087909 -0.043662
v 0.042790 -0.426158 -0.016677
v 0.042790 -0.087909 -0.016677
v 0.042790 -0.426158 0.016677
v 0.042790 -0.087909 0.016677
v 0.025317 -0.426158 0.043662
v 0.025317 -0.087909 0.043662
v -0.002956 -0.426158 0.053969
v -0.002956 -0.087909 0.053969
v -0.031229 -0.426158 0.043662
v -0.031229 -0.087909 0.043662
v -0.048703 -0.426158 0.016677
v -0.048703 -0.087909 0.016677
v -0.048703 -0.426158 -0.016677
v -0.048703 -0.087909 -0.016677
v -0.031229 -0.426158 -0.043662
v -0.031229 -0.087909 -0.043662
v -0.029679 -0.438239 0.029983
v -0.029679 -0.422131 0.053969
v -0.051057 -0.422131 0.029983
v -0.029679 -0.433521 0.046944
v -0.042022 -0.431431 0.043831
v -0.044796 -0.422131 0.046944
v -0.044796 -0.433521 0.029983
v -0.029679 -0.397971 0.053969
v -0.029679 -0.381864 0.029983
v -0.051057 -0.397971 0.029983
v -0.029679 -0.386581 0.046944
v -0.042022 -0.388671 0.043831
v -0.044796 -0.386581 0.029983
v -0.044796 -0.397971 0.046944
v -0.029679 -0.438239 -0.029983
v -0.051057 -0.422131 -0.029983
v -0.029679 -0.422131 -0.053969
v -0.044796 -0.433521 -0.029983
v -0.042022 -0.431431 -0.043831
v -0.044796 -0.422131 -0.046944
v -0.029679 -0.433521 -0.046944
v -0.029679 -0.381864 -0.029983
v -0.029679 -0.397971 -0.053969
v -0.051057 -0.397971 -0.029983
v -0.029679 -0.386581 -0.046944
v -0.042022 -0.388671 -0.043831
v -0.044796 -0.397971 -0.046944
v -0.044796 -0.386581 -0.029983
v 0.023766 -0.438239 0.029983
v 0.045145 -0.422131 0.029983
v 0.023766 -0.422131 0.053969
v 0.038883 -0.433521 0.029983
v 0.036109 -0.431431 0.043831
v 0.038883 -0.422131 0.046944
v 0.023766 -0.433521 0.046944
v 0.023766 -0.381864 0.029983
v 0.023766 -0.397971 0.053969
v 0.045145 -0.397971 0.029983
v 0.023766 -0.386581 0.046944
v 0.036109 -0.388671 0.043831
v 0.038883 -0.397971 0.046944
v 0.038883 -0.386581 0.029983
v 0.023766 -0.438239 -0.029983
v 0.023766 -0.422131 -0.053969
v 0.045145 -0.422131 -0.029983
v 0.023766 -0.433521 -0.046944
v 0.036109 -0.431431 -0.043831
v 0.038883 -0.422131 -0.046944
v 0.038883 -0.433521 -0.029983
v 0.023766 -0.381864 -0.029983
v 0.045145 -0.397971 -0.029983
v 0.023766 -0.397971 -0.053969
v 0.038883 -0.386581 -0.029983
v 0.036109 -0.388671 -0.043831
v 0.038883 -0.397971 -0.046944
v 0.023766 -0.386581 -0.046944
v -0.240388 -0.321462 0.008395
v -0.464859 -0.321462 -0.427833
v -0.233908 -0.331226 0.004198
v -0.458379 -0.331226 -0.432031
v -0.220948 -0.331226 -0.004198
v -0.445419 -0.331226 -0.440426
v -0.214468 -0.321462 -0.008395
v -0.438939 -0.321462 -0.444623
v -0.220948 -0.311698 -0.004198
v -0.445419 -0.311698 -0.440426
v -0.233908 -0.311698 0.004198
v -0.458379 -0.311698 -0.432031
v 0.221515 -0.321462 0.453019
v -0.227428 -0.321462 0.453019
v 0.221515 -0.331226 0.444623
v -0.227428 -0.331226 0.444623
v 0.221515 -0.331226 0.427833
v -0.227428 -0.331226 0.427833
v 0.221515 -0.321462 0.419438
v -0.227428 -0.321462 0.419438
v 0.221515 -0.311698 0.427833
v -0.227428 -0.311698 0.427833
v 0.221515 -0.311698 0.444623
v -0.227428 -0.311698 0.444623
v 0.458946 -0.321462 -0.427833
v 0.234475 -0.321462 0.008395
v 0.452466 -0.331226 -0.432031
v 0.227995 -0.331226 0.004198
v 0.439507 -0.331226 -0.440426
v 0.215035 -0.331226 -0.004198
v 0.433027 -0.321462 -0.444623
v 0.208555 -0.321462 -0.008395
v 0.439507 -0.311698 -0.440426
v 0.215035 -0.311698 -0.004198
v 0.452466 -0.311698 -0.432031
v 0.227995 -0.311698 0.004198
v -0.438939 -0.321462 -0.444623
v -0.214468 -0.321462 -0.008395
v -0.445419 -0.331226 -0.440426
v -0.220948 -0.331226 -0.004198
v -0.458379 -0.331226 -0.432031
v -0.233908 -0.331226 0.004198
v -0.464859 -0.321462 -0.427833
v -0.240387 -0.321462 0.008395
v -0.458379 -0.311698 -0.432031
v -0.233908 -0.311698 0.004198
v -0.445419 -0.311698 -0.440426
v -0.220948 -0.311698 -0.004198
v -0.227428 -0.321462 0.419438
v 0.221515 -0.321462 0.419438
v -0.227428 -0.331226 0.427833
v 0.221515 -0.331226 0.427833
v -0.227428 -0.331226 0.444623
v 0.221515 -0.331226 0.444623
v -0.227428 -0.321462 0.453019
v 0.221515 -0.321462 0.453019
v -0.227428 -0.311698 0.444623
v 0.221515 -0.311698 0.444623
v -0.227428 -0.311698 0.427833
v 0.221515 -0.311698 0.427833
v 0.208555 -0.321462 -0.008395
v 0.433027 -0.321462 -0.444623
v 0.215035 -0.331226 -0.004198
v 0.439506 -0.331226 -0.440426
v 0.227995 -0.331226 0.004198
v 0.452466 -0.331226 -0.432031
v 0.234475 -0.321462 0.008395
v 0.458946 -0.321462 -0.427833
v 0.227995 -0.311698 0.004198
v 0.452466 -0.311698 -0.432031
v 0.215035 -0.311698 -0.004198
v 0.439506 -0.311698 -0.440426
v 0.012898 -0.361095 -0.014392
v 0.496087 -0.224065 -0.014392
v 0.016811 -0.368928 -0.007196
v 0.500000 -0.231898 -0.007196
v 0.016811 -0.368928 0.007196
v 0.500000 -0.231898 0.007196
v 0.012898 -0.361095 0.014392
v 0.496087 -0.224065 0.014392
v 0.008985 -0.353262 0.007196
v 0.492174 -0.216232 0.007196
v 0.008985 -0.353262 -0.007196
v 0.492174 -0.216232 -0.007196
v 0.445986 -0.293275 -0.053969
v 0.445986 -0.253007 -0.053969
v 0.479999 -0.293275 -0.038162
v 0.479999 -0.253007 -0.038162
v 0.494087 -0.293275 0.000000
v 0.494087 -0.253007 0.000000
v 0.479999 -0.293275 0.038162
v 0.479999 -0.253007 0.038162
v 0.445986 -0.293275 0.053969
v 0.445986 -0.253007 0.053969
v 0.411974 -0.293275 0.038162
v 0.411974 -0.253007 0.038162
v 0.397885 -0.293275 0.000000
v 0.397885 -0.253007 0.000000
v 0.411974 -0.293275 -0.038162
v 0.411974 -0.253007 -0.038162
v 0.445986 -0.261060 -0.026385
v 0.445986 -0.156364 -0.026385
v 0.466352 -0.261060 -0.013192
v 0.466352 -0.156364 -0.013192
v 0.466352 -0.261060 0.013192
v 0.466352 -0.156364 0.013192
v 0.445986 -0.261060 0.026385
v 0.445986 -0.156364 0.026385
v 0.425621 -0.261060 0.013192
v 0.425621 -0.156364 0.013192
v 0.425621 -0.261060 -0.013192
v 0.425621 -0.156364 -0.013192
v -0.249099 -0.393863 -0.030291
v -0.007505 -0.256833 -0.499796
v -0.241588 -0.401696 -0.030496
v 0.000006 -0.264666 -0.500000
v -0.230480 -0.401696 -0.023300
v 0.011115 -0.264666 -0.492804
v -0.226882 -0.393863 -0.015899
v 0.014712 -0.256833 -0.485404
v -0.234393 -0.386030 -0.015695
v 0.007201 -0.249000 -0.485199
v -0.245501 -0.386030 -0.022891
v -0.003907 -0.249000 -0.492395
v 0.221515 -0.293275 -0.490197
v 0.221515 -0.253007 -0.490197
v 0.255528 -0.293275 -0.474390
v 0.255528 -0.253007 -0.474390
v 0.269616 -0.293275 -0.436228
v 0.269616 -0.253007 -0.436228
v 0.255528 -0.293275 -0.398066
v 0.255528 -0.253007 -0.398066
v 0.221515 -0.293275 -0.382259
v 0.221515 -0.253007 -0.382259
v 0.187503 -0.293275 -0.398066
v 0.187503 -0.253007 -0.398066
v 0.173414 -0.293275 -0.436228
v 0.173414 -0.253007 -0.436228
v 0.187503 -0.293275 -0.474390
v 0.187503 -0.253007 -0.474390
v 0.221515 -0.261060 -0.462613
v 0.221515 -0.156364 -0.462613
v 0.241881 -0.261060 -0.449421
v 0.241881 -0.156364 -0.449421
v 0.241881 -0.261060 -0.423036
v 0.241881 -0.156364 -0.423036
v 0.221515 -0.261060 -0.409843
v 0.221515 -0.156364 -0.409843
v 0.201150 -0.261060 -0.423036
v 0.201150 -0.156364 -0.423036
v 0.201150 -0.261060 -0.449421
v 0.201150 -0.156364 -0.449421
v -0.033863 -0.459399 0.448572
v -0.275457 -0.322369 -0.020933
v -0.030265 -0.467232 0.441171
v -0.271860 -0.330202 -0.028333
v -0.019157 -0.467232 0.433975
v -0.260751 -0.330202 -0.035529
v -0.011646 -0.459399 0.434180
v -0.253241 -0.322369 -0.035325
v -0.015244 -0.451566 0.441580
v -0.256838 -0.314536 -0.027924
v -0.026352 -0.451566 0.448776
v -0.267947 -0.314536 -0.020728
v -0.227428 -0.293275 -0.490197
v -0.227428 -0.253007 -0.490197
v -0.193415 -0.293275 -0.474390
v -0.193415 -0.253007 -0.474390
v -0.179327 -0.293275 -0.436228
v -0.179327 -0.253007 -0.436228
v -0.193415 -0.293275 -0.398066
v -0.193415 -0.253007 -0.398066
v -0.227428 -0.293275 -0.382259
v -0.227428 -0.253007 -0.382259
v -0.261440 -0.293275 -0.398066
v -0.261440 -0.253007 -0.398066
v -0.275529 -0.293275 -0.436228
v -0.275529 -0.253007 -0.436228
v -0.261440 -0.293275 -0.474390
v -0.261440 -0.253007 -0.474390
v -0.227428 -0.261060 -0.462613
v -0.227428 -0.156364 -0.462613
v -0.207062 -0.261060 -0.449421
v -0.207062 -0.156364 -0.449421
v -0.207062 -0.261060 -0.423036
v -0.207062 -0.156364 -0.423036
v -0.227428 -0.261060 -0.409843
v -0.227428 -0.156364 -0.409843
v -0.247793 -0.261060 -0.423036
v -0.247793 -0.156364 -0.423036
v -0.247793 -0.261060 -0.449421
v -0.247793 -0.156364 -0.449421
v 0.443370 -0.492167 0.014392
v -0.039819 -0.355137 0.014392
v 0.439457 -0.500000 0.007196
v -0.043732 -0.362970 0.007196
v 0.439457 -0.500000 -0.007196
v -0.043732 -0.362970 -0.007196
v 0.443370 -0.492167 -0.014392
v -0.039819 -0.355137 -0.014392
v 0.447283 -0.484334 -0.007196
v -0.035906 -0.347304 -0.007196
v 0.447283 -0.484334 0.007196
v -0.035906 -0.347304 0.007196
v -0.451899 -0.293275 -0.053969
v -0.451899 -0.253007 -0.053969
v -0.417886 -0.293275 -0.038162
v -0.417886 -0.253007 -0.038162
v -0.403798 -0.293275 -0.000000
v -0.403798 -0.253007 -0.000000
v -0.417886 -0.293275 0.038162
v -0.417886 -0.253007 0.038162
v -0.451899 -0.293275 0.053969
v -0.451899 -0.253007 0.053969
v -0.485912 -0.293275 0.038162
v -0.485912 -0.253007 0.038162
v -0.500000 -0.293275 -0.000000
v -0.500000 -0.253007 -0.000000
v -0.485912 -0.293275 -0.038162
v -0.485912 -0.253007 -0.038162
v -0.451899 -0.261060 -0.026385
v -0.451899 -0.156364 -0.026385
v -0.431533 -0.261060 -0.013192
v -0.431533 -0.156364 -0.013192
v -0.431533 -0.261060 0.013192
v -0.431533 -0.156364 0.013192
v -0.451899 -0.261060 0.026385
v -0.451899 -0.156364 0.026385
v -0.472264 -0.261060 0.013192
v -0.472264 -0.156364 0.013192
v -0.472264 -0.261060 -0.013192
v -0.472264 -0.156364 -0.013192
v -0.011646 -0.459399 -0.434180
v -0.253241 -0.322369 0.035325
v -0.019157 -0.467232 -0.433975
v -0.260751 -0.330202 0.035529
v -0.030266 -0.467232 -0.441171
v -0.271860 -0.330202 0.028333
v -0.033863 -0.459399 -0.448572
v -0.275457 -0.322369 0.020933
v -0.026352 -0.451566 -0.448776
v -0.267947 -0.314536 0.020728
v -0.015244 -0.451566 -0.441580
v -0.256838 -0.314536 0.027924
v -0.227428 -0.293275 0.382259
v -0.227428 -0.253007 0.382259
v -0.193415 -0.293275 0.398066
v -0.193415 -0.253007 0.398066
v -0.179327 -0.293275 0.436228
v -0.179327 -0.253007 0.436228
v -0.193415 -0.293275 0.474390
v -0.193415 -0.253007 0.474390
v -0.227428 -0.293275 0.490197
v -0.227428 -0.253007 0.490197
v -0.261440 -0.293275 0.474390
v -0.261440 -0.253007 0.474390
v -0.275529 -0.293275 0.436228
v -0.275529 -0.253007 0.436228
v -0.261440 -0.293275 0.398066
v -0.261440 -0.253007 0.398066
v -0.227428 -0.261060 0.409843
v -0.227428 -0.156364 0.409843
v -0.207062 -0.261060 0.423036
v -0.207062 -0.156364 0.423036
v -0.207062 -0.261060 0.449421
v -0.207062 -0.156364 0.449421
v -0.227428 -0.261060 0.462613
v -0.227428 -0.156364 0.462613
v -0.247793 -0.261060 0.449421
v -0.247793 -0.156364 0.449421
v -0.247793 -0.261060 0.423036
v -0.247793 -0.156364 0.423036
v -0.226882 -0.393863 0.015899
v 0.014712 -0.256833 0.485404
v -0.230480 -0.401696 0.023300
v 0.011115 -0.264666 0.492804
v -0.241588 -0.401696 0.030496
v 0.000006 -0.264666 0.500000
v -0.249099 -0.393863 0.030291
v -0.007505 -0.256833 0.499796
v -0.245501 -0.386030 0.022891
v -0.003907 -0.249000 0.492395
v -0.234393 -0.386030 0.015695
v 0.007201 -0.249000 0.485199
v 0.221515 -0.293275 0.382259
v 0.221515 -0.253007 0.382259
v 0.255528 -0.293275 0.398066
v 0.255528 -0.253007 0.398066
v 0.269616 -0.293275 0.436228
v 0.269616 -0.253007 0.436228
v 0.255528 -0.293275 0.474390
v 0.255528 -0.253007 0.474390
v 0.221515 -0.293275 0.490197
v 0.221515 -0.253007 0.490197
v 0.187503 -0.293275 0.474390
v 0.187503 -0.253007 0.474390
v 0.173414 -0.293275 0.436228
v 0.173414 -0.253007 0.436228
v 0.187503 -0.293275 0.398066
v 0.187503 -0.253007 0.398066
v 0.221515 -0.261060 0.409843
v 0.221515 -0.156364 0.409843
v 0.241881 -0.261060 0.423036
v 0.241881 -0.156364 0.423036
v 0.241881 -0.261060 0.449421
v 0.241881 -0.156364 0.449421
v 0.221515 -0.261060 0.462613
v 0.221515 -0.156364 0.462613
v 0.201150 -0.261060 0.449421
v 0.201150 -0.156364 0.449421
v 0.201150 -0.261060 0.423036
v 0.201150 -0.156364 0.423036
vn 0.5437 -0.0000 -0.8393
vn 1.0000 -0.0000 -0.0000
vn 0.5437 -0.0000 0.8393
vn -0.5437 -0.0000 0.8393
vn -0.0000 1.0000 -0.0000
vn -1.0000 -0.0000 -0.0000
vn -0.5437 -0.0000 -0.8393
vn -0.0000 -1.0000 -0.0000
vn 0.3425 -0.0000 -0.9395
vn 0.8394 -0.0000 -0.5435
vn 0.8394 -0.0000 0.5435
vn 0.3425 -0.0000 0.9395
vn -0.3425 -0.0000 0.9395
vn -0.8394 -0.0000 0.5435
vn -0.8394 -0.0000 -0.5435
vn -0.3425 -0.0000 -0.9395
vn -0.2919 -0.9354 0.1996
vn -0.2904 -0.5024 0.8144
vn -0.8723 -0.3680 0.3220
vn -0.3873 0.3944 0.8333
vn -0.2248 0.9388 0.2611
vn -0.8505 0.4676 0.2409
vn -0.2248 -0.9388 -0.2611
vn -0.8505 -0.4676 -0.2409
vn -0.3873 -0.3944 -0.8333
vn -0.2919 0.9354 -0.1996
vn -0.2904 0.5024 -0.8144
vn -0.8723 0.3680 -0.3220
vn 0.2248 -0.9388 0.2611
vn 0.8505 -0.4676 0.2409
vn 0.3873 -0.3944 0.8333
vn 0.2919 0.9354 0.1996
vn 0.2904 0.5024 0.8144
vn 0.8723 0.3680 0.3220
vn 0.2919 -0.9354 -0.1996
vn 0.2904 -0.5024 -0.8144
vn 0.8723 -0.3680 -0.3220
vn 0.2248 0.9388 -0.2611
vn 0.8505 0.4676 -0.2409
vn 0.3873 0.3944 -0.8333
vn -0.2979 -0.9546 -0.0000
vn -0.8763 -0.4818 -0.0000
vn -0.4215 -0.0000 0.9068
vn -0.9381 -0.0000 0.3463
vn -0.2979 0.9546 -0.0000
vn -0.8763 0.4818 -0.0000
vn -0.4215 -0.0000 -0.9068
vn -0.9381 -0.0000 -0.3463
vn -0.0000 -0.9634 -0.2680
vn -0.0000 -0.5250 -0.8511
vn -0.0000 0.9634 -0.2680
vn -0.0000 0.5250 -0.8511
vn 0.9381 -0.0000 -0.3463
vn 0.4215 -0.0000 -0.9068
vn 0.2979 -0.9546 -0.0000
vn 0.8763 -0.4818 -0.0000
vn 0.2979 0.9546 -0.0000
vn 0.8763 0.4818 -0.0000
vn 0.4215 -0.0000 0.9068
vn 0.9381 -0.0000 0.3463
vn -0.0000 -0.9634 0.2680
vn -0.0000 -0.5250 0.8511
vn -0.0000 0.9634 0.2680
vn -0.0000 0.5250 0.8511
vn -0.0000 -0.0000 1.0000
vn -0.0000 -0.0000 -1.0000
vn -0.6988 -0.6183 0.3596
vn 0.6988 -0.6183 -0.3596
vn 0.6988 0.6183 -0.3596
vn -0.6988 0.6183 0.3596
vn -0.0000 -0.6519 0.7583
vn -0.0000 -0.6519 -0.7583
vn -0.0000 0.6519 -0.7583
vn -0.0000 0.6519 0.7583
vn 0.6988 -0.6183 0.3596
vn -0.6988 -0.6183 -0.3596
vn -0.6988 0.6183 -0.3596
vn 0.6988 0.6183 0.3596
vn 0.1750 -0.6172 -0.7671
vn 0.2728 -0.9621 -0.0000
vn 0.1750 -0.6172 0.7671
vn -0.1750 0.6172 0.7671
vn 0.8946 0.4469 -0.0000
vn -0.2728 0.9621 -0.0000
vn -0.1750 0.6172 -0.7671
vn -0.8946 -0.4469 -0.0000
vn -0.6322 -0.5932 -0.4984
vn 0.1372 -0.9676 -0.2118
vn 0.7813 -0.5790 0.2330
vn 0.6322 0.5932 0.4984
vn 0.4777 0.4773 -0.7375
vn -0.1372 0.9676 0.2118
vn -0.7813 0.5790 -0.2330
vn -0.4777 -0.4773 0.7375
vn -0.7813 -0.5790 0.2330
vn -0.1372 -0.9676 -0.2118
vn 0.6322 -0.5932 -0.4984
vn 0.7813 0.5790 -0.2330
vn -0.4777 0.4773 -0.7375
vn 0.1372 0.9676 0.2118
vn -0.6322 0.5932 0.4984
vn 0.4777 -0.4773 0.7375
vn -0.1750 -0.6172 0.7671
vn -0.2728 -0.9621 -0.0000
vn -0.1750 -0.6172 -0.7671
vn 0.1750 0.6172 -0.7671
vn -0.8946 0.4469 -0.0000
vn 0.2728 0.9621 -0.0000
vn 0.1750 0.6172 0.7671
vn 0.8946 -0.4469 -0.0000
vn 0.6322 -0.5932 0.4984
vn -0.1372 -0.9676 0.2118
vn -0.7813 -0.5790 -0.2330
vn -0.6322 0.5932 -0.4984
vn -0.4777 0.4773 0.7375
vn 0.1372 0.9676 -0.2118
vn 0.7813 0.5790 0.2330
vn 0.4777 -0.4773 -0.7375
vn 0.7813 -0.5790 -0.2330
vn 0.1372 -0.9676 0.2118
vn -0.6322 -0.5932 0.4984
vn -0.7813 0.5790 0.2330
vn 0.4777 0.4773 0.7375
vn -0.1372 0.9676 -0.2118
vn 0.6322 0.5932 -0.4984
vn -0.4777 -0.4773 -0.7375
vn -0.2248 -0.9388 0.2611
vn -0.3873 -0.3944 0.8333
vn -0.8505 -0.4676 0.2409
vn -0.2904 0.5024 0.8144
vn -0.2919 0.9354 0.1996
vn -0.8723 0.3680 0.3220
vn -0.2919 -0.9354 -0.1996
vn -0.8723 -0.3680 -0.3220
vn -0.2904 -0.5024 -0.8144
vn -0.2248 0.9388 -0.2611
vn -0.3873 0.3944 -0.8333
vn -0.8505 0.4676 -0.2409
vn 0.2919 -0.9354 0.1996
vn 0.8723 -0.3680 0.3220
vn 0.2904 -0.5024 0.8144
vn 0.2248 0.9388 0.2611
vn 0.3873 0.3944 0.8333
vn 0.8505 0.4676 0.2409
vn 0.2248 -0.9388 -0.2611
vn 0.3873 -0.3944 -0.8333
vn 0.8505 -0.4676 -0.2409
vn 0.2919 0.9354 -0.1996
vn 0.8723 0.3680 -0.3220
vn 0.2904 0.5024 -0.8144
s 0
f 2//1 3//1 1//1
f 4//2 5//2 3//2
f 6//3 7//3 5//3
f 8//4 9//4 7//4
f 2//5 10//5 6//5
f 10//6 11//6 9//6
f 12//7 1//7 11//7
f 3//8 7//8 11//8
f 14//9 15//9 13//9
f 16//10 17//10 15//10
f 18//2 19//2 17//2
f 20//11 21//11 19//11
f 22//12 23//12 21//12
f 24//13 25//13 23//13
f 26//14 27//14 25//14
f 28//6 29//6 27//6
f 30//5 22//5 18//5
f 30//15 31//15 29//15
f 32//16 13//16 31//16
f 19//8 27//8 31//8
f 33//17 37//17 39//17
f 34//18 37//18 36//18
f 35//19 37//19 38//19
f 40//20 44//20 46//20
f 41//21 44//21 43//21
f 42//22 44//22 45//22
f 47//23 51//23 53//23
f 48//24 51//24 50//24
f 49//25 51//25 52//25
f 54//26 58//26 60//26
f 55//27 58//27 57//27
f 56//28 58//28 59//28
f 61//29 65//29 67//29
f 62//30 65//30 64//30
f 63//31 65//31 66//31
f 68//32 72//32 74//32
f 69//33 72//33 71//33
f 70//34 72//34 73//34
f 75//35 79//35 81//35
f 76//36 79//36 78//36
f 77//37 79//37 80//37
f 82//38 86//38 88//38
f 83//39 86//39 85//39
f 84//40 86//40 87//40
f 33//41 50//41 47//41
f 39//42 48//42 50//42
f 40//43 38//43 34//43
f 38//44 42//44 35//44
f 41//45 60//45 45//45
f 60//46 42//46 45//46
f 49//47 59//47 55//47
f 59//48 48//48 56//48
f 47//49 78//49 75//49
f 53//50 76//50 78//50
f 82//51 57//51 54//51
f 88//52 55//52 57//52
f 83//53 80//53 87//53
f 80//54 84//54 87//54
f 61//55 81//55 64//55
f 81//56 62//56 64//56
f 68//57 85//57 82//57
f 74//58 83//58 85//58
f 63//59 73//59 69//59
f 73//60 62//60 70//60
f 61//61 36//61 33//61
f 67//62 34//62 36//62
f 41//63 71//63 68//63
f 43//64 69//64 71//64
f 75//8 33//8 47//8
f 42//6 48//6 35//6
f 69//65 34//65 63//65
f 54//5 68//5 82//5
f 55//66 76//66 49//66
f 83//2 62//2 77//2
f 90//67 91//67 89//67
f 92//8 93//8 91//8
f 94//68 95//68 93//68
f 95//69 98//69 97//69
f 90//7 98//7 94//7
f 97//5 100//5 99//5
f 99//70 90//70 89//70
f 91//3 95//3 99//3
f 102//71 103//71 101//71
f 104//8 105//8 103//8
f 106//72 107//72 105//72
f 108//73 109//73 107//73
f 102//6 110//6 106//6
f 110//5 111//5 109//5
f 112//74 101//74 111//74
f 103//2 107//2 111//2
f 113//75 116//75 115//75
f 115//8 118//8 117//8
f 117//76 120//76 119//76
f 120//77 121//77 119//77
f 114//4 122//4 118//4
f 122//5 123//5 121//5
f 124//78 113//78 123//78
f 115//1 119//1 123//1
f 126//68 127//68 125//68
f 128//8 129//8 127//8
f 130//67 131//67 129//67
f 131//70 134//70 133//70
f 126//3 134//3 130//3
f 133//5 136//5 135//5
f 135//69 126//69 125//69
f 127//7 131//7 135//7
f 138//72 139//72 137//72
f 140//8 141//8 139//8
f 142//71 143//71 141//71
f 144//74 145//74 143//74
f 138//2 146//2 142//2
f 146//5 147//5 145//5
f 148//73 137//73 147//73
f 139//6 143//6 147//6
f 149//76 152//76 151//76
f 151//8 154//8 153//8
f 153//75 156//75 155//75
f 156//78 157//78 155//78
f 150//1 158//1 154//1
f 158//5 159//5 157//5
f 160//77 149//77 159//77
f 151//4 155//4 159//4
f 162//79 163//79 161//79
f 164//80 165//80 163//80
f 165//81 168//81 167//81
f 167//82 170//82 169//82
f 162//83 170//83 166//83
f 170//84 171//84 169//84
f 172//85 161//85 171//85
f 163//86 167//86 171//86
f 174//54 175//54 173//54
f 176//53 177//53 175//53
f 178//60 179//60 177//60
f 180//59 181//59 179//59
f 182//43 183//43 181//43
f 184//44 185//44 183//44
f 186//5 182//5 178//5
f 186//48 187//48 185//48
f 188//47 173//47 187//47
f 179//8 183//8 187//8
f 190//1 191//1 189//1
f 192//2 193//2 191//2
f 194//3 195//3 193//3
f 196//4 197//4 195//4
f 190//5 198//5 194//5
f 198//6 199//6 197//6
f 200//7 189//7 199//7
f 191//8 195//8 199//8
f 202//87 203//87 201//87
f 203//88 206//88 205//88
f 205//89 208//89 207//89
f 207//90 210//90 209//90
f 202//91 210//91 206//91
f 210//92 211//92 209//92
f 212//93 201//93 211//93
f 203//94 207//94 211//94
f 214//54 215//54 213//54
f 216//53 217//53 215//53
f 218//60 219//60 217//60
f 220//59 221//59 219//59
f 222//43 223//43 221//43
f 224//44 225//44 223//44
f 226//5 222//5 218//5
f 226//48 227//48 225//48
f 228//47 213//47 227//47
f 219//8 223//8 227//8
f 230//1 231//1 229//1
f 232//2 233//2 231//2
f 234//3 235//3 233//3
f 236//4 237//4 235//4
f 230//5 238//5 234//5
f 238//6 239//6 237//6
f 240//7 229//7 239//7
f 231//8 235//8 239//8
f 242//95 243//95 241//95
f 244//96 245//96 243//96
f 245//97 248//97 247//97
f 247//98 250//98 249//98
f 242//99 250//99 246//99
f 249//100 252//100 251//100
f 252//101 241//101 251//101
f 243//102 247//102 251//102
f 254//54 255//54 253//54
f 256//53 257//53 255//53
f 258//60 259//60 257//60
f 260//59 261//59 259//59
f 262//43 263//43 261//43
f 264//44 265//44 263//44
f 266//5 262//5 258//5
f 266//48 267//48 265//48
f 268//47 253//47 267//47
f 259//8 263//8 267//8
f 270//1 271//1 269//1
f 272//2 273//2 271//2
f 274//3 275//3 273//3
f 276//4 277//4 275//4
f 270//5 278//5 274//5
f 278//6 279//6 277//6
f 280//7 269//7 279//7
f 271//8 275//8 279//8
f 282//103 283//103 281//103
f 284//104 285//104 283//104
f 285//105 288//105 287//105
f 287//106 290//106 289//106
f 282//107 290//107 286//107
f 290//108 291//108 289//108
f 292//109 281//109 291//109
f 283//110 287//110 291//110
f 294//54 295//54 293//54
f 296//53 297//53 295//53
f 298//60 299//60 297//60
f 300//59 301//59 299//59
f 302//43 303//43 301//43
f 304//44 305//44 303//44
f 306//5 302//5 298//5
f 306//48 307//48 305//48
f 308//47 293//47 307//47
f 299//8 303//8 307//8
f 310//1 311//1 309//1
f 312//2 313//2 311//2
f 314//3 315//3 313//3
f 316//4 317//4 315//4
f 310//5 318//5 314//5
f 318//6 319//6 317//6
f 320//7 309//7 319//7
f 311//8 315//8 319//8
f 322//111 323//111 321//111
f 323//112 326//112 325//112
f 325//113 328//113 327//113
f 327//114 330//114 329//114
f 322//115 330//115 326//115
f 330//116 331//116 329//116
f 332//117 321//117 331//117
f 323//118 327//118 331//118
f 334//54 335//54 333//54
f 336//53 337//53 335//53
f 338//60 339//60 337//60
f 340//59 341//59 339//59
f 342//43 343//43 341//43
f 344//44 345//44 343//44
f 346//5 342//5 338//5
f 346//48 347//48 345//48
f 348//47 333//47 347//47
f 339//8 343//8 347//8
f 350//1 351//1 349//1
f 352//2 353//2 351//2
f 354//3 355//3 353//3
f 356//4 357//4 355//4
f 350//5 358//5 354//5
f 358//6 359//6 357//6
f 360//7 349//7 359//7
f 351//8 355//8 359//8
f 362//119 363//119 361//119
f 364//120 365//120 363//120
f 365//121 368//121 367//121
f 367//122 370//122 369//122
f 362//123 370//123 366//123
f 369//124 372//124 371//124
f 372//125 361//125 371//125
f 363//126 367//126 371//126
f 374//54 375//54 373//54
f 376//53 377//53 375//53
f 378//60 379//60 377//60
f 380//59 381//59 379//59
f 382//43 383//43 381//43
f 384//44 385//44 383//44
f 386//5 382//5 378//5
f 386//48 387//48 385//48
f 388//47 373//47 387//47
f 379//8 383//8 387//8
f 390//1 391//1 389//1
f 392//2 393//2 391//2
f 394//3 395//3 393//3
f 396//4 397//4 395//4
f 390//5 398//5 394//5
f 398//6 399//6 397//6
f 400//7 389//7 399//7
f 391//8 395//8 399//8
f 2//1 4//1 3//1
f 4//2 6//2 5//2
f 6//3 8//3 7//3
f 8//4 10//4 9//4
f 6//5 4//5 2//5
f 2//5 12//5 10//5
f 10//5 8//5 6//5
f 10//6 12//6 11//6
f 12//7 2//7 1//7
f 11//8 1//8 3//8
f 3//8 5//8 7//8
f 7//8 9//8 11//8
f 14//9 16//9 15//9
f 16//10 18//10 17//10
f 18//2 20//2 19//2
f 20//11 22//11 21//11
f 22//12 24//12 23//12
f 24//13 26//13 25//13
f 26//14 28//14 27//14
f 28//6 30//6 29//6
f 18//5 16//5 14//5
f 14//5 32//5 30//5
f 30//5 28//5 26//5
f 26//5 24//5 22//5
f 22//5 20//5 18//5
f 18//5 14//5 30//5
f 30//5 26//5 22//5
f 30//15 32//15 31//15
f 32//16 14//16 13//16
f 31//8 13//8 15//8
f 15//8 17//8 19//8
f 19//8 21//8 23//8
f 23//8 25//8 27//8
f 27//8 29//8 31//8
f 31//8 15//8 19//8
f 19//8 23//8 27//8
f 33//127 36//127 37//127
f 34//128 38//128 37//128
f 35//129 39//129 37//129
f 40//130 43//130 44//130
f 41//131 45//131 44//131
f 42//132 46//132 44//132
f 47//133 50//133 51//133
f 48//134 52//134 51//134
f 49//135 53//135 51//135
f 54//136 57//136 58//136
f 55//137 59//137 58//137
f 56//138 60//138 58//138
f 61//139 64//139 65//139
f 62//140 66//140 65//140
f 63//141 67//141 65//141
f 68//142 71//142 72//142
f 69//143 73//143 72//143
f 70//144 74//144 72//144
f 75//145 78//145 79//145
f 76//146 80//146 79//146
f 77//147 81//147 79//147
f 82//148 85//148 86//148
f 83//149 87//149 86//149
f 84//150 88//150 86//150
f 33//41 39//41 50//41
f 39//42 35//42 48//42
f 40//43 46//43 38//43
f 38//44 46//44 42//44
f 41//45 54//45 60//45
f 60//46 56//46 42//46
f 49//47 52//47 59//47
f 59//48 52//48 48//48
f 47//49 53//49 78//49
f 53//50 49//50 76//50
f 82//51 88//51 57//51
f 88//52 84//52 55//52
f 83//53 77//53 80//53
f 80//54 76//54 84//54
f 61//55 75//55 81//55
f 81//56 77//56 62//56
f 68//57 74//57 85//57
f 74//58 70//58 83//58
f 63//59 66//59 73//59
f 73//60 66//60 62//60
f 61//61 67//61 36//61
f 67//62 63//62 34//62
f 41//63 43//63 71//63
f 43//64 40//64 69//64
f 75//8 61//8 33//8
f 42//6 56//6 48//6
f 69//65 40//65 34//65
f 54//5 41//5 68//5
f 55//66 84//66 76//66
f 83//2 70//2 62//2
f 90//67 92//67 91//67
f 92//8 94//8 93//8
f 94//68 96//68 95//68
f 95//69 96//69 98//69
f 94//7 92//7 90//7
f 90//7 100//7 98//7
f 98//7 96//7 94//7
f 97//5 98//5 100//5
f 99//70 100//70 90//70
f 99//3 89//3 91//3
f 91//3 93//3 95//3
f 95//3 97//3 99//3
f 102//71 104//71 103//71
f 104//8 106//8 105//8
f 106//72 108//72 107//72
f 108//73 110//73 109//73
f 106//6 104//6 102//6
f 102//6 112//6 110//6
f 110//6 108//6 106//6
f 110//5 112//5 111//5
f 112//74 102//74 101//74
f 111//2 101//2 103//2
f 103//2 105//2 107//2
f 107//2 109//2 111//2
f 113//75 114//75 116//75
f 115//8 116//8 118//8
f 117//76 118//76 120//76
f 120//77 122//77 121//77
f 118//4 116//4 114//4
f 114//4 124//4 122//4
f 122//4 120//4 118//4
f 122//5 124//5 123//5
f 124//78 114//78 113//78
f 123//1 113//1 115//1
f 115//1 117//1 119//1
f 119//1 121//1 123//1
f 126//68 128//68 127//68
f 128//8 130//8 129//8
f 130//67 132//67 131//67
f 131//70 132//70 134//70
f 130//3 128//3 126//3
f 126//3 136//3 134//3
f 134//3 132//3 130//3
f 133//5 134//5 136//5
f 135//69 136//69 126//69
f 135//7 125//7 127//7
f 127//7 129//7 131//7
f 131//7 133//7 135//7
f 138//72 140//72 139//72
f 140//8 142//8 141//8
f 142//71 144//71 143//71
f 144//74 146//74 145//74
f 142//2 140//2 138//2
f 138//2 148//2 146//2
f 146//2 144//2 142//2
f 146//5 148//5 147//5
f 148//73 138//73 137//73
f 147//6 137//6 139//6
f 139//6 141//6 143//6
f 143//6 145//6 147//6
f 149//76 150//76 152//76
f 151//8 152//8 154//8
f 153//75 154//75 156//75
f 156//78 158//78 157//78
f 154//1 152//1 150//1
f 150//1 160//1 158//1
f 158//1 156//1 154//1
f 158//5 160//5 159//5
f 160//77 150//77 149//77
f 159//4 149//4 151//4
f 151//4 153//4 155//4
f 155//4 157//4 159//4
f 162//79 164//79 163//79
f 164//80 166//80 165//80
f 165//81 166//81 168//81
f 167//82 168//82 170//82
f 166//83 164//83 162//83
f 162//83 172//83 170//83
f 170//83 168//83 166//83
f 170//84 172//84 171//84
f 172//85 162//85 161//85
f 171//86 161//86 163//86
f 163//86 165//86 167//86
f 167//86 169//86 171//86
f 174//54 176//54 175//54
f 176//53 178//53 177//53
f 178//60 180//60 179//60
f 180//59 182//59 181//59
f 182//43 184//43 183//43
f 184//44 186//44 185//44
f 178//5 176//5 174//5
f 174//5 188//5 186//5
f 186//5 184//5 182//5
f 182//5 180//5 178//5
f 178//5 174//5 186//5
f 186//48 188//48 187//48
f 188//47 174//47 173//47
f 187//8 173//8 175//8
f 175//8 177//8 179//8
f 179//8 181//8 183//8
f 183//8 185//8 187//8
f 187//8 175//8 179//8
f 190//1 192//1 191//1
f 192//2 194//2 193//2
f 194//3 196//3 195//3
f 196//4 198//4 197//4
f 194//5 192//5 190//5
f 190//5 200//5 198//5
f 198//5 196//5 194//5
f 198//6 200//6 199//6
f 200//7 190//7 189//7
f 199//8 189//8 191//8
f 191//8 193//8 195//8
f 195//8 197//8 199//8
f 202//87 204//87 203//87
f 203//88 204//88 206//88
f 205//89 206//89 208//89
f 207//90 208//90 210//90
f 206//91 204//91 202//91
f 202//91 212//91 210//91
f 210//91 208//91 206//91
f 210//92 212//92 211//92
f 212//93 202//93 201//93
f 211//94 201//94 203//94
f 203//94 205//94 207//94
f 207//94 209//94 211//94
f 214//54 216//54 215//54
f 216//53 218//53 217//53
f 218//60 220//60 219//60
f 220//59 222//59 221//59
f 222//43 224//43 223//43
f 224//44 226//44 225//44
f 218//5 216//5 214//5
f 214//5 228//5 226//5
f 226//5 224//5 222//5
f 222//5 220//5 218//5
f 218//5 214//5 226//5
f 226//48 228//48 227//48
f 228//47 214//47 213//47
f 227//8 213//8 215//8
f 215//8 217//8 219//8
f 219//8 221//8 223//8
f 223//8 225//8 227//8
f 227//8 215//8 219//8
f 230//1 232//1 231//1
f 232//2 234//2 233//2
f 234//3 236//3 235//3
f 236//4 238//4 237//4
f 234//5 232//5 230//5
f 230//5 240//5 238//5
f 238//5 236//5 234//5
f 238//6 240//6 239//6
f 240//7 230//7 229//7
f 239//8 229//8 231//8
f 231//8 233//8 235//8
f 235//8 237//8 239//8
f 242//95 244//95 243//95
f 244//96 246//96 245//96
f 245//97 246//97 248//97
f 247//98 248//98 250//98
f 246//99 244//99 242//99
f 242//99 252//99 250//99
f 250//99 248//99 246//99
f 249//100 250//100 252//100
f 252//101 242//101 241//101
f 251//102 241//102 243//102
f 243//102 245//102 247//102
f 247//102 249//102 251//102
f 254//54 256//54 255//54
f 256//53 258//53 257//53
f 258//60 260//60 259//60
f 260//59 262//59 261//59
f 262//43 264//43 263//43
f 264//44 266//44 265//44
f 258//5 256//5 254//5
f 254//5 268//5 266//5
f 266//5 264//5 262//5
f 262//5 260//5 258//5
f 258//5 254//5 266//5
f 266//48 268//48 267//48
f 268//47 254//47 253//47
f 267//8 253//8 255//8
f 255//8 257//8 259//8
f 259//8 261//8 263//8
f 263//8 265//8 267//8
f 267//8 255//8 259//8
f 270//1 272//1 271//1
f 272//2 274//2 273//2
f 274//3 276//3 275//3
f 276//4 278//4 277//4
f 274//5 272//5 270//5
f 270//5 280//5 278//5
f 278//5 276//5 274//5
f 278//6 280//6 279//6
f 280//7 270//7 269//7
f 279//8 269//8 271//8
f 271//8 273//8 275//8
f 275//8 277//8 279//8
f 282//103 284//103 283//103
f 284//104 286//104 285//104
f 285//105 286//105 288//105
f 287//106 288//106 290//106
f 286//107 284//107 282//107
f 282//107 292//107 290//107
f 290//107 288//107 286//107
f 290//108 292//108 291//108
f 292//109 282//109 281//109
f 291//110 281//110 283//110
f 283//110 285//110 287//110
f 287//110 289//110 291//110
f 294//54 296//54 295//54
f 296//53 298//53 297//53
f 298//60 300//60 299//60
f 300//59 302//59 301//59
f 302//43 304//43 303//43
f 304//44 306//44 305//44
f 298//5 296//5 294//5
f 294//5 308//5 306//5
f 306//5 304//5 302//5
f 302//5 300//5 298//5
f 298//5 294//5 306//5
f 306//48 308//48 307//48
f 308//47 294//47 293//47
f 307//8 293//8 295//8
f 295//8 297//8 299//8
f 299//8 301//8 303//8
f 303//8 305//8 307//8
f 307//8 295//8 299//8
f 310//1 312//1 311//1
f 312//2 314//2 313//2
f 314//3 316//3 315//3
f 316//4 318//4 317//4
f 314//5 312//5 310//5
f 310//5 320//5 318//5
f 318//5 316//5 314//5
f 318//6 320//6 319//6
f 320//7 310//7 309//7
f 319//8 309//8 311//8
f 311//8 313//8 315//8
f 315//8 317//8 319//8
f 322//111 324//111 323//111
f 323//112 324//112 326//112
f 325//113 326//113 328//113
f 327//114 328//114 330//114
f 326//115 324//115 322//115
f 322//115 332//115 330//115
f 330//115 328//115 326//115
f 330//116 332//116 331//116
f 332//117 322//117 321//117
f 331//118 321//118 323//118
f 323//118 325//118 327//118
f 327//118 329//118 331//118
f 334//54 336//54 335//54
f 336//53 338//53 337//53
f 338//60 340//60 339//60
f 340//59 342//59 341//59
f 342//43 344//43 343//43
f 344//44 346//44 345//44
f 338//5 336//5 334//5
f 334//5 348//5 346//5
f 346//5 344//5 342//5
f 342//5 340//5 338//5
f 338//5 334//5 346//5
f 346//48 348//48 347//48
f 348//47 334//47 333//47
f 347//8 333//8 335//8
f 335//8 337//8 339//8
f 339//8 341//8 343//8
f 343//8 345//8 347//8
f 347//8 335//8 339//8
f 350//1 352//1 351//1
f 352//2 354//2 353//2
f 354//3 356//3 355//3
f 356//4 358//4 357//4
f 354//5 352//5 350//5
f 350//5 360//5 358//5
f 358//5 356//5 354//5
f 358//6 360//6 359//6
f 360//7 350//7 349//7
f 359//8 349//8 351//8
f 351//8 353//8 355//8
f 355//8 357//8 359//8
f 362//119 364//119 363//119
f 364//120 366//120 365//120
f 365//121 366//121 368//121
f 367//122 368//122 370//122
f 366//123 364//123 362//123
f 362//123 372//123 370//123
f 370//123 368//123 366//123
f 369//124 370//124 372//124
f 372//125 362//125 361//125
f 371//126 361//126 363//126
f 363//126 365//126 367//126
f 367//126 369//126 371//126
f 374//54 376//54 375//54
f 376//53 378//53 377//53
f 378//60 380//60 379//60
f 380//59 382//59 381//59
f 382//43 384//43 383//43
f 384//44 386//44 385//44
f 378//5 376//5 374//5
f 374//5 388//5 386//5
f 386//5 384//5 382//5
f 382//5 380//5 378//5
f 378//5 374//5 386//5
f 386//48 388//48 387//48
f 388//47 374//47 373//47
f 387//8 373//8 375//8
f 375//8 377//8 379//8
f 379//8 381//8 383//8
f 383//8 385//8 387//8
f 387//8 375//8 379//8
f 390//1 392//1 391//1
f 392//2 394//2 393//2
f 394//3 396//3 395//3
f 396//4 398//4 397//4
f 394//5 392//5 390//5
f 390//5 400//5 398//5
f 398//5 396//5 394//5
f 398//6 400//6 399//6
f 400//7 390//7 389//7
f 399//8 389//8 391//8
f 391//8 393//8 395//8
f 395//8 397//8 399//8
