# Blender 5.2.1 LTS
# www.blender.org
o Crate
v -0.225641 -0.486254 0.225641
v -0.225641 -0.472509 0.235897
v -0.235897 -0.472509 0.225641
v -0.225641 0.132302 0.235897
v -0.225641 0.146048 0.225641
v -0.235897 0.132302 0.225641
v -0.225641 -0.486254 -0.225641
v -0.235897 -0.472509 -0.225641
v -0.225641 -0.472509 -0.235897
v -0.225641 0.146048 -0.225641
v -0.225641 0.132302 -0.235897
v -0.235897 0.132302 -0.225641
v 0.225641 -0.486254 0.225641
v 0.235897 -0.472509 0.225641
v 0.225641 -0.472509 0.235897
v 0.225641 0.146048 0.225641
v 0.225641 0.132302 0.235897
v 0.235897 0.132302 0.225641
v 0.225641 -0.486254 -0.225641
v 0.225641 -0.472509 -0.235897
v 0.235897 -0.472509 -0.225641
v 0.225641 0.146048 -0.225641
v 0.235897 0.132302 -0.225641
v 0.225641 0.132302 -0.235897
v -0.486667 -0.500000 0.486667
v -0.486667 -0.489003 0.494872
v -0.494872 -0.489003 0.486667
v -0.486667 0.148797 0.494872
v -0.486667 0.159794 0.486667
v -0.494872 0.148797 0.486667
v -0.486667 -0.500000 0.446667
v -0.494872 -0.489003 0.446667
v -0.486667 -0.489003 0.438462
v -0.486667 0.159794 0.446667
v -0.486667 0.148797 0.438462
v -0.494872 0.148797 0.446667
v -0.446667 -0.500000 0.486667
v -0.438462 -0.489003 0.486667
v -0.446667 -0.489003 0.494872
v -0.446667 0.159794 0.486667
v -0.446667 0.148797 0.494872
v -0.438462 0.148797 0.486667
v -0.446667 -0.500000 0.446667
v -0.446667 -0.489003 0.438462
v -0.438462 -0.489003 0.446667
v -0.446667 0.159794 0.446667
v -0.438462 0.148797 0.446667
v -0.446667 0.148797 0.438462
v -0.486667 -0.500000 -0.446667
v -0.486667 -0.489003 -0.438462
v -0.494872 -0.489003 -0.446667
v -0.486667 0.148797 -0.438462
v -0.486667 0.159794 -0.446667
v -0.494872 0.148797 -0.446667
v -0.486667 -0.500000 -0.486667
v -0.494872 -0.489003 -0.486667
v -0.486667 -0.489003 -0.494872
v -0.486667 0.159794 -0.486667
v -0.486667 0.148797 -0.494872
v -0.494872 0.148797 -0.486667
v -0.446667 -0.500000 -0.446667
v -0.438462 -0.489003 -0.446667
v -0.446667 -0.489003 -0.438462
v -0.446667 0.159794 -0.446667
v -0.446667 0.148797 -0.438462
v -0.438462 0.148797 -0.446667
v -0.446667 -0.500000 -0.486667
v -0.446667 -0.489003 -0.494872
v -0.438462 -0.489003 -0.486667
v -0.446667 0.159794 -0.486667
v -0.438462 0.148797 -0.486667
v -0.446667 0.148797 -0.494872
v 0.446667 -0.500000 0.486667
v 0.446667 -0.489003 0.494872
v 0.438462 -0.489003 0.486667
v 0.446667 0.148797 0.494872
v 0.446667 0.159794 0.486667
v 0.438462 0.148797 0.486667
v 0.446667 -0.500000 0.446667
v 0.438462 -0.489003 0.446667
v 0.446667 -0.489003 0.438462
v 0.446667 0.159794 0.446667
v 0.446667 0.148797 0.438462
v 0.438462 0.148797 0.446667
v 0.486667 -0.500000 0.486667
v 0.494872 -0.489003 0.486667
v 0.486667 -0.489003 0.494872
v 0.486667 0.159794 0.486667
v 0.486667 0.148797 0.494872
v 0.494872 0.148797 0.486667
v 0.486667 -0.500000 0.446667
v 0.486667 -0.489003 0.438462
v 0.494872 -0.489003 0.446667
v 0.486667 0.159794 0.446667
v 0.494872 0.148797 0.446667
v 0.486667 0.148797 0.438462
v 0.446667 -0.500000 -0.446667
v 0.446667 -0.489003 -0.438462
v 0.438462 -0.489003 -0.446667
v 0.446667 0.148797 -0.438462
v 0.446667 0.159794 -0.446667
v 0.438462 0.148797 -0.446667
v 0.446667 -0.500000 -0.486667
v 0.438462 -0.489003 -0.486667
v 0.446667 -0.489003 -0.494872
v 0.446667 0.159794 -0.486667
v 0.446667 0.148797 -0.494872
v 0.438462 0.148797 -0.486667
v 0.486667 -0.500000 -0.446667
v 0.494872 -0.489003 -0.446667
v 0.486667 -0.489003 -0.438462
v 0.486667 0.159794 -0.446667
v 0.486667 0.148797 -0.438462
v 0.494872 0.148797 -0.446667
v 0.486667 -0.500000 -0.486667
v 0.486667 -0.489003 -0.494872
v 0.494872 -0.489003 -0.486667
v 0.486667 0.159794 -0.486667
v 0.494872 0.148797 -0.486667
v 0.486667 0.148797 -0.494872
v -0.492821 -0.211340 0.233846
v -0.492821 -0.201718 0.241026
v -0.500000 -0.201718 0.233846
v -0.492821 -0.138488 0.241026
v -0.492820 -0.128866 0.233846
v -0.500000 -0.138488 0.233846
v -0.492820 -0.211340 -0.233846
v -0.500000 -0.201718 -0.233846
v -0.492821 -0.201718 -0.241026
v -0.492821 -0.128866 -0.233846
v -0.492821 -0.138488 -0.241026
v -0.500000 -0.138488 -0.233846
v -0.471282 -0.211340 0.233846
v -0.464103 -0.201718 0.233846
v -0.471282 -0.201718 0.241026
v -0.471282 -0.128866 0.233846
v -0.471282 -0.138488 0.241026
v -0.464103 -0.138488 0.233846
v -0.471282 -0.211340 -0.233846
v -0.471282 -0.201718 -0.241026
v -0.464103 -0.201718 -0.233846
v -0.471282 -0.128866 -0.233846
v -0.464103 -0.138488 -0.233846
v -0.471282 -0.138488 -0.241026
v -0.233846 -0.211340 0.492820
v -0.233846 -0.201718 0.500000
v -0.241026 -0.201718 0.492821
v -0.233846 -0.138488 0.500000
v -0.233846 -0.128866 0.492821
v -0.241026 -0.138488 0.492821
v -0.233846 -0.211340 0.471282
v -0.241026 -0.201718 0.471282
v -0.233846 -0.201718 0.464103
v -0.233846 -0.128866 0.471282
v -0.233846 -0.138488 0.464103
v -0.241026 -0.138488 0.471282
v 0.233846 -0.211340 0.492821
v 0.241026 -0.201718 0.492821
v 0.233846 -0.201718 0.500000
v 0.233846 -0.128866 0.492820
v 0.233846 -0.138488 0.500000
v 0.241026 -0.138488 0.492821
v 0.233846 -0.211340 0.471282
v 0.233846 -0.201718 0.464103
v 0.241026 -0.201718 0.471282
v 0.233846 -0.128866 0.471282
v 0.241026 -0.138488 0.471282
v 0.233846 -0.138488 0.464103
v 0.471282 -0.211340 0.233846
v 0.471282 -0.201718 0.241026
v 0.464103 -0.201718 0.233846
v 0.471282 -0.138488 0.241026
v 0.471282 -0.128866 0.233846
v 0.464103 -0.138488 0.233846
v 0.471282 -0.211340 -0.233846
v 0.464103 -0.201718 -0.233846
v 0.471282 -0.201718 -0.241026
v 0.471282 -0.128866 -0.233846
v 0.471282 -0.138488 -0.241026
v 0.464103 -0.138488 -0.233846
v 0.492820 -0.211340 0.233846
v 0.500000 -0.201718 0.233846
v 0.492821 -0.201718 0.241026
v 0.492821 -0.128866 0.233846
v 0.492821 -0.138488 0.241026
v 0.500000 -0.138488 0.233846
v 0.492821 -0.211340 -0.233846
v 0.492821 -0.201718 -0.241026
v 0.500000 -0.201718 -0.233846
v 0.492820 -0.128866 -0.233846
v 0.500000 -0.138488 -0.233846
v 0.492821 -0.138488 -0.241026
v -0.233846 -0.211340 -0.471282
v -0.233846 -0.201718 -0.464103
v -0.241026 -0.201718 -0.471282
v -0.233846 -0.138488 -0.464103
v -0.233846 -0.128866 -0.471282
v -0.241026 -0.138488 -0.471282
v -0.233846 -0.211340 -0.492821
v -0.241026 -0.201718 -0.492821
v -0.233846 -0.201718 -0.500000
v -0.233846 -0.128866 -0.492820
v -0.233846 -0.138488 -0.500000
v -0.241026 -0.138488 -0.492821
v 0.233846 -0.211340 -0.471282
v 0.241026 -0.201718 -0.471282
v 0.233846 -0.201718 -0.464103
v 0.233846 -0.128866 -0.471282
v 0.233846 -0.138488 -0.464103
v 0.241026 -0.138488 -0.471282
v 0.233846 -0.211340 -0.492820
v 0.233846 -0.201718 -0.500000
v 0.241026 -0.201718 -0.492821
v 0.233846 -0.128866 -0.492821
v 0.241026 -0.138488 -0.492821
v 0.233846 -0.138488 -0.500000
v -0.233846 0.451890 0.233846
v -0.233846 0.461512 0.241026
v -0.241026 0.461512 0.233846
v -0.233846 0.490378 0.241026
v -0.233846 0.500000 0.233846
v -0.241026 0.490378 0.233846
v -0.233846 0.451890 -0.233846
v -0.241026 0.461512 -0.233846
v -0.233846 0.461512 -0.241026
v -0.233846 0.500000 -0.233846
v -0.233846 0.490378 -0.241026
v -0.241026 0.490378 -0.233846
v 0.233846 0.451890 0.233846
v 0.241026 0.461512 0.233846
v 0.233846 0.461512 0.241026
v 0.233846 0.500000 0.233846
v 0.233846 0.490378 0.241026
v 0.241026 0.490378 0.233846
v 0.233846 0.451890 -0.233846
v 0.233846 0.461512 -0.241026
v 0.241026 0.461512 -0.233846
v 0.233846 0.500000 -0.233846
v 0.241026 0.490378 -0.233846
v 0.233846 0.490378 -0.241026
vn -0.6254 -0.4666 0.6254
vn -0.6254 0.4666 0.6254
vn -0.6254 -0.4666 -0.6254
vn -0.6254 0.4666 -0.6254
vn 0.6254 -0.4666 0.6254
vn 0.6254 0.4666 0.6254
vn 0.6254 -0.4666 -0.6254
vn 0.6254 0.4666 -0.6254
vn -0.8015 -0.5980 -0.0000
vn -0.7071 -0.0000 0.7071
vn -0.8015 0.5980 -0.0000
vn -0.7071 -0.0000 -0.7071
vn -0.0000 -0.5980 -0.8015
vn -0.0000 0.5980 -0.8015
vn 0.7071 -0.0000 -0.7071
vn 0.8015 -0.5980 -0.0000
vn 0.8015 0.5980 -0.0000
vn 0.7071 -0.0000 0.7071
vn -0.0000 -0.5980 0.8015
vn -0.0000 0.5980 0.8015
vn -0.0000 -1.0000 -0.0000
vn -1.0000 -0.0000 -0.0000
vn -0.0000 -0.0000 1.0000
vn -0.0000 1.0000 -0.0000
vn -0.0000 -0.0000 -1.0000
vn 1.0000 -0.0000 -0.0000
s 0
f 1//1 2//1 3//1
f 4//2 5//2 6//2
f 7//3 8//3 9//3
f 10//4 11//4 12//4
f 13//5 14//5 15//5
f 16//6 17//6 18//6
f 19//7 20//7 21//7
f 22//8 23//8 24//8
f 1//9 8//9 7//9
f 4//10 3//10 2//10
f 10//11 6//11 5//11
f 9//12 12//12 11//12
f 7//13 20//13 19//13
f 22//14 11//14 10//14
f 21//15 24//15 23//15
f 19//16 14//16 13//16
f 16//17 23//17 22//17
f 15//18 18//18 17//18
f 13//19 2//19 1//19
f 5//20 17//20 16//20
f 19//21 1//21 7//21
f 6//22 8//22 3//22
f 17//23 2//23 15//23
f 10//24 16//24 22//24
f 11//25 20//25 9//25
f 23//26 14//26 21//26
f 25//1 26//1 27//1
f 28//2 29//2 30//2
f 31//3 32//3 33//3
f 34//4 35//4 36//4
f 37//5 38//5 39//5
f 40//6 41//6 42//6
f 43//7 44//7 45//7
f 46//8 47//8 48//8
f 25//9 32//9 31//9
f 28//10 27//10 26//10
f 34//11 30//11 29//11
f 33//12 36//12 35//12
f 31//13 44//13 43//13
f 46//14 35//14 34//14
f 45//15 48//15 47//15
f 43//16 38//16 37//16
f 40//17 47//17 46//17
f 39//18 42//18 41//18
f 37//19 26//19 25//19
f 29//20 41//20 40//20
f 43//21 25//21 31//21
f 30//22 32//22 27//22
f 41//23 26//23 39//23
f 34//24 40//24 46//24
f 35//25 44//25 33//25
f 47//26 38//26 45//26
f 49//1 50//1 51//1
f 52//2 53//2 54//2
f 55//3 56//3 57//3
f 58//4 59//4 60//4
f 61//5 62//5 63//5
f 64//6 65//6 66//6
f 67//7 68//7 69//7
f 70//8 71//8 72//8
f 49//9 56//9 55//9
f 52//10 51//10 50//10
f 58//11 54//11 53//11
f 57//12 60//12 59//12
f 55//13 68//13 67//13
f 70//14 59//14 58//14
f 69//15 72//15 71//15
f 67//16 62//16 61//16
f 64//17 71//17 70//17
f 63//18 66//18 65//18
f 61//19 50//19 49//19
f 53//20 65//20 64//20
f 67//21 49//21 55//21
f 54//22 56//22 51//22
f 65//23 50//23 63//23
f 58//24 64//24 70//24
f 59//25 68//25 57//25
f 71//26 62//26 69//26
f 73//1 74//1 75//1
f 76//2 77//2 78//2
f 79//3 80//3 81//3
f 82//4 83//4 84//4
f 85//5 86//5 87//5
f 88//6 89//6 90//6
f 91//7 92//7 93//7
f 94//8 95//8 96//8
f 73//9 80//9 79//9
f 76//10 75//10 74//10
f 82//11 78//11 77//11
f 81//12 84//12 83//12
f 79//13 92//13 91//13
f 94//14 83//14 82//14
f 93//15 96//15 95//15
f 91//16 86//16 85//16
f 88//17 95//17 94//17
f 87//18 90//18 89//18
f 85//19 74//19 73//19
f 77//20 89//20 88//20
f 91//21 73//21 79//21
f 78//22 80//22 75//22
f 89//23 74//23 87//23
f 82//24 88//24 94//24
f 83//25 92//25 81//25
f 95//26 86//26 93//26
f 97//1 98//1 99//1
f 100//2 101//2 102//2
f 103//3 104//3 105//3
f 106//4 107//4 108//4
f 109//5 110//5 111//5
f 112//6 113//6 114//6
f 115//7 116//7 117//7
f 118//8 119//8 120//8
f 97//9 104//9 103//9
f 100//10 99//10 98//10
f 106//11 102//11 101//11
f 105//12 108//12 107//12
f 103//13 116//13 115//13
f 118//14 107//14 106//14
f 117//15 120//15 119//15
f 115//16 110//16 109//16
f 112//17 119//17 118//17
f 111//18 114//18 113//18
f 109//19 98//19 97//19
f 101//20 113//20 112//20
f 115//21 97//21 103//21
f 102//22 104//22 99//22
f 113//23 98//23 111//23
f 106//24 112//24 118//24
f 107//25 116//25 105//25
f 119//26 110//26 117//26
f 121//1 122//1 123//1
f 124//2 125//2 126//2
f 127//3 128//3 129//3
f 130//4 131//4 132//4
f 133//5 134//5 135//5
f 136//6 137//6 138//6
f 139//7 140//7 141//7
f 142//8 143//8 144//8
f 121//9 128//9 127//9
f 124//10 123//10 122//10
f 130//11 126//11 125//11
f 129//12 132//12 131//12
f 127//13 140//13 139//13
f 142//14 131//14 130//14
f 141//15 144//15 143//15
f 139//16 134//16 133//16
f 136//17 143//17 142//17
f 135//18 138//18 137//18
f 133//19 122//19 121//19
f 125//20 137//20 136//20
f 139//21 121//21 127//21
f 126//22 128//22 123//22
f 137//23 122//23 135//23
f 130//24 136//24 142//24
f 131//25 140//25 129//25
f 143//26 134//26 141//26
f 145//1 146//1 147//1
f 148//2 149//2 150//2
f 151//3 152//3 153//3
f 154//4 155//4 156//4
f 157//5 158//5 159//5
f 160//6 161//6 162//6
f 163//7 164//7 165//7
f 166//8 167//8 168//8
f 145//9 152//9 151//9
f 148//10 147//10 146//10
f 154//11 150//11 149//11
f 153//12 156//12 155//12
f 151//13 164//13 163//13
f 166//14 155//14 154//14
f 165//15 168//15 167//15
f 163//16 158//16 157//16
f 160//17 167//17 166//17
f 159//18 162//18 161//18
f 157//19 146//19 145//19
f 149//20 161//20 160//20
f 163//21 145//21 151//21
f 150//22 152//22 147//22
f 161//23 146//23 159//23
f 154//24 160//24 166//24
f 155//25 164//25 153//25
f 167//26 158//26 165//26
f 169//1 170//1 171//1
f 172//2 173//2 174//2
f 175//3 176//3 177//3
f 178//4 179//4 180//4
f 181//5 182//5 183//5
f 184//6 185//6 186//6
f 187//7 188//7 189//7
f 190//8 191//8 192//8
f 169//9 176//9 175//9
f 172//10 171//10 170//10
f 178//11 174//11 173//11
f 177//12 180//12 179//12
f 175//13 188//13 187//13
f 190//14 179//14 178//14
f 189//15 192//15 191//15
f 187//16 182//16 181//16
f 184//17 191//17 190//17
f 183//18 186//18 185//18
f 181//19 170//19 169//19
f 173//20 185//20 184//20
f 187//21 169//21 175//21
f 174//22 176//22 171//22
f 185//23 170//23 183//23
f 178//24 184//24 190//24
f 179//25 188//25 177//25
f 191//26 182//26 189//26
f 193//1 194//1 195//1
f 196//2 197//2 198//2
f 199//3 200//3 201//3
f 202//4 203//4 204//4
f 205//5 206//5 207//5
f 208//6 209//6 210//6
f 211//7 212//7 213//7
f 214//8 215//8 216//8
f 193//9 200//9 199//9
f 196//10 195//10 194//10
f 202//11 198//11 197//11
f 201//12 204//12 203//12
f 199//13 212//13 211//13
f 214//14 203//14 202//14
f 213//15 216//15 215//15
f 211//16 206//16 205//16
f 208//17 215//17 214//17
f 207//18 210//18 209//18
f 205//19 194//19 193//19
f 197//20 209//20 208//20
f 211//21 193//21 199//21
f 198//22 200//22 195//22
f 209//23 194//23 207//23
f 202//24 208//24 214//24
f 203//25 212//25 201//25
f 215//26 206//26 213//26
f 217//1 218//1 219//1
f 220//2 221//2 222//2
f 223//3 224//3 225//3
f 226//4 227//4 228//4
f 229//5 230//5 231//5
f 232//6 233//6 234//6
f 235//7 236//7 237//7
f 238//8 239//8 240//8
f 217//9 224//9 223//9
f 220//10 219//10 218//10
f 226//11 222//11 221//11
f 225//12 228//12 227//12
f 223//13 236//13 235//13
f 238//14 227//14 226//14
f 237//15 240//15 239//15
f 235//16 230//16 229//16
f 232//17 239//17 238//17
f 231//18 234//18 233//18
f 229//19 218//19 217//19
f 221//20 233//20 232//20
f 235//21 217//21 223//21
f 222//22 224//22 219//22
f 233//23 218//23 231//23
f 226//24 232//24 238//24
f 227//25 236//25 225//25
f 239//26 230//26 237//26
f 1//9 3//9 8//9
f 4//10 6//10 3//10
f 10//11 12//11 6//11
f 9//12 8//12 12//12
f 7//13 9//13 20//13
f 22//14 24//14 11//14
f 21//15 20//15 24//15
f 19//16 21//16 14//16
f 16//17 18//17 23//17
f 15//18 14//18 18//18
f 13//19 15//19 2//19
f 5//20 4//20 17//20
f 19//21 13//21 1//21
f 6//22 12//22 8//22
f 17//23 4//23 2//23
f 10//24 5//24 16//24
f 11//25 24//25 20//25
f 23//26 18//26 14//26
f 25//9 27//9 32//9
f 28//10 30//10 27//10
f 34//11 36//11 30//11
f 33//12 32//12 36//12
f 31//13 33//13 44//13
f 46//14 48//14 35//14
f 45//15 44//15 48//15
f 43//16 45//16 38//16
f 40//17 42//17 47//17
f 39//18 38//18 42//18
f 37//19 39//19 26//19
f 29//20 28//20 41//20
f 43//21 37//21 25//21
f 30//22 36//22 32//22
f 41//23 28//23 26//23
f 34//24 29//24 40//24
f 35//25 48//25 44//25
f 47//26 42//26 38//26
f 49//9 51//9 56//9
f 52//10 54//10 51//10
f 58//11 60//11 54//11
f 57//12 56//12 60//12
f 55//13 57//13 68//13
f 70//14 72//14 59//14
f 69//15 68//15 72//15
f 67//16 69//16 62//16
f 64//17 66//17 71//17
f 63//18 62//18 66//18
f 61//19 63//19 50//19
f 53//20 52//20 65//20
f 67//21 61//21 49//21
f 54//22 60//22 56//22
f 65//23 52//23 50//23
f 58//24 53//24 64//24
f 59//25 72//25 68//25
f 71//26 66//26 62//26
f 73//9 75//9 80//9
f 76//10 78//10 75//10
f 82//11 84//11 78//11
f 81//12 80//12 84//12
f 79//13 81//13 92//13
f 94//14 96//14 83//14
f 93//15 92//15 96//15
f 91//16 93//16 86//16
f 88//17 90//17 95//17
f 87//18 86//18 90//18
f 85//19 87//19 74//19
f 77//20 76//20 89//20
f 91//21 85//21 73//21
f 78//22 84//22 80//22
f 89//23 76//23 74//23
f 82//24 77//24 88//24
f 83//25 96//25 92//25
f 95//26 90//26 86//26
f 97//9 99//9 104//9
f 100//10 102//10 99//10
f 106//11 108//11 102//11
f 105//12 104//12 108//12
f 103//13 105//13 116//13
f 118//14 120//14 107//14
f 117//15 116//15 120//15
f 115//16 117//16 110//16
f 112//17 114//17 119//17
f 111//18 110//18 114//18
f 109//19 111//19 98//19
f 101//20 100//20 113//20
f 115//21 109//21 97//21
f 102//22 108//22 104//22
f 113//23 100//23 98//23
f 106//24 101//24 112//24
f 107//25 120//25 116//25
f 119//26 114//26 110//26
f 121//9 123//9 128//9
f 124//10 126//10 123//10
f 130//11 132//11 126//11
f 129//12 128//12 132//12
f 127//13 129//13 140//13
f 142//14 144//14 131//14
f 141//15 140//15 144//15
f 139//16 141//16 134//16
f 136//17 138//17 143//17
f 135//18 134//18 138//18
f 133//19 135//19 122//19
f 125//20 124//20 137//20
f 139//21 133//21 121//21
f 126//22 132//22 128//22
f 137//23 124//23 122//23
f 130//24 125//24 136//24
f 131//25 144//25 140//25
f 143//26 138//26 134//26
f 145//9 147//9 152//9
f 148//10 150//10 147//10
f 154//11 156//11 150//11
f 153//12 152//12 156//12
f 151//13 153//13 164//13
f 166//14 168//14 155//14
f 165//15 164//15 168//15
f 163//16 165//16 158//16
f 160//17 162//17 167//17
f 159//18 158//18 162//18
f 157//19 159//19 146//19
f 149//20 148//20 161//20
f 163//21 157//21 145//21
f 150//22 156//22 152//22
f 161//23 148//23 146//23
f 154//24 149//24 160//24
f 155//25 168//25 164//25
f 167//26 162//26 158//26
f 169//9 171//9 176//9
f 172//10 174//10 171//10
f 178//11 180//11 174//11
f 177//12 176//12 180//12
f 175//13 177//13 188//13
f 190//14 192//14 179//14
f 189//15 188//15 192//15
f 187//16 189//16 182//16
f 184//17 186//17 191//17
f 183//18 182//18 186//18
f 181//19 183//19 170//19
f 173//20 172//20 185//20
f 187//21 181//21 169//21
f 174//22 180//22 176//22
f 185//23 172//23 170//23
f 178//24 173//24 184//24
f 179//25 192//25 188//25
f 191//26 186//26 182//26
f 193//9 195//9 200//9
f 196//10 198//10 195//10
f 202//11 204//11 198//11
f 201//12 200//12 204//12
f 199//13 201//13 212//13
f 214//14 216//14 203//14
f 213//15 212//15 216//15
f 211//16 213//16 206//16
f 208//17 210//17 215//17
f 207//18 206//18 210//18
f 205//19 207//19 194//19
f 197//20 196//20 209//20
f 211//21 205//21 193//21
f 198//22 204//22 200//22
f 209//23 196//23 194//23
f 202//24 197//24 208//24
f 203//25 216//25 212//25
f 215//26 210//26 206//26
f 217//9 219//9 224//9
f 220//10 222//10 219//10
f 226//11 228//11 222//11
f 225//12 224//12 228//12
f 223//13 225//13 236//13
f 238//14 240//14 227//14
f 237//15 236//15 240//15
f 235//16 237//16 230//16
f 232//17 234//17 239//17
f 231//18 230//18 234//18
f 229//19 231//19 218//19
f 221//20 220//20 233//20
f 235//21 229//21 217//21
f 222//22 228//22 224//22
f 233//23 220//23 218//23
f 226//24 221//24 232//24
f 227//25 240//25 236//25
f 239//26 234//26 230//26
