# Blender 5.2.1 LTS
# www.blender.org
o Desk
v -0.490323 0.402517 0.486364
v -0.490323 0.409986 0.500000
v -0.500000 0.410725 0.486364
v -0.490323 0.404399 0.496006
v -0.495910 0.405560 0.494237
v -0.497166 0.410203 0.496006
v -0.497166 0.404921 0.486364
v -0.490323 0.423666 0.500000
v -0.490323 0.432613 0.486364
v -0.500000 0.424405 0.486364
v -0.490323 0.429686 0.496006
v -0.495910 0.428717 0.494237
v -0.497166 0.430209 0.486364
v -0.497166 0.423883 0.496006
v -0.490323 0.455212 -0.486364
v -0.500000 0.463420 -0.486364
v -0.490323 0.464159 -0.500000
v -0.497166 0.457616 -0.486364
v -0.495910 0.459108 -0.494237
v -0.497166 0.463942 -0.496006
v -0.490323 0.458138 -0.496006
v -0.490323 0.485308 -0.486364
v -0.490323 0.477839 -0.500000
v -0.500000 0.477100 -0.486364
v -0.490323 0.483426 -0.496006
v -0.495910 0.482265 -0.494237
v -0.497166 0.477622 -0.496006
v -0.497166 0.482904 -0.486364
v 0.490323 0.402517 0.486364
v 0.500000 0.410725 0.486364
v 0.490323 0.409986 0.500000
v 0.497166 0.404921 0.486364
v 0.495910 0.405560 0.494237
v 0.497166 0.410203 0.496006
v 0.490323 0.404399 0.496006
v 0.490323 0.432613 0.486364
v 0.490323 0.423666 0.500000
v 0.500000 0.424405 0.486364
v 0.490323 0.429686 0.496006
v 0.495910 0.428717 0.494237
v 0.497166 0.423883 0.496006
v 0.497166 0.430209 0.486364
v 0.490323 0.455212 -0.486364
v 0.490323 0.464159 -0.500000
v 0.500000 0.463420 -0.486364
v 0.490323 0.458138 -0.496006
v 0.495910 0.459108 -0.494237
v 0.497166 0.463942 -0.496006
v 0.497166 0.457616 -0.486364
v 0.490323 0.485308 -0.486364
v 0.500000 0.477100 -0.486364
v 0.490323 0.477839 -0.500000
v 0.497166 0.482904 -0.486364
v 0.495910 0.482265 -0.494237
v 0.497166 0.477622 -0.496006
v 0.490323 0.483426 -0.496006
v -0.396774 0.483584 -0.409091
v -0.396774 0.489056 -0.400000
v -0.403226 0.489056 -0.409091
v -0.396774 0.494528 -0.400000
v -0.396774 0.500000 -0.409091
v -0.403226 0.494528 -0.409091
v -0.396774 0.483584 -0.431818
v -0.403226 0.489056 -0.431818
v -0.396774 0.489056 -0.440909
v -0.396774 0.500000 -0.431818
v -0.396774 0.494528 -0.440909
v -0.403226 0.494528 -0.431818
v 0.396774 0.483584 -0.409091
v 0.403226 0.489056 -0.409091
v 0.396774 0.489056 -0.400000
v 0.396774 0.500000 -0.409091
v 0.396774 0.494528 -0.400000
v 0.403226 0.494528 -0.409091
v 0.396774 0.483584 -0.431818
v 0.396774 0.489056 -0.440909
v 0.403226 0.489056 -0.431818
v 0.396774 0.500000 -0.431818
v 0.403226 0.494528 -0.431818
v 0.396774 0.494528 -0.440909
v -0.435484 0.186730 0.420455
v -0.435484 0.193570 0.431818
v -0.443548 0.193570 0.420455
v -0.435484 0.201778 0.431818
v -0.435484 0.208618 0.420455
v -0.443548 0.201778 0.420455
v -0.435484 0.186730 -0.420455
v -0.443548 0.193570 -0.420455
v -0.435484 0.193570 -0.431818
v -0.435484 0.208618 -0.420455
v -0.435484 0.201778 -0.431818
v -0.443548 0.201778 -0.420455
v 0.435484 0.186730 0.420455
v 0.443548 0.193570 0.420455
v 0.435484 0.193570 0.431818
v 0.435484 0.208618 0.420455
v 0.435484 0.201778 0.431818
v 0.443548 0.201778 0.420455
v 0.435484 0.186730 -0.420455
v 0.435484 0.193570 -0.431818
v 0.443548 0.193570 -0.420455
v 0.435484 0.208618 -0.420455
v 0.443548 0.201778 -0.420455
v 0.435484 0.201778 -0.431818
v -0.435484 -0.500000 0.350000
v -0.435484 0.457592 0.350000
v -0.417236 -0.500000 0.360651
v -0.417236 0.457592 0.360651
v -0.409677 -0.500000 0.386364
v -0.409677 0.457592 0.386364
v -0.417236 -0.500000 0.412077
v -0.417236 0.457592 0.412077
v -0.435484 -0.500000 0.422727
v -0.435484 0.457592 0.422727
v -0.453732 -0.500000 0.412077
v -0.453732 0.457592 0.412077
v -0.461290 -0.500000 0.386364
v -0.461290 0.457592 0.386364
v -0.453732 -0.500000 0.360651
v -0.453732 0.457592 0.360651
v -0.435484 -0.500000 -0.422727
v -0.435484 0.457592 -0.422727
v -0.417236 -0.500000 -0.412077
v -0.417236 0.457592 -0.412077
v -0.409677 -0.500000 -0.386364
v -0.409677 0.457592 -0.386364
v -0.417236 -0.500000 -0.360651
v -0.417236 0.457592 -0.360651
v -0.435484 -0.500000 -0.350000
v -0.435484 0.457592 -0.350000
v -0.453732 -0.500000 -0.360651
v -0.453732 0.457592 -0.360651
v -0.461290 -0.500000 -0.386364
v -0.461290 0.457592 -0.386364
v -0.453732 -0.500000 -0.412077
v -0.453732 0.457592 -0.412077
v 0.435484 -0.500000 0.350000
v 0.435484 0.457592 0.350000
v 0.453732 -0.500000 0.360651
v 0.453732 0.457592 0.360651
v 0.461290 -0.500000 0.386364
v 0.461290 0.457592 0.386364
v 0.453732 -0.500000 0.412077
v 0.453732 0.457592 0.412077
v 0.435484 -0.500000 0.422727
v 0.435484 0.457592 0.422727
v 0.417236 -0.500000 0.412077
v 0.417236 0.457592 0.412077
v 0.409677 -0.500000 0.386364
v 0.409677 0.457592 0.386364
v 0.417236 -0.500000 0.360651
v 0.417236 0.457592 0.360651
v 0.435484 -0.500000 -0.422727
v 0.435484 0.457592 -0.422727
v 0.453732 -0.500000 -0.412077
v 0.453732 0.457592 -0.412077
v 0.461290 -0.500000 -0.386364
v 0.461290 0.457592 -0.386364
v 0.453732 -0.500000 -0.360651
v 0.453732 0.457592 -0.360651
v 0.435484 -0.500000 -0.350000
v 0.435484 0.457592 -0.350000
v 0.417236 -0.500000 -0.360651
v 0.417236 0.457592 -0.360651
v 0.409677 -0.500000 -0.386364
v 0.409677 0.457592 -0.386364
v 0.417236 -0.500000 -0.412077
v 0.417236 0.457592 -0.412077
v -0.451613 -0.404241 0.356818
v 0.451613 -0.404241 0.356818
v -0.451613 -0.416816 0.365472
v 0.451613 -0.416816 0.365472
v -0.451613 -0.422025 0.386364
v 0.451613 -0.422025 0.386364
v -0.451613 -0.416816 0.407255
v 0.451613 -0.416816 0.407255
v -0.451613 -0.404241 0.415909
v 0.451613 -0.404241 0.415909
v -0.451613 -0.391666 0.407255
v 0.451613 -0.391666 0.407255
v -0.451613 -0.386457 0.386364
v 0.451613 -0.386457 0.386364
v -0.451613 -0.391666 0.365472
v 0.451613 -0.391666 0.365472
v -0.451613 -0.404241 -0.415909
v 0.451613 -0.404241 -0.415909
v -0.451613 -0.416816 -0.407255
v 0.451613 -0.416816 -0.407255
v -0.451613 -0.422025 -0.386364
v 0.451613 -0.422025 -0.386364
v -0.451613 -0.416816 -0.365472
v 0.451613 -0.416816 -0.365472
v -0.451613 -0.404241 -0.356818
v 0.451613 -0.404241 -0.356818
v -0.451613 -0.391666 -0.365472
v 0.451613 -0.391666 -0.365472
v -0.451613 -0.386457 -0.386364
v 0.451613 -0.386457 -0.386364
v -0.451613 -0.391666 -0.407255
v 0.451613 -0.391666 -0.407255
vn -0.3287 -0.9357 0.1283
vn -0.3540 -0.5439 0.7609
vn -0.9071 -0.3399 0.2482
vn -0.4245 0.5005 0.7545
vn -0.2498 0.9266 0.2812
vn -0.8764 0.4280 0.2209
vn -0.2498 -0.9266 -0.2812
vn -0.8764 -0.4280 -0.2209
vn -0.4245 -0.5005 -0.7545
vn -0.3287 0.9357 -0.1283
vn -0.3540 0.5439 -0.7609
vn -0.9071 0.3399 -0.2482
vn 0.2558 -0.9488 0.1852
vn 0.8845 -0.4320 0.1761
vn 0.4668 -0.4224 0.7770
vn 0.3229 0.9191 0.2256
vn 0.4245 0.5005 0.7545
vn 0.8983 0.3366 0.2823
vn 0.3229 -0.9191 -0.2256
vn 0.4245 -0.5005 -0.7545
vn 0.8983 -0.3366 -0.2823
vn 0.2558 0.9488 -0.1852
vn 0.8845 0.4320 -0.1761
vn 0.4668 0.4224 -0.7770
vn -0.3310 -0.9422 -0.0510
vn -0.8983 -0.4387 -0.0238
vn -0.5041 -0.0000 0.8637
vn -0.9594 -0.0000 0.2820
vn -0.3310 0.9422 0.0510
vn -0.8983 0.4387 0.0238
vn -0.5041 -0.0000 -0.8637
vn -0.9594 -0.0000 -0.2820
vn -0.0000 -0.9569 -0.2904
vn -0.0000 -0.5528 -0.8333
vn -0.0000 0.9815 -0.1915
vn -0.0000 0.5815 -0.8135
vn 0.9594 -0.0000 -0.2820
vn 0.5041 -0.0000 -0.8637
vn 0.3310 -0.9422 -0.0510
vn 0.8983 -0.4387 -0.0238
vn 0.3310 0.9422 0.0510
vn 0.8983 0.4387 0.0238
vn 0.5041 -0.0000 0.8637
vn 0.9594 -0.0000 0.2820
vn -0.0000 -0.9815 0.1915
vn -0.0000 -0.5815 0.8135
vn -0.0000 0.9569 0.2904
vn -0.0000 0.5528 0.8333
vn -0.0000 -0.9985 -0.0541
vn -1.0000 -0.0000 -0.0000
vn -0.0000 -0.0000 1.0000
vn -0.0000 0.9985 0.0541
vn -0.0000 -0.0000 -1.0000
vn 1.0000 -0.0000 -0.0000
vn -0.5879 -0.6931 0.4172
vn -0.5879 0.6931 0.4172
vn -0.5879 -0.6931 -0.4172
vn -0.5879 0.6931 -0.4172
vn 0.5879 -0.6931 0.4172
vn 0.5879 0.6931 0.4172
vn 0.5879 -0.6931 -0.4172
vn 0.5879 0.6931 -0.4172
vn -0.6468 -0.7626 -0.0000
vn -0.8155 -0.0000 0.5787
vn -0.6468 0.7626 -0.0000
vn -0.8155 -0.0000 -0.5787
vn -0.0000 -0.8568 -0.5157
vn -0.0000 0.8568 -0.5157
vn 0.8155 -0.0000 -0.5787
vn 0.6468 -0.7626 -0.0000
vn 0.6468 0.7626 -0.0000
vn 0.8155 -0.0000 0.5787
vn -0.0000 -0.8568 0.5157
vn -0.0000 0.8568 0.5157
vn -0.0000 -1.0000 -0.0000
vn -0.0000 1.0000 -0.0000
vn -0.0000 -0.5669 -0.8238
vn -0.0000 -0.9703 -0.2419
vn -0.0000 -0.9703 0.2419
vn -0.0000 -0.5669 0.8238
vn -0.0000 0.5669 0.8238
vn -0.0000 0.9703 0.2419
vn -0.0000 0.9703 -0.2419
vn -0.0000 0.5669 -0.8238
vn -0.2558 -0.9488 0.1852
vn -0.4668 -0.4224 0.7770
vn -0.8845 -0.4320 0.1761
vn -0.3390 0.3997 0.8516
vn -0.3229 0.9191 0.2256
vn -0.8983 0.3366 0.2823
vn -0.3229 -0.9191 -0.2256
vn -0.8983 -0.3366 -0.2823
vn -0.3390 -0.3997 -0.8516
vn -0.2558 0.9488 -0.1852
vn -0.4668 0.4224 -0.7770
vn -0.8845 0.4320 -0.1761
vn 0.3287 -0.9357 0.1283
vn 0.9071 -0.3399 0.2482
vn 0.3540 -0.5439 0.7609
vn 0.2498 0.9266 0.2812
vn 0.3390 0.3997 0.8516
vn 0.8764 0.4280 0.2209
vn 0.2498 -0.9266 -0.2812
vn 0.3390 -0.3997 -0.8516
vn 0.8764 -0.4280 -0.2209
vn 0.3287 0.9357 -0.1283
vn 0.9071 0.3399 -0.2482
vn 0.3540 0.5439 -0.7609
s 0
f 1//1 5//1 7//1
f 2//2 5//2 4//2
f 3//3 5//3 6//3
f 11//4 14//4 8//4
f 9//5 12//5 11//5
f 10//6 12//6 13//6
f 15//7 19//7 21//7
f 16//8 19//8 18//8
f 21//9 20//9 17//9
f 22//10 26//10 28//10
f 23//11 26//11 25//11
f 24//12 26//12 27//12
f 29//13 33//13 35//13
f 30//14 33//14 32//14
f 31//15 33//15 34//15
f 36//16 40//16 42//16
f 41//17 39//17 37//17
f 38//18 40//18 41//18
f 43//19 47//19 49//19
f 48//20 46//20 44//20
f 45//21 47//21 48//21
f 50//22 54//22 56//22
f 51//23 54//23 53//23
f 52//24 54//24 55//24
f 15//25 7//25 18//25
f 18//26 3//26 16//26
f 8//27 6//27 2//27
f 14//28 3//28 6//28
f 9//29 28//29 13//29
f 13//30 24//30 10//30
f 17//31 27//31 23//31
f 20//32 24//32 27//32
f 15//33 46//33 43//33
f 21//34 44//34 46//34
f 50//35 25//35 22//35
f 56//36 23//36 25//36
f 51//37 48//37 55//37
f 55//38 44//38 52//38
f 43//39 32//39 29//39
f 49//40 30//40 32//40
f 36//41 53//41 50//41
f 42//42 51//42 53//42
f 37//43 34//43 41//43
f 41//44 30//44 38//44
f 29//45 4//45 1//45
f 35//46 2//46 4//46
f 9//47 39//47 36//47
f 11//48 37//48 39//48
f 43//49 1//49 15//49
f 10//50 16//50 3//50
f 37//51 2//51 31//51
f 22//52 36//52 50//52
f 23//53 44//53 17//53
f 45//54 38//54 30//54
f 57//55 58//55 59//55
f 60//56 61//56 62//56
f 63//57 64//57 65//57
f 66//58 67//58 68//58
f 69//59 70//59 71//59
f 72//60 73//60 74//60
f 75//61 76//61 77//61
f 78//62 79//62 80//62
f 57//63 64//63 63//63
f 60//64 59//64 58//64
f 66//65 62//65 61//65
f 65//66 68//66 67//66
f 63//67 76//67 75//67
f 78//68 67//68 66//68
f 77//69 80//69 79//69
f 75//70 70//70 69//70
f 72//71 79//71 78//71
f 71//72 74//72 73//72
f 69//73 58//73 57//73
f 61//74 73//74 72//74
f 75//75 57//75 63//75
f 62//50 64//50 59//50
f 73//51 58//51 71//51
f 66//76 72//76 78//76
f 67//53 76//53 65//53
f 79//54 70//54 77//54
f 81//55 82//55 83//55
f 84//56 85//56 86//56
f 87//57 88//57 89//57
f 90//58 91//58 92//58
f 93//59 94//59 95//59
f 96//60 97//60 98//60
f 99//61 100//61 101//61
f 102//62 103//62 104//62
f 81//63 88//63 87//63
f 84//64 83//64 82//64
f 90//65 86//65 85//65
f 89//66 92//66 91//66
f 87//67 100//67 99//67
f 102//68 91//68 90//68
f 101//69 104//69 103//69
f 99//70 94//70 93//70
f 96//71 103//71 102//71
f 95//72 98//72 97//72
f 93//73 82//73 81//73
f 85//74 97//74 96//74
f 99//75 81//75 87//75
f 86//50 88//50 83//50
f 97//51 82//51 95//51
f 90//76 96//76 102//76
f 91//53 100//53 89//53
f 103//54 94//54 101//54
f 106//38 107//38 105//38
f 108//37 109//37 107//37
f 110//44 111//44 109//44
f 112//43 113//43 111//43
f 114//27 115//27 113//27
f 116//28 117//28 115//28
f 118//76 114//76 110//76
f 118//32 119//32 117//32
f 120//31 105//31 119//31
f 111//75 115//75 119//75
f 122//38 123//38 121//38
f 124//37 125//37 123//37
f 126//44 127//44 125//44
f 128//43 129//43 127//43
f 130//27 131//27 129//27
f 132//28 133//28 131//28
f 134//76 130//76 126//76
f 134//32 135//32 133//32
f 136//31 121//31 135//31
f 127//75 131//75 135//75
f 138//38 139//38 137//38
f 140//37 141//37 139//37
f 142//44 143//44 141//44
f 144//43 145//43 143//43
f 146//27 147//27 145//27
f 148//28 149//28 147//28
f 150//76 146//76 142//76
f 150//32 151//32 149//32
f 152//31 137//31 151//31
f 143//75 147//75 151//75
f 154//38 155//38 153//38
f 156//37 157//37 155//37
f 158//44 159//44 157//44
f 160//43 161//43 159//43
f 162//27 163//27 161//27
f 164//28 165//28 163//28
f 166//76 162//76 158//76
f 166//32 167//32 165//32
f 168//31 153//31 167//31
f 159//75 163//75 167//75
f 170//77 171//77 169//77
f 172//78 173//78 171//78
f 174//79 175//79 173//79
f 176//80 177//80 175//80
f 178//81 179//81 177//81
f 180//82 181//82 179//82
f 182//54 178//54 174//54
f 182//83 183//83 181//83
f 184//84 169//84 183//84
f 175//50 179//50 183//50
f 186//77 187//77 185//77
f 188//78 189//78 187//78
f 190//79 191//79 189//79
f 192//80 193//80 191//80
f 194//81 195//81 193//81
f 196//82 197//82 195//82
f 198//54 194//54 190//54
f 198//83 199//83 197//83
f 200//84 185//84 199//84
f 191//50 195//50 199//50
f 1//85 4//85 5//85
f 2//86 6//86 5//86
f 3//87 7//87 5//87
f 11//88 12//88 14//88
f 9//89 13//89 12//89
f 10//90 14//90 12//90
f 15//91 18//91 19//91
f 16//92 20//92 19//92
f 21//93 19//93 20//93
f 22//94 25//94 26//94
f 23//95 27//95 26//95
f 24//96 28//96 26//96
f 29//97 32//97 33//97
f 30//98 34//98 33//98
f 31//99 35//99 33//99
f 36//100 39//100 40//100
f 41//101 40//101 39//101
f 38//102 42//102 40//102
f 43//103 46//103 47//103
f 48//104 47//104 46//104
f 45//105 49//105 47//105
f 50//106 53//106 54//106
f 51//107 55//107 54//107
f 52//108 56//108 54//108
f 15//25 1//25 7//25
f 18//26 7//26 3//26
f 8//27 14//27 6//27
f 14//28 10//28 3//28
f 9//29 22//29 28//29
f 13//30 28//30 24//30
f 17//31 20//31 27//31
f 20//32 16//32 24//32
f 15//33 21//33 46//33
f 21//34 17//34 44//34
f 50//35 56//35 25//35
f 56//36 52//36 23//36
f 51//37 45//37 48//37
f 55//38 48//38 44//38
f 43//39 49//39 32//39
f 49//40 45//40 30//40
f 36//41 42//41 53//41
f 42//42 38//42 51//42
f 37//43 31//43 34//43
f 41//44 34//44 30//44
f 29//45 35//45 4//45
f 35//46 31//46 2//46
f 9//47 11//47 39//47
f 11//48 8//48 37//48
f 43//49 29//49 1//49
f 10//50 24//50 16//50
f 37//51 8//51 2//51
f 22//52 9//52 36//52
f 23//53 52//53 44//53
f 45//54 51//54 38//54
f 57//63 59//63 64//63
f 60//64 62//64 59//64
f 66//65 68//65 62//65
f 65//66 64//66 68//66
f 63//67 65//67 76//67
f 78//68 80//68 67//68
f 77//69 76//69 80//69
f 75//70 77//70 70//70
f 72//71 74//71 79//71
f 71//72 70//72 74//72
f 69//73 71//73 58//73
f 61//74 60//74 73//74
f 75//75 69//75 57//75
f 62//50 68//50 64//50
f 73//51 60//51 58//51
f 66//76 61//76 72//76
f 67//53 80//53 76//53
f 79//54 74//54 70//54
f 81//63 83//63 88//63
f 84//64 86//64 83//64
f 90//65 92//65 86//65
f 89//66 88//66 92//66
f 87//67 89//67 100//67
f 102//68 104//68 91//68
f 101//69 100//69 104//69
f 99//70 101//70 94//70
f 96//71 98//71 103//71
f 95//72 94//72 98//72
f 93//73 95//73 82//73
f 85//74 84//74 97//74
f 99//75 93//75 81//75
f 86//50 92//50 88//50
f 97//51 84//51 82//51
f 90//76 85//76 96//76
f 91//53 104//53 100//53
f 103//54 98//54 94//54
f 106//38 108//38 107//38
f 108//37 110//37 109//37
f 110//44 112//44 111//44
f 112//43 114//43 113//43
f 114//27 116//27 115//27
f 116//28 118//28 117//28
f 110//76 108//76 106//76
f 106//76 120//76 118//76
f 118//76 116//76 114//76
f 114//76 112//76 110//76
f 110//76 106//76 118//76
f 118//32 120//32 119//32
f 120//31 106//31 105//31
f 119//75 105//75 107//75
f 107//75 109//75 111//75
f 111//75 113//75 115//75
f 115//75 117//75 119//75
f 119//75 107//75 111//75
f 122//38 124//38 123//38
f 124//37 126//37 125//37
f 126//44 128//44 127//44
f 128//43 130//43 129//43
f 130//27 132//27 131//27
f 132//28 134//28 133//28
f 126//76 124//76 122//76
f 122//76 136//76 134//76
f 134//76 132//76 130//76
f 130//76 128//76 126//76
f 126//76 122//76 134//76
f 134//32 136//32 135//32
f 136//31 122//31 121//31
f 135//75 121//75 123//75
f 123//75 125//75 127//75
f 127//75 129//75 131//75
f 131//75 133//75 135//75
f 135//75 123//75 127//75
f 138//38 140//38 139//38
f 140//37 142//37 141//37
f 142//44 144//44 143//44
f 144//43 146//43 145//43
f 146//27 148//27 147//27
f 148//28 150//28 149//28
f 142//76 140//76 138//76
f 138//76 152//76 150//76
f 150//76 148//76 146//76
f 146//76 144//76 142//76
f 142//76 138//76 150//76
f 150//32 152//32 151//32
f 152//31 138//31 137//31
f 151//75 137//75 139//75
f 139//75 141//75 143//75
f 143//75 145//75 147//75
f 147//75 149//75 151//75
f 151//75 139//75 143//75
f 154//38 156//38 155//38
f 156//37 158//37 157//37
f 158//44 160//44 159//44
f 160//43 162//43 161//43
f 162//27 164//27 163//27
f 164//28 166//28 165//28
f 158//76 156//76 154//76
f 154//76 168//76 166//76
f 166//76 164//76 162//76
f 162//76 160//76 158//76
f 158//76 154//76 166//76
f 166//32 168//32 167//32
f 168//31 154//31 153//31
f 167//75 153//75 155//75
f 155//75 157//75 159//75
f 159//75 161//75 163//75
f 163//75 165//75 167//75
f 167//75 155//75 159//75
f 170//77 172//77 171//77
f 172//78 174//78 173//78
f 174//79 176//79 175//79
f 176//80 178//80 177//80
f 178//81 180//81 179//81
f 180//82 182//82 181//82
f 174//54 172//54 170//54
f 170//54 184//54 182//54
f 182//54 180//54 178//54
f 178//54 176//54 174//54
f 174//54 170//54 182//54
f 182//83 184//83 183//83
f 184//84 170//84 169//84
f 183//50 169//50 171//50
f 171//50 173//50 175//50
f 175//50 177//50 179//50
f 179//50 181//50 183//50
f 183//50 171//50 175//50
f 186//77 188//77 187//77
f 188//78 190//78 189//78
f 190//79 192//79 191//79
f 192//80 194//80 193//80
f 194//81 196//81 195//81
f 196//82 198//82 197//82
f 190//54 188//54 186//54
f 186//54 200//54 198//54
f 198//54 196//54 194//54
f 194//54 192//54 190//54
f 190//54 186//54 198//54
f 198//83 200//83 199//83
f 200//84 186//84 185//84
f 199//50 185//50 187//50
f 187//50 189//50 191//50
f 191//50 193//50 195//50
f 195//50 197//50 199//50
f 199//50 187//50 191//50
