# Blender 5.2.1 LTS
# www.blender.org
o JungleTrunk
v 0.326572 -0.500000 0.000000
v 0.308985 -0.500000 -0.178393
v 0.183845 -0.500000 -0.318429
v 0.000000 -0.500000 -0.346951
v -0.169533 -0.500000 -0.293639
v -0.309314 -0.500000 -0.178582
v -0.364409 -0.500000 -0.000000
v -0.302207 -0.500000 0.174480
v -0.168536 -0.500000 0.291912
v -0.000000 -0.500000 0.344594
v 0.183979 -0.500000 0.318661
v 0.306048 -0.500000 0.176697
v 0.268466 -0.437500 -0.001897
v 0.247464 -0.437500 -0.144928
v 0.146428 -0.437500 -0.255989
v -0.000273 -0.437500 -0.282277
v -0.137238 -0.437500 -0.239128
v -0.258269 -0.437500 -0.150851
v -0.296846 -0.437500 -0.001897
v -0.243301 -0.437500 0.138415
v -0.135538 -0.437500 0.232389
v -0.000273 -0.437500 0.283307
v 0.147038 -0.437500 0.253252
v 0.240684 -0.437500 0.137219
v 0.234219 -0.375000 -0.003761
v 0.219125 -0.375000 -0.130942
v 0.129355 -0.375000 -0.229817
v -0.001158 -0.375000 -0.247679
v -0.119038 -0.375000 -0.207935
v -0.220035 -0.375000 -0.130130
v -0.262850 -0.375000 -0.003761
v -0.210144 -0.375000 0.116897
v -0.120550 -0.375000 0.203031
v -0.001158 -0.375000 0.249009
v 0.130933 -0.375000 0.225028
v 0.210770 -0.375000 0.118595
v 0.219144 -0.312500 -0.005549
v 0.206041 -0.312500 -0.126024
v 0.120929 -0.312500 -0.219554
v -0.002627 -0.312500 -0.226861
v -0.110875 -0.312500 -0.193042
v -0.201368 -0.312500 -0.120293
v -0.245339 -0.312500 -0.005549
v -0.196661 -0.312500 0.106477
v -0.110365 -0.312500 0.181058
v -0.002627 -0.312500 0.238071
v 0.118493 -0.312500 0.204236
v 0.191554 -0.312500 0.106561
v 0.216098 -0.250000 -0.007220
v 0.186890 -0.250000 -0.117793
v 0.109895 -0.250000 -0.205578
v -0.004628 -0.250000 -0.223997
v -0.107180 -0.250000 -0.184846
v -0.199086 -0.250000 -0.119490
v -0.238304 -0.250000 -0.007220
v -0.191288 -0.250000 0.100549
v -0.108353 -0.250000 0.172439
v -0.004628 -0.250000 0.229458
v 0.109073 -0.250000 0.189716
v 0.173569 -0.250000 0.095662
v 0.198540 -0.187500 -0.008731
v 0.181758 -0.187500 -0.117763
v 0.099481 -0.187500 -0.193321
v -0.007092 -0.187500 -0.209023
v -0.109124 -0.187500 -0.185455
v -0.196823 -0.187500 -0.118272
v -0.222146 -0.187500 -0.008731
v -0.178649 -0.187500 0.090318
v -0.109507 -0.187500 0.168657
v -0.007092 -0.187500 0.211567
v 0.100629 -0.187500 0.177848
v 0.165874 -0.187500 0.091131
v 0.180268 -0.125000 -0.010044
v 0.179321 -0.125000 -0.119310
v 0.089644 -0.125000 -0.182517
v -0.009933 -0.125000 -0.190830
v -0.112271 -0.125000 -0.187298
v -0.195074 -0.125000 -0.116936
v -0.203765 -0.125000 -0.010044
v -0.168443 -0.125000 0.081472
v -0.110338 -0.125000 0.163863
v -0.009933 -0.125000 0.194444
v 0.089698 -0.125000 0.162521
v 0.156651 -0.125000 0.086133
v 0.177232 -0.062500 -0.011124
v 0.159582 -0.062500 -0.110792
v 0.077980 -0.062500 -0.168790
v -0.013049 -0.062500 -0.190209
v -0.110743 -0.062500 -0.180335
v -0.193976 -0.062500 -0.115582
v -0.197255 -0.062500 -0.011124
v -0.167927 -0.062500 0.078296
v -0.111838 -0.062500 0.159985
v -0.013049 -0.062500 0.183486
v 0.078930 -0.062500 0.148188
v 0.138415 -0.062500 0.076324
v 0.169297 0.000000 -0.011936
v 0.149911 0.000000 -0.107913
v 0.071876 0.000000 -0.164705
v -0.016325 0.000000 -0.183167
v -0.110254 0.000000 -0.174625
v -0.185458 0.000000 -0.109585
v -0.192440 0.000000 -0.011936
v -0.166246 0.000000 0.074621
v -0.109407 0.000000 0.149286
v -0.016325 0.000000 0.178696
v 0.071061 0.000000 0.139421
v 0.131237 0.000000 0.073259
v 0.159716 0.062500 -0.012451
v 0.141261 0.062500 -0.105347
v 0.067530 0.062500 -0.163433
v -0.019639 0.062500 -0.179333
v -0.109237 0.062500 -0.167640
v -0.172376 0.062500 -0.100634
v -0.191402 0.062500 -0.012451
v -0.163474 0.062500 0.070592
v -0.108967 0.062500 0.142269
v -0.019639 0.062500 0.172404
v 0.067752 0.062500 0.138913
v 0.130331 0.062500 0.074134
v 0.158208 0.125000 -0.012644
v 0.121009 0.125000 -0.095707
v 0.059010 0.125000 -0.154447
v -0.022860 0.125000 -0.181795
v -0.106481 0.125000 -0.157479
v -0.167141 0.125000 -0.095945
v -0.191228 0.125000 -0.012644
v -0.166220 0.125000 0.070125
v -0.108332 0.125000 0.135397
v -0.022860 0.125000 0.166751
v 0.059721 0.125000 0.130390
v 0.116901 0.125000 0.068047
v 0.146252 0.187500 -0.012492
v 0.112490 0.187500 -0.092366
v 0.051006 0.187500 -0.145621
v -0.025856 0.187500 -0.169676
v -0.107478 0.187500 -0.153865
v -0.165047 0.187500 -0.092854
v -0.180091 0.187500 -0.012492
v -0.164420 0.187500 0.067507
v -0.106414 0.187500 0.127038
v -0.025856 0.187500 0.156672
v 0.048401 0.187500 0.116125
v 0.105406 0.187500 0.063292
v 0.125766 0.250000 -0.011978
v 0.108167 0.250000 -0.090881
v 0.042938 0.250000 -0.135706
v -0.028497 0.250000 -0.158063
v -0.109550 0.250000 -0.152367
v -0.160406 0.250000 -0.088136
v -0.167812 0.250000 -0.011978
v -0.155063 0.250000 0.061095
v -0.110439 0.250000 0.129950
v -0.028497 0.250000 0.135574
v 0.043652 0.250000 0.112986
v 0.103367 0.250000 0.064153
v 0.114784 0.312500 -0.011090
v 0.094645 0.312500 -0.083432
v 0.033781 0.312500 -0.122696
v -0.030654 0.312500 -0.150765
v -0.109034 0.312500 -0.146848
v -0.160507 0.312500 -0.086061
v -0.159774 0.312500 -0.011090
v -0.150831 0.312500 0.058294
v -0.108580 0.312500 0.123881
v -0.030654 0.312500 0.124067
v 0.035618 0.312500 0.103696
v 0.093818 0.312500 0.060774
v 0.109688 0.375000 -0.009821
v 0.082180 0.375000 -0.075864
v 0.029089 0.375000 -0.115995
v -0.032211 0.375000 -0.145229
v -0.105539 0.375000 -0.136829
v -0.155149 0.375000 -0.080799
v -0.156625 0.375000 -0.009821
v -0.150953 0.375000 0.058735
v -0.103288 0.375000 0.113290
v -0.032211 0.375000 0.121574
v 0.028738 0.375000 0.095745
v 0.083842 0.375000 0.057182
v 0.101964 0.437500 -0.008168
v 0.077084 0.437500 -0.071758
v 0.029999 0.437500 -0.117387
v -0.033059 0.437500 -0.142558
v -0.100095 0.437500 -0.124277
v -0.138185 0.437500 -0.068862
v -0.157767 0.437500 -0.008168
v -0.148333 0.437500 0.058386
v -0.102210 0.437500 0.111605
v -0.033059 0.437500 0.116606
v 0.030599 0.437500 0.102091
v 0.084140 0.437500 0.059497
v 0.097476 0.500000 -0.006134
v 0.069637 0.500000 -0.065453
v 0.029516 0.500000 -0.114600
v -0.033107 0.500000 -0.135607
v -0.094533 0.500000 -0.112527
v -0.128213 0.500000 -0.061043
v -0.156066 0.500000 -0.006134
v -0.146371 0.500000 0.059260
v -0.094577 0.500000 0.100336
v -0.033107 0.500000 0.118063
v 0.027730 0.500000 0.099239
v 0.079209 0.500000 0.058712
v -0.500000 -0.500000 0.032624
v -0.498682 -0.500000 -0.048791
v -0.120067 -0.500000 0.038774
v -0.118749 -0.500000 -0.042640
v -0.410254 -0.448333 0.030344
v -0.409057 -0.448333 -0.043607
v -0.120006 -0.448333 0.035043
v -0.118809 -0.448333 -0.038909
v -0.332273 -0.396667 0.027874
v -0.331197 -0.396667 -0.038614
v -0.119946 -0.396667 0.031311
v -0.118869 -0.396667 -0.035177
v -0.266880 -0.345000 0.025200
v -0.265925 -0.345000 -0.033825
v -0.119885 -0.345000 0.027580
v -0.118930 -0.345000 -0.031446
v -0.215233 -0.293333 0.022304
v -0.214398 -0.293333 -0.029259
v -0.119825 -0.293333 0.023848
v -0.118990 -0.293333 -0.027714
v -0.179186 -0.241667 0.019155
v -0.178473 -0.241667 -0.024945
v -0.119765 -0.241667 0.020117
v -0.119051 -0.241667 -0.023983
v -0.163125 -0.190000 0.015682
v -0.162532 -0.190000 -0.020954
v -0.119704 -0.190000 0.016385
v -0.119111 -0.190000 -0.020251
v 0.032624 -0.500000 0.500000
v -0.048791 -0.500000 0.498682
v 0.038774 -0.500000 0.120067
v -0.042640 -0.500000 0.118749
v 0.030344 -0.448333 0.410254
v -0.043607 -0.448333 0.409057
v 0.035043 -0.448333 0.120006
v -0.038909 -0.448333 0.118809
v 0.027874 -0.396667 0.332273
v -0.038614 -0.396667 0.331197
v 0.031311 -0.396667 0.119946
v -0.035177 -0.396667 0.118869
v 0.025200 -0.345000 0.266880
v -0.033825 -0.345000 0.265925
v 0.027580 -0.345000 0.119885
v -0.031446 -0.345000 0.118930
v 0.022304 -0.293333 0.215233
v -0.029259 -0.293333 0.214398
v 0.023848 -0.293333 0.119825
v -0.027714 -0.293333 0.118990
v 0.019155 -0.241667 0.179186
v -0.024945 -0.241667 0.178473
v 0.020117 -0.241667 0.119765
v -0.023983 -0.241667 0.119051
v 0.015682 -0.190000 0.163125
v -0.020954 -0.190000 0.162532
v 0.016385 -0.190000 0.119704
v -0.020251 -0.190000 0.119111
v 0.500000 -0.500000 -0.032624
v 0.498682 -0.500000 0.048791
v 0.120067 -0.500000 -0.038774
v 0.118749 -0.500000 0.042640
v 0.410254 -0.448333 -0.030344
v 0.409057 -0.448333 0.043607
v 0.120006 -0.448333 -0.035043
v 0.118809 -0.448333 0.038909
v 0.332273 -0.396667 -0.027874
v 0.331197 -0.396667 0.038614
v 0.119946 -0.396667 -0.031311
v 0.118869 -0.396667 0.035177
v 0.266880 -0.345000 -0.025200
v 0.265925 -0.345000 0.033825
v 0.119885 -0.345000 -0.027580
v 0.118930 -0.345000 0.031446
v 0.215233 -0.293333 -0.022304
v 0.214398 -0.293333 0.029259
v 0.119825 -0.293333 -0.023848
v 0.118990 -0.293333 0.027714
v 0.179186 -0.241667 -0.019155
v 0.178473 -0.241667 0.024945
v 0.119765 -0.241667 -0.020117
v 0.119051 -0.241667 0.023983
v 0.163125 -0.190000 -0.015682
v 0.162532 -0.190000 0.020954
v 0.119704 -0.190000 -0.016385
v 0.119111 -0.190000 0.020251
v -0.032624 -0.500000 -0.500000
v 0.048791 -0.500000 -0.498682
v -0.038774 -0.500000 -0.120067
v 0.042640 -0.500000 -0.118749
v -0.030344 -0.448333 -0.410254
v 0.043607 -0.448333 -0.409057
v -0.035043 -0.448333 -0.120006
v 0.038909 -0.448333 -0.118809
v -0.027874 -0.396667 -0.332273
v 0.038614 -0.396667 -0.331197
v -0.031311 -0.396667 -0.119946
v 0.035177 -0.396667 -0.118869
v -0.025200 -0.345000 -0.266880
v 0.033825 -0.345000 -0.265925
v -0.027580 -0.345000 -0.119885
v 0.031446 -0.345000 -0.118930
v -0.022304 -0.293333 -0.215233
v 0.029259 -0.293333 -0.214398
v -0.023848 -0.293333 -0.119825
v 0.027714 -0.293333 -0.118990
v -0.019155 -0.241667 -0.179186
v 0.024945 -0.241667 -0.178473
v -0.020117 -0.241667 -0.119765
v 0.023983 -0.241667 -0.119051
v -0.015682 -0.190000 -0.163125
v 0.020954 -0.190000 -0.162532
v -0.016385 -0.190000 -0.119704
v 0.020251 -0.190000 -0.119111
vn 0.7298 0.6752 -0.1072
vn 0.5005 0.7364 -0.4553
vn 0.1042 0.7335 -0.6717
vn -0.2136 0.7020 -0.6793
vn -0.4148 0.7103 -0.5687
vn -0.7189 0.6697 -0.1862
vn -0.6566 0.7170 0.2341
vn -0.4539 0.7260 0.5167
vn -0.2397 0.7329 0.6367
vn 0.1441 0.6932 0.7062
vn 0.5024 0.7490 0.4320
vn 0.6643 0.7435 0.0772
vn 0.8735 0.4756 -0.1037
vn 0.6653 0.4371 -0.6052
vn 0.1602 0.4182 -0.8941
vn -0.2662 0.4640 -0.8449
vn -0.5295 0.4972 -0.6873
vn -0.7811 0.5656 -0.2646
vn -0.8293 0.4605 0.3165
vn -0.5615 0.5196 0.6439
vn -0.3183 0.4645 0.8264
vn 0.1570 0.4768 0.8649
vn 0.7004 0.4357 0.5653
vn 0.8673 0.4667 0.1732
vn 0.9664 0.2298 -0.1147
vn 0.7249 0.2035 -0.6581
vn 0.1334 0.1781 -0.9749
vn -0.3053 0.2945 -0.9056
vn -0.6053 0.2584 -0.7529
vn -0.8854 0.3178 -0.3393
vn -0.8851 0.2591 0.3866
vn -0.6317 0.2581 0.7309
vn -0.4362 0.3609 0.8243
vn 0.2650 0.1723 0.9487
vn 0.7529 0.3378 0.5648
vn 0.9304 0.3204 0.1783
vn 0.9661 0.0403 -0.2552
vn 0.7054 0.3007 -0.6419
vn 0.0575 0.2275 -0.9721
vn -0.2980 0.0342 -0.9539
vn -0.6206 0.1379 -0.7719
vn -0.9434 0.0387 -0.3295
vn -0.9107 0.1131 0.3973
vn -0.6497 0.1270 0.7495
vn -0.4773 0.1351 0.8683
vn 0.3267 0.1393 0.9348
vn 0.7750 0.2515 0.5797
vn 0.9245 0.3057 0.2275
vn 0.9345 0.2566 -0.2468
vn 0.7504 0.0619 -0.6581
vn 0.1551 0.2149 -0.9642
vn -0.3491 0.2053 -0.9143
vn -0.5793 -0.0260 -0.8147
vn -0.9735 0.0396 -0.2250
vn -0.8899 0.2395 0.3882
vn -0.7256 0.2516 0.6404
vn -0.3860 0.0486 0.9212
vn 0.2873 0.2741 0.9178
vn 0.8057 0.2138 0.5525
vn 0.9413 0.1382 0.3079
vn 0.9503 0.2747 -0.1463
vn 0.6764 0.0081 -0.7365
vn 0.1431 0.1904 -0.9712
vn -0.2171 0.2637 -0.9399
vn -0.6072 -0.0539 -0.7927
vn -0.9963 0.0296 -0.0810
vn -0.8822 0.2676 0.3874
vn -0.7990 0.2102 0.5634
vn -0.2907 0.0693 0.9543
vn 0.2942 0.2649 0.9183
vn 0.7680 0.2760 0.5779
vn 0.9586 0.1603 0.2354
vn 0.9837 0.0448 -0.1742
vn 0.5528 0.2815 -0.7843
vn 0.0810 0.2282 -0.9702
vn -0.0345 0.0082 -0.9994
vn -0.6443 0.1002 -0.7582
vn -0.9993 0.0182 -0.0314
vn -0.9451 0.1038 0.3100
vn -0.8239 0.0355 0.5657
vn -0.2311 0.0547 0.9714
vn 0.3525 0.1786 0.9186
vn 0.7420 0.2687 0.6142
vn 0.9247 0.3055 0.2271
vn 0.9773 0.1218 -0.1731
vn 0.5747 0.1262 -0.8086
vn 0.2282 0.0857 -0.9698
vn -0.1000 0.1062 -0.9893
vn -0.6122 0.0767 -0.7870
vn -0.9900 0.1379 -0.0311
vn -0.9543 0.0773 0.2888
vn -0.7944 0.0569 0.6047
vn -0.2968 0.1723 0.9393
vn 0.4082 0.0910 0.9083
vn 0.7271 0.1843 0.6613
vn 0.9060 0.1239 0.4048
vn 0.9696 0.1470 -0.1958
vn 0.5846 0.1139 -0.8033
vn 0.2048 0.0342 -0.9782
vn -0.0904 0.0562 -0.9943
vn -0.6512 0.0947 -0.7530
vn -0.9744 0.2139 -0.0697
vn -0.9477 0.0184 0.3187
vn -0.7938 0.0741 0.6037
vn -0.3178 0.1080 0.9420
vn 0.3556 0.1123 0.9279
vn 0.7185 0.0437 0.6941
vn 0.9469 0.0092 0.3214
vn 0.9125 0.0208 -0.4086
vn 0.5891 0.3062 -0.7478
vn 0.1770 0.1637 -0.9705
vn -0.1293 -0.0457 -0.9906
vn -0.7204 0.1421 -0.6788
vn -0.9729 0.0972 -0.2099
vn -0.9573 0.0036 0.2892
vn -0.7479 -0.0279 0.6633
vn -0.3425 0.1061 0.9335
vn 0.4008 0.1030 0.9103
vn 0.7244 0.1837 0.6644
vn 0.8664 0.2294 0.4435
vn 0.8989 0.1729 -0.4026
vn 0.6818 0.1314 -0.7196
vn 0.3121 0.1719 -0.9344
vn -0.2751 0.1703 -0.9462
vn -0.7118 0.0292 -0.7017
vn -0.9596 0.0459 -0.2775
vn -0.9437 0.1675 0.2851
vn -0.7153 0.0498 0.6970
vn -0.3421 0.1349 0.9299
vn 0.4729 0.1623 0.8660
vn 0.6528 0.2790 0.7043
vn 0.8635 0.1942 0.4654
vn 0.8810 0.2918 -0.3724
vn 0.6534 0.0631 -0.7544
vn 0.2934 0.1866 -0.9376
vn -0.1874 0.1718 -0.9672
vn -0.7273 -0.0077 -0.6863
vn -0.9792 0.0865 -0.1833
vn -0.9674 0.1887 0.1688
vn -0.7050 0.1760 0.6870
vn -0.0684 -0.0508 0.9964
vn 0.4569 0.3018 0.8368
vn 0.6307 0.0867 0.7712
vn 0.9590 0.0274 0.2822
vn 0.9493 0.1706 -0.2643
vn 0.5530 0.2156 -0.8048
vn 0.2903 0.2356 -0.9275
vn -0.0696 0.1133 -0.9911
vn -0.7825 0.0612 -0.6196
vn -0.9953 0.0016 -0.0968
vn -0.9840 0.1248 0.1268
vn -0.8379 0.0809 0.5398
vn -0.0024 0.0967 0.9953
vn 0.2889 0.1830 0.9397
vn 0.5825 0.1923 0.7898
vn 0.9477 0.1597 0.2765
vn 0.9200 0.0828 -0.3832
vn 0.5305 0.2054 -0.8224
vn 0.3961 0.1272 -0.9093
vn -0.1134 0.0849 -0.9899
vn -0.7551 0.1447 -0.6394
vn -0.9964 0.0846 0.0097
vn -0.9907 0.0473 0.1277
vn -0.7530 -0.0061 0.6579
vn -0.0023 0.1673 0.9859
vn 0.3898 0.0464 0.9197
vn 0.5655 0.1650 0.8081
vn 0.9199 0.1672 0.3548
vn 0.9241 0.1238 -0.3616
vn 0.5999 0.1011 -0.7936
vn 0.3706 -0.0261 -0.9284
vn -0.2629 0.0376 -0.9641
vn -0.7344 0.1946 -0.6502
vn -0.9639 0.2655 -0.0200
vn -0.9964 -0.0204 0.0824
vn -0.7526 0.0352 0.6575
vn -0.0721 0.0281 0.9970
vn 0.3890 0.0782 0.9179
vn 0.6196 -0.0975 0.7788
vn 0.9669 -0.0140 0.2547
vn 0.9025 0.0786 -0.4235
vn 0.7654 0.1542 -0.6248
vn 0.3177 0.0447 -0.9471
vn -0.2616 0.1065 -0.9593
vn -0.8111 0.1770 -0.5575
vn -0.9349 0.1869 -0.3016
vn -0.9899 0.0224 0.1403
vn -0.6214 0.0086 0.7835
vn -0.0709 0.1854 0.9801
vn 0.2955 -0.0220 0.9551
vn 0.6173 0.0641 0.7841
vn 0.9595 0.0791 0.2703
vn -0.0000 -1.0000 -0.0000
vn -0.0000 1.0000 -0.0000
vn 0.4991 -0.8665 0.0081
vn 0.9999 -0.0000 0.0162
vn -0.0161 0.0720 0.9973
vn -0.0161 -0.0720 0.9973
vn 0.5525 -0.8335 0.0089
vn 0.6202 -0.7844 0.0100
vn 0.7075 -0.7066 0.0115
vn 0.8204 -0.5716 0.0133
vn 0.9551 -0.2959 0.0155
vn 0.0081 -0.8665 -0.4991
vn 0.0162 -0.0000 -0.9999
vn 0.9973 0.0720 0.0161
vn 0.9973 -0.0720 0.0161
vn 0.0089 -0.8335 -0.5525
vn 0.0100 -0.7844 -0.6202
vn 0.0115 -0.7066 -0.7075
vn 0.0133 -0.5716 -0.8204
vn 0.0155 -0.2959 -0.9551
vn -0.4991 -0.8665 -0.0081
vn -0.9999 -0.0000 -0.0162
vn 0.0161 0.0720 -0.9973
vn 0.0161 -0.0720 -0.9973
vn -0.5525 -0.8335 -0.0089
vn -0.6202 -0.7844 -0.0100
vn -0.7075 -0.7066 -0.0115
vn -0.8204 -0.5716 -0.0133
vn -0.9551 -0.2959 -0.0155
vn -0.0081 -0.8665 0.4991
vn -0.0162 -0.0000 0.9999
vn -0.9973 0.0720 -0.0161
vn -0.9973 -0.0720 -0.0161
vn -0.0089 -0.8335 0.5525
vn -0.0100 -0.7844 0.6202
vn -0.0115 -0.7066 0.7075
vn -0.0133 -0.5716 0.8204
vn -0.0155 -0.2959 0.9551
vn 0.6925 0.7182 -0.0683
vn 0.4986 0.7436 -0.4455
vn 0.1235 0.7138 -0.6893
vn -0.2138 0.7025 -0.6788
vn -0.4815 0.6527 -0.5849
vn -0.6676 0.7155 -0.2060
vn -0.6328 0.7357 0.2415
vn -0.4499 0.7289 0.5160
vn -0.2180 0.6828 0.6973
vn 0.0930 0.7456 0.6599
vn 0.4956 0.7710 0.4000
vn 0.7225 0.6761 0.1443
vn 0.8916 0.4335 -0.1309
vn 0.6665 0.4355 -0.6051
vn 0.1188 0.4822 -0.8680
vn -0.2780 0.4926 -0.8247
vn -0.4990 0.5320 -0.6841
vn -0.8592 0.4607 -0.2225
vn -0.7775 0.5294 0.3396
vn -0.6187 0.4507 0.6435
vn -0.3140 0.4533 0.8342
vn 0.1792 0.4429 0.8785
vn 0.6975 0.4897 0.5232
vn 0.8628 0.4777 0.1654
vn 0.9716 0.2117 -0.1057
vn 0.7238 0.2057 -0.6586
vn 0.0560 0.3167 -0.9469
vn -0.2882 0.2574 -0.9223
vn -0.5834 0.2934 -0.7573
vn -0.9175 0.2482 -0.3109
vn -0.8867 0.2555 0.3853
vn -0.6507 0.3440 0.6769
vn -0.3551 0.1530 0.9222
vn 0.1679 0.3411 0.9249
vn 0.7531 0.3400 0.5633
vn 0.9440 0.2343 0.2323
vn 0.9472 0.3038 -0.1030
vn 0.7239 0.2698 -0.6349
vn 0.1586 0.0503 -0.9861
vn -0.3530 0.1421 -0.9247
vn -0.5792 0.0316 -0.8145
vn -0.9296 0.0951 -0.3562
vn -0.9110 0.1159 0.3958
vn -0.6488 0.1244 0.7507
vn -0.4651 0.1062 0.8789
vn 0.2601 0.2555 0.9312
vn 0.7818 0.3184 0.5361
vn 0.9227 0.0552 0.3814
vn 0.9851 0.0810 -0.1516
vn 0.6551 0.2490 -0.7133
vn 0.1416 0.2359 -0.9614
vn -0.2250 -0.0165 -0.9742
vn -0.6077 0.0375 -0.7933
vn -0.9188 0.2298 -0.3209
vn -0.8881 0.2434 0.3900
vn -0.6546 0.0336 0.7552
vn -0.4693 0.2259 0.8537
vn 0.3220 0.2184 0.9212
vn 0.7912 0.1406 0.5952
vn 0.8925 0.2596 0.3689
vn 0.9992 0.0387 -0.0087
vn 0.5612 0.2260 -0.7962
vn 0.0798 0.2819 -0.9561
vn -0.0345 -0.0312 -0.9989
vn -0.6472 0.0344 -0.7616
vn -0.9378 0.2712 -0.2168
vn -0.9142 0.1992 0.3529
vn -0.7491 0.0408 0.6612
vn -0.3762 0.2289 0.8978
vn 0.2872 0.2752 0.9175
vn 0.7421 0.1615 0.6505
vn 0.9142 0.2735 0.2990
vn 0.9532 0.3022 -0.0083
vn 0.5568 0.2760 -0.7834
vn 0.2290 0.0211 -0.9732
vn -0.0999 0.1126 -0.9886
vn -0.6138 0.0279 -0.7890
vn -0.9915 0.1019 -0.0806
vn -0.9326 0.0260 0.3600
vn -0.8171 0.0161 0.5763
vn -0.2880 0.1514 0.9456
vn 0.2945 0.2615 0.9192
vn 0.7156 0.3072 0.6273
vn 0.9128 0.0513 0.4052
vn 0.9678 0.1587 -0.1955
vn 0.5849 0.1096 -0.8037
vn 0.2034 0.1201 -0.9717
vn -0.0902 0.0913 -0.9917
vn -0.6458 0.1596 -0.7467
vn -0.9946 0.0757 -0.0711
vn -0.9493 0.0438 0.3113
vn -0.8176 0.1279 0.5614
vn -0.2310 0.0623 0.9710
vn 0.3529 0.1734 0.9195
vn 0.7649 0.1189 0.6331
vn 0.9073 0.1204 0.4028
vn 0.9708 0.1423 -0.1929
vn 0.6178 0.0589 -0.7842
vn 0.1790 0.0697 -0.9814
vn -0.1286 0.1122 -0.9853
vn -0.7060 0.2430 -0.6652
vn -0.9774 0.0145 -0.2109
vn -0.9554 0.0610 0.2891
vn -0.7935 0.0734 0.6041
vn -0.3003 0.0798 0.9505
vn 0.4098 0.0291 0.9117
vn 0.7398 0.0013 0.6728
vn 0.9038 0.1419 0.4038
vn 0.9264 0.3286 -0.1840
vn 0.6747 0.1944 -0.7121
vn 0.3168 -0.0210 -0.9483
vn -0.2753 0.1661 -0.9469
vn -0.7077 0.1116 -0.6976
vn -0.9606 0.0018 -0.2778
vn -0.9471 -0.0392 0.3185
vn -0.7938 0.0744 0.6036
vn -0.3189 0.0691 0.9453
vn 0.3526 0.1708 0.9201
vn 0.7021 0.2169 0.6782
vn 0.9467 0.0238 0.3213
vn 0.9114 0.1448 -0.3852
vn 0.6431 0.1872 -0.7425
vn 0.2929 0.1955 -0.9359
vn -0.1899 0.0537 -0.9803
vn -0.7261 0.0582 -0.6851
vn -0.9681 0.1729 -0.1812
vn -0.9807 0.0363 0.1921
vn -0.7435 0.1110 0.6594
vn -0.3413 0.1337 0.9304
vn 0.3879 0.2713 0.8809
vn 0.7244 0.1838 0.6644
vn 0.8777 0.1668 0.4493
vn 0.9734 0.0725 -0.2171
vn 0.5549 0.1997 -0.8076
vn -0.0701 0.0216 -0.9973
vn -0.7797 0.1045 -0.6174
vn -0.9767 0.1927 -0.0950
vn -0.9680 0.1644 0.1896
vn -0.8365 -0.0791 0.5422
vn -0.3305 0.2893 0.8984
vn 0.2980 0.0705 0.9520
vn 0.6797 0.0121 0.7334
vn 0.8466 0.2738 0.4563
vn 0.9497 0.2307 -0.2118
vn 0.5254 0.2465 -0.8144
vn 0.3965 0.1200 -0.9102
vn -0.0497 0.0883 -0.9949
vn -0.7630 0.0202 -0.6461
vn -0.9918 0.1274 0.0097
vn -0.9824 0.0742 0.1714
vn -0.8366 0.0775 0.5422
vn -0.0674 0.1784 0.9816
vn 0.2940 0.1774 0.9392
vn 0.6271 0.1373 0.7668
vn 0.9466 0.1624 0.2785
vn 0.9399 0.2192 -0.2617
vn 0.5979 0.1297 -0.7910
vn 0.4287 0.0903 -0.8989
vn -0.0493 0.1608 -0.9858
vn -0.7434 0.1191 -0.6582
vn -0.9985 0.0507 -0.0208
vn -0.9966 -0.0025 0.0825
vn -0.8297 0.1608 0.5345
vn -0.1157 0.0367 0.9926
vn 0.2904 0.1522 0.9447
vn 0.5877 0.1396 0.7969
vn 0.9575 0.0724 0.2793
vn 0.9185 0.1000 -0.3826
vn 0.6957 -0.0261 -0.7179
vn 0.4300 0.0444 -0.9017
vn -0.1114 0.2050 -0.9724
vn -0.7822 0.3150 -0.5376
vn -0.9517 -0.0093 -0.3070
vn -0.9892 0.0422 0.1402
vn -0.7553 0.0307 0.6546
vn -0.1154 0.0772 0.9903
vn 0.2211 -0.1050 0.9696
vn 0.5730 -0.0331 0.8189
vn 0.9278 0.1052 0.3579
vn 0.9213 0.1461 -0.3604
vn 0.6954 0.0374 -0.7176
vn 0.3688 0.1030 -0.9238
vn -0.3444 0.2030 -0.9166
vn -0.8203 0.1980 -0.5366
vn -0.8911 0.0390 -0.4520
vn -0.9888 0.0290 0.1466
vn -0.7395 0.2059 0.6409
vn -0.2770 -0.0226 0.9606
vn 0.2220 0.0546 0.9735
vn 0.6215 0.0589 0.7812
vn 0.9652 0.0610 0.2542
s 0
f 1//1 14//1 13//1
f 2//2 15//2 14//2
f 4//3 15//3 3//3
f 5//4 16//4 4//4
f 5//5 18//5 17//5
f 6//6 19//6 18//6
f 8//7 19//7 7//7
f 9//8 20//8 8//8
f 9//9 22//9 21//9
f 10//10 23//10 22//10
f 12//11 23//11 11//11
f 1//12 24//12 12//12
f 13//13 26//13 25//13
f 15//14 26//14 14//14
f 16//15 27//15 15//15
f 17//16 28//16 16//16
f 17//17 30//17 29//17
f 18//18 31//18 30//18
f 20//19 31//19 19//19
f 21//20 32//20 20//20
f 21//21 34//21 33//21
f 22//22 35//22 34//22
f 24//23 35//23 23//23
f 13//24 36//24 24//24
f 26//25 37//25 25//25
f 27//26 38//26 26//26
f 28//27 39//27 27//27
f 29//28 40//28 28//28
f 29//29 42//29 41//29
f 30//30 43//30 42//30
f 32//31 43//31 31//31
f 32//32 45//32 44//32
f 33//33 46//33 45//33
f 34//34 47//34 46//34
f 36//35 47//35 35//35
f 25//36 48//36 36//36
f 37//37 50//37 49//37
f 39//38 50//38 38//38
f 40//39 51//39 39//39
f 41//40 52//40 40//40
f 42//41 53//41 41//41
f 42//42 55//42 54//42
f 43//43 56//43 55//43
f 44//44 57//44 56//44
f 45//45 58//45 57//45
f 46//46 59//46 58//46
f 48//47 59//47 47//47
f 37//48 60//48 48//48
f 50//49 61//49 49//49
f 51//50 62//50 50//50
f 52//51 63//51 51//51
f 53//52 64//52 52//52
f 54//53 65//53 53//53
f 54//54 67//54 66//54
f 56//55 67//55 55//55
f 56//56 69//56 68//56
f 57//57 70//57 69//57
f 58//58 71//58 70//58
f 60//59 71//59 59//59
f 60//60 61//60 72//60
f 62//61 73//61 61//61
f 63//62 74//62 62//62
f 64//63 75//63 63//63
f 65//64 76//64 64//64
f 66//65 77//65 65//65
f 66//66 79//66 78//66
f 68//67 79//67 67//67
f 68//68 81//68 80//68
f 69//69 82//69 81//69
f 70//70 83//70 82//70
f 72//71 83//71 71//71
f 72//72 73//72 84//72
f 73//73 86//73 85//73
f 75//74 86//74 74//74
f 76//75 87//75 75//75
f 77//76 88//76 76//76
f 78//77 89//77 77//77
f 78//78 91//78 90//78
f 79//79 92//79 91//79
f 80//80 93//80 92//80
f 81//81 94//81 93//81
f 82//82 95//82 94//82
f 83//83 96//83 95//83
f 73//84 96//84 84//84
f 86//85 97//85 85//85
f 87//86 98//86 86//86
f 88//87 99//87 87//87
f 89//88 100//88 88//88
f 90//89 101//89 89//89
f 91//90 102//90 90//90
f 91//91 104//91 103//91
f 92//92 105//92 104//92
f 93//93 106//93 105//93
f 94//94 107//94 106//94
f 95//95 108//95 107//95
f 96//96 97//96 108//96
f 98//97 109//97 97//97
f 99//98 110//98 98//98
f 100//99 111//99 99//99
f 101//100 112//100 100//100
f 102//101 113//101 101//101
f 103//102 114//102 102//102
f 103//103 116//103 115//103
f 104//104 117//104 116//104
f 105//105 118//105 117//105
f 106//106 119//106 118//106
f 107//107 120//107 119//107
f 108//108 109//108 120//108
f 109//109 122//109 121//109
f 111//110 122//110 110//110
f 112//111 123//111 111//111
f 113//112 124//112 112//112
f 114//113 125//113 113//113
f 115//114 126//114 114//114
f 115//115 128//115 127//115
f 116//116 129//116 128//116
f 117//117 130//117 129//117
f 118//118 131//118 130//118
f 119//119 132//119 131//119
f 120//120 121//120 132//120
f 122//121 133//121 121//121
f 123//122 134//122 122//122
f 124//123 135//123 123//123
f 125//124 136//124 124//124
f 126//125 137//125 125//125
f 127//126 138//126 126//126
f 128//127 139//127 127//127
f 128//128 141//128 140//128
f 129//129 142//129 141//129
f 130//130 143//130 142//130
f 131//131 144//131 143//131
f 132//132 133//132 144//132
f 134//133 145//133 133//133
f 135//134 146//134 134//134
f 136//135 147//135 135//135
f 137//136 148//136 136//136
f 138//137 149//137 137//137
f 139//138 150//138 138//138
f 139//139 152//139 151//139
f 141//140 152//140 140//140
f 141//141 154//141 153//141
f 143//142 154//142 142//142
f 143//143 156//143 155//143
f 144//144 145//144 156//144
f 145//145 158//145 157//145
f 147//146 158//146 146//146
f 148//147 159//147 147//147
f 149//148 160//148 148//148
f 150//149 161//149 149//149
f 151//150 162//150 150//150
f 151//151 164//151 163//151
f 152//152 165//152 164//152
f 153//153 166//153 165//153
f 154//154 167//154 166//154
f 155//155 168//155 167//155
f 156//156 157//156 168//156
f 157//157 170//157 169//157
f 159//158 170//158 158//158
f 160//159 171//159 159//159
f 160//160 173//160 172//160
f 162//161 173//161 161//161
f 163//162 174//162 162//162
f 164//163 175//163 163//163
f 164//164 177//164 176//164
f 166//165 177//165 165//165
f 166//166 179//166 178//166
f 167//167 180//167 179//167
f 168//168 169//168 180//168
f 169//169 182//169 181//169
f 171//170 182//170 170//170
f 171//171 184//171 183//171
f 172//172 185//172 184//172
f 174//173 185//173 173//173
f 175//174 186//174 174//174
f 176//175 187//175 175//175
f 177//176 188//176 176//176
f 177//177 190//177 189//177
f 179//178 190//178 178//178
f 179//179 192//179 191//179
f 180//180 181//180 192//180
f 181//181 194//181 193//181
f 182//182 195//182 194//182
f 183//183 196//183 195//183
f 185//184 196//184 184//184
f 186//185 197//185 185//185
f 187//186 198//186 186//186
f 188//187 199//187 187//187
f 188//188 201//188 200//188
f 190//189 201//189 189//189
f 190//190 203//190 202//190
f 191//191 204//191 203//191
f 192//192 193//192 204//192
f 9//193 5//193 1//193
f 196//194 200//194 204//194
f 206//195 209//195 205//195
f 208//196 211//196 207//196
f 207//197 209//197 205//197
f 208//198 210//198 206//198
f 209//199 214//199 213//199
f 212//196 215//196 211//196
f 211//197 213//197 209//197
f 212//198 214//198 210//198
f 213//200 218//200 217//200
f 216//196 219//196 215//196
f 215//197 217//197 213//197
f 216//198 218//198 214//198
f 217//201 222//201 221//201
f 220//196 223//196 219//196
f 219//197 221//197 217//197
f 220//198 222//198 218//198
f 221//202 226//202 225//202
f 224//196 227//196 223//196
f 223//197 225//197 221//197
f 224//198 226//198 222//198
f 225//203 230//203 229//203
f 228//196 231//196 227//196
f 227//197 229//197 225//197
f 228//198 230//198 226//198
f 206//193 207//193 205//193
f 234//204 237//204 233//204
f 236//205 239//205 235//205
f 235//206 237//206 233//206
f 236//207 238//207 234//207
f 237//208 242//208 241//208
f 240//205 243//205 239//205
f 239//206 241//206 237//206
f 240//207 242//207 238//207
f 241//209 246//209 245//209
f 244//205 247//205 243//205
f 243//206 245//206 241//206
f 244//207 246//207 242//207
f 245//210 250//210 249//210
f 248//205 251//205 247//205
f 247//206 249//206 245//206
f 248//207 250//207 246//207
f 249//211 254//211 253//211
f 252//205 255//205 251//205
f 251//206 253//206 249//206
f 252//207 254//207 250//207
f 253//212 258//212 257//212
f 256//205 259//205 255//205
f 255//206 257//206 253//206
f 256//207 258//207 254//207
f 234//193 235//193 233//193
f 262//213 265//213 261//213
f 264//214 267//214 263//214
f 263//215 265//215 261//215
f 264//216 266//216 262//216
f 265//217 270//217 269//217
f 268//214 271//214 267//214
f 267//215 269//215 265//215
f 268//216 270//216 266//216
f 269//218 274//218 273//218
f 272//214 275//214 271//214
f 271//215 273//215 269//215
f 272//216 274//216 270//216
f 273//219 278//219 277//219
f 276//214 279//214 275//214
f 275//215 277//215 273//215
f 276//216 278//216 274//216
f 277//220 282//220 281//220
f 280//214 283//214 279//214
f 279//215 281//215 277//215
f 280//216 282//216 278//216
f 281//221 286//221 285//221
f 284//214 287//214 283//214
f 283//215 285//215 281//215
f 284//216 286//216 282//216
f 262//193 263//193 261//193
f 290//222 293//222 289//222
f 292//223 295//223 291//223
f 291//224 293//224 289//224
f 292//225 294//225 290//225
f 293//226 298//226 297//226
f 296//223 299//223 295//223
f 295//224 297//224 293//224
f 296//225 298//225 294//225
f 297//227 302//227 301//227
f 300//223 303//223 299//223
f 299//224 301//224 297//224
f 300//225 302//225 298//225
f 301//228 306//228 305//228
f 304//223 307//223 303//223
f 303//224 305//224 301//224
f 304//225 306//225 302//225
f 305//229 310//229 309//229
f 308//223 311//223 307//223
f 307//224 309//224 305//224
f 308//225 310//225 306//225
f 309//230 314//230 313//230
f 312//223 315//223 311//223
f 311//224 313//224 309//224
f 312//225 314//225 310//225
f 290//193 291//193 289//193
f 1//231 2//231 14//231
f 2//232 3//232 15//232
f 4//233 16//233 15//233
f 5//234 17//234 16//234
f 5//235 6//235 18//235
f 6//236 7//236 19//236
f 8//237 20//237 19//237
f 9//238 21//238 20//238
f 9//239 10//239 22//239
f 10//240 11//240 23//240
f 12//241 24//241 23//241
f 1//242 13//242 24//242
f 13//243 14//243 26//243
f 15//244 27//244 26//244
f 16//245 28//245 27//245
f 17//246 29//246 28//246
f 17//247 18//247 30//247
f 18//248 19//248 31//248
f 20//249 32//249 31//249
f 21//250 33//250 32//250
f 21//251 22//251 34//251
f 22//252 23//252 35//252
f 24//253 36//253 35//253
f 13//254 25//254 36//254
f 26//255 38//255 37//255
f 27//256 39//256 38//256
f 28//257 40//257 39//257
f 29//258 41//258 40//258
f 29//259 30//259 42//259
f 30//260 31//260 43//260
f 32//261 44//261 43//261
f 32//262 33//262 45//262
f 33//263 34//263 46//263
f 34//264 35//264 47//264
f 36//265 48//265 47//265
f 25//266 37//266 48//266
f 37//267 38//267 50//267
f 39//268 51//268 50//268
f 40//269 52//269 51//269
f 41//270 53//270 52//270
f 42//271 54//271 53//271
f 42//272 43//272 55//272
f 43//273 44//273 56//273
f 44//274 45//274 57//274
f 45//275 46//275 58//275
f 46//276 47//276 59//276
f 48//277 60//277 59//277
f 37//278 49//278 60//278
f 50//279 62//279 61//279
f 51//280 63//280 62//280
f 52//281 64//281 63//281
f 53//282 65//282 64//282
f 54//283 66//283 65//283
f 54//284 55//284 67//284
f 56//285 68//285 67//285
f 56//286 57//286 69//286
f 57//287 58//287 70//287
f 58//288 59//288 71//288
f 60//289 72//289 71//289
f 60//290 49//290 61//290
f 62//291 74//291 73//291
f 63//292 75//292 74//292
f 64//293 76//293 75//293
f 65//294 77//294 76//294
f 66//295 78//295 77//295
f 66//296 67//296 79//296
f 68//297 80//297 79//297
f 68//298 69//298 81//298
f 69//299 70//299 82//299
f 70//300 71//300 83//300
f 72//301 84//301 83//301
f 72//302 61//302 73//302
f 73//303 74//303 86//303
f 75//304 87//304 86//304
f 76//305 88//305 87//305
f 77//306 89//306 88//306
f 78//307 90//307 89//307
f 78//308 79//308 91//308
f 79//309 80//309 92//309
f 80//310 81//310 93//310
f 81//311 82//311 94//311
f 82//312 83//312 95//312
f 83//313 84//313 96//313
f 73//314 85//314 96//314
f 86//315 98//315 97//315
f 87//316 99//316 98//316
f 88//317 100//317 99//317
f 89//318 101//318 100//318
f 90//319 102//319 101//319
f 91//320 103//320 102//320
f 91//321 92//321 104//321
f 92//322 93//322 105//322
f 93//323 94//323 106//323
f 94//324 95//324 107//324
f 95//325 96//325 108//325
f 96//326 85//326 97//326
f 98//327 110//327 109//327
f 99//328 111//328 110//328
f 100//329 112//329 111//329
f 101//330 113//330 112//330
f 102//331 114//331 113//331
f 103//332 115//332 114//332
f 103//333 104//333 116//333
f 104//334 105//334 117//334
f 105//335 106//335 118//335
f 106//336 107//336 119//336
f 107//337 108//337 120//337
f 108//338 97//338 109//338
f 109//339 110//339 122//339
f 111//340 123//340 122//340
f 112//341 124//341 123//341
f 113//342 125//342 124//342
f 114//343 126//343 125//343
f 115//344 127//344 126//344
f 115//345 116//345 128//345
f 116//346 117//346 129//346
f 117//347 118//347 130//347
f 118//348 119//348 131//348
f 119//349 120//349 132//349
f 120//350 109//350 121//350
f 122//351 134//351 133//351
f 123//352 135//352 134//352
f 124//353 136//353 135//353
f 125//354 137//354 136//354
f 126//355 138//355 137//355
f 127//356 139//356 138//356
f 128//357 140//357 139//357
f 128//358 129//358 141//358
f 129//359 130//359 142//359
f 130//360 131//360 143//360
f 131//361 132//361 144//361
f 132//362 121//362 133//362
f 134//363 146//363 145//363
f 135//364 147//364 146//364
f 136//135 148//135 147//135
f 137//365 149//365 148//365
f 138//366 150//366 149//366
f 139//367 151//367 150//367
f 139//368 140//368 152//368
f 141//369 153//369 152//369
f 141//370 142//370 154//370
f 143//371 155//371 154//371
f 143//372 144//372 156//372
f 144//373 133//373 145//373
f 145//374 146//374 158//374
f 147//375 159//375 158//375
f 148//376 160//376 159//376
f 149//377 161//377 160//377
f 150//378 162//378 161//378
f 151//379 163//379 162//379
f 151//380 152//380 164//380
f 152//381 153//381 165//381
f 153//382 154//382 166//382
f 154//383 155//383 167//383
f 155//384 156//384 168//384
f 156//385 145//385 157//385
f 157//386 158//386 170//386
f 159//387 171//387 170//387
f 160//388 172//388 171//388
f 160//389 161//389 173//389
f 162//390 174//390 173//390
f 163//391 175//391 174//391
f 164//392 176//392 175//392
f 164//393 165//393 177//393
f 166//394 178//394 177//394
f 166//395 167//395 179//395
f 167//396 168//396 180//396
f 168//397 157//397 169//397
f 169//398 170//398 182//398
f 171//399 183//399 182//399
f 171//400 172//400 184//400
f 172//401 173//401 185//401
f 174//402 186//402 185//402
f 175//403 187//403 186//403
f 176//404 188//404 187//404
f 177//405 189//405 188//405
f 177//406 178//406 190//406
f 179//407 191//407 190//407
f 179//408 180//408 192//408
f 180//409 169//409 181//409
f 181//410 182//410 194//410
f 182//411 183//411 195//411
f 183//412 184//412 196//412
f 185//413 197//413 196//413
f 186//414 198//414 197//414
f 187//415 199//415 198//415
f 188//416 200//416 199//416
f 188//417 189//417 201//417
f 190//418 202//418 201//418
f 190//419 191//419 203//419
f 191//420 192//420 204//420
f 192//421 181//421 193//421
f 1//193 12//193 11//193
f 11//193 10//193 9//193
f 9//193 8//193 7//193
f 7//193 6//193 5//193
f 5//193 4//193 3//193
f 3//193 2//193 1//193
f 1//193 11//193 9//193
f 9//193 7//193 5//193
f 5//193 3//193 1//193
f 204//194 193//194 194//194
f 194//194 195//194 196//194
f 196//194 197//194 198//194
f 198//194 199//194 200//194
f 200//194 201//194 202//194
f 202//194 203//194 204//194
f 204//194 194//194 196//194
f 196//194 198//194 200//194
f 200//194 202//194 204//194
f 206//195 210//195 209//195
f 208//196 212//196 211//196
f 207//197 211//197 209//197
f 208//198 212//198 210//198
f 209//199 210//199 214//199
f 212//196 216//196 215//196
f 211//197 215//197 213//197
f 212//198 216//198 214//198
f 213//200 214//200 218//200
f 216//196 220//196 219//196
f 215//197 219//197 217//197
f 216//198 220//198 218//198
f 217//201 218//201 222//201
f 220//196 224//196 223//196
f 219//197 223//197 221//197
f 220//198 224//198 222//198
f 221//202 222//202 226//202
f 224//196 228//196 227//196
f 223//197 227//197 225//197
f 224//198 228//198 226//198
f 225//203 226//203 230//203
f 228//196 232//196 231//196
f 227//197 231//197 229//197
f 228//198 232//198 230//198
f 206//193 208//193 207//193
f 234//204 238//204 237//204
f 236//205 240//205 239//205
f 235//206 239//206 237//206
f 236//207 240//207 238//207
f 237//208 238//208 242//208
f 240//205 244//205 243//205
f 239//206 243//206 241//206
f 240//207 244//207 242//207
f 241//209 242//209 246//209
f 244//205 248//205 247//205
f 243//206 247//206 245//206
f 244//207 248//207 246//207
f 245//210 246//210 250//210
f 248//205 252//205 251//205
f 247//206 251//206 249//206
f 248//207 252//207 250//207
f 249//211 250//211 254//211
f 252//205 256//205 255//205
f 251//206 255//206 253//206
f 252//207 256//207 254//207
f 253//212 254//212 258//212
f 256//205 260//205 259//205
f 255//206 259//206 257//206
f 256//207 260//207 258//207
f 234//193 236//193 235//193
f 262//213 266//213 265//213
f 264//214 268//214 267//214
f 263//215 267//215 265//215
f 264//216 268//216 266//216
f 265//217 266//217 270//217
f 268//214 272//214 271//214
f 267//215 271//215 269//215
f 268//216 272//216 270//216
f 269//218 270//218 274//218
f 272//214 276//214 275//214
f 271//215 275//215 273//215
f 272//216 276//216 274//216
f 273//219 274//219 278//219
f 276//214 280//214 279//214
f 275//215 279//215 277//215
f 276//216 280//216 278//216
f 277//220 278//220 282//220
f 280//214 284//214 283//214
f 279//215 283//215 281//215
f 280//216 284//216 282//216
f 281//221 282//221 286//221
f 284//214 288//214 287//214
f 283//215 287//215 285//215
f 284//216 288//216 286//216
f 262//193 264//193 263//193
f 290//222 294//222 293//222
f 292//223 296//223 295//223
f 291//224 295//224 293//224
f 292//225 296//225 294//225
f 293//226 294//226 298//226
f 296//223 300//223 299//223
f 295//224 299//224 297//224
f 296//225 300//225 298//225
f 297//227 298//227 302//227
f 300//223 304//223 303//223
f 299//224 303//224 301//224
f 300//225 304//225 302//225
f 301//228 302//228 306//228
f 304//223 308//223 307//223
f 303//224 307//224 305//224
f 304//225 308//225 306//225
f 305//229 306//229 310//229
f 308//223 312//223 311//223
f 307//224 311//224 309//224
f 308//225 312//225 310//225
f 309//230 310//230 314//230
f 312//223 316//223 315//223
f 311//224 315//224 313//224
f 312//225 316//225 314//225
f 290//193 292//193 291//193
