# Blender 5.2.1 LTS
# www.blender.org
o RuinColumn
v 0.418226 -0.139681 0.428571
v 0.133983 -0.418508 0.428571
v -0.135055 -0.417055 0.428571
v -0.415940 -0.138436 0.428571
v -0.416532 0.131777 0.428571
v -0.136808 0.415606 0.428571
v 0.135586 0.416594 0.428571
v 0.376652 0.271020 0.428571
v 0.415527 0.131952 0.428571
v 0.413470 -0.138134 0.357143
v 0.132942 -0.415302 0.357143
v -0.134546 -0.415489 0.357143
v -0.412411 -0.137288 0.357143
v -0.412101 0.130336 0.357143
v -0.275707 0.375309 0.357143
v -0.135037 0.410149 0.357143
v 0.134730 0.413957 0.357143
v 0.374107 0.269170 0.357143
v 0.415193 0.131844 0.357143
v 0.406150 -0.135754 0.285714
v 0.131557 -0.411036 0.285714
v -0.134196 -0.414410 0.285714
v -0.409778 -0.136432 0.285714
v -0.408824 0.129271 0.285714
v -0.133524 0.405491 0.285714
v 0.133048 0.408777 0.285714
v 0.410494 0.130316 0.285714
v 0.400183 -0.133814 0.214286
v 0.130007 -0.406262 0.214286
v -0.133011 -0.410760 0.214286
v -0.407431 -0.135669 0.214286
v -0.406209 0.128420 0.214286
v -0.131542 0.399383 0.214286
v 0.130809 0.401880 0.214286
v 0.406369 0.128974 0.214286
v 0.395814 -0.132393 0.142857
v 0.129213 -0.403815 0.142857
v -0.132204 -0.408273 0.142857
v -0.404086 -0.134581 0.142857
v -0.402785 0.127307 0.142857
v -0.130099 0.394938 0.142857
v 0.129035 0.396416 0.142857
v 0.402253 0.127635 0.142857
v 0.393665 -0.131694 0.071429
v 0.129153 -0.403630 0.071429
v -0.131651 -0.406570 0.071429
v -0.399589 -0.133119 0.071429
v -0.398290 0.125845 0.071429
v -0.129048 0.391702 0.071429
v 0.127958 0.393096 0.071429
v 0.399574 0.126764 0.071429
v 0.393108 -0.131513 0.000000
v 0.260820 -0.363779 0.000000
v 0.128893 -0.402828 0.000000
v -0.130419 -0.402776 0.000000
v -0.395056 -0.131645 0.000000
v -0.393804 0.124386 -0.000000
v -0.127538 0.387050 -0.000000
v 0.126947 0.389982 -0.000000
v 0.399271 0.126666 -0.000000
v 0.389182 -0.130236 -0.071429
v 0.258563 -0.360671 -0.071429
v 0.127988 -0.400041 -0.071429
v -0.129579 -0.400189 -0.071429
v -0.391393 -0.130453 -0.071429
v -0.390037 0.123161 -0.071429
v -0.126365 0.383439 -0.071429
v 0.125701 0.386145 -0.071429
v 0.395576 0.125464 -0.071429
v 0.382608 -0.128098 -0.142857
v 0.126205 -0.394550 -0.142857
v -0.128624 -0.397248 -0.142857
v -0.388791 -0.129607 -0.142857
v -0.387198 0.122238 -0.142857
v -0.125105 0.379556 -0.142857
v 0.124092 0.381189 -0.142857
v 0.389919 0.123625 -0.142857
v 0.120585 -0.377239 -0.214286
v -0.372139 -0.124192 -0.214286
v -0.372720 0.117530 -0.214286
v 0.118547 0.364110 -0.214286
v 0.254987 -0.189402 -0.285714
v 0.102036 -0.320103 -0.285714
v -0.084799 -0.262253 -0.285714
v -0.164658 -0.229186 -0.285714
v -0.241103 -0.178184 -0.285714
v -0.298358 -0.100199 -0.285714
v -0.310754 0.097379 -0.285714
v -0.249934 0.177754 -0.285714
v -0.160530 0.216649 -0.285714
v 0.098020 0.300882 -0.285714
v 0.266414 0.083462 -0.285714
v -0.049959 -0.154937 -0.357143
v -0.249091 0.077326 -0.357143
v -0.053699 -0.041912 -0.428571
v -0.152933 -0.052908 -0.428571
v 0.075880 0.021501 -0.428571
v 0.499896 -0.001462 0.498748
v 0.498513 -0.003497 0.500000
v 0.500000 -0.005453 0.498748
v 0.419106 -0.139828 0.500000
v 0.421265 -0.140669 0.498748
v 0.387648 -0.286250 0.500000
v 0.388013 -0.288994 0.498749
v 0.390173 -0.285051 0.498749
v 0.281305 -0.391390 0.500000
v 0.280074 -0.393908 0.498748
v 0.284046 -0.391828 0.498748
v 0.134007 -0.418927 0.500000
v 0.134828 -0.421111 0.498747
v -0.000753 -0.498592 0.500000
v -0.002779 -0.499972 0.498749
v 0.001252 -0.500000 0.498749
v -0.134797 -0.416831 0.500000
v -0.135685 -0.418995 0.498747
v -0.277081 -0.383541 0.500000
v -0.279897 -0.383987 0.498747
v -0.275947 -0.386170 0.498747
v -0.381304 -0.280451 0.500000
v -0.383968 -0.279371 0.498747
v -0.381714 -0.283292 0.498747
v -0.417867 -0.138860 0.500000
v -0.419980 -0.139750 0.498748
v -0.498557 -0.003411 0.500000
v -0.500000 -0.001395 0.498748
v -0.499979 -0.005444 0.498748
v -0.419478 0.132584 0.500000
v -0.421594 0.133423 0.498748
v -0.386662 0.277573 0.500000
v -0.387138 0.280394 0.498747
v -0.389288 0.276421 0.498747
v -0.282887 0.384740 0.500000
v -0.281737 0.387302 0.498749
v -0.285650 0.385074 0.498749
v -0.137822 0.419224 0.500000
v -0.138665 0.421325 0.498748
v -0.000806 0.498535 0.500000
v 0.001232 0.499950 0.498748
v -0.002807 0.500000 0.498748
v 0.134957 0.415307 0.500000
v 0.135873 0.417477 0.498747
v 0.277254 0.379155 0.500000
v 0.280050 0.379492 0.498748
v 0.276158 0.381768 0.498748
v 0.378551 0.272807 0.500000
v 0.380622 0.273907 0.498748
v 0.410997 0.130259 0.500000
v 0.413230 0.131205 0.498747
v 0.495136 -0.005462 0.428571
v 0.495100 -0.001411 0.428571
v 0.381719 -0.284423 0.428571
v 0.383923 -0.280475 0.428571
v 0.276517 -0.389040 0.428571
v 0.280461 -0.386897 0.428571
v -0.002813 -0.492659 0.428571
v 0.001281 -0.492679 0.428571
v -0.278312 -0.381801 0.428571
v -0.274356 -0.383985 0.428571
v -0.382247 -0.278137 0.428571
v -0.380023 -0.282060 0.428571
v -0.494551 -0.001399 0.428571
v -0.494543 -0.005448 0.428571
v -0.385226 0.278988 0.428571
v -0.387380 0.275060 0.428571
v -0.281437 0.379250 0.428571
v -0.277472 0.381433 0.428571
v -0.279679 0.380782 0.427320
v 0.001257 0.495149 0.428571
v -0.002795 0.495135 0.428571
v 0.277092 0.375417 0.428571
v 0.273215 0.377752 0.428571
v 0.490895 -0.005452 0.357143
v 0.490918 -0.001386 0.357143
v 0.378163 -0.276274 0.357143
v 0.375955 -0.280237 0.357143
v 0.377500 -0.278488 0.355891
v 0.273413 -0.384781 0.357143
v 0.277331 -0.382594 0.357143
v -0.002831 -0.488149 0.357143
v 0.001286 -0.488147 0.357143
v -0.276986 -0.379975 0.357143
v -0.273036 -0.382171 0.357143
v -0.380070 -0.276563 0.357143
v -0.377869 -0.280495 0.357143
v -0.489809 -0.001402 0.357143
v -0.489813 -0.005452 0.357143
v -0.381497 0.276269 0.357143
v -0.383669 0.272365 0.357143
v 0.001271 0.489910 0.357143
v -0.002787 0.489857 0.357143
v 0.274834 0.372303 0.357143
v 0.270952 0.374643 0.357143
v 0.487944 -0.005413 0.285714
v 0.488001 -0.001403 0.285714
v 0.371264 -0.276832 0.285714
v 0.373411 -0.272836 0.285714
v 0.372949 -0.275179 0.286966
v 0.271262 -0.381805 0.285714
v 0.275158 -0.379612 0.285714
v -0.002825 -0.487967 0.285714
v 0.001255 -0.487921 0.285714
v -0.275926 -0.378524 0.285714
v -0.272001 -0.380751 0.285714
v -0.376982 -0.274312 0.285714
v -0.374793 -0.278265 0.285714
v -0.486284 -0.001404 0.285714
v -0.486297 -0.005455 0.285714
v -0.375021 0.271566 0.285714
v -0.377234 0.267654 0.285714
v -0.269884 0.370996 0.285714
v -0.273848 0.368795 0.285714
v -0.272220 0.370506 0.286966
v 0.001268 0.484350 0.285714
v -0.002789 0.484304 0.285714
v 0.273624 0.370630 0.285714
v 0.269711 0.372901 0.285714
v 0.374140 0.266478 0.285714
v 0.371890 0.270427 0.285714
v 0.373543 0.268760 0.286967
v 0.485112 -0.005383 0.214286
v 0.485192 -0.001417 0.214286
v 0.367884 -0.274368 0.214286
v 0.370019 -0.270389 0.214286
v 0.267428 -0.376534 0.214286
v 0.271348 -0.374351 0.214286
v -0.002814 -0.485494 0.214286
v 0.001234 -0.485433 0.214286
v -0.274529 -0.376611 0.214286
v -0.270624 -0.378835 0.214286
v -0.371136 -0.275612 0.214286
v -0.373328 -0.271641 0.214286
v -0.372724 -0.273893 0.213033
v -0.481664 -0.001393 0.214286
v -0.481681 -0.005468 0.214286
v -0.369919 0.267861 0.214286
v -0.372167 0.263945 0.214286
v -0.266922 0.366898 0.214286
v -0.270880 0.364711 0.214286
v 0.001242 0.480219 0.214286
v -0.002769 0.480183 0.214286
v 0.272399 0.368938 0.214286
v 0.268454 0.371113 0.214286
v 0.373207 0.265823 0.214286
v 0.370998 0.269775 0.214286
v 0.479743 -0.005384 0.142857
v 0.479828 -0.001414 0.142857
v 0.364713 -0.272059 0.142857
v 0.366842 -0.268087 0.142857
v 0.264594 -0.372651 0.142857
v 0.268518 -0.370448 0.142857
v -0.002803 -0.484528 0.142857
v 0.001223 -0.484469 0.142857
v -0.273312 -0.374935 0.142857
v -0.269407 -0.377152 0.142857
v -0.371426 -0.270267 0.142857
v -0.369259 -0.274248 0.142857
v -0.370910 -0.272574 0.144110
v -0.478242 -0.001396 0.142857
v -0.478261 -0.005466 0.142857
v -0.365574 0.264707 0.142857
v -0.367825 0.260778 0.142857
v -0.264772 0.363922 0.142857
v -0.268715 0.361736 0.142857
v 0.001241 0.474138 0.142857
v -0.002776 0.474115 0.142857
v 0.271140 0.367196 0.142857
v 0.267160 0.369291 0.142857
v 0.372874 0.265612 0.142857
v 0.370708 0.269559 0.142857
v 0.471859 -0.005421 0.071429
v 0.471941 -0.001382 0.071429
v 0.361360 -0.269622 0.071429
v 0.363512 -0.265652 0.071429
v 0.266242 -0.367315 0.071429
v 0.262335 -0.369576 0.071429
v 0.264540 -0.368904 0.070177
v -0.002801 -0.483285 0.071429
v 0.001233 -0.483246 0.071429
v -0.272100 -0.373256 0.071429
v -0.268173 -0.375454 0.071429
v -0.371235 -0.270165 0.071429
v -0.369119 -0.274140 0.071429
v -0.475405 -0.001412 0.071429
v -0.475423 -0.005450 0.071429
v -0.362806 0.262697 0.071429
v -0.365025 0.258753 0.071429
v -0.263137 0.361661 0.071429
v -0.267076 0.359480 0.071429
v 0.001268 0.466593 0.071429
v -0.002806 0.466569 0.071429
v 0.269454 0.364865 0.071429
v 0.265445 0.366921 0.071429
v 0.372297 0.265209 0.071429
v 0.370140 0.269139 0.071429
v 0.464330 -0.005470 0.000000
v 0.464420 -0.001334 -0.000000
v 0.358131 -0.267266 0.000000
v 0.360362 -0.263337 0.000000
v -0.002812 -0.477859 0.000000
v 0.001268 -0.477860 0.000000
v -0.270324 -0.370801 0.000000
v -0.266368 -0.372955 0.000000
v -0.370432 -0.269615 0.000000
v -0.368355 -0.273578 0.000000
v -0.470960 -0.001416 -0.000000
v -0.470978 -0.005446 0.000000
v -0.361995 0.262100 -0.000000
v -0.364175 0.258166 -0.000000
v -0.261324 0.359140 -0.000000
v -0.265294 0.357018 -0.000000
v 0.001287 0.460792 -0.000000
v -0.002813 0.460745 -0.000000
v 0.267084 0.361595 -0.000000
v 0.263060 0.363644 -0.000000
v 0.370017 0.263529 -0.000000
v 0.367809 0.267439 -0.000000
v 0.459304 -0.005473 -0.071429
v 0.459399 -0.001328 -0.071429
v 0.354593 -0.264695 -0.071429
v 0.356817 -0.260759 -0.071429
v -0.002814 -0.475292 -0.071429
v 0.001268 -0.475291 -0.071429
v -0.268487 -0.368269 -0.071429
v -0.264529 -0.370424 -0.071429
v -0.368003 -0.267858 -0.071429
v -0.365942 -0.271823 -0.071429
v -0.467266 -0.001419 -0.071429
v -0.467285 -0.005444 -0.071429
v -0.358185 0.259332 -0.071429
v -0.360365 0.255392 -0.071429
v -0.258951 0.355870 -0.071429
v -0.262914 0.353741 -0.071429
v 0.001298 0.455342 -0.071429
v -0.002829 0.455297 -0.071429
v 0.265112 0.358876 -0.071429
v 0.261073 0.360899 -0.071429
v 0.367977 0.262055 -0.071429
v 0.365784 0.265963 -0.071429
v 0.457352 -0.005432 -0.142857
v 0.457457 -0.001359 -0.142857
v 0.350891 -0.262008 -0.142857
v 0.353056 -0.258046 -0.142857
v 0.254320 -0.358601 -0.142857
v 0.258243 -0.356287 -0.142857
v 0.256631 -0.358010 -0.141605
v -0.002815 -0.472898 -0.142857
v 0.001246 -0.472862 -0.142857
v -0.266285 -0.365245 -0.142857
v -0.262353 -0.367430 -0.142857
v -0.363345 -0.264448 -0.142857
v -0.361266 -0.268430 -0.142857
v -0.463136 -0.001409 -0.142857
v -0.463159 -0.005455 -0.142857
v -0.354664 0.251217 -0.142857
v -0.352446 0.255165 -0.142857
v -0.353738 0.253236 -0.144088
v -0.255833 0.351584 -0.142857
v -0.259772 0.349421 -0.142857
v 0.001289 0.451593 -0.142857
v -0.002832 0.451561 -0.142857
v 0.263222 0.356272 -0.142857
v 0.259173 0.358258 -0.142857
v 0.365258 0.260098 -0.142857
v 0.363112 0.264021 -0.142857
v 0.429047 -0.001348 -0.213055
v 0.428866 -0.005399 -0.213053
v 0.426398 -0.005570 -0.215221
v 0.426666 -0.001219 -0.215199
v 0.353329 -0.118577 -0.215233
v 0.355315 -0.119223 -0.213060
v 0.354455 -0.121382 -0.214286
v 0.334089 -0.244325 -0.214286
v 0.332130 -0.248380 -0.214286
v 0.332589 -0.245831 -0.215299
v 0.243717 -0.343983 -0.214286
v 0.247579 -0.341626 -0.214286
v -0.002776 -0.447990 -0.214286
v 0.001285 -0.448084 -0.214286
v -0.120248 -0.371447 -0.213059
v -0.119638 -0.369568 -0.215224
v -0.118141 -0.372283 -0.214286
v -0.247929 -0.339952 -0.213066
v -0.244937 -0.339774 -0.215176
v -0.243988 -0.342153 -0.213062
v -0.338268 -0.246215 -0.215103
v -0.337062 -0.250826 -0.213063
v -0.445158 -0.001400 -0.214286
v -0.445149 -0.005446 -0.214286
v -0.333990 0.238876 -0.213054
v -0.332445 0.237753 -0.215303
v -0.334358 0.236387 -0.214286
v -0.237317 0.326073 -0.213062
v -0.238293 0.323770 -0.215191
v -0.241340 0.324003 -0.213067
v -0.115394 0.349645 -0.215189
v -0.116036 0.351622 -0.213063
v -0.113937 0.352450 -0.214286
v 0.001322 0.427973 -0.214286
v -0.002765 0.427763 -0.214286
v 0.253822 0.343341 -0.214286
v 0.249817 0.345329 -0.214286
v 0.348135 0.247690 -0.214286
v 0.346138 0.251698 -0.214286
v 0.367061 0.116191 -0.213053
v 0.365271 0.115609 -0.215275
v 0.366333 0.118384 -0.214286
v 0.287170 -0.001112 -0.285714
v 0.286449 -0.005599 -0.285714
v 0.286035 -0.003426 -0.286575
v 0.241377 -0.084315 -0.285714
v 0.242296 -0.080038 -0.285714
v 0.242573 -0.082560 -0.284781
v 0.205732 -0.291663 -0.285714
v 0.209019 -0.288864 -0.285714
v -0.002486 -0.351464 -0.285714
v 0.001447 -0.352604 -0.285714
v -0.380224 -0.001468 -0.285714
v -0.380025 -0.005256 -0.285714
v -0.076101 0.235008 -0.285714
v -0.079942 0.232877 -0.285714
v -0.078129 0.234857 -0.284795
v 0.001487 0.316389 -0.285714
v -0.002510 0.314866 -0.285714
v 0.217203 0.293031 -0.285714
v 0.213449 0.295075 -0.285714
v 0.281597 0.199680 -0.285714
v 0.280560 0.204041 -0.285714
v 0.145612 -0.001468 -0.358096
v 0.147120 -0.005648 -0.356183
v 0.133298 -0.048814 -0.357143
v 0.132894 -0.044426 -0.357143
v 0.177667 -0.135757 -0.357143
v 0.176567 -0.130892 -0.357143
v 0.178940 -0.134104 -0.356123
v 0.168165 -0.239947 -0.357143
v 0.170599 -0.236783 -0.357143
v 0.081965 -0.265308 -0.357143
v 0.086568 -0.264866 -0.357143
v 0.084612 -0.266430 -0.355991
v -0.001943 -0.254390 -0.357143
v 0.001521 -0.257051 -0.357143
v -0.086680 -0.118456 -0.357143
v -0.082877 -0.120484 -0.357143
v -0.085492 -0.120132 -0.356266
v -0.148111 -0.110564 -0.356140
v -0.145472 -0.108646 -0.358151
v -0.144467 -0.109943 -0.357143
v -0.223756 -0.075939 -0.358317
v -0.226144 -0.076715 -0.355971
v -0.226784 -0.074875 -0.357143
v -0.316123 -0.001583 -0.357143
v -0.315749 -0.004950 -0.357143
v -0.166124 0.118495 -0.358322
v -0.172979 0.119460 -0.355523
v -0.084884 0.109577 -0.358165
v -0.082239 0.112493 -0.356321
v -0.039218 0.120344 -0.357143
v -0.042547 0.117711 -0.357143
v 0.001390 0.208594 -0.356145
v 0.001449 0.205557 -0.358152
v -0.001915 0.203560 -0.357143
v 0.075850 0.238531 -0.358324
v 0.080995 0.241544 -0.355775
v 0.180382 0.242653 -0.357143
v 0.177074 0.244775 -0.357143
v 0.215070 0.151935 -0.357143
v 0.215250 0.156488 -0.357143
v 0.171591 0.052626 -0.356055
v 0.168682 0.051680 -0.358237
v 0.171088 0.054288 -0.357143
v 0.025238 -0.005654 -0.427615
v 0.023545 -0.005565 -0.429824
v 0.024920 -0.002330 -0.428571
v 0.028581 -0.014064 -0.428571
v 0.025416 -0.010112 -0.429822
v 0.027089 -0.010463 -0.427504
v 0.101108 -0.077200 -0.428571
v 0.103937 -0.081592 -0.428571
v 0.102201 -0.078303 -0.429614
v 0.130327 -0.187885 -0.428571
v 0.131864 -0.184590 -0.428571
v 0.064860 -0.210154 -0.428571
v 0.069025 -0.210832 -0.428571
v -0.001128 -0.157357 -0.428571
v 0.001189 -0.161643 -0.428571
v -0.015708 -0.049435 -0.427360
v -0.014991 -0.047224 -0.429822
v -0.014821 -0.049942 -0.428571
v -0.017503 -0.024413 -0.428571
v -0.015171 -0.025618 -0.429824
v -0.016267 -0.027559 -0.427460
v -0.252378 -0.001751 -0.428571
v -0.251901 -0.004531 -0.428571
v -0.186436 0.057930 -0.428571
v -0.190717 0.056138 -0.428571
v -0.189925 0.058086 -0.427439
v -0.095585 0.063456 -0.428571
v -0.090569 0.062023 -0.428571
v -0.091878 0.062823 -0.429597
v -0.008120 0.010679 -0.427662
v -0.007184 0.009381 -0.429824
v -0.011103 0.009254 -0.428571
v -0.005284 0.013581 -0.428571
v -0.007193 0.009391 -0.429824
v -0.007725 0.010788 -0.427580
v -0.000927 0.095760 -0.428571
v 0.000832 0.100893 -0.428571
v -0.000772 0.097489 -0.429645
v 0.061248 0.180772 -0.428571
v 0.057375 0.178277 -0.428571
v 0.143798 0.192986 -0.428571
v 0.141193 0.195018 -0.428571
v 0.149127 0.104846 -0.428571
v 0.150699 0.109285 -0.428571
v 0.023024 -0.000850 -0.498714
v 0.020962 -0.004756 -0.498747
v 0.020616 -0.002150 -0.500000
v 0.017256 -0.010701 -0.498763
v 0.011802 -0.008225 -0.500000
v 0.017441 -0.007387 -0.498750
v 0.029365 -0.028110 -0.500000
v 0.032504 -0.027622 -0.498775
v 0.095542 -0.139993 -0.498852
v 0.093753 -0.137175 -0.500000
v 0.096462 -0.136953 -0.498734
v 0.048418 -0.156639 -0.498752
v 0.050387 -0.154950 -0.500000
v 0.051830 -0.157878 -0.498845
v -0.001207 -0.069453 -0.498761
v 0.001477 -0.069882 -0.500000
v 0.000550 -0.074463 -0.498812
v -0.005746 -0.023885 -0.500000
v -0.008015 -0.025736 -0.498758
v -0.015639 -0.019741 -0.498729
v -0.012486 -0.019944 -0.500000
v -0.012061 -0.022949 -0.498741
v -0.017369 -0.013582 -0.500000
v -0.018923 -0.016624 -0.498791
v -0.082973 -0.027760 -0.500000
v -0.084194 -0.030554 -0.498783
v -0.192583 -0.002033 -0.498786
v -0.187901 -0.002392 -0.500000
v -0.192197 -0.004025 -0.498741
v -0.129548 0.038595 -0.498783
v -0.130621 0.036397 -0.500000
v -0.134013 0.037891 -0.498821
v -0.017382 0.006108 -0.500000
v -0.018381 0.009379 -0.498821
v -0.008116 0.010580 -0.498747
v -0.008551 0.006530 -0.500000
v -0.012250 0.008683 -0.498714
v -0.004198 0.014800 -0.498713
v -0.004372 0.011354 -0.500000
v -0.007613 0.011145 -0.498747
v 0.001230 0.016970 -0.500000
v -0.000772 0.019619 -0.498814
v 0.041630 0.121166 -0.498823
v 0.040862 0.117438 -0.500000
v 0.038431 0.117849 -0.498784
v 0.109392 0.146673 -0.498764
v 0.106045 0.144400 -0.500000
v 0.107673 0.148176 -0.498778
v 0.087846 0.060713 -0.498784
v 0.086715 0.062996 -0.500000
v 0.090428 0.064932 -0.498826
v 0.021007 0.005514 -0.500000
v 0.024181 0.004689 -0.498799
vn 0.9623 0.2690 -0.0413
vn 0.2835 -0.9576 -0.0506
vn 0.6571 0.0171 0.7536
vn 0.5322 -0.2915 0.7948
vn 0.2793 -0.5336 0.7983
vn -0.0047 -0.6679 0.7442
vn -0.2813 -0.5089 0.8135
vn -0.5005 -0.2877 0.8165
vn -0.6582 -0.0035 0.7528
vn -0.5098 0.2758 0.8149
vn -0.2980 0.5236 0.7982
vn 0.0081 0.6560 0.7547
vn 0.2991 0.5115 0.8055
vn -0.4485 0.8147 0.3674
vn 0.8116 -0.4524 0.3696
vn 0.7685 -0.4129 -0.4888
vn -0.4227 0.7617 -0.4910
vn 0.7811 0.4450 -0.4381
vn -0.7993 -0.4412 0.4079
vn -0.7797 -0.4246 -0.4603
vn 0.4622 -0.7987 0.3854
vn 0.4487 -0.7608 -0.4689
vn -0.8625 0.4846 0.1457
vn 0.6680 -0.0302 -0.7436
vn 0.7473 0.0770 -0.6600
vn 0.7422 -0.3586 -0.5661
vn -0.5737 -0.5316 -0.6230
vn -0.3870 -0.6941 -0.6071
vn -0.6401 0.4147 -0.6467
vn -0.3649 0.7106 -0.6015
vn -0.5745 0.5058 -0.6435
vn 0.7866 -0.0828 -0.6119
vn 0.7428 -0.1194 -0.6587
vn 0.7419 -0.1594 -0.6513
vn -0.3558 0.6413 -0.6798
vn 0.5228 0.1181 -0.8442
vn 0.0615 -0.6405 -0.7655
vn -0.3246 -0.6090 -0.7237
vn -0.0945 -0.6555 -0.7492
vn -0.4637 -0.5847 -0.6656
vn -0.4981 0.4712 -0.7279
vn 0.6325 -0.2809 -0.7218
vn 0.7879 -0.0995 -0.6078
vn 0.7539 0.4533 -0.4756
vn 0.8032 0.5175 0.2952
vn -0.8267 -0.2772 -0.4897
vn -0.5932 -0.4651 -0.6571
vn -0.2336 0.5579 -0.7964
vn 0.2551 0.8928 0.3712
vn -0.2073 0.7967 -0.5676
vn -0.7395 0.4785 -0.4735
vn -0.8828 0.3026 0.3592
vn 0.5688 -0.2937 -0.7682
vn 0.2176 -0.0084 -0.9760
vn 0.4277 -0.0946 -0.8989
vn -0.1830 -0.4374 -0.8805
vn -0.4337 -0.1431 -0.8896
vn -0.3643 -0.4034 -0.8394
vn -0.2555 -0.0714 -0.9642
vn -0.0732 0.5101 -0.8570
vn -0.1484 0.3067 -0.9402
vn -0.3579 0.3425 -0.8687
vn -0.3715 0.3482 -0.8606
vn 0.2016 0.2217 -0.9540
vn 0.4120 -0.2610 -0.8730
vn 0.9976 0.0088 -0.0682
vn 0.4175 -0.2431 0.8756
vn 0.4695 -0.1011 0.8771
vn 0.8717 -0.4777 -0.1093
vn 0.3465 -0.3505 0.8701
vn 0.4621 -0.8827 -0.0856
vn 0.0894 -0.4782 0.8737
vn 0.2434 -0.4121 0.8780
vn -0.0069 -0.9946 -0.1038
vn -0.2545 -0.4173 0.8724
vn -0.1086 -0.4642 0.8790
vn -0.4834 -0.8746 -0.0382
vn -0.3366 -0.3404 0.8780
vn -0.8666 -0.4982 -0.0296
vn -0.4616 -0.1192 0.8790
vn -0.4149 -0.2471 0.8757
vn -0.9970 -0.0052 -0.0774
vn -0.4188 0.2436 0.8748
vn -0.4743 0.1072 0.8738
vn -0.8791 0.4755 -0.0335
vn -0.3428 0.3323 0.8787
vn -0.4921 0.8646 -0.1013
vn -0.1133 0.4766 0.8718
vn -0.2444 0.4220 0.8731
vn 0.0123 0.9975 -0.0692
vn 0.2523 0.4116 0.8758
vn 0.1168 0.4590 0.8807
vn 0.5035 0.8610 -0.0712
vn 0.3513 0.3346 0.8744
vn 0.4717 0.1078 0.8751
vn 0.3891 0.2542 0.8855
vn 0.9983 -0.0057 -0.0584
vn 0.8689 -0.4850 -0.0985
vn 0.4761 -0.8763 -0.0736
vn -0.0049 -0.9980 -0.0633
vn -0.4830 -0.8750 -0.0313
vn -0.8693 -0.4929 -0.0370
vn -0.9978 -0.0019 -0.0662
vn -0.8750 0.4799 -0.0639
vn -0.0035 0.9973 -0.0732
vn 0.5151 0.8554 -0.0536
vn 0.9990 -0.0143 -0.0413
vn 0.4867 -0.8721 -0.0512
vn 0.0006 -1.0000 -0.0032
vn -0.4856 -0.8738 -0.0250
vn -0.8714 -0.4877 -0.0528
vn -0.9988 0.0010 -0.0492
vn -0.8684 0.4833 -0.1106
vn -0.0128 0.9969 -0.0776
vn 0.5162 0.8560 -0.0288
vn 0.9990 -0.0203 -0.0396
vn 0.8794 -0.4725 -0.0579
vn 0.4885 -0.8679 -0.0900
vn 0.0112 -0.9993 -0.0346
vn -0.4931 -0.8693 -0.0329
vn -0.8730 -0.4836 -0.0627
vn -0.9979 0.0032 -0.0645
vn -0.8671 0.4905 -0.0874
vn -0.4841 0.8722 -0.0700
vn -0.0113 0.9983 -0.0577
vn 0.5017 0.8646 -0.0291
vn 0.8688 0.4949 -0.0154
vn 0.9970 -0.0213 -0.0749
vn 0.8798 -0.4722 -0.0543
vn 0.4854 -0.8717 -0.0669
vn 0.0150 -0.9998 -0.0135
vn -0.4948 -0.8685 -0.0288
vn -0.9988 0.0041 -0.0478
vn -0.8648 0.4966 -0.0745
vn -0.4830 0.8741 -0.0510
vn -0.0088 0.9964 -0.0848
vn 0.4826 0.8753 -0.0299
vn 0.8729 0.4879 -0.0050
vn 0.9938 -0.0201 -0.1097
vn 0.8799 -0.4717 -0.0574
vn 0.4888 -0.8707 -0.0538
vn 0.0148 -0.9997 -0.0174
vn -0.4935 -0.8693 -0.0288
vn -0.8782 -0.4782 -0.0024
vn -0.9992 0.0044 -0.0397
vn -0.8667 0.4966 -0.0476
vn -0.4846 0.8739 -0.0387
vn -0.0056 0.9945 -0.1051
vn 0.4654 0.8842 -0.0398
vn 0.8766 0.4811 -0.0098
vn 0.9943 -0.0217 -0.1048
vn 0.8778 -0.4757 -0.0554
vn 0.0097 -0.9971 -0.0757
vn -0.4878 -0.8719 -0.0421
vn -0.8826 -0.4699 -0.0131
vn -0.9981 0.0044 -0.0621
vn -0.8714 0.4903 -0.0140
vn -0.4839 0.8741 -0.0422
vn -0.0056 0.9967 -0.0809
vn 0.4556 0.8885 -0.0558
vn 0.8760 0.4807 -0.0400
vn 0.9973 -0.0228 -0.0702
vn 0.8680 -0.4928 -0.0607
vn -0.0003 -0.9994 -0.0359
vn -0.4777 -0.8774 -0.0434
vn -0.8849 -0.4640 -0.0413
vn -0.9987 0.0043 -0.0516
vn -0.8727 0.4839 -0.0653
vn -0.4706 0.8805 -0.0561
vn -0.0113 0.9970 -0.0761
vn 0.4533 0.8902 -0.0464
vn 0.8703 0.4913 -0.0348
vn 0.9993 -0.0260 -0.0273
vn 0.8689 -0.4909 -0.0635
vn 0.0003 -0.9994 -0.0335
vn -0.4776 -0.8771 -0.0519
vn -0.8844 -0.4598 -0.0797
vn -0.9983 0.0047 -0.0577
vn -0.8708 0.4817 -0.0981
vn -0.4719 0.8786 -0.0739
vn -0.0111 0.9986 -0.0524
vn 0.4473 0.8933 -0.0444
vn 0.8712 0.4888 -0.0459
vn 0.9258 -0.0415 -0.3757
vn 0.6154 -0.3978 -0.6804
vn 0.8353 -0.4564 -0.3065
vn 0.4925 -0.8351 -0.2449
vn 0.0084 -0.9447 -0.3277
vn -0.4442 -0.7996 -0.4042
vn -0.1646 -0.6912 -0.7037
vn -0.8169 -0.4263 -0.3885
vn -0.4588 -0.4571 -0.7620
vn -0.9696 0.0054 -0.2445
vn -0.4400 0.8012 -0.4056
vn -0.4652 0.5101 -0.7234
vn -0.1478 0.7018 -0.6969
vn -0.0074 0.9494 -0.3140
vn 0.4301 0.8767 -0.2153
vn 0.8424 0.4607 -0.2797
vn 0.6399 0.3375 -0.6904
vn 0.4487 -0.0721 -0.8908
vn 0.3850 -0.6308 -0.6737
vn -0.0139 -0.5990 -0.8007
vn -0.7399 -0.0015 -0.6727
vn -0.0277 0.5389 -0.8419
vn 0.3372 0.6795 -0.6515
vn 0.5963 0.2972 -0.7457
vn 0.5220 -0.1122 -0.8456
vn 0.4838 -0.5681 -0.6657
vn -0.1710 -0.5898 -0.7892
vn -0.3255 -0.7476 -0.5789
vn -0.7437 -0.0390 -0.6674
vn 0.0562 0.4965 -0.8662
vn -0.2510 0.4524 -0.8558
vn -0.2041 0.5356 -0.8194
vn -0.3627 0.8797 -0.3077
vn 0.3616 0.6638 -0.6546
vn 0.6731 0.1601 -0.7220
vn 0.4966 -0.2067 -0.8430
vn 0.4955 -0.1962 -0.8462
vn 0.5746 0.0529 -0.8167
vn 0.7955 0.2939 -0.5298
vn 0.7470 0.1688 -0.6430
vn 0.5998 -0.4612 -0.6539
vn 0.0755 -0.7862 -0.6133
vn -0.4188 -0.5452 -0.7262
vn -0.2480 -0.4652 -0.8497
vn -0.9047 -0.0076 -0.4259
vn -0.7436 -0.0825 -0.6635
vn -0.2013 0.6627 -0.7213
vn -0.0349 0.5563 -0.8302
vn -0.3494 0.4418 -0.8263
vn -0.1181 0.8301 -0.5450
vn -0.5025 0.4847 -0.7159
vn -0.1547 0.7787 -0.6081
vn 0.4091 0.6375 -0.6528
vn 0.7513 -0.0296 -0.6593
vn 0.8838 -0.4662 -0.0386
vn 0.7917 0.6028 -0.0989
vn 0.2529 -0.3670 -0.8952
vn 0.3108 0.2807 -0.9081
vn 0.7297 -0.3403 -0.5931
vn 0.3962 0.2314 -0.8885
vn -0.1314 -0.8069 -0.5759
vn 0.1267 -0.3092 -0.9425
vn -0.7602 -0.4110 -0.5031
vn -0.3115 -0.1791 -0.9332
vn -0.4355 -0.0684 -0.8976
vn -0.4876 -0.8702 -0.0709
vn -0.2361 -0.4038 -0.8838
vn -0.2266 -0.2575 -0.9393
vn 0.0919 -0.4312 -0.8976
vn -0.7552 -0.1297 -0.6426
vn -0.1039 -0.4215 -0.9009
vn -0.3382 0.8078 -0.4828
vn -0.1972 0.2911 -0.9361
vn 0.0973 0.3637 -0.9264
vn -0.0349 0.9994 -0.0076
vn -0.0231 0.4832 -0.8752
vn -0.9092 0.4163 -0.0068
vn -0.3594 0.3205 -0.8764
vn -0.2987 0.1928 -0.9347
vn -0.4721 0.7328 -0.4899
vn -0.4182 0.1672 -0.8928
vn 0.4757 0.6098 -0.6340
vn -0.1471 0.3613 -0.9208
vn 0.8090 -0.2865 -0.5132
vn 0.3382 -0.0803 -0.9376
vn 0.2666 -0.3048 -0.9143
vn 0.4812 -0.0245 -0.8763
vn 0.8583 0.5121 0.0336
vn 0.8626 -0.5023 -0.0597
vn -0.0000 -0.0000 1.0000
vn 0.9706 -0.2365 -0.0454
vn 0.6991 -0.7068 -0.1087
vn 0.1835 -0.9800 -0.0773
vn 0.4875 -0.8723 -0.0382
vn -0.5183 -0.8506 -0.0884
vn -0.2309 -0.9725 -0.0290
vn -0.7027 -0.7105 -0.0380
vn -0.9679 -0.2497 -0.0281
vn -0.8594 -0.5079 -0.0590
vn -0.8625 0.5016 -0.0670
vn -0.9772 0.1988 -0.0752
vn -0.6944 0.7188 -0.0333
vn -0.2303 0.9685 -0.0950
vn -0.5086 0.8570 -0.0833
vn 0.5215 0.8513 -0.0581
vn 0.2716 0.9623 -0.0132
vn 0.7223 0.6880 -0.0704
vn 0.9729 0.2223 -0.0642
vn 0.8694 0.4941 -0.0048
vn 0.8665 -0.4965 -0.0515
vn 0.7079 -0.6995 -0.0981
vn 0.9665 -0.2470 -0.0697
vn 0.2020 -0.9771 -0.0670
vn -0.4956 -0.8668 -0.0546
vn 0.4836 -0.8741 -0.0463
vn -0.7018 -0.7117 -0.0312
vn -0.2338 -0.9720 -0.0230
vn -0.9715 -0.2343 -0.0348
vn -0.8614 0.5047 -0.0572
vn -0.8612 -0.5056 -0.0507
vn -0.6804 0.7267 -0.0947
vn -0.9785 0.1959 -0.0647
vn -0.2395 0.9668 -0.0888
vn 0.5038 0.8615 -0.0631
vn -0.5146 0.8539 -0.0780
vn 0.7227 0.6892 -0.0529
vn 0.2771 0.9601 -0.0388
vn 0.8599 0.5060 -0.0674
vn 0.8631 -0.5037 -0.0359
vn 0.7281 -0.6808 -0.0803
vn 0.9699 -0.2316 -0.0757
vn 0.2121 -0.9761 -0.0471
vn -0.4830 -0.8756 -0.0023
vn 0.5072 -0.8596 -0.0612
vn -0.7118 -0.7019 -0.0248
vn -0.2372 -0.9713 -0.0158
vn -0.9729 -0.2259 -0.0492
vn -0.8605 0.5076 -0.0425
vn -0.8628 -0.5041 -0.0378
vn -0.6905 0.7185 -0.0835
vn -0.9738 0.2223 -0.0480
vn 0.4935 0.8671 -0.0675
vn -0.5151 0.8545 -0.0666
vn 0.7139 0.7001 -0.0098
vn 0.2532 0.9644 -0.0759
vn 0.8543 0.5164 -0.0590
vn 0.8465 -0.5312 -0.0338
vn 0.7182 -0.6934 -0.0579
vn 0.9728 -0.2148 -0.0871
vn 0.2041 -0.9754 -0.0829
vn -0.4883 -0.8721 -0.0303
vn 0.5225 -0.8499 -0.0681
vn -0.7223 -0.6909 -0.0326
vn -0.2257 -0.9727 -0.0535
vn -0.9712 -0.2310 -0.0583
vn -0.8589 0.5091 -0.0555
vn -0.8682 -0.4951 -0.0338
vn -0.6903 0.7183 -0.0866
vn -0.9692 0.2434 -0.0384
vn -0.2421 0.9675 -0.0734
vn -0.2447 0.9674 -0.0656
vn 0.4968 0.8664 -0.0503
vn -0.5295 0.8439 -0.0869
vn 0.7137 0.6999 -0.0288
vn 0.2170 0.9710 -0.1006
vn 0.9613 0.2727 -0.0385
vn 0.9660 0.2579 -0.0150
vn 0.8556 0.5143 -0.0590
vn 0.8325 -0.5505 -0.0626
vn 0.7140 -0.6981 -0.0543
vn 0.9760 -0.2084 -0.0638
vn 0.2110 -0.9755 -0.0614
vn -0.4978 -0.8672 -0.0118
vn 0.5328 -0.8455 -0.0349
vn -0.7236 -0.6895 -0.0322
vn -0.2211 -0.9746 -0.0364
vn -0.9718 -0.2339 -0.0304
vn -0.8638 0.5021 -0.0414
vn -0.8661 -0.4976 -0.0481
vn -0.6973 0.7130 -0.0739
vn -0.9661 0.2531 -0.0503
vn -0.2331 0.9713 -0.0475
vn 0.5160 0.8535 -0.0727
vn -0.5270 0.8475 -0.0634
vn 0.7088 0.7048 -0.0297
vn 0.1921 0.9781 -0.0796
vn 0.9719 0.2355 -0.0052
vn 0.8701 0.4914 -0.0386
vn 0.8308 -0.5490 -0.0914
vn 0.7153 -0.6965 -0.0573
vn 0.9751 -0.2195 -0.0315
vn 0.2241 -0.9733 -0.0490
vn -0.5076 -0.8614 -0.0150
vn 0.5284 -0.8490 -0.0026
vn -0.7236 -0.6896 -0.0285
vn -0.2222 -0.9747 -0.0250
vn -0.9722 -0.2340 -0.0029
vn -0.8622 0.5055 -0.0344
vn -0.8580 -0.5096 -0.0644
vn -0.7069 0.7057 -0.0473
vn -0.9680 0.2423 -0.0659
vn -0.2243 0.9739 -0.0360
vn 0.5175 0.8510 -0.0897
vn -0.5095 0.8592 -0.0464
vn 0.6996 0.7134 -0.0398
vn 0.1868 0.9812 -0.0484
vn 0.9780 0.2082 -0.0091
vn 0.8912 0.4536 -0.0044
vn 0.8468 -0.5244 -0.0889
vn 0.7014 -0.7072 -0.0883
vn 0.9705 -0.2411 -0.0082
vn 0.2828 -0.9555 -0.0835
vn -0.5105 -0.8574 -0.0651
vn 0.5068 -0.8620 -0.0115
vn -0.7140 -0.6989 -0.0418
vn -0.2139 -0.9753 -0.0555
vn -0.9792 -0.2026 -0.0126
vn -0.8540 0.5175 -0.0532
vn -0.8551 -0.5144 -0.0649
vn -0.7004 0.7136 -0.0139
vn -0.9742 0.2158 -0.0656
vn -0.2185 0.9750 -0.0400
vn 0.5006 0.8629 -0.0699
vn -0.5076 0.8590 -0.0667
vn 0.6818 0.7294 -0.0560
vn 0.1898 0.9808 -0.0454
vn 0.9805 0.1932 -0.0358
vn 0.8919 0.4490 -0.0537
vn 0.8690 -0.4910 -0.0611
vn 0.7029 -0.7087 -0.0603
vn 0.9690 -0.2403 -0.0576
vn -0.5069 -0.8615 -0.0309
vn 0.5102 -0.8591 -0.0400
vn -0.7028 -0.7101 -0.0432
vn -0.2152 -0.9758 -0.0379
vn -0.9837 -0.1756 -0.0378
vn -0.8516 0.5223 -0.0441
vn -0.8536 -0.5182 -0.0524
vn -0.6990 0.7121 -0.0649
vn -0.9743 0.2186 -0.0551
vn -0.2040 0.9776 -0.0515
vn 0.4898 0.8693 -0.0662
vn -0.5021 0.8632 -0.0519
vn 0.6775 0.7341 -0.0466
vn 0.1830 0.9815 -0.0559
vn 0.9774 0.2089 -0.0322
vn 0.8768 0.4738 -0.0816
vn 0.8715 -0.4898 -0.0241
vn 0.7125 -0.7002 -0.0462
vn 0.9706 -0.2207 -0.0959
vn -0.5095 -0.8600 -0.0288
vn 0.5294 -0.8448 -0.0782
vn -0.7129 -0.6994 -0.0516
vn -0.2174 -0.9751 -0.0431
vn -0.9833 -0.1674 -0.0721
vn -0.8489 0.5263 -0.0490
vn -0.8573 -0.5135 -0.0373
vn -0.7005 0.7069 -0.0975
vn -0.9688 0.2444 -0.0417
vn -0.2031 0.9768 -0.0675
vn 0.4856 0.8730 -0.0459
vn -0.5066 0.8604 -0.0557
vn 0.6778 0.7339 -0.0447
vn 0.1669 0.9833 -0.0720
vn 0.9793 0.1979 -0.0427
vn 0.8381 0.4420 -0.3197
vn 0.8068 -0.4916 -0.3276
vn 0.7050 -0.6393 -0.3071
vn 0.9264 -0.1818 -0.3297
vn 0.2790 -0.9583 -0.0625
vn 0.2629 -0.9368 -0.2307
vn -0.5141 -0.7834 -0.3493
vn 0.4955 -0.8344 -0.2412
vn -0.6536 -0.6413 -0.4019
vn -0.2150 -0.9081 -0.3594
vn -0.9162 -0.1729 -0.3616
vn -0.8332 0.5117 -0.2096
vn -0.8287 -0.5095 -0.2318
vn -0.6389 0.6953 -0.3293
vn -0.9026 0.2913 -0.3170
vn -0.1936 0.9046 -0.3798
vn 0.4781 0.8340 -0.2756
vn -0.5048 0.7999 -0.3246
vn 0.6879 0.6929 -0.2160
vn 0.1375 0.9609 -0.2404
vn 0.9383 0.1320 -0.3195
vn 0.5458 0.1340 -0.8271
vn 0.4490 -0.2663 -0.8529
vn 0.5126 -0.0831 -0.8546
vn 0.5464 -0.2525 -0.7986
vn 0.1991 -0.7371 -0.6458
vn -0.4297 -0.3965 -0.8113
vn 0.2353 -0.7283 -0.6436
vn -0.2032 -0.4906 -0.8474
vn -0.2547 -0.3818 -0.8885
vn -0.5173 -0.1379 -0.8446
vn -0.6744 0.4108 -0.6135
vn -0.5355 -0.4606 -0.7079
vn -0.3880 0.4257 -0.8174
vn -0.4553 0.3445 -0.8210
vn -0.0991 0.4922 -0.8648
vn -0.4072 0.3753 -0.8327
vn 0.2820 0.5176 -0.8079
vn 0.5339 0.5378 -0.6525
vn 0.0374 0.7429 -0.6684
vn 0.5977 -0.0781 -0.7979
vn 0.4465 -0.1856 -0.8754
vn 0.4468 -0.1420 -0.8833
vn 0.7622 0.4018 -0.5076
vn 0.2278 -0.7458 -0.6260
vn 0.7340 -0.1578 -0.6605
vn -0.5389 -0.4973 -0.6799
vn 0.0477 -0.6585 -0.7511
vn -0.6592 0.4633 -0.5923
vn -0.5455 -0.5767 -0.6082
vn -0.6054 0.2714 -0.7482
vn -0.1016 0.5047 -0.8573
vn -0.2173 0.5340 -0.8171
vn 0.6271 0.4465 -0.6382
vn -0.0349 0.7668 -0.6409
vn 0.6291 -0.2834 -0.7238
vn 0.6360 -0.2780 -0.7199
vn 0.4981 0.1721 -0.8499
vn 0.5641 0.6480 -0.5117
vn 0.7545 0.2046 -0.6236
vn 0.2223 -0.7281 -0.6484
vn -0.0819 -0.7982 -0.5967
vn -0.8226 -0.1049 -0.5588
vn -0.1007 -0.6478 -0.7551
vn -0.3397 -0.3245 -0.8828
vn 0.4164 -0.8613 -0.2912
vn -0.4221 -0.4033 -0.8119
vn -0.2318 -0.5304 -0.8154
vn 0.0861 -0.7767 -0.6239
vn -0.3546 -0.7255 -0.5898
vn -0.5408 0.5761 -0.6129
vn -0.2547 0.5855 -0.7697
vn -0.6053 0.4580 -0.6511
vn 0.0913 0.8218 -0.5624
vn -0.1660 0.7691 -0.6172
vn -0.0869 0.5284 -0.8445
vn -0.8737 0.0463 -0.4843
vn -0.6092 0.4451 -0.6563
vn -0.1387 0.7784 -0.6122
vn 0.7467 0.3022 -0.5925
vn 0.6159 -0.5413 -0.5725
vn 0.4217 -0.9018 -0.0946
vn 0.5983 -0.8007 -0.0318
vn 0.7201 0.6491 -0.2453
vn 0.7751 0.4533 -0.4402
vn 0.2722 -0.7271 -0.6302
vn -0.5496 -0.7214 -0.4213
vn -0.9773 -0.1522 -0.1473
vn -0.9946 -0.0083 -0.1032
vn -0.6863 -0.7243 -0.0665
vn -0.5906 0.6291 -0.5055
vn -0.2098 -0.8534 -0.4771
vn 0.2303 0.8769 -0.4219
vn 0.1051 0.8446 -0.5250
vn -0.7492 -0.6623 -0.0014
vn -0.6977 0.4850 -0.5273
vn -0.8600 0.3433 -0.3776
vn -0.3127 0.7656 -0.5622
vn 0.8759 0.0722 -0.4770
vn 0.7303 -0.6418 -0.2340
vn -0.0000 -0.0000 -1.0000
vn 0.2025 -0.9490 -0.2415
vn 0.9580 0.2866 -0.0049
vn 0.2884 -0.9566 -0.0410
vn 0.6610 -0.0369 -0.7495
vn 0.9973 0.0259 -0.0691
vn 0.4148 -0.2416 0.8773
vn 0.4805 -0.1032 0.8709
vn 0.8680 -0.4845 -0.1089
vn 0.3432 -0.3470 0.8728
vn 0.4757 -0.8755 -0.0848
vn 0.0881 -0.4705 0.8780
vn 0.2488 -0.4209 0.8723
vn -0.0049 -0.9946 -0.1036
vn -0.2480 -0.4070 0.8791
vn -0.1089 -0.4655 0.8783
vn -0.4829 -0.8748 -0.0382
vn -0.3354 -0.3391 0.8789
vn -0.8695 -0.4931 -0.0300
vn -0.4679 -0.1207 0.8755
vn -0.4161 -0.2479 0.8748
vn -0.9970 -0.0019 -0.0772
vn -0.4200 0.2443 0.8740
vn -0.4655 0.1054 0.8788
vn -0.8763 0.4806 -0.0331
vn -0.3530 0.3418 0.8710
vn -0.4798 0.8715 -0.1020
vn -0.1129 0.4747 0.8729
vn -0.2419 0.4179 0.8757
vn -0.0035 0.9977 -0.0683
vn 0.2474 0.4039 0.8807
vn 0.1192 0.4693 0.8750
vn 0.5146 0.8545 -0.0705
vn 0.3511 0.3344 0.8746
vn 0.4530 0.1031 0.8855
vn 0.4039 0.2643 0.8758
vn 0.9982 0.0088 -0.0593
vn 0.8692 -0.4845 -0.0986
vn 0.4860 -0.8709 -0.0730
vn 0.0006 -0.9980 -0.0630
vn -0.4856 -0.8736 -0.0312
vn -0.8720 -0.4880 -0.0373
vn -0.9978 0.0010 -0.0661
vn -0.8720 0.4853 -0.0636
vn -0.0128 0.9972 -0.0737
vn 0.5156 0.8551 -0.0536
vn 0.9992 -0.0057 -0.0408
vn 0.4898 -0.8703 -0.0510
vn 0.0112 -0.9999 -0.0025
vn -0.4933 -0.8695 -0.0244
vn -0.8735 -0.4839 -0.0530
vn -0.9988 0.0032 -0.0493
vn -0.8651 0.4893 -0.1102
vn -0.0113 0.9969 -0.0775
vn 0.5017 0.8645 -0.0298
vn 0.9991 -0.0143 -0.0393
vn 0.8797 -0.4721 -0.0579
vn 0.4845 -0.8701 -0.0902
vn 0.0150 -0.9993 -0.0348
vn -0.4947 -0.8684 -0.0328
vn -0.8737 -0.4823 -0.0627
vn -0.9979 0.0041 -0.0645
vn -0.8639 0.4961 -0.0870
vn -0.4825 0.8731 -0.0701
vn -0.0088 0.9983 -0.0576
vn 0.4826 0.8753 -0.0304
vn 0.8728 0.4878 -0.0159
vn 0.9970 -0.0202 -0.0749
vn 0.8800 -0.4718 -0.0544
vn 0.4884 -0.8701 -0.0667
vn 0.0148 -0.9998 -0.0135
vn -0.4935 -0.8693 -0.0289
vn -0.9988 0.0044 -0.0479
vn -0.8653 0.4957 -0.0746
vn -0.4843 0.8734 -0.0510
vn -0.0056 0.9964 -0.0846
vn 0.4655 0.8845 -0.0310
vn 0.8767 0.4811 -0.0055
vn 0.9937 -0.0212 -0.1097
vn 0.8778 -0.4757 -0.0571
vn 0.5002 -0.8643 -0.0530
vn 0.0097 -0.9998 -0.0171
vn -0.4880 -0.8723 -0.0292
vn -0.8827 -0.4699 -0.0030
vn -0.8705 0.4898 -0.0480
vn -0.4840 0.8742 -0.0388
vn -0.0057 0.9945 -0.1051
vn 0.4559 0.8891 -0.0404
vn 0.8766 0.4810 -0.0098
vn 0.9943 -0.0201 -0.1047
vn 0.8683 -0.4930 -0.0543
vn -0.0004 -0.9972 -0.0752
vn -0.4777 -0.8775 -0.0428
vn -0.8856 -0.4643 -0.0135
vn -0.9981 0.0043 -0.0621
vn -0.8745 0.4848 -0.0144
vn -0.4709 0.8811 -0.0431
vn -0.0113 0.9966 -0.0813
vn 0.4530 0.8897 -0.0559
vn 0.8701 0.4913 -0.0393
vn 0.9973 -0.0217 -0.0701
vn 0.8690 -0.4910 -0.0609
vn 0.0003 -0.9994 -0.0359
vn -0.4778 -0.8774 -0.0434
vn -0.8865 -0.4609 -0.0415
vn -0.9987 0.0047 -0.0516
vn -0.8732 0.4830 -0.0653
vn -0.4724 0.8796 -0.0560
vn -0.0110 0.9970 -0.0760
vn 0.4473 0.8932 -0.0468
vn 0.8716 0.4890 -0.0350
vn 0.9994 -0.0229 -0.0271
vn 0.8758 -0.4784 -0.0643
vn 0.0089 -0.9994 -0.0340
vn -0.4850 -0.8730 -0.0514
vn -0.8837 -0.4612 -0.0797
vn -0.9983 0.0056 -0.0577
vn -0.8676 0.4875 -0.0977
vn -0.4801 0.8741 -0.0734
vn -0.0077 0.9986 -0.0522
vn 0.4400 0.8969 -0.0449
vn 0.8764 0.4793 -0.0465
vn 0.9267 -0.0241 -0.3751
vn 0.6202 -0.4007 -0.6744
vn 0.8569 -0.4140 -0.3071
vn 0.5052 -0.8277 -0.2444
vn -0.0219 -0.9440 -0.3292
vn -0.4456 -0.7988 -0.4042
vn -0.1704 -0.7199 -0.6728
vn -0.8349 -0.3901 -0.3882
vn -0.4847 -0.4848 -0.7280
vn -0.9698 -0.0020 -0.2441
vn -0.4178 0.8130 -0.4056
vn -0.5200 0.5659 -0.6398
vn -0.1483 0.7044 -0.6941
vn -0.0487 0.9476 -0.3158
vn 0.4341 0.8748 -0.2152
vn 0.8591 0.4282 -0.2803
vn 0.6797 0.3568 -0.6409
vn 0.4510 -0.0233 -0.8922
vn 0.4814 -0.5652 -0.6700
vn -0.1699 -0.5859 -0.7924
vn -0.7384 -0.0387 -0.6733
vn -0.1995 0.5236 -0.8283
vn 0.3625 0.6653 -0.6526
vn 0.6670 0.1586 -0.7280
vn 0.5576 0.0513 -0.8285
vn 0.5978 -0.4597 -0.6567
vn -0.4134 -0.5382 -0.7345
vn -0.2244 -0.5411 -0.8105
vn -0.7407 -0.0822 -0.6668
vn 0.0742 0.9847 -0.1577
vn -0.3304 0.4177 -0.8464
vn -0.4919 0.4684 -0.7339
vn -0.2378 0.5322 -0.8125
vn 0.4079 0.6357 -0.6554
vn 0.7411 -0.0292 -0.6707
vn 0.6324 -0.2764 -0.7236
vn 0.4946 -0.2078 -0.8439
vn 0.5906 0.4444 -0.6736
vn 0.7600 0.3124 -0.5699
vn 0.7576 0.4881 -0.4335
vn 0.7076 -0.3300 -0.6249
vn -0.1302 -0.7996 -0.5862
vn -0.7355 -0.3976 -0.5485
vn -0.3072 -0.4219 -0.8530
vn -0.9533 -0.0257 -0.3009
vn -0.7392 -0.1270 -0.6615
vn 0.2480 0.8677 -0.4308
vn -0.0185 0.5652 -0.8247
vn -0.6193 0.2812 -0.7331
vn -0.7480 -0.6596 0.0736
vn -0.8453 0.2898 -0.4490
vn -0.4688 0.7276 -0.5008
vn 0.4668 0.5983 -0.6513
vn 0.7903 -0.2799 -0.5451
vn 0.9244 -0.3801 -0.0330
vn 0.9916 -0.0549 -0.1169
vn 0.2875 -0.3837 -0.8776
vn 0.3379 0.2985 -0.8926
vn 0.8020 -0.2212 -0.5549
vn 0.3302 0.1949 -0.9236
vn -0.3019 -0.7909 -0.5323
vn 0.1248 -0.3053 -0.9441
vn -0.8747 -0.3029 -0.3784
vn -0.3794 -0.2216 -0.8983
vn -0.4270 -0.0664 -0.9018
vn -0.6665 -0.7432 -0.0589
vn -0.2314 -0.3302 -0.9151
vn -0.3739 -0.2870 -0.8819
vn 0.0878 -0.4062 -0.9095
vn -0.7512 -0.1602 -0.6403
vn -0.0883 -0.3652 -0.9267
vn -0.1418 0.9190 -0.3680
vn -0.2155 0.3153 -0.9242
vn 0.1147 0.4377 -0.8918
vn -0.4169 0.9087 0.0214
vn 0.0565 0.3538 -0.9336
vn -0.7307 0.6824 0.0218
vn -0.3587 0.3107 -0.8802
vn -0.3446 0.3437 -0.8736
vn -0.6703 0.6422 -0.3718
vn -0.3591 0.1417 -0.9225
vn 0.5121 0.5799 -0.6336
vn -0.1337 0.3232 -0.9368
vn 0.7867 -0.4853 -0.3816
vn 0.3992 -0.0919 -0.9123
vn 0.2929 -0.3326 -0.8965
vn 0.3333 -0.0841 -0.9390
vn 0.8358 0.5460 -0.0567
vn 0.8668 -0.4967 -0.0445
vn 0.9727 -0.2095 -0.1003
vn 0.7087 -0.7003 -0.0854
vn 0.2023 -0.9786 -0.0387
vn 0.5065 -0.8576 -0.0893
vn -0.4961 -0.8678 -0.0284
vn -0.2277 -0.9731 -0.0355
vn -0.6999 -0.7137 -0.0294
vn -0.9704 -0.2340 -0.0602
vn -0.8572 -0.5106 -0.0664
vn -0.8605 0.5041 -0.0739
vn -0.9750 0.2203 -0.0308
vn -0.7143 0.6926 -0.1004
vn -0.2352 0.9682 -0.0851
vn -0.5002 0.8638 -0.0600
vn 0.5048 0.8632 -0.0129
vn 0.2461 0.9670 -0.0657
vn 0.7219 0.6885 -0.0692
vn 0.9625 0.2691 0.0344
vn 0.8577 0.5117 -0.0500
vn 0.8617 -0.5028 -0.0683
vn 0.7182 -0.6920 -0.0732
vn 0.9675 -0.2357 -0.0919
vn 0.2121 -0.9761 -0.0469
vn -0.4829 -0.8754 -0.0226
vn 0.4871 -0.8716 -0.0553
vn -0.6997 -0.7135 -0.0367
vn -0.9728 -0.2259 -0.0517
vn -0.8596 0.5070 -0.0636
vn -0.8595 -0.5080 -0.0569
vn -0.6934 0.7178 -0.0635
vn -0.6916 0.7160 -0.0950
vn -0.9783 0.1990 -0.0583
vn -0.2351 0.9679 -0.0888
vn -0.2353 0.9686 -0.0798
vn 0.4943 0.8685 -0.0380
vn -0.5093 0.8582 -0.0635
vn 0.7198 0.6928 -0.0436
vn 0.2713 0.9612 -0.0504
vn 0.8688 0.4938 -0.0356
vn 0.8424 -0.5287 -0.1040
vn 0.7178 -0.6916 -0.0806
vn 0.7192 -0.6930 -0.0508
vn 0.7280 -0.6808 -0.0808
vn 0.9633 -0.2462 -0.1069
vn 0.9661 -0.2469 -0.0756
vn 0.9699 -0.2316 -0.0751
vn 0.2044 -0.9769 -0.0623
vn -0.4885 -0.8724 -0.0156
vn 0.4841 -0.8750 -0.0030
vn -0.7012 -0.7111 -0.0524
vn -0.2338 -0.9720 -0.0227
vn -0.9721 -0.2312 -0.0386
vn -0.8593 0.5094 -0.0470
vn -0.8616 -0.5058 -0.0424
vn -0.6793 0.7256 -0.1094
vn -0.9756 0.1953 -0.1008
vn 0.4961 0.8651 -0.0744
vn -0.5151 0.8546 -0.0664
vn 0.7202 0.6932 -0.0284
vn 0.2772 0.9604 -0.0282
vn 0.8614 0.5069 -0.0340
vn 0.8311 -0.5496 -0.0844
vn 0.7275 -0.6803 -0.0889
vn 0.9712 -0.2320 -0.0541
vn 0.2109 -0.9750 -0.0697
vn -0.4971 -0.8661 -0.0525
vn 0.5080 -0.8609 -0.0301
vn -0.7106 -0.7008 -0.0624
vn -0.2372 -0.9710 -0.0306
vn -0.9694 -0.2431 -0.0345
vn -0.8639 0.5022 -0.0376
vn -0.8621 -0.5037 -0.0556
vn -0.6975 0.7132 -0.0698
vn -0.9718 0.2218 -0.0804
vn -0.2397 0.9677 -0.0781
vn -0.2447 0.9672 -0.0683
vn -0.2324 0.9685 -0.0893
vn 0.5149 0.8516 -0.0984
vn -0.5157 0.8554 -0.0495
vn 0.7090 0.7050 -0.0153
vn 0.2538 0.9668 -0.0287
vn 0.9580 0.2866 -0.0094
vn 0.9639 0.2573 -0.0689
vn 0.9701 0.2351 -0.0604
vn 0.8540 0.5163 -0.0641
vn 0.8327 -0.5503 -0.0619
vn 0.7178 -0.6931 -0.0663
vn 0.9752 -0.2154 -0.0503
vn 0.2242 -0.9739 -0.0358
vn -0.5074 -0.8610 -0.0357
vn 0.5237 -0.8518 -0.0116
vn -0.7224 -0.6909 -0.0285
vn -0.7223 -0.6909 -0.0322
vn -0.2259 -0.9738 -0.0268
vn -0.9695 -0.2432 -0.0302
vn -0.9688 -0.2430 -0.0491
vn -0.9718 -0.2339 -0.0301
vn -0.8616 0.5052 -0.0492
vn -0.8679 -0.4950 -0.0416
vn -0.7068 0.7056 -0.0508
vn -0.9675 0.2430 -0.0696
vn -0.2240 0.9724 -0.0650
vn 0.5180 0.8518 -0.0780
vn -0.5301 0.8449 -0.0717
vn 0.7001 0.7140 -0.0050
vn 0.2180 0.9755 -0.0288
vn 0.9763 0.2079 -0.0602
vn 0.8533 0.5129 -0.0940
vn 0.8498 -0.5262 -0.0307
vn 0.7140 -0.6981 -0.0534
vn 0.9766 -0.2085 -0.0526
vn 0.2477 -0.9688 -0.0027
vn -0.5114 -0.8590 -0.0244
vn 0.5331 -0.8459 -0.0144
vn -0.7146 -0.6995 -0.0025
vn -0.2211 -0.9749 -0.0270
vn -0.9771 -0.2022 -0.0657
vn -0.8535 0.5172 -0.0643
vn -0.8666 -0.4978 -0.0345
vn -0.7104 0.7027 -0.0385
vn -0.9664 0.2531 -0.0451
vn -0.2184 0.9747 -0.0474
vn 0.5012 0.8640 -0.0477
vn -0.5260 0.8458 -0.0891
vn 0.6890 0.7247 -0.0097
vn 0.1926 0.9806 -0.0372
vn 0.9804 0.1932 -0.0391
vn 0.8671 0.4897 -0.0910
vn 0.8706 -0.4919 -0.0080
vn 0.7154 -0.6965 -0.0553
vn 0.7137 -0.6948 -0.0886
vn 0.9744 -0.2193 -0.0501
vn 0.2468 -0.9654 -0.0836
vn 0.2477 -0.9688 -0.0118
vn -0.5064 -0.8606 -0.0544
vn 0.5273 -0.8473 -0.0636
vn -0.7041 -0.7100 -0.0131
vn -0.2220 -0.9742 -0.0397
vn -0.9823 -0.1753 -0.0660
vn -0.8507 0.5217 -0.0641
vn -0.8585 -0.5100 -0.0535
vn -0.7103 0.7026 -0.0419
vn -0.9700 0.2428 -0.0135
vn -0.2038 0.9767 -0.0679
vn 0.4904 0.8703 -0.0449
vn -0.5088 0.8580 -0.0699
vn 0.6885 0.7242 -0.0397
vn 0.1868 0.9811 -0.0512
vn 0.9779 0.2090 -0.0044
vn 0.8895 0.4527 -0.0625
vn 0.8704 -0.4892 -0.0566
vn 0.7059 -0.7063 -0.0530
vn 0.9689 -0.2407 -0.0568
vn -0.5094 -0.8597 -0.0371
vn 0.5066 -0.8616 -0.0310
vn -0.7036 -0.7094 -0.0412
vn -0.2141 -0.9760 -0.0401
vn -0.9844 -0.1676 -0.0533
vn -0.8487 0.5261 -0.0538
vn -0.8560 -0.5150 -0.0443
vn -0.7028 0.7092 -0.0560
vn -0.9746 0.2158 -0.0604
vn -0.2033 0.9777 -0.0528
vn 0.4854 0.8726 -0.0553
vn -0.5076 0.8591 -0.0654
vn 0.6825 0.7301 -0.0344
vn 0.1898 0.9809 -0.0430
vn 0.9788 0.1978 -0.0540
vn 0.8930 0.4495 -0.0245
vn 0.8502 -0.5180 -0.0938
vn 0.7055 -0.7059 -0.0631
vn 0.9688 -0.2402 -0.0601
vn -0.5149 -0.8562 -0.0421
vn 0.5104 -0.8595 -0.0294
vn -0.7012 -0.7085 -0.0796
vn -0.2151 -0.9754 -0.0474
vn -0.9819 -0.1853 -0.0380
vn -0.8514 0.5229 -0.0406
vn -0.8538 -0.5183 -0.0492
vn -0.7111 0.6992 -0.0736
vn -0.9717 0.2181 -0.0903
vn -0.2089 0.9763 -0.0567
vn 0.4961 0.8653 -0.0712
vn -0.5023 0.8635 -0.0451
vn 0.6775 0.7341 -0.0453
vn 0.1832 0.9822 -0.0412
vn 0.9807 0.1772 -0.0822
vn 0.8288 0.4479 -0.3354
vn 0.7811 -0.5047 -0.3675
vn 0.6919 -0.6799 -0.2429
vn 0.9031 -0.2054 -0.3771
vn 0.9467 -0.1568 -0.2815
vn 0.2884 -0.9565 -0.0442
vn 0.2693 -0.9597 -0.0805
vn 0.2527 -0.9356 -0.2466
vn -0.4937 -0.8211 -0.2866
vn 0.5095 -0.8130 -0.2818
vn -0.6517 -0.6517 -0.3881
vn -0.2015 -0.9036 -0.3780
vn -0.9363 -0.2583 -0.2379
vn -0.8363 0.5093 -0.2031
vn -0.8385 -0.5022 -0.2115
vn -0.6730 0.6617 -0.3305
vn -0.6524 0.6415 -0.4035
vn -0.9484 0.2392 -0.2080
vn -0.9212 0.2324 -0.3122
vn -0.9020 0.2911 -0.3189
vn -0.1903 0.9035 -0.3841
vn 0.4644 0.8525 -0.2399
vn -0.4698 0.7977 -0.3781
vn -0.5406 0.7980 -0.2664
vn 0.6520 0.7060 -0.2767
vn 0.1641 0.9667 -0.1965
vn 0.9508 0.1718 -0.2578
vn 0.4392 0.2302 -0.8684
vn 0.4320 -0.2792 -0.8576
vn 0.5100 -0.0845 -0.8560
vn 0.6260 -0.1037 -0.7729
vn 0.7048 0.0913 -0.7035
vn 0.5488 0.0689 -0.8331
vn 0.4400 -0.3989 -0.8045
vn 0.5517 -0.5003 -0.6674
vn 0.2025 -0.7384 -0.6432
vn -0.3632 -0.5535 -0.7495
vn -0.2983 -0.4545 -0.8393
vn 0.3353 -0.5647 -0.7541
vn -0.1132 -0.4746 -0.8729
vn -0.3665 -0.3649 -0.8559
vn -0.5611 -0.4119 -0.7180
vn -0.6166 0.4334 -0.6572
vn -0.6723 -0.4134 -0.6141
vn -0.1911 0.4392 -0.8778
vn -0.7031 0.2269 -0.6740
vn -0.5592 0.1805 -0.8091
vn -0.1038 0.4932 -0.8637
vn -0.2887 0.4262 -0.8573
vn -0.3402 0.5022 -0.7950
vn -0.4058 0.3740 -0.8340
vn 0.1168 0.7268 -0.6769
vn 0.5386 0.3834 -0.7503
vn 0.1123 0.7849 -0.6094
vn 0.6946 0.0977 -0.7127
vn 0.5613 0.0790 -0.8238
vn 0.5609 0.1376 -0.8164
vn 0.4437 0.1131 -0.8890
vn 0.4361 -0.2584 -0.8620
vn 0.4617 -0.2739 -0.8437
vn 0.5665 0.0734 -0.8208
vn 0.2028 -0.7394 -0.6420
vn 0.2277 -0.7458 -0.6261
vn 0.5508 -0.2546 -0.7949
vn 0.8601 -0.0602 -0.5065
vn -0.6080 -0.2936 -0.7376
vn 0.2397 -0.7420 -0.6261
vn -0.0613 -0.5976 -0.7995
vn -0.5837 0.4958 -0.6431
vn -0.5368 -0.4618 -0.7061
vn -0.5393 -0.6861 -0.4882
vn -0.5041 0.4645 -0.7281
vn -0.0842 0.5053 -0.8588
vn 0.1194 0.7431 -0.6584
vn 0.6244 0.2527 -0.7391
vn 0.0406 0.8071 -0.5890
vn 0.7604 -0.0993 -0.6418
vn 0.3447 -0.7371 -0.5813
vn 0.5087 -0.1657 -0.8449
vn 0.7639 0.4027 -0.5043
vn 0.8584 -0.0601 -0.5094
vn 0.2745 -0.7333 -0.6221
vn -0.4160 -0.5459 -0.7273
vn -0.7719 -0.3727 -0.5151
vn -0.2576 -0.3861 -0.8858
vn -0.0960 -0.6516 -0.7525
vn -0.0741 -0.5032 -0.8610
vn -0.2051 -0.4953 -0.8442
vn -0.0830 -0.5633 -0.8221
vn -0.0967 -0.6565 -0.7481
vn -0.7115 -0.0214 -0.7023
vn -0.5625 -0.4130 -0.7162
vn -0.3163 -0.7599 -0.5679
vn -0.4637 -0.5900 -0.6609
vn -0.5399 -0.6869 -0.4866
vn -0.6297 0.5350 -0.5633
vn 0.0374 0.5798 -0.8139
vn -0.2896 0.5531 -0.7811
vn 0.4728 0.7120 -0.5191
vn -0.3991 0.7418 -0.5390
vn -0.0467 0.7682 -0.6385
vn 0.0184 0.5542 -0.8322
vn -0.7721 0.3461 -0.5330
vn -0.3366 0.7567 -0.5605
vn -0.0358 0.8284 -0.5590
vn 0.7208 0.0594 -0.6906
vn 0.7918 -0.3566 -0.4959
vn 0.6361 -0.2865 -0.7164
vn 0.9783 -0.2049 -0.0308
vn 0.9209 0.3789 -0.0916
vn 0.6550 0.7524 -0.0696
vn 0.6527 0.7498 -0.1083
vn 0.7607 0.2063 -0.6155
vn 0.9221 0.2500 -0.2955
vn 0.2971 -0.7262 -0.6199
vn -0.7351 -0.4286 -0.5253
vn -0.9799 -0.1249 -0.1553
vn -0.9824 -0.1252 -0.1385
vn -0.5665 -0.8221 -0.0574
vn 0.4327 -0.8950 -0.1080
vn -0.4683 0.6865 -0.5563
vn -0.4105 -0.8398 -0.3553
vn -0.0578 0.9495 -0.3083
vn -0.0466 0.7661 -0.6410
vn 0.5523 0.8318 -0.0557
vn 0.5531 0.8330 -0.0158
vn -0.7462 0.6653 0.0215
vn -0.9985 0.0529 -0.0145
vn -0.9968 0.0528 -0.0595
vn -0.6726 0.4914 -0.5533
vn -0.7755 0.5666 -0.2784
vn -0.1522 0.8542 -0.4972
vn 0.8006 -0.1853 -0.5698
vn 0.6316 -0.7177 -0.2932
vn 0.1078 -0.9730 -0.2042
s 0
f 9//1 18//1 8//1
f 54//2 62//2 53//2
f 98//3 99//3 100//3
f 103//4 104//4 105//4
f 106//5 107//5 108//5
f 111//6 112//6 113//6
f 116//7 117//7 118//7
f 119//8 120//8 121//8
f 124//9 125//9 126//9
f 129//10 130//10 131//10
f 132//11 133//11 134//11
f 137//12 138//12 139//12
f 142//13 143//13 144//13
f 165//14 166//14 167//14
f 174//15 175//15 176//15
f 195//16 196//16 197//16
f 210//17 211//17 212//17
f 217//18 218//18 219//18
f 230//19 231//19 232//19
f 255//20 256//20 257//20
f 274//21 275//21 276//21
f 343//22 344//22 345//22
f 354//23 355//23 356//23
f 366//24 368//24 365//24
f 369//25 370//25 371//25
f 372//26 373//26 374//26
f 379//27 380//27 381//27
f 382//28 383//28 384//28
f 389//29 390//29 391//29
f 392//30 393//30 394//30
f 395//31 396//31 397//31
f 404//32 405//32 406//32
f 407//33 408//33 409//33
f 410//34 411//34 412//34
f 419//35 420//35 421//35
f 432//36 433//36 434//36
f 437//37 438//37 439//37
f 442//38 443//38 444//38
f 445//39 446//39 447//39
f 448//40 449//40 450//40
f 459//41 460//41 461//41
f 468//42 469//42 470//42
f 471//43 472//43 473//43
f 474//44 475//44 476//44
f 477//45 478//45 479//45
f 486//46 487//46 488//46
f 489//47 490//47 491//47
f 494//48 495//48 496//48
f 497//49 498//49 499//49
f 500//50 501//50 502//50
f 503//51 504//51 505//51
f 506//52 507//52 508//52
f 515//53 516//53 517//53
f 518//54 519//54 520//54
f 523//55 524//55 525//55
f 526//56 527//56 528//56
f 529//57 530//57 531//57
f 534//58 535//58 536//58
f 541//59 542//59 543//59
f 544//60 545//60 546//60
f 549//61 550//61 551//61
f 552//62 553//62 554//62
f 557//63 558//63 559//63
f 560//64 561//64 562//64
f 563//65 564//65 565//65
f 98//66 149//66 150//66
f 101//67 100//67 99//67
f 101//68 105//68 102//68
f 151//69 105//69 104//69
f 106//70 104//70 103//70
f 107//71 154//71 108//71
f 109//72 107//72 106//72
f 109//73 113//73 110//73
f 112//74 156//74 113//74
f 114//75 112//75 111//75
f 114//76 118//76 115//76
f 157//77 118//77 117//77
f 116//78 121//78 117//78
f 120//79 160//79 121//79
f 122//80 120//80 119//80
f 122//81 126//81 123//81
f 161//82 126//82 125//82
f 127//83 125//83 124//83
f 127//84 131//84 128//84
f 163//85 131//85 130//85
f 129//86 134//86 130//86
f 133//87 165//87 134//87
f 135//88 133//88 132//88
f 135//89 139//89 136//89
f 138//90 169//90 139//90
f 140//91 138//91 137//91
f 140//92 144//92 141//92
f 170//93 144//93 143//93
f 145//94 143//94 142//94
f 145//95 148//95 146//95
f 147//96 98//96 148//96
f 150//97 172//97 173//97
f 175//98 152//98 151//98
f 153//99 178//99 154//99
f 155//100 180//100 156//100
f 181//101 158//101 157//101
f 159//102 184//102 160//102
f 185//103 162//103 161//103
f 187//104 164//104 163//104
f 189//105 169//105 168//105
f 191//106 171//106 170//106
f 194//107 172//107 193//107
f 177//108 199//108 178//108
f 179//109 201//109 180//109
f 202//110 182//110 181//110
f 183//111 205//111 184//111
f 185//112 207//112 186//112
f 208//113 188//113 187//113
f 213//114 190//114 189//114
f 215//115 192//115 191//115
f 221//116 193//116 220//116
f 222//117 196//117 195//117
f 198//118 225//118 199//118
f 226//119 201//119 200//119
f 228//120 203//120 202//120
f 204//121 230//121 205//121
f 206//122 234//122 207//122
f 235//123 209//123 208//123
f 210//124 238//124 211//124
f 239//125 214//125 213//125
f 241//126 216//126 215//126
f 217//127 244//127 218//127
f 246//128 220//128 245//128
f 247//129 223//129 222//129
f 224//130 250//130 225//130
f 251//131 227//131 226//131
f 253//132 229//132 228//132
f 233//133 259//133 234//133
f 260//134 236//134 235//134
f 237//135 263//135 238//135
f 264//136 240//136 239//136
f 266//137 242//137 241//137
f 243//138 269//138 244//138
f 271//139 245//139 270//139
f 272//140 248//140 247//140
f 249//141 274//141 250//141
f 277//142 252//142 251//142
f 279//143 254//143 253//143
f 255//144 282//144 256//144
f 258//145 284//145 259//145
f 285//146 261//146 260//146
f 262//147 288//147 263//147
f 289//148 265//148 264//148
f 291//149 267//149 266//149
f 268//150 294//150 269//150
f 296//151 270//151 295//151
f 297//152 273//152 272//152
f 299//153 278//153 277//153
f 301//154 280//154 279//154
f 281//155 304//155 282//155
f 283//156 306//156 284//156
f 307//157 286//157 285//157
f 287//158 310//158 288//158
f 311//159 290//159 289//159
f 313//160 292//160 291//160
f 293//161 316//161 294//161
f 318//162 295//162 317//162
f 319//163 298//163 297//163
f 299//164 322//164 300//164
f 323//165 302//165 301//165
f 303//166 326//166 304//166
f 305//167 328//167 306//167
f 329//168 308//168 307//168
f 309//169 332//169 310//169
f 333//170 312//170 311//170
f 335//171 314//171 313//171
f 315//172 338//172 316//172
f 340//173 317//173 339//173
f 341//174 320//174 319//174
f 346//175 322//175 321//175
f 348//176 324//176 323//176
f 325//177 351//177 326//177
f 327//178 353//178 328//178
f 355//179 330//179 329//179
f 331//180 358//180 332//180
f 359//181 334//181 333//181
f 361//182 336//182 335//182
f 337//183 364//183 338//183
f 365//184 339//184 366//184
f 367//185 370//185 369//185
f 373//186 342//186 341//186
f 343//187 376//187 344//187
f 346//188 378//188 347//188
f 382//189 349//189 348//189
f 380//190 384//190 383//190
f 350//191 386//191 351//191
f 383//192 386//192 385//192
f 352//193 388//193 353//193
f 357//194 394//194 358//194
f 390//195 394//195 393//195
f 395//196 392//196 396//196
f 398//197 360//197 359//197
f 400//198 362//198 361//198
f 363//199 403//199 364//199
f 368//200 404//200 365//200
f 407//201 367//201 408//201
f 375//202 414//202 376//202
f 377//203 416//203 378//203
f 417//204 388//204 387//204
f 422//205 399//205 398//205
f 424//206 401//206 400//206
f 402//207 427//207 403//207
f 430//208 411//208 410//208
f 435//209 414//209 413//209
f 415//210 441//210 416//210
f 448//211 445//211 449//211
f 451//212 418//212 417//212
f 453//213 456//213 455//213
f 457//214 420//214 419//214
f 459//215 423//215 422//215
f 462//216 459//216 463//216
f 464//217 425//217 424//217
f 426//218 467//218 427//218
f 428//219 468//219 429//219
f 428//220 471//220 473//220
f 474//221 431//221 430//221
f 475//222 471//222 476//222
f 478//223 433//223 432//223
f 480//224 436//224 435//224
f 437//225 483//225 438//225
f 440//226 485//226 441//226
f 442//227 491//227 443//227
f 487//228 491//228 490//228
f 492//229 452//229 451//229
f 453//230 497//230 454//230
f 500//231 455//231 456//231
f 503//232 458//232 457//232
f 504//233 500//233 505//233
f 507//234 461//234 460//234
f 509//235 462//235 463//235
f 511//236 465//236 464//236
f 466//237 514//237 467//237
f 515//238 472//238 516//238
f 518//239 475//239 474//239
f 517//240 520//240 519//240
f 521//241 518//241 522//241
f 523//242 481//242 480//242
f 524//243 522//243 525//243
f 482//244 528//244 483//244
f 524//245 528//245 527//245
f 484//246 531//246 485//246
f 527//247 531//247 530//247
f 530//248 533//248 532//248
f 534//249 490//249 489//249
f 532//250 536//250 535//250
f 537//251 534//251 538//251
f 539//252 538//252 540//252
f 541//253 493//253 492//253
f 542//254 540//254 543//254
f 494//255 546//255 495//255
f 542//256 546//256 545//256
f 545//257 548//257 547//257
f 501//258 551//258 502//258
f 547//259 551//259 550//259
f 552//260 504//260 503//260
f 553//261 549//261 554//261
f 555//262 552//262 556//262
f 557//263 510//263 509//263
f 558//264 556//264 559//264
f 511//265 562//265 512//265
f 561//266 557//266 562//266
f 513//267 565//267 514//267
f 561//268 565//268 564//268
f 564//269 567//269 566//269
f 566//270 515//270 517//270
f 148//271 150//271 9//271
f 102//272 149//272 100//272
f 140//273 127//273 116//273
f 102//274 152//274 1//274
f 108//275 151//275 104//275
f 110//276 153//276 107//276
f 110//277 156//277 2//277
f 115//278 155//278 112//278
f 115//279 158//279 3//279
f 121//280 157//280 117//280
f 123//281 159//281 120//281
f 123//282 162//282 4//282
f 128//283 161//283 125//283
f 128//284 164//284 5//284
f 130//285 165//285 163//285
f 136//286 166//286 133//286
f 136//287 169//287 6//287
f 141//288 168//288 138//288
f 141//289 171//289 7//289
f 146//290 170//290 143//290
f 148//291 8//291 146//291
f 9//292 173//292 19//292
f 1//293 172//293 149//293
f 154//294 175//294 151//294
f 1//295 174//295 10//295
f 2//296 177//296 153//296
f 3//297 179//297 155//297
f 2//298 180//298 11//298
f 157//299 184//299 181//299
f 3//300 182//300 12//300
f 4//301 183//301 159//301
f 5//302 185//302 161//302
f 4//303 186//303 13//303
f 165//304 15//304 187//304
f 5//305 188//305 14//305
f 166//306 16//306 15//306
f 7//307 189//307 168//307
f 6//308 190//308 16//308
f 8//309 191//309 170//309
f 7//310 192//310 17//310
f 19//311 194//311 27//311
f 10//312 193//312 172//312
f 175//313 199//313 197//313
f 174//314 197//314 20//314
f 11//315 198//315 177//315
f 12//316 200//316 179//316
f 11//317 201//317 21//317
f 181//318 205//318 202//318
f 12//319 203//319 22//319
f 13//320 204//320 183//320
f 14//321 206//321 185//321
f 13//322 207//322 23//322
f 15//323 211//323 208//323
f 14//324 209//324 24//324
f 17//325 213//325 189//325
f 16//326 214//326 25//326
f 18//327 218//327 215//327
f 17//328 216//328 26//328
f 27//329 221//329 35//329
f 20//330 220//330 193//330
f 195//331 225//331 222//331
f 20//332 223//332 28//332
f 21//333 224//333 198//333
f 22//334 226//334 200//334
f 21//335 227//335 29//335
f 202//336 230//336 228//336
f 22//337 229//337 30//337
f 23//338 231//338 204//338
f 24//339 233//339 206//339
f 23//340 234//340 31//340
f 211//341 235//341 208//341
f 24//342 236//342 32//342
f 16//343 210//343 212//343
f 25//344 237//344 210//344
f 26//345 239//345 213//345
f 25//346 240//346 33//346
f 218//347 241//347 215//347
f 26//348 242//348 34//348
f 19//349 217//349 219//349
f 27//350 243//350 217//350
f 35//351 246//351 43//351
f 28//352 245//352 220//352
f 222//353 250//353 247//353
f 28//354 248//354 36//354
f 29//355 249//355 224//355
f 30//356 251//356 226//356
f 29//357 252//357 37//357
f 230//358 257//358 253//358
f 30//359 254//359 38//359
f 231//360 39//360 257//360
f 32//361 258//361 233//361
f 31//362 259//362 39//362
f 238//363 260//363 235//363
f 32//364 261//364 40//364
f 33//365 262//365 237//365
f 34//366 264//366 239//366
f 33//367 265//367 41//367
f 244//368 266//368 241//368
f 34//369 267//369 42//369
f 35//370 268//370 243//370
f 43//371 271//371 51//371
f 36//372 270//372 245//372
f 247//373 274//373 272//373
f 36//374 273//374 44//374
f 37//375 275//375 249//375
f 38//376 277//376 251//376
f 37//377 278//377 45//377
f 256//378 279//378 253//378
f 38//379 280//379 46//379
f 39//380 281//380 255//380
f 40//381 283//381 258//381
f 39//382 284//382 47//382
f 263//383 285//383 260//383
f 40//384 286//384 48//384
f 41//385 287//385 262//385
f 42//386 289//386 264//386
f 41//387 290//387 49//387
f 269//388 291//388 266//388
f 42//389 292//389 50//389
f 43//390 293//390 268//390
f 51//391 296//391 60//391
f 44//392 295//392 270//392
f 274//393 53//393 297//393
f 44//394 298//394 52//394
f 275//395 54//395 53//395
f 46//396 299//396 277//396
f 45//397 300//397 54//397
f 282//398 301//398 279//398
f 46//399 302//399 55//399
f 47//400 303//400 281//400
f 48//401 305//401 283//401
f 47//402 306//402 56//402
f 285//403 310//403 307//403
f 48//404 308//404 57//404
f 49//405 309//405 287//405
f 50//406 311//406 289//406
f 49//407 312//407 58//407
f 291//408 316//408 313//408
f 50//409 314//409 59//409
f 51//410 315//410 293//410
f 60//411 318//411 69//411
f 52//412 317//412 295//412
f 53//413 319//413 297//413
f 52//414 320//414 61//414
f 55//415 321//415 299//415
f 54//416 322//416 63//416
f 301//417 326//417 323//417
f 55//418 324//418 64//418
f 56//419 325//419 303//419
f 57//420 327//420 305//420
f 56//421 328//421 65//421
f 310//422 329//422 307//422
f 57//423 330//423 66//423
f 58//424 331//424 309//424
f 59//425 333//425 311//425
f 58//426 334//426 67//426
f 313//427 338//427 335//427
f 59//428 336//428 68//428
f 60//429 337//429 315//429
f 69//430 340//430 77//430
f 61//431 339//431 317//431
f 62//432 344//432 341//432
f 61//433 342//433 70//433
f 64//434 346//434 321//434
f 63//435 347//435 71//435
f 323//436 351//436 348//436
f 64//437 349//437 72//437
f 65//438 350//438 325//438
f 66//439 352//439 327//439
f 65//440 353//440 73//440
f 332//441 355//441 329//441
f 66//442 354//442 74//442
f 67//443 357//443 331//443
f 68//444 359//444 333//444
f 67//445 360//445 75//445
f 335//446 364//446 361//446
f 68//447 362//447 76//447
f 69//448 363//448 337//448
f 77//449 365//449 404//449
f 70//450 366//450 339//450
f 341//451 376//451 373//451
f 342//452 371//452 370//452
f 63//453 343//453 345//453
f 71//454 375//454 343//454
f 72//455 381//455 377//455
f 71//456 378//456 78//456
f 351//457 382//457 348//457
f 72//458 384//458 379//458
f 73//459 385//459 350//459
f 74//460 387//460 352//460
f 73//461 388//461 79//461
f 355//462 394//462 389//462
f 354//463 389//463 80//463
f 75//464 392//464 357//464
f 76//465 398//465 359//465
f 360//466 397//466 396//466
f 361//467 403//467 400//467
f 76//468 401//468 81//468
f 77//469 406//469 402//469
f 405//470 407//470 92//470
f 369//471 411//471 408//471
f 371//472 374//472 410//472
f 373//473 414//473 82//473
f 78//474 413//474 375//474
f 381//475 84//475 415//475
f 78//476 416//476 83//476
f 380//477 85//477 84//477
f 383//478 86//478 85//478
f 79//479 86//479 385//479
f 80//480 417//480 387//480
f 79//481 418//481 87//481
f 393//482 89//482 390//482
f 391//483 89//483 88//483
f 395//484 420//484 90//484
f 397//485 423//485 421//485
f 81//486 422//486 398//486
f 403//487 424//487 400//487
f 81//488 425//488 91//488
f 406//489 92//489 426//489
f 407//490 429//490 468//490
f 408//491 431//491 429//491
f 82//492 433//492 430//492
f 83//493 438//493 435//493
f 414//494 432//494 434//494
f 84//495 440//495 415//495
f 416//496 437//496 439//496
f 88//497 451//497 417//497
f 418//498 450//498 449//498
f 419//499 461//499 457//499
f 420//500 456//500 90//500
f 422//501 463//501 459//501
f 427//502 464//502 424//502
f 91//503 465//503 463//503
f 92//504 470//504 466//504
f 428//505 97//505 469//505
f 429//506 476//506 471//506
f 430//507 477//507 474//507
f 432//508 481//508 478//508
f 438//509 480//509 435//509
f 441//510 482//510 437//510
f 93//511 488//511 484//511
f 86//512 447//512 444//512
f 85//513 443//513 93//513
f 447//514 95//514 489//514
f 443//515 486//515 93//515
f 86//516 449//516 445//516
f 446//517 96//517 95//517
f 450//518 493//518 96//518
f 94//519 495//519 492//519
f 90//520 454//520 89//520
f 89//521 94//521 88//521
f 455//522 498//522 453//522
f 454//523 494//523 496//523
f 458//524 500//524 456//524
f 457//525 506//525 503//525
f 460//526 510//526 507//526
f 463//527 512//527 509//527
f 467//528 511//528 464//528
f 470//529 97//529 513//529
f 473//530 567//530 97//530
f 472//531 520//531 516//531
f 477//532 522//532 518//532
f 478//533 525//533 522//533
f 483//534 523//534 480//534
f 485//535 526//535 482//535
f 488//536 533//536 529//536
f 490//537 533//537 487//537
f 489//538 538//538 534//538
f 495//539 541//539 492//539
f 96//540 543//540 540//540
f 497//541 548//541 544//541
f 498//542 551//542 548//542
f 504//543 549//543 501//543
f 506//544 556//544 552//544
f 507//545 559//545 556//545
f 509//546 562//546 557//546
f 514//547 560//547 511//547
f 97//548 563//548 513//548
f 537//549 550//549 555//549
f 95//550 540//550 538//550
f 9//551 19//551 18//551
f 54//552 63//552 62//552
f 366//553 367//553 368//553
f 98//554 100//554 149//554
f 101//555 102//555 100//555
f 101//556 103//556 105//556
f 151//557 152//557 105//557
f 106//558 108//558 104//558
f 107//559 153//559 154//559
f 109//560 110//560 107//560
f 109//561 111//561 113//561
f 112//562 155//562 156//562
f 114//563 115//563 112//563
f 114//564 116//564 118//564
f 157//565 158//565 118//565
f 116//566 119//566 121//566
f 120//567 159//567 160//567
f 122//568 123//568 120//568
f 122//569 124//569 126//569
f 161//570 162//570 126//570
f 127//571 128//571 125//571
f 127//572 129//572 131//572
f 163//573 164//573 131//573
f 129//574 132//574 134//574
f 133//575 166//575 165//575
f 135//576 136//576 133//576
f 135//577 137//577 139//577
f 138//578 168//578 169//578
f 140//579 141//579 138//579
f 140//580 142//580 144//580
f 170//581 171//581 144//581
f 145//582 146//582 143//582
f 145//583 147//583 148//583
f 147//584 99//584 98//584
f 150//585 149//585 172//585
f 175//586 174//586 152//586
f 153//587 177//587 178//587
f 155//588 179//588 180//588
f 181//589 182//589 158//589
f 159//590 183//590 184//590
f 185//591 186//591 162//591
f 187//592 188//592 164//592
f 189//593 190//593 169//593
f 191//594 192//594 171//594
f 194//595 173//595 172//595
f 177//596 198//596 199//596
f 179//597 200//597 201//597
f 202//598 203//598 182//598
f 183//599 204//599 205//599
f 185//600 206//600 207//600
f 208//601 209//601 188//601
f 213//602 214//602 190//602
f 215//603 216//603 192//603
f 221//604 194//604 193//604
f 222//605 223//605 196//605
f 198//606 224//606 225//606
f 226//607 227//607 201//607
f 228//608 229//608 203//608
f 204//609 231//609 230//609
f 206//610 233//610 234//610
f 235//611 236//611 209//611
f 210//612 237//612 238//612
f 239//613 240//613 214//613
f 241//614 242//614 216//614
f 217//615 243//615 244//615
f 246//616 221//616 220//616
f 247//617 248//617 223//617
f 224//618 249//618 250//618
f 251//619 252//619 227//619
f 253//620 254//620 229//620
f 233//621 258//621 259//621
f 260//622 261//622 236//622
f 237//623 262//623 263//623
f 264//624 265//624 240//624
f 266//625 267//625 242//625
f 243//626 268//626 269//626
f 271//627 246//627 245//627
f 272//628 273//628 248//628
f 249//629 275//629 274//629
f 277//630 278//630 252//630
f 279//631 280//631 254//631
f 255//632 281//632 282//632
f 258//145 283//145 284//145
f 285//633 286//633 261//633
f 262//634 287//634 288//634
f 289//635 290//635 265//635
f 291//636 292//636 267//636
f 268//637 293//637 294//637
f 296//638 271//638 270//638
f 297//639 298//639 273//639
f 299//640 300//640 278//640
f 301//641 302//641 280//641
f 281//642 303//642 304//642
f 283//643 305//643 306//643
f 307//644 308//644 286//644
f 287//645 309//645 310//645
f 311//646 312//646 290//646
f 313//647 314//647 292//647
f 293//648 315//648 316//648
f 318//649 296//649 295//649
f 319//650 320//650 298//650
f 299//651 321//651 322//651
f 323//652 324//652 302//652
f 303//653 325//653 326//653
f 305//654 327//654 328//654
f 329//655 330//655 308//655
f 309//656 331//656 332//656
f 333//657 334//657 312//657
f 335//658 336//658 314//658
f 315//659 337//659 338//659
f 340//660 318//660 317//660
f 341//661 342//661 320//661
f 346//662 347//662 322//662
f 348//663 349//663 324//663
f 325//664 350//664 351//664
f 327//665 352//665 353//665
f 355//666 354//666 330//666
f 331//667 357//667 358//667
f 359//668 360//668 334//668
f 361//669 362//669 336//669
f 337//670 363//670 364//670
f 365//671 340//671 339//671
f 367//672 366//672 370//672
f 373//673 372//673 342//673
f 343//674 375//674 376//674
f 346//675 377//675 378//675
f 382//676 384//676 349//676
f 380//677 379//677 384//677
f 350//678 385//678 386//678
f 383//679 382//679 386//679
f 352//680 387//680 388//680
f 357//681 392//681 394//681
f 390//682 389//682 394//682
f 395//683 393//683 392//683
f 398//684 399//684 360//684
f 400//685 401//685 362//685
f 363//686 402//686 403//686
f 368//687 405//687 404//687
f 407//688 368//688 367//688
f 375//689 413//689 414//689
f 377//690 415//690 416//690
f 417//691 418//691 388//691
f 422//692 423//692 399//692
f 424//693 425//693 401//693
f 402//694 426//694 427//694
f 430//695 431//695 411//695
f 435//696 436//696 414//696
f 415//697 440//697 441//697
f 448//698 446//698 445//698
f 451//699 452//699 418//699
f 453//700 454//700 456//700
f 457//701 458//701 420//701
f 459//702 461//702 423//702
f 462//703 460//703 459//703
f 464//704 465//704 425//704
f 426//705 466//705 467//705
f 428//706 469//706 468//706
f 428//707 429//707 471//707
f 474//708 476//708 431//708
f 475//709 472//709 471//709
f 478//710 477//710 433//710
f 480//711 481//711 436//711
f 437//712 482//712 483//712
f 440//713 484//713 485//713
f 442//714 489//714 491//714
f 487//715 486//715 491//715
f 492//716 493//716 452//716
f 453//717 498//717 497//717
f 500//718 502//718 455//718
f 503//719 505//719 458//719
f 504//720 501//720 500//720
f 507//721 506//721 461//721
f 509//722 510//722 462//722
f 511//723 512//723 465//723
f 466//724 513//724 514//724
f 515//725 473//725 472//725
f 518//726 520//726 475//726
f 517//727 516//727 520//727
f 521//728 519//728 518//728
f 523//729 525//729 481//729
f 524//730 521//730 522//730
f 482//731 526//731 528//731
f 524//732 523//732 528//732
f 484//733 529//733 531//733
f 527//734 526//734 531//734
f 530//735 529//735 533//735
f 534//736 536//736 490//736
f 532//737 533//737 536//737
f 537//738 535//738 534//738
f 539//739 537//739 538//739
f 541//740 543//740 493//740
f 542//741 539//741 540//741
f 494//742 544//742 546//742
f 542//743 541//743 546//743
f 545//744 544//744 548//744
f 501//745 549//745 551//745
f 547//746 548//746 551//746
f 552//747 554//747 504//747
f 553//748 550//748 549//748
f 555//749 553//749 552//749
f 557//750 559//750 510//750
f 558//751 555//751 556//751
f 511//752 560//752 562//752
f 561//753 558//753 557//753
f 513//754 563//754 565//754
f 561//755 560//755 565//755
f 564//756 563//756 567//756
f 566//757 567//757 515//757
f 148//758 98//758 150//758
f 102//759 1//759 149//759
f 147//273 145//273 142//273
f 140//273 137//273 135//273
f 147//273 142//273 140//273
f 101//273 99//273 147//273
f 106//273 103//273 101//273
f 114//273 111//273 109//273
f 109//273 106//273 101//273
f 101//273 147//273 140//273
f 140//273 135//273 132//273
f 132//273 129//273 127//273
f 127//273 124//273 122//273
f 122//273 119//273 116//273
f 116//273 114//273 109//273
f 109//273 101//273 140//273
f 140//273 132//273 127//273
f 127//273 122//273 116//273
f 116//273 109//273 140//273
f 102//760 105//760 152//760
f 108//761 154//761 151//761
f 110//762 2//762 153//762
f 110//763 113//763 156//763
f 115//764 3//764 155//764
f 115//765 118//765 158//765
f 121//766 160//766 157//766
f 123//767 4//767 159//767
f 123//768 126//768 162//768
f 128//769 5//769 161//769
f 128//770 131//770 164//770
f 130//771 134//771 165//771
f 136//772 6//772 166//772
f 136//773 139//773 169//773
f 141//774 7//774 168//774
f 141//775 144//775 171//775
f 146//776 8//776 170//776
f 148//777 9//777 8//777
f 9//778 150//778 173//778
f 1//779 10//779 172//779
f 154//780 178//780 175//780
f 1//781 152//781 174//781
f 2//782 11//782 177//782
f 3//783 12//783 179//783
f 2//784 156//784 180//784
f 157//785 160//785 184//785
f 3//279 158//279 182//279
f 4//786 13//786 183//786
f 5//787 14//787 185//787
f 4//788 162//788 186//788
f 187//789 163//789 165//789
f 165//790 167//790 15//790
f 5//791 164//791 188//791
f 15//792 167//792 166//792
f 166//793 6//793 16//793
f 7//794 17//794 189//794
f 6//795 169//795 190//795
f 8//796 18//796 191//796
f 7//797 171//797 192//797
f 19//798 173//798 194//798
f 10//799 20//799 193//799
f 197//800 176//800 175//800
f 175//801 178//801 199//801
f 199//802 195//802 197//802
f 20//803 10//803 174//803
f 174//804 176//804 197//804
f 197//805 196//805 20//805
f 11//806 21//806 198//806
f 12//807 22//807 200//807
f 11//808 180//808 201//808
f 181//809 184//809 205//809
f 12//810 182//810 203//810
f 13//811 23//811 204//811
f 14//812 24//812 206//812
f 13//813 186//813 207//813
f 208//814 187//814 15//814
f 15//323 212//323 211//323
f 14//815 188//815 209//815
f 17//816 26//816 213//816
f 16//817 190//817 214//817
f 215//818 191//818 18//818
f 18//327 219//327 218//327
f 17//819 192//819 216//819
f 27//820 194//820 221//820
f 20//821 28//821 220//821
f 195//822 199//822 225//822
f 20//823 196//823 223//823
f 21//824 29//824 224//824
f 22//825 30//825 226//825
f 21//826 201//826 227//826
f 202//827 205//827 230//827
f 22//828 203//828 229//828
f 23//829 31//829 231//829
f 24//830 32//830 233//830
f 23//831 207//831 234//831
f 211//832 238//832 235//832
f 24//833 209//833 236//833
f 212//834 15//834 16//834
f 16//835 25//835 210//835
f 25//836 33//836 237//836
f 26//837 34//837 239//837
f 25//838 214//838 240//838
f 218//839 244//839 241//839
f 26//840 216//840 242//840
f 219//841 18//841 19//841
f 19//842 27//842 217//842
f 27//843 35//843 243//843
f 35//844 221//844 246//844
f 28//845 36//845 245//845
f 222//846 225//846 250//846
f 28//847 223//847 248//847
f 29//848 37//848 249//848
f 30//849 38//849 251//849
f 29//850 227//850 252//850
f 253//851 228//851 230//851
f 230//852 232//852 257//852
f 257//358 256//358 253//358
f 30//853 229//853 254//853
f 257//854 232//854 231//854
f 231//855 31//855 39//855
f 39//856 255//856 257//856
f 32//857 40//857 258//857
f 31//858 234//858 259//858
f 238//859 263//859 260//859
f 32//860 236//860 261//860
f 33//861 41//861 262//861
f 34//862 42//862 264//862
f 33//863 240//863 265//863
f 244//864 269//864 266//864
f 34//865 242//865 267//865
f 35//866 43//866 268//866
f 43//867 246//867 271//867
f 36//868 44//868 270//868
f 247//869 250//869 274//869
f 36//870 248//870 273//870
f 37//871 45//871 275//871
f 38//872 46//872 277//872
f 37//873 252//873 278//873
f 256//874 282//874 279//874
f 38//875 254//875 280//875
f 39//876 47//876 281//876
f 40//877 48//877 283//877
f 39//878 259//878 284//878
f 263//879 288//879 285//879
f 40//880 261//880 286//880
f 41//881 49//881 287//881
f 42//882 50//882 289//882
f 41//883 265//883 290//883
f 269//884 294//884 291//884
f 42//885 267//885 292//885
f 43//886 51//886 293//886
f 51//887 271//887 296//887
f 44//888 52//888 295//888
f 297//889 272//889 274//889
f 274//890 276//890 53//890
f 44//891 273//891 298//891
f 53//892 276//892 275//892
f 275//893 45//893 54//893
f 46//894 55//894 299//894
f 45//895 278//895 300//895
f 282//896 304//896 301//896
f 46//897 280//897 302//897
f 47//898 56//898 303//898
f 48//899 57//899 305//899
f 47//900 284//900 306//900
f 285//901 288//901 310//901
f 48//902 286//902 308//902
f 49//903 58//903 309//903
f 50//904 59//904 311//904
f 49//905 290//905 312//905
f 291//906 294//906 316//906
f 50//907 292//907 314//907
f 51//908 60//908 315//908
f 60//909 296//909 318//909
f 52//910 61//910 317//910
f 53//911 62//911 319//911
f 52//912 298//912 320//912
f 55//913 64//913 321//913
f 54//914 300//914 322//914
f 301//915 304//915 326//915
f 55//916 302//916 324//916
f 56//917 65//917 325//917
f 57//918 66//918 327//918
f 56//919 306//919 328//919
f 310//920 332//920 329//920
f 57//921 308//921 330//921
f 58//922 67//922 331//922
f 59//923 68//923 333//923
f 58//924 312//924 334//924
f 313//925 316//925 338//925
f 59//926 314//926 336//926
f 60//927 69//927 337//927
f 69//928 318//928 340//928
f 61//929 70//929 339//929
f 341//930 319//930 62//930
f 62//432 345//432 344//432
f 61//931 320//931 342//931
f 64//932 72//932 346//932
f 63//933 322//933 347//933
f 323//934 326//934 351//934
f 64//935 324//935 349//935
f 65//936 73//936 350//936
f 66//937 74//937 352//937
f 65//938 328//938 353//938
f 332//939 358//939 355//939
f 66//940 330//940 354//940
f 67//941 75//941 357//941
f 68//942 76//942 359//942
f 67//943 334//943 360//943
f 335//944 338//944 364//944
f 68//945 336//945 362//945
f 69//946 77//946 363//946
f 77//947 340//947 365//947
f 70//948 370//948 366//948
f 341//949 344//949 376//949
f 370//950 70//950 342//950
f 342//951 372//951 371//951
f 345//952 62//952 63//952
f 63//953 71//953 343//953
f 71//954 78//954 375//954
f 377//955 346//955 72//955
f 72//455 379//455 381//455
f 71//956 347//956 378//956
f 351//957 386//957 382//957
f 72//958 349//958 384//958
f 73//959 79//959 385//959
f 74//960 80//960 387//960
f 73//961 353//961 388//961
f 389//962 356//962 355//962
f 355//963 358//963 394//963
f 80//964 74//964 354//964
f 354//965 356//965 389//965
f 389//966 391//966 80//966
f 75//967 396//967 392//967
f 76//968 81//968 398//968
f 396//969 75//969 360//969
f 360//970 399//970 397//970
f 361//971 364//971 403//971
f 76//972 362//972 401//972
f 402//973 363//973 77//973
f 77//469 404//469 406//469
f 405//974 368//974 407//974
f 408//975 367//975 369//975
f 369//471 412//471 411//471
f 412//976 369//976 371//976
f 371//977 372//977 374//977
f 374//978 82//978 410//978
f 410//979 412//979 371//979
f 82//980 374//980 373//980
f 373//981 376//981 414//981
f 78//982 83//982 413//982
f 415//983 377//983 381//983
f 381//984 380//984 84//984
f 78//985 378//985 416//985
f 380//986 383//986 85//986
f 383//987 385//987 86//987
f 79//988 87//988 86//988
f 80//989 88//989 417//989
f 79//990 388//990 418//990
f 393//991 90//991 89//991
f 88//992 80//992 391//992
f 391//993 390//993 89//993
f 90//994 393//994 395//994
f 395//484 421//484 420//484
f 421//995 395//995 397//995
f 397//996 399//996 423//996
f 423//997 419//997 421//997
f 81//998 91//998 422//998
f 403//999 427//999 424//999
f 81//1000 401//1000 425//1000
f 426//1001 402//1001 406//1001
f 406//1002 405//1002 92//1002
f 468//1003 92//1003 407//1003
f 407//1004 409//1004 429//1004
f 429//1005 409//1005 408//1005
f 408//1006 411//1006 431//1006
f 430//1007 410//1007 82//1007
f 82//492 434//492 433//492
f 435//1008 413//1008 83//1008
f 83//1009 439//1009 438//1009
f 434//1010 82//1010 414//1010
f 414//1011 436//1011 432//1011
f 84//1012 93//1012 440//1012
f 439//1013 83//1013 416//1013
f 416//1014 441//1014 437//1014
f 88//1015 94//1015 451//1015
f 449//1016 87//1016 418//1016
f 418//1017 452//1017 450//1017
f 419//1018 423//1018 461//1018
f 420//1019 458//1019 456//1019
f 422//1020 91//1020 463//1020
f 427//1021 467//1021 464//1021
f 91//1022 425//1022 465//1022
f 466//1023 426//1023 92//1023
f 92//504 468//504 470//504
f 428//1024 473//1024 97//1024
f 429//1025 431//1025 476//1025
f 430//1026 433//1026 477//1026
f 432//1027 436//1027 481//1027
f 438//1028 483//1028 480//1028
f 441//1029 485//1029 482//1029
f 484//1030 440//1030 93//1030
f 93//511 486//511 488//511
f 444//1031 85//1031 86//1031
f 86//1032 445//1032 447//1032
f 447//1033 442//1033 444//1033
f 93//1034 84//1034 85//1034
f 85//513 444//513 443//513
f 489//1035 442//1035 447//1035
f 447//1036 446//1036 95//1036
f 443//1037 491//1037 486//1037
f 86//1038 87//1038 449//1038
f 446//1039 448//1039 96//1039
f 96//1040 448//1040 450//1040
f 450//1041 452//1041 493//1041
f 492//1042 451//1042 94//1042
f 94//519 496//519 495//519
f 90//1043 456//1043 454//1043
f 89//1044 454//1044 94//1044
f 455//1045 502//1045 498//1045
f 496//1046 94//1046 454//1046
f 454//1047 497//1047 494//1047
f 458//1048 505//1048 500//1048
f 457//1049 461//1049 506//1049
f 460//1050 462//1050 510//1050
f 463//1051 465//1051 512//1051
f 467//1052 514//1052 511//1052
f 513//1053 466//1053 470//1053
f 470//1054 469//1054 97//1054
f 473//1055 515//1055 567//1055
f 472//1056 475//1056 520//1056
f 518//1057 474//1057 477//1057
f 477//1058 479//1058 522//1058
f 522//1059 479//1059 478//1059
f 478//1060 481//1060 525//1060
f 483//1061 528//1061 523//1061
f 485//1062 531//1062 526//1062
f 529//1063 484//1063 488//1063
f 488//1064 487//1064 533//1064
f 490//1065 536//1065 533//1065
f 489//1066 95//1066 538//1066
f 495//1067 546//1067 541//1067
f 96//1068 493//1068 543//1068
f 544//1069 494//1069 497//1069
f 497//1070 499//1070 548//1070
f 548//1071 499//1071 498//1071
f 498//1072 502//1072 551//1072
f 504//1073 554//1073 549//1073
f 552//1074 503//1074 506//1074
f 506//1075 508//1075 556//1075
f 556//1076 508//1076 507//1076
f 507//1077 510//1077 559//1077
f 509//1078 512//1078 562//1078
f 514//1079 565//1079 560//1079
f 97//1080 567//1080 563//1080
f 566//549 517//549 519//549
f 519//549 521//549 524//549
f 524//549 527//549 530//549
f 532//549 535//549 537//549
f 524//549 530//549 532//549
f 519//549 524//549 532//549
f 537//549 539//549 542//549
f 519//549 532//549 537//549
f 561//549 564//549 566//549
f 566//549 519//549 537//549
f 537//549 542//549 545//549
f 537//549 545//549 547//549
f 561//549 566//549 537//549
f 555//549 558//549 561//549
f 550//549 553//549 555//549
f 537//549 547//549 550//549
f 555//549 561//549 537//549
f 95//1081 96//1081 540//1081
