# Blender 5.2.1 LTS
# www.blender.org
o Sarcophagus
v -0.307316 -0.480769 0.486498
v -0.305316 -0.450000 0.500000
v -0.342863 -0.450000 0.486498
v -0.305316 0.065385 0.500000
v -0.307316 0.096154 0.486498
v -0.342863 0.065385 0.486498
v -0.418312 -0.480769 -0.262869
v -0.467112 -0.450000 -0.262869
v -0.420312 -0.450000 -0.276371
v -0.418312 0.096154 -0.262869
v -0.420312 0.065385 -0.276371
v -0.467112 0.065385 -0.262869
v 0.288091 -0.480769 0.486498
v 0.323638 -0.450000 0.486498
v 0.286091 -0.450000 0.500000
v 0.288091 0.096154 0.486498
v 0.286091 0.065385 0.500000
v 0.323638 0.065385 0.486498
v 0.399087 -0.480769 -0.262869
v 0.401087 -0.450000 -0.276371
v 0.447887 -0.450000 -0.262869
v 0.399087 0.096154 -0.262869
v 0.447887 0.065385 -0.262869
v 0.401087 0.065385 -0.276371
v -0.469351 -0.500000 -0.128692
v -0.469351 -0.480769 -0.120253
v -0.500000 -0.480769 -0.128692
v -0.469351 0.096154 -0.120253
v -0.469351 0.115385 -0.128692
v -0.500000 0.096154 -0.128692
v -0.469351 -0.500000 -0.154008
v -0.500000 -0.480769 -0.154008
v -0.469351 -0.480769 -0.162447
v -0.469351 0.115385 -0.154008
v -0.469351 0.096154 -0.162447
v -0.500000 0.096154 -0.154008
v 0.450126 -0.500000 -0.128692
v 0.480775 -0.480769 -0.128692
v 0.450126 -0.480769 -0.120253
v 0.450126 0.115385 -0.128692
v 0.450126 0.096154 -0.120253
v 0.480775 0.096154 -0.128692
v 0.450126 -0.500000 -0.154008
v 0.450126 -0.480769 -0.162447
v 0.480775 -0.480769 -0.154008
v 0.450126 0.115385 -0.154008
v 0.480775 0.096154 -0.154008
v 0.450126 0.096154 -0.162447
v -0.251603 0.211538 0.479747
v -0.250148 0.238462 0.491561
v -0.282684 0.238462 0.479747
v -0.250148 0.376923 0.491561
v -0.251603 0.403846 0.479747
v -0.282684 0.376923 0.479747
v -0.342234 0.211538 -0.256118
v -0.384956 0.238462 -0.256118
v -0.343689 0.238462 -0.267932
v -0.342234 0.403846 -0.256118
v -0.343689 0.376923 -0.267932
v -0.384956 0.376923 -0.256118
v 0.330062 0.211538 0.479747
v 0.361143 0.238462 0.479747
v 0.328019 0.238462 0.491561
v 0.330062 0.403846 0.479747
v 0.328019 0.376923 0.491561
v 0.361143 0.376923 0.479747
v 0.457278 0.211538 -0.256118
v 0.459320 0.238462 -0.267932
v 0.500000 0.238462 -0.256118
v 0.457278 0.403846 -0.256118
v 0.500000 0.376923 -0.256118
v 0.459320 0.376923 -0.267932
v -0.233352 0.355769 -0.244304
v -0.233352 0.378846 -0.234177
v -0.270131 0.378846 -0.244304
v -0.233352 0.467308 -0.234177
v -0.233352 0.490385 -0.244304
v -0.270131 0.467308 -0.244304
v -0.233352 0.355769 -0.409705
v -0.270131 0.378846 -0.409705
v -0.233352 0.378846 -0.419831
v -0.233352 0.490385 -0.409705
v -0.233352 0.467308 -0.419831
v -0.270131 0.467308 -0.409705
v 0.214127 0.355769 -0.244304
v 0.250906 0.378846 -0.244304
v 0.214127 0.378846 -0.234177
v 0.214127 0.490385 -0.244304
v 0.214127 0.467308 -0.234177
v 0.250906 0.467308 -0.244304
v 0.214127 0.355769 -0.409705
v 0.214127 0.378846 -0.419831
v 0.250906 0.378846 -0.409705
v 0.214127 0.490385 -0.409705
v 0.250906 0.467308 -0.409705
v 0.214127 0.467308 -0.419831
v -0.334494 0.298077 -0.402110
v -0.334494 0.325000 -0.390295
v -0.377403 0.325000 -0.402110
v -0.334494 0.444231 -0.390295
v -0.334494 0.471154 -0.402110
v -0.377403 0.444231 -0.402110
v -0.334494 0.298077 -0.488186
v -0.377403 0.325000 -0.488186
v -0.334494 0.325000 -0.500000
v -0.334494 0.471154 -0.488186
v -0.334494 0.444231 -0.500000
v -0.377403 0.444231 -0.488186
v 0.315269 0.298077 -0.402110
v 0.358178 0.325000 -0.402110
v 0.315269 0.325000 -0.390295
v 0.315269 0.471154 -0.402110
v 0.315269 0.444231 -0.390295
v 0.358178 0.444231 -0.402110
v 0.315269 0.298077 -0.488186
v 0.315269 0.325000 -0.500000
v 0.358178 0.325000 -0.488186
v 0.315269 0.471154 -0.488186
v 0.358178 0.444231 -0.488186
v 0.315269 0.444231 -0.500000
v -0.061716 0.384615 -0.164979
v -0.061716 0.400000 -0.158228
v -0.086236 0.400000 -0.164979
v -0.061716 0.484615 -0.158228
v -0.061716 0.500000 -0.164979
v -0.086236 0.484615 -0.164979
v -0.061716 0.384615 -0.252743
v -0.086236 0.400000 -0.252743
v -0.061716 0.400000 -0.259494
v -0.061716 0.500000 -0.252743
v -0.061716 0.484615 -0.259494
v -0.086236 0.484615 -0.252743
v 0.042491 0.384615 -0.164979
v 0.067010 0.400000 -0.164979
v 0.042491 0.400000 -0.158228
v 0.042491 0.500000 -0.164979
v 0.042491 0.484615 -0.158228
v 0.067010 0.484615 -0.164979
v 0.042491 0.384615 -0.252743
v 0.042491 0.400000 -0.259494
v 0.067010 0.400000 -0.252743
v 0.042491 0.500000 -0.252743
v 0.067010 0.484615 -0.252743
v 0.042491 0.484615 -0.259494
v -0.316105 0.336538 -0.094937
v -0.316105 0.355769 -0.086498
v -0.346754 0.355769 -0.094937
v -0.316105 0.451923 -0.086498
v -0.316105 0.471154 -0.094937
v -0.346754 0.451923 -0.094937
v -0.316105 0.336538 -0.137131
v -0.346754 0.355769 -0.137131
v -0.316105 0.355769 -0.145570
v -0.316105 0.471154 -0.137131
v -0.316105 0.451923 -0.145570
v -0.346754 0.451923 -0.137131
v 0.296880 0.336538 -0.094937
v 0.327529 0.355769 -0.094937
v 0.296880 0.355769 -0.086498
v 0.296880 0.471154 -0.094937
v 0.296880 0.451923 -0.086498
v 0.327529 0.451923 -0.094937
v 0.296880 0.336538 -0.137131
v 0.296880 0.355769 -0.145570
v 0.327529 0.355769 -0.137131
v 0.296880 0.471154 -0.137131
v 0.327529 0.451923 -0.137131
v 0.296880 0.451923 -0.145570
vn -0.3152 -0.3641 0.8764
vn -0.3152 0.3641 0.8764
vn -0.2538 -0.4025 -0.8796
vn -0.2538 0.4025 -0.8796
vn 0.3152 -0.3641 0.8764
vn 0.3152 0.3641 0.8764
vn 0.2538 -0.4025 -0.8796
vn 0.2538 0.4025 -0.8796
vn -0.5313 -0.8426 0.0881
vn -0.3384 -0.0000 0.9410
vn -0.6514 0.7526 0.0965
vn -0.2772 -0.0000 -0.9608
vn -0.0000 -0.4018 -0.9157
vn -0.0000 0.4018 -0.9157
vn 0.2772 -0.0000 -0.9608
vn 0.6514 -0.7526 0.0965
vn 0.5313 0.8426 0.0881
vn 0.3384 -0.0000 0.9410
vn -0.0000 -0.4018 0.9157
vn -0.0000 0.4018 0.9157
vn -0.0000 -1.0000 -0.0000
vn -0.9865 -0.0000 0.1636
vn -0.0000 -0.0000 1.0000
vn -0.0000 1.0000 -0.0000
vn -0.0000 -0.0000 -1.0000
vn 0.9865 -0.0000 0.1636
vn -0.2445 -0.3896 0.8879
vn -0.2445 0.3896 0.8879
vn -0.2445 -0.3896 -0.8879
vn -0.2445 0.3896 -0.8879
vn 0.2445 -0.3896 0.8879
vn 0.2445 0.3896 0.8879
vn 0.2445 -0.3896 -0.8879
vn 0.2445 0.3896 -0.8879
vn -0.5315 -0.8471 -0.0000
vn -0.2655 -0.0000 0.9641
vn -0.5315 0.8471 -0.0000
vn -0.2655 -0.0000 -0.9641
vn 0.2655 -0.0000 -0.9641
vn 0.5315 -0.8471 -0.0000
vn 0.5315 0.8471 -0.0000
vn 0.2655 -0.0000 0.9641
vn -1.0000 -0.0000 -0.0000
vn 1.0000 -0.0000 -0.0000
vn -0.3175 -0.3666 0.8745
vn -0.3175 0.3666 0.8745
vn -0.2522 -0.4002 -0.8810
vn -0.2522 0.4002 -0.8810
vn 0.3132 -0.3616 0.8782
vn 0.3132 0.3616 0.8782
vn 0.2550 -0.4047 -0.8782
vn 0.2550 0.4047 -0.8782
vn -0.5317 -0.8437 0.0739
vn -0.3413 -0.0000 0.9400
vn -0.6526 0.7534 0.0804
vn -0.2752 -0.0000 -0.9614
vn 0.2789 -0.0000 -0.9603
vn 0.6506 -0.7511 0.1125
vn 0.5305 0.8418 0.1001
vn 0.3359 -0.0000 0.9419
vn -0.9905 -0.0000 0.1377
vn 0.9827 -0.0000 0.1854
vn -0.6514 -0.7526 0.0965
vn -0.5313 0.8426 0.0881
vn 0.5313 -0.8426 0.0881
vn 0.6514 0.7526 0.0965
vn -0.6526 -0.7534 0.0804
vn -0.5317 0.8437 0.0739
vn 0.5305 -0.8418 0.1001
vn 0.6506 0.7511 0.1125
s 0
f 1//1 2//1 3//1
f 4//2 5//2 6//2
f 7//3 8//3 9//3
f 10//4 11//4 12//4
f 13//5 14//5 15//5
f 16//6 17//6 18//6
f 19//7 20//7 21//7
f 22//8 23//8 24//8
f 7//9 3//9 8//9
f 4//10 3//10 2//10
f 10//11 6//11 5//11
f 9//12 12//12 11//12
f 7//13 20//13 19//13
f 22//14 11//14 10//14
f 21//15 24//15 23//15
f 19//16 14//16 13//16
f 22//17 18//17 23//17
f 15//18 18//18 17//18
f 1//19 15//19 2//19
f 5//20 17//20 16//20
f 19//21 1//21 7//21
f 6//22 8//22 3//22
f 17//23 2//23 15//23
f 10//24 16//24 22//24
f 11//25 20//25 9//25
f 23//26 14//26 21//26
f 25//27 26//27 27//27
f 28//28 29//28 30//28
f 31//29 32//29 33//29
f 34//30 35//30 36//30
f 37//31 38//31 39//31
f 40//32 41//32 42//32
f 43//33 44//33 45//33
f 46//34 47//34 48//34
f 25//35 32//35 31//35
f 28//36 27//36 26//36
f 34//37 30//37 29//37
f 33//38 36//38 35//38
f 31//13 44//13 43//13
f 46//14 35//14 34//14
f 45//39 48//39 47//39
f 43//40 38//40 37//40
f 40//41 47//41 46//41
f 39//42 42//42 41//42
f 37//19 26//19 25//19
f 29//20 41//20 40//20
f 43//21 25//21 31//21
f 30//43 32//43 27//43
f 41//23 26//23 39//23
f 34//24 40//24 46//24
f 35//25 44//25 33//25
f 47//44 38//44 45//44
f 49//45 50//45 51//45
f 52//46 53//46 54//46
f 55//47 56//47 57//47
f 58//48 59//48 60//48
f 61//49 62//49 63//49
f 64//50 65//50 66//50
f 67//51 68//51 69//51
f 70//52 71//52 72//52
f 55//53 51//53 56//53
f 52//54 51//54 50//54
f 58//55 54//55 53//55
f 57//56 60//56 59//56
f 67//13 57//13 68//13
f 70//14 59//14 58//14
f 69//57 72//57 71//57
f 67//58 62//58 61//58
f 70//59 66//59 71//59
f 63//60 66//60 65//60
f 49//19 63//19 50//19
f 53//20 65//20 64//20
f 55//21 61//21 49//21
f 54//61 56//61 51//61
f 65//23 50//23 63//23
f 58//24 64//24 70//24
f 59//25 68//25 57//25
f 71//62 62//62 69//62
f 73//27 74//27 75//27
f 76//28 77//28 78//28
f 79//29 80//29 81//29
f 82//30 83//30 84//30
f 85//31 86//31 87//31
f 88//32 89//32 90//32
f 91//33 92//33 93//33
f 94//34 95//34 96//34
f 73//35 80//35 79//35
f 76//36 75//36 74//36
f 82//37 78//37 77//37
f 81//38 84//38 83//38
f 79//13 92//13 91//13
f 94//14 83//14 82//14
f 93//39 96//39 95//39
f 91//40 86//40 85//40
f 88//41 95//41 94//41
f 87//42 90//42 89//42
f 85//19 74//19 73//19
f 77//20 89//20 88//20
f 91//21 73//21 79//21
f 78//43 80//43 75//43
f 89//23 74//23 87//23
f 82//24 88//24 94//24
f 83//25 92//25 81//25
f 95//44 86//44 93//44
f 97//27 98//27 99//27
f 100//28 101//28 102//28
f 103//29 104//29 105//29
f 106//30 107//30 108//30
f 109//31 110//31 111//31
f 112//32 113//32 114//32
f 115//33 116//33 117//33
f 118//34 119//34 120//34
f 97//35 104//35 103//35
f 100//36 99//36 98//36
f 106//37 102//37 101//37
f 105//38 108//38 107//38
f 103//13 116//13 115//13
f 118//14 107//14 106//14
f 117//39 120//39 119//39
f 115//40 110//40 109//40
f 112//41 119//41 118//41
f 111//42 114//42 113//42
f 109//19 98//19 97//19
f 101//20 113//20 112//20
f 115//21 97//21 103//21
f 102//43 104//43 99//43
f 113//23 98//23 111//23
f 106//24 112//24 118//24
f 107//25 116//25 105//25
f 119//44 110//44 117//44
f 121//27 122//27 123//27
f 124//28 125//28 126//28
f 127//29 128//29 129//29
f 130//30 131//30 132//30
f 133//31 134//31 135//31
f 136//32 137//32 138//32
f 139//33 140//33 141//33
f 142//34 143//34 144//34
f 121//35 128//35 127//35
f 124//36 123//36 122//36
f 130//37 126//37 125//37
f 129//38 132//38 131//38
f 127//13 140//13 139//13
f 142//14 131//14 130//14
f 141//39 144//39 143//39
f 139//40 134//40 133//40
f 136//41 143//41 142//41
f 135//42 138//42 137//42
f 133//19 122//19 121//19
f 125//20 137//20 136//20
f 139//21 121//21 127//21
f 126//43 128//43 123//43
f 137//23 122//23 135//23
f 130//24 136//24 142//24
f 131//25 140//25 129//25
f 143//44 134//44 141//44
f 145//27 146//27 147//27
f 148//28 149//28 150//28
f 151//29 152//29 153//29
f 154//30 155//30 156//30
f 157//31 158//31 159//31
f 160//32 161//32 162//32
f 163//33 164//33 165//33
f 166//34 167//34 168//34
f 145//35 152//35 151//35
f 148//36 147//36 146//36
f 154//37 150//37 149//37
f 153//38 156//38 155//38
f 151//13 164//13 163//13
f 166//14 155//14 154//14
f 165//39 168//39 167//39
f 163//40 158//40 157//40
f 160//41 167//41 166//41
f 159//42 162//42 161//42
f 157//19 146//19 145//19
f 149//20 161//20 160//20
f 163//21 145//21 151//21
f 150//43 152//43 147//43
f 161//23 146//23 159//23
f 154//24 160//24 166//24
f 155//25 164//25 153//25
f 167//44 158//44 165//44
f 7//63 1//63 3//63
f 4//10 6//10 3//10
f 10//64 12//64 6//64
f 9//12 8//12 12//12
f 7//13 9//13 20//13
f 22//14 24//14 11//14
f 21//15 20//15 24//15
f 19//65 21//65 14//65
f 22//66 16//66 18//66
f 15//18 14//18 18//18
f 1//19 13//19 15//19
f 5//20 4//20 17//20
f 19//21 13//21 1//21
f 6//22 12//22 8//22
f 17//23 4//23 2//23
f 10//24 5//24 16//24
f 11//25 24//25 20//25
f 23//26 18//26 14//26
f 25//35 27//35 32//35
f 28//36 30//36 27//36
f 34//37 36//37 30//37
f 33//38 32//38 36//38
f 31//13 33//13 44//13
f 46//14 48//14 35//14
f 45//39 44//39 48//39
f 43//40 45//40 38//40
f 40//41 42//41 47//41
f 39//42 38//42 42//42
f 37//19 39//19 26//19
f 29//20 28//20 41//20
f 43//21 37//21 25//21
f 30//43 36//43 32//43
f 41//23 28//23 26//23
f 34//24 29//24 40//24
f 35//25 48//25 44//25
f 47//44 42//44 38//44
f 55//67 49//67 51//67
f 52//54 54//54 51//54
f 58//68 60//68 54//68
f 57//56 56//56 60//56
f 67//13 55//13 57//13
f 70//14 72//14 59//14
f 69//57 68//57 72//57
f 67//69 69//69 62//69
f 70//70 64//70 66//70
f 63//60 62//60 66//60
f 49//19 61//19 63//19
f 53//20 52//20 65//20
f 55//21 67//21 61//21
f 54//61 60//61 56//61
f 65//23 52//23 50//23
f 58//24 53//24 64//24
f 59//25 72//25 68//25
f 71//62 66//62 62//62
f 73//35 75//35 80//35
f 76//36 78//36 75//36
f 82//37 84//37 78//37
f 81//38 80//38 84//38
f 79//13 81//13 92//13
f 94//14 96//14 83//14
f 93//39 92//39 96//39
f 91//40 93//40 86//40
f 88//41 90//41 95//41
f 87//42 86//42 90//42
f 85//19 87//19 74//19
f 77//20 76//20 89//20
f 91//21 85//21 73//21
f 78//43 84//43 80//43
f 89//23 76//23 74//23
f 82//24 77//24 88//24
f 83//25 96//25 92//25
f 95//44 90//44 86//44
f 97//35 99//35 104//35
f 100//36 102//36 99//36
f 106//37 108//37 102//37
f 105//38 104//38 108//38
f 103//13 105//13 116//13
f 118//14 120//14 107//14
f 117//39 116//39 120//39
f 115//40 117//40 110//40
f 112//41 114//41 119//41
f 111//42 110//42 114//42
f 109//19 111//19 98//19
f 101//20 100//20 113//20
f 115//21 109//21 97//21
f 102//43 108//43 104//43
f 113//23 100//23 98//23
f 106//24 101//24 112//24
f 107//25 120//25 116//25
f 119//44 114//44 110//44
f 121//35 123//35 128//35
f 124//36 126//36 123//36
f 130//37 132//37 126//37
f 129//38 128//38 132//38
f 127//13 129//13 140//13
f 142//14 144//14 131//14
f 141//39 140//39 144//39
f 139//40 141//40 134//40
f 136//41 138//41 143//41
f 135//42 134//42 138//42
f 133//19 135//19 122//19
f 125//20 124//20 137//20
f 139//21 133//21 121//21
f 126//43 132//43 128//43
f 137//23 124//23 122//23
f 130//24 125//24 136//24
f 131//25 144//25 140//25
f 143//44 138//44 134//44
f 145//35 147//35 152//35
f 148//36 150//36 147//36
f 154//37 156//37 150//37
f 153//38 152//38 156//38
f 151//13 153//13 164//13
f 166//14 168//14 155//14
f 165//39 164//39 168//39
f 163//40 165//40 158//40
f 160//41 162//41 167//41
f 159//42 158//42 162//42
f 157//19 159//19 146//19
f 149//20 148//20 161//20
f 163//21 157//21 145//21
f 150//43 156//43 152//43
f 161//23 148//23 146//23
f 154//24 149//24 160//24
f 155//25 168//25 164//25
f 167//44 162//44 158//44
