# Blender 5.2.1 LTS
# www.blender.org
o Stairs
v -0.238835 -0.450111 0.495911
v -0.238802 -0.445839 0.500000
v -0.238835 -0.448908 0.498779
v -0.241408 -0.448584 0.497780
v -0.238835 -0.441552 0.495911
v -0.242750 -0.445824 0.495877
v -0.238835 -0.442755 0.498779
v -0.241275 -0.442938 0.497780
v -0.241607 -0.445832 0.498806
v -0.238835 -0.450111 0.451637
v -0.242750 -0.445839 0.451671
v -0.241275 -0.448725 0.449768
v -0.241607 -0.445832 0.448742
v -0.238835 -0.448908 0.448769
v -0.238835 -0.441552 0.451637
v -0.238802 -0.445824 0.447548
v -0.240698 -0.443052 0.449075
v -0.241581 -0.442755 0.451637
v 0.238835 -0.450111 0.495911
v 0.242750 -0.445839 0.495877
v 0.241581 -0.448908 0.495911
v 0.240625 -0.448584 0.498599
v 0.241607 -0.445831 0.498806
v 0.238835 -0.441552 0.495911
v 0.238802 -0.445824 0.500000
v 0.240698 -0.443052 0.498473
v 0.241581 -0.442755 0.495911
v 0.238835 -0.450111 0.451637
v 0.238802 -0.445839 0.447548
v 0.240698 -0.448611 0.449075
v 0.241607 -0.445831 0.448742
v 0.241581 -0.448908 0.451637
v 0.238835 -0.441552 0.451637
v 0.242750 -0.445824 0.451671
v 0.241275 -0.442938 0.449768
v 0.238835 -0.442755 0.448769
v -0.230097 -0.496675 0.437020
v -0.233010 -0.496675 0.433978
v -0.230097 -0.466888 0.437020
v -0.230091 -0.463563 0.433338
v -0.233010 -0.466888 0.433978
v -0.230091 -0.500000 0.433098
v -0.233010 -0.496675 0.432457
v -0.230097 -0.496675 0.429416
v -0.230097 -0.466888 0.429416
v -0.233010 -0.466888 0.432457
v 0.230091 -0.500000 0.433338
v 0.233010 -0.496675 0.433978
v 0.230097 -0.496675 0.437020
v 0.230097 -0.466888 0.437020
v 0.233010 -0.466888 0.433978
v 0.230097 -0.496675 0.429416
v 0.233010 -0.496675 0.432457
v 0.230091 -0.463563 0.433098
v 0.233010 -0.466888 0.432457
v 0.230097 -0.466888 0.429416
v -0.238835 -0.364516 0.411419
v -0.238802 -0.360243 0.415508
v -0.240698 -0.363016 0.413981
v -0.241581 -0.363312 0.411419
v -0.238835 -0.355956 0.411419
v -0.242750 -0.360229 0.411385
v -0.240625 -0.357483 0.414106
v -0.241581 -0.357159 0.411419
v -0.241607 -0.360236 0.414314
v -0.238835 -0.364516 0.367145
v -0.242750 -0.360243 0.367179
v -0.241581 -0.363312 0.367145
v -0.240625 -0.362988 0.364457
v -0.241607 -0.360236 0.364249
v -0.238835 -0.355956 0.367145
v -0.238802 -0.360229 0.363056
v -0.240698 -0.357456 0.364583
v -0.241581 -0.357159 0.367145
v 0.238835 -0.364516 0.411419
v 0.242750 -0.360243 0.411385
v 0.241275 -0.363130 0.413288
v 0.241607 -0.360236 0.414314
v 0.238835 -0.363312 0.414286
v 0.238835 -0.355956 0.411419
v 0.238802 -0.360229 0.415508
v 0.240625 -0.357342 0.413967
v 0.241581 -0.357159 0.411419
v 0.238835 -0.364516 0.367145
v 0.238802 -0.360243 0.363056
v 0.238835 -0.363312 0.364277
v 0.241408 -0.362988 0.365276
v 0.241607 -0.360236 0.364249
v 0.238835 -0.355956 0.367145
v 0.242750 -0.360229 0.367179
v 0.241275 -0.357342 0.365276
v 0.238835 -0.357159 0.364277
v -0.230097 -0.411080 0.352528
v -0.233010 -0.411080 0.349486
v -0.230097 -0.381292 0.352528
v -0.230097 -0.378211 0.349486
v -0.233010 -0.381292 0.349486
v -0.230091 -0.414404 0.348605
v -0.233010 -0.411080 0.347965
v -0.230097 -0.411080 0.344923
v -0.230097 -0.378211 0.347965
v -0.230097 -0.381292 0.344923
v -0.233010 -0.381292 0.347965
v 0.230091 -0.414404 0.348846
v 0.233010 -0.411080 0.349486
v 0.230097 -0.411080 0.352528
v 0.230097 -0.378211 0.349486
v 0.230097 -0.381292 0.352528
v 0.233010 -0.381292 0.349486
v 0.230097 -0.411080 0.344923
v 0.233010 -0.411080 0.347965
v 0.230097 -0.378211 0.347965
v 0.233010 -0.381292 0.347965
v 0.230097 -0.381292 0.344923
v -0.238835 -0.278920 0.326926
v -0.238802 -0.274647 0.331015
v -0.240698 -0.277420 0.329489
v -0.241581 -0.277717 0.326926
v -0.238835 -0.270360 0.326926
v -0.242750 -0.274633 0.326892
v -0.238835 -0.271564 0.329794
v -0.241275 -0.271746 0.328795
v -0.241607 -0.274640 0.329822
v -0.238835 -0.278920 0.282652
v -0.242750 -0.274647 0.282687
v -0.241275 -0.277534 0.280783
v -0.241607 -0.274640 0.279757
v -0.238835 -0.277717 0.279785
v -0.238835 -0.270360 0.282652
v -0.238802 -0.274633 0.278564
v -0.240698 -0.271860 0.280090
v -0.241581 -0.271564 0.282652
v 0.238835 -0.278920 0.326926
v 0.242750 -0.274647 0.326892
v 0.241275 -0.277534 0.328795
v 0.241607 -0.274640 0.329822
v 0.238835 -0.277717 0.329794
v 0.238835 -0.270360 0.326926
v 0.238802 -0.274633 0.331015
v 0.240698 -0.271860 0.329489
v 0.241581 -0.271564 0.326926
v 0.238835 -0.278920 0.282652
v 0.238802 -0.274647 0.278564
v 0.240698 -0.277420 0.280090
v 0.241607 -0.274640 0.279757
v 0.241581 -0.277717 0.282652
v 0.238835 -0.270360 0.282652
v 0.242750 -0.274633 0.282687
v 0.241275 -0.271746 0.280783
v 0.238835 -0.271564 0.279785
v -0.230097 -0.328565 0.264994
v -0.230097 -0.325484 0.268035
v -0.233010 -0.325484 0.264994
v -0.230097 -0.295697 0.268035
v -0.230091 -0.292372 0.264353
v -0.233010 -0.295697 0.264994
v -0.230097 -0.328565 0.263473
v -0.233010 -0.325484 0.263473
v -0.230097 -0.325484 0.260431
v -0.230097 -0.295697 0.260431
v -0.233010 -0.295697 0.263473
v 0.230097 -0.328565 0.264994
v 0.233010 -0.325484 0.264994
v 0.230097 -0.325484 0.268035
v 0.230097 -0.295697 0.268035
v 0.233010 -0.295697 0.264994
v 0.230097 -0.328565 0.263473
v 0.230097 -0.325484 0.260431
v 0.233010 -0.325484 0.263473
v 0.230091 -0.292372 0.264113
v 0.233010 -0.295697 0.263473
v 0.230097 -0.295697 0.260431
v -0.238835 -0.193324 0.242434
v -0.238802 -0.189052 0.246523
v -0.240698 -0.191825 0.244996
v -0.241581 -0.192121 0.242434
v -0.238835 -0.184765 0.242434
v -0.242750 -0.189037 0.242400
v -0.238835 -0.185968 0.245302
v -0.241275 -0.186151 0.244303
v -0.241607 -0.189045 0.245330
v -0.238835 -0.193324 0.198160
v -0.242750 -0.189052 0.198194
v -0.241275 -0.191938 0.196291
v -0.241607 -0.189045 0.195265
v -0.238835 -0.192121 0.195292
v -0.238835 -0.184765 0.198160
v -0.238802 -0.189037 0.194071
v -0.240698 -0.186265 0.195598
v -0.241581 -0.185968 0.198160
v 0.238835 -0.193324 0.242434
v 0.242750 -0.189052 0.242400
v 0.241275 -0.191938 0.244303
v 0.241607 -0.189045 0.245330
v 0.238835 -0.192121 0.245302
v 0.238835 -0.184765 0.242434
v 0.238802 -0.189037 0.246523
v 0.240698 -0.186265 0.244996
v 0.241581 -0.185968 0.242434
v 0.238835 -0.193324 0.198160
v 0.238802 -0.189052 0.194071
v 0.240698 -0.191825 0.195598
v 0.241607 -0.189045 0.195265
v 0.241581 -0.192121 0.198160
v 0.238835 -0.184765 0.198160
v 0.242750 -0.189037 0.198194
v 0.241275 -0.186151 0.196291
v 0.238835 -0.185968 0.195292
v -0.230097 -0.239888 0.183543
v -0.233240 -0.239882 0.179861
v -0.230097 -0.210101 0.183543
v -0.230091 -0.206776 0.179861
v -0.233010 -0.210101 0.180501
v -0.230091 -0.243213 0.179621
v -0.230097 -0.239888 0.175939
v -0.230097 -0.210101 0.175939
v -0.233010 -0.210101 0.178980
v 0.230091 -0.243213 0.179861
v 0.233010 -0.239888 0.180501
v 0.230097 -0.239888 0.183543
v 0.230097 -0.210101 0.183543
v 0.233010 -0.210101 0.180501
v 0.230097 -0.239888 0.175939
v 0.233010 -0.239888 0.178980
v 0.230091 -0.206776 0.179621
v 0.233010 -0.210101 0.178980
v 0.230097 -0.210101 0.175939
v -0.238835 -0.107729 0.157942
v -0.238802 -0.103456 0.162031
v -0.238835 -0.106525 0.160810
v -0.241408 -0.106201 0.159811
v -0.238835 -0.099169 0.157942
v -0.242750 -0.103442 0.157908
v -0.238835 -0.100373 0.160810
v -0.241275 -0.100555 0.159811
v -0.241607 -0.103449 0.160837
v -0.238835 -0.107729 0.113668
v -0.242750 -0.103456 0.113702
v -0.241275 -0.106343 0.111799
v -0.241607 -0.103449 0.110772
v -0.238835 -0.106525 0.110800
v -0.238835 -0.099169 0.113668
v -0.238802 -0.103442 0.109579
v -0.238835 -0.100373 0.110800
v -0.241408 -0.100697 0.111799
v 0.238835 -0.107729 0.157942
v 0.242750 -0.103456 0.157908
v 0.241275 -0.106343 0.159811
v 0.241607 -0.103449 0.160837
v 0.238835 -0.106525 0.160810
v 0.238835 -0.099169 0.157942
v 0.238802 -0.103442 0.162031
v 0.240698 -0.100669 0.160504
v 0.241581 -0.100373 0.157942
v 0.238835 -0.107729 0.113668
v 0.238802 -0.103456 0.109579
v 0.240698 -0.106229 0.111105
v 0.241607 -0.103449 0.110772
v 0.241581 -0.106525 0.113668
v 0.238835 -0.099169 0.113668
v 0.242750 -0.103442 0.113702
v 0.241275 -0.100555 0.111799
v 0.238835 -0.100373 0.110800
v -0.230097 -0.154293 0.099051
v -0.233010 -0.154293 0.096009
v -0.230097 -0.124506 0.099051
v -0.230091 -0.121181 0.095369
v -0.233010 -0.124506 0.096009
v -0.230091 -0.157618 0.095128
v -0.233010 -0.154293 0.094488
v -0.230097 -0.154293 0.091446
v -0.230097 -0.124506 0.091446
v -0.233010 -0.124506 0.094488
v 0.230091 -0.157618 0.095369
v 0.233010 -0.154293 0.096009
v 0.230097 -0.154293 0.099051
v 0.230097 -0.124506 0.099051
v 0.233010 -0.124506 0.096009
v 0.230097 -0.154293 0.091446
v 0.233010 -0.154293 0.094488
v 0.230091 -0.121181 0.095128
v 0.233010 -0.124506 0.094488
v 0.230097 -0.124506 0.091446
v -0.238835 -0.022133 0.073449
v -0.238802 -0.017861 0.077538
v -0.238835 -0.020930 0.076317
v -0.241408 -0.020606 0.075318
v -0.238835 -0.013574 0.073449
v -0.242744 -0.017864 0.073431
v -0.238835 -0.014777 0.076317
v -0.241379 -0.014982 0.075249
v -0.241607 -0.017853 0.076345
v -0.238835 -0.022133 0.029175
v -0.242755 -0.017847 0.029223
v -0.241275 -0.020747 0.027306
v -0.241607 -0.017853 0.026280
v -0.238835 -0.020930 0.026308
v -0.238835 -0.013574 0.029175
v -0.238802 -0.017846 0.025087
v -0.238835 -0.014777 0.026308
v -0.241301 -0.015086 0.027230
v 0.238835 -0.022133 0.073449
v 0.242744 -0.017843 0.073431
v 0.241581 -0.020930 0.073449
v 0.240625 -0.020606 0.076137
v 0.241607 -0.017853 0.076345
v 0.238835 -0.013574 0.073449
v 0.238802 -0.017846 0.077538
v 0.240698 -0.015073 0.076012
v 0.241581 -0.014777 0.073449
v 0.238835 -0.022133 0.029175
v 0.238802 -0.017861 0.025087
v 0.238835 -0.020930 0.026308
v 0.241301 -0.020620 0.027230
v 0.241607 -0.017853 0.026280
v 0.238835 -0.013574 0.029175
v 0.242755 -0.017860 0.029223
v 0.241275 -0.014960 0.027306
v 0.238835 -0.014777 0.026308
v -0.230097 -0.068697 0.014558
v -0.233240 -0.068691 0.010876
v -0.230097 -0.038910 0.014558
v -0.230091 -0.035585 0.010876
v -0.233010 -0.038910 0.011517
v -0.230091 -0.072022 0.010636
v -0.230097 -0.068697 0.006954
v -0.230097 -0.038910 0.006954
v -0.233010 -0.038910 0.009996
v 0.230091 -0.072022 0.010876
v 0.230097 -0.068697 0.014558
v 0.230097 -0.038910 0.014558
v 0.233010 -0.038910 0.011517
v 0.230097 -0.068697 0.006954
v 0.233240 -0.068691 0.010636
v 0.230091 -0.035585 0.010636
v 0.233010 -0.038910 0.009996
v 0.230097 -0.038910 0.006954
v -0.238835 0.063462 -0.011043
v -0.238802 0.067735 -0.006954
v -0.238835 0.064666 -0.008175
v -0.241408 0.064990 -0.009174
v -0.238835 0.072022 -0.011043
v -0.242750 0.067749 -0.011077
v -0.238835 0.070819 -0.008175
v -0.241275 0.070636 -0.009174
v -0.241607 0.067742 -0.008147
v -0.238835 0.063462 -0.055317
v -0.242750 0.067735 -0.055283
v -0.241581 0.064666 -0.055317
v -0.240625 0.064990 -0.058004
v -0.241607 0.067742 -0.058212
v -0.238835 0.072022 -0.055317
v -0.238802 0.067749 -0.059406
v -0.238835 0.070819 -0.058185
v -0.241408 0.070495 -0.057186
v 0.238835 0.063462 -0.011043
v 0.242750 0.067735 -0.011077
v 0.241275 0.064848 -0.009174
v 0.241607 0.067742 -0.008147
v 0.238835 0.064666 -0.008175
v 0.238835 0.072022 -0.011043
v 0.238802 0.067749 -0.006954
v 0.238835 0.070819 -0.008175
v 0.241408 0.070495 -0.009174
v 0.238835 0.063462 -0.055317
v 0.238802 0.067735 -0.059406
v 0.238835 0.064666 -0.058185
v 0.241408 0.064990 -0.057186
v 0.241607 0.067742 -0.058212
v 0.238835 0.072022 -0.055317
v 0.242750 0.067749 -0.055283
v 0.241275 0.070636 -0.057186
v 0.238835 0.070819 -0.058185
v -0.230097 0.016898 -0.069934
v -0.233240 0.016905 -0.073616
v -0.230097 0.046686 -0.069934
v -0.230091 0.050010 -0.073616
v -0.230091 0.013574 -0.073856
v -0.230097 0.016898 -0.077538
v -0.230097 0.046686 -0.077538
v -0.233240 0.046679 -0.073856
v 0.230091 0.013574 -0.073616
v 0.230097 0.016898 -0.069934
v 0.230097 0.046686 -0.069934
v 0.233240 0.046679 -0.073616
v 0.230097 0.016898 -0.077538
v 0.233240 0.016905 -0.073856
v 0.230091 0.050010 -0.073856
v 0.230097 0.046686 -0.077538
v -0.238835 0.149058 -0.095535
v -0.238802 0.153331 -0.091446
v -0.238835 0.150261 -0.092667
v -0.241301 0.150571 -0.093589
v -0.238835 0.157618 -0.095535
v -0.242755 0.153331 -0.095582
v -0.238835 0.156414 -0.092667
v -0.241288 0.156118 -0.093589
v -0.241607 0.153338 -0.092640
v -0.238835 0.149058 -0.139809
v -0.242744 0.153348 -0.139791
v -0.241581 0.150261 -0.139809
v -0.240558 0.150475 -0.142474
v -0.241607 0.153338 -0.142705
v -0.238835 0.157618 -0.139809
v -0.238802 0.153345 -0.143898
v -0.240698 0.156118 -0.142371
v -0.241581 0.156414 -0.139809
v 0.238835 0.149058 -0.095535
v 0.242755 0.153344 -0.095582
v 0.241288 0.150558 -0.093589
v 0.241607 0.153338 -0.092640
v 0.238835 0.150261 -0.092667
v 0.238835 0.157618 -0.095535
v 0.238802 0.153345 -0.091446
v 0.238835 0.156414 -0.092667
v 0.241301 0.156105 -0.093589
v 0.238835 0.149058 -0.139809
v 0.238802 0.153331 -0.143898
v 0.240698 0.150558 -0.142371
v 0.241607 0.153338 -0.142705
v 0.241581 0.150261 -0.139809
v 0.238835 0.157618 -0.139809
v 0.242744 0.153327 -0.139791
v 0.241379 0.156209 -0.141609
v 0.238835 0.156414 -0.142677
v -0.230097 0.102494 -0.154426
v -0.233010 0.102494 -0.157468
v -0.230097 0.132281 -0.154426
v -0.230091 0.135606 -0.158108
v -0.233010 0.132281 -0.157468
v -0.230091 0.099169 -0.158349
v -0.233010 0.102494 -0.158989
v -0.230097 0.102494 -0.162031
v -0.230097 0.132281 -0.162031
v -0.233010 0.132281 -0.158989
v 0.230091 0.099169 -0.158108
v 0.233010 0.102494 -0.157468
v 0.230097 0.102494 -0.154426
v 0.230097 0.132281 -0.154426
v 0.233010 0.132281 -0.157468
v 0.230097 0.102494 -0.162031
v 0.233010 0.102494 -0.158989
v 0.230091 0.135606 -0.158349
v 0.233010 0.132281 -0.158989
v 0.230097 0.132281 -0.162031
v -0.238835 0.234654 -0.180028
v -0.238802 0.238926 -0.175939
v -0.240625 0.236040 -0.177480
v -0.241581 0.235857 -0.180028
v -0.238835 0.243213 -0.180028
v -0.242750 0.238941 -0.180062
v -0.238835 0.242010 -0.177160
v -0.241275 0.241827 -0.178159
v -0.241607 0.238933 -0.177132
v -0.238835 0.234654 -0.224302
v -0.242750 0.238926 -0.224267
v -0.241275 0.236040 -0.226171
v -0.241607 0.238933 -0.227197
v -0.238835 0.235857 -0.227169
v -0.238835 0.243213 -0.224302
v -0.238802 0.238941 -0.228390
v -0.238835 0.242010 -0.227169
v -0.241408 0.241686 -0.226171
v 0.238835 0.234654 -0.180028
v 0.242750 0.238926 -0.180062
v 0.241581 0.235857 -0.180028
v 0.240625 0.236181 -0.177340
v 0.241607 0.238933 -0.177132
v 0.238835 0.243213 -0.180028
v 0.238802 0.238941 -0.175939
v 0.240698 0.241713 -0.177465
v 0.241581 0.242010 -0.180028
v 0.238835 0.234654 -0.224302
v 0.238802 0.238926 -0.228390
v 0.240698 0.236153 -0.226864
v 0.241607 0.238933 -0.227197
v 0.241581 0.235857 -0.224302
v 0.238835 0.243213 -0.224302
v 0.242750 0.238941 -0.224267
v 0.241275 0.241827 -0.226171
v 0.238835 0.242010 -0.227169
v -0.230097 0.188090 -0.238919
v -0.233240 0.188096 -0.242601
v -0.230097 0.217877 -0.238919
v -0.230091 0.221202 -0.242601
v -0.230091 0.184765 -0.242841
v -0.230097 0.188090 -0.246523
v -0.230097 0.217877 -0.246523
v -0.233240 0.217871 -0.242841
v 0.230091 0.184765 -0.242601
v 0.233010 0.188090 -0.241960
v 0.230097 0.188090 -0.238919
v 0.230097 0.217877 -0.238919
v 0.233240 0.217871 -0.242601
v 0.230097 0.188090 -0.246523
v 0.233010 0.188090 -0.243481
v 0.230091 0.221202 -0.242841
v 0.230097 0.217877 -0.246523
v -0.238835 0.320249 -0.264520
v -0.238802 0.324522 -0.260431
v -0.238835 0.321453 -0.261652
v -0.241408 0.321777 -0.262651
v -0.238835 0.328809 -0.264520
v -0.242750 0.324536 -0.264554
v -0.240625 0.327281 -0.261832
v -0.241581 0.327605 -0.264520
v -0.241607 0.324529 -0.261624
v -0.238835 0.320249 -0.308794
v -0.242750 0.324522 -0.308760
v -0.241581 0.321453 -0.308794
v -0.240625 0.321777 -0.311481
v -0.241607 0.324529 -0.311689
v -0.238835 0.328809 -0.308794
v -0.238802 0.324536 -0.312883
v -0.240698 0.327309 -0.311356
v -0.241581 0.327605 -0.308794
v 0.238835 0.320249 -0.264520
v 0.242750 0.324522 -0.264554
v 0.241581 0.321453 -0.264520
v 0.240625 0.321777 -0.261832
v 0.241607 0.324529 -0.261624
v 0.238835 0.328809 -0.264520
v 0.238802 0.324536 -0.260431
v 0.238835 0.327605 -0.261652
v 0.241408 0.327281 -0.262651
v 0.238835 0.320249 -0.308794
v 0.238802 0.324522 -0.312883
v 0.238835 0.321453 -0.311662
v 0.241408 0.321777 -0.310663
v 0.241607 0.324529 -0.311689
v 0.238835 0.328809 -0.308794
v 0.242750 0.324536 -0.308760
v 0.241275 0.327423 -0.310663
v 0.238835 0.327605 -0.311662
v -0.230097 0.273685 -0.323411
v -0.233010 0.273685 -0.326453
v -0.230097 0.303472 -0.323411
v -0.230097 0.306554 -0.326453
v -0.233010 0.303472 -0.326453
v -0.230091 0.270360 -0.327333
v -0.233010 0.273685 -0.327974
v -0.230097 0.273685 -0.331015
v -0.230097 0.306554 -0.327974
v -0.230097 0.303472 -0.331015
v -0.233010 0.303472 -0.327974
v 0.230091 0.270360 -0.327093
v 0.233010 0.273685 -0.326453
v 0.230097 0.273685 -0.323411
v 0.230097 0.306554 -0.326453
v 0.230097 0.303472 -0.323411
v 0.233010 0.303472 -0.326453
v 0.230097 0.273685 -0.331015
v 0.233010 0.273685 -0.327974
v 0.230097 0.306554 -0.327974
v 0.233010 0.303472 -0.327974
v 0.230097 0.303472 -0.331015
v -0.238835 0.405845 -0.349012
v -0.238802 0.410117 -0.344923
v -0.240698 0.407345 -0.346450
v -0.241581 0.407048 -0.349012
v -0.238835 0.414404 -0.349012
v -0.242750 0.410132 -0.349046
v -0.238835 0.413201 -0.346144
v -0.241275 0.413018 -0.347143
v -0.241607 0.410125 -0.346117
v -0.238835 0.405845 -0.393286
v -0.242750 0.410117 -0.393252
v -0.241275 0.407231 -0.395155
v -0.241607 0.410125 -0.396182
v -0.238835 0.407048 -0.396154
v -0.238835 0.414404 -0.393286
v -0.238802 0.410132 -0.397375
v -0.240698 0.412905 -0.395848
v -0.241581 0.413201 -0.393286
v 0.238835 0.405845 -0.349012
v 0.242750 0.410117 -0.349046
v 0.241275 0.407231 -0.347143
v 0.241607 0.410125 -0.346117
v 0.238835 0.407048 -0.346144
v 0.238835 0.414404 -0.349012
v 0.238802 0.410132 -0.344923
v 0.240698 0.412905 -0.346450
v 0.241581 0.413201 -0.349012
v 0.238835 0.405845 -0.393286
v 0.238802 0.410117 -0.397375
v 0.240698 0.407345 -0.395849
v 0.241607 0.410125 -0.396182
v 0.241581 0.407048 -0.393286
v 0.238835 0.414404 -0.393286
v 0.242750 0.410132 -0.393252
v 0.241275 0.413018 -0.395155
v 0.238835 0.413201 -0.396154
v -0.230097 0.359281 -0.407903
v -0.233010 0.359281 -0.410945
v -0.230097 0.389068 -0.407903
v -0.230091 0.392393 -0.411585
v -0.230091 0.355956 -0.411826
v -0.233010 0.359281 -0.412466
v -0.230097 0.359281 -0.415508
v -0.230097 0.389068 -0.415508
v -0.233240 0.389062 -0.411826
v 0.230097 0.356199 -0.410945
v 0.230097 0.359281 -0.407903
v 0.230097 0.389068 -0.407903
v 0.233010 0.389068 -0.410945
v 0.230097 0.356199 -0.412466
v 0.230097 0.359281 -0.415508
v 0.233240 0.359287 -0.411826
v 0.230091 0.392393 -0.411826
v 0.233010 0.389068 -0.412466
v 0.230097 0.389068 -0.415508
v -0.238835 0.491440 -0.433505
v -0.238802 0.495713 -0.429416
v -0.240698 0.492940 -0.430942
v -0.241581 0.492644 -0.433505
v -0.238835 0.500000 -0.433505
v -0.242750 0.495727 -0.433539
v -0.238835 0.498797 -0.430637
v -0.241275 0.498614 -0.431636
v -0.241607 0.495720 -0.430609
v -0.238835 0.491440 -0.477779
v -0.242750 0.495713 -0.477744
v -0.241581 0.492644 -0.477779
v -0.240625 0.492968 -0.480466
v -0.241607 0.495720 -0.480674
v -0.238835 0.500000 -0.477779
v -0.238802 0.495727 -0.481867
v -0.240698 0.498500 -0.480341
v -0.241581 0.498797 -0.477779
v 0.238835 0.491440 -0.433505
v 0.242750 0.495713 -0.433539
v 0.241275 0.492826 -0.431636
v 0.241607 0.495720 -0.430609
v 0.238835 0.492644 -0.430637
v 0.238835 0.500000 -0.433505
v 0.238802 0.495727 -0.429416
v 0.238835 0.498797 -0.430637
v 0.241408 0.498473 -0.431636
v 0.238835 0.491440 -0.477779
v 0.238802 0.495713 -0.481867
v 0.238835 0.492644 -0.480646
v 0.241408 0.492968 -0.479648
v 0.241607 0.495720 -0.480674
v 0.238835 0.500000 -0.477779
v 0.242750 0.495727 -0.477744
v 0.241275 0.498614 -0.479648
v 0.238835 0.498797 -0.480646
v -0.230097 0.444876 -0.492396
v -0.233240 0.444883 -0.496078
v -0.230097 0.474664 -0.492396
v -0.230091 0.477988 -0.496078
v -0.233010 0.474664 -0.495437
v -0.230091 0.441552 -0.496318
v -0.230097 0.444876 -0.500000
v -0.230097 0.474664 -0.500000
v -0.233010 0.474664 -0.496958
v 0.230091 0.441552 -0.496078
v 0.233010 0.444876 -0.495437
v 0.230097 0.444876 -0.492396
v 0.230097 0.474664 -0.492396
v 0.233240 0.474657 -0.496078
v 0.230097 0.444876 -0.500000
v 0.233010 0.444876 -0.496958
v 0.230091 0.477988 -0.496318
v 0.230097 0.474664 -0.500000
v -0.494175 -0.347376 0.362920
v -0.494175 -0.349348 0.369004
v -0.500000 -0.345527 0.362920
v -0.494175 -0.131182 0.369004
v -0.494175 -0.125512 0.362920
v -0.500000 -0.127361 0.362920
v -0.494175 0.103501 -0.354927
v -0.500000 0.105349 -0.354927
v -0.494175 0.109170 -0.361010
v -0.494175 0.325364 -0.354927
v -0.494175 0.327337 -0.361010
v -0.500000 0.323516 -0.354927
v -0.476699 -0.347376 0.362920
v -0.470874 -0.345527 0.362920
v -0.476699 -0.349348 0.369004
v -0.476699 -0.125512 0.362920
v -0.476699 -0.131182 0.369004
v -0.470874 -0.127361 0.362920
v -0.476699 0.103501 -0.354927
v -0.476699 0.109170 -0.361010
v -0.470874 0.105349 -0.354927
v -0.476699 0.325364 -0.354927
v -0.470874 0.323516 -0.354927
v -0.476699 0.327337 -0.361010
v 0.476699 -0.347376 0.362920
v 0.476699 -0.349348 0.369004
v 0.470874 -0.345527 0.362920
v 0.476699 -0.131182 0.369004
v 0.476699 -0.125512 0.362920
v 0.470874 -0.127361 0.362920
v 0.476699 0.103501 -0.354927
v 0.470874 0.105349 -0.354927
v 0.476699 0.109170 -0.361010
v 0.476699 0.325364 -0.354927
v 0.476699 0.327337 -0.361010
v 0.470874 0.323516 -0.354927
v 0.494175 -0.347376 0.362920
v 0.500000 -0.345527 0.362920
v 0.494175 -0.349348 0.369004
v 0.494175 -0.125512 0.362920
v 0.494175 -0.131182 0.369004
v 0.500000 -0.127361 0.362920
v 0.494175 0.103501 -0.354927
v 0.494175 0.109170 -0.361010
v 0.500000 0.105349 -0.354927
v 0.494175 0.325364 -0.354927
v 0.500000 0.323516 -0.354927
v 0.494175 0.327337 -0.361010
vn -0.9132 -0.1987 0.3558
vn -0.2218 0.8991 0.3773
vn -0.2218 -0.8991 -0.3773
vn -0.3899 0.8898 -0.2373
vn 0.3828 -0.2047 0.9009
vn 0.3899 0.8898 0.2373
vn 0.3899 -0.8898 -0.2373
vn 0.2218 0.8991 -0.3773
vn -0.5593 -0.6328 0.5355
vn -0.5730 0.6087 0.5487
vn -0.5730 -0.6087 -0.5487
vn -0.5593 0.6328 -0.5355
vn 0.5730 -0.6087 0.5487
vn 0.5593 0.6328 0.5355
vn 0.5593 -0.6328 -0.5355
vn 0.5730 0.6087 -0.5487
vn -0.3899 -0.8898 0.2373
vn -0.3828 0.2047 0.9009
vn -0.3828 -0.2047 -0.9009
vn 0.2217 -0.8992 0.3773
vn 0.3923 0.8952 0.2114
vn 0.9132 -0.1987 -0.3558
vn 0.2217 0.8992 -0.3773
vn -0.5965 0.5638 0.5712
vn -0.5965 0.5638 -0.5712
vn 0.5965 0.5638 0.5712
vn 0.5965 0.5638 -0.5712
vn -0.2218 0.8992 0.3773
vn -0.2217 -0.8992 -0.3773
vn -0.5965 -0.5638 0.5712
vn -0.5965 -0.5638 -0.5712
vn 0.5965 -0.5638 0.5712
vn 0.5965 -0.5638 -0.5712
vn -0.2217 0.8992 0.3773
vn 0.2217 -0.8991 0.3773
vn 0.2217 0.8991 -0.3773
vn -0.6043 -0.6083 0.5147
vn -0.6418 -0.5697 -0.5133
vn -0.2217 0.8991 0.3773
vn -0.2217 -0.8991 -0.3773
vn -0.9132 0.1987 -0.3558
vn -0.9127 -0.1991 0.3568
vn -0.2305 0.8973 0.3765
vn -0.9081 0.2224 -0.3547
vn 0.9081 -0.2224 -0.3547
vn 0.6418 -0.5697 0.5133
vn 0.6043 -0.6083 -0.5147
vn 0.9132 0.1987 0.3558
vn -0.6418 0.5697 0.5134
vn -0.6418 -0.5697 -0.5134
vn -0.6043 0.6083 -0.5147
vn 0.6418 -0.5697 0.5134
vn 0.6043 0.6083 0.5147
vn 0.6418 0.5697 -0.5134
vn -0.9081 -0.2224 0.3547
vn -0.2487 0.8931 0.3748
vn -0.3821 -0.2124 -0.8994
vn 0.2487 -0.8931 0.3748
vn 0.9081 0.2224 0.3547
vn 0.2305 0.8973 -0.3765
vn -0.3923 -0.8952 0.2114
vn -0.6418 0.5697 0.5133
vn -0.6042 0.6083 -0.5147
vn 1.0000 -0.0077 -0.0000
vn 0.2218 0.8992 -0.3773
vn 0.6647 -0.5249 0.5317
vn 0.6410 -0.5392 -0.5462
vn 0.7008 -0.7133 -0.0000
vn -1.0000 -0.0077 -0.0000
vn -0.6043 -0.6082 0.5147
vn 0.6043 0.6082 0.5147
vn 0.5593 -0.6328 -0.5356
vn -0.2890 -0.9107 -0.2952
vn -0.2262 0.7126 0.6641
vn -0.2262 -0.7126 -0.6641
vn -0.2890 0.9107 0.2952
vn 0.2890 -0.9107 -0.2952
vn 0.2262 0.7126 0.6641
vn 0.2262 -0.7126 -0.6641
vn 0.2890 0.9107 0.2952
vn -0.2573 -0.8911 0.3739
vn -0.3774 0.3478 0.8583
vn -0.3774 -0.3478 -0.8583
vn -0.9065 0.2298 0.3542
vn -0.9065 -0.2298 -0.3542
vn -0.8805 0.3289 -0.3414
vn -0.3813 0.2320 -0.8949
vn 0.8730 -0.3382 0.3514
vn 0.3891 -0.8879 0.2455
vn 0.8805 0.3289 0.3414
vn 0.3813 0.2319 0.8949
vn 0.8805 -0.3289 -0.3414
vn 0.3813 -0.2320 -0.8949
vn 0.3774 0.3478 -0.8583
vn 0.9065 0.2298 -0.3542
vn -0.4946 -0.8691 0.0012
vn -0.8904 -0.4552 0.0001
vn -0.4900 0.8717 0.0067
vn -0.9350 0.3546 -0.0001
vn -0.0000 -0.9221 -0.3869
vn -0.0000 -0.3682 -0.9297
vn -0.0000 0.9221 -0.3869
vn -0.0000 0.3682 -0.9297
vn 0.4014 -0.9159 -0.0000
vn 0.9350 -0.3546 -0.0001
vn 0.4900 0.8717 -0.0067
vn 0.9350 0.3546 0.0001
vn 0.0008 -0.8696 0.4937
vn -0.0000 -0.3697 0.9292
vn -0.0000 0.9221 0.3869
vn -0.0000 0.3682 0.9297
vn -0.0000 -1.0000 -0.0000
vn -0.0000 1.0000 -0.0000
vn -0.7223 -0.0000 0.6916
vn -0.7515 -0.6597 -0.0000
vn -0.7223 -0.0000 -0.6916
vn -0.7515 0.6597 -0.0000
vn -0.0000 -0.7422 -0.6702
vn -0.0000 0.7422 -0.6702
vn 0.7223 -0.0000 -0.6916
vn 0.7223 -0.0000 0.6916
vn 0.7515 -0.6597 -0.0000
vn 0.7515 0.6597 -0.0000
vn -0.0000 -0.7422 0.6702
vn -0.0000 0.7422 0.6702
vn -1.0000 -0.0000 -0.0000
vn -0.0000 -0.0000 1.0000
vn -0.0000 -0.0000 -1.0000
vn 1.0000 -0.0000 -0.0000
vn -0.8805 -0.3289 0.3414
vn -0.3813 -0.2319 0.8949
vn -0.8730 0.3383 0.3514
vn -0.3891 0.8879 0.2455
vn -0.8730 -0.3382 -0.3514
vn -0.3891 -0.8879 -0.2455
vn -0.3813 0.2319 -0.8949
vn 0.3774 -0.3478 0.8583
vn 0.9065 -0.2298 0.3542
vn 0.8727 0.3386 0.3518
vn 0.3809 0.2367 0.8938
vn 0.3770 -0.3474 -0.8586
vn 0.2573 -0.8911 -0.3739
vn -0.4014 -0.9159 -0.0000
vn -0.9350 -0.3546 0.0001
vn -0.4014 0.9159 -0.0000
vn -0.0008 -0.8696 -0.4937
vn -0.0000 -0.3697 -0.9292
vn 0.4946 -0.8691 -0.0012
vn 0.8904 -0.4552 -0.0001
vn -0.0000 -0.9221 0.3869
vn -0.0000 -0.3682 0.9297
vn -0.0001 0.8784 0.4779
vn -0.0000 0.4709 0.8822
vn -0.7267 0.6869 -0.0000
vn -0.0000 0.7025 -0.7117
vn 0.7267 0.6869 -0.0000
vn -0.0000 0.7025 0.7117
vn -0.3813 -0.2320 0.8949
vn 0.3813 0.2320 0.8949
vn 0.3813 -0.2319 -0.8949
vn -0.4900 -0.8717 -0.0067
vn -0.0000 -0.3682 -0.9298
vn -0.0000 0.3682 -0.9298
vn 0.4900 -0.8717 0.0067
vn -0.0000 -0.3682 0.9298
vn -0.0000 0.3682 0.9298
vn -0.7267 -0.6869 -0.0000
vn -0.0000 -0.7025 -0.7117
vn 0.7267 -0.6869 -0.0000
vn -0.0000 -0.7025 0.7117
vn -0.7606 -0.0081 0.6492
vn -0.7804 -0.0125 -0.6252
vn -1.0000 0.0077 -0.0000
vn -0.3770 -0.3474 0.8586
vn -0.3770 0.3474 -0.8586
vn -0.2573 0.8911 -0.3739
vn -0.4946 0.8691 -0.0012
vn -0.8904 0.4552 -0.0001
vn -0.3862 0.3556 0.8511
vn -0.9114 0.2081 0.3549
vn -0.9069 -0.2295 -0.3533
vn -0.3665 0.3381 -0.8668
vn -0.2520 0.8923 -0.3745
vn 0.8730 -0.3383 0.3514
vn 0.3665 -0.3381 -0.8668
vn 0.2520 -0.8923 -0.3745
vn 0.9069 0.2295 -0.3533
vn -0.8907 -0.4547 -0.0000
vn -0.5214 0.8533 -0.0027
vn -0.8854 0.4647 -0.0024
vn 0.5178 -0.8554 -0.0089
vn 0.8872 -0.4613 -0.0085
vn 0.9350 0.3547 0.0001
vn 0.7804 -0.0125 0.6252
vn 1.0000 0.0077 -0.0000
vn -0.8730 -0.3383 -0.3514
vn 0.3770 0.3474 0.8586
vn 0.2573 0.8911 0.3739
vn -0.5061 -0.8624 0.0079
vn -0.9345 -0.3560 0.0001
vn 0.4946 0.8691 0.0012
vn 0.8904 0.4552 0.0001
vn -0.7804 0.0050 0.6253
vn -0.7804 -0.0050 -0.6253
vn 0.7606 -0.0000 -0.6492
vn 0.7804 -0.0050 0.6253
vn -0.3665 -0.3381 0.8668
vn -0.2520 -0.8924 0.3745
vn -0.3666 0.3381 0.8668
vn -0.8661 -0.3465 -0.3603
vn -0.9079 0.2250 0.3537
vn -0.3914 -0.8931 -0.2219
vn 0.3666 -0.3381 0.8668
vn 0.9079 -0.2250 0.3537
vn 0.3665 0.3381 0.8668
vn 0.2520 0.8923 0.3745
vn 0.3861 0.3557 -0.8511
vn 0.9114 0.2081 -0.3549
vn -0.5178 -0.8554 0.0089
vn -0.8872 -0.4613 0.0085
vn -0.9350 0.3547 -0.0001
vn -0.0000 -0.8829 -0.4695
vn -0.0000 -0.4444 -0.8958
vn 0.9350 -0.3547 -0.0001
vn 0.5214 0.8533 0.0027
vn 0.8854 0.4647 0.0024
vn -0.8727 -0.3386 0.3518
vn -0.3809 -0.2367 0.8938
vn 0.0001 -0.8784 0.4779
vn -0.0000 -0.4709 0.8822
vn 0.7606 0.0081 0.6491
vn -0.8730 0.3382 0.3514
vn 0.5061 -0.8624 -0.0079
vn 0.9345 -0.3560 -0.0001
vn -0.0008 0.8696 0.4937
vn -0.0000 0.3697 0.9292
vn -0.7804 0.0125 0.6252
vn -0.7606 0.0081 -0.6492
vn 0.0005 -1.0000 -0.0000
vn 0.3770 0.3475 0.8586
vn -0.7606 -0.0081 0.6491
vn 0.7606 0.0081 0.6492
vn -0.2596 -0.8178 -0.5136
vn -0.2596 0.8178 0.5137
vn -0.0000 -0.7315 -0.6818
vn -0.0000 0.9513 0.3084
vn 0.2596 -0.8178 -0.5137
vn 0.2596 0.8178 0.5137
vn -0.0000 -0.9513 -0.3084
vn -0.0000 0.7315 0.6818
vn -0.0000 -0.8468 -0.5319
vn -0.0000 0.8468 0.5319
vn -0.2596 -0.8178 -0.5137
vn -0.2596 0.8178 0.5136
vn -0.3676 0.3391 0.8660
vn -0.3676 -0.3390 -0.8660
vn -0.8798 0.3298 -0.3424
vn 0.8788 -0.3310 0.3437
vn 0.8798 0.3298 0.3424
vn 0.8798 -0.3298 -0.3424
vn 0.3676 0.3390 -0.8660
vn -0.5104 -0.8599 -0.0000
vn -0.8990 -0.4380 -0.0012
vn -0.8924 0.4511 0.0077
vn 0.0009 -0.8633 -0.5047
vn 0.0009 -0.4818 -0.8763
vn -0.0009 0.8633 -0.5047
vn -0.0009 0.4819 -0.8762
vn 0.9345 -0.3560 -0.0000
vn 0.4014 0.9159 -0.0000
vn 0.8924 0.4511 -0.0077
vn 0.0006 -0.4524 0.8918
vn 0.0009 0.8633 0.5047
vn 0.0009 0.4818 0.8763
vn 0.0003 -0.7628 -0.6466
vn -0.0003 0.7628 -0.6466
vn -0.0003 -0.7628 0.6466
vn 0.0003 0.7628 0.6466
vn -0.8798 -0.3298 0.3424
vn -0.8788 0.3310 0.3436
vn -0.8788 -0.3310 -0.3437
vn 0.3676 -0.3391 0.8660
vn 0.3689 -0.3402 -0.8650
vn -0.9345 -0.3560 -0.0000
vn -0.9345 0.3560 -0.0000
vn -0.0006 -0.4524 -0.8918
vn -0.0009 0.4818 -0.8763
vn 0.5104 -0.8599 -0.0000
vn 0.8990 -0.4380 0.0012
vn -0.0009 -0.8633 0.5047
vn -0.0009 -0.4818 0.8763
vn -0.0000 0.8694 0.4941
vn 0.0001 0.4529 0.8916
vn -0.3676 0.3390 0.8660
vn 0.3676 -0.3390 0.8660
vn -0.8924 -0.4511 -0.0077
vn 0.0009 -0.4819 -0.8763
vn -0.0009 0.4819 -0.8763
vn 0.8924 -0.4511 0.0077
vn -0.0009 -0.4819 0.8763
vn 0.0009 0.4819 0.8763
vn 0.3676 0.3391 -0.8660
vn -0.3689 -0.3402 0.8650
vn -0.3689 0.3402 -0.8650
vn -0.5104 -0.8600 -0.0000
vn -0.5104 0.8599 -0.0000
vn -0.8990 0.4380 0.0012
vn -0.0000 0.3697 -0.9292
vn 0.8799 -0.3296 0.3422
vn 0.8786 0.3313 0.3440
vn -0.8987 -0.4386 -0.0012
vn -0.4844 0.8748 -0.0000
vn -0.9038 0.4280 0.0004
vn 0.9358 -0.3526 0.0004
vn 0.8927 0.4506 -0.0077
vn 0.7606 -0.0081 -0.6492
vn 0.3689 0.3402 0.8650
vn -0.9010 -0.4337 0.0064
vn 0.5104 0.8599 -0.0000
vn 0.8990 0.4380 -0.0012
vn -0.7606 -0.0000 0.6492
vn -0.7606 -0.0000 -0.6492
vn 0.7804 0.0050 -0.6253
vn 0.7606 -0.0000 0.6492
vn -0.8799 -0.3296 -0.3422
vn -0.8786 0.3313 -0.3440
vn 0.8786 -0.3313 -0.3440
vn -0.9358 -0.3526 -0.0004
vn -0.5165 0.8563 0.0088
vn -0.8874 0.4610 0.0086
vn 0.0003 -0.8631 -0.5050
vn 0.0003 -0.4822 -0.8761
vn 0.5165 -0.8563 0.0088
vn 0.8874 -0.4610 0.0086
vn 0.4844 0.8748 -0.0000
vn 0.9038 0.4280 -0.0004
vn -0.3676 -0.3391 -0.8660
vn 0.8788 -0.3310 0.3436
vn -0.0000 -0.8694 0.4941
vn -0.0001 -0.4528 0.8916
vn 0.0009 0.4819 0.8762
vn 0.7804 0.0125 -0.6252
vn -0.8788 0.3310 0.3437
vn -0.0006 -0.4525 -0.8918
vn 0.9010 -0.4337 -0.0064
vn 0.0006 -0.4525 0.8918
vn -0.0006 0.4525 0.8918
vn -0.0009 -0.4819 0.8762
vn -0.0005 -0.7422 -0.6702
vn -0.0008 -0.7628 0.6466
vn 0.5104 0.8600 -0.0000
vn 0.2596 0.8178 0.5136
vn 0.2596 -0.8178 -0.5136
s 0
f 6//1 4//1 9//1
f 5//2 8//2 7//2
f 10//3 12//3 14//3
f 15//4 17//4 18//4
f 25//5 22//5 23//5
f 24//6 26//6 27//6
f 28//7 30//7 32//7
f 33//8 35//8 36//8
f 42//9 37//9 38//9
f 39//10 40//10 41//10
f 42//11 43//11 44//11
f 40//12 45//12 46//12
f 47//13 48//13 49//13
f 54//14 50//14 51//14
f 47//15 52//15 53//15
f 54//16 55//16 56//16
f 57//17 59//17 60//17
f 58//18 63//18 65//18
f 72//19 69//19 70//19
f 71//4 73//4 74//4
f 75//20 77//20 79//20
f 80//21 82//21 83//21
f 90//22 87//22 88//22
f 89//23 91//23 92//23
f 98//9 93//9 94//9
f 95//24 96//24 97//24
f 98//11 99//11 100//11
f 101//25 102//25 103//25
f 104//13 105//13 106//13
f 107//26 108//26 109//26
f 104//15 110//15 111//15
f 112//27 113//27 114//27
f 115//17 117//17 118//17
f 119//28 122//28 121//28
f 124//29 126//29 128//29
f 129//4 131//4 132//4
f 133//20 135//20 137//20
f 138//6 140//6 141//6
f 142//7 144//7 146//7
f 147//23 149//23 150//23
f 151//30 152//30 153//30
f 154//10 155//10 156//10
f 157//31 158//31 159//31
f 155//12 160//12 161//12
f 162//32 163//32 164//32
f 170//14 165//14 166//14
f 167//33 168//33 169//33
f 170//16 171//16 172//16
f 173//17 175//17 176//17
f 177//34 180//34 179//34
f 182//3 184//3 186//3
f 187//4 189//4 190//4
f 191//35 193//35 195//35
f 196//6 198//6 199//6
f 200//7 202//7 204//7
f 205//36 207//36 208//36
f 214//37 209//37 210//37
f 211//10 212//10 213//10
f 214//38 210//38 215//38
f 212//12 216//12 217//12
f 218//13 219//13 220//13
f 225//14 221//14 222//14
f 218//15 223//15 224//15
f 225//16 226//16 227//16
f 233//1 231//1 236//1
f 232//39 235//39 234//39
f 237//40 239//40 241//40
f 238//41 245//41 240//41
f 246//35 248//35 250//35
f 251//6 253//6 254//6
f 255//7 257//7 259//7
f 260//36 262//36 263//36
f 269//9 264//9 265//9
f 266//10 267//10 268//10
f 269//11 270//11 271//11
f 267//12 272//12 273//12
f 274//13 275//13 276//13
f 281//14 277//14 278//14
f 274//15 279//15 280//15
f 281//16 282//16 283//16
f 289//42 287//42 292//42
f 288//43 291//43 290//43
f 293//40 295//40 297//40
f 294//44 301//44 296//44
f 308//5 305//5 306//5
f 307//6 309//6 310//6
f 317//45 314//45 315//45
f 316//36 318//36 319//36
f 325//37 320//37 321//37
f 322//10 323//10 324//10
f 325//38 321//38 326//38
f 323//12 327//12 328//12
f 329//46 334//46 330//46
f 335//14 331//14 332//14
f 329//47 333//47 334//47
f 335//16 336//16 337//16
f 343//1 341//1 346//1
f 342//39 345//39 344//39
f 353//19 350//19 351//19
f 348//41 355//41 351//41
f 356//35 358//35 360//35
f 357//48 364//48 359//48
f 371//22 368//22 369//22
f 370//36 372//36 373//36
f 378//37 374//37 375//37
f 376//49 377//49 381//49
f 378//50 375//50 379//50
f 377//51 380//51 381//51
f 382//52 387//52 383//52
f 388//53 384//53 385//53
f 382//47 386//47 387//47
f 388//54 385//54 389//54
f 395//55 393//55 398//55
f 394//56 397//56 396//56
f 405//57 402//57 403//57
f 404//4 406//4 407//4
f 408//58 410//58 412//58
f 409//59 416//59 411//59
f 417//7 419//7 421//7
f 422//60 424//60 425//60
f 431//9 426//9 427//9
f 428//10 429//10 430//10
f 431//11 432//11 433//11
f 429//12 434//12 435//12
f 436//13 437//13 438//13
f 443//14 439//14 440//14
f 436//15 441//15 442//15
f 443//16 444//16 445//16
f 446//61 448//61 449//61
f 450//34 453//34 452//34
f 455//29 457//29 459//29
f 456//41 463//41 458//41
f 470//5 467//5 468//5
f 469//6 471//6 472//6
f 473//7 475//7 477//7
f 478//23 480//23 481//23
f 486//37 482//37 483//37
f 484//62 485//62 489//62
f 486//38 483//38 487//38
f 485//63 488//63 489//63
f 490//13 491//13 492//13
f 497//53 493//53 494//53
f 490//15 495//15 496//15
f 497//54 494//54 498//54
f 494//64 491//64 496//64
f 504//1 502//1 507//1
f 500//18 505//18 507//18
f 514//19 511//19 512//19
f 513//4 515//4 516//4
f 523//5 520//5 521//5
f 518//48 525//48 521//48
f 532//22 529//22 530//22
f 531//65 533//65 534//65
f 540//9 535//9 536//9
f 537//24 538//24 539//24
f 540//11 541//11 542//11
f 543//25 544//25 545//25
f 546//13 547//13 548//13
f 549//26 550//26 551//26
f 546//15 552//15 553//15
f 554//27 555//27 556//27
f 557//17 559//17 560//17
f 561//34 564//34 563//34
f 566//29 568//29 570//29
f 571//4 573//4 574//4
f 575//20 577//20 579//20
f 580//6 582//6 583//6
f 584//7 586//7 588//7
f 589//36 591//36 592//36
f 597//9 593//9 594//9
f 595//62 596//62 601//62
f 597//11 598//11 599//11
f 596//51 600//51 601//51
f 602//66 608//66 603//66
f 609//14 604//14 605//14
f 606//67 607//67 608//67
f 609//16 610//16 611//16
f 606//68 608//68 602//68
f 601//69 598//69 594//69
f 612//17 614//17 615//17
f 616//39 619//39 618//39
f 627//19 624//19 625//19
f 626//4 628//4 629//4
f 630//35 632//35 634//35
f 631//48 638//48 633//48
f 645//22 642//22 643//22
f 644//23 646//23 647//23
f 653//70 648//70 649//70
f 650//10 651//10 652//10
f 653//50 649//50 654//50
f 651//12 655//12 656//12
f 657//13 658//13 659//13
f 664//71 660//71 661//71
f 657//72 662//72 663//72
f 664//54 661//54 665//54
f 661//64 658//64 663//64
f 666//73 667//73 668//73
f 669//74 670//74 671//74
f 672//75 673//75 674//75
f 675//76 676//76 677//76
f 678//77 679//77 680//77
f 681//78 682//78 683//78
f 684//79 685//79 686//79
f 687//80 688//80 689//80
f 690//73 691//73 692//73
f 693//74 694//74 695//74
f 696//75 697//75 698//75
f 699//76 700//76 701//76
f 702//77 703//77 704//77
f 705//78 706//78 707//78
f 708//79 709//79 710//79
f 711//80 712//80 713//80
f 1//81 3//81 4//81
f 9//82 7//82 8//82
f 13//83 14//83 12//83
f 6//84 9//84 8//84
f 11//85 13//85 12//85
f 13//86 18//86 17//86
f 16//87 13//87 17//87
f 21//88 23//88 22//88
f 19//89 21//89 22//89
f 23//90 27//90 26//90
f 25//91 23//91 26//91
f 31//92 32//92 30//92
f 29//93 31//93 30//93
f 31//94 36//94 35//94
f 34//95 31//95 35//95
f 10//96 4//96 12//96
f 12//97 6//97 11//97
f 5//98 18//98 8//98
f 6//99 18//99 11//99
f 14//100 28//100 10//100
f 29//101 14//101 16//101
f 36//102 15//102 33//102
f 16//103 36//103 29//103
f 19//104 32//104 21//104
f 20//105 32//105 34//105
f 33//106 27//106 35//106
f 34//107 27//107 20//107
f 3//108 19//108 22//108
f 3//109 25//109 2//109
f 7//110 24//110 5//110
f 25//111 7//111 2//111
f 10//112 19//112 1//112
f 33//113 5//113 24//113
f 37//114 41//114 38//114
f 42//115 38//115 43//115
f 45//116 43//116 46//116
f 40//117 46//117 41//117
f 52//118 42//118 44//118
f 45//119 54//119 56//119
f 55//120 52//120 56//120
f 50//121 48//121 51//121
f 47//122 53//122 48//122
f 54//123 51//123 55//123
f 37//124 47//124 49//124
f 50//125 40//125 39//125
f 38//126 46//126 43//126
f 49//127 39//127 37//127
f 44//128 56//128 52//128
f 53//129 51//129 48//129
f 65//130 60//130 59//130
f 58//131 65//131 59//131
f 64//132 65//132 63//132
f 61//133 64//133 63//133
f 68//134 70//134 69//134
f 66//135 68//135 69//135
f 70//86 74//86 73//86
f 72//136 70//136 73//136
f 78//137 79//137 77//137
f 76//138 78//138 77//138
f 78//139 83//139 82//139
f 81//140 78//140 82//140
f 86//141 88//141 87//141
f 84//142 86//142 87//142
f 88//94 92//94 91//94
f 90//95 88//95 91//95
f 66//143 60//143 68//143
f 67//144 60//144 62//144
f 61//145 74//145 64//145
f 62//99 74//99 67//99
f 86//146 66//146 69//146
f 86//147 72//147 85//147
f 92//102 71//102 89//102
f 72//103 92//103 85//103
f 75//148 87//148 77//148
f 77//149 90//149 76//149
f 89//106 83//106 91//106
f 90//107 83//107 76//107
f 79//150 57//150 75//150
f 58//151 79//151 81//151
f 80//152 63//152 82//152
f 82//153 58//153 81//153
f 66//112 75//112 57//112
f 89//113 61//113 80//113
f 93//114 97//114 94//114
f 98//115 94//115 99//115
f 96//154 103//154 97//154
f 102//116 99//116 103//116
f 110//118 98//118 100//118
f 101//155 114//155 102//155
f 113//120 110//120 114//120
f 112//156 109//156 113//156
f 104//122 111//122 105//122
f 108//121 105//121 109//121
f 93//124 104//124 106//124
f 107//157 95//157 108//157
f 94//126 103//126 99//126
f 106//127 95//127 93//127
f 112//113 96//113 107//113
f 100//128 114//128 110//128
f 111//129 109//129 105//129
f 123//130 118//130 117//130
f 116//158 123//158 117//158
f 123//82 121//82 122//82
f 127//83 128//83 126//83
f 120//84 123//84 122//84
f 125//85 127//85 126//85
f 127//86 132//86 131//86
f 130//87 127//87 131//87
f 136//137 137//137 135//137
f 134//138 136//138 135//138
f 136//90 141//90 140//90
f 139//159 136//159 140//159
f 145//92 146//92 144//92
f 143//160 145//160 144//160
f 145//94 150//94 149//94
f 148//95 145//95 149//95
f 124//161 118//161 126//161
f 125//144 118//144 120//144
f 119//98 132//98 122//98
f 120//99 132//99 125//99
f 128//100 142//100 124//100
f 143//162 128//162 130//162
f 150//102 129//102 147//102
f 130//163 150//163 143//163
f 133//164 146//164 135//164
f 134//105 146//105 148//105
f 147//106 141//106 149//106
f 148//107 141//107 134//107
f 137//150 115//150 133//150
f 116//165 137//165 139//165
f 121//110 138//110 119//110
f 139//166 121//166 116//166
f 124//112 133//112 115//112
f 147//113 119//113 138//113
f 157//167 153//167 158//167
f 152//114 156//114 153//114
f 160//116 158//116 161//116
f 155//117 161//117 156//117
f 167//168 159//168 168//168
f 160//119 170//119 172//119
f 171//120 168//120 172//120
f 162//169 169//169 163//169
f 165//121 163//121 166//121
f 170//123 166//123 171//123
f 151//170 164//170 152//170
f 165//125 155//125 154//125
f 157//112 162//112 151//112
f 153//126 161//126 158//126
f 164//127 154//127 152//127
f 159//128 172//128 168//128
f 169//129 166//129 163//129
f 181//130 176//130 175//130
f 174//131 181//131 175//131
f 181//82 179//82 180//82
f 185//83 186//83 184//83
f 178//84 181//84 180//84
f 183//85 185//85 184//85
f 185//86 190//86 189//86
f 188//136 185//136 189//136
f 194//137 195//137 193//137
f 192//138 194//138 193//138
f 194//90 199//90 198//90
f 197//91 194//91 198//91
f 203//92 204//92 202//92
f 201//93 203//93 202//93
f 203//94 208//94 207//94
f 206//95 203//95 207//95
f 182//161 176//161 184//161
f 183//144 176//144 178//144
f 177//98 190//98 180//98
f 178//99 190//99 183//99
f 186//100 200//100 182//100
f 201//162 186//162 188//162
f 208//102 187//102 205//102
f 188//103 208//103 201//103
f 191//164 204//164 193//164
f 192//105 204//105 206//105
f 205//106 199//106 207//106
f 206//107 199//107 192//107
f 195//150 173//150 191//150
f 174//165 195//165 197//165
f 179//110 196//110 177//110
f 197//111 179//111 174//111
f 182//112 191//112 173//112
f 205//113 177//113 196//113
f 209//171 213//171 210//171
f 217//172 215//172 210//172
f 212//117 217//117 213//117
f 223//118 214//118 215//118
f 216//119 225//119 227//119
f 226//120 223//120 227//120
f 221//121 219//121 222//121
f 218//122 224//122 219//122
f 225//123 222//123 226//123
f 209//124 218//124 220//124
f 221//125 212//125 211//125
f 220//127 211//127 209//127
f 213//173 217//173 210//173
f 215//128 227//128 223//128
f 224//129 222//129 219//129
f 230//174 236//174 231//174
f 228//81 230//81 231//81
f 236//82 234//82 235//82
f 240//83 241//83 239//83
f 233//84 236//84 235//84
f 238//85 240//85 239//85
f 244//175 240//175 245//175
f 242//176 244//176 245//176
f 249//137 250//137 248//137
f 247//138 249//138 248//138
f 249//90 254//90 253//90
f 252//159 249//159 253//159
f 258//92 259//92 257//92
f 256//160 258//160 257//160
f 258//94 263//94 262//94
f 261//95 258//95 262//95
f 237//96 231//96 239//96
f 239//97 233//97 238//97
f 232//177 245//177 235//177
f 235//178 238//178 233//178
f 241//100 255//100 237//100
f 256//101 241//101 243//101
f 242//102 263//102 244//102
f 243//103 263//103 256//103
f 246//164 259//164 248//164
f 247//105 259//105 261//105
f 260//106 254//106 262//106
f 261//107 254//107 247//107
f 228//150 250//150 230//150
f 229//151 250//151 252//151
f 234//110 251//110 232//110
f 252//111 234//111 229//111
f 237//112 246//112 228//112
f 260//113 232//113 251//113
f 264//114 268//114 265//114
f 269//115 265//115 270//115
f 272//116 270//116 273//116
f 267//117 273//117 268//117
f 279//118 269//118 271//118
f 272//119 281//119 283//119
f 282//120 279//120 283//120
f 277//121 275//121 278//121
f 274//122 280//122 275//122
f 281//123 278//123 282//123
f 264//124 274//124 276//124
f 277//125 267//125 266//125
f 265//126 273//126 270//126
f 276//127 266//127 264//127
f 271//128 283//128 279//128
f 280//129 278//129 275//129
f 286//174 292//174 287//174
f 284//81 286//81 287//81
f 292//179 290//179 291//179
f 296//83 297//83 295//83
f 289//180 292//180 291//180
f 294//181 296//181 295//181
f 300//182 296//182 301//182
f 298//183 300//183 301//183
f 304//184 306//184 305//184
f 302//89 304//89 305//89
f 306//90 310//90 309//90
f 308//159 306//159 309//159
f 313//185 315//185 314//185
f 311//186 313//186 314//186
f 315//94 319//94 318//94
f 317//187 315//187 318//187
f 293//96 287//96 295//96
f 295//188 289//188 294//188
f 291//189 298//189 301//189
f 294//190 291//190 301//190
f 313//100 293//100 297//100
f 312//101 297//101 299//101
f 300//102 316//102 319//102
f 299//103 319//103 312//103
f 304//191 311//191 314//191
f 317//192 304//192 314//192
f 316//106 310//106 318//106
f 317//193 310//193 303//193
f 286//108 302//108 305//108
f 286//109 308//109 285//109
f 290//110 307//110 288//110
f 308//111 290//111 285//111
f 293//112 302//112 284//112
f 316//113 288//113 307//113
f 320//171 324//171 321//171
f 3//174 9//174 4//174
f 328//172 326//172 321//172
f 323//117 328//117 324//117
f 333//118 325//118 326//118
f 327//119 335//119 337//119
f 336//120 333//120 337//120
f 332//194 330//194 334//194
f 335//123 332//123 336//123
f 320//124 329//124 330//124
f 331//125 323//125 322//125
f 330//127 322//127 320//127
f 324//173 328//173 321//173
f 326//128 337//128 333//128
f 340//174 346//174 341//174
f 336//195 332//195 334//195
f 338//81 340//81 341//81
f 346//82 344//82 345//82
f 349//196 351//196 350//196
f 343//84 346//84 345//84
f 347//135 349//135 350//135
f 354//175 351//175 355//175
f 352//176 354//176 355//176
f 359//137 360//137 358//137
f 357//138 359//138 358//138
f 363//197 359//197 364//197
f 361//198 363//198 364//198
f 367//141 369//141 368//141
f 365//142 367//142 368//142
f 369//94 373//94 372//94
f 371//95 369//95 372//95
f 349//199 338//199 341//199
f 349//200 343//200 348//200
f 342//177 355//177 345//177
f 345//178 348//178 343//178
f 367//146 347//146 350//146
f 367//147 353//147 366//147
f 352//102 373//102 354//102
f 353//103 373//103 366//103
f 356//148 368//148 358//148
f 358//149 371//149 357//149
f 370//201 364//201 372//201
f 372//202 357//202 371//202
f 338//150 360//150 340//150
f 339//151 360//151 362//151
f 361//110 344//110 363//110
f 362//111 344//111 339//111
f 347//112 356//112 338//112
f 370//113 342//113 361//113
f 375//203 376//203 381//203
f 381//204 379//204 375//204
f 386//118 378//118 379//118
f 380//119 388//119 389//119
f 389//205 387//205 386//205
f 385//206 383//206 387//206
f 374//124 382//124 383//124
f 384//125 377//125 376//125
f 383//127 376//127 374//127
f 379//128 389//128 386//128
f 392//207 398//207 393//207
f 390//208 392//208 393//208
f 398//209 396//209 397//209
f 401//210 403//210 402//210
f 395//211 398//211 397//211
f 399//212 401//212 402//212
f 403//86 407//86 406//86
f 405//136 403//136 406//136
f 411//213 412//213 410//213
f 409//214 411//214 410//214
f 415//215 411//215 416//215
f 413//216 415//216 416//216
f 420//92 421//92 419//92
f 418//93 420//93 419//93
f 420//217 425//217 424//217
f 423//218 420//218 424//218
f 401//219 390//219 393//219
f 395//220 401//220 393//220
f 407//145 394//145 404//145
f 395//221 407//221 400//221
f 402//222 417//222 399//222
f 418//223 402//223 405//223
f 425//102 404//102 422//102
f 405//103 425//103 418//103
f 421//104 408//104 417//104
f 409//224 421//224 423//224
f 424//225 413//225 416//225
f 409//226 424//226 416//226
f 392//150 408//150 412//150
f 391//165 412//165 414//165
f 415//110 394//110 396//110
f 414//111 396//111 391//111
f 399//112 408//112 390//112
f 422//113 394//113 413//113
f 426//114 430//114 427//114
f 431//115 427//115 432//115
f 434//116 432//116 435//116
f 429//117 435//117 430//117
f 441//118 431//118 433//118
f 434//119 443//119 445//119
f 444//120 441//120 445//120
f 439//121 437//121 440//121
f 436//122 442//122 437//122
f 443//123 440//123 444//123
f 426//124 436//124 438//124
f 439//125 429//125 428//125
f 427//126 435//126 432//126
f 438//127 428//127 426//127
f 433//128 445//128 441//128
f 442//129 440//129 437//129
f 454//227 449//227 448//227
f 447//228 454//228 448//228
f 454//82 452//82 453//82
f 458//83 459//83 457//83
f 451//84 454//84 453//84
f 456//85 458//85 457//85
f 462//175 458//175 463//175
f 460//176 462//176 463//176
f 466//184 468//184 467//184
f 464//89 466//89 467//89
f 468//90 472//90 471//90
f 470//91 468//91 471//91
f 476//92 477//92 475//92
f 474//93 476//93 475//93
f 476//94 481//94 480//94
f 479//95 476//95 480//95
f 455//161 449//161 457//161
f 456//144 449//144 451//144
f 450//177 463//177 453//177
f 453//178 456//178 451//178
f 459//100 473//100 455//100
f 474//101 459//101 461//101
f 460//102 481//102 462//102
f 461//103 481//103 474//103
f 464//104 477//104 466//104
f 465//105 477//105 479//105
f 478//106 472//106 480//106
f 479//107 472//107 465//107
f 446//229 467//229 448//229
f 448//230 470//230 447//230
f 452//110 469//110 450//110
f 470//111 452//111 447//111
f 455//112 464//112 446//112
f 478//113 450//113 469//113
f 483//203 484//203 489//203
f 489//204 487//204 483//204
f 495//118 486//118 487//118
f 488//119 497//119 498//119
f 498//120 496//120 495//120
f 493//231 491//231 494//231
f 490//122 496//122 491//122
f 482//124 490//124 492//124
f 493//125 485//125 484//125
f 492//127 484//127 482//127
f 487//128 498//128 495//128
f 501//174 507//174 502//174
f 499//81 501//81 502//81
f 506//232 507//232 505//232
f 503//133 506//133 505//133
f 510//134 512//134 511//134
f 508//135 510//135 511//135
f 512//86 516//86 515//86
f 514//136 512//136 515//136
f 519//88 521//88 520//88
f 517//89 519//89 520//89
f 524//197 521//197 525//197
f 522//198 524//198 525//198
f 528//141 530//141 529//141
f 526//142 528//142 529//142
f 530//94 534//94 533//94
f 532//95 530//95 533//95
f 510//199 499//199 502//199
f 510//200 504//200 509//200
f 503//145 516//145 506//145
f 504//99 516//99 509//99
f 528//146 508//146 511//146
f 528//147 514//147 527//147
f 534//102 513//102 531//102
f 514//163 534//163 527//163
f 519//233 526//233 529//233
f 519//234 532//234 518//234
f 531//201 525//201 533//201
f 533//202 518//202 532//202
f 501//108 517//108 520//108
f 501//109 523//109 500//109
f 524//235 503//235 505//235
f 524//236 500//236 523//236
f 508//112 517//112 499//112
f 531//113 503//113 522//113
f 535//114 539//114 536//114
f 540//115 536//115 541//115
f 538//154 545//154 539//154
f 544//116 541//116 545//116
f 552//118 540//118 542//118
f 543//155 556//155 544//155
f 555//120 552//120 556//120
f 554//156 551//156 555//156
f 546//122 553//122 547//122
f 550//121 547//121 551//121
f 535//124 546//124 548//124
f 549//157 537//157 550//157
f 536//126 545//126 541//126
f 548//127 537//127 535//127
f 554//113 538//113 549//113
f 542//128 556//128 552//128
f 553//129 551//129 547//129
f 565//130 560//130 559//130
f 558//131 565//131 559//131
f 565//82 563//82 564//82
f 569//83 570//83 568//83
f 562//84 565//84 564//84
f 567//85 569//85 568//85
f 569//86 574//86 573//86
f 572//136 569//136 573//136
f 578//137 579//137 577//137
f 576//138 578//138 577//138
f 578//90 583//90 582//90
f 581//91 578//91 582//91
f 587//92 588//92 586//92
f 585//160 587//160 586//160
f 587//94 592//94 591//94
f 590//95 587//95 591//95
f 566//161 560//161 568//161
f 567//144 560//144 562//144
f 561//98 574//98 564//98
f 562//99 574//99 567//99
f 570//100 584//100 566//100
f 585//101 570//101 572//101
f 592//102 571//102 589//102
f 572//103 592//103 585//103
f 575//164 588//164 577//164
f 576//105 588//105 590//105
f 589//106 583//106 591//106
f 590//107 583//107 576//107
f 579//150 557//150 575//150
f 558//165 579//165 581//165
f 563//110 580//110 561//110
f 581//166 563//166 558//166
f 566//112 575//112 557//112
f 589//113 561//113 580//113
f 594//237 595//237 601//237
f 597//115 594//115 598//115
f 600//238 598//238 601//238
f 606//168 599//168 607//168
f 600//119 609//119 611//119
f 610//120 607//120 611//120
f 605//194 603//194 608//194
f 609//123 605//123 610//123
f 593//170 602//170 603//170
f 604//125 596//125 595//125
f 603//127 595//127 593//127
f 606//239 602//239 597//239
f 599//128 611//128 607//128
f 620//130 615//130 614//130
f 610//195 605//195 608//195
f 613//158 620//158 614//158
f 620//82 618//82 619//82
f 623//134 625//134 624//134
f 617//84 620//84 619//84
f 621//135 623//135 624//135
f 625//86 629//86 628//86
f 627//136 625//136 628//136
f 633//137 634//137 632//137
f 631//138 633//138 632//138
f 637//240 633//240 638//240
f 635//198 637//198 638//198
f 641//141 643//141 642//141
f 639//142 641//142 642//142
f 643//94 647//94 646//94
f 645//95 643//95 646//95
f 621//143 615//143 623//143
f 622//144 615//144 617//144
f 616//98 629//98 619//98
f 617//99 629//99 622//99
f 641//146 621//146 624//146
f 641//147 627//147 640//147
f 647//102 626//102 644//102
f 627//163 647//163 640//163
f 630//148 642//148 632//148
f 632//149 645//149 631//149
f 644//201 638//201 646//201
f 646//202 631//202 645//202
f 634//150 612//150 630//150
f 613//151 634//151 636//151
f 635//110 618//110 637//110
f 636//111 618//111 613//111
f 621//112 630//112 612//112
f 644//113 616//113 635//113
f 648//241 652//241 649//241
f 656//172 654//172 649//172
f 651//117 656//117 652//117
f 662//118 653//118 654//118
f 655//119 664//119 665//119
f 665//120 663//120 662//120
f 660//242 658//242 661//242
f 657//122 663//122 658//122
f 648//124 657//124 659//124
f 660//125 651//125 650//125
f 659//127 650//127 648//127
f 652//173 656//173 649//173
f 654//128 665//128 662//128
f 668//243 672//243 666//243
f 668//114 669//114 671//114
f 677//244 670//244 675//244
f 677//116 674//116 673//116
f 684//245 674//245 685//245
f 675//246 689//246 676//246
f 685//120 688//120 686//120
f 679//247 684//247 686//247
f 688//248 681//248 683//248
f 679//121 682//121 680//121
f 666//249 680//249 667//249
f 681//250 669//250 682//250
f 672//251 678//251 666//251
f 673//126 671//126 677//126
f 680//127 669//127 667//127
f 687//252 670//252 681//252
f 674//128 689//128 685//128
f 683//129 686//129 688//129
f 692//253 696//253 690//253
f 692//114 693//114 695//114
f 701//254 694//254 699//254
f 701//116 698//116 697//116
f 708//245 698//245 709//245
f 699//246 713//246 700//246
f 709//120 712//120 710//120
f 703//247 708//247 710//247
f 712//248 705//248 707//248
f 703//121 706//121 704//121
f 690//249 704//249 691//249
f 705//250 693//250 706//250
f 696//251 702//251 690//251
f 697//126 695//126 701//126
f 704//127 693//127 691//127
f 711//252 694//252 705//252
f 698//128 713//128 709//128
f 707//129 710//129 712//129
f 9//255 2//255 7//255
f 13//256 16//256 14//256
f 13//257 11//257 18//257
f 21//258 20//258 23//258
f 23//259 20//259 27//259
f 31//260 34//260 32//260
f 31//261 29//261 36//261
f 10//262 1//262 4//262
f 12//263 4//263 6//263
f 5//145 15//145 18//145
f 6//264 8//264 18//264
f 14//265 30//265 28//265
f 29//266 30//266 14//266
f 36//267 17//267 15//267
f 16//268 17//268 36//268
f 19//104 28//104 32//104
f 20//269 21//269 32//269
f 33//270 24//270 27//270
f 34//271 35//271 27//271
f 3//150 1//150 19//150
f 3//272 22//272 25//272
f 7//273 26//273 24//273
f 25//274 26//274 7//274
f 10//112 28//112 19//112
f 33//113 15//113 5//113
f 37//114 39//114 41//114
f 45//116 44//116 43//116
f 52//275 47//275 42//275
f 45//276 40//276 54//276
f 55//120 53//120 52//120
f 50//121 49//121 48//121
f 37//277 42//277 47//277
f 50//278 54//278 40//278
f 38//126 41//126 46//126
f 49//127 50//127 39//127
f 44//128 45//128 56//128
f 53//129 55//129 51//129
f 65//279 62//279 60//279
f 64//280 62//280 65//280
f 68//281 67//281 70//281
f 70//257 67//257 74//257
f 78//282 81//282 79//282
f 78//259 76//259 83//259
f 86//283 85//283 88//283
f 88//261 85//261 92//261
f 66//143 57//143 60//143
f 67//284 68//284 60//284
f 61//145 71//145 74//145
f 62//285 64//285 74//285
f 86//100 84//100 66//100
f 86//286 69//286 72//286
f 92//267 73//267 71//267
f 72//287 73//287 92//287
f 75//288 84//288 87//288
f 77//289 87//289 90//289
f 89//270 80//270 83//270
f 90//271 91//271 83//271
f 79//290 59//290 57//290
f 58//291 59//291 79//291
f 80//292 61//292 63//292
f 82//293 63//293 58//293
f 66//112 84//112 75//112
f 89//113 71//113 61//113
f 93//114 95//114 97//114
f 96//154 101//154 103//154
f 102//116 100//116 99//116
f 110//275 104//275 98//275
f 101//155 112//155 114//155
f 113//120 111//120 110//120
f 112//156 107//156 109//156
f 108//121 106//121 105//121
f 93//277 98//277 104//277
f 107//157 96//157 95//157
f 94//126 97//126 103//126
f 106//127 108//127 95//127
f 112//113 101//113 96//113
f 100//128 102//128 114//128
f 111//129 113//129 109//129
f 123//279 120//279 118//279
f 123//294 116//294 121//294
f 127//256 130//256 128//256
f 127//257 125//257 132//257
f 136//295 139//295 137//295
f 136//259 134//259 141//259
f 145//260 148//260 146//260
f 145//261 143//261 150//261
f 124//143 115//143 118//143
f 125//296 126//296 118//296
f 119//145 129//145 132//145
f 120//264 122//264 132//264
f 128//265 144//265 142//265
f 143//297 144//297 128//297
f 150//267 131//267 129//267
f 130//298 131//298 150//298
f 133//104 142//104 146//104
f 134//299 135//299 146//299
f 147//270 138//270 141//270
f 148//271 149//271 141//271
f 137//290 117//290 115//290
f 116//300 117//300 137//300
f 121//273 140//273 138//273
f 139//301 140//301 121//301
f 124//112 142//112 133//112
f 147//113 129//113 119//113
f 157//167 151//167 153//167
f 152//114 154//114 156//114
f 160//116 159//116 158//116
f 167//168 157//168 159//168
f 160//276 155//276 170//276
f 171//120 169//120 168//120
f 162//169 167//169 169//169
f 165//121 164//121 163//121
f 151//170 162//170 164//170
f 165//278 170//278 155//278
f 157//112 167//112 162//112
f 153//126 156//126 161//126
f 164//127 165//127 154//127
f 159//128 160//128 172//128
f 169//129 171//129 166//129
f 181//279 178//279 176//279
f 181//294 174//294 179//294
f 185//256 188//256 186//256
f 185//257 183//257 190//257
f 194//295 197//295 195//295
f 194//259 192//259 199//259
f 203//260 206//260 204//260
f 203//302 201//302 208//302
f 182//143 173//143 176//143
f 183//296 184//296 176//296
f 177//145 187//145 190//145
f 178//264 180//264 190//264
f 186//265 202//265 200//265
f 201//297 202//297 186//297
f 208//267 189//267 187//267
f 188//287 189//287 208//287
f 191//104 200//104 204//104
f 192//299 193//299 204//299
f 205//270 196//270 199//270
f 206//271 207//271 199//271
f 195//290 175//290 173//290
f 174//291 175//291 195//291
f 179//273 198//273 196//273
f 197//274 198//274 179//274
f 182//112 200//112 191//112
f 205//113 187//113 177//113
f 209//114 211//114 213//114
f 217//116 216//116 215//116
f 223//275 218//275 214//275
f 216//276 212//276 225//276
f 226//120 224//120 223//120
f 221//121 220//121 219//121
f 209//277 214//277 218//277
f 221//278 225//278 212//278
f 220//127 221//127 211//127
f 215//128 216//128 227//128
f 224//129 226//129 222//129
f 230//303 229//303 236//303
f 236//294 229//294 234//294
f 240//256 243//256 241//256
f 244//304 243//304 240//304
f 249//282 252//282 250//282
f 249//259 247//259 254//259
f 258//260 261//260 259//260
f 258//261 256//261 263//261
f 237//305 228//305 231//305
f 239//263 231//263 233//263
f 232//306 242//306 245//306
f 235//307 245//307 238//307
f 241//265 257//265 255//265
f 256//266 257//266 241//266
f 242//102 260//102 263//102
f 243//308 244//308 263//308
f 246//104 255//104 259//104
f 247//299 248//299 259//299
f 260//270 251//270 254//270
f 261//271 262//271 254//271
f 228//150 246//150 250//150
f 229//109 230//109 250//109
f 234//273 253//273 251//273
f 252//274 253//274 234//274
f 237//112 255//112 246//112
f 260//113 242//113 232//113
f 264//114 266//114 268//114
f 272//116 271//116 270//116
f 279//275 274//275 269//275
f 272//276 267//276 281//276
f 282//120 280//120 279//120
f 277//121 276//121 275//121
f 264//277 269//277 274//277
f 277//278 281//278 267//278
f 265//126 268//126 273//126
f 276//127 277//127 266//127
f 271//128 272//128 283//128
f 280//129 282//129 278//129
f 286//303 285//303 292//303
f 292//294 285//294 290//294
f 296//256 299//256 297//256
f 300//304 299//304 296//304
f 304//309 303//309 306//309
f 306//310 303//310 310//310
f 313//283 312//283 315//283
f 315//261 312//261 319//261
f 293//262 284//262 287//262
f 295//311 287//311 289//311
f 291//312 288//312 298//312
f 294//313 289//313 291//313
f 313//100 311//100 293//100
f 312//147 313//147 297//147
f 300//102 298//102 316//102
f 299//308 300//308 319//308
f 304//104 302//104 311//104
f 317//314 303//314 304//314
f 316//270 307//270 310//270
f 317//315 318//315 310//315
f 286//150 284//150 302//150
f 286//272 305//272 308//272
f 290//273 309//273 307//273
f 308//301 309//301 290//301
f 293//112 311//112 302//112
f 316//113 298//113 288//113
f 320//114 322//114 324//114
f 3//303 2//303 9//303
f 328//116 327//116 326//116
f 333//275 329//275 325//275
f 327//276 323//276 335//276
f 336//316 334//316 333//316
f 332//121 331//121 330//121
f 320//277 325//277 329//277
f 331//278 335//278 323//278
f 330//127 331//127 322//127
f 326//128 327//128 337//128
f 340//303 339//303 346//303
f 346//294 339//294 344//294
f 349//281 348//281 351//281
f 354//304 353//304 351//304
f 359//295 362//295 360//295
f 363//317 362//317 359//317
f 367//283 366//283 369//283
f 369//261 366//261 373//261
f 349//143 347//143 338//143
f 349//318 341//318 343//318
f 342//306 352//306 355//306
f 345//307 355//307 348//307
f 367//100 365//100 347//100
f 367//286 350//286 353//286
f 352//102 370//102 373//102
f 353//308 354//308 373//308
f 356//288 365//288 368//288
f 358//289 368//289 371//289
f 370//319 361//319 364//319
f 372//320 364//320 357//320
f 338//150 356//150 360//150
f 339//109 340//109 360//109
f 361//110 342//110 344//110
f 362//236 363//236 344//236
f 347//112 365//112 356//112
f 370//113 352//113 342//113
f 375//321 374//321 376//321
f 381//322 380//322 379//322
f 386//275 382//275 378//275
f 380//276 377//276 388//276
f 389//323 385//323 387//323
f 385//324 384//324 383//324
f 374//277 378//277 382//277
f 384//278 388//278 377//278
f 383//127 384//127 376//127
f 379//128 380//128 389//128
f 392//303 391//303 398//303
f 398//294 391//294 396//294
f 401//325 400//325 403//325
f 403//326 400//326 407//326
f 411//295 414//295 412//295
f 415//317 414//317 411//317
f 420//327 423//327 421//327
f 420//261 418//261 425//261
f 401//143 399//143 390//143
f 395//328 400//328 401//328
f 407//329 397//329 394//329
f 395//330 397//330 407//330
f 402//331 419//331 417//331
f 418//332 419//332 402//332
f 425//267 406//267 404//267
f 405//298 406//298 425//298
f 421//333 410//333 408//333
f 409//334 410//334 421//334
f 424//335 422//335 413//335
f 409//336 423//336 424//336
f 392//150 390//150 408//150
f 391//109 392//109 412//109
f 415//110 413//110 394//110
f 414//236 415//236 396//236
f 399//112 417//112 408//112
f 422//113 404//113 394//113
f 426//114 428//114 430//114
f 434//116 433//116 432//116
f 441//275 436//275 431//275
f 434//276 429//276 443//276
f 444//120 442//120 441//120
f 439//121 438//121 437//121
f 426//277 431//277 436//277
f 439//278 443//278 429//278
f 427//126 430//126 435//126
f 438//127 439//127 428//127
f 433//128 434//128 445//128
f 442//129 444//129 440//129
f 454//279 451//279 449//279
f 454//255 447//255 452//255
f 458//337 461//337 459//337
f 462//304 461//304 458//304
f 466//338 465//338 468//338
f 468//259 465//259 472//259
f 476//260 479//260 477//260
f 476//302 474//302 481//302
f 455//143 446//143 449//143
f 456//296 457//296 449//296
f 450//306 460//306 463//306
f 453//307 463//307 456//307
f 459//265 475//265 473//265
f 474//266 475//266 459//266
f 460//102 478//102 481//102
f 461//308 462//308 481//308
f 464//104 473//104 477//104
f 465//269 466//269 477//269
f 478//270 469//270 472//270
f 479//271 480//271 472//271
f 446//339 464//339 467//339
f 448//340 467//340 470//340
f 452//273 471//273 469//273
f 470//341 471//341 452//341
f 455//112 473//112 464//112
f 478//113 460//113 450//113
f 483//321 482//321 484//321
f 489//322 488//322 487//322
f 495//275 490//275 486//275
f 488//276 485//276 497//276
f 498//342 494//342 496//342
f 493//121 492//121 491//121
f 482//277 486//277 490//277
f 493//278 497//278 485//278
f 492//127 493//127 484//127
f 487//128 488//128 498//128
f 501//303 500//303 507//303
f 506//343 504//343 507//343
f 510//281 509//281 512//281
f 512//257 509//257 516//257
f 519//258 518//258 521//258
f 524//317 523//317 521//317
f 528//283 527//283 530//283
f 530//261 527//261 534//261
f 510//143 508//143 499//143
f 510//318 502//318 504//318
f 503//145 513//145 516//145
f 504//285 506//285 516//285
f 528//100 526//100 508//100
f 528//344 511//344 514//344
f 534//267 515//267 513//267
f 514//287 515//287 534//287
f 519//104 517//104 526//104
f 519//345 529//345 532//345
f 531//319 522//319 525//319
f 533//320 525//320 518//320
f 501//150 499//150 517//150
f 501//346 520//346 523//346
f 524//110 522//110 503//110
f 524//347 505//347 500//347
f 508//112 526//112 517//112
f 531//113 513//113 503//113
f 535//114 537//114 539//114
f 538//154 543//154 545//154
f 544//116 542//116 541//116
f 552//275 546//275 540//275
f 543//155 554//155 556//155
f 555//120 553//120 552//120
f 554//156 549//156 551//156
f 550//121 548//121 547//121
f 535//277 540//277 546//277
f 549//157 538//157 537//157
f 536//126 539//126 545//126
f 548//127 550//127 537//127
f 554//113 543//113 538//113
f 542//128 544//128 556//128
f 553//129 555//129 551//129
f 565//279 562//279 560//279
f 565//294 558//294 563//294
f 569//256 572//256 570//256
f 569//257 567//257 574//257
f 578//295 581//295 579//295
f 578//259 576//259 583//259
f 587//260 590//260 588//260
f 587//261 585//261 592//261
f 566//143 557//143 560//143
f 567//296 568//296 560//296
f 561//145 571//145 574//145
f 562//264 564//264 574//264
f 570//265 586//265 584//265
f 585//266 586//266 570//266
f 592//267 573//267 571//267
f 572//287 573//287 592//287
f 575//104 584//104 588//104
f 576//299 577//299 588//299
f 589//270 580//270 583//270
f 590//271 591//271 583//271
f 579//290 559//290 557//290
f 558//348 559//348 579//348
f 563//273 582//273 580//273
f 581//301 582//301 563//301
f 566//112 584//112 575//112
f 589//113 571//113 561//113
f 594//114 593//114 595//114
f 600//116 599//116 598//116
f 606//349 597//349 599//349
f 600//276 596//276 609//276
f 610//316 608//316 607//316
f 605//121 604//121 603//121
f 593//350 597//350 602//350
f 604//278 609//278 596//278
f 603//127 604//127 595//127
f 599//128 600//128 611//128
f 620//279 617//279 615//279
f 620//294 613//294 618//294
f 623//281 622//281 625//281
f 625//257 622//257 629//257
f 633//295 636//295 634//295
f 637//317 636//317 633//317
f 641//283 640//283 643//283
f 643//302 640//302 647//302
f 621//143 612//143 615//143
f 622//284 623//284 615//284
f 616//145 626//145 629//145
f 617//264 619//264 629//264
f 641//100 639//100 621//100
f 641//286 624//286 627//286
f 647//267 628//267 626//267
f 627//298 628//298 647//298
f 630//288 639//288 642//288
f 632//289 642//289 645//289
f 644//351 635//351 638//351
f 646//320 638//320 631//320
f 634//290 614//290 612//290
f 613//291 614//291 634//291
f 635//110 616//110 618//110
f 636//236 637//236 618//236
f 621//112 639//112 630//112
f 644//113 626//113 616//113
f 648//114 650//114 652//114
f 656//116 655//116 654//116
f 662//275 657//275 653//275
f 655//276 651//276 664//276
f 665//342 661//342 663//342
f 660//121 659//121 658//121
f 648//277 653//277 657//277
f 660//278 664//278 651//278
f 659//127 660//127 650//127
f 654//128 655//128 665//128
f 668//253 673//253 672//253
f 668//114 667//114 669//114
f 677//244 671//244 670//244
f 677//116 676//116 674//116
f 684//245 672//245 674//245
f 675//246 687//246 689//246
f 685//120 689//120 688//120
f 679//247 678//247 684//247
f 688//352 687//352 681//352
f 679//121 683//121 682//121
f 666//249 678//249 680//249
f 681//250 670//250 669//250
f 672//251 684//251 678//251
f 673//126 668//126 671//126
f 680//127 682//127 669//127
f 687//252 675//252 670//252
f 674//128 676//128 689//128
f 683//129 679//129 686//129
f 692//253 697//253 696//253
f 692//114 691//114 693//114
f 701//244 695//244 694//244
f 701//116 700//116 698//116
f 708//245 696//245 698//245
f 699//246 711//246 713//246
f 709//120 713//120 712//120
f 703//353 702//353 708//353
f 712//248 711//248 705//248
f 703//121 707//121 706//121
f 690//249 702//249 704//249
f 705//250 694//250 693//250
f 696//251 708//251 702//251
f 697//126 692//126 695//126
f 704//127 706//127 693//127
f 711//252 699//252 694//252
f 698//128 700//128 713//128
f 707//129 703//129 710//129
