# Blender 5.2.1 LTS
# www.blender.org
o TreeTrunk
v 0.323849 -0.437500 -0.173037
v 0.180134 -0.437500 -0.313118
v -0.339591 -0.437500 -0.167390
v -0.398536 -0.437500 0.021760
v -0.012750 -0.437500 0.401179
v 0.176379 -0.437500 0.350120
v 0.277111 -0.375000 -0.138205
v 0.158957 -0.375000 -0.262159
v -0.284007 -0.375000 -0.133847
v -0.338904 -0.375000 0.026339
v -0.007213 -0.375000 0.347441
v 0.155350 -0.375000 0.308576
v 0.248945 -0.312500 -0.114743
v -0.155088 -0.312500 -0.234580
v -0.256227 -0.312500 -0.116282
v -0.002312 -0.312500 0.327260
v 0.292657 -0.250000 0.034632
v 0.237469 -0.250000 -0.101825
v -0.142495 -0.250000 -0.215677
v -0.238741 -0.250000 -0.104504
v -0.140733 -0.250000 0.281881
v 0.001679 -0.250000 0.311125
v 0.273730 -0.187500 0.038143
v 0.228790 -0.187500 -0.091654
v -0.133367 -0.187500 -0.201232
v -0.229676 -0.187500 -0.097385
v -0.129028 -0.187500 0.269983
v 0.004508 -0.187500 0.301232
v 0.266094 -0.125000 0.041104
v 0.228371 -0.125000 -0.087610
v -0.122329 -0.125000 -0.181628
v -0.218262 -0.125000 -0.088659
v -0.123485 -0.125000 0.265843
v 0.005961 -0.125000 0.304719
v 0.257053 -0.062500 0.043430
v -0.118145 -0.062500 -0.171867
v -0.207850 -0.062500 -0.080250
v -0.120475 -0.062500 0.262772
v 0.005862 -0.062500 0.295689
v 0.238248 0.000000 0.045043
v -0.116781 0.000000 -0.164798
v -0.205251 0.000000 -0.076103
v -0.116966 0.000000 0.255206
v 0.004083 0.000000 0.281969
v 0.211454 0.000000 0.165053
v 0.226523 0.062500 0.045876
v -0.110103 0.062500 -0.146228
v -0.112316 0.062500 0.241822
v 0.206024 0.125000 0.045871
v 0.186907 0.125000 -0.065060
v -0.108802 0.125000 -0.134736
v -0.108364 0.125000 0.225718
v 0.184133 0.187500 0.044981
v 0.168407 0.187500 -0.059337
v -0.011850 0.187500 -0.162425
v -0.113684 0.187500 -0.131819
v -0.108857 0.187500 0.213402
v 0.175043 0.250000 0.043172
v -0.020589 0.250000 -0.152398
v -0.115938 0.250000 -0.122370
v -0.187706 0.250000 0.139887
v -0.115863 0.250000 0.208584
v 0.157644 0.312500 0.040421
v -0.030851 0.312500 -0.146204
v -0.123267 0.312500 -0.120029
v -0.191922 0.312500 0.133637
v -0.126294 0.312500 0.206126
v 0.124481 0.312500 0.130315
v 0.138494 0.375000 0.036719
v 0.051836 0.375000 -0.126958
v -0.042439 0.375000 -0.143375
v -0.197133 0.375000 0.126244
v 0.100465 0.375000 0.119421
v 0.032715 0.437500 -0.120410
v -0.055111 0.437500 -0.136333
v -0.197276 0.437500 0.114344
v 0.083077 0.437500 0.112042
v 0.497137 -0.500000 0.017672
v 0.500000 -0.495419 0.017379
v 0.394114 -0.500000 -0.220759
v 0.396589 -0.495245 -0.222644
v 0.214660 -0.500000 -0.389406
v 0.217280 -0.495169 -0.391387
v -0.019496 -0.500000 -0.497458
v -0.018180 -0.495246 -0.500000
v -0.273488 -0.500000 -0.426912
v -0.275057 -0.495332 -0.428581
v -0.430940 -0.500000 -0.222289
v -0.433070 -0.495587 -0.222721
v -0.497682 -0.500000 0.017759
v -0.500000 -0.495432 0.017378
v -0.463666 -0.500000 0.275472
v -0.465882 -0.495336 0.276475
v -0.278230 -0.500000 0.466346
v -0.278438 -0.495398 0.469206
v -0.019484 -0.500000 0.497243
v -0.018209 -0.495550 0.500000
v 0.218457 -0.500000 0.427542
v 0.219710 -0.495432 0.430425
v 0.421678 -0.500000 0.270872
v 0.423805 -0.495375 0.273176
v 0.396324 -0.437500 0.012217
v 0.397179 -0.437500 0.031664
v 0.407780 -0.441976 0.021421
v -0.022486 -0.437500 -0.397071
v -0.003325 -0.437500 -0.395674
v -0.013170 -0.441969 -0.407660
v -0.226609 -0.437500 -0.330578
v -0.210778 -0.437500 -0.342070
v -0.224749 -0.441858 -0.345923
v -0.367017 -0.437500 0.238166
v -0.375419 -0.437500 0.220815
v -0.381234 -0.441914 0.234436
v -0.210690 -0.437500 0.384511
v -0.228385 -0.437500 0.376441
v -0.225534 -0.441903 0.390136
v 0.343464 -0.437500 0.216506
v 0.332456 -0.437500 0.232428
v 0.347231 -0.442095 0.229991
v 0.334817 -0.375000 0.016752
v 0.335874 -0.375000 0.036303
v -0.016882 -0.375000 -0.330843
v 0.002244 -0.375000 -0.329882
v -0.172413 -0.375000 -0.280571
v -0.188219 -0.375000 -0.268891
v -0.179546 -0.368943 -0.273265
v -0.309343 -0.375000 0.212488
v -0.318117 -0.375000 0.195416
v -0.171606 -0.375000 0.330929
v -0.189514 -0.375000 0.322994
v 0.296850 -0.375000 0.190992
v 0.286284 -0.375000 0.207123
v 0.305820 -0.312500 0.040749
v 0.303830 -0.312500 0.021175
v 0.306024 -0.305676 0.031098
v 0.139644 -0.312500 -0.235980
v 0.155639 -0.312500 -0.224347
v 0.150075 -0.319042 -0.235248
v -0.011785 -0.312500 -0.290877
v 0.007180 -0.312500 -0.290680
v -0.311577 -0.312500 0.040680
v -0.309665 -0.312500 0.021196
v -0.316068 -0.319159 0.030204
v -0.276651 -0.312500 0.200559
v -0.286285 -0.312500 0.183951
v -0.165337 -0.312500 0.293667
v -0.147267 -0.312500 0.301975
v -0.155752 -0.305820 0.298226
v 0.159724 -0.312500 0.291971
v 0.141955 -0.312500 0.300348
v 0.152322 -0.319375 0.299594
v 0.279859 -0.312500 0.182883
v 0.270207 -0.312500 0.199454
v 0.143276 -0.250000 -0.231029
v 0.158665 -0.250000 -0.219621
v -0.007758 -0.250000 -0.270049
v 0.011466 -0.250000 -0.270897
v -0.291696 -0.250000 0.044623
v -0.289878 -0.250000 0.025181
v -0.256036 -0.250000 0.194688
v -0.266120 -0.250000 0.178507
v 0.162290 -0.250000 0.293435
v 0.144316 -0.250000 0.300623
v 0.281439 -0.250000 0.185941
v 0.272809 -0.250000 0.202575
v 0.141970 -0.187500 -0.220140
v 0.157120 -0.187500 -0.208893
v -0.004951 -0.187500 -0.252055
v 0.014383 -0.187500 -0.253237
v -0.279170 -0.187500 0.048152
v -0.277372 -0.187500 0.028641
v -0.245533 -0.187500 0.193420
v -0.255887 -0.187500 0.177780
v 0.159523 -0.187500 0.287368
v 0.141779 -0.187500 0.294595
v 0.268654 -0.187500 0.180617
v 0.260670 -0.187500 0.197567
v 0.134485 -0.125000 -0.201806
v 0.150375 -0.125000 -0.190870
v -0.003331 -0.125000 -0.234818
v 0.015752 -0.125000 -0.236140
v -0.271299 -0.125000 0.050917
v -0.269960 -0.125000 0.031769
v -0.227757 -0.125000 0.187231
v -0.238581 -0.125000 0.171268
v 0.153279 -0.125000 0.277190
v 0.135971 -0.125000 0.285762
v 0.251158 -0.125000 0.172226
v 0.242735 -0.125000 0.189469
v 0.221836 -0.062500 -0.093074
v 0.230701 -0.062500 -0.075492
v 0.228487 -0.069419 -0.085659
v 0.129405 -0.062500 -0.190827
v 0.145851 -0.062500 -0.180370
v -0.003463 -0.062500 -0.222058
v 0.015652 -0.062500 -0.223342
v -0.261248 -0.062500 0.053136
v -0.260065 -0.062500 0.034188
v -0.215125 -0.062500 0.182424
v -0.225936 -0.062500 0.166117
v 0.144795 -0.062500 0.265151
v 0.127790 -0.062500 0.274274
v 0.224333 -0.062500 0.181303
v 0.233304 -0.062500 0.163943
v 0.229196 -0.055767 0.172963
v 0.212344 0.000000 -0.086994
v 0.220573 0.000000 -0.069295
v 0.122861 0.000000 -0.180842
v 0.139382 0.000000 -0.170609
v -0.005399 0.000000 -0.208257
v 0.013925 0.000000 -0.209378
v -0.253750 0.000000 0.054820
v -0.252578 0.000000 0.035688
v -0.211597 0.000000 0.180805
v -0.222403 0.000000 0.164723
v 0.135892 0.000000 0.254768
v 0.119290 0.000000 0.264093
v 0.208052 0.062500 -0.063205
v 0.199628 0.062500 -0.080835
v 0.204256 0.069244 -0.072348
v 0.113287 0.062500 -0.169247
v 0.129993 0.062500 -0.159577
v -0.008851 0.062500 -0.188620
v 0.010503 0.062500 -0.190495
v -0.204131 0.062500 -0.060936
v -0.192462 0.062500 -0.076852
v -0.200779 0.055603 -0.070952
v -0.244902 0.062500 0.055334
v -0.244725 0.062500 0.036498
v -0.206047 0.062500 0.153832
v -0.194642 0.062500 0.169979
v -0.201599 0.069384 0.162522
v 0.010513 0.062500 0.281556
v -0.009058 0.062500 0.279972
v 0.000937 0.055585 0.283349
v 0.129979 0.062500 0.251507
v 0.113472 0.062500 0.261268
v 0.205532 0.062500 0.153399
v 0.197067 0.062500 0.171181
v 0.204452 0.055605 0.163564
v 0.103826 0.125000 -0.161506
v 0.120133 0.125000 -0.152206
v 0.005320 0.125000 -0.173546
v -0.014278 0.125000 -0.171122
v -0.005550 0.131839 -0.173428
v -0.204541 0.125000 -0.058208
v -0.192980 0.125000 -0.073756
v -0.236966 0.125000 0.055286
v -0.237458 0.125000 0.036277
v -0.187818 0.125000 0.162712
v -0.199607 0.125000 0.146989
v -0.196493 0.118116 0.157162
v 0.005246 0.125000 0.273847
v -0.014011 0.125000 0.271081
v 0.122333 0.125000 0.247523
v 0.105822 0.125000 0.257047
v 0.194745 0.125000 0.150596
v 0.187203 0.125000 0.168563
v 0.093796 0.187500 -0.156710
v 0.109627 0.187500 -0.147703
v -0.206151 0.187500 -0.056112
v -0.195288 0.187500 -0.071917
v -0.230482 0.187500 0.054583
v -0.231138 0.187500 0.035181
v -0.199978 0.187500 0.142319
v -0.188327 0.187500 0.157745
v -0.195663 0.194330 0.150608
v -0.001723 0.187500 0.256199
v -0.021190 0.187500 0.252920
v 0.110551 0.187500 0.238543
v 0.094009 0.187500 0.247395
v 0.178397 0.187500 0.144584
v 0.171449 0.187500 0.162670
v 0.151510 0.250000 -0.068092
v 0.159828 0.250000 -0.050260
v 0.159318 0.243122 -0.060188
v 0.076720 0.250000 -0.144313
v 0.093518 0.250000 -0.135757
v -0.203981 0.250000 -0.051541
v -0.192821 0.250000 -0.067191
v -0.228100 0.250000 0.052400
v -0.229443 0.250000 0.033438
v -0.010594 0.250000 0.251217
v -0.029878 0.250000 0.248745
v 0.094867 0.250000 0.224732
v 0.078524 0.250000 0.234573
v 0.150786 0.250000 0.153972
v 0.158835 0.250000 0.135991
v 0.153730 0.256437 0.144382
v 0.138300 0.312500 -0.068633
v 0.147318 0.312500 -0.051935
v 0.074334 0.312500 -0.122132
v 0.056500 0.312500 -0.130463
v 0.064927 0.319332 -0.128469
v -0.208847 0.312500 -0.051209
v -0.197806 0.312500 -0.066874
v -0.230643 0.312500 0.049652
v -0.232119 0.312500 0.030646
v -0.021278 0.312500 0.243710
v -0.040280 0.312500 0.243061
v 0.073761 0.312500 0.203654
v 0.058395 0.312500 0.215415
v 0.124577 0.375000 -0.070938
v 0.133309 0.375000 -0.054513
v -0.143865 0.375000 -0.119424
v -0.126316 0.375000 -0.128098
v -0.134894 0.368164 -0.125593
v -0.211549 0.375000 -0.049972
v -0.201878 0.375000 -0.066725
v -0.226841 0.375000 0.046250
v -0.228223 0.375000 0.026787
v -0.126136 0.375000 0.202053
v -0.142501 0.375000 0.191030
v -0.134807 0.368137 0.199701
v -0.033035 0.375000 0.225292
v -0.052188 0.375000 0.225972
v 0.053286 0.375000 0.184332
v 0.037901 0.375000 0.196384
v 0.119766 0.437500 0.021934
v 0.116530 0.437500 0.041266
v 0.122790 0.430712 0.032575
v 0.102049 0.437500 -0.069782
v 0.111484 0.437500 -0.053601
v -0.133083 0.437500 -0.122467
v -0.150694 0.437500 -0.113896
v -0.143671 0.444379 -0.119727
v -0.214330 0.437500 -0.048929
v -0.204689 0.437500 -0.065639
v -0.227331 0.437500 0.041470
v -0.229134 0.437500 0.022120
v -0.134407 0.437500 0.189816
v -0.150206 0.437500 0.178254
v -0.045759 0.437500 0.212548
v -0.064828 0.437500 0.213237
v 0.036503 0.437500 0.172310
v 0.020930 0.437500 0.184310
v 0.094951 0.493323 0.036536
v 0.096652 0.493291 0.017079
v 0.085504 0.500000 0.025564
v 0.073908 0.493212 -0.065550
v 0.069395 0.500000 -0.052953
v 0.083934 0.493471 -0.049238
v 0.006568 0.500000 -0.102019
v 0.013296 0.493156 -0.112481
v -0.068607 0.500000 -0.117149
v -0.067096 0.493133 -0.128474
v -0.144260 0.500000 -0.102408
v -0.147749 0.493136 -0.112923
v -0.221148 0.493106 -0.050986
v -0.210952 0.500000 -0.055307
v -0.210997 0.493144 -0.066832
v -0.231974 0.493082 0.036474
v -0.225998 0.500000 0.025347
v -0.234070 0.493095 0.017114
v -0.194744 0.500000 0.099292
v -0.202824 0.493080 0.105663
v -0.140693 0.493150 0.175196
v -0.144669 0.500000 0.161010
v -0.156643 0.493092 0.163316
v -0.057636 0.493197 0.201065
v -0.068462 0.500000 0.192364
v -0.076583 0.493099 0.200850
v 0.022500 0.493213 0.163949
v 0.008344 0.500000 0.162607
v 0.006904 0.493162 0.175735
v 0.056436 0.500000 0.098962
v 0.067268 0.493227 0.104866
vn 0.5312 0.6794 -0.5063
vn -0.6638 0.7125 -0.2275
vn 0.2028 0.6280 0.7513
vn -0.7175 0.3301 -0.6134
vn 0.9040 0.2913 -0.3130
vn -0.7314 0.2532 -0.6332
vn -0.1963 0.2187 0.9558
vn 0.9516 0.1295 -0.2789
vn -0.6936 0.3243 -0.6433
vn -0.2270 0.0844 0.9702
vn -0.6873 0.1568 -0.7092
vn -0.2517 0.0596 0.9660
vn -0.7113 0.0943 -0.6965
vn -0.2141 0.1292 0.9682
vn 0.9322 0.3242 -0.1606
vn -0.2860 0.1127 -0.9516
vn -0.3001 0.0452 -0.9528
vn -0.7412 0.0171 0.6711
vn 0.8371 0.3887 0.3849
vn 0.1695 0.1538 -0.9734
vn 0.3753 0.9268 -0.0165
vn 0.0269 0.9292 -0.3685
vn -0.2110 0.9333 -0.2906
vn -0.3308 0.9300 0.1602
vn -0.1509 0.9315 0.3309
vn 0.3229 0.9197 0.2232
vn -0.5738 0.2607 -0.7764
vn 0.9803 -0.1702 -0.0997
vn 0.4488 0.6465 -0.6170
vn -0.7677 0.6363 -0.0753
vn -0.4176 -0.0206 0.9084
vn 0.3746 0.4777 0.7947
vn 0.8358 0.3518 -0.4214
vn 0.8860 -0.0728 0.4579
vn 0.8997 -0.0764 -0.4298
vn -0.7308 0.4229 -0.5358
vn -0.8009 -0.1966 0.5656
vn -0.0757 0.3471 0.9348
vn 0.8101 0.4416 0.3856
vn -0.1208 -0.1752 -0.9771
vn -0.7085 0.4645 0.5313
vn -0.7781 -0.2216 0.5877
vn 0.7964 0.4772 -0.3715
vn 0.8965 0.1879 0.4013
vn 0.4099 -0.2495 -0.8773
vn -0.4321 0.2218 -0.8741
vn -0.5148 0.3885 0.7642
vn 0.8087 0.5725 0.1353
vn -0.4174 -0.3008 -0.8575
vn 0.5405 0.8401 0.0459
vn 0.4529 0.8425 -0.2917
vn -0.6236 0.6729 -0.3979
vn -0.6915 0.7185 0.0754
vn -0.3647 0.7944 0.4858
vn -0.0111 0.7810 0.6244
vn 0.3471 0.8156 0.4629
vn 0.7877 -0.5139 -0.3397
vn 0.5757 -0.5422 -0.6120
vn 0.3594 -0.5143 -0.7787
vn -0.2450 -0.4035 -0.8816
vn -0.7132 -0.4361 -0.5488
vn -0.8647 -0.4409 -0.2404
vn -0.8895 -0.4415 0.1174
vn -0.6439 -0.4404 0.6256
vn -0.1007 -0.5285 0.8429
vn 0.2330 -0.5596 0.7954
vn 0.5078 -0.5550 0.6589
vn 0.8279 -0.5036 0.2467
vn 0.7119 0.7012 -0.0385
vn 0.0502 0.7242 -0.6877
vn -0.3842 0.7565 -0.5292
vn -0.6357 0.7079 0.3078
vn -0.2882 0.7195 0.6318
vn 0.6281 0.6457 0.4342
vn 0.8949 0.4368 -0.0910
vn 0.0424 0.5358 -0.8433
vn -0.7836 0.4730 0.4027
vn -0.3496 0.5054 0.7889
vn 0.8016 0.2860 0.5250
vn 0.5879 0.0299 -0.8083
vn 0.0099 0.3156 -0.9489
vn -0.9475 0.3059 -0.0930
vn -0.8232 0.3072 0.4775
vn 0.4263 -0.0201 0.9044
vn 0.8632 -0.0464 0.5028
vn 0.5887 0.1507 -0.7942
vn -0.0423 0.2782 -0.9596
vn -0.9755 0.2002 -0.0912
vn -0.8399 0.1436 0.5234
vn 0.3692 0.1060 0.9233
vn 0.8668 0.2156 0.4497
vn 0.5698 0.2934 -0.7676
vn -0.0588 0.2668 -0.9619
vn -0.9884 0.1218 -0.0911
vn -0.8012 0.2771 0.5304
vn 0.3707 0.1852 0.9101
vn 0.8640 0.2965 0.4070
vn 0.5569 0.1874 -0.8092
vn -0.0677 0.2000 -0.9774
vn -0.9849 0.1586 -0.0689
vn -0.8094 0.2090 0.5488
vn 0.4322 0.2268 0.8728
vn 0.8570 0.3003 0.4187
vn 0.8789 0.1766 -0.4431
vn 0.5274 0.1841 -0.8294
vn -0.0654 0.2159 -0.9742
vn -0.9908 0.1202 -0.0619
vn -0.8320 0.0593 0.5516
vn 0.4623 0.2090 0.8617
vn 0.8845 0.2205 -0.4112
vn 0.5132 0.2234 -0.8287
vn -0.0555 0.2860 -0.9566
vn -0.9903 0.1252 -0.0607
vn -0.7918 0.2999 0.5320
vn 0.4877 0.0914 0.8682
vn 0.4930 0.1782 -0.8516
vn -0.0933 0.2534 -0.9629
vn -0.8063 0.0226 -0.5911
vn -0.9920 0.1260 -0.0093
vn -0.0801 0.1154 0.9901
vn 0.5055 0.1163 0.8549
vn 0.8894 0.1725 0.4234
vn 0.4902 0.1443 -0.8596
vn -0.8024 -0.0121 -0.5966
vn -0.9943 0.1034 0.0258
vn -0.7994 0.0411 0.5994
vn -0.1375 0.2549 0.9571
vn 0.4882 0.2136 0.8462
vn 0.8883 0.2682 0.3729
vn 0.4745 0.2817 -0.8340
vn -0.8218 0.0752 -0.5648
vn -0.9987 0.0392 0.0338
vn -0.1659 0.0549 0.9846
vn 0.4503 0.2989 0.8414
vn 0.8787 0.3375 0.3376
vn 0.8934 0.1677 -0.4167
vn 0.4305 0.3164 -0.8453
vn -0.8126 -0.0619 -0.5795
vn -0.9968 -0.0375 0.0706
vn -0.1265 0.0969 0.9872
vn 0.4681 0.4202 0.7774
vn 0.8663 0.1749 -0.4679
vn -0.8163 -0.0518 -0.5753
vn -0.9949 0.0647 0.0773
vn -0.0328 0.2768 0.9604
vn 0.5554 0.4063 0.7256
vn 0.8421 0.3006 -0.4477
vn -0.4429 0.0328 -0.8960
vn -0.8657 -0.0302 -0.4997
vn -0.9975 -0.0024 0.0708
vn -0.5565 0.0881 0.8262
vn 0.0347 0.2065 0.9778
vn 0.5878 0.3022 0.7504
vn 0.9184 0.3874 0.0797
vn 0.7835 0.4213 -0.4568
vn 0.4266 0.9002 -0.0875
vn 0.2954 0.8754 -0.3826
vn 0.1018 0.8566 -0.5058
vn -0.1013 0.8481 -0.5200
vn -0.8611 -0.1083 -0.4968
vn -0.3390 0.8091 -0.4800
vn -0.9929 -0.0746 0.0925
vn -0.5802 0.8073 -0.1082
vn -0.5273 0.8201 0.2222
vn -0.5844 0.1438 0.7986
vn -0.4198 0.8413 0.3406
vn 0.0353 0.2090 0.9773
vn -0.1983 0.8447 0.4971
vn 0.5889 0.2627 0.7643
vn 0.1849 0.8631 0.4699
vn 0.3868 0.8743 0.2933
vn 0.4294 0.8870 0.1700
vn 0.5008 0.8531 0.1459
vn 0.4957 0.8435 -0.2068
vn -0.0000 -1.0000 -0.0000
vn 0.3882 0.8311 -0.3982
vn 0.2233 0.8390 -0.4962
vn -0.1387 0.8678 -0.4771
vn -0.3984 0.8685 -0.2949
vn -0.4664 0.8749 -0.1306
vn -0.5115 0.8572 0.0594
vn -0.3518 0.8675 0.3517
vn -0.0554 0.8520 0.5206
vn 0.1478 0.8492 0.5070
vn 0.3321 0.8342 0.4404
vn 0.7487 0.6355 0.1889
vn 0.6776 0.6860 -0.2651
vn -0.2136 0.7195 -0.6609
vn 0.2974 0.6618 -0.6881
vn -0.5623 0.7296 -0.3893
vn -0.5139 0.6859 0.5152
vn -0.7239 0.6842 0.0890
vn -0.0622 0.6717 0.7382
vn 0.4943 0.5904 0.6380
vn 0.9446 0.2792 0.1725
vn 0.8339 0.4373 -0.3367
vn -0.2874 0.6181 -0.7317
vn 0.3473 0.4624 -0.8159
vn -0.6052 0.6049 -0.5175
vn -0.6076 0.4436 0.6588
vn -0.9035 0.4093 0.1271
vn -0.0894 0.4471 0.8900
vn 0.6106 0.1939 0.7679
vn 0.9745 0.2123 0.0723
vn 0.9001 0.2393 -0.3640
vn 0.6989 0.3970 -0.5949
vn 0.2890 0.0589 -0.9555
vn 0.8029 0.2584 -0.5371
vn -0.3550 0.3161 -0.8798
vn -0.8635 0.3764 -0.3357
vn -0.9426 0.2894 0.1664
vn -0.8854 0.3126 -0.3441
vn -0.5623 0.3616 0.7436
vn -0.1907 0.3185 0.9286
vn 0.1808 0.1664 0.9693
vn 0.6414 -0.0443 0.7659
vn 0.1782 0.2353 0.9554
vn 0.2474 0.1713 -0.9536
vn 0.8361 0.1993 -0.5111
vn -0.3600 0.2730 -0.8921
vn -0.9656 0.1831 0.1845
vn -0.9161 0.1740 -0.3612
vn -0.5990 0.1167 0.7922
vn 0.6605 0.1015 0.7439
vn 0.0726 0.1527 0.9856
vn 0.9759 0.2058 0.0724
vn 0.2649 0.3005 -0.9162
vn 0.7972 0.0443 -0.6021
vn -0.3556 0.2570 -0.8986
vn -0.9777 0.1154 0.1756
vn -0.9134 0.2151 -0.3457
vn -0.5342 0.2324 0.8128
vn 0.6883 0.1831 0.7019
vn 0.1440 -0.0585 0.9878
vn 0.9612 0.2737 0.0342
vn 0.2699 0.1878 -0.9444
vn 0.7789 0.0824 -0.6218
vn -0.4012 0.1824 -0.8976
vn -0.9549 0.1443 0.2596
vn -0.9000 0.2019 -0.3864
vn -0.5922 0.1801 0.7854
vn 0.7069 0.2251 0.6705
vn 0.1713 0.1411 0.9751
vn 0.9520 0.2863 0.1084
vn 0.9763 0.0056 -0.2163
vn 0.7418 0.1756 -0.6473
vn 0.9462 0.2885 -0.1463
vn 0.2704 0.1794 -0.9459
vn -0.3939 0.1866 -0.9000
vn -0.9491 0.1059 0.2966
vn -0.9078 0.0652 -0.4142
vn -0.6171 0.0552 0.7849
vn 0.7274 0.3092 0.6126
vn 0.1497 0.2161 0.9648
vn 0.9248 0.3196 0.2065
vn 0.7362 0.2131 -0.6424
vn 0.9691 0.1840 -0.1641
vn 0.2476 0.2133 -0.9451
vn -0.3507 0.2630 -0.8988
vn -0.9226 0.1276 0.3640
vn -0.9157 0.1143 -0.3852
vn -0.5914 0.2907 0.7522
vn 0.7626 0.1131 0.6369
vn 0.1698 0.0202 0.9853
vn 0.7571 0.3005 -0.5801
vn 0.9363 0.3120 -0.1613
vn 0.2001 0.1502 -0.9682
vn -0.3768 0.2192 -0.9000
vn -0.6395 0.1218 -0.7591
vn -0.9443 0.0082 -0.3290
vn -0.6367 0.1522 -0.7559
vn -0.9176 0.1353 0.3737
vn -0.6140 0.1578 0.7734
vn -0.3462 -0.0429 0.9372
vn 0.1633 0.1343 0.9774
vn -0.4194 0.2513 0.8723
vn 0.7657 0.1338 0.6291
vn 0.9671 0.1508 0.2050
vn 0.9791 0.1737 0.1055
vn 0.0530 0.1890 -0.9805
vn 0.7622 0.2791 -0.5840
vn -0.2849 0.1430 -0.9478
vn -0.9644 -0.0160 -0.2640
vn -0.5866 -0.0080 -0.8098
vn -0.9397 0.1012 0.3267
vn -0.5726 0.0603 0.8176
vn 0.0879 0.2798 0.9560
vn -0.4047 0.1737 0.8978
vn 0.7588 0.2306 0.6091
vn 0.9598 0.2610 0.1034
vn 0.0528 0.2082 -0.9767
vn 0.7825 0.2183 -0.5831
vn -0.9632 0.0527 -0.2636
vn -0.5888 0.1000 -0.8021
vn -0.8912 0.1910 0.4115
vn -0.6759 0.2087 0.7068
vn 0.1826 0.1038 0.9777
vn -0.4231 0.0224 0.9058
vn 0.7442 0.3167 0.5881
vn 0.9507 0.3051 0.0548
vn 0.9748 0.1569 -0.1587
vn 0.7504 0.1530 -0.6431
vn 0.9534 0.2586 -0.1553
vn 0.0804 0.2404 -0.9673
vn -0.9593 -0.0732 -0.2727
vn -0.5827 -0.0379 -0.8118
vn -0.9080 -0.0185 0.4186
vn 0.3299 0.1680 0.9289
vn -0.3944 -0.0297 0.9185
vn 0.7172 0.4896 0.4960
vn 0.8231 0.4800 0.3036
vn 0.6026 0.1565 -0.7825
vn 0.9524 0.2855 -0.1065
vn 0.1712 0.0679 -0.9829
vn -0.9765 -0.0380 -0.2121
vn -0.6211 -0.1156 -0.7751
vn -0.9347 0.0757 0.3471
vn 0.3569 0.3252 0.8757
vn -0.3514 0.1260 0.9277
vn 0.7386 0.4079 0.5368
vn 0.5940 0.2284 -0.7713
vn 0.9503 0.3013 -0.0779
vn -0.1776 -0.1345 -0.9749
vn -0.6724 -0.0080 -0.7402
vn -0.1787 0.0743 -0.9811
vn -0.9782 -0.0401 -0.2038
vn -0.9242 0.0219 0.3812
vn -0.7638 -0.0425 0.6441
vn -0.3158 0.1419 0.9382
vn -0.8003 0.1104 0.5894
vn 0.3767 0.2581 0.8897
vn 0.7514 0.3135 0.5807
vn 0.8691 0.2755 0.4108
vn 0.8848 0.2972 0.3589
vn 0.9222 0.3733 -0.1011
vn 0.5550 0.3381 -0.7601
vn -0.5883 0.0453 -0.8073
vn -0.1880 0.1177 -0.9751
vn -0.9746 -0.1263 -0.1849
vn -0.9207 -0.0420 0.3879
vn -0.3640 0.1980 0.9101
vn -0.7803 0.0197 0.6251
vn 0.3529 0.2605 0.8987
vn 0.7653 0.2794 0.5799
vn -0.0000 1.0000 -0.0000
vn 0.1748 0.1984 -0.9644
vn 0.5396 0.6342 -0.5536
vn -0.6982 0.6821 -0.2176
vn 0.1883 0.5868 0.7875
vn -0.7169 0.3175 -0.6206
vn 0.9108 0.1864 -0.3684
vn -0.7211 0.1808 -0.6688
vn -0.2248 0.1623 0.9608
vn 0.9446 0.0275 -0.3271
vn -0.6786 0.2217 -0.7002
vn -0.2873 -0.0467 0.9567
vn -0.6988 0.2085 -0.6842
vn -0.2849 0.1366 0.9488
vn -0.7060 0.0761 -0.7042
vn -0.2470 0.2011 0.9479
vn 0.9455 0.2929 -0.1425
vn -0.2978 0.1322 -0.9454
vn -0.2725 0.0041 -0.9621
vn -0.6885 -0.0866 0.7200
vn 0.8966 0.2943 0.3308
vn 0.1765 0.1455 -0.9735
vn 0.7750 -0.5360 -0.3348
vn 0.5688 -0.5568 -0.6053
vn 0.3591 -0.5154 -0.7781
vn -0.2455 -0.3985 -0.8837
vn -0.7252 -0.4046 -0.5571
vn -0.8578 -0.4551 -0.2388
vn -0.8871 -0.4466 0.1170
vn -0.6499 -0.4222 0.6319
vn -0.1019 -0.5027 0.8584
vn 0.2321 -0.5638 0.7927
vn 0.5060 -0.5596 0.6563
vn 0.8288 -0.5021 0.2470
vn 0.7113 0.7022 -0.0313
vn 0.0347 0.7231 -0.6899
vn -0.3883 0.7571 -0.5254
vn -0.6262 0.7101 0.3218
vn -0.2812 0.7199 0.6346
vn 0.6406 0.6431 0.4196
vn 0.8935 0.4464 -0.0483
vn 0.0088 0.5308 -0.8474
vn -0.7585 0.4807 0.4400
vn -0.3608 0.5040 0.7847
vn 0.8312 0.2732 0.4842
vn 0.5952 0.0319 -0.8029
vn -0.0420 0.3041 -0.9517
vn -0.9476 0.3070 -0.0886
vn -0.8060 0.3130 0.5023
vn 0.3711 -0.0370 0.9279
vn 0.8861 -0.0598 0.4597
vn 0.5893 0.1508 -0.7937
vn -0.0587 0.2740 -0.9599
vn -0.9755 0.2006 -0.0899
vn -0.8244 0.1496 0.5458
vn 0.3751 0.1041 0.9211
vn 0.8854 0.2054 0.4171
vn 0.5432 0.2862 -0.7893
vn -0.0667 0.2646 -0.9620
vn -0.9894 0.1277 -0.0692
vn -0.7947 0.2794 0.5389
vn 0.4377 0.1656 0.8838
vn 0.8571 0.3002 0.4187
vn 0.5280 0.1777 -0.8304
vn -0.0656 0.1995 -0.9777
vn -0.9851 0.1606 -0.0615
vn -0.8155 0.2064 0.5407
vn 0.4613 0.2184 0.8599
vn 0.8457 0.3061 0.4370
vn 0.8911 0.1855 -0.4143
vn 0.5172 0.1876 -0.8351
vn -0.0566 0.2136 -0.9753
vn -0.9909 0.1205 -0.0607
vn -0.8285 0.0612 0.5567
vn 0.4794 0.2042 0.8535
vn 0.8807 0.2174 -0.4208
vn 0.4874 0.2309 -0.8421
vn -0.0922 0.2938 -0.9514
vn -0.9901 0.1402 -0.0093
vn -0.7776 0.3061 0.5492
vn 0.5071 0.0860 0.8576
vn 0.4873 0.1796 -0.8545
vn -0.1186 0.2581 -0.9588
vn -0.8023 0.0208 -0.5966
vn -0.9930 0.1155 0.0257
vn -0.1410 0.1285 0.9816
vn 0.4962 0.1188 0.8601
vn 0.9102 0.1597 0.3821
vn 0.4893 0.1445 -0.8600
vn -0.8241 -0.0022 -0.5664
vn -0.9943 0.1011 0.0336
vn -0.7973 0.0403 0.6022
vn -0.1605 0.2584 0.9526
vn 0.4603 0.2198 0.8601
vn 0.9014 0.2599 0.3463
vn 0.4346 0.2880 -0.8533
vn -0.8121 0.0706 -0.5792
vn -0.9971 0.0290 0.0707
vn -0.1270 0.0485 0.9907
vn 0.4936 0.2905 0.8197
vn 0.8637 0.3235 0.3866
vn 0.8657 0.1789 -0.4675
vn 0.4010 0.3199 -0.8584
vn -0.8159 -0.0605 -0.5751
vn -0.9962 -0.0392 0.0774
vn -0.0340 0.0849 0.9958
vn 0.5565 0.4021 0.7271
vn 0.8695 0.1739 -0.4623
vn -0.8657 -0.0275 -0.4997
vn -0.9953 0.0664 0.0707
vn 0.0341 0.2696 0.9624
vn 0.5640 0.4042 0.7201
vn 0.8226 0.3054 -0.4796
vn -0.4374 0.0317 -0.8987
vn -0.8658 -0.0302 -0.4995
vn -0.9957 -0.0076 0.0928
vn -0.5881 0.0918 0.8036
vn 0.0353 0.2064 0.9778
vn 0.5816 0.3037 0.7547
vn 0.9172 0.3676 0.1535
vn 0.7684 0.4245 -0.4790
vn 0.4644 0.8814 -0.0867
vn 0.2900 0.8820 -0.3714
vn 0.0991 0.8607 -0.4993
vn -0.1013 0.8446 -0.5257
vn -0.8356 -0.1223 -0.5356
vn -0.3211 0.8383 -0.4407
vn -0.9911 -0.0783 0.1072
vn -0.5886 0.8007 -0.1115
vn -0.5299 0.8179 0.2240
vn -0.5914 0.1447 0.7933
vn -0.4357 0.8298 0.3488
vn -0.0122 0.2150 0.9765
vn -0.1934 0.8612 0.4700
vn 0.5808 0.2649 0.7697
vn 0.1779 0.8704 0.4591
vn 0.3902 0.8722 0.2949
vn 0.4478 0.8753 0.1826
vn 0.5060 0.8493 0.1506
vn 0.5008 0.8532 0.1455
vn 0.5075 0.8489 0.1475
vn 0.4836 0.8503 -0.2078
vn 0.5199 0.8297 -0.2034
vn 0.3930 0.8194 -0.4172
vn 0.2319 0.8324 -0.5033
vn -0.1364 0.8613 -0.4895
vn -0.1393 0.8679 -0.4767
vn -0.1428 0.8606 -0.4888
vn -0.4051 0.8601 -0.3099
vn -0.3885 0.8813 -0.2690
vn -0.4852 0.8612 -0.1512
vn -0.4969 0.8654 0.0651
vn -0.3658 0.8599 0.3561
vn -0.3511 0.8676 0.3520
vn -0.3618 0.8588 0.3628
vn -0.0623 0.8455 0.5304
vn -0.0425 0.8625 0.5043
vn 0.1424 0.8376 0.5274
vn 0.3300 0.8410 0.4286
vn 0.7063 0.6775 0.2052
vn 0.6982 0.6670 -0.2600
vn -0.1871 0.7449 -0.6404
vn 0.3015 0.6784 -0.6700
vn -0.5665 0.7195 -0.4018
vn -0.4675 0.7242 0.5069
vn -0.7174 0.6916 0.0833
vn -0.0756 0.6539 0.7528
vn 0.4775 0.6091 0.6332
vn 0.8846 0.4095 0.2232
vn 0.8200 0.4842 -0.3054
vn -0.2598 0.5352 -0.8038
vn -0.2419 0.6177 -0.7483
vn 0.3542 0.4504 -0.8196
vn 0.3345 0.4816 -0.8100
vn -0.6525 0.6000 -0.4628
vn -0.7221 0.4649 -0.5122
vn -0.5482 0.5196 0.6554
vn -0.9224 0.3693 0.1134
vn -0.8689 0.4707 0.1534
vn -0.1631 0.3147 0.9351
vn 0.6047 0.1589 0.7804
vn 0.6215 0.2509 0.7422
vn 0.9832 -0.0336 0.1796
vn 0.9598 0.2193 0.1753
vn 0.9003 0.2392 -0.3636
vn 0.9001 0.2404 -0.3635
vn 0.6247 0.5051 -0.5955
vn 0.3688 0.2574 -0.8931
vn 0.7614 0.0121 -0.6482
vn -0.3446 0.3347 -0.8771
vn -0.8422 0.4555 -0.2886
vn -0.9319 0.3162 0.1780
vn -0.8866 0.3030 -0.3496
vn -0.6172 0.2729 0.7379
vn -0.5963 0.3692 0.7129
vn -0.1629 0.3174 0.9342
vn -0.1661 0.2564 0.9522
vn 0.2230 0.2837 0.9326
vn 0.6337 -0.0649 0.7708
vn 0.0734 -0.0072 0.9973
vn 0.2804 0.2489 -0.9271
vn 0.8256 0.1152 -0.5523
vn -0.3554 0.2595 -0.8980
vn -0.9714 0.1611 0.1745
vn -0.9159 0.2024 -0.3466
vn -0.5313 0.2534 0.8084
vn 0.6244 0.1821 0.7595
vn 0.0481 0.0978 0.9940
vn 0.9570 0.2879 0.0341
vn 0.2431 0.2510 -0.9370
vn 0.8292 0.2357 -0.5069
vn -0.3841 0.3374 -0.8594
vn -0.9257 0.2825 0.2516
vn -0.9114 0.1277 -0.3912
vn -0.5986 0.1057 0.7940
vn 0.6381 0.2762 0.7187
vn 0.0478 0.1441 0.9884
vn 0.9870 0.1152 0.1124
vn 0.2725 0.1934 -0.9425
vn 0.7978 0.0195 -0.6026
vn 0.7442 0.1627 -0.6478
vn -0.3953 0.1675 -0.9032
vn -0.9326 0.2127 0.2915
vn -0.8983 0.1581 -0.4099
vn -0.6456 0.0685 0.7606
vn 0.6707 0.2868 0.6840
vn 0.1415 0.1968 0.9702
vn 0.9723 0.1335 0.1916
vn 0.9491 0.1477 -0.2782
vn 0.7423 0.1777 -0.6461
vn 0.9609 0.1768 -0.2129
vn 0.2473 0.2178 -0.9441
vn -0.3612 0.1126 -0.9257
vn -0.9599 0.0604 0.2738
vn -0.9144 0.1188 -0.3871
vn -0.6419 0.1276 0.7561
vn 0.7089 0.2127 0.6725
vn 0.6893 0.3120 0.6539
vn 0.1701 0.1809 0.9687
vn 0.9290 0.3215 0.1831
vn 0.9423 0.2787 0.1857
vn 0.7301 0.2237 -0.6457
vn 0.9666 0.2082 -0.1494
vn 0.1935 0.2934 -0.9362
vn -0.3683 0.3007 -0.8797
vn -0.9212 0.2869 0.2628
vn -0.9153 0.1095 -0.3875
vn -0.9164 0.1201 -0.3818
vn -0.6434 0.2058 0.7373
vn 0.7606 0.1054 0.6406
vn 0.1533 -0.0158 0.9881
vn 0.1930 0.0622 0.9792
vn 0.7135 0.3045 -0.6310
vn 0.7351 0.1926 -0.6501
vn 0.9381 0.3077 -0.1589
vn 0.9367 0.3122 -0.1586
vn 0.1169 0.2690 -0.9560
vn -0.3536 0.1763 -0.9186
vn -0.6808 0.2745 -0.6791
vn -0.9179 0.1054 -0.3824
vn -0.5863 0.0352 -0.8093
vn -0.9238 0.1176 0.3644
vn -0.9215 0.1365 0.3635
vn -0.9173 0.1372 0.3737
vn -0.6501 0.1500 0.7449
vn -0.6400 0.2294 0.7334
vn -0.6144 0.1496 0.7747
vn -0.2106 0.2196 0.9526
vn 0.1926 0.0896 0.9772
vn -0.3446 0.1054 0.9328
vn 0.7592 0.1464 0.6341
vn 0.9680 0.1277 0.2161
vn 0.9657 0.1787 0.1885
vn 0.9343 0.3064 0.1824
vn 0.1208 0.0952 -0.9881
vn 0.1187 0.2055 -0.9714
vn 0.8195 0.1770 -0.5451
vn -0.3556 0.1424 -0.9237
vn -0.3592 0.0155 -0.9331
vn -0.9406 0.0894 -0.3277
vn -0.5917 0.0019 -0.8061
vn -0.9259 0.0227 0.3772
vn -0.6145 0.1479 0.7749
vn 0.1620 0.1805 0.9701
vn -0.4239 0.2075 0.8816
vn 0.7488 0.2467 0.6152
vn 0.9422 0.3308 0.0543
vn 0.0816 0.1690 -0.9822
vn 0.8259 0.1266 -0.5494
vn 0.7232 0.3048 -0.6198
vn -0.9578 0.0180 -0.2870
vn -0.5810 0.0842 -0.8095
vn -0.9435 0.0474 0.3280
vn -0.9265 0.1945 0.3221
vn -0.5579 0.2331 0.7965
vn -0.5737 -0.0012 0.8191
vn 0.0893 0.2214 0.9711
vn -0.4109 0.0038 0.9117
vn 0.7372 0.3261 0.5917
vn 0.9744 0.1467 0.1702
vn 0.9793 0.1382 -0.1476
vn 0.6028 0.3422 -0.7208
vn 0.9753 0.1923 -0.1090
vn 0.1759 0.1257 -0.9763
vn -0.9565 -0.0538 -0.2866
vn -0.5801 -0.0421 -0.8135
vn -0.9077 -0.0193 0.4191
vn 0.1727 0.3391 0.9248
vn -0.4232 0.0120 0.9060
vn 0.7090 0.4284 0.5603
vn 0.6831 0.4919 0.5398
vn 0.8606 0.4867 0.1503
vn 0.9482 0.2712 0.1656
vn 0.6375 0.1119 -0.7623
vn 0.6323 0.1692 -0.7560
vn 0.9748 0.2162 -0.0554
vn 0.1769 0.0683 -0.9819
vn 0.1768 0.0772 -0.9812
vn -0.9610 0.0430 -0.2732
vn -0.5690 -0.1986 -0.7980
vn -0.6718 -0.0420 -0.7395
vn -0.9078 -0.0262 0.4185
vn 0.3111 0.3687 0.8759
vn -0.3942 0.0457 0.9179
vn -0.3017 0.1976 0.9327
vn 0.7596 0.3834 0.5253
vn 0.5700 0.2562 -0.7807
vn 0.9621 0.2671 -0.0547
vn 0.9386 0.3293 -0.1029
vn -0.2725 -0.0070 -0.9621
vn -0.6663 -0.0170 -0.7455
vn -0.1747 0.0696 -0.9822
vn -0.9768 -0.0301 -0.2122
vn -0.9355 0.0640 0.3474
vn -0.7412 0.0176 0.6711
vn -0.3051 0.1305 0.9433
vn -0.7639 0.0375 0.6442
vn 0.3633 0.2709 0.8914
vn 0.7760 0.2825 0.5640
vn 0.8697 0.2892 0.3999
vn 0.8435 0.3599 0.3987
vn 0.8793 0.4459 -0.1674
vn 0.5819 0.3101 -0.7518
vn -0.6656 0.0483 -0.7447
vn -0.6636 -0.0911 -0.7425
vn -0.1742 0.1008 -0.9795
vn -0.1738 0.1218 -0.9772
vn -0.9736 -0.1047 -0.2029
vn -0.9240 -0.0327 0.3811
vn -0.3158 0.1422 0.9381
vn -0.8034 0.0660 0.5917
vn 0.3791 0.2335 0.8954
vn 0.7572 0.2902 0.5852
vn 0.1920 0.1777 -0.9652
s 0
f 1//1 8//1 7//1
f 3//2 10//2 9//2
f 6//3 11//3 5//3
f 15//4 19//4 14//4
f 17//5 24//5 23//5
f 20//6 25//6 19//6
f 22//7 27//7 21//7
f 23//8 30//8 29//8
f 26//9 31//9 25//9
f 28//10 33//10 27//10
f 32//11 36//11 31//11
f 33//12 39//12 38//12
f 37//13 41//13 36//13
f 38//14 44//14 43//14
f 50//15 53//15 49//15
f 56//16 59//16 55//16
f 60//17 64//17 59//17
f 61//18 67//18 66//18
f 68//19 69//19 73//19
f 71//20 74//20 70//20
f 102//21 103//21 104//21
f 105//22 106//22 107//22
f 108//23 109//23 110//23
f 111//24 112//24 113//24
f 114//25 115//25 116//25
f 117//26 118//26 119//26
f 124//27 125//27 126//27
f 133//28 134//28 135//28
f 136//29 137//29 138//29
f 141//30 142//30 143//30
f 146//31 147//31 148//31
f 149//32 150//32 151//32
f 190//33 191//33 192//33
f 203//34 204//34 205//34
f 218//35 219//35 220//35
f 225//36 226//36 227//36
f 230//37 231//37 232//37
f 233//38 234//38 235//38
f 238//39 239//39 240//39
f 243//40 244//40 245//40
f 250//41 251//41 252//41
f 265//42 266//42 267//42
f 274//43 275//43 276//43
f 287//44 288//44 289//44
f 292//45 293//45 294//45
f 305//46 306//46 307//46
f 312//47 313//47 314//47
f 319//48 320//48 321//48
f 324//49 325//49 326//49
f 337//50 338//50 339//50
f 340//51 341//51 342//51
f 349//52 350//52 351//52
f 352//53 353//53 354//53
f 357//54 358//54 359//54
f 360//55 361//55 362//55
f 363//56 364//56 365//56
f 78//57 81//57 79//57
f 80//58 83//58 81//58
f 82//59 85//59 83//59
f 84//60 87//60 85//60
f 88//61 87//61 86//61
f 90//62 89//62 88//62
f 92//63 91//63 90//63
f 94//64 93//64 92//64
f 96//65 95//65 94//65
f 98//66 97//66 96//66
f 98//67 101//67 99//67
f 100//68 79//68 101//68
f 103//69 120//69 121//69
f 122//70 106//70 105//70
f 108//71 124//71 109//71
f 111//72 128//72 112//72
f 114//73 130//73 115//73
f 131//74 118//74 117//74
f 121//75 134//75 133//75
f 139//76 123//76 122//76
f 127//77 145//77 128//77
f 129//78 146//78 130//78
f 152//79 132//79 131//79
f 154//80 137//80 136//80
f 156//81 140//81 139//81
f 141//82 159//82 142//82
f 144//83 161//83 145//83
f 149//84 163//84 150//84
f 164//85 153//85 152//85
f 166//86 155//86 154//86
f 168//87 157//87 156//87
f 158//88 171//88 159//88
f 160//89 173//89 161//89
f 174//90 163//90 162//90
f 176//91 165//91 164//91
f 178//92 167//92 166//92
f 180//93 169//93 168//93
f 170//94 183//94 171//94
f 172//95 185//95 173//95
f 186//96 175//96 174//96
f 188//97 177//97 176//97
f 193//98 179//98 178//98
f 180//99 196//99 181//99
f 182//100 198//100 183//100
f 184//101 200//101 185//101
f 201//102 187//102 186//102
f 204//103 189//103 188//103
f 206//104 191//104 190//104
f 193//105 209//105 194//105
f 195//106 211//106 196//106
f 197//107 213//107 198//107
f 199//108 215//108 200//108
f 216//109 202//109 201//109
f 219//110 207//110 206//110
f 208//111 222//111 209//111
f 210//112 224//112 211//112
f 212//113 229//113 213//113
f 214//114 230//114 215//114
f 236//115 217//115 216//115
f 221//116 242//116 222//116
f 223//117 243//117 224//117
f 225//118 247//118 226//118
f 248//119 229//119 228//119
f 253//120 234//120 233//120
f 255//121 237//121 236//121
f 257//122 239//122 238//122
f 241//123 260//123 242//123
f 246//124 262//124 247//124
f 263//125 249//125 248//125
f 266//126 251//126 250//126
f 268//127 254//127 253//127
f 270//128 256//128 255//128
f 272//129 258//129 257//129
f 259//130 278//130 260//130
f 261//131 280//131 262//131
f 281//132 264//132 263//132
f 283//133 269//133 268//133
f 285//134 271//134 270//134
f 272//135 287//135 273//135
f 274//136 291//136 275//136
f 277//137 292//137 278//137
f 279//138 296//138 280//138
f 297//139 282//139 281//139
f 299//140 284//140 283//140
f 301//141 286//141 285//141
f 290//142 304//142 291//142
f 295//143 309//143 296//143
f 310//144 298//144 297//144
f 315//145 300//145 299//145
f 317//146 302//146 301//146
f 303//147 323//147 304//147
f 305//148 324//148 306//148
f 308//149 328//149 309//149
f 329//150 311//150 310//150
f 331//151 313//151 312//151
f 333//152 316//152 315//152
f 335//153 318//153 317//153
f 337//154 319//154 338//154
f 322//155 342//155 323//155
f 339//156 342//156 341//156
f 343//157 340//157 344//157
f 343//158 346//158 345//158
f 345//159 348//159 347//159
f 327//160 351//160 328//160
f 347//161 351//161 350//161
f 352//162 330//162 329//162
f 350//163 354//163 353//163
f 355//164 352//164 356//164
f 357//165 332//165 331//165
f 355//166 359//166 358//166
f 360//167 334//167 333//167
f 361//168 357//168 362//168
f 363//169 336//169 335//169
f 364//170 360//170 365//170
f 366//171 363//171 367//171
f 366//172 337//172 339//172
f 79//173 103//173 119//173
f 81//174 102//174 104//174
f 94//175 86//175 78//175
f 81//176 2//176 1//176
f 85//177 106//177 2//177
f 87//178 109//178 107//178
f 89//179 108//179 110//179
f 91//180 3//180 89//180
f 93//181 112//181 4//181
f 95//182 115//182 113//182
f 97//183 114//183 116//183
f 99//184 5//184 97//184
f 101//185 118//185 6//185
f 117//186 121//186 131//186
f 1//187 120//187 102//187
f 105//188 124//188 122//188
f 2//189 123//189 8//189
f 3//190 125//190 108//190
f 115//191 127//191 111//191
f 4//192 128//192 10//192
f 5//193 129//193 114//193
f 6//194 132//194 12//194
f 131//195 133//195 152//195
f 120//196 13//196 134//196
f 124//197 14//197 139//197
f 123//198 136//198 138//198
f 125//199 15//199 14//199
f 130//200 144//200 127//200
f 128//201 141//201 143//201
f 11//202 147//202 129//202
f 132//203 149//203 151//203
f 133//204 17//204 164//204
f 134//205 18//205 17//205
f 8//206 137//206 13//206
f 136//207 157//207 154//207
f 13//208 155//208 18//208
f 139//209 19//209 156//209
f 10//210 142//210 15//210
f 145//211 158//211 141//211
f 142//212 20//212 15//212
f 146//213 21//213 160//213
f 147//214 22//214 21//214
f 12//215 150//215 16//215
f 153//216 162//216 149//216
f 150//217 22//217 16//217
f 154//218 169//218 166//218
f 18//219 167//219 24//219
f 19//220 168//220 156//220
f 161//221 170//221 158//221
f 159//222 26//222 20//222
f 21//223 172//223 160//223
f 162//224 177//224 174//224
f 163//225 28//225 22//225
f 17//226 176//226 164//226
f 166//227 181//227 178//227
f 24//228 179//228 30//228
f 25//229 180//229 168//229
f 173//230 182//230 170//230
f 171//231 32//231 26//231
f 27//232 184//232 172//232
f 174//233 189//233 186//233
f 28//234 187//234 34//234
f 23//235 188//235 176//235
f 178//236 196//236 193//236
f 179//237 190//237 192//237
f 31//238 195//238 180//238
f 185//239 197//239 182//239
f 183//240 37//240 32//240
f 33//241 199//241 184//241
f 186//242 203//242 201//242
f 34//243 202//243 39//243
f 29//244 204//244 188//244
f 30//245 191//245 35//245
f 190//246 209//246 206//246
f 35//247 207//247 40//247
f 196//248 208//248 193//248
f 36//249 210//249 195//249
f 200//250 212//250 197//250
f 198//251 42//251 37//251
f 199//252 43//252 214//252
f 203//253 45//253 216//253
f 39//254 217//254 44//254
f 204//255 40//255 45//255
f 209//256 219//256 206//256
f 40//257 218//257 46//257
f 211//258 221//258 208//258
f 41//259 223//259 210//259
f 212//260 230//260 228//260
f 213//261 225//261 227//261
f 43//262 231//262 214//262
f 45//263 239//263 236//263
f 217//264 233//264 235//264
f 219//265 242//265 50//265
f 218//266 50//266 49//266
f 224//267 241//267 221//267
f 47//268 244//268 223//268
f 42//269 226//269 47//269
f 225//270 249//270 246//270
f 226//271 51//271 47//271
f 230//272 252//272 248//272
f 231//273 52//273 252//273
f 44//274 234//274 48//274
f 233//275 256//275 253//275
f 48//276 254//276 52//276
f 236//277 258//277 255//277
f 40//278 238//278 240//278
f 238//279 49//279 257//279
f 243//280 55//280 259//280
f 242//281 54//281 50//281
f 244//282 56//282 55//282
f 246//283 264//283 261//283
f 247//284 56//284 51//284
f 248//285 265//285 263//285
f 250//286 57//286 266//286
f 253//287 271//287 268//287
f 52//288 269//288 57//288
f 255//289 273//289 270//289
f 49//290 272//290 257//290
f 55//291 277//291 259//291
f 260//292 274//292 276//292
f 264//293 279//293 261//293
f 262//294 60//294 56//294
f 265//295 61//295 281//295
f 266//296 62//296 61//296
f 268//297 286//297 283//297
f 57//298 284//298 62//298
f 270//299 287//299 285//299
f 53//300 288//300 272//300
f 54//301 275//301 58//301
f 278//302 290//302 274//302
f 275//303 63//303 58//303
f 59//304 293//304 277//304
f 279//305 298//305 295//305
f 280//306 65//306 60//306
f 281//307 66//307 297//307
f 283//308 302//308 299//308
f 62//309 300//309 67//309
f 287//310 68//310 301//310
f 288//311 63//311 68//311
f 292//312 70//312 303//312
f 291//313 69//313 63//313
f 293//314 71//314 70//314
f 295//315 311//315 308//315
f 296//316 305//316 307//316
f 297//317 72//317 310//317
f 299//318 318//318 315//318
f 300//319 312//319 314//319
f 301//320 73//320 317//320
f 70//321 322//321 303//321
f 304//322 319//322 321//322
f 65//323 306//323 71//323
f 309//324 325//324 305//324
f 306//325 75//325 71//325
f 308//326 330//326 327//326
f 310//327 76//327 329//327
f 67//328 313//328 72//328
f 312//329 334//329 331//329
f 72//330 332//330 76//330
f 315//331 336//331 333//331
f 317//332 77//332 335//332
f 69//333 320//333 77//333
f 77//334 337//334 367//334
f 323//335 338//335 319//335
f 74//336 340//336 322//336
f 325//337 351//337 348//337
f 324//338 348//338 346//338
f 327//339 354//339 349//339
f 329//340 356//340 352//340
f 331//341 362//341 357//341
f 76//342 359//342 356//342
f 333//343 365//343 360//343
f 335//344 367//344 363//344
f 345//345 355//345 366//345
f 75//346 344//346 74//346
f 1//347 2//347 8//347
f 3//348 4//348 10//348
f 6//349 12//349 11//349
f 15//350 20//350 19//350
f 17//351 18//351 24//351
f 20//352 26//352 25//352
f 22//353 28//353 27//353
f 23//354 24//354 30//354
f 26//355 32//355 31//355
f 28//356 34//356 33//356
f 32//357 37//357 36//357
f 33//358 34//358 39//358
f 37//359 42//359 41//359
f 38//360 39//360 44//360
f 50//361 54//361 53//361
f 56//362 60//362 59//362
f 60//363 65//363 64//363
f 61//364 62//364 67//364
f 68//365 63//365 69//365
f 71//366 75//366 74//366
f 78//367 80//367 81//367
f 80//368 82//368 83//368
f 82//369 84//369 85//369
f 84//370 86//370 87//370
f 88//371 89//371 87//371
f 90//372 91//372 89//372
f 92//373 93//373 91//373
f 94//374 95//374 93//374
f 96//375 97//375 95//375
f 98//376 99//376 97//376
f 98//377 100//377 101//377
f 100//378 78//378 79//378
f 103//379 102//379 120//379
f 122//380 123//380 106//380
f 108//381 125//381 124//381
f 111//382 127//382 128//382
f 114//383 129//383 130//383
f 131//384 132//384 118//384
f 121//385 120//385 134//385
f 139//386 140//386 123//386
f 127//387 144//387 145//387
f 129//388 147//388 146//388
f 152//389 153//389 132//389
f 154//390 155//390 137//390
f 156//391 157//391 140//391
f 141//392 158//392 159//392
f 144//393 160//393 161//393
f 149//394 162//394 163//394
f 164//395 165//395 153//395
f 166//396 167//396 155//396
f 168//397 169//397 157//397
f 158//398 170//398 171//398
f 160//399 172//399 173//399
f 174//400 175//400 163//400
f 176//401 177//401 165//401
f 178//402 179//402 167//402
f 180//403 181//403 169//403
f 170//404 182//404 183//404
f 172//405 184//405 185//405
f 186//406 187//406 175//406
f 188//407 189//407 177//407
f 193//408 194//408 179//408
f 180//409 195//409 196//409
f 182//410 197//410 198//410
f 184//411 199//411 200//411
f 201//412 202//412 187//412
f 204//413 203//413 189//413
f 206//414 207//414 191//414
f 193//415 208//415 209//415
f 195//416 210//416 211//416
f 197//417 212//417 213//417
f 199//418 214//418 215//418
f 216//419 217//419 202//419
f 219//420 218//420 207//420
f 208//421 221//421 222//421
f 210//422 223//422 224//422
f 212//423 228//423 229//423
f 214//424 231//424 230//424
f 236//425 237//425 217//425
f 221//426 241//426 242//426
f 223//427 244//427 243//427
f 225//428 246//428 247//428
f 248//429 249//429 229//429
f 253//430 254//430 234//430
f 255//431 256//431 237//431
f 257//432 258//432 239//432
f 241//433 259//433 260//433
f 246//434 261//434 262//434
f 263//435 264//435 249//435
f 266//436 265//436 251//436
f 268//437 269//437 254//437
f 270//438 271//438 256//438
f 272//439 273//439 258//439
f 259//440 277//440 278//440
f 261//441 279//441 280//441
f 281//442 282//442 264//442
f 283//443 284//443 269//443
f 285//444 286//444 271//444
f 272//445 288//445 287//445
f 274//446 290//446 291//446
f 277//447 293//447 292//447
f 279//448 295//448 296//448
f 297//449 298//449 282//449
f 299//450 300//450 284//450
f 301//451 302//451 286//451
f 290//452 303//452 304//452
f 295//453 308//453 309//453
f 310//454 311//454 298//454
f 315//455 316//455 300//455
f 317//456 318//456 302//456
f 303//457 322//457 323//457
f 305//458 325//458 324//458
f 308//459 327//459 328//459
f 329//460 330//460 311//460
f 331//461 332//461 313//461
f 333//462 334//462 316//462
f 335//463 336//463 318//463
f 337//464 320//464 319//464
f 322//465 340//465 342//465
f 339//466 338//466 342//466
f 343//467 341//467 340//467
f 343//468 344//468 346//468
f 345//469 346//469 348//469
f 327//470 349//470 351//470
f 347//471 348//471 351//471
f 352//472 354//472 330//472
f 350//473 349//473 354//473
f 355//474 353//474 352//474
f 357//475 359//475 332//475
f 355//476 356//476 359//476
f 360//477 362//477 334//477
f 361//478 358//478 357//478
f 363//479 365//479 336//479
f 364//480 361//480 360//480
f 366//481 364//481 363//481
f 366//482 367//482 337//482
f 119//483 101//483 79//483
f 79//484 104//484 103//484
f 103//485 117//485 119//485
f 104//486 79//486 81//486
f 81//487 1//487 102//487
f 78//175 100//175 98//175
f 98//175 96//175 94//175
f 94//175 92//175 90//175
f 90//175 88//175 86//175
f 86//175 84//175 82//175
f 82//175 80//175 78//175
f 78//175 98//175 94//175
f 94//175 90//175 86//175
f 86//175 82//175 78//175
f 81//488 83//488 2//488
f 2//489 83//489 85//489
f 85//177 107//177 106//177
f 107//490 85//490 87//490
f 87//491 110//491 109//491
f 109//492 105//492 107//492
f 110//493 87//493 89//493
f 89//494 3//494 108//494
f 91//495 4//495 3//495
f 4//496 91//496 93//496
f 93//181 113//181 112//181
f 113//497 93//497 95//497
f 95//498 116//498 115//498
f 115//499 111//499 113//499
f 116//500 95//500 97//500
f 97//501 5//501 114//501
f 99//502 6//502 5//502
f 6//503 99//503 101//503
f 101//185 119//185 118//185
f 117//504 103//504 121//504
f 1//505 7//505 120//505
f 105//506 109//506 124//506
f 2//507 106//507 123//507
f 3//508 9//508 125//508
f 115//509 130//509 127//509
f 4//510 112//510 128//510
f 5//511 11//511 129//511
f 6//512 118//512 132//512
f 131//513 121//513 133//513
f 120//514 7//514 13//514
f 139//515 122//515 124//515
f 124//516 126//516 14//516
f 138//517 8//517 123//517
f 123//518 140//518 136//518
f 14//519 126//519 125//519
f 125//520 9//520 15//520
f 130//521 146//521 144//521
f 143//522 10//522 128//522
f 128//523 145//523 141//523
f 11//524 16//524 147//524
f 151//525 12//525 132//525
f 132//526 153//526 149//526
f 164//527 152//527 133//527
f 133//528 135//528 17//528
f 17//529 135//529 134//529
f 134//530 13//530 18//530
f 13//531 7//531 8//531
f 8//206 138//206 137//206
f 136//532 140//532 157//532
f 13//533 137//533 155//533
f 139//534 14//534 19//534
f 15//535 9//535 10//535
f 10//210 143//210 142//210
f 145//536 161//536 158//536
f 142//537 159//537 20//537
f 160//538 144//538 146//538
f 146//539 148//539 21//539
f 21//540 148//540 147//540
f 147//541 16//541 22//541
f 16//542 11//542 12//542
f 12//215 151//215 150//215
f 153//543 165//543 162//543
f 150//544 163//544 22//544
f 154//545 157//545 169//545
f 18//546 155//546 167//546
f 19//547 25//547 168//547
f 161//548 173//548 170//548
f 159//549 171//549 26//549
f 21//550 27//550 172//550
f 162//551 165//551 177//551
f 163//552 175//552 28//552
f 17//553 23//553 176//553
f 166//554 169//554 181//554
f 24//555 167//555 179//555
f 25//556 31//556 180//556
f 173//557 185//557 182//557
f 171//558 183//558 32//558
f 27//559 33//559 184//559
f 174//560 177//560 189//560
f 28//561 175//561 187//561
f 23//562 29//562 188//562
f 178//563 181//563 196//563
f 192//564 30//564 179//564
f 179//565 194//565 190//565
f 31//566 36//566 195//566
f 185//567 200//567 197//567
f 183//568 198//568 37//568
f 33//569 38//569 199//569
f 186//570 189//570 203//570
f 34//571 187//571 202//571
f 29//572 35//572 204//572
f 35//573 29//573 30//573
f 30//245 192//245 191//245
f 190//574 194//574 209//574
f 35//575 191//575 207//575
f 196//576 211//576 208//576
f 36//577 41//577 210//577
f 200//578 215//578 212//578
f 198//579 213//579 42//579
f 199//580 38//580 43//580
f 216//581 201//581 203//581
f 203//582 205//582 45//582
f 39//583 202//583 217//583
f 45//584 205//584 204//584
f 204//585 35//585 40//585
f 209//586 222//586 219//586
f 40//587 207//587 218//587
f 211//588 224//588 221//588
f 41//589 47//589 223//589
f 212//590 215//590 230//590
f 227//591 42//591 213//591
f 213//592 229//592 225//592
f 43//593 48//593 231//593
f 236//594 216//594 45//594
f 45//263 240//263 239//263
f 235//595 44//595 217//595
f 217//596 237//596 233//596
f 50//597 220//597 219//597
f 219//598 222//598 242//598
f 49//599 46//599 218//599
f 218//600 220//600 50//600
f 224//601 243//601 241//601
f 47//602 51//602 244//602
f 47//603 41//603 42//603
f 42//269 227//269 226//269
f 225//604 229//604 249//604
f 226//605 247//605 51//605
f 248//606 228//606 230//606
f 230//607 232//607 252//607
f 252//608 251//608 248//608
f 252//609 232//609 231//609
f 231//610 48//610 52//610
f 52//611 250//611 252//611
f 48//612 43//612 44//612
f 44//274 235//274 234//274
f 233//613 237//613 256//613
f 48//614 234//614 254//614
f 236//615 239//615 258//615
f 240//616 45//616 40//616
f 40//617 46//617 238//617
f 238//618 46//618 49//618
f 259//619 241//619 243//619
f 243//620 245//620 55//620
f 242//621 260//621 54//621
f 55//622 245//622 244//622
f 244//623 51//623 56//623
f 246//624 249//624 264//624
f 247//625 262//625 56//625
f 248//626 251//626 265//626
f 250//627 52//627 57//627
f 253//628 256//628 271//628
f 52//629 254//629 269//629
f 255//630 258//630 273//630
f 49//631 53//631 272//631
f 55//632 59//632 277//632
f 276//633 54//633 260//633
f 260//634 278//634 274//634
f 264//635 282//635 279//635
f 262//636 280//636 60//636
f 281//637 263//637 265//637
f 265//638 267//638 61//638
f 61//639 267//639 266//639
f 266//640 57//640 62//640
f 268//641 271//641 286//641
f 57//642 269//642 284//642
f 270//643 273//643 287//643
f 53//644 58//644 288//644
f 58//645 53//645 54//645
f 54//301 276//301 275//301
f 278//646 292//646 290//646
f 275//647 291//647 63//647
f 59//648 64//648 293//648
f 279//649 282//649 298//649
f 280//650 296//650 65//650
f 281//651 61//651 66//651
f 283//652 286//652 302//652
f 62//653 284//653 300//653
f 301//654 285//654 287//654
f 287//655 289//655 68//655
f 68//656 289//656 288//656
f 288//657 58//657 63//657
f 303//658 290//658 292//658
f 292//659 294//659 70//659
f 291//660 304//660 69//660
f 70//661 294//661 293//661
f 293//662 64//662 71//662
f 295//663 298//663 311//663
f 307//664 65//664 296//664
f 296//665 309//665 305//665
f 297//666 66//666 72//666
f 299//667 302//667 318//667
f 314//668 67//668 300//668
f 300//669 316//669 312//669
f 301//670 68//670 73//670
f 70//671 74//671 322//671
f 321//672 69//672 304//672
f 304//673 323//673 319//673
f 71//674 64//674 65//674
f 65//323 307//323 306//323
f 309//675 328//675 325//675
f 306//676 324//676 75//676
f 308//677 311//677 330//677
f 310//678 72//678 76//678
f 72//679 66//679 67//679
f 67//328 314//328 313//328
f 312//680 316//680 334//680
f 72//681 313//681 332//681
f 315//682 318//682 336//682
f 317//683 73//683 77//683
f 77//684 73//684 69//684
f 69//333 321//333 320//333
f 77//685 320//685 337//685
f 323//686 342//686 338//686
f 74//687 344//687 340//687
f 348//688 326//688 325//688
f 325//689 328//689 351//689
f 346//690 75//690 324//690
f 324//691 326//691 348//691
f 327//692 330//692 354//692
f 329//693 76//693 356//693
f 331//694 334//694 362//694
f 76//695 332//695 359//695
f 333//696 336//696 365//696
f 335//697 77//697 367//697
f 366//345 339//345 341//345
f 341//345 343//345 345//345
f 345//345 347//345 350//345
f 350//345 353//345 355//345
f 355//345 358//345 361//345
f 361//345 364//345 366//345
f 366//345 341//345 345//345
f 345//345 350//345 355//345
f 355//345 361//345 366//345
f 75//698 346//698 344//698
