# Blender 5.2.1 LTS
# www.blender.org
o ZombieHead1Gore
v -0.191136 -0.494385 0.144178
v -0.116110 -0.390753 0.297891
v -0.104612 -0.343357 0.337564
v -0.149768 -0.369401 0.301905
v -0.159486 -0.508273 0.201111
v -0.171521 -0.521790 0.212484
v -0.127925 -0.529480 0.252428
v -0.116922 -0.505561 0.246411
v -0.151850 -0.502774 0.239867
v -0.141738 -0.502969 0.209744
v -0.147379 -0.498070 0.158180
v -0.118606 -0.501057 0.229043
v -0.080588 -0.506357 0.164513
v -0.157441 -0.384105 0.236141
v -0.136410 -0.391689 0.177061
v -0.089269 -0.411669 0.242519
v -0.185533 -0.479866 0.097379
v -0.179244 -0.444680 0.113268
v -0.188371 -0.411274 0.127118
v -0.165418 -0.473056 0.103370
v -0.152830 -0.482988 0.108183
v -0.137752 -0.457998 0.136656
v -0.125737 -0.432109 0.159654
v -0.124888 -0.500875 0.128285
v -0.113527 -0.454816 0.142480
v -0.108846 -0.472904 0.130498
v -0.117028 -0.492185 0.118289
v -0.107521 -0.433825 0.159064
v -0.088064 -0.486592 0.121557
v -0.143868 -0.395329 0.157340
v -0.111828 -0.413777 0.169731
v 0.000670 -0.356854 0.361435
v -0.063622 -0.538798 0.293470
v -0.080942 -0.510162 0.267691
v -0.044368 -0.514626 0.286084
v -0.005091 -0.523443 0.296782
v -0.022848 -0.517654 0.277619
v -0.072962 -0.384813 0.337460
v -0.020299 -0.404483 0.315847
v -0.044529 -0.352086 0.353326
v -0.036588 -0.380547 0.351697
v -0.002723 -0.388017 0.353317
v -0.025206 -0.407528 0.296349
v -0.043950 -0.588882 0.171785
v -0.029423 -0.526664 0.203537
v 0.007729 -0.587803 0.182812
v 0.029400 -0.528247 0.211784
v -0.087312 -0.408777 0.192231
v -0.090855 -0.415024 0.169553
v -0.019335 -0.399817 0.254947
v -0.055896 -0.403320 0.156277
v -0.082691 -0.586504 0.120213
v -0.043694 -0.517814 0.152266
v -0.007823 -0.523557 0.143975
v -0.072240 -0.451121 0.088719
v -0.060264 -0.475991 0.081895
v -0.042823 -0.497427 0.094814
v -0.076258 -0.425422 0.121247
v -0.033387 -0.426037 0.084236
v -0.008482 -0.403652 0.129227
v -0.029866 -0.447554 0.063347
v -0.009885 -0.463576 0.058334
v -0.000084 -0.486075 0.069188
v -0.240202 0.093885 0.364589
v -0.186532 0.109392 0.408560
v -0.265532 -0.002408 0.318416
v -0.232290 -0.046815 0.358539
v -0.249450 -0.032759 0.345016
v -0.235843 -0.005283 0.264940
v -0.214161 -0.038135 0.308790
v -0.275590 0.053843 0.317889
v -0.276677 0.024677 0.312843
v -0.259121 0.029193 0.278028
v -0.245028 0.008013 0.264011
v -0.228464 0.069982 0.270031
v -0.265298 0.072412 0.330110
v -0.221701 0.085163 0.302222
v -0.199501 0.098671 0.337664
v -0.239857 0.053200 0.262307
v -0.224012 0.018959 0.239112
v -0.207533 0.043559 0.236855
v -0.115141 -0.310730 0.407287
v -0.118746 -0.321386 0.360848
v -0.176206 -0.053656 0.367667
v -0.137213 -0.048659 0.382899
v -0.101960 -0.033982 0.398589
v -0.135827 0.103982 0.423966
v -0.110116 0.093769 0.423498
v -0.173327 -0.313199 0.347402
v -0.150826 -0.329886 0.326714
v -0.176438 -0.045218 0.319749
v -0.190823 -0.002601 0.237758
v -0.162293 -0.031792 0.288730
v -0.133536 -0.031929 0.313610
v -0.125941 -0.008844 0.277052
v -0.102723 0.069418 0.321165
v -0.175695 0.090675 0.301023
v -0.151796 0.100512 0.351989
v -0.152879 0.073906 0.270597
v -0.130460 0.086890 0.322210
v -0.182648 0.019171 0.228637
v -0.193026 0.071233 0.252071
v -0.171027 0.056991 0.241466
v -0.145444 0.003158 0.247609
v -0.143955 0.030735 0.241441
v -0.126815 0.051756 0.267474
v -0.067795 -0.320987 0.387947
v -0.027048 -0.316976 0.411371
v 0.000218 -0.318201 0.424270
v -0.002009 -0.328825 0.385002
v -0.086085 -0.180680 0.407727
v -0.039927 -0.217773 0.435950
v -0.062977 -0.195148 0.417179
v -0.001929 -0.252216 0.447520
v -0.046651 -0.168278 0.360020
v -0.033924 -0.192902 0.387032
v 0.000415 -0.193255 0.419349
v -0.026331 -0.171981 0.362582
v -0.000070 -0.183025 0.408075
v -0.074804 -0.161884 0.388613
v -0.069738 -0.145345 0.375397
v -0.072346 -0.123125 0.377862
v -0.058739 -0.087594 0.392106
v -0.000408 -0.102553 0.376981
v -0.000028 -0.168097 0.391109
v -0.000152 -0.154515 0.378191
v 0.000014 -0.119358 0.373067
v -0.000247 -0.135229 0.366965
v -0.072653 -0.008722 0.399020
v -0.020430 -0.066071 0.388385
v -0.030691 -0.084859 0.379271
v -0.074061 0.056051 0.412269
v -0.087644 -0.003153 0.325047
v -0.070445 0.012450 0.354251
v -0.061804 0.023521 0.405874
v -0.085049 0.066664 0.355230
v -0.053839 -0.116462 0.352588
v -0.037517 -0.106343 0.350738
v -0.017546 -0.112959 0.352647
v -0.034422 -0.136246 0.340241
v -0.097377 0.027016 0.290937
v 0.011296 -0.505109 -0.083332
v 0.000714 -0.556835 0.319581
v 0.035394 -0.514059 0.285554
v 0.049441 -0.533540 0.295693
v 0.063458 -0.510908 0.266260
v 0.052938 -0.555819 0.312636
v 0.070431 -0.513747 0.277865
v 0.089844 -0.532856 0.276238
v 0.038040 -0.389011 0.349948
v 0.056246 -0.403243 0.316612
v 0.070733 -0.406195 0.269100
v 0.039365 -0.356438 0.359399
v 0.102348 -0.388300 0.323861
v 0.089338 -0.344996 0.350409
v 0.111320 -0.398930 0.276202
v 0.089956 -0.377333 0.336582
v 0.100176 -0.512296 0.194119
v 0.089664 -0.503911 0.264244
v 0.107786 -0.502781 0.234692
v 0.022597 -0.395147 0.232109
v 0.034805 -0.399860 0.174088
v 0.081544 -0.404750 0.192792
v 0.044051 -0.589632 0.158057
v 0.015852 -0.512226 0.109293
v 0.041588 -0.520385 0.142147
v 0.087340 -0.511550 0.149101
v 0.062378 -0.504407 0.111214
v 0.090170 -0.494954 0.116696
v 0.093369 -0.434339 0.111894
v 0.027386 -0.416851 0.093363
v 0.059050 -0.413938 0.118875
v 0.091861 -0.414203 0.163871
v 0.030062 -0.455379 0.060760
v 0.036020 -0.431627 0.075833
v 0.037018 -0.473612 0.065105
v 0.074102 -0.469686 0.082618
v 0.075180 -0.451059 0.084861
v 0.149063 -0.336105 0.324031
v 0.157175 -0.373236 0.298654
v 0.127422 -0.528831 0.251052
v 0.149745 -0.509448 0.236424
v 0.163445 -0.519179 0.206011
v 0.118630 -0.505576 0.244118
v 0.141084 -0.510249 0.199996
v 0.170821 -0.498657 0.130690
v 0.134797 -0.393424 0.239370
v 0.106454 -0.397809 0.186354
v 0.144193 -0.377827 0.169822
v 0.114392 -0.429600 0.153541
v 0.116815 -0.460714 0.126474
v 0.112441 -0.478103 0.119121
v 0.115016 -0.495815 0.109095
v 0.125750 -0.509317 0.123438
v 0.139745 -0.438606 0.138056
v 0.162065 -0.493528 0.105771
v 0.157241 -0.464398 0.096824
v 0.153518 -0.481697 0.095697
v 0.176969 -0.433348 0.110285
v 0.186399 -0.504660 0.152058
v 0.186239 -0.460289 0.074248
v 0.141240 -0.384589 0.155198
v 0.112444 -0.411621 0.162812
v 0.153522 -0.385083 0.136924
v 0.184839 -0.391482 0.113908
v 0.173949 -0.474319 0.074488
v 0.027719 -0.317300 0.416910
v 0.038175 -0.327609 0.381912
v 0.070005 -0.319135 0.395108
v 0.110023 -0.315111 0.401890
v 0.111264 -0.324301 0.362486
v 0.033135 -0.215393 0.431747
v 0.021739 -0.187272 0.384397
v 0.038322 -0.194999 0.383559
v 0.033513 -0.172942 0.363645
v 0.078887 -0.208670 0.421770
v 0.072270 -0.186839 0.406206
v 0.022598 -0.106263 0.353446
v 0.046545 -0.105679 0.355105
v 0.069124 -0.098740 0.383246
v 0.074958 -0.151416 0.373573
v 0.017626 -0.071155 0.386136
v 0.038868 -0.076817 0.382436
v 0.079727 0.026464 0.400829
v 0.078733 0.067025 0.415887
v 0.086449 0.040621 0.356802
v 0.092488 0.090028 0.418023
v 0.099449 0.087578 0.355028
v 0.019601 -0.138422 0.344449
v 0.044052 -0.127162 0.341343
v 0.039441 -0.149198 0.342281
v 0.111103 0.064482 0.290095
v 0.106794 0.046429 0.296759
v 0.167222 -0.313795 0.361145
v 0.113730 -0.007882 0.394252
v 0.146201 -0.019662 0.386574
v 0.106693 0.015334 0.329192
v 0.114127 0.110749 0.423185
v 0.121107 0.107608 0.357425
v 0.149778 0.124780 0.418338
v 0.179045 0.122572 0.355494
v 0.203287 0.127604 0.396874
v 0.187407 -0.004664 0.299522
v 0.201113 -0.016263 0.357181
v 0.129523 0.037194 0.266523
v 0.137185 0.002388 0.306307
v 0.154935 0.027035 0.250254
v 0.178769 0.019849 0.249260
v 0.120719 0.088577 0.303698
v 0.158568 0.098887 0.278476
v 0.189859 0.104297 0.285659
v 0.147943 0.074419 0.256454
v 0.158198 0.044087 0.238575
v 0.171095 0.064171 0.239137
v 0.194021 0.039275 0.233302
v 0.226435 0.120771 0.389348
v 0.242533 0.110247 0.371330
v 0.222807 0.022458 0.260569
v 0.237320 -0.002415 0.341520
v 0.246349 0.028639 0.283440
v 0.262873 0.020431 0.331364
v 0.272168 0.041945 0.317133
v 0.214748 0.106170 0.307919
v 0.258333 0.095510 0.348843
v 0.246929 0.077969 0.280711
v 0.270670 0.074995 0.325589
v 0.208885 0.062179 0.240553
v 0.241158 0.046518 0.260301
v 0.287733 0.089877 0.191688
v 0.203084 0.089327 0.256412
v 0.291024 0.154074 0.173451
v 0.303551 0.057609 0.138837
v 0.275547 0.094826 0.143269
v 0.274263 0.112783 0.127846
v 0.277884 0.117962 0.177040
v 0.288065 0.135340 0.098883
v 0.286963 0.106956 0.091113
v 0.289576 0.157124 0.135927
v 0.318905 0.066482 0.065041
v 0.311168 0.130461 0.058875
v 0.320196 0.116217 0.048573
v 0.325650 0.032728 0.168775
v 0.316939 0.069552 0.222063
v 0.366072 0.032694 0.218294
v 0.304987 0.125967 0.225160
v 0.329776 0.128760 0.249449
v 0.337460 0.181385 0.204125
v 0.299012 0.072028 0.097767
v 0.326350 0.034513 0.117780
v 0.354382 0.018915 0.147625
v 0.360678 0.022834 0.099399
v 0.393512 0.008579 0.171095
v 0.406184 0.010896 0.101015
v 0.345495 0.197728 0.142233
v 0.324246 0.175909 0.094293
v 0.374493 0.201839 0.085727
v 0.340792 0.068386 0.044325
v 0.375183 0.033335 0.065894
v 0.400097 0.087940 0.010756
v 0.353993 0.129139 0.027853
v 0.347835 0.172856 0.061084
v 0.390345 0.166285 0.031466
v 0.415565 0.033093 0.045449
v 0.037131 -0.514220 -0.070082
v 0.072651 -0.505503 -0.062388
vn 0.1538 0.9557 0.2508
vn -0.2629 -0.9330 0.2459
vn -0.3169 -0.6617 0.6795
vn -0.3344 -0.5075 0.7941
vn -0.4061 0.8612 0.3057
vn -0.5293 0.8463 0.0598
vn -0.3248 0.3685 0.8711
vn -0.1684 0.7823 0.5997
vn -0.2645 0.9367 0.2294
vn -0.2022 0.9792 0.0164
vn 0.0691 0.9973 0.0245
vn 0.0756 0.9951 0.0644
vn 0.2091 0.9626 0.1725
vn -0.3788 -0.9237 0.0571
vn -0.3819 -0.9100 0.1616
vn -0.1320 -0.9900 0.0502
vn -0.3068 0.0712 0.9491
vn -0.5433 -0.4651 0.6989
vn -0.5296 -0.3603 0.7679
vn -0.4236 -0.2310 0.8759
vn -0.0946 0.4676 0.8789
vn -0.3657 -0.5445 0.7549
vn -0.2899 -0.4254 0.8573
vn 0.0085 0.9319 0.3625
vn 0.3072 -0.5859 0.7499
vn 0.3273 -0.3514 0.8772
vn -0.2072 0.2706 0.9401
vn 0.2953 -0.6348 0.7141
vn 0.3249 0.7080 0.6271
vn -0.5043 -0.3885 0.7712
vn -0.3202 -0.5041 0.8021
vn -0.0865 -0.5618 0.8227
vn -0.2909 0.4768 0.8295
vn -0.1265 0.8779 0.4619
vn -0.0563 0.8425 0.5357
vn -0.0530 0.7387 0.6719
vn 0.0881 0.9961 0.0069
vn -0.2385 -0.7374 0.6319
vn -0.0740 -0.9491 0.3061
vn -0.2040 -0.5451 0.8132
vn -0.1866 -0.1079 0.9765
vn -0.0420 -0.9073 0.4184
vn -0.0008 -0.9993 0.0387
vn 0.0364 -0.9966 -0.0733
vn 0.1537 0.9881 0.0003
vn -0.0208 -0.9997 0.0093
vn -0.1051 0.9931 -0.0517
vn -0.0298 -0.9959 0.0858
vn 0.2748 -0.8802 0.3871
vn 0.1044 -0.9884 -0.1106
vn 0.2254 -0.9561 0.1872
vn 0.0023 -0.9997 -0.0241
vn 0.2836 0.9351 0.2123
vn 0.0812 0.9713 0.2237
vn 0.6427 -0.2743 0.7153
vn 0.5054 0.4003 0.7644
vn 0.2888 0.8046 0.5189
vn 0.5238 -0.7270 0.4440
vn 0.2482 -0.7749 0.5814
vn 0.0427 -0.9672 0.2504
vn 0.2883 -0.3174 0.9034
vn 0.1191 0.1386 0.9832
vn 0.0357 0.6647 0.7462
vn 0.2773 -0.9438 0.1797
vn -0.0154 -0.9942 0.1063
vn 0.7435 0.5599 0.3656
vn 0.1044 0.9761 0.1905
vn 0.5856 0.7310 0.3503
vn 0.5189 0.6679 0.5336
vn 0.2405 0.8988 0.3664
vn 0.7686 -0.4466 0.4581
vn 0.8883 0.1466 0.4353
vn 0.8362 -0.0223 0.5479
vn 0.7455 0.3380 0.5744
vn 0.4288 -0.7516 0.5012
vn 0.5215 -0.7859 0.3324
vn 0.2822 -0.9123 0.2967
vn 0.1144 -0.9745 0.1928
vn 0.6317 -0.4350 0.6417
vn 0.5059 0.1427 0.8507
vn 0.2831 -0.3609 0.8886
vn -0.1151 -0.9662 0.2306
vn -0.2631 -0.8467 0.4624
vn -0.0729 0.9822 0.1733
vn -0.3575 0.9143 0.1906
vn -0.5627 0.8028 0.1973
vn -0.2767 -0.9549 0.1074
vn -0.5101 -0.8541 0.1014
vn -0.2382 -0.8661 0.4395
vn -0.3069 -0.7287 0.6122
vn -0.0606 0.9602 0.2728
vn 0.0663 0.6396 0.7658
vn -0.1643 0.8786 0.4484
vn -0.4146 0.8588 0.3010
vn -0.5728 0.6179 0.5387
vn -0.6696 -0.6456 0.3672
vn -0.0538 -0.9489 0.3109
vn -0.1975 -0.9660 0.1671
vn -0.3413 -0.7975 0.4976
vn -0.3870 -0.8781 0.2813
vn -0.0633 0.0890 0.9940
vn 0.0955 -0.7728 0.6274
vn -0.2123 -0.5342 0.8182
vn -0.4652 0.4935 0.7349
vn -0.5273 -0.1103 0.8425
vn -0.6282 -0.4884 0.6056
vn -0.1645 -0.8613 0.4806
vn -0.1270 -0.9443 0.3037
vn -0.1686 -0.9490 0.2663
vn -0.0515 -0.8241 0.5642
vn 0.1272 0.6768 0.7251
vn 0.0330 0.7193 0.6939
vn 0.3137 0.7475 0.5855
vn 0.0636 0.3411 0.9379
vn 0.4001 0.5451 0.7367
vn -0.0128 0.8475 0.5306
vn 0.0309 0.7742 0.6321
vn -0.3344 0.6106 0.7179
vn -0.0134 0.7419 0.6704
vn 0.5785 0.5537 0.5990
vn 0.6934 0.2432 0.6783
vn 0.7669 -0.4692 0.4379
vn 0.5056 -0.6518 0.5653
vn 0.0010 -0.5018 0.8650
vn 0.0009 0.7231 0.6907
vn -0.0095 0.6118 0.7909
vn -0.0402 -0.2966 0.9542
vn 0.0487 0.1173 0.9919
vn -0.8218 0.5479 0.1564
vn 0.0644 -0.4082 0.9106
vn 0.0893 -0.6562 0.7493
vn -0.8419 -0.5360 0.0625
vn -0.7638 0.5321 0.3655
vn -0.9560 0.1313 0.2622
vn -0.9857 -0.0914 0.1416
vn -0.7813 -0.5854 0.2167
vn 0.5944 -0.3105 0.7418
vn 0.0918 -0.6124 0.7852
vn -0.5025 -0.3821 0.7756
vn 0.0013 0.1302 0.9915
vn -0.8374 -0.0368 0.5454
vn 0.2900 -0.4249 -0.8576
vn -0.0050 0.5653 0.8249
vn 0.0207 0.9056 0.4237
vn 0.2245 0.5563 0.8001
vn -0.1797 0.9833 0.0277
vn 0.1841 0.6131 0.7682
vn 0.1891 0.7021 0.6865
vn 0.4430 0.3902 0.8072
vn 0.0108 -0.9174 0.3978
vn 0.0881 -0.9757 0.2005
vn 0.0530 -0.9986 0.0006
vn 0.1771 -0.5672 0.8043
vn 0.2612 -0.9305 0.2567
vn 0.2844 -0.5750 0.7671
vn 0.2018 -0.9760 0.0817
vn 0.2469 -0.3770 0.8927
vn -0.1518 0.9873 -0.0468
vn 0.1644 0.8652 0.4736
vn -0.0430 0.9970 -0.0637
vn -0.0402 -0.9974 -0.0593
vn -0.1003 -0.9874 0.1226
vn 0.0238 -0.9901 0.1384
vn -0.0325 -0.9991 0.0262
vn -0.0420 0.8937 0.4467
vn -0.1466 0.9659 0.2133
vn -0.1112 0.9745 0.1947
vn -0.2753 0.8167 0.5072
vn -0.2321 0.6491 0.7244
vn -0.5965 -0.6027 0.5300
vn -0.1120 -0.8736 0.4736
vn -0.2811 -0.9003 0.3322
vn -0.1407 -0.9157 0.3764
vn -0.2110 -0.1888 0.9591
vn -0.2304 -0.6492 0.7249
vn -0.2828 0.4312 0.8568
vn -0.5530 0.2853 0.7828
vn -0.5642 -0.3014 0.7687
vn 0.3422 -0.6579 0.6708
vn 0.4160 -0.4494 0.7905
vn 0.3891 0.3952 0.8321
vn 0.2776 0.9340 0.2248
vn 0.3947 0.9117 -0.1139
vn 0.3056 0.8080 0.5038
vn 0.0959 0.9953 -0.0162
vn -0.1267 0.9785 0.1630
vn 0.2712 -0.9613 -0.0496
vn 0.4229 -0.8819 0.2083
vn 0.5013 -0.8587 0.1064
vn -0.0502 -0.6508 0.7576
vn -0.3776 -0.3517 0.8566
vn 0.3127 -0.4506 0.8362
vn 0.2815 0.2790 0.9181
vn -0.0344 0.9384 0.3439
vn 0.4728 -0.4359 0.7658
vn -0.0117 0.8230 0.5680
vn 0.5854 -0.4415 0.6799
vn 0.4428 0.2980 0.8457
vn 0.5784 -0.4284 0.6942
vn 0.0957 0.9743 0.2040
vn 0.5578 -0.5480 0.6234
vn 0.6345 -0.6539 0.4120
vn 0.4319 -0.5509 0.7141
vn 0.6127 -0.2321 0.7555
vn 0.5854 -0.1521 0.7963
vn 0.6461 -0.2527 0.7202
vn 0.0830 -0.9490 0.3043
vn 0.1288 -0.8250 0.5502
vn 0.1087 -0.9506 0.2908
vn 0.0590 -0.9718 0.2285
vn 0.2309 -0.8289 0.5096
vn 0.1146 0.5482 0.8284
vn 0.4932 0.6818 0.5403
vn -0.0838 0.8157 0.5724
vn 0.2496 0.6407 0.7261
vn 0.1031 0.5388 0.8361
vn -0.3341 0.7163 0.6126
vn 0.3559 -0.5218 0.7753
vn -0.3804 -0.5532 0.7411
vn -0.5510 -0.5921 0.5881
vn -0.5400 0.5338 0.6507
vn 0.0543 -0.3081 0.9498
vn -0.0448 -0.6515 0.7574
vn 0.9377 0.2974 0.1799
vn 0.9368 -0.3119 0.1587
vn 0.9605 0.0823 0.2657
vn 0.7631 -0.6368 0.1105
vn 0.8210 -0.5285 0.2160
vn 0.5086 0.1147 0.8533
vn -0.1887 -0.1798 0.9654
vn -0.1492 0.4034 0.9028
vn 0.8176 -0.2816 0.5023
vn 0.8849 0.1630 0.4363
vn 0.1757 -0.8793 0.4426
vn 0.5673 0.8003 0.1942
vn 0.2603 0.9421 0.2116
vn 0.7295 0.6075 0.3143
vn 0.5374 -0.8377 0.0971
vn 0.4772 -0.8596 0.1828
vn 0.2606 -0.9600 0.1028
vn 0.0684 -0.9804 0.1846
vn 0.0818 -0.9940 0.0730
vn -0.0536 0.9407 0.3351
vn -0.0839 0.9729 0.2157
vn 0.7200 0.3012 0.6252
vn 0.4029 0.8402 0.3630
vn 0.4120 0.6273 0.6609
vn 0.0587 0.7697 0.6357
vn 0.6255 -0.6831 0.3770
vn 0.2816 -0.8389 0.4658
vn -0.0563 -0.9363 0.3468
vn 0.5021 -0.5054 0.7018
vn 0.4285 0.1118 0.8966
vn 0.1908 -0.4260 0.8843
vn -0.1497 0.2651 0.9525
vn -0.2696 -0.9404 0.2073
vn -0.3872 -0.8936 0.2271
vn -0.4343 0.6923 0.5763
vn -0.3898 0.8697 0.3028
vn -0.6835 0.5934 0.4250
vn -0.6360 0.6937 0.3381
vn -0.8691 0.2201 0.4430
vn -0.3111 -0.9082 0.2798
vn -0.5003 -0.8222 0.2716
vn -0.6874 -0.5312 0.4954
vn -0.7764 -0.5049 0.3772
vn -0.3597 -0.3007 0.8833
vn -0.7205 0.0909 0.6874
vn 0.8602 0.3521 -0.3690
vn -0.2005 -0.7371 0.6453
vn 0.7793 -0.5842 -0.2267
vn 0.7822 0.6228 0.0162
vn 0.9381 0.3464 0.0005
vn 0.9879 -0.0442 0.1486
vn 0.9574 -0.1106 -0.2669
vn 0.8470 -0.3769 0.3748
vn 0.8870 0.1130 0.4478
vn 0.7965 -0.6016 0.0598
vn 0.6591 0.5170 0.5462
vn 0.7116 -0.2949 0.6377
vn 0.6372 0.0285 0.7702
vn 0.5885 0.7894 -0.1748
vn 0.7122 0.5013 -0.4914
vn 0.4251 0.8362 -0.3464
vn 0.7873 -0.0739 -0.6122
vn 0.6775 0.1827 -0.7125
vn 0.6287 -0.7238 -0.2844
vn 0.8055 0.5164 0.2907
vn 0.5815 0.7910 0.1900
vn 0.3663 0.9304 -0.0123
vn 0.3500 0.8915 0.2878
vn 0.3332 0.9143 -0.2303
vn 0.2376 0.9392 0.2479
vn 0.5593 -0.8284 0.0292
vn 0.6003 -0.7304 0.3258
vn 0.4775 -0.8314 0.2843
vn 0.4778 0.4564 0.7506
vn 0.3521 0.7802 0.5169
vn 0.3564 0.3923 0.8480
vn 0.5063 -0.1748 0.8444
vn 0.5290 -0.6150 0.5847
vn 0.4403 -0.5032 0.7436
vn 0.2845 0.6258 0.7263
vt 0.391914 0.153471
vt 0.410177 0.163618
vt 0.405418 0.148423
vt 0.425347 0.156240
vt 0.429488 0.157479
vt 0.423954 0.151323
vt 0.393291 0.148852
vt 0.380623 0.130357
vt 0.427505 0.110496
vt 0.352856 0.143553
vt 0.377135 0.109274
vt 0.338892 0.124491
vt 0.348038 0.117724
vt 0.375853 0.103773
vt 0.392923 0.121271
vt 0.374364 0.127559
vt 0.389358 0.109807
vt 0.400217 0.095245
vt 0.382114 0.157432
vt 0.344479 0.160683
vt 0.393826 0.139932
vt 0.407280 0.145342
vt 0.432145 0.151756
vt 0.395525 0.165061
vt 0.405397 0.132624
vt 0.453267 0.159615
vt 0.466022 0.161846
vt 0.475512 0.163112
vt 0.486931 0.157141
vt 0.497270 0.164200
vt 0.489785 0.211347
vt 0.466111 0.232771
vt 0.440849 0.218281
vt 0.487953 0.181103
vt 0.443866 0.178437
vt 0.491361 0.085542
vt 0.455525 0.094500
vt 0.477151 0.118499
vt 0.404103 0.077612
vt 0.506725 0.096059
vt 0.460136 0.093098
vt 0.410646 0.103377
vt 0.391238 0.079061
vt 0.399034 0.066989
vt 0.432483 0.065628
vt 0.421709 0.138152
vt 0.445332 0.124266
vt 0.439942 0.066705
vt 0.499806 0.045006
vt 0.473285 0.040407
vt 0.522925 0.067593
vt 0.380933 0.507080
vt 0.384752 0.518786
vt 0.389374 0.498151
vt 0.386324 0.540517
vt 0.380600 0.524402
vt 0.382110 0.547292
vt 0.388240 0.562174
vt 0.399270 0.571116
vt 0.392257 0.553904
vt 0.407283 0.567421
vt 0.415067 0.578454
vt 0.392360 0.497285
vt 0.384237 0.495259
vt 0.403491 0.467808
vt 0.395990 0.570254
vt 0.380187 0.518398
vt 0.385487 0.543752
vt 0.435200 0.581627
vt 0.450655 0.573037
vt 0.431835 0.576048
vt 0.459514 0.567195
vt 0.408505 0.465257
vt 0.419750 0.460787
vt 0.435932 0.470270
vt 0.445235 0.462100
vt 0.432096 0.490752
vt 0.418500 0.469540
vt 0.460142 0.473768
vt 0.429537 0.555098
vt 0.448596 0.527957
vt 0.450732 0.564628
vt 0.458083 0.497019
vt 0.415916 0.581013
vt 0.418152 0.574313
vt 0.438771 0.577967
vt 0.462599 0.557462
vt 0.401919 0.560566
vt 0.392723 0.520823
vt 0.415473 0.503501
vt 0.414432 0.534666
vt 0.449402 0.276491
vt 0.472465 0.282324
vt 0.456151 0.298420
vt 0.452171 0.254589
vt 0.480047 0.251814
vt 0.499169 0.275001
vt 0.500295 0.252030
vt 0.466883 0.369774
vt 0.485464 0.353065
vt 0.476154 0.362098
vt 0.479491 0.361836
vt 0.469734 0.376403
vt 0.486086 0.353306
vt 0.500157 0.362542
vt 0.488462 0.359346
vt 0.475884 0.399539
vt 0.476334 0.430788
vt 0.469892 0.401409
vt 0.499973 0.365796
vt 0.499988 0.370790
vt 0.487149 0.430156
vt 0.491636 0.446436
vt 0.499828 0.415454
vt 0.507260 0.442053
vt 0.471335 0.493156
vt 0.468759 0.510968
vt 0.475950 0.518217
vt 0.471711 0.542344
vt 0.470767 0.384222
vt 0.483953 0.379319
vt 0.483040 0.406795
vt 0.499893 0.387616
vt 0.499936 0.376538
vt 0.492088 0.401441
vt 0.519627 0.162431
vt 0.500356 0.165848
vt 0.526696 0.165023
vt 0.526367 0.162954
vt 0.539509 0.162000
vt 0.550046 0.158870
vt 0.517233 0.234119
vt 0.498773 0.235116
vt 0.521954 0.122424
vt 0.537237 0.156556
vt 0.575823 0.128297
vt 0.552065 0.160975
vt 0.568521 0.151044
vt 0.515446 0.169711
vt 0.486496 0.200680
vt 0.531405 0.133004
vt 0.563685 0.151928
vt 0.545300 0.088260
vt 0.584336 0.103692
vt 0.581353 0.078817
vt 0.604702 0.092176
vt 0.616360 0.073858
vt 0.615384 0.078383
vt 0.618685 0.113836
vt 0.610674 0.103045
vt 0.489569 0.098822
vt 0.573376 0.098772
vt 0.570575 0.061149
vt 0.581316 0.135537
vt 0.429882 0.049410
vt 0.573124 0.047039
vt 0.582284 0.049921
vt 0.571993 0.156827
vt 0.574751 0.155721
vt 0.597779 0.142365
vt 0.589859 0.159897
vt 0.581626 0.194029
vt 0.560976 0.204113
vt 0.626476 0.106024
vt 0.629204 0.098503
vt 0.620410 0.105069
vt 0.625968 0.134034
vt 0.646060 0.129620
vt 0.641093 0.141586
vt 0.662157 0.120469
vt 0.689623 0.130762
vt 0.596196 0.142632
vt 0.601909 0.133456
vt 0.617512 0.158991
vt 0.582603 0.157482
vt 0.612039 0.169584
vt 0.634085 0.156173
vt 0.685607 0.120829
vt 0.661284 0.114355
vt 0.500082 0.295168
vt 0.489551 0.291357
vt 0.527909 0.286132
vt 0.510566 0.293261
vt 0.515856 0.275096
vt 0.499314 0.336640
vt 0.512191 0.353073
vt 0.508991 0.355896
vt 0.515849 0.350924
vt 0.514626 0.359217
vt 0.500006 0.401437
vt 0.510162 0.407216
vt 0.537832 0.535077
vt 0.529778 0.549989
vt 0.531249 0.520583
vt 0.517363 0.252265
vt 0.541565 0.237314
vt 0.539731 0.257487
vt 0.509047 0.378547
vt 0.520427 0.387345
vt 0.528023 0.364648
vt 0.518259 0.369922
vt 0.520743 0.408666
vt 0.528401 0.420958
vt 0.516120 0.437218
vt 0.558212 0.565148
vt 0.554978 0.546525
vt 0.543468 0.574235
vt 0.549883 0.514096
vt 0.544698 0.493886
vt 0.551995 0.588417
vt 0.534655 0.565973
vt 0.554719 0.587143
vt 0.541924 0.578780
vt 0.575340 0.588719
vt 0.574256 0.595087
vt 0.568621 0.259448
vt 0.547399 0.274780
vt 0.571996 0.539745
vt 0.567017 0.502264
vt 0.588982 0.495798
vt 0.599022 0.520570
vt 0.560216 0.584248
vt 0.582383 0.595274
vt 0.593359 0.593962
vt 0.588228 0.529155
vt 0.583277 0.578385
vt 0.593189 0.548641
vt 0.598840 0.568395
vt 0.610411 0.540973
vt 0.606611 0.584859
vt 0.613804 0.561353
vt 0.612592 0.520822
vt 0.596653 0.498152
vt 0.613876 0.524228
vt 0.606737 0.515363
vt 0.614824 0.565445
vt 0.612880 0.531842
vt 0.610382 0.555802
vt 0.592085 0.577552
vt 0.583837 0.583390
vt 0.596924 0.587731
vt 0.601449 0.568938
vt 0.618927 0.541492
vt 0.659719 0.609434
vt 0.656468 0.580955
vt 0.673689 0.594329
vt 0.681727 0.554401
vt 0.680577 0.613563
vt 0.664458 0.635860
vt 0.701069 0.608651
vt 0.697373 0.633105
vt 0.720239 0.624385
vt 0.726039 0.609670
vt 0.704959 0.652870
vt 0.652731 0.556604
vt 0.673899 0.528327
vt 0.664422 0.524369
vt 0.694876 0.531560
vt 0.687180 0.515671
vt 0.707201 0.519403
vt 0.684725 0.506363
vt 0.680152 0.645330
vt 0.663419 0.637212
vt 0.717979 0.564137
vt 0.699706 0.571645
vt 0.732663 0.525145
vt 0.729415 0.562524
vt 0.722329 0.527785
vt 0.711206 0.508284
vt 0.745722 0.568844
vt 0.737503 0.611031
vt 0.722333 0.644888
vt 0.714184 0.653980
vt 0.737198 0.627816
vt 0.978557 0.052513
vt 0.862928 0.059595
vt 0.922456 0.048711
vt 0.406410 0.202559
vt 0.339693 0.141626
vt 0.326926 0.131049
vt 0.483502 0.238319
vt 0.543259 0.086392
vt 0.400368 0.475556
vt 0.431166 0.263819
vt 0.426345 0.283924
vt 0.426708 0.235416
vt 0.428871 0.458349
vt 0.527982 0.214283
vt 0.540909 0.191172
vt 0.545411 0.072989
vt 0.548716 0.228758
vt 0.577102 0.234003
vt 0.606744 0.149239
vt 0.657971 0.118953
vt 0.661304 0.142757
vt 0.662101 0.161184
vt 0.529428 0.355920
vt 0.531516 0.379596
vt 0.542529 0.293898
vt 0.569016 0.287474
vt 0.557546 0.484869
vt 0.581617 0.487377
vt 0.648786 0.602115
vt 0.646932 0.596091
vt 0.687845 0.654935
s 1
f 6/1/6 9/2/9 10/3/10
f 9/2/9 7/4/7 8/5/8
f 10/3/10 9/2/9 12/6/12
f 5/7/5 10/3/10 11/8/11
f 12/6/12 9/2/9 8/5/8
f 13/9/13 10/3/10 12/6/12
f 1/10/1 11/8/11 24/11/24
f 20/12/20 21/13/21 27/14/27
f 25/15/25 22/16/22 26/17/26
f 22/16/22 20/12/20 27/14/27
f 24/11/24 11/8/11 13/9/13
f 27/14/27 24/11/24 29/18/29
f 30/19/30 19/20/19 23/21/23
f 30/19/30 23/21/23 31/22/31
f 48/23/48 15/24/15 30/19/30
f 31/22/31 23/21/23 28/25/28
f 34/26/34 33/27/33 35/28/35
f 37/29/37 35/28/35 36/30/36
f 39/31/39 38/32/38 2/33/2
f 8/5/8 33/27/33 34/26/34
f 12/6/12 8/5/8 34/26/34
f 48/23/48 50/34/50 16/35/16
f 54/36/54 53/37/53 45/38/45
f 52/39/52 46/40/46 44/41/44
f 58/42/58 25/15/25 55/43/55
f 56/44/56 26/17/26 29/18/29
f 13/9/13 53/37/53 57/45/57
f 48/23/48 31/22/31 49/46/49
f 58/42/58 28/25/28 25/15/25
f 58/42/58 51/47/51 49/46/49
f 51/47/51 48/23/48 49/46/49
f 59/48/59 51/47/51 58/42/58
f 55/43/55 59/48/59 58/42/58
f 56/44/56 57/45/57 63/49/63
f 62/50/62 56/44/56 63/49/63
f 57/45/57 165/51/165 63/49/63
f 74/52/74 72/53/72 66/54/66
f 71/55/71 72/53/72 73/56/73
f 71/55/71 73/56/73 79/57/79
f 79/57/79 75/58/75 71/55/71
f 77/59/77 76/60/76 75/58/75
f 76/60/76 77/59/77 64/61/64
f 78/62/78 64/61/64 77/59/77
f 92/63/92 69/64/69 70/65/70
f 79/57/79 102/66/102 75/58/75
f 80/67/80 69/64/69 92/63/92
f 79/57/79 81/68/81 102/66/102
f 98/69/98 87/70/87 65/71/65
f 88/72/88 87/70/87 98/69/98
f 70/65/70 67/73/67 91/74/91
f 94/75/94 91/74/91 85/76/85
f 95/77/95 93/78/93 94/75/94
f 94/75/94 85/76/85 86/79/86
f 106/80/106 141/81/141 96/82/96
f 141/81/141 95/77/95 133/83/133
f 97/84/97 98/69/98 78/62/78
f 99/85/99 97/84/97 102/66/102
f 100/86/100 98/69/98 97/84/97
f 96/82/96 100/86/100 99/85/99
f 136/87/136 88/72/88 100/86/100
f 103/88/103 81/68/81 101/89/101
f 104/90/104 92/63/92 93/78/93
f 101/89/101 104/90/104 105/91/105
f 93/78/93 95/77/95 104/90/104
f 106/80/106 103/88/103 105/91/105
f 106/80/106 99/85/99 103/88/103
f 104/90/104 141/81/141 105/91/105
f 102/66/102 77/59/77 75/58/75
f 83/92/83 107/93/107 82/94/82
f 107/93/107 3/95/3 40/96/40
f 110/97/110 40/96/40 32/98/32
f 111/99/111 112/100/112 113/101/113
f 115/102/115 120/103/120 113/101/113
f 113/101/113 112/100/112 116/104/116
f 115/102/115 113/101/113 116/104/116
f 116/104/116 112/100/112 117/105/117
f 116/104/116 117/105/117 118/106/118
f 120/103/120 111/99/111 113/101/113
f 137/107/137 123/108/123 122/109/122
f 118/106/118 119/110/119 125/111/125
f 123/108/123 131/112/131 130/113/130
f 130/113/130 124/114/124 222/115/222
f 133/83/133 129/116/129 134/117/134
f 135/118/135 132/119/132 136/87/136
f 115/102/115 121/120/121 120/103/120
f 115/102/115 137/107/137 121/120/121
f 137/107/137 140/121/140 138/122/138
f 118/106/118 128/123/128 140/121/140
f 118/106/118 126/124/126 128/123/128
f 131/112/131 123/108/123 138/122/138
f 131/112/131 138/122/138 139/125/139
f 134/117/134 135/118/135 136/87/136
f 37/29/37 36/30/36 144/126/144
f 143/127/143 147/128/147 145/129/145
f 144/126/144 143/127/143 145/129/145
f 148/130/148 145/129/145 149/131/149
f 39/31/39 150/132/150 42/133/42
f 47/134/47 144/126/144 146/135/146
f 47/134/47 146/135/146 158/136/158
f 146/135/146 148/130/148 159/137/159
f 160/138/160 146/135/146 159/137/159
f 146/135/146 160/138/160 158/136/158
f 161/139/161 43/140/43 50/34/50
f 162/141/162 163/142/163 161/139/161
f 165/51/165 54/36/54 166/143/166
f 166/143/166 47/134/47 167/144/167
f 168/145/168 166/143/166 167/144/167
f 168/145/168 167/144/167 169/146/169
f 177/147/177 168/145/168 169/146/169
f 178/148/178 191/149/191 170/150/170
f 162/141/162 161/139/161 60/151/60
f 172/152/172 162/141/162 60/151/60
f 170/150/170 172/152/172 175/153/175
f 170/150/170 173/154/173 172/152/172
f 175/153/175 61/155/61 174/156/174
f 62/50/62 63/49/63 176/157/176
f 63/49/63 168/145/168 176/157/176
f 176/157/176 168/145/168 177/147/177
f 174/156/174 176/157/176 177/147/177
f 175/153/175 174/156/174 178/148/178
f 174/156/174 177/147/177 178/148/178
f 184/158/184 159/137/159 149/131/149
f 160/138/160 159/137/159 184/158/184
f 181/159/181 184/158/184 149/131/149
f 185/160/185 160/138/160 182/161/182
f 187/162/187 156/163/156 163/142/163
f 169/146/169 194/164/194 193/165/193
f 169/146/169 193/165/193 192/166/192
f 167/144/167 158/136/158 194/164/194
f 191/149/191 192/166/192 195/167/195
f 186/168/186 185/160/185 200/169/200
f 197/170/197 201/171/201 195/167/195
f 203/172/203 173/154/173 190/173/190
f 173/154/173 203/172/203 163/142/163
f 203/172/203 202/174/202 188/175/188
f 202/174/202 189/176/189 188/175/188
f 203/172/203 190/173/190 195/167/195
f 204/177/204 202/174/202 203/172/203
f 204/177/204 203/172/203 195/167/195
f 206/178/206 197/170/197 198/179/198
f 201/171/201 197/170/197 206/178/206
f 110/97/110 109/180/109 108/181/108
f 209/182/209 207/183/207 208/184/208
f 112/100/112 114/185/114 212/186/212
f 117/105/117 112/100/112 212/186/212
f 213/187/213 119/110/119 117/105/117
f 214/188/214 117/105/117 212/186/212
f 215/189/215 213/187/213 214/188/214
f 213/187/213 126/124/126 125/111/125
f 124/114/124 127/190/127 218/191/218
f 226/192/226 225/193/225 224/194/224
f 153/195/153 157/196/157 155/197/155
f 229/198/229 128/123/128 126/124/126
f 218/191/218 127/190/127 229/198/229
f 229/198/229 213/187/213 215/189/215
f 218/191/218 229/198/229 230/199/230
f 214/188/214 217/200/217 231/201/231
f 215/189/215 214/188/214 231/201/231
f 219/202/219 230/199/230 220/203/220
f 218/191/218 223/204/223 124/114/124
f 223/204/223 218/191/218 219/202/219
f 232/205/232 226/192/226 233/206/233
f 226/192/226 228/207/228 225/193/225
f 232/205/232 228/207/228 226/192/226
f 237/208/237 224/194/224 235/209/235
f 228/207/228 239/210/239 227/211/227
f 239/210/239 240/212/240 238/213/238
f 242/214/242 240/212/240 241/215/241
f 179/216/179 211/217/211 155/197/155
f 233/206/233 237/208/237 245/218/245
f 246/219/246 243/220/243 248/221/248
f 249/222/249 228/207/228 232/205/232
f 249/222/249 239/210/239 228/207/228
f 250/223/250 239/210/239 249/222/249
f 250/223/250 241/215/241 239/210/239
f 251/224/251 241/215/241 250/223/250
f 232/205/232 233/206/233 245/218/245
f 247/225/247 245/218/245 246/219/246
f 252/226/252 232/205/232 253/227/253
f 252/226/252 253/227/253 254/228/254
f 255/229/255 247/225/247 248/221/248
f 250/223/250 249/222/249 252/226/252
f 252/226/252 254/228/254 270/230/270
f 270/230/270 251/224/251 250/223/250
f 270/230/270 254/228/254 267/231/267
f 258/232/258 243/220/243 259/233/259
f 260/234/260 259/233/259 261/235/261
f 265/236/265 262/237/262 266/238/266
f 257/239/257 256/240/256 263/241/263
f 264/242/264 265/236/265 266/238/266
f 248/221/248 258/232/258 255/229/255
f 267/231/267 268/243/268 265/236/265
f 275/244/275 269/245/269 273/246/273
f 272/247/272 273/246/273 269/245/269
f 274/248/274 271/249/271 275/244/275
f 277/250/277 274/248/274 273/246/273
f 277/250/277 276/251/276 274/248/274
f 276/251/276 277/250/277 280/252/280
f 280/252/280 277/250/277 281/253/281
f 295/254/295 276/251/276 280/252/280
f 283/255/283 282/256/282 269/245/269
f 284/257/284 282/256/282 283/255/283
f 289/258/289 272/247/272 282/256/282
f 289/258/289 290/259/290 291/260/291
f 290/259/290 282/256/282 292/261/292
f 278/262/278 287/263/287 271/249/271
f 279/264/279 288/265/288 289/258/289
f 279/264/279 289/258/289 291/260/291
f 303/266/303 297/267/297 298/268/298
f 291/260/291 293/269/293 298/268/298
f 299/270/299 297/267/297 303/266/303
f 297/267/297 281/253/281 279/264/279
f 280/252/280 300/271/300 301/272/301
f 281/253/281 299/270/299 300/271/300
f 301/272/301 296/273/296 295/254/295
f 301/272/301 300/271/300 302/274/302
f 142/275/142 305/276/142 304/277/142
f 5/7/5 6/1/6 10/3/10
f 16/35/16 2/33/2 14/278/14
f 15/24/15 16/35/16 14/278/14
f 48/23/48 16/35/16 15/24/15
f 19/20/19 18/279/18 22/16/22
f 20/12/20 17/280/17 21/13/21
f 22/16/22 18/279/18 20/12/20
f 21/13/21 1/10/1 24/11/24
f 23/21/23 19/20/19 22/16/22
f 27/14/27 21/13/21 24/11/24
f 25/15/25 23/21/23 22/16/22
f 22/16/22 27/14/27 26/17/26
f 13/9/13 11/8/11 10/3/10
f 23/21/23 25/15/25 28/25/28
f 48/23/48 30/19/30 31/22/31
f 35/28/35 33/27/33 36/30/36
f 36/30/36 33/27/33 143/127/143
f 35/28/35 37/29/37 34/26/34
f 40/96/40 3/95/3 38/32/38
f 16/35/16 43/140/43 39/31/39
f 32/98/32 40/96/40 41/281/41
f 39/31/39 42/133/42 38/32/38
f 8/5/8 7/4/7 33/27/33
f 45/38/45 34/26/34 37/29/37
f 45/38/45 37/29/37 47/134/47
f 45/38/45 12/6/12 34/26/34
f 13/9/13 12/6/12 45/38/45
f 2/33/2 16/35/16 39/31/39
f 16/35/16 50/34/50 43/140/43
f 48/23/48 51/47/51 50/34/50
f 51/47/51 161/139/161 50/34/50
f 53/37/53 13/9/13 45/38/45
f 52/39/52 164/282/164 46/40/46
f 26/17/26 27/14/27 29/18/29
f 55/43/55 25/15/25 26/17/26
f 56/44/56 55/43/55 26/17/26
f 13/9/13 29/18/29 24/11/24
f 56/44/56 29/18/29 57/45/57
f 57/45/57 29/18/29 13/9/13
f 57/45/57 53/37/53 54/36/54
f 165/51/165 57/45/57 54/36/54
f 31/22/31 28/25/28 49/46/49
f 49/46/49 28/25/28 58/42/58
f 51/47/51 60/151/60 161/139/161
f 60/151/60 51/47/51 59/48/59
f 61/155/61 55/43/55 56/44/56
f 59/48/59 55/43/55 61/155/61
f 61/155/61 56/44/56 62/50/62
f 69/64/69 66/54/66 68/283/68
f 69/64/69 68/283/68 70/65/70
f 74/52/74 73/56/73 72/53/72
f 69/64/69 74/52/74 66/54/66
f 75/58/75 76/60/76 71/55/71
f 64/61/64 78/62/78 65/71/65
f 74/52/74 80/67/80 73/56/73
f 79/57/79 73/56/73 80/67/80
f 80/67/80 74/52/74 69/64/69
f 79/57/79 80/67/80 81/68/81
f 90/284/90 3/95/3 83/92/83
f 90/284/90 83/92/83 89/285/89
f 3/95/3 90/284/90 4/286/4
f 84/287/84 91/74/91 67/73/67
f 70/65/70 91/74/91 93/78/93
f 92/63/92 70/65/70 93/78/93
f 91/74/91 84/287/84 85/76/85
f 94/75/94 93/78/93 91/74/91
f 133/83/133 94/75/94 86/79/86
f 95/77/95 94/75/94 133/83/133
f 77/59/77 97/84/97 78/62/78
f 77/59/77 102/66/102 97/84/97
f 78/62/78 98/69/98 65/71/65
f 99/85/99 100/86/100 97/84/97
f 99/85/99 106/80/106 96/82/96
f 100/86/100 88/72/88 98/69/98
f 96/82/96 136/87/136 100/86/100
f 101/89/101 80/67/80 92/63/92
f 81/68/81 80/67/80 101/89/101
f 81/68/81 103/88/103 102/66/102
f 101/89/101 92/63/92 104/90/104
f 105/91/105 103/88/103 101/89/101
f 104/90/104 95/77/95 141/81/141
f 106/80/106 105/91/105 141/81/141
f 99/85/99 102/66/102 103/88/103
f 107/93/107 110/97/110 108/181/108
f 110/97/110 107/93/107 40/96/40
f 118/106/118 117/105/117 119/110/119
f 118/106/118 125/111/125 126/124/126
f 124/114/124 139/125/139 127/190/127
f 133/83/133 86/79/86 129/116/129
f 130/113/130 131/112/131 124/114/124
f 134/117/134 129/116/129 135/118/135
f 136/87/136 132/119/132 88/72/88
f 83/92/83 3/95/3 107/93/107
f 137/107/137 138/122/138 123/108/123
f 137/107/137 115/102/115 140/121/140
f 118/106/118 115/102/115 116/104/116
f 118/106/118 140/121/140 115/102/115
f 139/125/139 140/121/140 128/123/128
f 139/125/139 138/122/138 140/121/140
f 139/125/139 128/123/128 127/190/127
f 131/112/131 139/125/139 124/114/124
f 136/87/136 141/81/141 134/117/134
f 136/87/136 96/82/96 141/81/141
f 133/83/133 134/117/134 141/81/141
f 144/126/144 36/30/36 143/127/143
f 149/131/149 145/129/145 147/128/147
f 148/130/148 144/126/144 145/129/145
f 39/31/39 151/288/151 150/132/150
f 43/140/43 151/288/151 39/31/39
f 152/289/152 151/288/151 43/140/43
f 152/289/152 156/163/156 151/288/151
f 144/126/144 47/134/47 37/29/37
f 146/135/146 144/126/144 148/130/148
f 167/144/167 47/134/47 158/136/158
f 159/137/159 148/130/148 149/131/149
f 161/139/161 152/289/152 43/140/43
f 161/139/161 163/142/163 152/289/152
f 163/142/163 156/163/156 152/289/152
f 54/36/54 45/38/45 47/134/47
f 166/143/166 54/36/54 47/134/47
f 165/51/165 166/143/166 168/145/168
f 177/147/177 169/146/169 191/149/191
f 178/148/178 177/147/177 191/149/191
f 59/48/59 171/290/171 60/151/60
f 171/290/171 172/152/172 60/151/60
f 175/153/175 172/152/172 171/290/171
f 162/141/162 173/154/173 163/142/163
f 172/152/172 173/154/173 162/141/162
f 170/150/170 190/173/190 173/154/173
f 174/156/174 61/155/61 62/50/62
f 174/156/174 62/50/62 176/157/176
f 168/145/168 63/49/63 165/51/165
f 175/153/175 178/148/178 170/150/170
f 59/48/59 61/155/61 175/153/175
f 175/153/175 171/290/171 59/48/59
f 156/163/156 154/291/154 151/288/151
f 179/216/179 155/197/155 180/292/180
f 160/138/160 184/158/184 182/161/182
f 158/136/158 160/138/160 185/160/185
f 182/161/182 184/158/184 181/159/181
f 183/293/183 185/160/185 182/161/182
f 188/175/188 187/162/187 163/142/163
f 189/176/189 187/162/187 188/175/188
f 190/173/190 170/150/170 191/149/191
f 169/146/169 167/144/167 194/164/194
f 191/149/191 169/146/169 192/166/192
f 194/164/194 158/136/158 186/168/186
f 191/149/191 195/167/195 190/173/190
f 186/168/186 158/136/158 185/160/185
f 193/165/193 194/164/194 196/294/196
f 192/166/192 197/170/197 195/167/195
f 196/294/196 198/179/198 193/165/193
f 198/179/198 192/166/192 193/165/193
f 186/168/186 196/294/196 194/164/194
f 197/170/197 192/166/192 198/179/198
f 199/295/199 195/167/195 201/171/201
f 188/175/188 163/142/163 203/172/203
f 205/296/205 204/177/204 195/167/195
f 205/296/205 195/167/195 199/295/199
f 206/178/206 198/179/198 196/294/196
f 110/97/110 208/184/208 207/183/207
f 208/184/208 110/97/110 32/98/32
f 208/184/208 32/98/32 153/195/153
f 208/184/208 153/195/153 155/197/155
f 208/184/208 155/197/155 211/217/211
f 211/217/211 209/182/209 208/184/208
f 214/188/214 213/187/213 117/105/117
f 216/297/216 212/186/212 114/185/114
f 217/200/217 214/188/214 212/186/212
f 216/297/216 217/200/217 212/186/212
f 213/187/213 125/111/125 119/110/119
f 222/115/222 124/114/124 223/204/223
f 219/202/219 220/203/220 223/204/223
f 237/208/237 226/192/226 224/194/224
f 228/207/228 227/211/227 225/193/225
f 213/187/213 229/198/229 126/124/126
f 229/198/229 127/190/127 128/123/128
f 215/189/215 231/201/231 229/198/229
f 219/202/219 218/191/218 230/199/230
f 230/199/230 229/198/229 231/201/231
f 231/201/231 217/200/217 221/298/221
f 230/199/230 231/201/231 221/298/221
f 211/217/211 210/299/210 209/182/209
f 239/210/239 238/213/238 227/211/227
f 211/217/211 179/216/179 234/300/234
f 243/220/243 236/301/236 244/302/244
f 233/206/233 226/192/226 237/208/237
f 246/219/246 237/208/237 235/209/235
f 245/218/245 237/208/237 246/219/246
f 246/219/246 235/209/235 236/301/236
f 248/221/248 247/225/247 246/219/246
f 243/220/243 246/219/246 236/301/236
f 239/210/239 241/215/241 240/212/240
f 251/224/251 263/241/263 241/215/241
f 245/218/245 253/227/253 232/205/232
f 247/225/247 253/227/253 245/218/245
f 253/227/253 247/225/247 255/229/255
f 255/229/255 254/228/254 253/227/253
f 267/231/267 254/228/254 255/229/255
f 252/226/252 249/222/249 232/205/232
f 252/226/252 270/230/270 250/223/250
f 259/233/259 243/220/243 244/302/244
f 260/234/260 258/232/258 259/233/259
f 260/234/260 261/235/261 262/237/262
f 268/243/268 260/234/260 262/237/262
f 265/236/265 268/243/268 262/237/262
f 241/215/241 263/241/263 256/240/256
f 270/230/270 263/241/263 251/224/251
f 270/230/270 265/236/265 263/241/263
f 263/241/263 264/242/264 257/239/257
f 265/236/265 264/242/264 263/241/263
f 258/232/258 248/221/248 243/220/243
f 255/229/255 268/243/268 267/231/267
f 268/243/268 255/229/255 258/232/258
f 258/232/258 260/234/260 268/243/268
f 265/236/265 270/230/270 267/231/267
f 269/245/269 285/303/285 283/255/283
f 275/244/275 285/303/285 269/245/269
f 275/244/275 271/249/271 285/303/285
f 274/248/274 275/244/275 273/246/273
f 274/248/274 278/262/278 271/249/271
f 288/265/288 273/246/273 272/247/272
f 276/251/276 278/262/278 274/248/274
f 277/250/277 273/246/273 288/265/288
f 295/254/295 278/262/278 276/251/276
f 279/264/279 277/250/277 288/265/288
f 279/264/279 281/253/281 277/250/277
f 292/261/292 282/256/282 284/257/284
f 285/303/285 286/304/286 283/255/283
f 271/249/271 287/263/287 285/303/285
f 272/247/272 269/245/269 282/256/282
f 289/258/289 288/265/288 272/247/272
f 289/258/289 282/256/282 290/259/290
f 293/269/293 291/260/291 290/259/290
f 278/262/278 294/305/294 287/263/287
f 295/254/295 294/305/294 278/262/278
f 295/254/295 296/273/296 294/305/294
f 298/268/298 297/267/297 279/264/279
f 298/268/298 279/264/279 291/260/291
f 300/271/300 280/252/280 281/253/281
f 281/253/281 297/267/297 299/270/299
f 301/272/301 295/254/295 280/252/280
