# Blender 5.2.1 LTS
# www.blender.org
o ZombieHead0Jaw
v -0.303902 -0.547939 -0.017027
v -0.301086 -0.514102 -0.015431
v -0.196022 -0.613119 0.174499
v -0.235825 -0.508442 0.185370
v -0.215213 -0.539381 0.174862
v -0.269461 -0.425208 0.222192
v -0.259187 -0.484089 0.205741
v -0.263872 -0.452764 0.210522
v -0.278367 -0.443218 0.185006
v -0.260831 -0.512578 0.179449
v -0.252940 -0.431745 0.230300
v -0.235631 -0.444619 0.215870
v -0.228746 -0.472838 0.205378
v -0.205756 -0.453205 0.173311
v -0.277178 -0.398274 0.193636
v -0.268498 -0.370430 0.189319
v -0.262085 -0.395717 0.231222
v -0.232730 -0.392230 0.226508
v -0.239370 -0.414251 0.236641
v -0.226327 -0.376539 0.197067
v -0.218599 -0.406512 0.216675
v -0.214760 -0.428946 0.181804
v -0.211016 -0.382839 0.184615
v -0.230335 -0.598413 0.126211
v -0.225181 -0.605817 0.093184
v -0.210454 -0.603793 0.153675
v -0.199387 -0.618334 0.112843
v -0.273527 -0.566748 0.113469
v -0.284169 -0.530893 0.105813
v -0.265440 -0.543047 0.164305
v -0.275169 -0.506960 0.158196
v -0.263910 -0.572877 0.132705
v -0.258115 -0.587919 0.080925
v -0.230474 -0.568810 0.162397
v -0.206080 -0.510206 0.167620
v -0.288835 -0.469272 0.143270
v -0.273958 -0.425407 0.115774
v -0.282341 -0.488496 0.094201
v -0.281673 -0.459308 0.090987
v -0.281016 -0.479042 0.179258
v -0.213286 -0.497358 0.170387
v -0.199491 -0.477773 0.141205
v -0.204068 -0.473036 0.090781
v -0.280573 -0.402467 0.148100
v -0.275372 -0.345299 0.150381
v -0.270219 -0.364353 0.115468
v -0.258861 -0.376350 0.095492
v -0.213903 -0.407187 0.131437
v -0.200876 -0.445342 0.122516
v -0.248883 -0.596253 0.025680
v -0.231524 -0.608654 0.055169
v -0.222969 -0.597811 0.016609
v -0.186219 -0.601079 0.036785
v -0.298014 -0.550829 0.014622
v -0.282057 -0.579203 0.011524
v -0.276593 -0.556190 0.055764
v -0.259425 -0.587040 0.039513
v -0.209714 -0.581473 -0.015615
v -0.277942 -0.472426 -0.010459
v -0.280420 -0.433244 0.002636
v -0.279770 -0.506947 0.043440
v -0.273992 -0.487791 0.058364
v -0.255594 -0.467844 0.014823
v -0.258975 -0.455551 0.056418
v -0.254517 -0.472936 0.035813
v -0.264196 -0.455500 0.005506
v -0.228003 -0.424118 0.056790
v -0.253207 -0.436148 0.001307
v -0.222222 -0.455010 0.050072
v -0.226913 -0.474589 -0.008512
v -0.228102 -0.433631 -0.009811
v -0.209423 -0.469224 0.000310
v -0.205961 -0.438689 0.022589
v -0.211668 -0.460443 0.041900
v -0.200491 -0.459362 -0.004077
v -0.281565 -0.401909 -0.004449
v -0.256774 -0.408807 0.087716
v -0.263551 -0.399590 0.003322
v -0.238958 -0.369092 0.004020
v -0.233162 -0.413981 0.008324
v -0.094883 -0.626139 0.282427
v -0.090151 -0.595152 0.301901
v -0.132463 -0.366567 0.269089
v -0.120289 -0.367030 0.321632
v -0.110304 -0.397141 0.289513
v -0.198145 -0.592986 0.199860
v -0.159461 -0.626852 0.212883
v -0.128429 -0.611030 0.270275
v -0.124575 -0.634721 0.246791
v -0.136309 -0.640804 0.199312
v -0.114239 -0.642336 0.187844
v -0.213838 -0.568220 0.181478
v -0.192170 -0.509707 0.168214
v -0.169656 -0.529101 0.251436
v -0.179510 -0.532643 0.212400
v -0.152614 -0.508168 0.198364
v -0.155893 -0.562029 0.260637
v -0.144411 -0.551117 0.269633
v -0.177104 -0.591132 0.233518
v -0.159322 -0.522200 0.252662
v -0.126288 -0.527948 0.254624
v -0.145988 -0.501705 0.235920
v -0.144561 -0.385285 0.231701
v -0.198609 -0.612534 0.081661
v -0.181340 -0.623169 0.147567
v -0.157925 -0.613963 0.093711
v -0.152414 -0.622794 0.124040
v -0.119677 -0.588336 0.099879
v -0.114128 -0.624551 0.147188
v -0.185067 -0.487621 0.130773
v -0.192551 -0.444349 0.110202
v -0.190062 -0.484576 0.089328
v -0.178811 -0.440165 0.111759
v -0.187848 -0.462204 0.081008
v -0.167392 -0.487856 0.109368
v -0.154440 -0.468150 0.107136
v -0.160091 -0.497772 0.147755
v -0.169501 -0.603746 0.070181
v -0.196570 -0.585318 0.012067
v -0.173782 -0.551959 -0.000978
v -0.176563 -0.515244 0.018290
v -0.159054 -0.550207 -0.001137
v -0.156518 -0.574963 0.037882
v -0.144425 -0.520512 0.003957
v -0.142350 -0.568780 0.029750
v -0.116510 -0.561052 -0.032733
v -0.043359 -0.578731 -0.031189
v -0.187426 -0.473919 0.075916
v -0.192346 -0.499755 -0.009092
v -0.167128 -0.504571 0.028973
v -0.161006 -0.489533 0.015297
v -0.151510 -0.500295 0.021171
v -0.056573 -0.592207 0.316834
v -0.049560 -0.632701 0.295694
v -0.041322 -0.667397 0.265130
v -0.007138 -0.594348 0.322630
v -0.022215 -0.667072 0.276712
v -0.089593 -0.533724 0.277443
v -0.107331 -0.556993 0.292210
v -0.043403 -0.559837 0.312740
v -0.050871 -0.388792 0.350815
v -0.097012 -0.387250 0.331650
v 0.001918 -0.388236 0.355686
v -0.077756 -0.648461 0.249277
v -0.065932 -0.649517 0.225930
v -0.034642 -0.672339 0.242464
v -0.050741 -0.642924 0.212145
v -0.058836 -0.628084 0.188531
v -0.026427 -0.636157 0.205220
v -0.031958 -0.597444 0.186420
v -0.003222 -0.666105 0.218213
v 0.004234 -0.599084 0.196393
v 0.019716 -0.674498 0.256658
v 0.012113 -0.670977 0.230322
v -0.001723 -0.586581 0.182889
v -0.083915 -0.587543 0.121106
v -0.089076 -0.602677 0.143597
v -0.045832 -0.588589 0.160176
v -0.010607 -0.590696 0.087177
v 0.036464 -0.591571 0.027733
v -0.179207 -0.287053 0.366701
v -0.173845 -0.254361 0.378811
v -0.162155 -0.309751 0.378837
v -0.155530 -0.289987 0.395760
v -0.109893 -0.305417 0.416910
v -0.108711 -0.259500 0.428103
v -0.140769 -0.229307 0.402825
v -0.081698 -0.204372 0.419573
v -0.166247 -0.290624 0.316004
v -0.101930 -0.339327 0.351520
v -0.074535 -0.261609 0.441470
v -0.109807 -0.315155 0.402354
v -0.079940 -0.320862 0.385602
v -0.049477 -0.308494 0.433125
v -0.039578 -0.318572 0.411323
v -0.025872 -0.261653 0.448181
v -0.000870 -0.274778 0.447147
v -0.003564 -0.320414 0.402349
v 0.015071 -0.308284 0.435342
v -0.000177 -0.316973 0.423509
v -0.041447 -0.214293 0.431023
v 0.014411 -0.210030 0.433316
v -0.334903 -0.525044 -0.057241
v -0.320717 -0.500772 -0.094731
v -0.323110 -0.555206 -0.056202
v -0.307808 -0.568108 -0.087173
v -0.327171 -0.539239 -0.093263
v -0.314323 -0.483191 -0.064638
v -0.291372 -0.451893 -0.054008
v -0.301480 -0.418886 -0.057845
v -0.289998 -0.461457 -0.083803
v -0.294740 -0.385717 -0.069058
v -0.304799 -0.507505 -0.114908
v -0.276899 -0.595934 -0.056530
v -0.254990 -0.594546 -0.069584
v -0.252355 -0.593701 -0.022905
v -0.240642 -0.590133 -0.029858
v -0.277584 -0.590451 -0.024408
v -0.272217 -0.583115 -0.090922
v -0.254389 -0.580344 -0.093767
v -0.218244 -0.546209 -0.091122
v -0.213103 -0.554906 -0.052660
v -0.287491 -0.419150 -0.090963
v -0.242411 -0.462558 -0.014387
v -0.256790 -0.418383 -0.094566
v -0.235142 -0.445712 -0.029709
v -0.242717 -0.471411 -0.075737
v -0.247086 -0.453576 -0.066833
v -0.202552 -0.445633 -0.015694
v -0.213040 -0.500181 -0.039603
v -0.214290 -0.432785 -0.031247
v -0.189007 -0.490303 -0.004924
v -0.218196 -0.500199 -0.087348
v -0.295683 -0.398390 -0.027795
v -0.276623 -0.387775 -0.085236
v -0.230526 -0.421318 -0.051394
v -0.294917 -0.545608 -0.117857
v -0.278220 -0.532659 -0.124026
v -0.249338 -0.545437 -0.116986
v -0.250151 -0.502475 -0.116675
v -0.229498 -0.522862 -0.108662
v -0.276360 -0.496448 -0.117860
v -0.278914 -0.453197 -0.087994
v -0.259898 -0.456727 -0.085310
v -0.207128 -0.517621 -0.050835
v -0.174814 -0.535981 -0.008401
v -0.155513 -0.535952 -0.006343
v -0.130874 -0.541150 -0.038462
v -0.104992 -0.541286 -0.058452
v -0.170371 -0.438313 -0.080924
v -0.175344 -0.480514 -0.011607
v -0.138083 -0.478541 -0.061524
v -0.126508 -0.514852 -0.014802
v -0.105763 -0.513012 -0.033933
v -0.096080 -0.477112 -0.101176
v -0.096453 -0.508791 -0.043102
v -0.072285 -0.551999 -0.070248
v -0.066990 -0.515516 -0.059109
v -0.048764 -0.566976 -0.060208
v -0.066469 -0.538572 -0.077752
v -0.036177 -0.515568 -0.068388
v -0.021820 -0.540314 -0.089272
v 0.002813 -0.513902 -0.076772
v 0.002909 -0.556698 -0.085181
v 0.019148 -0.541232 -0.090507
v -0.041859 -0.506359 -0.073928
v -0.044997 -0.486789 -0.108797
v -0.065247 -0.468843 -0.121341
v 0.000141 -0.345906 0.374867
v -0.000401 -0.644292 0.293790
v 0.033183 -0.665838 0.272461
v 0.050160 -0.640755 0.285421
v 0.054067 -0.610215 0.308264
v 0.090221 -0.610826 0.293934
v 0.083432 -0.644232 0.262655
v 0.047825 -0.559646 0.311313
v 0.057923 -0.540632 0.289309
v 0.100636 -0.559528 0.290933
v 0.038728 -0.379176 0.355782
v 0.062519 -0.403097 0.286238
v 0.044301 -0.349624 0.363638
v 0.079647 -0.384294 0.337249
v 0.117496 -0.392978 0.274387
v 0.039254 -0.633477 0.203178
v 0.057386 -0.645832 0.210620
v 0.054143 -0.598196 0.174083
v 0.074591 -0.652566 0.236579
v 0.090127 -0.622248 0.161525
v 0.105325 -0.641987 0.191283
v 0.125059 -0.530243 0.251071
v 0.044911 -0.583365 0.158879
v 0.106454 -0.586286 0.078581
v 0.097472 -0.593325 0.128453
v 0.082806 -0.586406 0.129832
v 0.077253 -0.586791 0.008186
v 0.110504 -0.383236 0.317264
v 0.102314 -0.344455 0.340186
v 0.150490 -0.370819 0.294919
v 0.129277 -0.610717 0.265594
v 0.117375 -0.637037 0.244078
v 0.140253 -0.637922 0.192254
v 0.161314 -0.623643 0.211774
v 0.176725 -0.605242 0.213009
v 0.197678 -0.609681 0.180498
v 0.143490 -0.556795 0.265700
v 0.156898 -0.546410 0.259245
v 0.161073 -0.527217 0.248683
v 0.166978 -0.517869 0.206850
v 0.178355 -0.560193 0.227360
v 0.204201 -0.517765 0.173869
v 0.146128 -0.506318 0.201117
v 0.148468 -0.504214 0.237652
v 0.141718 -0.631240 0.141955
v 0.133219 -0.612832 0.110852
v 0.167851 -0.622043 0.101960
v 0.170307 -0.608367 0.066657
v 0.174389 -0.629754 0.164284
v 0.189302 -0.622898 0.140164
v 0.207265 -0.618226 0.091487
v 0.129412 -0.586012 0.072877
v 0.175790 -0.494443 0.139173
v 0.165496 -0.474275 0.107934
v 0.192536 -0.504532 0.159695
v 0.177797 -0.480451 0.107898
v 0.185239 -0.452049 0.108734
v 0.190533 -0.479004 0.128648
v 0.193572 -0.453071 0.118423
v 0.191184 -0.473698 0.090193
v 0.190189 -0.415252 0.123549
v 0.186957 -0.609927 0.042221
v 0.206044 -0.600188 0.014697
v 0.146736 -0.570557 0.000140
v 0.157171 -0.509782 0.008082
v 0.161031 -0.580207 0.026614
v 0.163681 -0.560243 -0.007800
v 0.163307 -0.528253 -0.008044
v 0.168162 -0.508324 0.008920
v 0.192590 -0.575844 -0.027427
v 0.163341 -0.504335 0.012123
v 0.186618 -0.470364 0.087229
v 0.182120 -0.481023 -0.017816
v 0.204276 -0.576413 0.195769
v 0.216044 -0.544996 0.180725
v 0.260697 -0.512451 0.183762
v 0.233462 -0.482027 0.204531
v 0.199595 -0.466280 0.168759
v 0.229596 -0.445958 0.209168
v 0.232470 -0.417741 0.225068
v 0.252755 -0.430400 0.228462
v 0.252224 -0.450084 0.213904
v 0.265080 -0.480423 0.202491
v 0.268365 -0.445311 0.205467
v 0.282251 -0.424592 0.165218
v 0.208964 -0.379888 0.183870
v 0.230289 -0.352609 0.243372
v 0.223326 -0.377915 0.218756
v 0.215036 -0.434224 0.187804
v 0.253775 -0.366757 0.249556
v 0.249691 -0.389111 0.240366
v 0.265575 -0.415232 0.229097
v 0.266401 -0.357005 0.232185
v 0.274811 -0.374443 0.196009
v 0.279008 -0.414023 0.194323
v 0.224969 -0.589378 0.160788
v 0.230201 -0.605386 0.127617
v 0.233382 -0.608431 0.095312
v 0.222152 -0.510254 0.177540
v 0.249164 -0.537480 0.176606
v 0.242619 -0.575302 0.154373
v 0.269983 -0.557261 0.156674
v 0.283569 -0.524349 0.143623
v 0.276414 -0.573286 0.119158
v 0.287562 -0.557424 0.112775
v 0.202213 -0.491743 0.158070
v 0.205255 -0.412889 0.145505
v 0.288570 -0.481210 0.169180
v 0.292974 -0.451785 0.133766
v 0.293854 -0.509616 0.097666
v 0.290193 -0.449787 0.093993
v 0.274605 -0.336035 0.172101
v 0.280359 -0.380531 0.129924
v 0.265488 -0.404651 0.085124
v 0.218381 -0.616621 0.045397
v 0.244694 -0.606909 0.025499
v 0.251756 -0.609838 0.066304
v 0.264718 -0.602758 -0.010541
v 0.276318 -0.586475 0.052916
v 0.291912 -0.532661 0.054234
v 0.293904 -0.583760 0.023833
v 0.310487 -0.530279 0.018952
v 0.310382 -0.557339 -0.013609
v 0.218966 -0.452357 0.030827
v 0.216418 -0.452172 -0.010436
v 0.231543 -0.437005 0.040347
v 0.226448 -0.459119 0.035447
v 0.232727 -0.431496 0.012159
v 0.217065 -0.461657 -0.007709
v 0.228785 -0.460065 -0.008084
v 0.260934 -0.462016 0.034702
v 0.245475 -0.455016 0.010208
v 0.271945 -0.468529 0.026738
v 0.270891 -0.451829 0.017029
v 0.267922 -0.459587 0.045063
v 0.289380 -0.499936 0.063641
v 0.288378 -0.504206 0.040834
v 0.294982 -0.472164 -0.010475
v 0.296699 -0.425310 -0.000051
v 0.228174 -0.418019 0.046452
v 0.230062 -0.402715 0.026258
v 0.247860 -0.398684 0.014062
v 0.264769 -0.429108 0.060341
v 0.276326 -0.418206 0.017651
v 0.277173 -0.392087 0.014752
v 0.293210 -0.392663 0.002781
v 0.023819 -0.316178 0.407516
v 0.058768 -0.290943 0.438387
v 0.071960 -0.315628 0.394639
v 0.104773 -0.285026 0.425353
v 0.068806 -0.228044 0.436490
v 0.110476 -0.306638 0.413397
v 0.105293 -0.319406 0.370834
v 0.159638 -0.312240 0.357163
v 0.154490 -0.262810 0.403642
v 0.150160 -0.306490 0.389170
v 0.189355 -0.296023 0.353662
v 0.182099 -0.265544 0.369827
v 0.110424 -0.229705 0.423701
v 0.153076 -0.215163 0.393154
v 0.188877 -0.230757 0.360963
v 0.148411 -0.328949 0.324227
v 0.175638 -0.323955 0.331451
v 0.250530 -0.328965 0.254619
v 0.262014 -0.304766 0.182688
v 0.018765 -0.569071 -0.067986
v 0.037775 -0.515306 -0.070933
v 0.059167 -0.555704 -0.081331
v 0.087524 -0.564941 -0.062403
v 0.069673 -0.515966 -0.063427
v 0.080204 -0.542385 -0.076560
v 0.106300 -0.514036 -0.044169
v 0.060990 -0.489584 -0.104787
v 0.106607 -0.491308 -0.083221
v -0.004822 -0.480922 -0.120947
v 0.033737 -0.460655 -0.133504
v 0.084408 -0.461563 -0.122766
v 0.136337 -0.515061 -0.018702
v 0.127352 -0.540905 -0.053099
v 0.142263 -0.556913 -0.030973
v 0.164150 -0.542933 -0.014983
v 0.195117 -0.538453 -0.055117
v 0.196713 -0.514664 -0.050731
v 0.164221 -0.468454 -0.066448
v 0.183882 -0.414219 -0.089177
v 0.189093 -0.487101 -0.015992
v 0.207032 -0.468512 -0.014424
v 0.222492 -0.473228 -0.036217
v 0.213322 -0.445950 -0.027539
v 0.127110 -0.452786 -0.110566
v 0.253667 -0.600303 -0.065636
v 0.273520 -0.601697 -0.045423
v 0.274497 -0.597203 -0.068988
v 0.214665 -0.599679 -0.012768
v 0.208445 -0.537944 -0.098906
v 0.223472 -0.587860 -0.045787
v 0.236485 -0.586192 -0.080558
v 0.258036 -0.586964 -0.098697
v 0.284856 -0.592124 -0.016575
v 0.300011 -0.580119 -0.039808
v 0.332381 -0.560596 -0.086390
v 0.210978 -0.504954 -0.094003
v 0.236740 -0.443268 0.002056
v 0.227621 -0.453713 -0.031887
v 0.235891 -0.458472 -0.071592
v 0.246652 -0.455494 -0.085658
v 0.307281 -0.457449 -0.052051
v 0.310844 -0.431709 -0.047622
v 0.295123 -0.427424 -0.095433
v 0.288198 -0.458740 -0.092374
v 0.217580 -0.427193 -0.052351
v 0.209101 -0.416366 -0.062471
v 0.224309 -0.414378 -0.061559
v 0.249294 -0.417049 -0.097493
v 0.274552 -0.387057 -0.093167
v 0.279538 -0.337279 -0.090441
v 0.304673 -0.394520 -0.024716
v 0.298689 -0.402042 -0.079857
v 0.229363 -0.533707 -0.118206
v 0.253940 -0.552814 -0.120919
v 0.274528 -0.518846 -0.130518
v 0.287470 -0.549630 -0.123824
v 0.312133 -0.551870 -0.113614
v 0.238588 -0.496736 -0.114656
v 0.268412 -0.459492 -0.098521
v 0.271687 -0.424350 -0.103788
v 0.309009 -0.494436 -0.112542
v 0.317935 -0.522007 -0.010571
v 0.335066 -0.540619 -0.040359
v 0.332211 -0.563750 -0.063043
v 0.342531 -0.510163 -0.067870
v 0.306415 -0.461897 -0.069185
v 0.338294 -0.496038 -0.052554
v 0.306771 -0.377250 -0.062739
v 0.330601 -0.500292 -0.100104
vn -0.8949 -0.2669 0.3577
vn -0.8654 0.2764 0.4179
vn -0.6450 -0.7305 0.2243
vn 0.2243 -0.4199 0.8794
vn -0.3619 0.0611 0.9302
vn -0.7866 -0.1642 0.5952
vn -0.3395 -0.4301 0.8365
vn -0.5777 -0.3250 0.7488
vn -0.9721 -0.0103 0.2344
vn -0.5059 -0.4675 0.7249
vn -0.1575 -0.4413 0.8834
vn 0.5103 -0.3696 0.7765
vn 0.5461 -0.2949 0.7841
vn 0.9355 0.0599 0.3482
vn -0.9617 0.1432 0.2338
vn -0.8009 0.4378 0.4085
vn -0.4748 0.4244 0.7710
vn 0.4506 0.5000 0.7396
vn 0.2839 -0.0916 0.9545
vn 0.6335 0.6171 0.4667
vn 0.8662 -0.0072 0.4996
vn 0.9635 0.0141 0.2674
vn 0.9617 0.1450 0.2326
vn -0.5558 -0.7866 0.2689
vn -0.4193 -0.9050 0.0720
vn -0.6786 -0.6742 0.2914
vn -0.2783 -0.9591 -0.0510
vn -0.8748 -0.4657 0.1339
vn -0.9904 -0.1130 0.0801
vn -0.6569 -0.3934 0.6432
vn -0.9262 -0.2600 0.2730
vn -0.6722 -0.6380 0.3757
vn -0.6981 -0.7137 0.0570
vn -0.5425 -0.4738 0.6937
vn 0.3548 0.3544 0.8652
vn -0.9994 -0.0027 0.0351
vn -0.9550 0.1957 -0.2228
vn -0.9963 0.0104 -0.0849
vn -0.9328 0.2247 -0.2817
vn -0.8997 -0.2226 0.3755
vn 0.7667 -0.0298 0.6413
vn 0.9233 0.2609 0.2819
vn 0.9087 0.1620 0.3848
vn -0.9967 0.0085 -0.0811
vn -0.9906 0.1359 -0.0137
vn -0.9435 0.0724 -0.3235
vn -0.8589 0.0538 -0.5093
vn 0.9771 0.1582 0.1420
vn 0.9621 0.0343 0.2707
vn -0.3620 -0.9321 -0.0147
vn -0.2861 -0.9549 -0.0793
vn 0.1120 -0.9520 -0.2848
vn 0.3579 -0.8360 -0.4161
vn -0.9356 -0.1929 0.2955
vn -0.7207 -0.6569 0.2214
vn -0.9327 -0.3246 0.1574
vn -0.6765 -0.7220 0.1451
vn 0.5231 -0.7423 -0.4187
vn -0.8580 0.2302 0.4592
vn -0.5932 -0.0581 0.8029
vn -0.9588 0.2656 0.1004
vn -0.8823 0.3845 -0.2715
vn -0.0914 0.8337 0.5445
vn -0.5928 0.4645 -0.6579
vn -0.3709 0.9106 -0.1825
vn -0.4726 0.0747 0.8781
vn -0.5308 0.2428 -0.8120
vn 0.3149 -0.1151 0.9421
vn -0.3322 0.4044 -0.8521
vn 0.3664 0.8938 -0.2586
vn 0.3838 -0.7763 0.5001
vn -0.3294 0.6703 -0.6650
vn -0.9512 -0.0752 -0.2993
vn -0.6801 0.4973 -0.5386
vn -0.8424 -0.1777 -0.5087
vn -0.6782 0.1384 0.7217
vn -0.8093 0.2838 -0.5143
vn -0.0835 0.0150 0.9964
vn -0.1480 -0.0086 0.9889
vn -0.1576 -0.1657 0.9735
vn -0.4045 -0.6336 0.6595
vn -0.4527 -0.2158 0.8651
vn -0.8536 -0.3818 0.3545
vn -0.7249 -0.4954 0.4786
vn -0.7495 -0.5845 0.3109
vn -0.8048 -0.3837 0.4528
vn -0.5584 -0.7658 0.3191
vn -0.5838 -0.4166 0.6968
vn -0.4462 -0.8024 0.3962
vn -0.2735 -0.9618 -0.0108
vn -0.0410 -0.9520 -0.3032
vn -0.8091 -0.0960 0.5797
vn -0.2429 0.7955 0.5551
vn -0.8062 0.2678 0.5276
vn -0.7605 0.4826 0.4345
vn -0.5009 0.8317 0.2395
vn -0.6882 -0.0945 0.7193
vn -0.4321 0.2161 0.8756
vn -0.7495 -0.3001 0.5900
vn -0.3771 0.5955 0.7093
vn -0.1701 0.6236 0.7630
vn -0.6855 0.7206 0.1039
vn -0.8422 -0.3210 0.4332
vn -0.0362 -0.9838 -0.1758
vn -0.3277 -0.9446 -0.0152
vn 0.3051 -0.8741 -0.3778
vn 0.1403 -0.9353 -0.3250
vn 0.3648 -0.8253 -0.4311
vn 0.2785 -0.8311 -0.4813
vn 0.4234 0.8518 0.3084
vn 0.6084 -0.5750 0.5470
vn 0.2263 0.8926 0.3898
vn 0.1902 -0.8236 0.5343
vn 0.2107 -0.5528 0.8063
vn 0.0023 0.9873 0.1590
vn -0.6170 -0.3323 0.7133
vn -0.0958 0.9179 0.3852
vn 0.3229 -0.8532 -0.4095
vn 0.4739 -0.7222 -0.5039
vn 0.4509 -0.5810 -0.6775
vn 0.5428 0.4667 -0.6982
vn -0.2402 -0.6804 -0.6923
vn 0.3800 -0.7884 -0.4838
vn -0.5488 0.5596 -0.6210
vn -0.0570 -0.9442 -0.3244
vn -0.4009 -0.7940 -0.4570
vn -0.1164 -0.9658 -0.2317
vn 0.1076 0.1233 0.9865
vn 0.8493 0.1542 -0.5048
vn 0.1534 0.0087 -0.9881
vn -0.1585 -0.8207 -0.5489
vn -0.6550 -0.2527 -0.7121
vn -0.2470 -0.1444 0.9582
vn -0.2245 -0.5624 0.7958
vn -0.3432 -0.8750 0.3416
vn 0.0068 -0.1353 0.9908
vn -0.1264 -0.8165 0.5634
vn -0.2636 0.6521 0.7108
vn -0.4225 0.3210 0.8476
vn -0.1608 0.2841 0.9452
vn -0.2282 -0.5584 0.7976
vn -0.4304 -0.7055 0.5630
vn -0.0156 -0.4351 0.9003
vn -0.3833 -0.9128 0.1409
vn -0.1939 -0.9358 -0.2943
vn -0.2611 -0.9493 -0.1754
vn -0.0304 -0.7949 -0.6060
vn 0.3343 -0.6778 -0.6549
vn 0.0609 -0.4681 -0.8816
vn 0.3359 -0.6405 -0.6906
vn -0.0412 -0.7419 -0.6692
vn -0.0621 -0.5462 -0.8354
vn 0.1601 -0.9812 0.1080
vn 0.1376 -0.9298 -0.3414
vn 0.0018 -0.7742 -0.6330
vn 0.1449 -0.9508 -0.2740
vn 0.4471 -0.7019 -0.5545
vn 0.2978 -0.8846 -0.3589
vn -0.0366 -0.9992 -0.0171
vn 0.0038 -0.9964 -0.0842
vn -0.8541 -0.4295 0.2934
vn -0.6846 -0.0051 0.7289
vn -0.6903 -0.5617 0.4560
vn -0.6225 -0.2090 0.7542
vn -0.3449 -0.5417 0.7666
vn -0.4323 0.0511 0.9003
vn -0.5290 0.1508 0.8351
vn -0.2816 0.3223 0.9038
vn -0.7516 -0.6431 -0.1468
vn -0.4839 -0.3771 0.7897
vn -0.2480 0.0216 0.9685
vn -0.1981 -0.9190 0.3408
vn -0.0884 -0.9803 0.1764
vn -0.1188 -0.6455 0.7545
vn -0.0026 -0.9174 0.3980
vn -0.0546 -0.0348 0.9979
vn 0.0534 -0.0286 0.9982
vn 0.0105 -0.9795 0.2013
vn 0.0831 -0.6726 0.7353
vn 0.0356 -0.9309 0.3635
vn -0.1603 0.3184 0.9343
vn 0.0284 0.2561 0.9662
vn -0.9756 0.0632 0.2105
vn -0.8094 0.4035 -0.4267
vn -0.8311 -0.5295 0.1698
vn -0.5931 -0.7144 -0.3712
vn -0.8573 -0.2452 -0.4527
vn -0.8352 0.5456 0.0692
vn -0.9940 0.1047 0.0310
vn -0.9920 -0.0930 -0.0854
vn -0.6443 0.6247 -0.4411
vn -0.8963 0.2187 -0.3858
vn -0.4945 0.2679 -0.8268
vn -0.3272 -0.9385 -0.1099
vn 0.2825 -0.9155 -0.2865
vn 0.0369 -0.9984 -0.0439
vn 0.4140 -0.8798 -0.2336
vn -0.5034 -0.8504 0.1529
vn -0.2111 -0.8259 -0.5227
vn 0.3158 -0.7092 -0.6303
vn 0.8241 -0.3383 -0.4543
vn 0.7885 -0.4683 -0.3986
vn -0.6065 -0.0133 -0.7950
vn 0.8907 0.4011 0.2141
vn 0.2874 -0.0793 -0.9545
vn 0.7969 -0.6040 -0.0033
vn 0.7788 0.5907 -0.2110
vn 0.9309 0.0088 -0.3652
vn -0.8607 -0.3980 -0.3176
vn 0.7346 0.6062 -0.3047
vn 0.4900 -0.8243 -0.2836
vn 0.4795 -0.1027 -0.8715
vn 0.8257 0.4009 -0.3969
vn -0.9605 -0.0072 0.2782
vn -0.4417 0.3069 -0.8430
vn 0.7834 -0.4045 -0.4718
vn -0.3500 -0.3850 -0.8540
vn -0.0373 -0.1095 -0.9933
vn 0.3258 -0.3371 -0.8833
vn 0.3554 0.3380 -0.8715
vn 0.6533 0.0426 -0.7559
vn -0.0673 0.4274 -0.9016
vn -0.4452 0.2431 -0.8618
vn 0.5335 0.2537 -0.8068
vn 0.9150 0.1826 -0.3598
vn 0.6302 0.1746 -0.7565
vn -0.4441 0.3725 -0.8149
vn -0.6823 0.0115 -0.7310
vn -0.5477 -0.0048 -0.8367
vn -0.5813 -0.6653 -0.4685
vn 0.5348 0.0664 -0.8424
vn -0.5041 -0.7385 -0.4479
vn -0.6982 0.2895 -0.6547
vn -0.6249 -0.0925 -0.7752
vn -0.3201 -0.7981 -0.5104
vn -0.3962 -0.6593 -0.6390
vn -0.3247 -0.5781 -0.7485
vn -0.4326 0.2509 -0.8660
vn -0.1724 -0.8501 -0.4977
vn -0.3357 0.1368 -0.9320
vn -0.2459 0.2930 -0.9240
vn -0.1799 0.0373 -0.9830
vn -0.0122 -0.2115 -0.9773
vn -0.0501 -0.6088 -0.7917
vn 0.0938 0.0836 -0.9921
vn -0.2332 -0.7742 -0.5885
vn -0.1646 -0.7785 -0.6056
vn -0.2052 -0.7056 -0.6782
vn -0.0793 -0.4142 0.9067
vn 0.0330 -0.5598 0.8280
vn 0.2775 -0.8039 0.5261
vn 0.2839 -0.6134 0.7370
vn 0.2597 -0.3259 0.9090
vn 0.4381 -0.3664 0.8209
vn 0.4014 -0.8035 0.4397
vn 0.2657 0.1943 0.9443
vn 0.2676 0.6649 0.6974
vn 0.4360 0.1657 0.8846
vn 0.2021 -0.5072 0.8378
vn 0.2104 -0.9381 0.2752
vn 0.2429 -0.2917 0.9251
vn 0.3750 -0.6706 0.6401
vn 0.4182 -0.8687 0.2656
vn -0.1811 -0.5091 -0.8414
vn 0.0039 -0.8464 -0.5326
vn -0.4273 -0.6161 -0.6618
vn 0.2730 -0.9609 -0.0469
vn -0.4213 -0.7077 -0.5671
vn -0.0293 -0.9557 -0.2927
vn 0.1493 0.5388 0.8291
vn -0.2377 -0.8988 -0.3683
vn 0.0440 -0.9985 -0.0310
vn -0.5192 -0.7013 -0.4885
vn -0.2868 -0.9203 -0.2660
vn 0.1211 -0.9785 -0.1668
vn 0.4724 -0.6382 0.6079
vn 0.5266 -0.3474 0.7759
vn 0.5006 -0.7030 0.5052
vn 0.6051 -0.4292 0.6706
vn 0.4351 -0.8205 0.3708
vn 0.2658 -0.9632 0.0406
vn 0.5468 -0.7487 0.3747
vn 0.6964 -0.4188 0.5828
vn 0.6754 -0.6456 0.3565
vn 0.5216 0.1281 0.8435
vn 0.5195 0.0917 0.8495
vn 0.5977 0.4508 0.6629
vn 0.6201 0.6407 0.4528
vn 0.7833 0.0209 0.6213
vn 0.1408 0.5218 0.8413
vn 0.3225 0.8654 0.3836
vn 0.5225 0.5841 0.6211
vn -0.0833 -0.9553 -0.2836
vn -0.4478 -0.7733 -0.4490
vn -0.0954 -0.9575 -0.2722
vn -0.3542 -0.8737 -0.3335
vn 0.3702 -0.9281 0.0389
vn 0.3642 -0.9303 0.0431
vn 0.1407 -0.9897 -0.0255
vn -0.2963 -0.8969 -0.3281
vn -0.3084 0.8368 0.4523
vn 0.6333 0.0044 0.7739
vn -0.1291 0.7602 0.6367
vn -0.0728 0.9222 0.3797
vn -0.1201 -0.5570 0.8218
vn -0.8285 0.4913 0.2689
vn -0.9356 -0.0551 0.3487
vn -0.6270 0.4229 0.6542
vn -0.7153 -0.1969 0.6705
vn -0.3629 -0.8681 -0.3387
vn -0.3302 -0.8789 -0.3442
vn 0.2174 -0.9158 -0.3376
vn 0.5751 0.1024 -0.8117
vn -0.3361 -0.8486 -0.4085
vn -0.1020 -0.7434 -0.6611
vn -0.1527 0.6249 -0.7657
vn -0.5751 0.3234 -0.7515
vn -0.6303 -0.6038 -0.4880
vn 0.1344 -0.2791 -0.9508
vn 0.0352 -0.0567 0.9978
vn 0.3112 -0.6649 -0.6790
vn 0.7739 -0.1881 0.6047
vn 0.5209 0.0764 0.8502
vn 0.5148 -0.4016 0.7574
vn -0.3670 -0.3455 0.8637
vn -0.9088 -0.0372 0.4155
vn -0.6207 -0.2354 0.7479
vn -0.6385 -0.2293 0.7347
vn 0.0779 -0.4690 0.8798
vn 0.1418 -0.3919 0.9090
vn 0.4853 -0.3442 0.8037
vn 0.7888 -0.1999 0.5812
vn 0.9887 0.0980 0.1137
vn -0.9484 -0.0839 0.3057
vn -0.4751 -0.2728 0.8366
vn -0.7914 -0.1821 0.5835
vn -0.9049 0.0074 0.4256
vn 0.3307 -0.2824 0.9005
vn -0.0378 -0.2364 0.9709
vn 0.6863 -0.2046 0.6980
vn 0.9167 0.0652 0.3942
vn 0.9828 0.0679 0.1717
vn 0.9720 -0.0470 0.2304
vn 0.6686 -0.5279 0.5237
vn 0.5038 -0.8196 0.2728
vn 0.4117 -0.8853 0.2160
vn -0.4787 -0.2031 0.8542
vn 0.1894 -0.3954 0.8988
vn 0.4466 -0.5680 0.6914
vn 0.6488 -0.4650 0.6024
vn 0.9173 -0.2049 0.3415
vn 0.7235 -0.6348 0.2712
vn 0.9351 -0.3121 0.1679
vn -0.7637 0.1392 0.6304
vn -0.9526 0.0306 0.3028
vn 0.9164 -0.1463 0.3725
vn 0.9817 0.1853 0.0441
vn 0.9992 -0.0353 0.0192
vn 0.9378 0.2760 -0.2108
vn 0.9714 0.1718 0.1640
vn 0.9958 -0.0360 -0.0848
vn 0.8512 0.3903 -0.3508
vn 0.0138 -0.9776 -0.2098
vn 0.2312 -0.9661 -0.1146
vn 0.4868 -0.8712 0.0631
vn 0.2053 -0.9787 -0.0034
vn 0.7666 -0.6256 0.1450
vn 0.9801 -0.0525 0.1913
vn 0.7536 -0.6111 0.2422
vn 0.9343 0.0774 0.3480
vn 0.8519 -0.4403 0.2835
vn 0.9191 0.1118 -0.3780
vn 0.6377 -0.7439 -0.1997
vn 0.5301 0.1104 -0.8407
vn 0.3942 0.7182 -0.5734
vn 0.3823 -0.4405 0.8123
vn 0.4608 0.7114 -0.5307
vn -0.6365 0.7702 0.0406
vn 0.4230 0.8965 -0.1314
vn -0.4117 0.5850 0.6988
vn 0.6561 0.5788 0.4843
vn 0.3015 0.1419 0.9428
vn 0.6698 0.4531 -0.5883
vn 0.9692 0.1874 -0.1599
vn 0.9140 0.3816 0.1377
vn 0.8569 0.2193 0.4666
vn 0.8316 -0.0679 0.5513
vn 0.4330 0.4523 -0.7797
vn 0.9755 -0.2129 0.0558
vn -0.0970 0.0414 0.9944
vn 0.6346 0.4620 -0.6195
vn 0.2992 -0.0005 0.9542
vn 0.3283 0.0937 0.9399
vn 0.7829 0.0515 0.6200
vn 0.1286 -0.9540 0.2708
vn 0.1933 -0.3003 0.9340
vn 0.0861 -0.9558 0.2812
vn 0.3680 -0.2044 0.9071
vn 0.1847 0.0510 0.9815
vn 0.3405 -0.6419 0.6870
vn 0.1721 -0.9528 0.2500
vn 0.3468 -0.8551 0.3855
vn 0.6178 -0.0695 0.7833
vn 0.4772 -0.6830 0.5530
vn 0.5951 -0.5314 0.6029
vn 0.7451 -0.1254 0.6551
vn 0.3916 0.0462 0.9190
vn 0.6221 0.1859 0.7605
vn 0.7374 0.0986 0.6682
vn 0.0481 -0.8973 0.4388
vn 0.2195 -0.8290 0.5143
vn 0.6802 0.1279 0.7217
vn 0.9233 0.3022 0.2371
vn 0.0186 -0.8985 -0.4386
vn 0.1803 -0.2084 -0.9613
vn 0.2054 -0.4724 -0.8571
vn 0.2974 -0.7459 -0.5960
vn 0.3383 -0.2060 -0.9182
vn 0.3820 0.1025 -0.9185
vn 0.5838 -0.1685 -0.7942
vn 0.1605 -0.7355 -0.6582
vn 0.3526 -0.7459 -0.5650
vn -0.0011 -0.7613 -0.6484
vn 0.1167 -0.6422 -0.7576
vn 0.2586 -0.6543 -0.7106
vn 0.4921 0.6802 -0.5433
vn 0.5781 0.0667 -0.8132
vn 0.5382 -0.5966 -0.5953
vn -0.0608 -0.0364 -0.9975
vn -0.8619 -0.1808 -0.4738
vn -0.8491 0.3431 -0.4016
vn 0.5512 -0.6485 -0.5250
vn 0.6016 -0.4843 -0.6353
vn -0.5065 0.1428 -0.8504
vn -0.1939 0.5092 -0.8385
vn -0.7915 0.5471 -0.2724
vn 0.1249 -0.8450 -0.5200
vn 0.4438 -0.6153 -0.6516
vn -0.1976 -0.9574 -0.2107
vn 0.3399 -0.9386 -0.0587
vn 0.3293 -0.9063 -0.2649
vn -0.3444 -0.9022 -0.2597
vn -0.8141 -0.2270 -0.5345
vn -0.5226 -0.7831 -0.3370
vn -0.5837 -0.7001 -0.4113
vn -0.1072 -0.7708 -0.6280
vn 0.6325 -0.7720 0.0625
vn 0.6369 -0.7570 0.1461
vn 0.7788 -0.5164 -0.3561
vn -0.8108 0.3524 -0.4674
vn -0.6388 -0.5134 0.5730
vn -0.9329 -0.2794 -0.2272
vn -0.6912 0.6775 -0.2515
vn -0.7112 0.2274 -0.6652
vn 0.9529 -0.2827 0.1097
vn 0.9998 0.0066 0.0175
vn 0.6798 0.0409 -0.7323
vn 0.5218 0.2471 -0.8165
vn -0.0507 -0.6221 -0.7813
vn 0.6412 -0.5086 -0.5747
vn -0.7728 -0.3319 -0.5409
vn -0.5065 -0.0088 -0.8622
vn 0.3991 0.1524 -0.9042
vn 0.6636 0.0746 -0.7444
vn 0.9874 0.0299 0.1557
vn 0.8553 0.1316 -0.5012
vn -0.5087 -0.1312 -0.8509
vn -0.2444 -0.4093 -0.8790
vn 0.0559 0.1285 -0.9901
vn 0.1966 -0.3639 -0.9104
vn 0.5155 -0.3812 -0.7674
vn -0.4137 0.4024 -0.8167
vn -0.0831 0.2458 -0.9658
vn 0.0438 0.0482 -0.9979
vn 0.4193 0.3543 -0.8358
vn 0.8850 0.1168 0.4507
vn 0.9084 -0.2143 0.3591
vn 0.8006 -0.5921 0.0918
vn 0.9906 0.1116 -0.0787
vn 0.9089 0.3556 -0.2180
vn 0.8831 0.4188 0.2114
vn 0.9357 -0.0656 -0.3467
vn 0.7674 0.3066 -0.5631
vt 0.343357 0.205670
vt 0.357176 0.203926
vt 0.359745 0.218882
vt 0.340371 0.193503
vt 0.356784 0.190867
vt 0.367549 0.213279
vt 0.368039 0.198368
vt 0.356025 0.169660
vt 0.366441 0.183500
vt 0.361411 0.170518
vt 0.361804 0.184800
vt 0.347050 0.224054
vt 0.365055 0.230285
vt 0.347744 0.230942
vt 0.374087 0.217196
vt 0.372844 0.220134
vt 0.374297 0.206283
vt 0.364395 0.201208
vt 0.364019 0.214192
vt 0.331966 0.112948
vt 0.329779 0.131650
vt 0.312446 0.121741
vt 0.306731 0.165187
vt 0.312585 0.153263
vt 0.338214 0.166072
vt 0.333041 0.178056
vt 0.345910 0.176122
vt 0.324153 0.151541
vt 0.347693 0.146479
vt 0.350381 0.129691
vt 0.362001 0.145946
vt 0.365765 0.128738
vt 0.375686 0.141052
vt 0.323285 0.191618
vt 0.313635 0.194215
vt 0.301252 0.174189
vt 0.358678 0.152800
vt 0.357278 0.159785
vt 0.337165 0.154717
vt 0.348033 0.150513
vt 0.316618 0.140416
vt 0.327298 0.212491
vt 0.306246 0.201368
vt 0.314271 0.216037
vt 0.337693 0.175870
vt 0.287230 0.118652
vt 0.298354 0.137263
vt 0.274056 0.133808
vt 0.281663 0.149439
vt 0.256499 0.144354
vt 0.266364 0.126468
vt 0.274516 0.162126
vt 0.283403 0.165938
vt 0.299727 0.182222
vt 0.259220 0.159385
vt 0.244014 0.169373
vt 0.284139 0.167732
vt 0.272249 0.158459
vt 0.253316 0.167332
vt 0.250822 0.167432
vt 0.281103 0.139494
vt 0.244032 0.142052
vt 0.285273 0.147745
vt 0.288851 0.161040
vt 0.250235 0.133622
vt 0.246764 0.131019
vt 0.302390 0.186522
vt 0.252677 0.182909
vt 0.252006 0.185606
vt 0.243159 0.154263
vt 0.255680 0.163359
vt 0.442064 0.210879
vt 0.443040 0.239412
vt 0.427196 0.218278
vt 0.397680 0.127735
vt 0.396730 0.146511
vt 0.429400 0.144957
vt 0.425601 0.130752
vt 0.404533 0.114707
vt 0.448416 0.141371
vt 0.453816 0.154982
vt 0.388325 0.153163
vt 0.358595 0.151154
vt 0.414209 0.157696
vt 0.405529 0.165692
vt 0.421742 0.161279
vt 0.410460 0.165387
vt 0.443976 0.162225
vt 0.426721 0.157200
vt 0.411807 0.160789
vt 0.395630 0.145671
vt 0.358715 0.114248
vt 0.358722 0.097289
vt 0.335235 0.092510
vt 0.312086 0.107331
vt 0.360687 0.082442
vt 0.395029 0.092252
vt 0.411633 0.087015
vt 0.347905 0.138474
vt 0.319926 0.130173
vt 0.332732 0.147401
vt 0.368626 0.131317
vt 0.364436 0.147853
vt 0.259758 0.103313
vt 0.261834 0.113924
vt 0.238172 0.110461
vt 0.249105 0.097093
vt 0.281040 0.097366
vt 0.287794 0.086926
vt 0.312477 0.093900
vt 0.248863 0.089577
vt 0.282790 0.079678
vt 0.403561 0.078210
vt 0.314799 0.132634
vt 0.311250 0.128375
vt 0.342109 0.123816
vt 0.245855 0.117154
vt 0.277320 0.103228
vt 0.242483 0.117068
vt 0.265076 0.101569
vt 0.272096 0.094460
vt 0.254360 0.086184
vt 0.266429 0.105608
vt 0.471878 0.158459
vt 0.473570 0.140861
vt 0.496479 0.158335
vt 0.499783 0.136180
vt 0.478052 0.163457
vt 0.450287 0.159144
vt 0.477081 0.235318
vt 0.454708 0.231905
vt 0.451878 0.121854
vt 0.454810 0.110656
vt 0.413038 0.104970
vt 0.475393 0.121683
vt 0.477414 0.111201
vt 0.497650 0.100780
vt 0.462635 0.104116
vt 0.451856 0.096975
vt 0.479617 0.100097
vt 0.512202 0.116049
vt 0.487250 0.125526
vt 0.503430 0.100857
vt 0.472979 0.097593
vt 0.508363 0.105388
vt 0.455645 0.087803
vt 0.480730 0.046979
vt 0.498501 0.096209
vt 0.150756 0.029294
vt 0.646513 0.024601
vt 0.427653 0.304895
vt 0.435632 0.294826
vt 0.440404 0.309486
vt 0.484733 0.290943
vt 0.481898 0.303972
vt 0.457598 0.294021
vt 0.473381 0.331675
vt 0.490823 0.332026
vt 0.505508 0.303957
vt 0.499690 0.324604
vt 0.498590 0.285938
vt 0.223058 0.182817
vt 0.241092 0.161400
vt 0.241850 0.168824
vt 0.206077 0.163249
vt 0.222591 0.169836
vt 0.205804 0.179154
vt 0.220831 0.184752
vt 0.217721 0.186607
vt 0.205227 0.184394
vt 0.204290 0.187417
vt 0.192621 0.181634
vt 0.189491 0.167797
vt 0.217948 0.140954
vt 0.235594 0.128405
vt 0.236041 0.140357
vt 0.257803 0.158019
vt 0.198695 0.145587
vt 0.207601 0.133157
vt 0.187051 0.130067
vt 0.230353 0.124100
vt 0.211696 0.124406
vt 0.211444 0.119906
vt 0.251496 0.182858
vt 0.219830 0.201310
vt 0.201362 0.182420
vt 0.201229 0.198508
vt 0.240565 0.153883
vt 0.199522 0.171767
vt 0.207957 0.163540
vt 0.201862 0.157447
vt 0.193842 0.184374
vt 0.229997 0.155568
vt 0.215088 0.162635
vt 0.220748 0.130130
vt 0.267386 0.140454
vt 0.237693 0.136154
vt 0.235083 0.203907
vt 0.213371 0.211810
vt 0.193795 0.139114
vt 0.183260 0.165356
vt 0.180180 0.148842
vt 0.180541 0.159895
vt 0.179621 0.143906
vt 0.185842 0.173232
vt 0.189397 0.139820
vt 0.202429 0.204110
vt 0.242358 0.100464
vt 0.206410 0.067624
vt 0.204507 0.078600
vt 0.231462 0.077198
vt 0.243513 0.089964
vt 0.239480 0.111599
vt 0.183290 0.097395
vt 0.179425 0.129350
vt 0.200587 0.067870
vt 0.183115 0.065168
vt 0.169150 0.069537
vt 0.127275 0.057491
vt 0.134934 0.054621
vt 0.108347 0.043230
vt 0.112574 0.059745
vt 0.077440 0.047413
vt 0.038154 0.053627
vt 0.994171 0.047234
vt 0.966818 0.053887
vt 1.038154 0.053627
vt 0.081997 0.052912
vt 0.994567 0.048358
vt 1.127275 0.057491
vt 0.120889 0.090562
vt 0.062415 0.075536
vt 0.006343 0.078485
vt 0.078521 0.090975
vt 0.527687 0.135199
vt 0.519289 0.124459
vt 0.527633 0.150848
vt 0.547399 0.148439
vt 0.548951 0.128667
vt 0.524260 0.163170
vt 0.553003 0.160107
vt 0.531449 0.159020
vt 0.519294 0.257425
vt 0.500858 0.236084
vt 0.517256 0.240807
vt 0.536911 0.233565
vt 0.553343 0.229105
vt 0.534225 0.200062
vt 0.530374 0.100502
vt 0.548610 0.115629
vt 0.542336 0.103754
vt 0.547991 0.094163
vt 0.580106 0.104362
vt 0.581001 0.091972
vt 0.603310 0.084467
vt 0.543845 0.087792
vt 0.648795 0.070654
vt 0.578809 0.158181
vt 0.572095 0.143398
vt 0.546497 0.254906
vt 0.564392 0.206769
vt 0.575095 0.232005
vt 0.571340 0.127959
vt 0.600309 0.113655
vt 0.603604 0.128424
vt 0.610225 0.136525
vt 0.573550 0.154880
vt 0.586619 0.161177
vt 0.591476 0.162975
vt 0.605869 0.151591
vt 0.628384 0.145248
vt 0.632225 0.131691
vt 0.639130 0.151839
vt 0.637741 0.152131
vt 0.588872 0.161462
vt 0.608089 0.150959
vt 0.639545 0.087727
vt 0.624867 0.097936
vt 0.629747 0.115716
vt 0.648564 0.115076
vt 0.663121 0.097345
vt 0.683843 0.111812
vt 0.668373 0.079010
vt 0.590359 0.081743
vt 0.643421 0.135515
vt 0.600004 0.145282
vt 0.639796 0.146511
vt 0.658023 0.125647
vt 0.663189 0.130036
vt 0.679844 0.133606
vt 0.655480 0.142437
vt 0.644404 0.153123
vt 0.690625 0.092954
vt 0.749848 0.080126
vt 0.723932 0.087287
vt 0.738667 0.105511
vt 0.714651 0.096916
vt 0.757579 0.090577
vt 0.665520 0.141195
vt 0.680410 0.131396
vt 0.638292 0.162629
vt 0.632405 0.193641
vt 0.635743 0.185138
vt 0.633028 0.213140
vt 0.638054 0.201710
vt 0.627575 0.209780
vt 0.626645 0.219989
vt 0.628028 0.231621
vt 0.636715 0.223261
vt 0.646004 0.206657
vt 0.651393 0.233521
vt 0.653177 0.218855
vt 0.651239 0.139637
vt 0.669437 0.130546
vt 0.642691 0.161846
vt 0.651864 0.164477
vt 0.659812 0.147547
vt 0.666314 0.162530
vt 0.652279 0.177213
vt 0.685222 0.153899
vt 0.690517 0.161067
vt 0.698931 0.173801
vt 0.675385 0.173471
vt 0.651853 0.174202
vt 0.662618 0.147801
vt 0.635497 0.182100
vt 0.665606 0.193359
vt 0.646178 0.193186
vt 0.681832 0.197135
vt 0.665714 0.208923
vt 0.658311 0.159121
vt 0.680934 0.217097
vt 0.660899 0.244235
vt 0.700618 0.192036
vt 0.717380 0.110481
vt 0.733474 0.122588
vt 0.709015 0.128432
vt 0.759455 0.109599
vt 0.737122 0.148885
vt 0.719886 0.142376
vt 0.756334 0.131815
vt 0.720764 0.161864
vt 0.740297 0.168868
vt 0.727612 0.166738
vt 0.757669 0.142236
vt 0.727740 0.144726
vt 0.755650 0.139979
vt 0.722542 0.157069
vt 0.725287 0.147387
vt 0.741692 0.157627
vt 0.723479 0.169941
vt 0.728957 0.164845
vt 0.743386 0.157594
vt 0.734402 0.168065
vt 0.740008 0.172191
vt 0.700147 0.189690
vt 0.715547 0.170299
vt 0.714338 0.179596
vt 0.755290 0.174212
vt 0.731913 0.166102
vt 0.718036 0.161776
vt 0.750028 0.193888
vt 0.739847 0.186156
vt 0.741537 0.196085
vt 0.748491 0.204171
vt 0.509292 0.290226
vt 0.499934 0.295484
vt 0.521209 0.314799
vt 0.541561 0.302080
vt 0.538438 0.316390
vt 0.524884 0.348349
vt 0.505291 0.356404
vt 0.558177 0.326095
vt 0.566897 0.285587
vt 0.558608 0.298297
vt 0.544031 0.279755
vt 0.572820 0.317843
vt 0.578237 0.297644
vt 0.540576 0.346210
vt 0.559093 0.349885
vt 0.576725 0.335954
vt 0.577554 0.273252
vt 0.623712 0.263093
vt 0.620605 0.241877
vt 0.626334 0.245228
vt 0.635905 0.248377
vt 0.653095 0.257469
vt 0.922118 0.049245
vt 0.899902 0.056994
vt 0.957138 0.039250
vt 0.871302 0.064187
vt 0.867537 0.057492
vt 0.812677 0.070124
vt 0.848578 0.059850
vt 0.960606 0.092459
vt 0.916108 0.077274
vt 1.006343 0.078485
vt 0.733198 0.041897
vt 0.812871 0.079501
vt 0.771697 0.083105
vt 0.757833 0.095546
vt 0.764487 0.093823
vt 0.784118 0.081395
vt 0.772514 0.103701
vt 0.793817 0.114631
vt 0.790170 0.119668
vt 0.741823 0.095313
vt 0.811193 0.115084
vt 0.855491 0.085504
vt 0.738209 0.099955
vt 0.765520 0.115709
vt 0.761070 0.132731
vt 0.763429 0.118251
vt 0.770433 0.143051
vt 0.904137 0.099384
vt 0.863939 0.113382
vt 0.821867 0.145892
vt 0.776192 0.137448
vt 0.790297 0.131002
vt 0.789188 0.140877
vt 0.782164 0.117824
vt 0.816711 0.136555
vt 0.802254 0.128240
vt 0.820511 0.128968
vt 0.759250 0.142938
vt 0.808143 0.140028
vt 0.756974 0.161871
vt 0.770995 0.153058
vt 0.775682 0.141503
vt 0.796897 0.157036
vt 0.748618 0.156148
vt 0.772152 0.149256
vt 0.755621 0.146972
vt 0.787579 0.153601
vt 0.803198 0.165681
vt 0.792629 0.162816
vt 0.755649 0.177840
vt 0.776706 0.190369
vt 0.785343 0.190106
vt 0.774195 0.200393
vt 0.799777 0.199818
vt 0.799366 0.185631
vt 0.809331 0.181634
vt 0.762883 0.209825
vt 0.791579 0.208673
vt 0.799801 0.228107
vt 0.802067 0.204641
vt 0.825736 0.143346
vt 0.820729 0.149811
vt 0.814731 0.164782
vt 0.820632 0.168692
vt 0.821298 0.155849
vt 0.808076 0.191253
vt 0.805988 0.177179
vt 0.805588 0.186829
vt 0.779848 0.171975
vt 0.769079 0.177639
vt 0.781132 0.191058
vt 0.796794 0.192350
vt 0.774529 0.192291
vt 0.782107 0.220517
vt 0.805559 0.172464
vt 0.790471 0.174955
vt 0.329553 0.234778
vt 0.247486 0.194541
vt 0.411221 0.196277
vt 0.338905 0.142206
vt 0.346526 0.121530
vt 0.455082 0.262032
vt 0.500060 0.262783
vt 0.431524 0.325585
vt 0.458981 0.303817
vt 0.460421 0.330917
vt 0.467466 0.282375
vt 0.446494 0.343041
vt 0.422921 0.282540
vt 0.469393 0.358038
vt 0.484743 0.353720
vt 0.226955 0.147680
vt 1.108347 0.043230
vt 1.077440 0.047413
vt 1.150756 0.029294
vt 1.081997 0.052912
vt 1.062415 0.075536
vt 0.741565 0.101828
vt 0.635153 0.201278
vt 0.688292 0.125033
vt 0.740980 0.177280
vt 0.528705 0.287799
vt 0.568321 0.262823
vt 0.796206 0.153671
s 1
f 9/1/9 8/2/8 6/3/6
f 40/4/40 7/5/7 8/2/8
f 6/3/6 8/2/8 11/6/11
f 11/6/11 8/2/8 12/7/12
f 7/5/7 4/8/4 13/9/13
f 14/10/14 12/7/12 13/9/13
f 22/11/22 12/7/12 14/10/14
f 15/12/15 6/3/6 17/13/17
f 15/12/15 17/13/17 16/14/16
f 17/13/17 19/15/19 18/16/18
f 17/13/17 18/16/18 16/14/16
f 21/17/21 18/16/18 19/15/19
f 12/7/12 21/17/21 19/15/19
f 22/11/22 21/17/21 12/7/12
f 23/18/23 18/16/18 21/17/21
f 20/19/20 18/16/18 23/18/23
f 27/20/27 24/21/24 25/22/25
f 29/23/29 28/24/28 30/25/30
f 29/23/29 30/25/30 31/26/31
f 31/26/31 30/25/30 10/27/10
f 30/25/30 28/24/28 32/28/32
f 4/8/4 30/25/30 34/29/34
f 34/29/34 30/25/30 32/28/32
f 34/29/34 26/30/26 92/31/92
f 26/30/26 3/32/3 86/33/86
f 36/34/36 31/26/31 40/4/40
f 37/35/37 36/34/36 9/1/9
f 38/36/38 29/23/29 31/26/31
f 40/4/40 10/27/10 7/5/7
f 31/26/31 10/27/10 40/4/40
f 4/8/4 35/37/35 41/38/41
f 14/10/14 13/9/13 41/38/41
f 49/39/49 42/40/42 43/41/43
f 44/42/44 9/1/9 15/12/15
f 37/35/37 9/1/9 44/42/44
f 47/43/47 37/35/37 46/44/46
f 23/18/23 21/17/21 22/11/22
f 48/45/48 22/11/22 14/10/14
f 49/39/49 48/45/48 14/10/14
f 51/46/51 33/47/33 57/48/57
f 51/46/51 25/22/25 33/47/33
f 56/49/56 28/24/28 29/23/29
f 55/50/55 57/48/57 56/49/56
f 56/49/56 33/47/33 28/24/28
f 57/48/57 33/47/33 56/49/56
f 50/51/50 57/48/57 55/50/55
f 61/52/61 29/23/29 38/36/38
f 62/53/62 38/36/38 39/54/39
f 63/55/63 61/52/61 62/53/62
f 61/52/61 63/55/63 59/56/59
f 64/57/64 62/53/62 39/54/39
f 65/58/65 62/53/62 64/57/64
f 59/56/59 63/55/63 66/59/66
f 68/60/68 66/59/66 63/55/63
f 64/57/64 74/61/74 65/58/65
f 63/55/63 65/58/65 70/62/70
f 74/61/74 69/63/69 67/64/67
f 72/65/72 65/58/65 74/61/74
f 72/65/72 74/61/74 75/66/75
f 77/67/77 67/64/67 64/57/64
f 79/68/79 78/69/78 68/60/68
f 67/64/67 69/63/69 64/57/64
f 68/60/68 71/70/71 80/71/80
f 85/72/85 84/73/84 83/74/83
f 3/32/3 87/75/87 86/33/86
f 86/33/86 87/75/87 99/76/99
f 99/76/99 87/75/87 88/77/88
f 88/77/88 87/75/87 89/78/89
f 90/79/90 89/78/89 87/75/87
f 88/77/88 81/80/81 82/81/82
f 92/31/92 95/82/95 5/83/5
f 92/31/92 99/76/99 97/84/97
f 95/82/95 97/84/97 94/85/94
f 94/85/94 97/84/97 98/86/98
f 94/85/94 98/86/98 100/87/100
f 99/76/99 88/77/88 97/84/97
f 98/86/98 139/88/139 101/89/101
f 94/85/94 100/87/100 102/90/102
f 96/91/96 95/82/95 102/90/102
f 105/92/105 26/30/26 24/21/24
f 105/92/105 90/79/90 87/75/87
f 107/93/107 105/92/105 27/20/27
f 106/94/106 27/20/27 104/95/104
f 107/93/107 90/79/90 105/92/105
f 106/94/106 108/96/108 107/93/107
f 109/97/109 90/79/90 107/93/107
f 157/98/157 109/97/109 108/96/108
f 110/99/110 42/40/42 35/37/35
f 112/100/112 43/41/43 110/99/110
f 49/39/49 43/41/43 111/101/111
f 117/102/117 93/103/93 96/91/96
f 49/39/49 111/101/111 48/45/48
f 119/104/119 52/105/52 58/106/58
f 120/107/120 53/108/53 119/104/119
f 53/108/53 123/109/123 118/110/118
f 120/107/120 123/109/123 53/108/53
f 122/111/122 125/112/125 123/109/123
f 125/112/125 156/113/156 123/109/123
f 114/114/114 43/41/43 128/115/128
f 112/100/112 115/116/115 128/115/128
f 212/117/212 130/118/130 129/119/129
f 212/117/212 131/120/131 130/118/130
f 131/120/131 132/121/132 130/118/130
f 130/118/130 124/122/124 121/123/121
f 133/124/133 81/80/81 134/125/134
f 136/126/136 134/125/134 250/127/250
f 139/88/139 133/124/133 140/128/140
f 138/129/138 139/88/139 140/128/140
f 85/72/85 141/130/141 142/131/142
f 90/79/90 144/132/144 89/78/89
f 145/133/145 90/79/90 91/134/91
f 144/132/144 135/135/135 81/80/81
f 145/133/145 146/136/146 144/132/144
f 151/137/151 145/133/145 147/138/147
f 148/139/148 149/140/149 147/138/147
f 153/141/153 137/142/137 135/135/135
f 146/136/146 153/141/153 135/135/135
f 145/133/145 151/137/151 146/136/146
f 152/143/152 149/140/149 150/144/150
f 151/137/151 154/145/154 146/136/146
f 148/139/148 91/134/91 109/97/109
f 157/98/157 148/139/148 109/97/109
f 156/113/156 157/98/157 108/96/108
f 158/146/158 157/98/157 156/113/156
f 158/146/158 150/144/150 157/98/157
f 159/147/159 158/146/158 156/113/156
f 155/148/155 150/144/150 158/146/158
f 159/147/159 156/113/156 127/149/127
f 160/150/160 159/147/159 127/149/127
f 161/151/161 163/152/163 164/153/164
f 175/154/175 174/155/174 172/156/172
f 171/157/171 174/155/174 176/158/176
f 176/158/176 179/159/179 177/160/177
f 178/161/178 174/155/174 175/154/175
f 183/162/183 1/163/1 2/164/2
f 186/165/186 185/166/185 187/167/187
f 183/162/183 189/168/189 188/169/188
f 191/170/191 188/169/188 189/168/189
f 184/171/184 188/169/188 191/170/191
f 187/167/187 184/171/184 193/172/193
f 217/173/217 186/165/186 187/167/187
f 194/174/194 196/175/196 198/176/198
f 196/175/196 52/105/52 50/51/50
f 1/163/1 55/50/55 54/177/54
f 186/165/186 194/174/194 185/166/185
f 50/51/50 55/50/55 198/176/198
f 199/178/199 195/179/195 186/165/186
f 201/180/201 197/181/197 195/179/195
f 58/106/58 52/105/52 197/181/197
f 201/180/201 225/182/225 202/183/202
f 2/164/2 59/56/59 189/168/189
f 59/56/59 60/184/60 190/185/190
f 189/168/189 59/56/59 190/185/190
f 223/186/223 191/170/191 189/168/189
f 223/186/223 189/168/189 203/187/203
f 204/188/204 68/60/68 63/55/63
f 224/189/224 208/190/208 207/191/207
f 224/189/224 205/192/205 208/190/208
f 71/70/71 68/60/68 206/193/206
f 206/193/206 204/188/204 208/190/208
f 216/194/216 206/193/206 208/190/208
f 216/194/216 208/190/208 205/192/205
f 204/188/204 70/62/70 210/195/210
f 75/66/75 73/196/73 209/197/209
f 190/185/190 214/198/214 192/199/192
f 199/178/199 186/165/186 217/173/217
f 217/173/217 200/200/200 199/178/199
f 218/201/218 219/202/219 217/173/217
f 200/200/200 201/180/201 195/179/195
f 220/203/220 221/204/221 219/202/219
f 221/204/221 201/180/201 219/202/219
f 191/170/191 193/172/193 184/171/184
f 191/170/191 222/205/222 193/172/193
f 222/205/222 191/170/191 223/186/223
f 222/205/222 220/203/220 218/201/218
f 207/191/207 213/206/213 224/189/224
f 215/207/215 205/192/205 203/187/203
f 202/183/202 226/208/226 120/107/120
f 120/107/120 119/104/119 58/106/58
f 226/208/226 122/111/122 120/107/120
f 126/209/126 122/111/122 228/210/228
f 124/122/124 233/211/233 227/212/227
f 227/212/227 233/211/233 228/210/228
f 231/213/231 72/65/72 75/66/75
f 210/195/210 70/62/70 212/117/212
f 210/195/210 129/119/129 225/182/225
f 129/119/129 121/123/121 226/208/226
f 75/66/75 131/120/131 231/213/231
f 232/214/232 75/66/75 230/215/230
f 124/122/124 132/121/132 233/211/233
f 233/211/233 132/121/132 131/120/131
f 232/214/232 234/216/234 75/66/75
f 234/216/234 233/211/233 131/120/131
f 232/214/232 236/217/236 234/216/234
f 234/216/234 229/218/229 228/210/228
f 237/219/237 126/209/126 229/218/229
f 238/220/238 229/218/229 234/216/234
f 237/219/237 239/221/239 126/209/126
f 238/220/238 240/222/240 229/218/229
f 240/222/240 237/219/237 229/218/229
f 240/222/240 241/223/241 242/224/242
f 243/225/243 245/226/245 242/227/242
f 236/217/236 238/220/238 234/216/234
f 246/228/246 241/223/241 238/220/238
f 242/227/242 244/229/244 237/230/237
f 235/231/235 247/232/247 246/228/246
f 423/233/423 247/232/247 248/234/248
f 252/235/252 250/127/250 251/236/251
f 250/127/250 252/235/252 253/237/253
f 253/237/253 252/235/252 254/238/254
f 252/235/252 255/239/255 254/238/254
f 140/128/140 136/126/136 256/240/256
f 256/240/256 136/126/136 253/237/253
f 258/241/258 257/242/257 256/240/256
f 258/241/258 253/237/253 254/238/254
f 261/243/261 143/244/143 259/245/259
f 261/243/261 259/245/259 262/246/262
f 276/247/276 262/246/262 260/248/260
f 152/143/152 264/249/264 149/140/149
f 264/249/264 151/137/151 149/140/149
f 267/250/267 153/141/153 154/145/154
f 264/249/264 265/251/265 151/137/151
f 266/252/266 264/249/264 152/143/152
f 255/239/255 251/236/251 153/141/153
f 269/253/269 267/250/267 265/251/265
f 268/254/268 269/253/269 265/251/265
f 268/254/268 264/249/264 266/252/266
f 273/255/273 268/254/268 266/252/266
f 271/256/271 266/252/266 152/143/152
f 272/257/272 159/147/159 160/150/160
f 285/258/285 254/238/254 279/259/279
f 258/241/258 254/238/254 285/258/285
f 262/246/262 276/247/276 277/260/277
f 263/261/263 278/262/278 276/247/276
f 267/250/267 280/263/280 255/239/255
f 255/239/255 280/263/280 279/259/279
f 255/239/255 279/259/279 254/238/254
f 269/253/269 281/264/281 267/250/267
f 279/259/279 282/265/282 283/266/283
f 270/267/270 286/268/286 287/269/287
f 285/258/285 283/266/283 289/270/289
f 286/268/286 285/258/285 289/270/289
f 289/270/289 287/269/287 286/268/286
f 322/271/322 283/266/283 284/272/284
f 323/273/323 290/274/290 289/270/289
f 292/275/292 270/267/270 287/269/287
f 288/276/288 292/275/292 287/269/287
f 294/277/294 268/254/268 273/255/273
f 293/278/293 297/279/297 281/264/281
f 297/279/297 282/265/282 281/264/281
f 298/280/298 297/279/297 293/278/293
f 295/281/295 298/280/298 293/278/293
f 284/272/284 282/265/282 297/279/297
f 295/281/295 299/282/299 298/280/298
f 300/283/300 273/255/273 274/284/274
f 301/285/301 291/286/291 303/287/303
f 291/286/291 288/276/288 290/274/290
f 302/288/302 304/289/304 308/290/308
f 306/291/306 301/285/301 354/292/354
f 304/289/304 306/291/306 308/290/308
f 299/282/299 295/281/295 296/293/296
f 272/257/272 300/283/300 274/284/274
f 294/277/294 273/255/273 300/283/300
f 312/294/312 314/295/314 300/283/300
f 311/296/311 310/297/310 314/295/314
f 315/298/315 311/296/311 314/295/314
f 305/299/305 302/288/302 320/300/320
f 320/300/320 308/290/308 305/299/305
f 326/301/326 327/302/327 337/303/337
f 329/304/329 327/302/327 330/305/330
f 337/303/337 327/302/327 328/306/328
f 337/303/337 328/306/328 336/307/336
f 336/307/336 328/306/328 339/308/339
f 339/308/339 328/306/328 329/304/329
f 339/308/339 329/304/329 340/309/340
f 329/304/329 332/310/332 340/309/340
f 342/311/342 340/309/340 343/312/343
f 344/313/344 284/272/284 298/280/298
f 299/282/299 345/314/345 298/280/298
f 323/273/323 322/271/322 344/313/344
f 347/315/347 290/274/290 348/316/348
f 323/273/323 344/313/344 349/317/349
f 323/273/323 349/317/349 348/316/348
f 345/314/345 350/318/350 349/317/349
f 324/319/324 348/316/348 350/318/350
f 352/320/352 353/321/353 350/318/350
f 358/322/358 351/323/351 353/321/353
f 326/301/326 337/303/337 355/324/355
f 307/325/307 326/301/326 355/324/355
f 326/301/326 354/292/354 347/315/347
f 347/315/347 348/316/348 325/326/325
f 356/327/356 332/310/332 331/328/331
f 356/327/356 324/319/324 351/323/351
f 357/329/357 333/330/333 356/327/356
f 358/322/358 356/327/356 351/323/351
f 358/322/358 357/329/357 356/327/356
f 309/331/309 307/325/307 355/324/355
f 361/332/361 342/311/342 343/312/343
f 361/332/361 360/333/360 342/311/342
f 362/334/362 361/332/361 333/330/333
f 361/332/361 343/312/343 333/330/333
f 363/335/363 299/282/299 310/297/310
f 311/296/311 363/335/363 310/297/310
f 364/336/364 363/335/363 311/296/311
f 363/335/363 365/337/365 299/282/299
f 442/338/442 364/336/364 311/296/311
f 364/336/364 365/337/365 363/335/363
f 369/339/369 367/340/367 366/341/366
f 367/340/367 353/321/353 352/320/352
f 368/342/368 353/321/353 367/340/367
f 370/343/370 385/344/385 368/342/368
f 373/345/373 372/346/372 377/347/377
f 374/348/374 375/349/375 372/346/372
f 377/347/377 372/346/372 375/349/375
f 373/345/373 376/350/376 372/346/372
f 374/348/374 383/351/383 375/349/375
f 379/352/379 375/349/375 383/351/383
f 380/353/380 375/349/375 379/352/379
f 380/353/380 381/354/381 382/355/382
f 383/351/383 359/356/359 384/357/384
f 383/351/383 391/358/391 359/356/359
f 385/344/385 383/351/383 384/357/384
f 381/354/381 379/352/379 385/344/385
f 384/357/384 359/356/359 358/322/358
f 476/359/476 381/354/381 370/343/370
f 389/360/389 374/348/374 372/346/372
f 391/358/391 388/361/388 362/334/362
f 391/358/391 362/334/362 359/356/359
f 387/362/387 392/363/392 382/355/382
f 393/364/393 392/363/392 394/365/394
f 395/366/395 180/367/180 178/161/178
f 395/366/395 179/159/179 180/367/180
f 396/368/396 400/369/400 398/370/398
f 176/158/176 396/368/396 399/371/399
f 182/372/182 176/158/176 399/371/399
f 399/371/399 396/368/396 398/370/398
f 398/370/398 400/369/400 403/373/403
f 402/374/402 404/375/404 401/376/401
f 406/377/406 404/375/404 405/378/405
f 399/371/399 398/370/398 407/379/407
f 403/373/403 407/379/407 398/370/398
f 408/380/408 407/379/407 403/373/403
f 409/381/409 408/380/408 403/373/403
f 406/377/406 409/381/409 403/373/403
f 405/378/405 404/375/404 402/374/402
f 402/374/402 411/382/411 405/378/405
f 412/383/412 335/384/335 338/385/338
f 341/386/341 412/383/412 338/385/338
f 360/333/360 341/386/341 342/311/342
f 360/333/360 413/387/413 341/386/341
f 415/388/415 245/226/245 243/225/243
f 244/229/244 416/389/416 414/390/414
f 416/389/416 244/229/244 245/226/245
f 419/391/419 416/389/416 245/226/245
f 419/391/419 415/388/415 418/392/418
f 418/392/418 420/393/420 419/391/419
f 419/391/419 417/394/417 416/389/416
f 245/226/245 244/229/244 242/227/242
f 424/395/424 421/396/421 423/397/423
f 421/396/421 415/388/415 423/397/423
f 312/294/312 275/398/275 417/394/417
f 427/399/427 420/393/420 426/400/426
f 316/401/316 429/402/429 427/399/427
f 316/401/316 427/399/427 426/400/426
f 428/403/428 315/298/315 312/294/312
f 429/402/429 315/298/315 428/403/428
f 318/404/318 315/298/315 429/402/429
f 430/405/430 318/404/318 429/402/429
f 430/405/430 429/402/429 316/401/316
f 431/406/431 430/405/430 316/401/316
f 420/393/420 313/407/313 426/400/426
f 432/408/432 420/393/420 422/409/422
f 432/408/432 313/407/313 420/393/420
f 432/408/432 319/410/319 313/407/313
f 432/408/432 321/411/321 319/410/319
f 321/411/321 435/412/435 434/413/434
f 431/406/431 316/401/316 434/413/434
f 432/408/432 437/414/437 321/411/321
f 425/415/425 438/416/438 422/409/422
f 433/417/433 432/408/432 438/416/438
f 366/341/366 364/336/364 442/338/442
f 440/418/440 366/341/366 439/419/439
f 441/420/441 440/418/440 439/419/439
f 442/338/442 311/296/311 318/404/318
f 444/421/444 318/404/318 430/405/430
f 450/422/450 430/405/430 431/406/431
f 444/421/444 442/338/442 318/404/318
f 445/423/445 430/405/430 443/424/443
f 366/341/366 442/338/442 444/421/444
f 445/423/445 439/419/439 444/421/444
f 366/341/366 440/418/440 447/425/447
f 446/426/446 441/420/441 439/419/439
f 371/427/371 369/339/369 447/425/447
f 371/427/371 447/425/447 448/428/448
f 373/345/373 435/412/435 321/411/321
f 436/429/436 434/413/434 435/412/435
f 450/422/450 431/406/431 453/430/453
f 451/431/451 376/350/376 373/345/373
f 452/432/452 378/433/378 451/431/451
f 452/432/452 373/345/373 437/414/437
f 436/429/436 377/347/377 378/433/378
f 436/429/436 452/432/452 453/430/453
f 459/434/459 452/432/452 437/414/437
f 453/430/453 452/432/452 454/435/454
f 454/435/454 452/432/452 461/436/461
f 450/422/450 453/430/453 454/435/454
f 378/433/378 380/353/380 451/431/451
f 381/354/381 386/437/386 382/355/382
f 387/362/387 382/355/382 386/437/386
f 455/438/455 387/362/387 386/437/386
f 480/439/480 456/440/456 455/438/455
f 457/441/457 480/439/480 458/442/458
f 462/443/462 454/435/454 461/436/461
f 465/444/465 387/362/387 456/440/456
f 465/444/465 394/365/394 387/362/387
f 466/445/466 456/440/456 457/441/457
f 464/446/464 466/445/466 463/447/463
f 446/426/446 445/423/445 443/424/443
f 467/448/467 446/426/446 443/424/443
f 468/449/468 446/426/446 467/448/467
f 470/450/470 446/426/446 468/449/468
f 469/451/469 470/450/470 468/449/468
f 472/452/472 450/422/450 454/435/454
f 472/452/472 469/451/469 467/448/467
f 474/453/474 458/442/458 473/454/473
f 475/455/475 473/454/473 458/442/458
f 475/455/475 469/451/469 473/454/473
f 462/443/462 474/453/474 473/454/473
f 478/456/478 448/428/448 441/420/441
f 371/427/371 478/456/478 477/457/477
f 479/458/479 477/457/477 478/456/478
f 480/439/480 455/438/455 386/437/386
f 458/442/458 480/439/480 483/459/483
f 477/457/477 481/460/481 476/359/476
f 479/458/479 481/460/481 477/457/477
f 482/461/482 465/444/465 466/445/466
f 471/462/471 449/463/449 446/426/446
f 469/451/469 471/462/471 470/450/470
f 471/462/471 483/459/483 449/463/449
f 475/455/475 483/459/483 469/451/469
f 483/459/483 475/455/475 458/442/458
f 40/4/40 8/2/8 9/1/9
f 12/7/12 8/2/8 7/5/7
f 4/8/4 7/5/7 10/27/10
f 12/7/12 7/5/7 13/9/13
f 15/12/15 9/1/9 6/3/6
f 17/13/17 6/3/6 11/6/11
f 19/15/19 17/13/17 11/6/11
f 19/15/19 11/6/11 12/7/12
f 4/8/4 10/27/10 30/25/30
f 24/21/24 34/29/34 32/28/32
f 33/47/33 25/22/25 24/21/24
f 33/47/33 24/21/24 32/28/32
f 4/8/4 34/29/34 5/83/5
f 35/37/35 4/8/4 5/83/5
f 24/21/24 26/30/26 34/29/34
f 92/31/92 26/30/26 86/33/86
f 5/83/5 34/29/34 92/31/92
f 36/34/36 40/4/40 9/1/9
f 36/34/36 38/36/38 31/26/31
f 39/54/39 36/34/36 37/35/37
f 39/54/39 38/36/38 36/34/36
f 41/38/41 13/9/13 4/8/4
f 42/40/42 14/10/14 41/38/41
f 35/37/35 42/40/42 41/38/41
f 42/40/42 49/39/49 14/10/14
f 16/14/16 45/464/45 15/12/15
f 45/464/45 44/42/44 15/12/15
f 46/44/46 37/35/37 44/42/44
f 46/44/46 44/42/44 45/464/45
f 47/43/47 77/67/77 37/35/37
f 48/45/48 23/18/23 22/11/22
f 52/105/52 51/46/51 50/51/50
f 104/95/104 27/20/27 25/22/25
f 51/46/51 104/95/104 25/22/25
f 51/46/51 52/105/52 53/108/53
f 54/177/54 56/49/56 61/52/61
f 54/177/54 55/50/55 56/49/56
f 33/47/33 32/28/32 28/24/28
f 50/51/50 51/46/51 57/48/57
f 2/164/2 54/177/54 61/52/61
f 62/53/62 61/52/61 38/36/38
f 61/52/61 56/49/56 29/23/29
f 59/56/59 2/164/2 61/52/61
f 64/57/64 39/54/39 77/67/77
f 63/55/63 62/53/62 65/58/65
f 64/57/64 69/63/69 74/61/74
f 73/196/73 74/61/74 67/64/67
f 72/65/72 70/62/70 65/58/65
f 73/196/73 75/66/75 74/61/74
f 77/67/77 39/54/39 37/35/37
f 78/69/78 76/465/76 60/184/60
f 60/184/60 66/59/66 68/60/68
f 78/69/78 60/184/60 68/60/68
f 79/68/79 68/60/68 80/71/80
f 98/86/98 97/84/97 139/88/139
f 139/88/139 88/77/88 82/81/82
f 139/88/139 97/84/97 88/77/88
f 81/80/81 88/77/88 89/78/89
f 92/31/92 86/33/86 99/76/99
f 92/31/92 97/84/97 95/82/95
f 93/103/93 5/83/5 95/82/95
f 101/89/101 100/87/100 98/86/98
f 138/129/138 101/89/101 139/88/139
f 95/82/95 94/85/94 102/90/102
f 83/74/83 103/466/103 85/72/85
f 105/92/105 3/32/3 26/30/26
f 105/92/105 24/21/24 27/20/27
f 105/92/105 87/75/87 3/32/3
f 106/94/106 107/93/107 27/20/27
f 107/93/107 108/96/108 109/97/109
f 90/79/90 109/97/109 91/134/91
f 93/103/93 35/37/35 5/83/5
f 43/41/43 42/40/42 110/99/110
f 93/103/93 95/82/95 96/91/96
f 110/99/110 35/37/35 93/103/93
f 111/101/111 114/114/114 113/467/113
f 110/99/110 93/103/93 117/102/117
f 115/116/115 112/100/112 110/99/110
f 51/46/51 53/108/53 104/95/104
f 53/108/53 118/110/118 104/95/104
f 104/95/104 118/110/118 106/94/106
f 119/104/119 53/108/53 52/105/52
f 122/111/122 123/109/123 120/107/120
f 118/110/118 123/109/123 106/94/106
f 227/212/227 121/123/121 124/122/124
f 106/94/106 123/109/123 108/96/108
f 156/113/156 108/96/108 123/109/123
f 125/112/125 127/149/127 156/113/156
f 126/209/126 127/149/127 125/112/125
f 112/100/112 128/115/128 43/41/43
f 114/114/114 111/101/111 43/41/43
f 129/119/129 130/118/130 121/123/121
f 114/114/114 128/115/128 116/468/116
f 130/118/130 132/121/132 124/122/124
f 133/124/133 82/81/82 81/80/81
f 134/125/134 81/80/81 135/135/135
f 137/142/137 134/125/134 135/135/135
f 133/124/133 134/125/134 136/126/136
f 250/127/250 134/125/134 137/142/137
f 139/88/139 82/81/82 133/124/133
f 140/128/140 133/124/133 136/126/136
f 170/469/170 84/73/84 142/131/142
f 142/131/142 84/73/84 85/72/85
f 170/469/170 142/131/142 141/130/141
f 249/470/249 141/130/141 143/244/143
f 145/133/145 144/132/144 90/79/90
f 144/132/144 81/80/81 89/78/89
f 91/134/91 147/138/147 145/133/145
f 148/139/148 147/138/147 91/134/91
f 144/132/144 146/136/146 135/135/135
f 148/139/148 150/144/150 149/140/149
f 149/140/149 151/137/151 147/138/147
f 146/136/146 154/145/154 153/141/153
f 155/148/155 152/143/152 150/144/150
f 157/98/157 150/144/150 148/139/148
f 162/471/162 161/151/161 164/153/164
f 163/152/163 165/472/165 164/153/164
f 166/473/166 164/153/164 165/472/165
f 172/156/172 165/472/165 163/152/163
f 173/474/173 172/156/172 163/152/163
f 162/471/162 164/153/164 167/475/167
f 166/473/166 167/475/167 164/153/164
f 169/476/169 163/152/163 161/151/161
f 171/157/171 166/473/166 165/472/165
f 171/157/171 165/472/165 174/155/174
f 172/156/172 174/155/174 165/472/165
f 173/474/173 175/154/175 172/156/172
f 176/158/176 174/155/174 179/159/179
f 174/155/174 180/367/180 179/159/179
f 178/161/178 180/367/180 174/155/174
f 168/477/168 166/473/166 171/157/171
f 167/475/167 166/473/166 168/477/168
f 168/477/168 171/157/171 181/478/181
f 176/158/176 181/478/181 171/157/171
f 187/167/187 185/166/185 183/162/183
f 183/162/183 185/166/185 1/163/1
f 1/163/1 54/177/54 2/164/2
f 185/166/185 198/176/198 1/163/1
f 184/171/184 183/162/183 188/169/188
f 183/162/183 2/164/2 189/168/189
f 187/167/187 183/162/183 184/171/184
f 193/172/193 217/173/217 187/167/187
f 195/179/195 196/175/196 194/174/194
f 196/175/196 197/181/197 52/105/52
f 1/163/1 198/176/198 55/50/55
f 185/166/185 194/174/194 198/176/198
f 186/165/186 195/179/195 194/174/194
f 198/176/198 196/175/196 50/51/50
f 199/178/199 200/200/200 195/179/195
f 195/179/195 197/181/197 196/175/196
f 202/183/202 58/106/58 197/181/197
f 201/180/201 202/183/202 197/181/197
f 201/180/201 213/206/213 225/182/225
f 60/184/60 59/56/59 66/59/66
f 70/62/70 204/188/204 63/55/63
f 204/188/204 206/193/206 68/60/68
f 208/190/208 204/188/204 207/191/207
f 211/479/211 71/70/71 206/193/206
f 210/195/210 207/191/207 204/188/204
f 216/194/216 211/479/211 206/193/206
f 213/206/213 207/191/207 210/195/210
f 70/62/70 72/65/72 212/117/212
f 225/182/225 213/206/213 210/195/210
f 214/198/214 60/184/60 76/465/76
f 214/198/214 190/185/190 60/184/60
f 190/185/190 203/187/203 189/168/189
f 192/199/192 203/187/203 190/185/190
f 192/199/192 215/207/215 203/187/203
f 193/172/193 218/201/218 217/173/217
f 217/173/217 219/202/219 200/200/200
f 220/203/220 219/202/219 218/201/218
f 219/202/219 201/180/201 200/200/200
f 222/205/222 218/201/218 193/172/193
f 224/189/224 220/203/220 222/205/222
f 222/205/222 223/186/223 224/189/224
f 220/203/220 224/189/224 213/206/213
f 213/206/213 221/204/221 220/203/220
f 213/206/213 201/180/201 221/204/221
f 203/187/203 205/192/205 223/186/223
f 205/192/205 224/189/224 223/186/223
f 58/106/58 202/183/202 120/107/120
f 202/183/202 225/182/225 226/208/226
f 226/208/226 227/212/227 122/111/122
f 226/208/226 121/123/121 227/212/227
f 228/210/228 122/111/122 227/212/227
f 122/111/122 126/209/126 125/112/125
f 228/210/228 229/218/229 126/209/126
f 228/210/228 233/211/233 234/216/234
f 210/195/210 212/117/212 129/119/129
f 225/182/225 129/119/129 226/208/226
f 72/65/72 231/213/231 212/117/212
f 230/215/230 75/66/75 209/197/209
f 212/117/212 231/213/231 131/120/131
f 75/66/75 234/216/234 131/120/131
f 232/214/232 235/231/235 236/217/236
f 230/215/230 235/231/235 232/214/232
f 239/221/239 127/149/127 126/209/126
f 242/224/242 237/219/237 240/222/240
f 240/222/240 238/220/238 241/223/241
f 237/230/237 244/229/244 239/480/239
f 243/225/243 242/227/242 241/481/241
f 414/390/414 127/482/127 239/480/239
f 244/229/244 414/390/414 239/480/239
f 235/231/235 246/228/246 236/217/236
f 246/228/246 238/220/238 236/217/236
f 248/234/248 247/232/247 235/231/235
f 246/483/246 247/484/247 243/225/243
f 137/142/137 251/236/251 250/127/250
f 136/126/136 250/127/250 253/237/253
f 258/241/258 256/240/256 253/237/253
f 143/244/143 262/246/262 259/245/259
f 153/141/153 251/236/251 137/142/137
f 154/145/154 265/251/265 267/250/267
f 151/137/151 265/251/265 154/145/154
f 267/250/267 255/239/255 153/141/153
f 255/239/255 252/235/252 251/236/251
f 264/249/264 268/254/268 265/251/265
f 155/148/155 271/256/271 152/143/152
f 159/147/159 272/257/272 271/256/271
f 271/256/271 273/255/273 266/252/266
f 271/256/271 274/284/274 273/255/273
f 272/257/272 274/284/274 271/256/271
f 275/398/275 272/257/272 160/150/160
f 277/260/277 276/247/276 278/262/278
f 267/250/267 281/264/281 280/263/280
f 281/264/281 282/265/282 280/263/280
f 279/259/279 280/263/280 282/265/282
f 284/272/284 283/266/283 282/265/282
f 285/258/285 270/267/270 258/241/258
f 270/267/270 285/258/285 286/268/286
f 285/258/285 279/259/279 283/266/283
f 288/276/288 287/269/287 289/270/289
f 322/271/322 289/270/289 283/266/283
f 288/276/288 289/270/289 290/274/290
f 268/254/268 293/278/293 269/253/269
f 268/254/268 294/277/294 293/278/293
f 293/278/293 281/264/281 269/253/269
f 294/277/294 295/281/295 293/278/293
f 296/293/296 295/281/295 294/277/294
f 298/280/298 284/272/284 297/279/297
f 305/299/305 309/331/309 302/288/302
f 303/287/303 291/286/291 290/274/290
f 301/285/301 303/287/303 354/292/354
f 304/289/304 301/285/301 306/291/306
f 309/331/309 305/299/305 307/325/307
f 296/293/296 310/297/310 299/282/299
f 275/398/275 312/294/312 272/257/272
f 312/294/312 300/283/300 272/257/272
f 300/283/300 296/293/296 294/277/294
f 314/295/314 296/293/296 300/283/300
f 312/294/312 315/298/315 314/295/314
f 310/297/310 296/293/296 314/295/314
f 317/485/317 316/401/316 313/407/313
f 315/298/315 318/404/318 311/296/311
f 317/485/317 313/407/313 319/410/319
f 320/300/320 302/288/302 308/290/308
f 319/410/319 321/411/321 317/485/317
f 323/273/323 289/270/289 322/271/322
f 327/302/327 326/301/326 325/326/325
f 330/305/330 327/302/327 325/326/325
f 324/319/324 325/326/325 348/316/348
f 330/305/330 325/326/325 331/328/331
f 332/310/332 329/304/329 330/305/330
f 325/326/325 324/319/324 331/328/331
f 332/310/332 330/305/330 331/328/331
f 334/486/334 337/303/337 336/307/336
f 335/384/335 336/307/336 339/308/339
f 338/385/338 335/384/335 339/308/339
f 329/304/329 328/306/328 327/302/327
f 341/386/341 338/385/338 339/308/339
f 341/386/341 339/308/339 340/309/340
f 342/311/342 341/386/341 340/309/340
f 332/310/332 343/312/343 340/309/340
f 333/330/333 343/312/343 332/310/332
f 298/280/298 345/314/345 344/313/344
f 299/282/299 346/487/346 345/314/345
f 344/313/344 322/271/322 284/272/284
f 348/316/348 290/274/290 323/273/323
f 345/314/345 349/317/349 344/313/344
f 346/487/346 352/320/352 345/314/345
f 348/316/348 349/317/349 350/318/350
f 345/314/345 352/320/352 350/318/350
f 350/318/350 351/323/351 324/319/324
f 353/321/353 351/323/351 350/318/350
f 303/287/303 290/274/290 354/292/354
f 306/291/306 354/292/354 326/301/326
f 307/325/307 306/291/306 326/301/326
f 307/325/307 308/290/308 306/291/306
f 305/299/305 308/290/308 307/325/307
f 326/301/326 347/315/347 325/326/325
f 354/292/354 290/274/290 347/315/347
f 356/327/356 331/328/331 324/319/324
f 356/327/356 333/330/333 332/310/332
f 358/322/358 359/356/359 357/329/357
f 355/324/355 337/303/337 334/486/334
f 359/356/359 333/330/333 357/329/357
f 359/356/359 362/334/362 333/330/333
f 299/282/299 365/337/365 346/487/346
f 365/337/365 352/320/352 346/487/346
f 364/336/364 367/340/367 365/337/365
f 367/340/367 352/320/352 365/337/365
f 366/341/366 367/340/367 364/336/364
f 353/321/353 368/342/368 358/322/358
f 368/342/368 384/357/384 358/322/358
f 368/342/368 367/340/367 369/339/369
f 370/343/370 368/342/368 369/339/369
f 371/427/371 370/343/370 369/339/369
f 378/433/378 377/347/377 375/349/375
f 374/348/374 391/358/391 383/351/383
f 380/353/380 378/433/378 375/349/375
f 381/354/381 380/353/380 379/352/379
f 385/344/385 379/352/379 383/351/383
f 368/342/368 385/344/385 384/357/384
f 370/343/370 381/354/381 385/344/385
f 376/350/376 389/360/389 372/346/372
f 388/361/388 391/358/391 374/348/374
f 376/350/376 380/353/380 382/355/382
f 376/350/376 451/431/451 380/353/380
f 392/363/392 376/350/376 382/355/382
f 390/488/390 376/350/376 392/363/392
f 393/364/393 390/488/390 392/363/392
f 396/368/396 177/160/177 179/159/179
f 395/366/395 400/369/400 179/159/179
f 395/366/395 397/489/397 400/369/400
f 396/368/396 179/159/179 400/369/400
f 176/158/176 177/160/177 396/368/396
f 401/376/401 404/375/404 400/369/400
f 403/373/403 400/369/400 404/375/404
f 406/377/406 403/373/403 404/375/404
f 411/382/411 402/374/402 410/490/410
f 341/386/341 413/387/413 412/383/412
f 275/398/275 160/150/160 127/482/127
f 414/390/414 275/398/275 127/482/127
f 416/389/416 417/394/417 414/390/414
f 414/390/414 417/394/417 275/398/275
f 419/391/419 245/226/245 415/388/415
f 421/396/421 418/392/418 415/388/415
f 421/396/421 422/409/422 418/392/418
f 422/409/422 420/393/420 418/392/418
f 247/484/247 423/397/423 243/225/243
f 423/397/423 415/388/415 243/225/243
f 421/396/421 425/415/425 422/409/422
f 424/395/424 425/415/425 421/396/421
f 419/391/419 427/399/427 417/394/417
f 427/399/427 419/391/419 420/393/420
f 417/394/417 428/403/428 312/294/312
f 417/394/417 427/399/427 428/403/428
f 428/403/428 427/399/427 429/402/429
f 316/401/316 426/400/426 313/407/313
f 438/416/438 432/408/432 422/409/422
f 432/408/432 433/417/433 460/491/460
f 434/413/434 317/485/317 321/411/321
f 434/413/434 316/401/316 317/485/317
f 432/408/432 460/491/460 437/414/437
f 321/411/321 437/414/437 373/345/373
f 436/429/436 431/406/431 434/413/434
f 450/422/450 443/424/443 430/405/430
f 445/423/445 444/421/444 430/405/430
f 439/419/439 366/341/366 444/421/444
f 446/426/446 439/419/439 445/423/445
f 447/425/447 369/339/369 366/341/366
f 440/418/440 448/428/448 447/425/447
f 441/420/441 448/428/448 440/418/440
f 373/345/373 377/347/377 435/412/435
f 436/429/436 435/412/435 377/347/377
f 453/430/453 431/406/431 436/429/436
f 452/432/452 451/431/451 373/345/373
f 452/432/452 436/429/436 378/433/378
f 476/359/476 386/437/386 381/354/381
f 455/438/455 456/440/456 387/362/387
f 480/439/480 457/441/457 456/440/456
f 461/436/461 452/432/452 459/434/459
f 394/365/394 392/363/392 387/362/387
f 466/445/466 465/444/465 456/440/456
f 464/446/464 482/461/482 466/445/466
f 467/448/467 469/451/469 468/449/468
f 446/426/446 449/463/449 441/420/441
f 470/450/470 471/462/471 446/426/446
f 467/448/467 443/424/443 450/422/450
f 450/422/450 472/452/472 467/448/467
f 462/443/462 473/454/473 454/435/454
f 472/452/472 454/435/454 473/454/473
f 472/452/472 473/454/473 469/451/469
f 474/453/474 457/441/457 458/442/458
f 463/447/463 474/453/474 462/443/462
f 463/447/463 466/445/466 457/441/457
f 463/447/463 457/441/457 474/453/474
f 476/359/476 370/343/370 371/427/371
f 478/456/478 371/427/371 448/428/448
f 449/463/449 478/456/478 441/420/441
f 476/359/476 371/427/371 477/457/477
f 449/463/449 479/458/479 478/456/478
f 476/359/476 481/460/481 386/437/386
f 481/460/481 480/439/480 386/437/386
f 483/459/483 480/439/480 481/460/481
f 479/458/479 483/459/483 481/460/481
f 469/451/469 483/459/483 471/462/471
f 449/463/449 483/459/483 479/458/479
