# Blender 5.2.1 LTS
# www.blender.org
o ZombieTeethLower
v -0.023605 -0.510673 0.294615
v -0.023547 -0.507535 0.299593
v -0.027812 -0.509948 0.298816
v -0.023267 -0.509180 0.312414
v -0.023133 -0.513449 0.316250
v -0.027512 -0.511715 0.312581
v -0.024063 -0.522365 0.290904
v -0.028322 -0.523027 0.294879
v -0.024126 -0.526328 0.293748
v -0.023509 -0.525624 0.316302
v -0.023719 -0.528718 0.312377
v -0.027939 -0.525279 0.312434
v -0.007922 -0.514655 0.293387
v -0.003283 -0.516035 0.297211
v -0.008107 -0.511551 0.298699
v -0.007435 -0.517515 0.315678
v -0.007827 -0.513196 0.311519
v -0.002972 -0.517859 0.311426
v -0.006508 -0.521718 0.290956
v -0.005711 -0.525573 0.293535
v -0.002068 -0.522004 0.294885
v -0.005964 -0.524910 0.315832
v -0.001699 -0.524177 0.311816
v -0.005304 -0.527963 0.312164
v -0.037567 -0.525217 0.312794
v -0.032289 -0.525063 0.309574
v -0.036791 -0.528418 0.308549
v -0.031985 -0.521963 0.287438
v -0.032826 -0.526108 0.290541
v -0.028451 -0.522825 0.292137
v -0.036724 -0.494320 0.315267
v -0.035745 -0.490106 0.311616
v -0.031447 -0.494171 0.312047
v -0.032154 -0.491656 0.294507
v -0.028620 -0.492523 0.299206
v -0.033036 -0.488526 0.299307
v -0.055710 -0.523749 0.309751
v -0.055481 -0.526906 0.305414
v -0.059243 -0.522882 0.305053
v -0.050128 -0.520495 0.284395
v -0.055405 -0.520644 0.287616
v -0.051517 -0.524595 0.287406
v -0.048939 -0.489038 0.309402
v -0.050433 -0.493210 0.312968
v -0.053968 -0.492348 0.308269
v -0.045863 -0.490547 0.292208
v -0.046229 -0.487459 0.297094
v -0.051141 -0.490700 0.295428
v -0.072646 -0.522865 0.303538
v -0.066133 -0.522470 0.301897
v -0.069556 -0.526294 0.300377
v -0.059175 -0.520035 0.281478
v -0.059937 -0.524273 0.284624
v -0.057232 -0.520600 0.287320
v -0.079683 -0.485732 0.298761
v -0.078073 -0.481354 0.294596
v -0.073185 -0.485260 0.297111
v -0.072641 -0.484253 0.287230
v -0.070726 -0.484743 0.293084
v -0.076234 -0.480968 0.291584
v -0.090502 -0.522666 0.294643
v -0.089288 -0.526074 0.290548
v -0.092441 -0.522177 0.288792
v -0.077032 -0.519835 0.272583
v -0.083540 -0.520306 0.274215
v -0.079668 -0.524053 0.274794
v -0.078209 -0.481353 0.294528
v -0.081348 -0.485714 0.297932
v -0.083268 -0.485147 0.292088
v -0.074306 -0.484234 0.286400
v -0.076370 -0.480966 0.291516
v -0.080809 -0.484631 0.288061
v -0.105794 -0.521500 0.288724
v -0.099117 -0.521497 0.288268
v -0.102614 -0.525005 0.285436
v -0.087065 -0.518992 0.269181
v -0.089558 -0.523257 0.271813
v -0.086549 -0.519815 0.275155
v -0.106414 -0.494274 0.289396
v -0.103413 -0.489951 0.286301
v -0.099737 -0.494254 0.288941
v -0.090966 -0.492206 0.273277
v -0.090452 -0.493011 0.279253
v -0.094580 -0.488768 0.277085
v -0.121376 -0.519761 0.276767
v -0.118969 -0.523180 0.272887
v -0.121893 -0.518956 0.270791
v -0.102647 -0.517253 0.257225
v -0.109325 -0.517273 0.257677
v -0.105912 -0.521432 0.259263
v -0.113184 -0.488860 0.278803
v -0.116884 -0.493106 0.281362
v -0.117397 -0.492283 0.275389
v -0.101435 -0.491038 0.265243
v -0.104352 -0.487678 0.269587
v -0.108112 -0.491040 0.265701
v -0.132857 -0.519379 0.270557
v -0.126172 -0.519490 0.270194
v -0.129719 -0.522891 0.267267
v -0.113756 -0.516914 0.251351
v -0.116385 -0.521171 0.253860
v -0.113365 -0.517838 0.257316
v -0.132741 -0.493895 0.271539
v -0.129567 -0.489579 0.268550
v -0.126056 -0.493990 0.271176
v -0.116941 -0.491857 0.255651
v -0.116551 -0.492763 0.261619
v -0.120548 -0.488415 0.259481
v -0.147443 -0.517279 0.259006
v -0.145080 -0.520680 0.255102
v -0.147835 -0.516372 0.253038
v -0.128342 -0.514815 0.239800
v -0.135028 -0.514720 0.240160
v -0.131747 -0.518960 0.241695
v -0.138657 -0.488270 0.261352
v -0.142530 -0.492486 0.263787
v -0.142918 -0.491563 0.257822
v -0.126729 -0.490448 0.247899
v -0.129638 -0.487107 0.252282
v -0.133413 -0.490336 0.248265
v 0.023660 -0.525638 0.316531
v 0.028082 -0.525310 0.312686
v 0.023719 -0.528718 0.312377
v 0.024224 -0.522322 0.290685
v 0.024126 -0.526328 0.293748
v 0.028476 -0.522994 0.294633
v 0.023910 -0.495364 0.318800
v 0.024028 -0.491287 0.315181
v 0.028331 -0.495048 0.314953
v 0.024372 -0.492650 0.297651
v 0.028623 -0.493334 0.301596
v 0.024308 -0.489642 0.302361
v 0.005615 -0.524898 0.316323
v 0.005304 -0.527963 0.312164
v 0.001364 -0.524215 0.312377
v 0.006180 -0.521582 0.290476
v 0.001759 -0.521898 0.294324
v 0.005711 -0.525573 0.293535
v 0.009405 -0.490687 0.315012
v 0.008932 -0.494750 0.318626
v 0.004679 -0.494078 0.314679
v 0.009393 -0.492036 0.297477
v 0.009685 -0.489042 0.302191
v 0.004971 -0.492364 0.301322
v 0.090502 -0.522666 0.294643
v 0.092441 -0.522177 0.288792
v 0.089288 -0.526074 0.290548
v 0.077032 -0.519835 0.272583
v 0.079668 -0.524053 0.274794
v 0.083540 -0.520306 0.274215
v 0.081348 -0.485714 0.297932
v 0.078209 -0.481353 0.294528
v 0.083268 -0.485147 0.292088
v 0.074306 -0.484234 0.286400
v 0.080809 -0.484631 0.288061
v 0.076370 -0.480966 0.291516
v 0.072646 -0.522865 0.303538
v 0.069556 -0.526294 0.300377
v 0.066133 -0.522470 0.301897
v 0.059175 -0.520035 0.281478
v 0.057232 -0.520600 0.287320
v 0.059937 -0.524273 0.284624
v 0.078073 -0.481354 0.294596
v 0.079683 -0.485732 0.298761
v 0.073185 -0.485260 0.297111
v 0.072641 -0.484253 0.287230
v 0.076234 -0.480968 0.291584
v 0.070726 -0.484743 0.293084
v 0.121376 -0.519761 0.276767
v 0.121893 -0.518956 0.270791
v 0.118969 -0.523180 0.272887
v 0.102647 -0.517253 0.257225
v 0.105912 -0.521432 0.259263
v 0.109325 -0.517273 0.257677
v 0.116884 -0.493106 0.281362
v 0.113184 -0.488860 0.278803
v 0.117397 -0.492283 0.275389
v 0.101435 -0.491038 0.265243
v 0.108112 -0.491040 0.265701
v 0.104352 -0.487678 0.269587
v 0.105794 -0.521500 0.288724
v 0.102614 -0.525005 0.285436
v 0.099117 -0.521497 0.288268
v 0.087065 -0.518992 0.269181
v 0.086549 -0.519815 0.275155
v 0.089558 -0.523257 0.271813
v 0.103413 -0.489951 0.286301
v 0.106414 -0.494274 0.289396
v 0.099737 -0.494254 0.288941
v 0.090966 -0.492206 0.273277
v 0.094580 -0.488768 0.277085
v 0.090452 -0.493011 0.279253
v 0.147443 -0.517279 0.259006
v 0.147835 -0.516372 0.253038
v 0.145080 -0.520680 0.255102
v 0.128342 -0.514815 0.239800
v 0.131747 -0.518960 0.241695
v 0.135028 -0.514720 0.240160
v 0.142530 -0.492486 0.263787
v 0.138657 -0.488270 0.261352
v 0.142918 -0.491563 0.257822
v 0.126729 -0.490448 0.247899
v 0.133413 -0.490336 0.248265
v 0.129638 -0.487107 0.252282
v 0.132857 -0.519379 0.270557
v 0.129719 -0.522891 0.267267
v 0.126172 -0.519490 0.270194
v 0.113756 -0.516914 0.251351
v 0.113365 -0.517838 0.257316
v 0.116385 -0.521171 0.253860
v 0.129567 -0.489579 0.268550
v 0.132741 -0.493895 0.271539
v 0.126056 -0.493990 0.271176
v 0.116941 -0.491857 0.255651
v 0.120548 -0.488415 0.259481
v 0.116551 -0.492763 0.261619
vn -0.2423 0.5887 -0.7712
vn -0.1171 0.9769 -0.1789
vn -0.8009 0.5364 -0.2659
vn -0.1056 0.8940 0.4354
vn -0.2106 0.3436 0.9152
vn -0.7890 0.4369 0.4318
vn -0.3286 -0.1277 -0.9358
vn -0.8755 -0.2761 -0.3967
vn -0.2995 -0.8268 -0.4761
vn -0.2939 -0.3923 0.8716
vn -0.2836 -0.9258 0.2501
vn -0.8577 -0.3836 0.3422
vn 0.3338 0.5832 -0.7406
vn 0.8183 0.5110 -0.2633
vn 0.4351 0.8834 -0.1742
vn 0.3686 0.3499 0.8612
vn 0.4483 0.8087 0.3808
vn 0.8342 0.4220 0.3549
vn 0.3358 -0.0566 -0.9402
vn 0.3799 -0.7752 -0.5047
vn 0.9000 -0.1351 -0.4145
vn 0.3709 -0.3219 0.8711
vn 0.9139 -0.2424 0.3258
vn 0.3913 -0.8819 0.2629
vn 0.1376 -0.4548 0.8799
vn 0.7576 -0.4516 0.4713
vn 0.1972 -0.9421 0.2714
vn 0.4701 -0.2013 -0.8594
vn 0.3276 -0.8535 -0.4054
vn 0.9066 -0.3502 -0.2353
vn 0.1725 0.2640 0.9490
vn 0.2826 0.8251 0.4893
vn 0.7781 0.2922 0.5561
vn 0.4855 0.5099 -0.7101
vn 0.9136 0.3915 -0.1098
vn 0.3957 0.9113 -0.1138
vn -0.5074 -0.3890 0.7689
vn -0.4376 -0.8867 0.1493
vn -0.9523 -0.2703 0.1416
vn -0.1750 -0.1329 -0.9756
vn -0.8068 -0.1676 -0.5666
vn -0.3093 -0.7884 -0.5317
vn -0.2838 0.8819 0.3765
vn -0.4338 0.3307 0.8381
vn -0.8508 0.4689 0.2372
vn -0.1187 0.5681 -0.8144
vn -0.1694 0.9597 -0.2241
vn -0.7119 0.5602 -0.4236
vn -0.1095 -0.3251 0.9393
vn 0.6181 -0.2462 0.7466
vn 0.1845 -0.8878 0.4217
vn 0.7404 -0.0855 -0.6667
vn 0.5410 -0.8069 -0.2370
vn 0.9817 -0.1497 0.1181
vn -0.1443 0.3946 0.9075
vn 0.0535 0.8773 0.4770
vn 0.4959 0.4854 0.7201
vn 0.5970 0.6122 -0.5185
vn 0.7986 0.5749 0.1784
vn 0.3125 0.9497 -0.0201
vn -0.7210 -0.3145 0.6175
vn -0.4600 -0.8864 0.0512
vn -0.9627 -0.2200 -0.1575
vn 0.1315 -0.0847 -0.9877
vn -0.6009 -0.1311 -0.7885
vn -0.1112 -0.7870 -0.6068
vn -0.3941 0.8927 0.2186
vn -0.6513 0.4115 0.6376
vn -0.8536 0.5174 -0.0608
vn 0.0982 0.6067 -0.7889
vn -0.1323 0.9510 -0.2795
vn -0.5424 0.5848 -0.6031
vn -0.2993 -0.4199 0.8568
vn 0.4261 -0.4101 0.8063
vn 0.0311 -0.9301 0.3661
vn 0.8340 -0.2210 -0.5056
vn 0.4685 -0.8691 -0.1587
vn 0.8972 -0.3352 0.2876
vn -0.2853 0.3083 0.9075
vn 0.0333 0.8367 0.5466
vn 0.4048 0.3235 0.8553
vn 0.7750 0.5062 -0.3784
vn 0.8356 0.4034 0.3728
vn 0.4087 0.9082 0.0906
vn -0.8375 -0.3473 0.4220
vn -0.4833 -0.8710 -0.0887
vn -0.9041 -0.2160 -0.3688
vn 0.2981 -0.1479 -0.9430
vn -0.4350 -0.1398 -0.8895
vn -0.0458 -0.7874 -0.6147
vn -0.3938 0.9042 0.1651
vn -0.7709 0.3847 0.5077
vn -0.8235 0.5142 -0.2398
vn 0.2890 0.5613 -0.7756
vn -0.0186 0.9565 -0.2911
vn -0.3920 0.5732 -0.7195
vn -0.3207 -0.4247 0.8466
vn 0.4053 -0.4316 0.8059
vn 0.0075 -0.9358 0.3525
vn 0.8379 -0.2288 -0.4956
vn 0.4544 -0.8753 -0.1654
vn 0.8852 -0.3586 0.2963
vn -0.2918 0.3026 0.9074
vn 0.0419 0.8274 0.5601
vn 0.3988 0.3005 0.8664
vn 0.7906 0.4976 -0.3567
vn 0.8375 0.3787 0.3939
vn 0.4244 0.8984 0.1130
vn -0.8525 -0.3313 0.4044
vn -0.5013 -0.8582 -0.1107
vn -0.9033 -0.1848 -0.3871
vn 0.3094 -0.1353 -0.9412
vn -0.4250 -0.1108 -0.8984
vn -0.0521 -0.7748 -0.6301
vn -0.3773 0.9098 0.1728
vn -0.7688 0.3975 0.5009
vn -0.8060 0.5394 -0.2437
vn 0.3109 0.5706 -0.7601
vn 0.0038 0.9616 -0.2746
vn -0.3689 0.5962 -0.7131
vn 0.2948 -0.4461 0.8451
vn 0.8440 -0.4238 0.3288
vn 0.2732 -0.9339 0.2306
vn 0.3294 -0.1869 -0.9255
vn 0.2881 -0.8404 -0.4591
vn 0.8616 -0.3187 -0.3952
vn 0.3134 0.2754 0.9088
vn 0.3265 0.8402 0.4329
vn 0.8528 0.3237 0.4099
vn 0.3429 0.5225 -0.7806
vn 0.8643 0.4227 -0.2724
vn 0.3363 0.9240 -0.1822
vn -0.3552 -0.4114 0.8394
vn -0.3628 -0.9048 0.2229
vn -0.8929 -0.3302 0.3062
vn -0.3225 -0.1515 -0.9344
vn -0.8799 -0.2248 -0.4186
vn -0.3522 -0.8095 -0.4697
vn -0.2599 0.8679 0.4233
vn -0.3083 0.3093 0.8996
vn -0.8242 0.4145 0.3859
vn -0.2742 0.5547 -0.7856
vn -0.2472 0.9502 -0.1898
vn -0.8073 0.5121 -0.2933
vn 0.7210 -0.3145 0.6175
vn 0.9627 -0.2200 -0.1575
vn 0.4600 -0.8864 0.0513
vn -0.1315 -0.0847 -0.9877
vn 0.1112 -0.7870 -0.6068
vn 0.6009 -0.1311 -0.7885
vn 0.6513 0.4115 0.6376
vn 0.3941 0.8927 0.2186
vn 0.8536 0.5174 -0.0608
vn -0.0982 0.6067 -0.7889
vn 0.5424 0.5848 -0.6031
vn 0.1323 0.9510 -0.2795
vn 0.1095 -0.3251 0.9393
vn -0.1845 -0.8878 0.4217
vn -0.6181 -0.2462 0.7466
vn -0.7404 -0.0855 -0.6667
vn -0.9817 -0.1497 0.1181
vn -0.5410 -0.8069 -0.2370
vn -0.0535 0.8773 0.4770
vn 0.1443 0.3946 0.9075
vn -0.4959 0.4854 0.7201
vn -0.5970 0.6122 -0.5185
vn -0.3125 0.9497 -0.0200
vn -0.7986 0.5749 0.1784
vn 0.8375 -0.3472 0.4220
vn 0.9041 -0.2160 -0.3688
vn 0.4833 -0.8710 -0.0887
vn -0.2981 -0.1479 -0.9430
vn 0.0458 -0.7874 -0.6147
vn 0.4350 -0.1398 -0.8895
vn 0.7709 0.3847 0.5077
vn 0.3938 0.9042 0.1651
vn 0.8235 0.5142 -0.2398
vn -0.2890 0.5613 -0.7756
vn 0.3920 0.5732 -0.7195
vn 0.0186 0.9565 -0.2911
vn 0.2993 -0.4199 0.8568
vn -0.0311 -0.9301 0.3661
vn -0.4261 -0.4101 0.8063
vn -0.8340 -0.2210 -0.5056
vn -0.8972 -0.3352 0.2876
vn -0.4685 -0.8691 -0.1587
vn -0.0333 0.8367 0.5466
vn 0.2853 0.3083 0.9075
vn -0.4048 0.3235 0.8553
vn -0.7750 0.5062 -0.3784
vn -0.4087 0.9082 0.0906
vn -0.8356 0.4034 0.3728
vn 0.8525 -0.3313 0.4044
vn 0.9033 -0.1848 -0.3871
vn 0.5013 -0.8582 -0.1107
vn -0.3094 -0.1353 -0.9412
vn 0.0521 -0.7748 -0.6301
vn 0.4250 -0.1108 -0.8984
vn 0.7688 0.3975 0.5010
vn 0.3773 0.9098 0.1728
vn 0.8060 0.5394 -0.2437
vn -0.3109 0.5706 -0.7601
vn 0.3689 0.5962 -0.7131
vn -0.0038 0.9616 -0.2746
vn 0.3207 -0.4247 0.8466
vn -0.0075 -0.9358 0.3525
vn -0.4053 -0.4316 0.8059
vn -0.8379 -0.2288 -0.4956
vn -0.8852 -0.3586 0.2963
vn -0.4544 -0.8753 -0.1653
vn -0.0419 0.8274 0.5601
vn 0.2918 0.3026 0.9074
vn -0.3988 0.3005 0.8664
vn -0.7906 0.4976 -0.3567
vn -0.4244 0.8984 0.1130
vn -0.8375 0.3787 0.3939
vt 0.487275 0.167004
vt 0.485229 0.169317
vt 0.487517 0.170168
vt 0.488169 0.175569
vt 0.486028 0.175095
vt 0.488379 0.176103
vt 0.486865 0.162203
vt 0.486958 0.162490
vt 0.484760 0.164037
vt 0.488193 0.172821
vt 0.485806 0.171357
vt 0.487938 0.170264
vt 0.495703 0.164972
vt 0.495682 0.168279
vt 0.498242 0.166341
vt 0.496252 0.174387
vt 0.498481 0.172348
vt 0.496002 0.173703
vt 0.496441 0.161967
vt 0.498884 0.163684
vt 0.496904 0.162156
vt 0.496995 0.172440
vt 0.497296 0.169988
vt 0.499133 0.170819
vt 0.480976 0.171982
vt 0.481112 0.169208
vt 0.483460 0.170329
vt 0.482362 0.161057
vt 0.484549 0.162835
vt 0.482094 0.161464
vt 0.481544 0.181690
vt 0.484015 0.180008
vt 0.481823 0.181214
vt 0.482692 0.172622
vt 0.482504 0.175830
vt 0.484823 0.174413
vt 0.471678 0.172232
vt 0.469471 0.170685
vt 0.471400 0.169463
vt 0.472232 0.161234
vt 0.471771 0.161667
vt 0.469712 0.163118
vt 0.475033 0.181340
vt 0.472417 0.180232
vt 0.474571 0.181836
vt 0.475222 0.172715
vt 0.472719 0.174585
vt 0.475432 0.175926
vt 0.462612 0.171300
vt 0.463784 0.168686
vt 0.465678 0.170031
vt 0.467021 0.160817
vt 0.468707 0.163158
vt 0.466967 0.161230
vt 0.458517 0.180443
vt 0.461562 0.179080
vt 0.458769 0.179665
vt 0.460576 0.174772
vt 0.459301 0.178179
vt 0.462314 0.177114
vt 0.452570 0.169605
vt 0.450695 0.167464
vt 0.452548 0.166770
vt 0.456166 0.158811
vt 0.455089 0.159070
vt 0.452935 0.160290
vt 0.458691 0.179650
vt 0.455801 0.178047
vt 0.457578 0.180278
vt 0.459598 0.174590
vt 0.456471 0.176048
vt 0.459222 0.178164
vt 0.444100 0.169585
vt 0.445074 0.166762
vt 0.447292 0.168376
vt 0.450212 0.158864
vt 0.451498 0.161255
vt 0.449344 0.159310
vt 0.443919 0.177539
vt 0.447101 0.176303
vt 0.444834 0.176959
vt 0.448858 0.168525
vt 0.447648 0.171792
vt 0.450146 0.170941
vt 0.434223 0.167642
vt 0.432683 0.165441
vt 0.434568 0.164667
vt 0.439570 0.156476
vt 0.438276 0.156891
vt 0.436139 0.157883
vt 0.438624 0.175628
vt 0.435866 0.173915
vt 0.437336 0.176170
vt 0.441867 0.166898
vt 0.438497 0.168291
vt 0.441221 0.170322
vt 0.427352 0.167380
vt 0.428084 0.164463
vt 0.430469 0.165872
vt 0.432360 0.156058
vt 0.433953 0.158342
vt 0.431584 0.156581
vt 0.427634 0.174807
vt 0.430746 0.173273
vt 0.428456 0.174128
vt 0.431721 0.165282
vt 0.430783 0.168678
vt 0.433297 0.167590
vt 0.417635 0.166381
vt 0.415847 0.164313
vt 0.417701 0.163372
vt 0.421789 0.154712
vt 0.420571 0.155237
vt 0.418482 0.156439
vt 0.422368 0.173404
vt 0.419442 0.171948
vt 0.421158 0.174075
vt 0.424787 0.164347
vt 0.421520 0.166055
vt 0.424453 0.167845
vt 0.511874 0.172924
vt 0.512062 0.170264
vt 0.514255 0.171467
vt 0.513233 0.162118
vt 0.515334 0.163940
vt 0.513042 0.162490
vt 0.511914 0.182429
vt 0.514278 0.180941
vt 0.512110 0.181986
vt 0.513003 0.173469
vt 0.512768 0.176547
vt 0.515060 0.175298
vt 0.502825 0.172659
vt 0.500695 0.171060
vt 0.502704 0.169988
vt 0.503385 0.161775
vt 0.503096 0.162156
vt 0.500951 0.163451
vt 0.504750 0.181730
vt 0.502366 0.180533
vt 0.504460 0.182180
vt 0.505024 0.173162
vt 0.502625 0.174832
vt 0.505099 0.176256
vt 0.547430 0.169605
vt 0.547452 0.166770
vt 0.549305 0.167464
vt 0.543834 0.158811
vt 0.547065 0.160290
vt 0.544911 0.159070
vt 0.542422 0.180278
vt 0.544199 0.178047
vt 0.541309 0.179650
vt 0.540402 0.174590
vt 0.540778 0.178164
vt 0.543529 0.176048
vt 0.537388 0.171300
vt 0.534322 0.170031
vt 0.536216 0.168686
vt 0.532979 0.160817
vt 0.533033 0.161230
vt 0.531293 0.163158
vt 0.541231 0.179665
vt 0.538438 0.179080
vt 0.541483 0.180443
vt 0.539424 0.174772
vt 0.537686 0.177114
vt 0.540699 0.178179
vt 0.565777 0.167642
vt 0.565432 0.164667
vt 0.567317 0.165441
vt 0.560430 0.156476
vt 0.563861 0.157883
vt 0.561724 0.156891
vt 0.562664 0.176170
vt 0.564134 0.173915
vt 0.561376 0.175628
vt 0.558133 0.166898
vt 0.558779 0.170322
vt 0.561503 0.168291
vt 0.555900 0.169585
vt 0.552708 0.168376
vt 0.554926 0.166762
vt 0.549788 0.158864
vt 0.550656 0.159310
vt 0.548502 0.161255
vt 0.555166 0.176959
vt 0.552899 0.176303
vt 0.556081 0.177539
vt 0.551142 0.168525
vt 0.549854 0.170941
vt 0.552352 0.171792
vt 0.582365 0.166381
vt 0.582299 0.163372
vt 0.584153 0.164313
vt 0.578211 0.154712
vt 0.581518 0.156439
vt 0.579429 0.155237
vt 0.578843 0.174075
vt 0.580558 0.171948
vt 0.577632 0.173404
vt 0.575213 0.164347
vt 0.575547 0.167845
vt 0.578480 0.166055
vt 0.572648 0.167380
vt 0.569531 0.165872
vt 0.571916 0.164463
vt 0.567640 0.156058
vt 0.568416 0.156581
vt 0.566047 0.158342
vt 0.571544 0.174128
vt 0.569254 0.173273
vt 0.572366 0.174807
vt 0.568279 0.165282
vt 0.566703 0.167590
vt 0.569217 0.168678
s 1
f 1/1/1 3/2/3 2/3/2
f 4/4/4 6/5/6 5/6/5
f 7/7/7 9/8/9 8/9/8
f 10/10/10 12/11/12 11/12/11
f 13/13/13 15/14/15 14/15/14
f 16/16/16 18/17/18 17/18/17
f 19/19/19 21/20/21 20/21/20
f 22/22/22 24/23/24 23/24/23
f 8/9/8 1/1/1 7/7/7
f 2/3/2 6/5/6 4/4/4
f 5/6/5 12/11/12 10/10/10
f 12/11/12 9/8/9 11/12/11
f 19/19/19 9/8/9 7/7/7
f 11/12/11 22/22/22 10/10/10
f 24/23/24 21/20/21 23/24/23
f 14/15/14 19/19/19 13/13/13
f 22/22/22 18/17/18 16/16/16
f 18/17/18 15/14/15 17/18/17
f 1/1/1 15/14/15 13/13/13
f 17/18/17 5/6/5 16/16/16
f 7/7/7 13/13/13 19/19/19
f 3/2/3 12/11/12 6/5/6
f 15/14/15 4/4/4 17/18/17
f 16/16/16 10/10/10 22/22/22
f 9/8/9 24/23/24 11/12/11
f 21/20/21 18/17/18 23/24/23
f 25/25/25 27/26/27 26/27/26
f 28/28/28 30/29/30 29/30/29
f 31/31/31 33/32/33 32/33/32
f 34/34/34 36/35/36 35/36/35
f 37/37/37 39/38/39 38/39/38
f 40/40/40 42/41/42 41/42/41
f 43/43/43 45/44/45 44/45/44
f 46/46/46 48/47/48 47/48/47
f 32/33/32 44/45/44 31/31/31
f 47/48/47 34/34/34 46/46/46
f 26/27/26 31/31/31 25/25/25
f 27/26/27 30/29/30 26/27/26
f 37/37/37 27/26/27 25/25/25
f 28/28/28 42/41/42 40/40/40
f 41/42/41 46/46/46 40/40/40
f 38/39/38 41/42/41 42/41/42
f 48/47/48 43/43/43 47/48/47
f 44/45/44 39/38/39 37/37/37
f 32/33/32 35/36/35 36/35/36
f 34/34/34 30/29/30 28/28/28
f 31/31/31 37/37/37 25/25/25
f 42/41/42 27/26/27 38/39/38
f 35/36/35 26/27/26 30/29/30
f 40/40/40 34/34/34 28/28/28
f 47/48/47 32/33/32 36/35/36
f 48/47/48 39/38/39 45/44/45
f 49/49/49 51/50/51 50/51/50
f 52/52/52 54/53/54 53/54/53
f 55/55/55 57/56/57 56/57/56
f 58/58/58 60/59/60 59/60/59
f 61/61/61 63/62/63 62/63/62
f 64/64/64 66/65/66 65/66/65
f 67/67/67 69/68/69 68/69/68
f 70/70/70 72/71/72 71/72/71
f 62/63/62 49/49/49 61/61/61
f 52/52/52 66/65/66 64/64/64
f 56/57/56 59/60/59 60/59/60
f 70/70/70 60/59/60 58/58/58
f 56/57/56 68/69/68 55/55/55
f 49/49/49 57/56/57 55/55/55
f 72/71/72 67/67/67 71/72/71
f 69/68/69 61/61/61 68/69/68
f 64/64/64 72/71/72 70/70/70
f 63/62/63 66/65/66 62/63/62
f 51/50/51 54/53/54 50/51/50
f 59/60/59 52/52/52 58/58/58
f 55/55/55 61/61/61 49/49/49
f 53/54/53 62/63/62 66/65/66
f 54/53/54 57/56/57 50/51/50
f 70/70/70 52/52/52 64/64/64
f 71/72/71 56/57/56 60/59/60
f 65/66/65 69/68/69 72/71/72
f 73/73/73 75/74/75 74/75/74
f 76/76/76 78/77/78 77/78/77
f 79/79/79 81/80/81 80/81/80
f 82/82/82 84/83/84 83/84/83
f 85/85/85 87/86/87 86/87/86
f 88/88/88 90/89/90 89/90/89
f 91/91/91 93/92/93 92/93/92
f 94/94/94 96/95/96 95/96/95
f 80/81/80 92/93/92 79/79/79
f 73/73/73 81/80/81 79/79/79
f 75/74/75 78/77/78 74/75/74
f 76/76/76 90/89/90 88/88/88
f 86/87/86 73/73/73 85/85/85
f 80/81/80 83/84/83 84/83/84
f 88/88/88 96/95/96 94/94/94
f 87/86/87 90/89/90 86/87/86
f 95/96/95 93/92/93 91/91/91
f 93/92/93 85/85/85 92/93/92
f 95/96/95 82/82/82 94/94/94
f 83/84/83 76/76/76 82/82/82
f 79/79/79 85/85/85 73/73/73
f 90/89/90 75/74/75 86/87/86
f 83/84/83 74/75/74 78/77/78
f 94/94/94 76/76/76 88/88/88
f 84/83/84 91/91/91 80/81/80
f 89/90/89 93/92/93 96/95/96
f 97/97/97 99/98/99 98/99/98
f 100/100/100 102/101/102 101/102/101
f 103/103/103 105/104/105 104/105/104
f 106/106/106 108/107/108 107/108/107
f 109/109/109 111/110/111 110/111/110
f 112/112/112 114/113/114 113/114/113
f 115/115/115 117/116/117 116/117/116
f 118/118/118 120/119/120 119/120/119
f 110/111/110 97/97/97 109/109/109
f 105/104/105 108/107/108 104/105/104
f 119/120/119 106/106/106 118/118/118
f 97/97/97 105/104/105 103/103/103
f 104/105/104 116/117/116 103/103/103
f 98/99/98 101/102/101 102/101/102
f 120/119/120 115/115/115 119/120/119
f 117/116/117 109/109/109 116/117/116
f 112/112/112 120/119/120 118/118/118
f 110/111/110 113/114/113 114/113/114
f 100/100/100 114/113/114 112/112/112
f 107/108/107 100/100/100 106/106/106
f 103/103/103 109/109/109 97/97/97
f 101/102/101 110/111/110 114/113/114
f 107/108/107 98/99/98 102/101/102
f 118/118/118 100/100/100 112/112/112
f 108/107/108 115/115/115 104/105/104
f 120/119/120 111/110/111 117/116/117
f 121/121/121 123/122/123 122/123/122
f 124/124/124 126/125/126 125/126/125
f 127/127/127 129/128/129 128/129/128
f 130/130/130 132/131/132 131/132/131
f 133/133/133 135/134/135 134/135/134
f 136/136/136 138/137/138 137/138/137
f 139/139/139 141/140/141 140/141/140
f 142/142/142 144/143/144 143/144/143
f 127/127/127 139/139/139 140/141/140
f 123/122/123 126/125/126 122/123/122
f 124/124/124 138/137/138 136/136/136
f 128/129/128 131/132/131 132/131/132
f 134/135/134 121/121/121 133/133/133
f 142/142/142 132/131/132 130/130/130
f 137/138/137 142/142/142 136/136/136
f 134/135/134 137/138/137 138/137/138
f 143/144/143 141/140/141 139/139/139
f 140/141/140 135/134/135 133/133/133
f 122/123/122 127/127/127 121/121/121
f 130/130/130 126/125/126 124/124/124
f 127/127/127 133/133/133 121/121/121
f 138/137/138 123/122/123 134/135/134
f 126/125/126 129/128/129 122/123/122
f 142/142/142 124/124/124 136/136/136
f 143/144/143 128/129/128 132/131/132
f 144/143/144 135/134/135 141/140/141
f 145/145/145 147/146/147 146/147/146
f 148/148/148 150/149/150 149/150/149
f 151/151/151 153/152/153 152/153/152
f 154/154/154 156/155/156 155/156/155
f 157/157/157 159/158/159 158/159/158
f 160/160/160 162/161/162 161/162/161
f 163/163/163 165/164/165 164/165/164
f 166/166/166 168/167/168 167/168/167
f 158/159/158 145/145/145 157/157/157
f 166/166/166 156/155/156 154/154/154
f 145/145/145 153/152/153 151/151/151
f 147/146/147 150/149/150 146/147/146
f 151/151/151 163/163/163 164/165/164
f 149/150/149 160/160/160 148/148/148
f 168/167/168 163/163/163 167/168/167
f 165/164/165 157/157/157 164/165/164
f 160/160/160 168/167/168 166/166/166
f 159/158/159 162/161/162 158/159/158
f 153/152/153 156/155/156 152/153/152
f 155/156/155 148/148/148 154/154/154
f 145/145/145 164/165/164 157/157/157
f 162/161/162 147/146/147 158/159/158
f 155/156/155 146/147/146 150/149/150
f 160/160/160 154/154/154 148/148/148
f 156/155/156 163/163/163 152/153/152
f 161/162/161 165/164/165 168/167/168
f 169/169/169 171/170/171 170/171/170
f 172/172/172 174/173/174 173/174/173
f 175/175/175 177/176/177 176/177/176
f 178/178/178 180/179/180 179/180/179
f 181/181/181 183/182/183 182/183/182
f 184/184/184 186/185/186 185/186/185
f 187/187/187 189/188/189 188/189/188
f 190/190/190 192/191/192 191/192/191
f 175/175/175 187/187/187 188/189/188
f 173/174/173 184/184/184 172/172/172
f 177/176/177 180/179/180 176/177/176
f 190/190/190 180/179/180 178/178/178
f 181/181/181 171/170/171 169/169/169
f 169/169/169 177/176/177 175/175/175
f 184/184/184 192/191/192 190/190/190
f 183/182/183 186/185/186 182/183/182
f 192/191/192 187/187/187 191/192/191
f 189/188/189 181/181/181 188/189/188
f 170/171/170 173/174/173 174/173/174
f 179/180/179 172/172/172 178/178/178
f 169/169/169 188/189/188 181/181/181
f 173/174/173 182/183/182 186/185/186
f 174/173/174 177/176/177 170/171/170
f 190/190/190 172/172/172 184/184/184
f 191/192/191 176/177/176 180/179/180
f 192/191/192 183/182/183 189/188/189
f 193/193/193 195/194/195 194/195/194
f 196/196/196 198/197/198 197/198/197
f 199/199/199 201/200/201 200/201/200
f 202/202/202 204/203/204 203/204/203
f 205/205/205 207/206/207 206/207/206
f 208/208/208 210/209/210 209/210/209
f 211/211/211 213/212/213 212/213/212
f 214/214/214 216/215/216 215/216/215
f 205/205/205 195/194/195 193/193/193
f 193/193/193 201/200/201 199/199/199
f 195/194/195 198/197/198 194/195/194
f 197/198/197 208/208/208 196/196/196
f 200/201/200 212/213/212 199/199/199
f 200/201/200 203/204/203 204/203/204
f 216/215/216 211/211/211 215/216/215
f 213/212/213 205/205/205 212/213/212
f 208/208/208 216/215/216 214/214/214
f 206/207/206 209/210/209 210/209/210
f 214/214/214 204/203/204 202/202/202
f 203/204/203 196/196/196 202/202/202
f 199/199/199 205/205/205 193/193/193
f 210/209/210 195/194/195 206/207/206
f 203/204/203 194/195/194 198/197/198
f 208/208/208 202/202/202 196/196/196
f 215/216/215 200/201/200 204/203/204
f 209/210/209 213/212/213 216/215/216
f 8/9/8 3/2/3 1/1/1
f 2/3/2 3/2/3 6/5/6
f 5/6/5 6/5/6 12/11/12
f 12/11/12 8/9/8 9/8/9
f 19/19/19 20/21/20 9/8/9
f 11/12/11 24/23/24 22/22/22
f 24/23/24 20/21/20 21/20/21
f 14/15/14 21/20/21 19/19/19
f 22/22/22 23/24/23 18/17/18
f 18/17/18 14/15/14 15/14/15
f 1/1/1 2/3/2 15/14/15
f 17/18/17 4/4/4 5/6/5
f 7/7/7 1/1/1 13/13/13
f 3/2/3 8/9/8 12/11/12
f 15/14/15 2/3/2 4/4/4
f 16/16/16 5/6/5 10/10/10
f 9/8/9 20/21/20 24/23/24
f 21/20/21 14/15/14 18/17/18
f 32/33/32 43/43/43 44/45/44
f 47/48/47 36/35/36 34/34/34
f 26/27/26 33/32/33 31/31/31
f 27/26/27 29/30/29 30/29/30
f 37/37/37 38/39/38 27/26/27
f 28/28/28 29/30/29 42/41/42
f 41/42/41 48/47/48 46/46/46
f 38/39/38 39/38/39 41/42/41
f 48/47/48 45/44/45 43/43/43
f 44/45/44 45/44/45 39/38/39
f 32/33/32 33/32/33 35/36/35
f 34/34/34 35/36/35 30/29/30
f 31/31/31 44/45/44 37/37/37
f 42/41/42 29/30/29 27/26/27
f 35/36/35 33/32/33 26/27/26
f 40/40/40 46/46/46 34/34/34
f 47/48/47 43/43/43 32/33/32
f 48/47/48 41/42/41 39/38/39
f 62/63/62 51/50/51 49/49/49
f 52/52/52 53/54/53 66/65/66
f 56/57/56 57/56/57 59/60/59
f 70/70/70 71/72/71 60/59/60
f 56/57/56 67/67/67 68/69/68
f 49/49/49 50/51/50 57/56/57
f 72/71/72 69/68/69 67/67/67
f 69/68/69 63/62/63 61/61/61
f 64/64/64 65/66/65 72/71/72
f 63/62/63 65/66/65 66/65/66
f 51/50/51 53/54/53 54/53/54
f 59/60/59 54/53/54 52/52/52
f 55/55/55 68/69/68 61/61/61
f 53/54/53 51/50/51 62/63/62
f 54/53/54 59/60/59 57/56/57
f 70/70/70 58/58/58 52/52/52
f 71/72/71 67/67/67 56/57/56
f 65/66/65 63/62/63 69/68/69
f 80/81/80 91/91/91 92/93/92
f 73/73/73 74/75/74 81/80/81
f 75/74/75 77/78/77 78/77/78
f 76/76/76 77/78/77 90/89/90
f 86/87/86 75/74/75 73/73/73
f 80/81/80 81/80/81 83/84/83
f 88/88/88 89/90/89 96/95/96
f 87/86/87 89/90/89 90/89/90
f 95/96/95 96/95/96 93/92/93
f 93/92/93 87/86/87 85/85/85
f 95/96/95 84/83/84 82/82/82
f 83/84/83 78/77/78 76/76/76
f 79/79/79 92/93/92 85/85/85
f 90/89/90 77/78/77 75/74/75
f 83/84/83 81/80/81 74/75/74
f 94/94/94 82/82/82 76/76/76
f 84/83/84 95/96/95 91/91/91
f 89/90/89 87/86/87 93/92/93
f 110/111/110 99/98/99 97/97/97
f 105/104/105 107/108/107 108/107/108
f 119/120/119 108/107/108 106/106/106
f 97/97/97 98/99/98 105/104/105
f 104/105/104 115/115/115 116/117/116
f 98/99/98 99/98/99 101/102/101
f 120/119/120 117/116/117 115/115/115
f 117/116/117 111/110/111 109/109/109
f 112/112/112 113/114/113 120/119/120
f 110/111/110 111/110/111 113/114/113
f 100/100/100 101/102/101 114/113/114
f 107/108/107 102/101/102 100/100/100
f 103/103/103 116/117/116 109/109/109
f 101/102/101 99/98/99 110/111/110
f 107/108/107 105/104/105 98/99/98
f 118/118/118 106/106/106 100/100/100
f 108/107/108 119/120/119 115/115/115
f 120/119/120 113/114/113 111/110/111
f 127/127/127 128/129/128 139/139/139
f 123/122/123 125/126/125 126/125/126
f 124/124/124 125/126/125 138/137/138
f 128/129/128 129/128/129 131/132/131
f 134/135/134 123/122/123 121/121/121
f 142/142/142 143/144/143 132/131/132
f 137/138/137 144/143/144 142/142/142
f 134/135/134 135/134/135 137/138/137
f 143/144/143 144/143/144 141/140/141
f 140/141/140 141/140/141 135/134/135
f 122/123/122 129/128/129 127/127/127
f 130/130/130 131/132/131 126/125/126
f 127/127/127 140/141/140 133/133/133
f 138/137/138 125/126/125 123/122/123
f 126/125/126 131/132/131 129/128/129
f 142/142/142 130/130/130 124/124/124
f 143/144/143 139/139/139 128/129/128
f 144/143/144 137/138/137 135/134/135
f 158/159/158 147/146/147 145/145/145
f 166/166/166 167/168/167 156/155/156
f 145/145/145 146/147/146 153/152/153
f 147/146/147 149/150/149 150/149/150
f 151/151/151 152/153/152 163/163/163
f 149/150/149 162/161/162 160/160/160
f 168/167/168 165/164/165 163/163/163
f 165/164/165 159/158/159 157/157/157
f 160/160/160 161/162/161 168/167/168
f 159/158/159 161/162/161 162/161/162
f 153/152/153 155/156/155 156/155/156
f 155/156/155 150/149/150 148/148/148
f 145/145/145 151/151/151 164/165/164
f 162/161/162 149/150/149 147/146/147
f 155/156/155 153/152/153 146/147/146
f 160/160/160 166/166/166 154/154/154
f 156/155/156 167/168/167 163/163/163
f 161/162/161 159/158/159 165/164/165
f 175/175/175 176/177/176 187/187/187
f 173/174/173 186/185/186 184/184/184
f 177/176/177 179/180/179 180/179/180
f 190/190/190 191/192/191 180/179/180
f 181/181/181 182/183/182 171/170/171
f 169/169/169 170/171/170 177/176/177
f 184/184/184 185/186/185 192/191/192
f 183/182/183 185/186/185 186/185/186
f 192/191/192 189/188/189 187/187/187
f 189/188/189 183/182/183 181/181/181
f 170/171/170 171/170/171 173/174/173
f 179/180/179 174/173/174 172/172/172
f 169/169/169 175/175/175 188/189/188
f 173/174/173 171/170/171 182/183/182
f 174/173/174 179/180/179 177/176/177
f 190/190/190 178/178/178 172/172/172
f 191/192/191 187/187/187 176/177/176
f 192/191/192 185/186/185 183/182/183
f 205/205/205 206/207/206 195/194/195
f 193/193/193 194/195/194 201/200/201
f 195/194/195 197/198/197 198/197/198
f 197/198/197 210/209/210 208/208/208
f 200/201/200 211/211/211 212/213/212
f 200/201/200 201/200/201 203/204/203
f 216/215/216 213/212/213 211/211/211
f 213/212/213 207/206/207 205/205/205
f 208/208/208 209/210/209 216/215/216
f 206/207/206 207/206/207 209/210/209
f 214/214/214 215/216/215 204/203/204
f 203/204/203 198/197/198 196/196/196
f 199/199/199 212/213/212 205/205/205
f 210/209/210 197/198/197 195/194/195
f 203/204/203 201/200/201 194/195/194
f 208/208/208 214/214/214 202/202/202
f 215/216/215 211/211/211 200/201/200
f 209/210/209 207/206/207 213/212/213
