# Blender 5.2.1 LTS
# www.blender.org
o ZombieHead2Gore
v -0.103470 -0.355308 0.336183
v -0.091608 -0.380293 0.335092
v -0.130021 -0.388780 0.288001
v -0.164115 -0.518413 0.206606
v -0.127015 -0.531817 0.252785
v -0.148795 -0.506741 0.236295
v -0.134569 -0.509966 0.195415
v -0.124741 -0.503570 0.236960
v -0.151198 -0.379400 0.173204
v -0.155076 -0.383127 0.222465
v -0.095857 -0.406690 0.191857
v -0.183774 -0.443454 0.106646
v -0.188680 -0.479769 0.081965
v -0.179384 -0.497063 0.141693
v -0.158194 -0.503455 0.176570
v -0.168149 -0.486131 0.108023
v -0.160811 -0.467682 0.105779
v -0.153424 -0.482440 0.105278
v -0.126479 -0.503381 0.126504
v -0.134289 -0.438979 0.148066
v -0.112480 -0.423354 0.166369
v -0.116427 -0.449243 0.141786
v -0.113111 -0.477398 0.126054
v -0.114630 -0.491813 0.117372
v -0.092464 -0.458052 0.107830
v -0.184374 -0.410534 0.121474
v -0.145757 -0.386756 0.153924
v -0.000479 -0.349075 0.369560
v -0.089997 -0.537120 0.279124
v -0.060832 -0.558977 0.312817
v -0.045646 -0.514168 0.285422
v -0.039502 -0.535787 0.297942
v 0.005901 -0.556273 0.318939
v -0.002050 -0.519992 0.279654
v -0.011695 -0.524342 0.295119
v -0.045985 -0.334634 0.370953
v -0.076129 -0.395169 0.321854
v -0.035198 -0.386850 0.352995
v -0.053743 -0.406038 0.277008
v 0.019409 -0.409489 0.301961
v 0.005950 -0.387333 0.356103
v -0.088134 -0.506720 0.264610
v -0.066288 -0.519220 0.221475
v -0.100349 -0.511960 0.172761
v -0.010066 -0.520657 0.171361
v 0.017924 -0.522241 0.223121
v 0.005056 -0.589237 0.182480
v -0.079247 -0.407587 0.244011
v -0.075961 -0.409483 0.190200
v -0.030931 -0.394609 0.211014
v -0.006178 -0.398630 0.158272
v 0.005215 -0.395270 0.240999
v -0.041112 -0.588483 0.163068
v 0.009247 -0.510178 0.112049
v -0.082824 -0.498836 0.132765
v -0.094075 -0.480649 0.117847
v -0.065190 -0.463406 0.082096
v -0.046425 -0.478277 0.079804
v -0.031400 -0.508418 0.119891
v -0.057719 -0.433102 0.090895
v -0.102487 -0.428850 0.157383
v -0.067751 -0.419473 0.119468
v -0.043605 -0.416700 0.109811
v -0.010708 -0.422930 0.089221
v 0.003102 -0.486509 0.077602
v -0.009413 -0.450792 0.060460
v -0.246790 0.116464 0.358348
v -0.228415 0.124624 0.370561
v -0.201675 0.131164 0.399372
v -0.261364 -0.000164 0.331485
v -0.236817 -0.019737 0.342050
v -0.202224 -0.018272 0.311498
v -0.276057 0.021692 0.319657
v -0.280166 0.056149 0.312166
v -0.251180 0.047007 0.265610
v -0.232857 0.023219 0.259235
v -0.272727 0.089665 0.331437
v -0.262883 0.102698 0.343235
v -0.243443 0.090672 0.286089
v -0.226817 0.102048 0.290482
v -0.232852 0.075981 0.260628
v -0.214464 0.049147 0.235421
v -0.178576 -0.034643 0.379032
v -0.147311 -0.031060 0.386070
v -0.120152 -0.017025 0.389058
v -0.065019 -0.088637 0.389390
v -0.168775 0.133011 0.409405
v -0.150215 0.123580 0.357171
v -0.137497 0.127277 0.420047
v -0.111034 0.104191 0.351122
v -0.111323 0.112915 0.422273
v -0.164333 -0.313887 0.357348
v -0.148903 -0.333351 0.324868
v -0.105982 -0.328974 0.351994
v -0.158966 -0.019965 0.315632
v -0.120067 -0.007025 0.322085
v -0.198535 0.019180 0.243572
v -0.152953 -0.002619 0.273965
v -0.132068 0.024350 0.258718
v -0.117739 0.074738 0.278096
v -0.198743 0.123097 0.337982
v -0.176828 0.106373 0.284205
v -0.141988 0.107903 0.308776
v -0.181735 0.059710 0.230587
v -0.165201 0.021193 0.242819
v -0.142516 0.052505 0.243626
v -0.198839 0.087971 0.254532
v -0.156081 0.085925 0.257319
v -0.078695 -0.312645 0.387305
v -0.037422 -0.322632 0.384205
v -0.044530 -0.306530 0.427126
v -0.004661 -0.317878 0.401127
v 0.000243 -0.314181 0.421184
v -0.068063 -0.226741 0.432387
v -0.060982 -0.209641 0.420469
v -0.077657 -0.185298 0.403657
v -0.070014 -0.168481 0.384183
v -0.046514 -0.190456 0.373507
v -0.005426 -0.211140 0.431695
v -0.031393 -0.206903 0.395307
v -0.027543 -0.191926 0.370924
v -0.000694 -0.245195 0.448997
v -0.008255 -0.180935 0.372706
v -0.001069 -0.190961 0.403690
v -0.079854 -0.126426 0.385594
v -0.066421 -0.145202 0.367792
v 0.000042 -0.166893 0.378964
v -0.000924 -0.114404 0.377989
v -0.000142 -0.127613 0.370096
v -0.028191 -0.078244 0.383445
v 0.003638 -0.086835 0.384396
v 0.007535 -0.054530 0.386023
v -0.076286 0.021472 0.399885
v -0.066976 0.035744 0.405392
v -0.071211 0.069519 0.414393
v -0.083502 0.089012 0.412003
v -0.042742 -0.152850 0.342847
v -0.041404 -0.106691 0.353880
v -0.037163 -0.172192 0.352272
v -0.034696 -0.133827 0.339542
v -0.015897 -0.160710 0.353071
v -0.015605 -0.124164 0.353612
v -0.092065 0.084052 0.344773
v -0.099135 0.055408 0.286269
v -0.104345 0.007986 0.309860
v -0.082467 0.045488 0.328864
v -0.067242 -0.513944 -0.059987
v -0.036221 -0.515796 -0.067232
v 0.000097 -0.516579 -0.072736
v -0.024207 -0.501859 -0.079336
v 0.045724 -0.514097 0.285740
v 0.088477 -0.555726 0.303916
v 0.087789 -0.530002 0.283110
v 0.082449 -0.504474 0.270175
v 0.128987 -0.529078 0.259261
v 0.038496 -0.356447 0.359497
v 0.064178 -0.410148 0.278738
v 0.091304 -0.379731 0.334095
v 0.075259 -0.346438 0.352266
v 0.044108 -0.387221 0.350726
v 0.107389 -0.386395 0.314971
v 0.113165 -0.401496 0.248030
v 0.120524 -0.505755 0.256509
v 0.078005 -0.507770 0.213863
v 0.098420 -0.495921 0.250432
v 0.036542 -0.398042 0.229989
v 0.032132 -0.397593 0.183530
v 0.080784 -0.407917 0.190898
v 0.110306 -0.402664 0.186764
v 0.054544 -0.591098 0.151418
v 0.052044 -0.507994 0.128285
v 0.083211 -0.432301 0.115294
v 0.087936 -0.490115 0.122142
v 0.124571 -0.501559 0.126941
v 0.083315 -0.500876 0.143702
v 0.101458 -0.470185 0.118268
v 0.076209 -0.449352 0.088666
v 0.052512 -0.410520 0.134930
v 0.100418 -0.420574 0.169080
v 0.045806 -0.492414 0.090964
v 0.033058 -0.449822 0.065252
v 0.034767 -0.436011 0.076030
v 0.039102 -0.471180 0.071931
v 0.073121 -0.466099 0.086386
v 0.120850 -0.356917 0.320543
v 0.121831 -0.390667 0.267380
v 0.140295 -0.338962 0.318161
v 0.131057 -0.362795 0.270825
v 0.173181 -0.516313 0.208778
v 0.120549 -0.502490 0.193470
v 0.127770 -0.493048 0.230234
v 0.147117 -0.502651 0.200460
v 0.153226 -0.497826 0.241167
v 0.148100 -0.387548 0.226850
v 0.156120 -0.352070 0.245980
v 0.179917 -0.363070 0.216736
v 0.156144 -0.375171 0.156258
v 0.193690 -0.357642 0.193983
v 0.112115 -0.433427 0.159839
v 0.112552 -0.451249 0.137842
v 0.113227 -0.479157 0.125748
v 0.112111 -0.493098 0.118492
v 0.125557 -0.446398 0.146705
v 0.152762 -0.481408 0.102339
v 0.171464 -0.491679 0.132769
v 0.145817 -0.448574 0.135944
v 0.139796 -0.491343 0.113106
v 0.160177 -0.467777 0.103082
v 0.165940 -0.486337 0.105832
v 0.178118 -0.447341 0.108568
v 0.133862 -0.399007 0.161538
v 0.179728 -0.397338 0.123114
v 0.176100 -0.473454 0.076560
v 0.211143 -0.363325 0.186175
v 0.225027 -0.376655 0.196661
v 0.266352 -0.369071 0.185874
v 0.231598 -0.342572 0.164226
v 0.027781 -0.316537 0.408244
v 0.043481 -0.330028 0.381535
v 0.070357 -0.318658 0.394945
v 0.106195 -0.318341 0.378838
v -0.000050 -0.198275 0.416857
v 0.042769 -0.233657 0.443369
v 0.031843 -0.200145 0.383288
v 0.032455 -0.179060 0.353453
v 0.048084 -0.209956 0.425018
v 0.052061 -0.184503 0.365653
v 0.080074 -0.187908 0.409232
v 0.073631 -0.174294 0.391099
v 0.013027 -0.174527 0.361070
v 0.024080 -0.108968 0.353430
v 0.067863 -0.149887 0.369947
v 0.075475 -0.122272 0.378127
v 0.072942 -0.098626 0.390136
v 0.035709 -0.080064 0.384083
v 0.101155 -0.027322 0.395033
v 0.061793 0.058039 0.416101
v 0.061385 0.036502 0.411685
v 0.070533 0.002831 0.401878
v 0.073146 0.061821 0.366999
v 0.078153 0.027194 0.335281
v 0.081489 0.087652 0.430086
v 0.109364 0.099659 0.353023
v 0.019858 -0.136362 0.343901
v 0.037153 -0.150091 0.340907
v 0.043686 -0.106548 0.355303
v 0.044936 -0.126494 0.341645
v 0.095214 -0.006186 0.337293
v 0.091739 0.042185 0.298597
v 0.094751 0.078924 0.333944
v 0.104303 0.011518 0.292943
v 0.164608 -0.309157 0.377535
v 0.129022 -0.033025 0.346210
v 0.132019 -0.043810 0.385084
v 0.180472 -0.049198 0.371812
v 0.110317 0.110208 0.423304
v 0.134954 0.111620 0.354623
v 0.145645 0.123225 0.417519
v 0.182471 0.115881 0.330726
v 0.210212 0.122406 0.382619
v 0.207468 0.131272 0.398305
v 0.112341 -0.329570 0.349563
v 0.147734 -0.339433 0.273062
v 0.147578 -0.318090 0.339556
v 0.152782 -0.292932 0.306653
v 0.148963 -0.303711 0.256533
v 0.204475 -0.257650 0.297521
v 0.131989 -0.009047 0.286554
v 0.168294 -0.038694 0.334183
v 0.167618 -0.007701 0.264393
v 0.123397 0.066252 0.265302
v 0.130059 0.011031 0.263359
v 0.160354 0.108404 0.314994
v 0.193394 0.100971 0.294252
v 0.163936 -0.327313 0.204554
v 0.171799 -0.282742 0.235621
v 0.181331 -0.313789 0.187549
v 0.204924 -0.336357 0.171183
v 0.208861 -0.285742 0.191981
v 0.122836 0.039538 0.257245
v 0.154920 0.068184 0.245859
v 0.159353 0.030483 0.234412
v 0.195905 0.032100 0.229269
v 0.201319 0.002213 0.255950
v 0.187362 0.067505 0.239389
v 0.217410 -0.042976 0.356449
v 0.219718 -0.020605 0.298425
v 0.254851 -0.025421 0.341953
v 0.269503 -0.009759 0.329269
v 0.234175 0.010630 0.263669
v 0.257213 0.021269 0.277266
v 0.276804 0.007980 0.319964
v 0.279191 0.060448 0.316028
v 0.282696 0.034392 0.306474
v 0.240399 0.109000 0.350579
v 0.242690 0.087739 0.295577
v 0.267666 0.084974 0.326812
v 0.225848 -0.252227 0.278820
v 0.207161 -0.274338 0.214535
v 0.250685 -0.263045 0.230210
v 0.254286 -0.290245 0.175620
v 0.231996 0.066325 0.256468
v 0.226427 0.042616 0.239904
v 0.218950 -0.310823 0.166706
v 0.258410 -0.310879 0.162347
v 0.037692 -0.512370 -0.064650
vn -0.3989 -0.4067 0.8218
vn -0.4358 -0.2448 0.8661
vn -0.2702 -0.9563 0.1121
vn -0.2503 0.9658 0.0681
vn -0.3733 0.4761 0.7962
vn -0.2006 0.9544 0.2209
vn 0.0172 0.9979 0.0622
vn -0.0818 0.9486 0.3058
vn -0.4558 -0.8885 0.0525
vn -0.3736 -0.9275 -0.0089
vn -0.2920 -0.9124 0.2867
vn -0.5577 -0.4261 0.7123
vn -0.6916 0.3518 0.6308
vn 0.1792 0.9594 0.2177
vn 0.0857 0.9769 0.1960
vn -0.1665 0.6185 0.7679
vn -0.4499 -0.2546 0.8560
vn -0.1185 0.2592 0.9585
vn 0.0049 0.8924 0.4513
vn -0.3980 -0.4631 0.7919
vn -0.2856 -0.6069 0.7417
vn 0.3111 -0.5901 0.7450
vn 0.1208 -0.4205 0.8992
vn -0.1913 0.2525 0.9485
vn 0.6916 -0.1573 0.7050
vn -0.5717 -0.2888 0.7679
vn -0.5925 -0.5100 0.6235
vn -0.0423 -0.6086 0.7924
vn -0.3886 0.4736 0.7904
vn -0.2009 0.6531 0.7301
vn -0.0690 0.8601 0.5055
vn -0.1817 0.5467 0.8174
vn 0.0037 0.5725 0.8199
vn -0.0218 0.9968 0.0764
vn -0.0158 0.7555 0.6550
vn -0.2388 -0.5451 0.8036
vn -0.1373 -0.9662 0.2180
vn -0.0690 -0.8377 0.5418
vn -0.0322 -0.9988 0.0375
vn 0.0080 -0.9909 0.1345
vn 0.0010 -0.9254 0.3789
vn -0.1632 0.8864 0.4331
vn 0.1305 0.9903 -0.0476
vn 0.0951 0.9836 0.1533
vn 0.0001 0.9937 0.1123
vn -0.1077 0.9942 0.0061
vn -0.0248 -0.9995 0.0203
vn -0.0553 -0.9973 0.0486
vn 0.1431 -0.9719 0.1871
vn 0.1266 -0.9916 0.0280
vn 0.0383 -0.9790 0.2003
vn -0.0332 -0.9927 -0.1160
vn -0.0150 0.9249 0.3798
vn 0.1310 0.8459 0.5170
vn 0.2807 0.4326 0.8568
vn 0.5527 0.1075 0.8264
vn 0.3094 0.5776 0.7554
vn 0.1621 0.9070 0.3887
vn 0.4223 -0.6031 0.6767
vn 0.3424 -0.8124 0.4720
vn 0.4209 -0.8309 0.3640
vn 0.1766 -0.9037 0.3900
vn 0.0377 -0.8428 0.5369
vn 0.0315 0.6645 0.7466
vn 0.1092 -0.1675 0.9798
vn 0.3100 -0.9059 0.2884
vn 0.1704 -0.9643 0.2029
vn 0.0401 -0.9904 0.1321
vn 0.5109 0.7382 0.4405
vn 0.2973 0.8908 0.3437
vn 0.1689 0.9162 0.3635
vn 0.7257 0.4848 0.4882
vn 0.8362 -0.1587 0.5250
vn 0.7635 0.0192 0.6456
vn 0.5254 0.5775 0.6249
vn 0.6581 -0.6309 0.4110
vn 0.4728 -0.8160 0.3326
vn 0.5833 -0.6432 0.4961
vn 0.3059 -0.8584 0.4117
vn 0.5375 -0.5138 0.6687
vn 0.3812 -0.0240 0.9242
vn -0.0476 0.9797 0.1945
vn -0.3162 0.9341 0.1655
vn -0.5737 0.8109 0.1157
vn 0.5472 -0.5089 0.6645
vn -0.1121 -0.9860 0.1232
vn -0.2421 -0.9522 0.1865
vn -0.3735 -0.9210 0.1110
vn -0.5639 -0.7984 0.2110
vn -0.5504 -0.8290 0.0994
vn -0.1813 -0.8663 0.4655
vn -0.2680 -0.7900 0.5515
vn -0.2689 -0.7055 0.6557
vn -0.1641 0.9442 0.2855
vn -0.4907 0.8405 0.2298
vn 0.1716 0.6215 0.7644
vn -0.2335 0.8291 0.5080
vn -0.5884 0.4324 0.6833
vn -0.6195 -0.5742 0.5352
vn 0.0731 -0.9679 0.2404
vn -0.0648 -0.9064 0.4174
vn -0.3709 -0.8635 0.3417
vn -0.0496 -0.2250 0.9731
vn -0.1989 0.5150 0.8338
vn -0.5057 -0.1109 0.8556
vn 0.1532 -0.7271 0.6693
vn -0.3161 -0.6943 0.6466
vn -0.1762 -0.8681 0.4640
vn -0.1867 -0.8106 0.5550
vn -0.1256 -0.9355 0.3302
vn -0.0533 -0.8716 0.4873
vn 0.0009 -0.9835 0.1811
vn -0.1277 0.5495 0.8257
vn 0.1271 0.7973 0.5901
vn 0.2822 0.6685 0.6881
vn 0.6362 0.5285 0.5621
vn 0.4456 0.6802 0.5820
vn -0.1026 0.6849 0.7214
vn -0.0936 0.9179 0.3856
vn -0.1915 0.7659 0.6138
vn -0.0465 0.4473 0.8932
vn -0.6587 0.5302 0.5338
vn -0.2132 0.8239 0.5251
vn 0.5790 -0.3033 0.7568
vn 0.6825 -0.2369 0.6914
vn -0.0107 0.4670 0.8842
vn -0.0245 -0.5450 0.8381
vn 0.0104 -0.2502 0.9681
vn -0.0845 -0.5016 0.8610
vn -0.0102 -0.1504 0.9886
vn -0.0090 -0.0492 0.9987
vn -0.8029 0.5730 0.1644
vn -0.9745 0.1050 0.1985
vn -0.9219 -0.3475 0.1715
vn -0.7515 -0.6477 0.1254
vn 0.2842 0.2149 0.9344
vn 0.2294 -0.5313 0.8155
vn 0.1135 0.5564 0.8231
vn 0.0380 -0.1629 0.9859
vn -0.5660 0.2795 0.7756
vn -0.5863 -0.3130 0.7472
vn -0.7991 -0.5465 0.2505
vn -0.8452 -0.1195 0.5209
vn -0.7202 0.5966 0.3541
vn -0.9570 0.0376 0.2876
vn -0.2234 -0.5222 -0.8230
vn -0.1977 -0.5401 -0.8181
vn 0.1510 -0.1860 -0.9709
vn -0.1045 -0.5078 -0.8551
vn -0.0069 0.8673 0.4977
vn 0.2089 0.5635 0.7992
vn 0.3000 0.5129 0.8043
vn 0.0111 0.8562 0.5165
vn 0.4776 0.2719 0.8355
vn 0.2179 -0.5065 0.8342
vn 0.0877 -0.9906 0.1053
vn 0.5295 -0.1954 0.8255
vn 0.3579 -0.5232 0.7734
vn 0.1701 -0.8216 0.5440
vn 0.2811 -0.9132 0.2949
vn 0.3445 -0.9305 0.1242
vn 0.2728 0.6115 0.7427
vn -0.2248 0.9742 -0.0209
vn -0.1289 0.9704 0.2042
vn -0.1745 -0.9819 -0.0733
vn -0.1248 -0.9878 0.0936
vn -0.0785 -0.9848 0.1552
vn 0.4038 -0.8839 0.2361
vn -0.2436 0.9360 0.2540
vn -0.5291 -0.7115 0.4624
vn -0.2156 0.7367 0.6410
vn -0.0110 0.9460 0.3238
vn -0.1369 0.9700 0.2007
vn -0.6404 -0.0068 0.7680
vn -0.6050 -0.3443 0.7179
vn -0.2349 -0.9186 0.3178
vn -0.0226 -0.8253 0.5642
vn -0.2843 0.7407 0.6087
vn -0.2466 -0.1985 0.9486
vn -0.2244 -0.7312 0.6442
vn -0.2605 0.4100 0.8741
vn -0.5691 0.2873 0.7705
vn 0.5805 -0.5682 0.5833
vn 0.5065 -0.8290 0.2370
vn 0.7244 -0.5992 0.3409
vn 0.7457 -0.6013 0.2869
vn 0.5004 0.8478 -0.1756
vn -0.0764 0.9962 -0.0410
vn 0.0168 0.9988 -0.0452
vn 0.1773 0.9803 -0.0873
vn 0.2813 0.9588 0.0396
vn 0.4278 -0.9038 0.0111
vn 0.9291 0.0512 0.3662
vn 0.7582 0.4867 0.4339
vn 0.5710 -0.8110 0.1271
vn 0.6322 0.3860 0.6718
vn -0.0677 -0.6248 0.7778
vn -0.5712 -0.4806 0.6654
vn -0.1699 -0.4927 0.8535
vn 0.1797 0.4108 0.8939
vn 0.1619 -0.5794 0.7988
vn 0.1782 0.1837 0.9667
vn -0.1957 0.9711 0.1368
vn 0.5054 -0.4666 0.7259
vn 0.0607 0.7359 0.6744
vn 0.5796 -0.3783 0.7218
vn 0.1601 0.6954 0.7005
vn 0.5995 -0.4779 0.6420
vn 0.6023 -0.4396 0.6664
vn 0.6314 -0.2327 0.7397
vn 0.8097 -0.2372 0.5369
vn 0.3267 0.5157 0.7920
vn 0.0653 0.6813 0.7291
vn 0.2014 0.3042 0.9311
vn -0.0034 -0.9177 0.3973
vn 0.1506 -0.7829 0.6037
vn 0.1652 -0.8905 0.4240
vn 0.2347 -0.8896 0.3918
vn -0.1178 0.8665 0.4851
vn 0.0373 0.5578 0.8291
vn 0.0960 0.9010 0.4230
vn 0.0789 0.6022 0.7944
vn -0.0592 0.7623 0.6445
vn -0.5243 0.6125 0.5916
vn -0.1821 0.7333 0.6551
vn -0.6348 0.6134 0.4698
vn 0.6114 0.4844 0.6258
vn 0.3794 -0.5739 0.7258
vn -0.7122 0.2435 0.6584
vn -0.5547 -0.5433 0.6302
vn -0.3585 -0.4530 0.8163
vn -0.0479 -0.5302 0.8465
vn 0.6241 0.7564 0.1962
vn 0.9732 -0.0630 0.2211
vn 0.9770 0.0381 0.2098
vn 0.8835 0.4227 0.2017
vn 0.9106 -0.3417 0.2325
vn 0.9352 0.1754 0.3076
vn 0.6776 -0.7238 0.1298
vn 0.5543 -0.7995 0.2312
vn 0.5168 -0.0549 0.8543
vn -0.1566 0.2372 0.9588
vn -0.3479 -0.6474 0.6780
vn -0.2812 -0.2515 0.9261
vn 0.7099 0.6369 0.3006
vn 0.8729 -0.0875 0.4800
vn 0.7332 -0.5990 0.3219
vn 0.7384 0.4445 0.5072
vn 0.8272 -0.5018 -0.2529
vn 0.3908 0.8738 0.2892
vn 0.4250 0.8801 0.2114
vn -0.0442 0.9584 0.2819
vn 0.5134 -0.8508 0.1122
vn 0.3089 -0.9293 0.2024
vn 0.2677 -0.9543 0.1327
vn -0.0182 -0.9631 0.2684
vn -0.3949 -0.8614 0.3194
vn -0.0102 -0.9742 0.2256
vn 0.3654 -0.7482 0.5537
vn 0.9351 -0.2807 0.2163
vn 0.8032 -0.5864 0.1054
vn 0.8695 -0.4934 -0.0242
vn 0.9262 -0.3262 0.1891
vn 0.4659 -0.8780 0.1100
vn 0.4121 0.7898 0.4543
vn 0.0651 0.9284 0.3658
vn 0.1145 0.7988 0.5906
vn 0.5892 -0.5336 0.6067
vn 0.5430 0.5162 0.6624
vn 0.2295 -0.9024 0.3646
vn -0.0973 -0.8935 0.4384
vn 0.8541 -0.0143 0.5199
vn 0.6180 -0.7259 0.3019
vn 0.6489 -0.2942 0.7017
vn 0.4573 0.1884 0.8691
vn 0.3185 -0.7491 0.5809
vn 0.6685 0.0234 0.7434
vn 0.3114 -0.5673 0.7624
vn 0.3003 0.1971 0.9332
vn -0.1134 0.2005 0.9731
vn -0.1851 0.7278 0.6604
vn -0.0308 -0.5894 0.8073
vn -0.1367 0.9297 0.3421
vn -0.2390 0.8653 0.4406
vn -0.3750 0.8385 0.3954
vn -0.4738 0.7462 0.4676
vn -0.4779 0.5992 0.6424
vn -0.7095 0.3390 0.6178
vn -0.7692 0.4183 0.4831
vn -0.7250 -0.4340 0.5349
vn -0.8121 0.0420 0.5819
vn -0.2718 -0.9166 0.2933
vn -0.4617 -0.7650 0.4491
vn -0.5880 -0.6983 0.4083
vn 0.3078 -0.9275 0.2123
vn 0.2669 -0.8876 0.3754
vn 0.1116 -0.9261 0.3605
vn 0.1275 -0.8072 0.5763
vn -0.5121 -0.5689 0.6435
vn -0.5213 -0.0344 0.8527
vn 0.3053 -0.3042 0.9024
vn 0.1097 -0.0339 0.9934
vn 0.2179 -0.0766 -0.9730
vt 0.410559 0.160317
vt 0.425895 0.155616
vt 0.422879 0.155573
vt 0.450359 0.159084
vt 0.448829 0.160159
vt 0.453715 0.133339
vt 0.404021 0.138615
vt 0.385780 0.173420
vt 0.426256 0.154473
vt 0.403112 0.196062
vt 0.333686 0.142228
vt 0.342601 0.124280
vt 0.382759 0.136014
vt 0.375016 0.108687
vt 0.356402 0.137207
vt 0.416249 0.118434
vt 0.383605 0.108515
vt 0.376881 0.102489
vt 0.340883 0.124158
vt 0.345716 0.117172
vt 0.383728 0.140084
vt 0.390580 0.123412
vt 0.408134 0.131392
vt 0.405383 0.140989
vt 0.469431 0.164932
vt 0.479021 0.162723
vt 0.474761 0.163018
vt 0.502944 0.165733
vt 0.493696 0.163287
vt 0.452480 0.248397
vt 0.457528 0.235616
vt 0.480370 0.267577
vt 0.469501 0.193317
vt 0.510216 0.202566
vt 0.463034 0.221819
vt 0.484183 0.236229
vt 0.498833 0.157068
vt 0.512758 0.128892
vt 0.450022 0.178825
vt 0.432508 0.217241
vt 0.439527 0.147625
vt 0.476835 0.157718
vt 0.503443 0.174316
vt 0.411229 0.096757
vt 0.392779 0.096766
vt 0.387186 0.095717
vt 0.393188 0.070816
vt 0.416144 0.060699
vt 0.417894 0.100718
vt 0.409956 0.077562
vt 0.439840 0.087946
vt 0.493791 0.120389
vt 0.475418 0.042944
vt 0.513104 0.069043
vt 0.506358 0.050389
vt 0.480991 0.066642
vt 0.386628 0.516333
vt 0.393738 0.499876
vt 0.383523 0.521178
vt 0.387790 0.575390
vt 0.383590 0.542358
vt 0.379443 0.540707
vt 0.395977 0.574236
vt 0.404015 0.583249
vt 0.383949 0.568141
vt 0.394489 0.585984
vt 0.415398 0.596833
vt 0.412084 0.588755
vt 0.408357 0.484352
vt 0.391157 0.519405
vt 0.382408 0.548739
vt 0.394454 0.584642
vt 0.436639 0.598275
vt 0.449652 0.589249
vt 0.437768 0.592880
vt 0.451255 0.587765
vt 0.453454 0.267634
vt 0.431399 0.285604
vt 0.431599 0.261063
vt 0.429925 0.473741
vt 0.425745 0.482037
vt 0.441986 0.476119
vt 0.443210 0.493496
vt 0.452328 0.486699
vt 0.418960 0.497343
vt 0.448303 0.507773
vt 0.411419 0.597944
vt 0.431403 0.597858
vt 0.413223 0.588524
vt 0.436260 0.577224
vt 0.446942 0.557581
vt 0.458470 0.573632
vt 0.393769 0.563866
vt 0.404919 0.522930
vt 0.415759 0.558544
vt 0.424881 0.526621
vt 0.484547 0.278398
vt 0.498151 0.286702
vt 0.483467 0.302673
vt 0.477077 0.354095
vt 0.475151 0.347862
vt 0.498000 0.355215
vt 0.480282 0.350891
vt 0.487387 0.346925
vt 0.488203 0.348366
vt 0.499754 0.340896
vt 0.499981 0.358679
vt 0.499578 0.359356
vt 0.496475 0.356170
vt 0.473668 0.429698
vt 0.467500 0.401113
vt 0.471564 0.382047
vt 0.500018 0.367953
vt 0.501506 0.429284
vt 0.488320 0.436095
vt 0.499611 0.406449
vt 0.503106 0.455339
vt 0.460896 0.542452
vt 0.473941 0.527621
vt 0.472915 0.552157
vt 0.468175 0.566419
vt 0.458976 0.580540
vt 0.480260 0.367419
vt 0.483272 0.355974
vt 0.483793 0.381055
vt 0.492839 0.364155
vt 0.492981 0.392609
vt 0.481463 0.407388
vt 0.499939 0.394307
vt 0.469999 0.516773
vt 0.999789 0.044527
vt 1.078649 0.046789
vt 1.047134 0.052139
vt 0.502659 0.236659
vt 0.519911 0.235514
vt 0.552297 0.226311
vt 0.536017 0.193841
vt 0.525254 0.163191
vt 0.547140 0.162479
vt 0.555664 0.134154
vt 0.561339 0.084690
vt 0.547855 0.162314
vt 0.569909 0.162584
vt 0.525078 0.168498
vt 0.527585 0.139494
vt 0.563714 0.149655
vt 0.490662 0.101372
vt 0.574244 0.064921
vt 0.599311 0.094837
vt 0.583623 0.101929
vt 0.588684 0.135563
vt 0.623500 0.108470
vt 0.611795 0.075824
vt 0.612848 0.101865
vt 0.599497 0.101146
vt 0.559069 0.107930
vt 0.568260 0.060302
vt 0.585295 0.139221
vt 0.579246 0.054763
vt 0.574632 0.051313
vt 0.612998 0.081025
vt 0.533499 0.256205
vt 0.542458 0.235375
vt 0.557381 0.243471
vt 0.568125 0.189875
vt 0.568045 0.205264
vt 0.559597 0.158241
vt 0.580634 0.156135
vt 0.590083 0.165853
vt 0.600763 0.146226
vt 0.592052 0.194197
vt 0.584908 0.157280
vt 0.608979 0.119569
vt 0.597352 0.134719
vt 0.620597 0.101694
vt 0.616669 0.108058
vt 0.612662 0.129955
vt 0.656058 0.116135
vt 0.658991 0.123090
vt 0.630574 0.133120
vt 0.645134 0.132223
vt 0.659643 0.122404
vt 0.662879 0.138888
vt 0.610132 0.154083
vt 0.624942 0.169387
vt 0.684730 0.122647
vt 0.510814 0.290419
vt 0.500092 0.295995
vt 0.518060 0.274017
vt 0.513192 0.347268
vt 0.515305 0.346222
vt 0.517929 0.354752
vt 0.522509 0.352532
vt 0.529617 0.368603
vt 0.530753 0.365236
vt 0.510827 0.405011
vt 0.514573 0.351278
vt 0.505740 0.356763
vt 0.514754 0.434857
vt 0.536448 0.525092
vt 0.523557 0.527843
vt 0.527652 0.502209
vt 0.540575 0.578559
vt 0.529802 0.562906
vt 0.547813 0.583841
vt 0.544001 0.571162
vt 0.516978 0.252263
vt 0.549489 0.267161
vt 0.509180 0.380020
vt 0.517277 0.368678
vt 0.520814 0.388013
vt 0.528875 0.379291
vt 0.519471 0.407917
vt 0.523464 0.543642
vt 0.543788 0.494382
vt 0.539897 0.478704
vt 0.547441 0.542729
vt 0.531311 0.552115
vt 0.554440 0.511785
vt 0.557874 0.591070
vt 0.553418 0.586508
vt 0.580241 0.594752
vt 0.576428 0.590521
vt 0.566098 0.254060
vt 0.565252 0.274070
vt 0.578929 0.235821
vt 0.571731 0.220384
vt 0.583730 0.246254
vt 0.589927 0.492171
vt 0.556775 0.471623
vt 0.574249 0.467199
vt 0.571920 0.462287
vt 0.587168 0.467351
vt 0.568698 0.490875
vt 0.574942 0.594725
vt 0.589488 0.573359
vt 0.592540 0.588892
vt 0.590007 0.220045
vt 0.600269 0.254910
vt 0.607527 0.214949
vt 0.595831 0.302694
vt 0.573566 0.274829
vt 0.631698 0.248852
vt 0.622318 0.220773
vt 0.622217 0.263274
vt 0.573006 0.511949
vt 0.569289 0.570880
vt 0.570902 0.543869
vt 0.595022 0.534101
vt 0.612536 0.533755
vt 0.605692 0.569556
vt 0.606075 0.502163
vt 0.601935 0.481049
vt 0.601008 0.482320
vt 0.609167 0.492701
vt 0.615582 0.509592
vt 0.619032 0.517882
vt 0.617033 0.560315
vt 0.618580 0.526197
vt 0.615163 0.545320
vt 0.609412 0.571783
vt 0.609217 0.563186
vt 0.595664 0.579899
vt 0.631772 0.290561
vt 0.653804 0.259978
vt 0.620402 0.540895
vt 0.639240 0.213578
vt 0.646430 0.230669
vt 0.634989 0.209823
vt 0.651832 0.220284
vt 0.660724 0.247053
vt 0.915992 0.046165
vt 0.393163 0.149859
vt 0.342719 0.157068
vt 0.379336 0.159598
vt 0.315225 0.128936
vt 0.499794 0.259071
vt 0.459232 0.076109
vt 0.555028 0.084617
vt 0.504408 0.095630
vt 0.460693 0.088602
vt 0.403620 0.484910
vt 0.390418 0.565553
vt 0.468096 0.286965
vt 0.425575 0.590774
vt 0.471310 0.370349
vt 0.469751 0.365195
vt 0.134066 0.055248
vt 0.047134 0.052139
vt 0.078649 0.046789
vt 0.545088 0.164807
vt 0.573475 0.159404
vt 0.610210 0.153978
vt 0.641735 0.111676
vt 0.654413 0.159638
vt 0.635690 0.213499
vt 0.653030 0.229717
vt 0.528058 0.286326
vt 0.543498 0.283461
vt 0.531356 0.402254
vt 0.529417 0.422473
vt 0.552565 0.465875
vt 0.579957 0.587015
vt 0.565438 0.295037
vt 0.610269 0.210031
vt 0.624879 0.208164
vt 0.608356 0.304972
vt 0.613509 0.506003
s 1
f 6/1/6 5/2/5 8/3/8
f 8/3/8 29/4/29 42/5/42
f 8/3/8 43/6/43 7/7/7
f 9/8/9 11/9/11 10/10/10
f 12/11/12 17/12/17 20/13/20
f 19/14/19 14/15/14 44/16/44
f 20/13/20 17/12/17 23/17/23
f 24/18/24 16/19/16 19/14/19
f 18/20/18 16/19/16 24/18/24
f 17/12/17 18/20/18 24/18/24
f 15/21/15 7/7/7 44/16/44
f 23/17/23 17/12/17 24/18/24
f 22/22/22 61/23/60 21/24/21
f 29/4/29 30/25/30 32/26/32
f 29/4/29 32/26/32 31/27/31
f 32/26/32 30/25/30 33/28/33
f 31/27/31 32/26/32 35/29/35
f 32/26/32 33/28/33 35/29/35
f 1/30/1 2/31/2 36/32/36
f 39/33/39 40/34/40 37/35/37
f 40/34/40 38/36/38 37/35/37
f 43/6/43 34/37/34 46/38/46
f 11/9/11 48/39/48 3/40/3
f 11/9/11 49/41/49 48/39/48
f 48/39/48 39/33/39 37/35/37
f 50/42/50 48/39/48 49/41/49
f 52/43/52 39/33/39 50/42/50
f 24/18/24 55/44/54 56/45/55
f 25/46/25 23/17/23 56/45/55
f 57/47/56 56/45/55 55/44/54
f 58/48/57 57/47/56 55/44/54
f 62/49/61 61/23/60 22/22/22
f 61/23/60 49/41/49 11/9/11
f 60/50/59 63/51/62 62/49/61
f 50/42/50 49/41/49 62/49/61
f 51/52/51 50/42/50 62/49/61
f 57/47/56 58/48/57 66/53/65
f 58/48/57 54/54/53 65/55/64
f 66/53/65 58/48/57 65/55/64
f 60/50/59 64/56/63 63/51/62
f 64/56/63 60/50/59 66/53/65
f 73/57/72 70/58/69 76/59/75
f 79/60/78 74/61/73 75/62/74
f 78/63/77 79/60/78 67/64/66
f 79/60/78 75/62/74 81/65/80
f 79/60/78 80/66/79 67/64/66
f 81/65/80 80/66/79 79/60/78
f 101/67/100 68/68/67 80/66/79
f 76/59/75 72/69/71 97/70/96
f 81/65/80 82/71/81 107/72/106
f 88/73/87 89/74/88 87/75/86
f 90/76/89 89/74/88 88/73/87
f 94/77/93 92/78/91 93/79/92
f 94/77/93 93/79/92 1/30/1
f 72/69/71 83/80/82 95/81/94
f 83/80/82 84/82/83 95/81/94
f 96/83/95 84/82/83 85/84/84
f 97/70/96 72/69/71 98/85/97
f 98/85/97 72/69/71 95/81/94
f 98/85/97 96/83/95 145/86/144
f 96/83/95 85/84/84 145/86/144
f 102/87/101 101/67/100 80/66/79
f 101/67/100 88/73/87 87/75/86
f 102/87/101 103/88/102 88/73/87
f 103/88/102 102/87/101 108/89/107
f 100/90/99 103/88/102 108/89/107
f 100/90/99 144/91/143 143/92/142
f 82/71/81 97/70/96 104/93/103
f 97/70/96 98/85/97 105/94/104
f 104/93/103 105/94/104 106/95/105
f 105/94/104 98/85/97 99/96/98
f 100/90/99 106/95/105 144/91/143
f 108/89/107 102/87/101 107/72/106
f 108/89/107 104/93/103 106/95/105
f 110/97/109 94/77/93 36/32/36
f 110/97/109 112/98/111 111/99/110
f 115/100/114 114/101/113 119/102/118
f 118/103/117 115/100/114 120/104/119
f 120/104/119 115/100/114 119/102/118
f 118/103/117 120/104/119 121/105/120
f 119/102/118 114/101/113 122/106/121
f 222/107/219 124/108/123 123/109/122
f 86/110/85 125/111/124 126/112/125
f 123/109/122 124/108/123 127/113/126
f 131/114/130 130/115/129 128/116/127
f 130/115/129 131/114/130 132/117/131
f 146/118/145 134/119/133 135/120/134
f 90/76/89 136/121/135 91/122/90
f 143/92/142 135/120/134 136/121/135
f 137/123/136 118/103/117 139/124/138
f 140/125/139 126/112/125 137/123/136
f 139/124/138 118/103/117 121/105/120
f 121/105/120 123/109/122 141/126/140
f 139/124/138 121/105/120 141/126/140
f 130/115/129 142/127/141 128/116/127
f 130/115/129 138/128/137 142/127/141
f 140/125/139 141/126/140 142/127/141
f 123/109/122 127/113/126 141/126/140
f 142/127/141 129/129/128 128/116/127
f 145/86/144 85/84/84 133/130/132
f 144/91/143 146/118/145 143/92/142
f 146/118/145 145/86/144 134/119/133
f 149/131/148 148/132/147 150/133/149
f 40/34/40 41/134/41 38/36/38
f 40/34/40 160/135/159 41/134/41
f 161/136/160 160/135/159 157/137/156
f 46/38/46 34/37/34 151/138/150
f 46/38/46 151/138/150 154/139/153
f 46/38/46 154/139/153 164/140/163
f 171/141/169 46/38/46 164/140/163
f 154/139/153 153/142/152 163/143/162
f 157/137/156 40/34/40 166/144/165
f 167/145/166 168/146/167 166/144/165
f 45/147/45 46/38/46 171/141/169
f 54/54/53 171/141/169 180/148/178
f 180/148/178 171/141/169 173/149/171
f 175/150/173 171/141/169 164/140/163
f 175/150/173 190/151/188 174/152/172
f 184/153/182 173/149/171 176/154/174
f 172/155/170 178/156/176 182/157/180
f 179/158/177 168/146/167 178/156/176
f 66/53/65 182/157/180 64/56/63
f 66/53/65 65/55/64 183/159/181
f 66/53/65 183/159/181 181/160/179
f 181/160/179 182/157/180 66/53/65
f 65/55/64 180/148/178 183/159/181
f 182/157/180 181/160/179 177/161/175
f 177/161/175 181/160/179 184/153/182
f 183/159/181 180/148/178 184/153/182
f 159/162/158 158/163/157 185/164/183
f 162/165/161 186/166/184 161/136/160
f 164/140/163 165/167/164 190/151/188
f 191/168/189 165/167/164 193/169/191
f 192/170/190 190/151/188 191/168/189
f 192/170/190 191/168/189 193/169/191
f 162/165/161 194/171/192 186/166/184
f 194/171/192 162/165/161 169/172/168
f 200/173/198 199/174/197 172/155/170
f 173/149/171 175/150/173 202/175/200
f 176/154/174 202/175/200 201/176/199
f 176/154/174 200/173/198 177/161/175
f 203/177/201 199/174/197 200/173/198
f 204/178/202 201/176/199 202/175/200
f 208/179/206 201/176/199 204/178/202
f 208/179/206 206/180/204 201/176/199
f 205/181/203 190/151/188 192/170/190
f 209/182/207 174/152/172 205/181/203
f 210/183/208 206/180/204 208/179/206
f 208/179/206 204/178/202 209/182/207
f 179/158/177 211/184/209 169/172/168
f 197/185/195 169/172/168 211/184/209
f 199/174/197 203/177/201 206/180/204
f 211/184/209 199/174/197 206/180/204
f 213/186/211 208/179/206 209/182/207
f 210/183/208 208/179/206 213/186/211
f 112/98/111 218/187/215 113/188/112
f 219/189/216 218/187/215 112/98/111
f 124/108/123 222/107/219 224/190/221
f 119/102/118 122/106/121 223/191/220
f 226/192/223 119/102/118 223/191/220
f 227/193/224 226/192/223 229/194/226
f 226/192/223 228/195/225 229/194/226
f 231/196/228 128/116/127 129/129/128
f 225/197/222 230/198/227 124/108/123
f 131/114/130 128/116/127 235/199/232
f 132/117/131 131/114/130 235/199/232
f 241/200/238 238/201/235 239/202/236
f 256/203/253 242/204/239 243/205/240
f 243/205/240 242/204/239 250/206/247
f 156/207/155 159/162/158 219/189/216
f 159/162/158 262/208/259 219/189/216
f 225/197/222 224/190/221 227/193/224
f 244/209/241 129/129/128 127/113/126
f 231/196/228 129/129/128 244/209/241
f 245/210/242 230/198/227 225/197/222
f 244/209/241 230/198/227 245/210/242
f 231/196/228 244/209/241 247/211/244
f 247/211/244 227/193/224 232/212/229
f 246/213/243 235/199/232 231/196/228
f 241/200/238 237/214/234 238/201/235
f 248/215/245 239/202/236 236/216/233
f 249/217/246 250/206/247 240/218/237
f 251/219/248 249/217/246 241/200/238
f 257/220/254 258/221/255 256/203/253
f 259/222/256 261/223/258 258/221/255
f 159/162/158 185/164/183 262/208/259
f 187/224/185 264/225/261 262/208/259
f 263/226/260 187/224/185 188/227/186
f 263/226/260 264/225/261 187/224/185
f 266/228/263 264/225/261 263/226/260
f 270/229/267 253/230/250 269/231/266
f 269/231/266 255/232/252 286/233/283
f 270/229/267 269/231/266 286/233/283
f 268/234/265 248/215/245 253/230/250
f 273/235/270 257/220/254 243/205/240
f 281/236/278 274/237/271 273/235/270
f 195/238/193 266/228/263 263/226/260
f 276/239/273 266/228/263 275/240/272
f 276/239/273 267/241/264 265/242/262
f 279/243/276 276/239/273 277/244/274
f 299/245/296 276/239/273 279/243/276
f 272/246/269 249/217/246 251/219/248
f 271/247/268 249/217/246 280/248/277
f 271/247/268 282/249/279 281/236/278
f 282/249/279 272/246/269 270/229/267
f 281/236/278 283/250/280 285/251/282
f 282/249/279 270/229/267 283/250/280
f 283/250/280 270/229/267 284/252/281
f 281/236/278 273/235/270 271/247/268
f 281/236/278 285/251/282 274/237/271
f 286/233/283 288/253/285 287/254/284
f 287/254/284 288/253/285 289/255/286
f 290/256/287 287/254/284 289/255/286
f 291/257/288 290/256/287 289/255/286
f 302/258/299 294/259/291 293/260/290
f 296/261/293 259/222/256 274/237/271
f 297/262/294 295/263/292 296/261/293
f 296/261/293 293/260/290 297/262/294
f 300/264/297 299/245/296 279/243/276
f 301/265/298 300/264/297 279/243/276
f 285/251/282 283/250/280 303/266/300
f 284/252/281 287/254/284 290/256/287
f 303/266/300 291/257/288 294/259/291
f 302/258/299 274/237/271 285/251/282
f 277/244/274 278/267/275 304/268/301
f 278/267/275 214/269/212 217/270/214
f 279/243/276 304/268/301 301/265/298
f 304/268/301 217/270/214 305/271/302
f 306/272/303 149/131/148 150/133/149
f 8/3/8 5/2/5 29/4/29
f 6/1/6 8/3/8 7/7/7
f 4/273/4 6/1/6 7/7/7
f 7/7/7 15/21/15 4/273/4
f 10/10/10 11/9/11 3/40/3
f 17/12/17 16/19/16 18/20/18
f 16/19/16 14/15/14 19/14/19
f 44/16/44 14/15/14 15/21/15
f 22/22/22 21/24/21 20/13/20
f 22/22/22 20/13/20 23/17/23
f 25/46/25 22/22/22 23/17/23
f 26/274/26 12/11/12 20/13/20
f 27/275/27 26/274/26 20/13/20
f 21/24/21 27/275/27 20/13/20
f 27/275/27 21/24/21 11/9/11
f 27/275/27 11/9/11 9/8/9
f 13/276/13 16/19/16 17/12/17
f 42/5/42 29/4/29 31/27/31
f 34/37/34 31/27/31 35/29/35
f 38/36/38 28/277/28 36/32/36
f 45/147/45 44/16/44 43/6/43
f 43/6/43 31/27/31 34/37/34
f 45/147/45 43/6/43 46/38/46
f 43/6/43 8/3/8 42/5/42
f 44/16/44 7/7/7 43/6/43
f 31/27/31 43/6/43 42/5/42
f 48/39/48 37/35/37 3/40/3
f 48/39/48 50/42/50 39/33/39
f 39/33/39 52/43/52 40/34/40
f 51/52/51 52/43/52 50/42/50
f 59/278/58 44/16/44 45/147/45
f 54/54/53 59/278/58 45/147/45
f 170/279/47 47/280/47 53/281/47
f 55/44/54 19/14/19 44/16/44
f 55/44/54 24/18/24 19/14/19
f 56/45/55 23/17/23 24/18/24
f 56/45/55 57/47/56 25/46/25
f 60/50/59 22/22/22 25/46/25
f 55/44/54 44/16/44 59/278/58
f 58/48/57 55/44/54 59/278/58
f 61/23/60 11/9/11 21/24/21
f 61/23/60 62/49/61 49/41/49
f 62/49/61 22/22/22 60/50/59
f 62/49/61 63/51/62 51/52/51
f 63/51/62 64/56/63 51/52/51
f 25/46/25 57/47/56 60/50/59
f 60/50/59 57/47/56 66/53/65
f 58/48/57 59/278/58 54/54/53
f 73/57/72 75/62/74 74/61/73
f 76/59/75 75/62/74 73/57/72
f 71/282/70 76/59/75 70/58/69
f 79/60/78 77/283/76 74/61/73
f 78/63/77 77/283/76 79/60/78
f 67/64/66 80/66/79 68/68/67
f 76/59/75 71/282/70 72/69/71
f 82/71/81 75/62/74 76/59/75
f 81/65/80 75/62/74 82/71/81
f 97/70/96 82/71/81 76/59/75
f 80/66/79 81/65/80 107/72/106
f 90/76/89 91/122/90 89/74/88
f 92/78/91 94/77/93 109/284/108
f 72/69/71 71/282/70 83/80/82
f 96/83/95 95/81/94 84/82/83
f 96/83/95 98/85/97 95/81/94
f 99/96/98 98/85/97 145/86/144
f 68/68/67 101/67/100 69/285/68
f 101/67/100 87/75/86 69/285/68
f 101/67/100 102/87/101 88/73/87
f 103/88/102 90/76/89 88/73/87
f 100/90/99 90/76/89 103/88/102
f 100/90/99 143/92/142 90/76/89
f 104/93/103 97/70/96 105/94/104
f 106/95/105 105/94/104 99/96/98
f 99/96/98 145/86/144 144/91/143
f 106/95/105 99/96/98 144/91/143
f 107/72/106 102/87/101 80/66/79
f 107/72/106 82/71/81 104/93/103
f 108/89/107 107/72/106 104/93/103
f 100/90/99 108/89/107 106/95/105
f 110/97/109 109/284/108 94/77/93
f 110/97/109 111/99/110 109/284/108
f 28/277/28 110/97/109 36/32/36
f 28/277/28 112/98/111 110/97/109
f 118/103/117 117/286/116 115/100/114
f 117/286/116 116/287/115 115/100/114
f 120/104/119 119/102/118 222/107/219
f 121/105/120 120/104/119 123/109/122
f 123/109/122 120/104/119 222/107/219
f 138/128/137 130/115/129 86/110/85
f 36/32/36 94/77/93 1/30/1
f 118/103/117 137/123/136 117/286/116
f 138/128/137 86/110/85 126/112/125
f 138/128/137 126/112/125 140/125/139
f 137/123/136 139/124/138 141/126/140
f 140/125/139 137/123/136 141/126/140
f 142/127/141 138/128/137 140/125/139
f 141/126/140 127/113/126 129/129/128
f 142/127/141 141/126/140 129/129/128
f 144/91/143 145/86/144 146/118/145
f 145/86/144 133/130/132 134/119/133
f 90/76/89 143/92/142 136/121/135
f 143/92/142 146/118/145 135/120/134
f 147/288/146 150/289/149 148/290/147
f 151/138/150 35/29/35 33/28/33
f 34/37/34 35/29/35 151/138/150
f 151/138/150 33/28/33 152/291/151
f 153/142/152 151/138/150 152/291/151
f 154/139/153 151/138/150 153/142/152
f 40/34/40 157/137/156 160/135/159
f 159/162/158 156/207/155 160/135/159
f 157/137/156 162/165/161 161/136/160
f 165/167/164 164/140/163 154/139/153
f 163/143/162 165/167/164 154/139/153
f 51/52/51 167/145/166 52/43/52
f 167/145/166 166/144/165 52/43/52
f 52/43/52 166/144/165 40/34/40
f 166/144/165 168/146/167 157/137/156
f 169/172/168 157/137/156 168/146/167
f 54/54/53 45/147/45 171/141/169
f 173/149/171 171/141/169 175/150/173
f 180/148/178 173/149/171 184/153/182
f 175/150/173 164/140/163 190/151/188
f 172/155/170 177/161/175 200/173/198
f 64/56/63 178/156/176 51/52/51
f 178/156/176 167/145/166 51/52/51
f 178/156/176 168/146/167 167/145/166
f 172/155/170 179/158/177 178/156/176
f 172/155/170 199/174/197 179/158/177
f 180/148/178 65/55/64 54/54/53
f 184/153/182 181/160/179 183/159/181
f 177/161/175 172/155/170 182/157/180
f 182/157/180 178/156/176 64/56/63
f 188/227/186 187/224/185 185/164/183
f 155/292/154 163/143/162 153/142/152
f 190/151/188 165/167/164 191/168/189
f 193/169/191 165/167/164 163/143/162
f 189/293/187 192/170/190 193/169/191
f 157/137/156 169/172/168 162/165/161
f 169/172/168 197/185/195 194/171/192
f 176/154/174 173/149/171 202/175/200
f 200/173/198 176/154/174 201/176/199
f 176/154/174 177/161/175 184/153/182
f 203/177/201 200/173/198 201/176/199
f 202/175/200 175/150/173 174/152/172
f 205/181/203 174/152/172 190/151/188
f 203/177/201 201/176/199 206/180/204
f 207/294/205 202/175/200 174/152/172
f 204/178/202 202/175/200 207/294/205
f 209/182/207 207/294/205 174/152/172
f 204/178/202 207/294/205 209/182/207
f 169/172/168 168/146/167 179/158/177
f 211/184/209 179/158/177 199/174/197
f 212/295/210 211/184/209 206/180/204
f 212/295/210 206/180/204 210/183/208
f 217/270/214 215/296/213 216/297/213
f 112/98/111 28/277/28 219/189/216
f 219/189/216 28/277/28 156/207/155
f 219/189/216 220/298/217 218/187/215
f 219/189/216 221/299/218 220/298/217
f 262/208/259 221/299/218 219/189/216
f 222/107/219 119/102/118 226/192/223
f 224/190/221 222/107/219 226/192/223
f 225/197/222 124/108/123 224/190/221
f 227/193/224 224/190/221 226/192/223
f 228/195/225 226/192/223 223/191/220
f 124/108/123 230/198/227 127/113/126
f 235/199/232 233/300/230 234/301/231
f 235/199/232 246/213/243 233/300/230
f 240/218/237 250/206/247 242/204/239
f 230/198/227 244/209/241 127/113/126
f 246/213/243 231/196/228 247/211/244
f 247/211/244 244/209/241 245/210/242
f 227/193/224 229/194/226 232/212/229
f 246/213/243 247/211/244 233/300/230
f 245/210/242 225/197/222 227/193/224
f 247/211/244 245/210/242 227/193/224
f 231/196/228 235/199/232 128/116/127
f 241/200/238 240/218/237 237/214/234
f 248/215/245 241/200/238 239/202/236
f 241/200/238 249/217/246 240/218/237
f 248/215/245 251/219/248 241/200/238
f 253/230/250 236/216/233 254/302/251
f 243/205/240 257/220/254 256/203/253
f 257/220/254 259/222/256 258/221/255
f 259/222/256 260/303/257 261/223/258
f 262/208/259 264/225/261 221/299/218
f 185/164/183 187/224/185 262/208/259
f 266/228/263 265/242/262 264/225/261
f 264/225/261 265/242/262 252/304/249
f 253/230/250 248/215/245 236/216/233
f 269/231/266 253/230/250 254/302/251
f 268/234/265 253/230/250 270/229/267
f 249/217/246 271/247/268 250/206/247
f 268/234/265 251/219/248 248/215/245
f 268/234/265 272/246/269 251/219/248
f 243/205/240 250/206/247 271/247/268
f 271/247/268 273/235/270 243/205/240
f 273/235/270 259/222/256 257/220/254
f 274/237/271 259/222/256 273/235/270
f 263/226/260 188/227/186 195/238/193
f 195/238/193 275/240/272 266/228/263
f 266/228/263 276/239/273 265/242/262
f 196/305/194 275/240/272 195/238/193
f 276/239/273 275/240/272 277/244/274
f 198/306/196 278/267/275 275/240/272
f 276/239/273 298/307/295 267/241/264
f 277/244/274 275/240/272 278/267/275
f 272/246/269 280/248/277 249/217/246
f 282/249/279 280/248/277 272/246/269
f 271/247/268 280/248/277 282/249/279
f 270/229/267 272/246/269 268/234/265
f 281/236/278 282/249/279 283/250/280
f 287/254/284 270/229/267 286/233/283
f 291/257/288 292/308/289 294/259/291
f 259/222/256 295/263/292 260/303/257
f 296/261/293 295/263/292 259/222/256
f 296/261/293 302/258/299 293/260/290
f 298/307/295 276/239/273 299/245/296
f 279/243/276 277/244/274 304/268/301
f 299/245/296 300/264/297 298/307/295
f 284/252/281 270/229/267 287/254/284
f 283/250/280 284/252/281 290/256/287
f 302/258/299 285/251/282 303/266/300
f 303/266/300 283/250/280 290/256/287
f 303/266/300 290/256/287 291/257/288
f 302/258/299 303/266/300 294/259/291
f 302/258/299 296/261/293 274/237/271
f 217/270/214 304/268/301 278/267/275
