# Blender 5.2.1 LTS
# www.blender.org
o ZombieTeethUpper
v -0.037526 -0.396422 0.364281
v -0.037559 -0.400316 0.368782
v -0.042272 -0.396236 0.368527
v -0.037645 -0.400316 0.381049
v -0.037675 -0.396422 0.385550
v -0.042361 -0.396236 0.381250
v -0.037555 -0.355458 0.361817
v -0.042301 -0.355275 0.366062
v -0.037593 -0.351563 0.365849
v -0.037739 -0.355458 0.388014
v -0.037720 -0.351563 0.383982
v -0.042425 -0.355275 0.383714
v -0.011564 -0.397438 0.364431
v -0.006878 -0.397621 0.368731
v -0.012040 -0.401314 0.368929
v -0.011713 -0.397438 0.385699
v -0.012126 -0.401314 0.381195
v -0.006967 -0.397621 0.381453
v -0.006814 -0.356661 0.361993
v -0.006387 -0.352784 0.366028
v -0.002128 -0.356847 0.366293
v -0.006998 -0.356661 0.388191
v -0.002252 -0.356847 0.383945
v -0.006514 -0.352784 0.384161
v -0.091109 -0.356556 0.370888
v -0.084576 -0.356738 0.369331
v -0.087979 -0.352745 0.368232
v -0.077027 -0.356556 0.348727
v -0.077990 -0.352745 0.352511
v -0.075227 -0.356738 0.354619
v -0.099058 -0.399600 0.359568
v -0.097338 -0.403420 0.354905
v -0.092539 -0.399858 0.357991
v -0.091839 -0.399600 0.348208
v -0.090065 -0.399858 0.354099
v -0.095428 -0.403420 0.351899
v -0.110986 -0.355505 0.360549
v -0.109574 -0.351603 0.356999
v -0.112781 -0.355247 0.354660
v -0.096904 -0.355505 0.338388
v -0.103433 -0.355247 0.339947
v -0.099584 -0.351603 0.341278
v -0.098101 -0.403379 0.354508
v -0.101241 -0.399485 0.358433
v -0.103019 -0.399304 0.352540
v -0.094022 -0.399485 0.347072
v -0.096192 -0.403379 0.351502
v -0.100546 -0.399304 0.348647
v -0.125792 -0.355962 0.354463
v -0.119120 -0.355909 0.353997
v -0.122641 -0.352072 0.351687
v -0.107076 -0.355962 0.334658
v -0.109617 -0.352072 0.337905
v -0.106548 -0.355909 0.340693
v -0.126328 -0.385613 0.350991
v -0.123319 -0.389503 0.347304
v -0.119657 -0.385573 0.350523
v -0.110951 -0.385613 0.334718
v -0.110425 -0.385573 0.340754
v -0.114508 -0.389503 0.337981
v -0.140745 -0.356156 0.342896
v -0.138290 -0.352275 0.339583
v -0.141274 -0.356196 0.336860
v -0.122030 -0.356156 0.323090
v -0.128702 -0.356196 0.323556
v -0.125266 -0.352275 0.325800
v -0.132578 -0.389623 0.340142
v -0.136221 -0.385741 0.343338
v -0.136747 -0.385795 0.337303
v -0.120844 -0.385741 0.327065
v -0.123768 -0.389623 0.330818
v -0.127515 -0.385795 0.327533
v -0.151878 -0.355706 0.337027
v -0.145300 -0.355553 0.336575
v -0.148861 -0.351865 0.334253
v -0.133153 -0.355706 0.317277
v -0.135724 -0.351865 0.320397
v -0.132645 -0.355553 0.323227
v -0.151694 -0.382911 0.334156
v -0.148625 -0.386750 0.330571
v -0.145117 -0.382771 0.333702
v -0.136262 -0.382911 0.317878
v -0.135756 -0.382771 0.323829
v -0.139711 -0.386750 0.321168
v -0.166150 -0.356294 0.325951
v -0.163845 -0.352483 0.322624
v -0.166658 -0.356434 0.320000
v -0.147426 -0.356294 0.306200
v -0.154003 -0.356434 0.306652
v -0.150709 -0.352483 0.308768
v -0.157440 -0.387113 0.323730
v -0.161155 -0.383301 0.326813
v -0.161660 -0.383453 0.320863
v -0.145723 -0.383301 0.310536
v -0.148525 -0.387113 0.314327
v -0.152299 -0.383453 0.310989
v 0.037295 -0.355436 0.387602
v 0.042016 -0.355260 0.383257
v 0.037720 -0.351563 0.383982
v 0.037117 -0.355436 0.362233
v 0.037593 -0.351563 0.365849
v 0.041899 -0.355260 0.366524
v 0.036164 -0.366157 0.386036
v 0.036152 -0.370256 0.381057
v 0.040977 -0.364999 0.381631
v 0.036008 -0.366157 0.363813
v 0.040883 -0.364999 0.368162
v 0.036066 -0.370256 0.368791
v 0.007192 -0.356640 0.387999
v 0.006514 -0.352784 0.384161
v 0.002435 -0.356829 0.383738
v 0.007011 -0.356640 0.362182
v 0.002314 -0.356829 0.366498
v 0.006387 -0.352784 0.366028
v 0.010573 -0.378234 0.381204
v 0.010072 -0.374258 0.385908
v 0.005529 -0.375750 0.381637
v 0.009920 -0.374258 0.364241
v 0.010486 -0.378234 0.368938
v 0.005437 -0.375750 0.368563
v 0.074172 -0.356682 0.377741
v 0.077663 -0.356954 0.372594
v 0.073775 -0.352822 0.373728
v 0.067487 -0.356682 0.352343
v 0.069132 -0.352822 0.356088
v 0.073168 -0.356954 0.355514
v 0.068337 -0.389548 0.376557
v 0.066568 -0.393409 0.372265
v 0.071828 -0.389819 0.371409
v 0.062868 -0.389548 0.355780
v 0.068549 -0.389819 0.358951
v 0.063428 -0.393409 0.360332
v 0.052921 -0.355421 0.382320
v 0.051914 -0.351526 0.378438
v 0.047240 -0.355150 0.379149
v 0.046236 -0.355421 0.356922
v 0.042745 -0.355150 0.362069
v 0.047271 -0.351526 0.360798
v 0.050911 -0.392480 0.375639
v 0.052108 -0.388585 0.380054
v 0.046427 -0.388313 0.376882
v 0.046639 -0.388585 0.359277
v 0.047770 -0.392480 0.363706
v 0.043148 -0.388313 0.364424
v 0.110986 -0.355505 0.360549
v 0.112781 -0.355247 0.354660
v 0.109574 -0.351603 0.356999
v 0.096904 -0.355505 0.338388
v 0.099584 -0.351603 0.341278
v 0.103433 -0.355247 0.339947
v 0.101241 -0.399485 0.358433
v 0.098101 -0.403379 0.354508
v 0.103019 -0.399304 0.352540
v 0.094022 -0.399485 0.347072
v 0.100546 -0.399304 0.348647
v 0.096192 -0.403379 0.351502
v 0.091109 -0.356556 0.370888
v 0.087979 -0.352745 0.368232
v 0.084576 -0.356738 0.369331
v 0.077027 -0.356556 0.348727
v 0.075227 -0.356738 0.354619
v 0.077990 -0.352745 0.352511
v 0.097338 -0.403420 0.354905
v 0.099058 -0.399600 0.359568
v 0.092539 -0.399858 0.357991
v 0.091839 -0.399600 0.348208
v 0.095428 -0.403420 0.351899
v 0.090065 -0.399858 0.354099
v 0.140833 -0.356160 0.342889
v 0.141359 -0.356202 0.336859
v 0.138290 -0.352275 0.339583
v 0.122052 -0.356160 0.323013
v 0.125266 -0.352275 0.325800
v 0.128717 -0.356202 0.323480
v 0.136068 -0.392468 0.343396
v 0.132505 -0.396353 0.340199
v 0.136592 -0.392519 0.337366
v 0.120757 -0.392468 0.327193
v 0.127422 -0.392519 0.327662
v 0.123694 -0.396353 0.330875
v 0.125770 -0.355964 0.354541
v 0.122641 -0.352072 0.351687
v 0.119105 -0.355913 0.354073
v 0.106988 -0.355964 0.334665
v 0.106463 -0.355913 0.340695
v 0.109617 -0.352072 0.337905
v 0.123245 -0.396232 0.347362
v 0.126267 -0.392341 0.350977
v 0.119602 -0.392299 0.350509
v 0.110956 -0.392341 0.334775
v 0.114434 -0.396232 0.338038
v 0.110432 -0.392299 0.340805
v 0.166150 -0.356294 0.325951
v 0.166658 -0.356434 0.320000
v 0.163845 -0.352483 0.322624
v 0.147426 -0.356294 0.306200
v 0.150709 -0.352483 0.308768
v 0.154003 -0.356434 0.306652
v 0.161155 -0.383301 0.326813
v 0.157440 -0.387113 0.323730
v 0.161660 -0.383453 0.320863
v 0.145723 -0.383301 0.310536
v 0.152299 -0.383453 0.310989
v 0.148525 -0.387113 0.314327
v 0.151878 -0.355706 0.337027
v 0.148861 -0.351865 0.334253
v 0.145300 -0.355553 0.336575
v 0.133153 -0.355706 0.317277
v 0.132645 -0.355553 0.323227
v 0.135724 -0.351865 0.320397
v 0.148625 -0.386750 0.330571
v 0.151694 -0.382911 0.334156
v 0.145117 -0.382771 0.333702
v 0.136262 -0.382911 0.317878
v 0.139711 -0.386750 0.321168
v 0.135756 -0.382771 0.323829
vn -0.3226 -0.3954 -0.8600
vn -0.3281 -0.8903 -0.3157
vn -0.8551 -0.3802 -0.3525
vn -0.3319 -0.8904 0.3113
vn -0.3330 -0.3955 0.8560
vn -0.8597 -0.3803 0.3411
vn -0.3065 0.3291 -0.8932
vn -0.8512 0.3725 -0.3696
vn -0.2790 0.8960 -0.3455
vn -0.3173 0.3291 0.8894
vn -0.2832 0.8961 0.3417
vn -0.8560 0.3726 0.3583
vn 0.2967 -0.4272 -0.8541
vn 0.8168 -0.4661 -0.3399
vn 0.2542 -0.9159 -0.3108
vn 0.2863 -0.4270 0.8577
vn 0.2504 -0.9157 0.3142
vn 0.8123 -0.4660 0.3507
vn 0.3451 0.2954 -0.8909
vn 0.3602 0.8677 -0.3427
vn 0.8896 0.2829 -0.3586
vn 0.3342 0.2954 0.8950
vn 0.8848 0.2829 0.3703
vn 0.3559 0.8675 0.3475
vn -0.1280 0.2040 0.9706
vn 0.6020 0.1511 0.7841
vn 0.1737 0.8274 0.5340
vn 0.7530 0.1995 -0.6271
vn 0.5343 0.8379 -0.1111
vn 0.9763 0.1469 0.1592
vn -0.1600 -0.5065 0.8473
vn 0.0473 -0.9307 0.3628
vn 0.4840 -0.5706 0.6634
vn 0.6207 -0.5171 -0.5893
vn 0.8044 -0.5823 0.1178
vn 0.3207 -0.9367 -0.1402
vn -0.7323 0.2411 0.6369
vn -0.4555 0.8765 0.1557
vn -0.9555 0.2563 -0.1462
vn 0.1480 0.2449 -0.9582
vn -0.5808 0.2581 -0.7721
vn -0.0992 0.8678 -0.4869
vn -0.4007 -0.9115 0.0922
vn -0.6676 -0.4842 0.5656
vn -0.8594 -0.4896 -0.1478
vn 0.1176 -0.4725 -0.8734
vn -0.1255 -0.9027 -0.4115
vn -0.5344 -0.4794 -0.6961
vn -0.2991 0.2982 0.9064
vn 0.4287 0.2980 0.8529
vn 0.0314 0.8742 0.4846
vn 0.8301 0.2989 -0.4707
vn 0.4641 0.8847 -0.0428
vn 0.8962 0.2993 0.3275
vn -0.2821 -0.4309 0.8572
vn 0.0349 -0.9014 0.4316
vn 0.4063 -0.4362 0.8029
vn 0.7791 -0.4407 -0.4458
vn 0.8384 -0.4455 0.3139
vn 0.4111 -0.9111 -0.0307
vn -0.8355 0.2900 0.4667
vn -0.4792 0.8772 0.0297
vn -0.9018 0.2762 -0.3324
vn 0.2942 0.2895 -0.9109
vn -0.4340 0.2757 -0.8577
vn -0.0456 0.8661 -0.4978
vn -0.3960 -0.9172 0.0442
vn -0.7710 -0.4486 0.4520
vn -0.8295 -0.4668 -0.3066
vn 0.2893 -0.4388 -0.8507
vn -0.0203 -0.9082 -0.4181
vn -0.3983 -0.4570 -0.7953
vn -0.3065 0.3029 0.9024
vn 0.4217 0.3182 0.8491
vn 0.0151 0.8814 0.4722
vn 0.8263 0.3035 -0.4745
vn 0.4498 0.8913 -0.0566
vn 0.8904 0.3198 0.3238
vn -0.2750 -0.4262 0.8618
vn 0.0502 -0.8943 0.4446
vn 0.4130 -0.4169 0.8097
vn 0.7866 -0.4363 -0.4368
vn 0.8452 -0.4258 0.3229
vn 0.4259 -0.9046 -0.0151
vn -0.8431 0.2752 0.4619
vn -0.4976 0.8673 0.0152
vn -0.9079 0.2466 -0.3389
vn 0.2911 0.2752 -0.9163
vn -0.4384 0.2471 -0.8641
vn -0.0601 0.8556 -0.5141
vn -0.3779 -0.9240 0.0578
vn -0.7606 -0.4614 0.4567
vn -0.8168 -0.4932 -0.2993
vn 0.2980 -0.4515 -0.8410
vn -0.0038 -0.9157 -0.4017
vn -0.3874 -0.4827 -0.7855
vn 0.3346 0.2456 0.9098
vn 0.8851 0.2858 0.3674
vn 0.3130 0.8737 0.3724
vn 0.3235 0.2456 -0.9138
vn 0.3084 0.8736 -0.3765
vn 0.8801 0.2858 -0.3791
vn 0.3821 -0.4234 0.8214
vn 0.4895 -0.8232 0.2875
vn 0.8626 -0.3941 0.3170
vn 0.3721 -0.4231 -0.8261
vn 0.8584 -0.3940 -0.3286
vn 0.4860 -0.8230 -0.2940
vn -0.3313 0.2492 0.9100
vn -0.3674 0.8566 0.3622
vn -0.8946 0.2413 0.3761
vn -0.3424 0.2492 -0.9059
vn -0.8995 0.2412 -0.3642
vn -0.3719 0.8568 -0.3574
vn -0.0539 -0.9480 0.3138
vn -0.1945 -0.4759 0.8577
vn -0.7464 -0.5631 0.3547
vn -0.2049 -0.4759 -0.8553
vn -0.0577 -0.9480 -0.3131
vn -0.7509 -0.5633 -0.3447
vn 0.5396 0.2761 0.7954
vn 0.9596 0.2457 0.1369
vn 0.4487 0.8590 0.2467
vn 0.1409 0.2754 -0.9509
vn 0.2928 0.8534 -0.4313
vn 0.7843 0.2460 -0.5696
vn 0.4613 -0.4475 0.7661
vn 0.2917 -0.9247 0.2445
vn 0.8550 -0.5000 0.1373
vn 0.0859 -0.4434 -0.8922
vn 0.6928 -0.4955 -0.5240
vn 0.1557 -0.9212 -0.3565
vn -0.1032 0.3252 0.9400
vn -0.1840 0.8971 0.4018
vn -0.7390 0.3777 0.5579
vn -0.5003 0.3265 -0.8020
vn -0.9135 0.3792 -0.1477
vn -0.3375 0.9011 -0.2722
vn -0.2663 -0.8833 0.3858
vn -0.1382 -0.3971 0.9073
vn -0.7544 -0.3709 0.5415
vn -0.5164 -0.4013 -0.7565
vn -0.4040 -0.8885 -0.2177
vn -0.9190 -0.3741 -0.1241
vn 0.7323 0.2411 0.6369
vn 0.9555 0.2563 -0.1462
vn 0.4555 0.8765 0.1557
vn -0.1480 0.2449 -0.9582
vn 0.0992 0.8678 -0.4869
vn 0.5808 0.2581 -0.7721
vn 0.6676 -0.4842 0.5656
vn 0.4007 -0.9115 0.0922
vn 0.8594 -0.4896 -0.1478
vn -0.1176 -0.4725 -0.8734
vn 0.5344 -0.4794 -0.6961
vn 0.1255 -0.9027 -0.4115
vn 0.1280 0.2040 0.9706
vn -0.1737 0.8274 0.5340
vn -0.6020 0.1511 0.7841
vn -0.7530 0.1995 -0.6271
vn -0.9763 0.1469 0.1592
vn -0.5343 0.8379 -0.1111
vn -0.0473 -0.9307 0.3628
vn 0.1600 -0.5065 0.8473
vn -0.4840 -0.5706 0.6634
vn -0.6207 -0.5171 -0.5893
vn -0.3207 -0.9367 -0.1402
vn -0.8044 -0.5823 0.1178
vn 0.8323 0.3019 0.4649
vn 0.8981 0.2895 -0.3311
vn 0.4735 0.8803 0.0297
vn -0.2930 0.3006 -0.9076
vn 0.0448 0.8693 -0.4923
vn 0.4322 0.2882 -0.8545
vn 0.7764 -0.4379 0.4533
vn 0.4007 -0.9152 0.0440
vn 0.8356 -0.4546 -0.3084
vn -0.2899 -0.4286 -0.8557
vn 0.4009 -0.4453 -0.8006
vn 0.0211 -0.9060 -0.4228
vn 0.2981 0.3093 0.9030
vn -0.0306 0.8772 0.4791
vn -0.4267 0.3105 0.8494
vn -0.8266 0.3108 -0.4692
vn -0.8922 0.3124 0.3261
vn -0.4584 0.8877 -0.0428
vn -0.0357 -0.8991 0.4363
vn 0.2828 -0.4206 0.8620
vn -0.4087 -0.4244 0.8080
vn -0.7843 -0.4299 -0.4473
vn -0.4158 -0.9089 -0.0306
vn -0.8443 -0.4332 0.3155
vn -0.8431 -0.2752 -0.4619
vn -0.9079 -0.2467 0.3389
vn -0.4976 -0.8673 -0.0152
vn 0.2911 -0.2752 0.9163
vn -0.0601 -0.8556 0.5141
vn -0.4384 -0.2471 0.8641
vn -0.7606 0.4614 -0.4567
vn -0.3779 0.9240 -0.0578
vn -0.8168 0.4932 0.2993
vn 0.2980 0.4515 0.8410
vn -0.3874 0.4827 0.7855
vn -0.0038 0.9157 0.4017
vn -0.3065 -0.3029 -0.9024
vn 0.0151 -0.8814 -0.4722
vn 0.4216 -0.3182 -0.8491
vn 0.8263 -0.3035 0.4745
vn 0.8904 -0.3198 -0.3238
vn 0.4498 -0.8913 0.0566
vn 0.0502 0.8943 -0.4446
vn -0.2750 0.4262 -0.8618
vn 0.4130 0.4169 -0.8097
vn 0.7866 0.4363 0.4368
vn 0.4259 0.9046 0.0151
vn 0.8452 0.4258 -0.3229
vt 0.483662 0.237396
vt 0.483846 0.237775
vt 0.481824 0.239510
vt 0.484327 0.242925
vt 0.484497 0.246331
vt 0.482388 0.244841
vt 0.483539 0.253674
vt 0.481690 0.255815
vt 0.483703 0.257173
vt 0.484569 0.264676
vt 0.484415 0.264781
vt 0.482474 0.263208
vt 0.494951 0.236298
vt 0.497032 0.238034
vt 0.494808 0.236709
vt 0.495168 0.245302
vt 0.494939 0.241898
vt 0.497093 0.243422
vt 0.497005 0.252390
vt 0.497223 0.255888
vt 0.499075 0.254161
vt 0.497131 0.263492
vt 0.499067 0.261641
vt 0.497302 0.263567
vt 0.461663 0.260926
vt 0.464172 0.259583
vt 0.462674 0.261247
vt 0.465401 0.250257
vt 0.465347 0.253697
vt 0.466731 0.252555
vt 0.457215 0.239030
vt 0.457397 0.235400
vt 0.459741 0.237557
vt 0.458958 0.233471
vt 0.460359 0.235665
vt 0.457854 0.233929
vt 0.452473 0.259441
vt 0.452603 0.259582
vt 0.450998 0.257400
vt 0.455611 0.248418
vt 0.452992 0.250039
vt 0.454813 0.251759
vt 0.457033 0.235338
vt 0.456187 0.238859
vt 0.454752 0.236712
vt 0.457895 0.233282
vt 0.457487 0.233865
vt 0.455314 0.234789
vt 0.445726 0.258763
vt 0.448339 0.257676
vt 0.446598 0.258954
vt 0.450715 0.247934
vt 0.450074 0.251426
vt 0.451760 0.250472
vt 0.445015 0.244722
vt 0.445698 0.241203
vt 0.447644 0.243605
vt 0.449058 0.235787
vt 0.450124 0.238290
vt 0.448010 0.236084
vt 0.438010 0.256350
vt 0.438450 0.256369
vt 0.436799 0.254010
vt 0.442524 0.245105
vt 0.439746 0.246393
vt 0.441580 0.248537
vt 0.440848 0.239646
vt 0.439886 0.243102
vt 0.438699 0.240736
vt 0.443672 0.233949
vt 0.443022 0.234410
vt 0.440911 0.235196
vt 0.432616 0.256126
vt 0.435139 0.254868
vt 0.433317 0.256224
vt 0.436760 0.244714
vt 0.436227 0.248223
vt 0.438022 0.247215
vt 0.432177 0.243237
vt 0.432753 0.239677
vt 0.434715 0.241953
vt 0.435548 0.233827
vt 0.436821 0.236286
vt 0.434696 0.234244
vt 0.424973 0.254214
vt 0.425212 0.254171
vt 0.423581 0.251937
vt 0.428585 0.242479
vt 0.425927 0.243957
vt 0.427731 0.245931
vt 0.427958 0.238446
vt 0.427088 0.241950
vt 0.425721 0.239647
vt 0.430170 0.232368
vt 0.429746 0.232921
vt 0.427522 0.233799
vt 0.515267 0.264502
vt 0.517379 0.263009
vt 0.515585 0.264781
vt 0.516252 0.253846
vt 0.516297 0.257173
vt 0.518115 0.256000
vt 0.514867 0.259105
vt 0.515054 0.255289
vt 0.517024 0.258001
vt 0.515701 0.249754
vt 0.517601 0.252349
vt 0.515515 0.250127
vt 0.502950 0.263425
vt 0.502698 0.263567
vt 0.501010 0.261564
vt 0.503081 0.252484
vt 0.501005 0.254258
vt 0.502777 0.255888
vt 0.504413 0.251306
vt 0.504153 0.254932
vt 0.502306 0.252491
vt 0.504333 0.245742
vt 0.504522 0.246104
vt 0.502348 0.246944
vt 0.530859 0.262129
vt 0.532706 0.260202
vt 0.531019 0.262192
vt 0.530119 0.250919
vt 0.530519 0.254410
vt 0.532304 0.252658
vt 0.528572 0.247181
vt 0.528162 0.243714
vt 0.530404 0.245223
vt 0.527836 0.238027
vt 0.530032 0.239728
vt 0.527731 0.238461
vt 0.521891 0.263106
vt 0.521698 0.263209
vt 0.519728 0.261623
vt 0.520503 0.251995
vt 0.518703 0.254172
vt 0.520734 0.255497
vt 0.521440 0.244470
vt 0.521686 0.247949
vt 0.519508 0.246444
vt 0.520546 0.238858
vt 0.520785 0.239251
vt 0.518757 0.241008
vt 0.547527 0.259441
vt 0.549002 0.257400
vt 0.547397 0.259582
vt 0.544389 0.248418
vt 0.545187 0.251759
vt 0.547008 0.250039
vt 0.543813 0.238859
vt 0.542967 0.235338
vt 0.545248 0.236712
vt 0.542105 0.233282
vt 0.544686 0.234789
vt 0.542513 0.233865
vt 0.538337 0.260926
vt 0.537326 0.261247
vt 0.535828 0.259583
vt 0.534599 0.250257
vt 0.533269 0.252555
vt 0.534653 0.253697
vt 0.542603 0.235400
vt 0.542785 0.239030
vt 0.540259 0.237557
vt 0.541042 0.233471
vt 0.542146 0.233929
vt 0.539641 0.235665
vt 0.562026 0.256360
vt 0.563236 0.254021
vt 0.561550 0.256369
vt 0.557498 0.245074
vt 0.558420 0.248537
vt 0.560273 0.246361
vt 0.560043 0.240353
vt 0.559112 0.236940
vt 0.561228 0.237992
vt 0.556271 0.231255
vt 0.559028 0.232498
vt 0.556938 0.231713
vt 0.554255 0.258790
vt 0.553402 0.258954
vt 0.551645 0.257703
vt 0.549246 0.247924
vt 0.548204 0.250459
vt 0.549926 0.251426
vt 0.554263 0.238495
vt 0.554963 0.241957
vt 0.552336 0.240843
vt 0.550936 0.233072
vt 0.551951 0.233383
vt 0.549872 0.235570
vt 0.575027 0.254214
vt 0.574788 0.254171
vt 0.576419 0.251937
vt 0.571415 0.242479
vt 0.574073 0.243957
vt 0.572269 0.245931
vt 0.572912 0.241950
vt 0.574279 0.239647
vt 0.572042 0.238446
vt 0.569830 0.232368
vt 0.570254 0.232921
vt 0.572478 0.233799
vt 0.567384 0.256126
vt 0.564861 0.254868
vt 0.566683 0.256224
vt 0.563240 0.244714
vt 0.563773 0.248223
vt 0.561978 0.247215
vt 0.567247 0.239677
vt 0.565285 0.241953
vt 0.567823 0.243237
vt 0.564453 0.233827
vt 0.563179 0.236286
vt 0.565304 0.234244
s 1
f 1/1/1 2/2/2 3/3/3
f 4/4/4 5/5/5 6/6/6
f 7/7/7 8/8/8 9/9/9
f 10/10/10 11/11/11 12/12/12
f 13/13/13 14/14/14 15/15/15
f 16/16/16 17/17/17 18/18/18
f 19/19/19 20/20/20 21/21/21
f 22/22/22 23/23/23 24/24/24
f 1/1/1 8/8/8 7/7/7
f 4/4/4 3/3/3 2/2/2
f 5/5/5 12/12/12 6/6/6
f 9/9/9 12/12/12 11/11/11
f 19/19/19 9/9/9 20/20/20
f 22/22/22 11/11/11 10/10/10
f 21/21/21 24/24/24 23/23/23
f 13/13/13 21/21/21 14/14/14
f 16/16/16 23/23/23 22/22/22
f 15/15/15 18/18/18 17/17/17
f 13/13/13 2/2/2 1/1/1
f 16/16/16 4/4/4 17/17/17
f 19/19/19 1/1/1 7/7/7
f 3/3/3 12/12/12 8/8/8
f 15/15/15 4/4/4 2/2/2
f 10/10/10 16/16/16 22/22/22
f 11/11/11 20/20/20 9/9/9
f 23/23/23 14/14/14 21/21/21
f 25/25/25 26/26/26 27/27/27
f 28/28/28 29/29/29 30/30/30
f 31/31/31 32/32/32 33/33/33
f 34/34/34 35/35/35 36/36/36
f 37/37/37 38/38/38 39/39/39
f 40/40/40 41/41/41 42/42/42
f 43/43/43 44/44/44 45/45/45
f 46/46/46 47/47/47 48/48/48
f 44/44/44 32/32/32 31/31/31
f 34/34/34 47/47/47 46/46/46
f 25/25/25 33/33/33 26/26/26
f 30/30/30 27/27/27 26/26/26
f 25/25/25 38/38/38 37/37/37
f 40/40/40 29/29/29 28/28/28
f 40/40/40 48/48/48 41/41/41
f 42/42/42 39/39/39 38/38/38
f 43/43/43 48/48/48 47/47/47
f 37/37/37 45/45/45 44/44/44
f 32/32/32 35/35/35 33/33/33
f 28/28/28 35/35/35 34/34/34
f 37/37/37 31/31/31 25/25/25
f 42/42/42 27/27/27 29/29/29
f 30/30/30 33/33/33 35/35/35
f 28/28/28 46/46/46 40/40/40
f 32/32/32 47/47/47 36/36/36
f 45/45/45 41/41/41 48/48/48
f 49/49/49 50/50/50 51/51/51
f 52/52/52 53/53/53 54/54/54
f 55/55/55 56/56/56 57/57/57
f 58/58/58 59/59/59 60/60/60
f 61/61/61 62/62/62 63/63/63
f 64/64/64 65/65/65 66/66/66
f 67/67/67 68/68/68 69/69/69
f 70/70/70 71/71/71 72/72/72
f 61/61/61 51/51/51 62/62/62
f 64/64/64 53/53/53 52/52/52
f 60/60/60 57/57/57 56/56/56
f 70/70/70 60/60/60 71/71/71
f 68/68/68 56/56/56 55/55/55
f 49/49/49 57/57/57 50/50/50
f 67/67/67 72/72/72 71/71/71
f 61/61/61 69/69/69 68/68/68
f 64/64/64 72/72/72 65/65/65
f 62/62/62 65/65/65 63/63/63
f 50/50/50 53/53/53 51/51/51
f 52/52/52 59/59/59 58/58/58
f 61/61/61 55/55/55 49/49/49
f 62/62/62 53/53/53 66/66/66
f 50/50/50 59/59/59 54/54/54
f 64/64/64 58/58/58 70/70/70
f 56/56/56 71/71/71 60/60/60
f 69/69/69 65/65/65 72/72/72
f 73/73/73 74/74/74 75/75/75
f 76/76/76 77/77/77 78/78/78
f 79/79/79 80/80/80 81/81/81
f 82/82/82 83/83/83 84/84/84
f 85/85/85 86/86/86 87/87/87
f 88/88/88 89/89/89 90/90/90
f 91/91/91 92/92/92 93/93/93
f 94/94/94 95/95/95 96/96/96
f 92/92/92 80/80/80 79/79/79
f 73/73/73 81/81/81 74/74/74
f 78/78/78 75/75/75 74/74/74
f 76/76/76 90/90/90 77/77/77
f 85/85/85 75/75/75 86/86/86
f 80/80/80 83/83/83 81/81/81
f 88/88/88 96/96/96 89/89/89
f 86/86/86 89/89/89 87/87/87
f 91/91/91 96/96/96 95/95/95
f 85/85/85 93/93/93 92/92/92
f 94/94/94 84/84/84 95/95/95
f 76/76/76 83/83/83 82/82/82
f 85/85/85 79/79/79 73/73/73
f 86/86/86 77/77/77 90/90/90
f 74/74/74 83/83/83 78/78/78
f 76/76/76 94/94/94 88/88/88
f 80/80/80 95/95/95 84/84/84
f 93/93/93 89/89/89 96/96/96
f 97/97/97 98/98/98 99/99/99
f 100/100/100 101/101/101 102/102/102
f 103/103/103 104/104/104 105/105/105
f 106/106/106 107/107/107 108/108/108
f 109/109/109 110/110/110 111/111/111
f 112/112/112 113/113/113 114/114/114
f 115/115/115 116/116/116 117/117/117
f 118/118/118 119/119/119 120/120/120
f 97/97/97 110/110/110 109/109/109
f 108/108/108 105/105/105 104/104/104
f 118/118/118 108/108/108 119/119/119
f 97/97/97 105/105/105 98/98/98
f 116/116/116 104/104/104 103/103/103
f 102/102/102 99/99/99 98/98/98
f 115/115/115 120/120/120 119/119/119
f 116/116/116 111/111/111 117/117/117
f 118/118/118 113/113/113 112/112/112
f 114/114/114 111/111/111 110/110/110
f 100/100/100 114/114/114 101/101/101
f 100/100/100 107/107/107 106/106/106
f 109/109/109 103/103/103 97/97/97
f 114/114/114 99/99/99 101/101/101
f 98/98/98 107/107/107 102/102/102
f 112/112/112 106/106/106 118/118/118
f 104/104/104 119/119/119 108/108/108
f 117/117/117 113/113/113 120/120/120
f 121/121/121 122/122/122 123/123/123
f 124/124/124 125/125/125 126/126/126
f 127/127/127 128/128/128 129/129/129
f 130/130/130 131/131/131 132/132/132
f 133/133/133 134/134/134 135/135/135
f 136/136/136 137/137/137 138/138/138
f 139/139/139 140/140/140 141/141/141
f 142/142/142 143/143/143 144/144/144
f 140/140/140 128/128/128 127/127/127
f 126/126/126 123/123/123 122/122/122
f 136/136/136 125/125/125 124/124/124
f 132/132/132 129/129/129 128/128/128
f 121/121/121 134/134/134 133/133/133
f 142/142/142 132/132/132 143/143/143
f 142/142/142 137/137/137 136/136/136
f 138/138/138 135/135/135 134/134/134
f 143/143/143 141/141/141 144/144/144
f 140/140/140 135/135/135 141/141/141
f 127/127/127 122/122/122 121/121/121
f 130/130/130 126/126/126 131/131/131
f 133/133/133 127/127/127 121/121/121
f 134/134/134 125/125/125 138/138/138
f 126/126/126 129/129/129 131/131/131
f 124/124/124 142/142/142 136/136/136
f 128/128/128 143/143/143 132/132/132
f 141/141/141 137/137/137 144/144/144
f 145/145/145 146/146/146 147/147/147
f 148/148/148 149/149/149 150/150/150
f 151/151/151 152/152/152 153/153/153
f 154/154/154 155/155/155 156/156/156
f 157/157/157 158/158/158 159/159/159
f 160/160/160 161/161/161 162/162/162
f 163/163/163 164/164/164 165/165/165
f 166/166/166 167/167/167 168/168/168
f 157/157/157 147/147/147 158/158/158
f 166/166/166 156/156/156 167/167/167
f 145/145/145 153/153/153 146/146/146
f 150/150/150 147/147/147 146/146/146
f 151/151/151 163/163/163 152/152/152
f 160/160/160 149/149/149 148/148/148
f 163/163/163 168/168/168 167/167/167
f 157/157/157 165/165/165 164/164/164
f 160/160/160 168/168/168 161/161/161
f 158/158/158 161/161/161 159/159/159
f 152/152/152 155/155/155 153/153/153
f 148/148/148 155/155/155 154/154/154
f 157/157/157 151/151/151 145/145/145
f 158/158/158 149/149/149 162/162/162
f 146/146/146 155/155/155 150/150/150
f 160/160/160 154/154/154 166/166/166
f 156/156/156 163/163/163 167/167/167
f 165/165/165 161/161/161 168/168/168
f 169/169/169 170/170/170 171/171/171
f 172/172/172 173/173/173 174/174/174
f 175/175/175 176/176/176 177/177/177
f 178/178/178 179/179/179 180/180/180
f 181/181/181 182/182/182 183/183/183
f 184/184/184 185/185/185 186/186/186
f 187/187/187 188/188/188 189/189/189
f 190/190/190 191/191/191 192/192/192
f 188/188/188 176/176/176 175/175/175
f 172/172/172 186/186/186 173/173/173
f 180/180/180 177/177/177 176/176/176
f 178/178/178 191/191/191 190/190/190
f 181/181/181 171/171/171 182/182/182
f 169/169/169 177/177/177 170/170/170
f 184/184/184 192/192/192 185/185/185
f 186/186/186 183/183/183 182/182/182
f 187/187/187 192/192/192 191/191/191
f 181/181/181 189/189/189 188/188/188
f 170/170/170 173/173/173 171/171/171
f 172/172/172 179/179/179 178/178/178
f 169/169/169 188/188/188 175/175/175
f 186/186/186 171/171/171 173/173/173
f 170/170/170 179/179/179 174/174/174
f 172/172/172 190/190/190 184/184/184
f 176/176/176 191/191/191 180/180/180
f 192/192/192 183/183/183 185/185/185
f 193/193/193 195/194/195 194/195/194
f 196/196/196 198/197/198 197/198/197
f 199/199/199 201/200/201 200/201/200
f 202/202/202 204/203/204 203/204/203
f 205/205/205 207/206/207 206/207/206
f 208/208/208 210/209/210 209/210/209
f 211/211/211 213/212/213 212/213/212
f 214/214/214 216/215/216 215/216/215
f 206/207/206 193/193/193 205/205/205
f 193/193/193 201/200/201 199/199/199
f 195/194/195 198/197/198 194/195/194
f 197/198/197 208/208/208 196/196/196
f 199/199/199 211/211/211 212/213/212
f 200/201/200 203/204/203 204/203/204
f 216/215/216 211/211/211 215/216/215
f 213/212/213 205/205/205 212/213/212
f 208/208/208 216/215/216 214/214/214
f 206/207/206 209/210/209 210/209/210
f 215/216/215 202/202/202 214/214/214
f 203/204/203 196/196/196 202/202/202
f 199/199/199 205/205/205 193/193/193
f 197/198/197 206/207/206 210/209/210
f 203/204/203 194/195/194 198/197/198
f 214/214/214 196/196/196 208/208/208
f 204/203/204 211/211/211 200/201/200
f 216/215/216 207/206/207 213/212/213
f 1/1/1 3/3/3 8/8/8
f 4/4/4 6/6/6 3/3/3
f 5/5/5 10/10/10 12/12/12
f 9/9/9 8/8/8 12/12/12
f 19/19/19 7/7/7 9/9/9
f 22/22/22 24/24/24 11/11/11
f 21/21/21 20/20/20 24/24/24
f 13/13/13 19/19/19 21/21/21
f 16/16/16 18/18/18 23/23/23
f 15/15/15 14/14/14 18/18/18
f 13/13/13 15/15/15 2/2/2
f 16/16/16 5/5/5 4/4/4
f 19/19/19 13/13/13 1/1/1
f 3/3/3 6/6/6 12/12/12
f 15/15/15 17/17/17 4/4/4
f 10/10/10 5/5/5 16/16/16
f 11/11/11 24/24/24 20/20/20
f 23/23/23 18/18/18 14/14/14
f 44/44/44 43/43/43 32/32/32
f 34/34/34 36/36/36 47/47/47
f 25/25/25 31/31/31 33/33/33
f 30/30/30 29/29/29 27/27/27
f 25/25/25 27/27/27 38/38/38
f 40/40/40 42/42/42 29/29/29
f 40/40/40 46/46/46 48/48/48
f 42/42/42 41/41/41 39/39/39
f 43/43/43 45/45/45 48/48/48
f 37/37/37 39/39/39 45/45/45
f 32/32/32 36/36/36 35/35/35
f 28/28/28 30/30/30 35/35/35
f 37/37/37 44/44/44 31/31/31
f 42/42/42 38/38/38 27/27/27
f 30/30/30 26/26/26 33/33/33
f 28/28/28 34/34/34 46/46/46
f 32/32/32 43/43/43 47/47/47
f 45/45/45 39/39/39 41/41/41
f 61/61/61 49/49/49 51/51/51
f 64/64/64 66/66/66 53/53/53
f 60/60/60 59/59/59 57/57/57
f 70/70/70 58/58/58 60/60/60
f 68/68/68 67/67/67 56/56/56
f 49/49/49 55/55/55 57/57/57
f 67/67/67 69/69/69 72/72/72
f 61/61/61 63/63/63 69/69/69
f 64/64/64 70/70/70 72/72/72
f 62/62/62 66/66/66 65/65/65
f 50/50/50 54/54/54 53/53/53
f 52/52/52 54/54/54 59/59/59
f 61/61/61 68/68/68 55/55/55
f 62/62/62 51/51/51 53/53/53
f 50/50/50 57/57/57 59/59/59
f 64/64/64 52/52/52 58/58/58
f 56/56/56 67/67/67 71/71/71
f 69/69/69 63/63/63 65/65/65
f 92/92/92 91/91/91 80/80/80
f 73/73/73 79/79/79 81/81/81
f 78/78/78 77/77/77 75/75/75
f 76/76/76 88/88/88 90/90/90
f 85/85/85 73/73/73 75/75/75
f 80/80/80 84/84/84 83/83/83
f 88/88/88 94/94/94 96/96/96
f 86/86/86 90/90/90 89/89/89
f 91/91/91 93/93/93 96/96/96
f 85/85/85 87/87/87 93/93/93
f 94/94/94 82/82/82 84/84/84
f 76/76/76 78/78/78 83/83/83
f 85/85/85 92/92/92 79/79/79
f 86/86/86 75/75/75 77/77/77
f 74/74/74 81/81/81 83/83/83
f 76/76/76 82/82/82 94/94/94
f 80/80/80 91/91/91 95/95/95
f 93/93/93 87/87/87 89/89/89
f 97/97/97 99/99/99 110/110/110
f 108/108/108 107/107/107 105/105/105
f 118/118/118 106/106/106 108/108/108
f 97/97/97 103/103/103 105/105/105
f 116/116/116 115/115/115 104/104/104
f 102/102/102 101/101/101 99/99/99
f 115/115/115 117/117/117 120/120/120
f 116/116/116 109/109/109 111/111/111
f 118/118/118 120/120/120 113/113/113
f 114/114/114 113/113/113 111/111/111
f 100/100/100 112/112/112 114/114/114
f 100/100/100 102/102/102 107/107/107
f 109/109/109 116/116/116 103/103/103
f 114/114/114 110/110/110 99/99/99
f 98/98/98 105/105/105 107/107/107
f 112/112/112 100/100/100 106/106/106
f 104/104/104 115/115/115 119/119/119
f 117/117/117 111/111/111 113/113/113
f 140/140/140 139/139/139 128/128/128
f 126/126/126 125/125/125 123/123/123
f 136/136/136 138/138/138 125/125/125
f 132/132/132 131/131/131 129/129/129
f 121/121/121 123/123/123 134/134/134
f 142/142/142 130/130/130 132/132/132
f 142/142/142 144/144/144 137/137/137
f 138/138/138 137/137/137 135/135/135
f 143/143/143 139/139/139 141/141/141
f 140/140/140 133/133/133 135/135/135
f 127/127/127 129/129/129 122/122/122
f 130/130/130 124/124/124 126/126/126
f 133/133/133 140/140/140 127/127/127
f 134/134/134 123/123/123 125/125/125
f 126/126/126 122/122/122 129/129/129
f 124/124/124 130/130/130 142/142/142
f 128/128/128 139/139/139 143/143/143
f 141/141/141 135/135/135 137/137/137
f 157/157/157 145/145/145 147/147/147
f 166/166/166 154/154/154 156/156/156
f 145/145/145 151/151/151 153/153/153
f 150/150/150 149/149/149 147/147/147
f 151/151/151 164/164/164 163/163/163
f 160/160/160 162/162/162 149/149/149
f 163/163/163 165/165/165 168/168/168
f 157/157/157 159/159/159 165/165/165
f 160/160/160 166/166/166 168/168/168
f 158/158/158 162/162/162 161/161/161
f 152/152/152 156/156/156 155/155/155
f 148/148/148 150/150/150 155/155/155
f 157/157/157 164/164/164 151/151/151
f 158/158/158 147/147/147 149/149/149
f 146/146/146 153/153/153 155/155/155
f 160/160/160 148/148/148 154/154/154
f 156/156/156 152/152/152 163/163/163
f 165/165/165 159/159/159 161/161/161
f 188/188/188 187/187/187 176/176/176
f 172/172/172 184/184/184 186/186/186
f 180/180/180 179/179/179 177/177/177
f 178/178/178 180/180/180 191/191/191
f 181/181/181 169/169/169 171/171/171
f 169/169/169 175/175/175 177/177/177
f 184/184/184 190/190/190 192/192/192
f 186/186/186 185/185/185 183/183/183
f 187/187/187 189/189/189 192/192/192
f 181/181/181 183/183/183 189/189/189
f 170/170/170 174/174/174 173/173/173
f 172/172/172 174/174/174 179/179/179
f 169/169/169 181/181/181 188/188/188
f 186/186/186 182/182/182 171/171/171
f 170/170/170 177/177/177 179/179/179
f 172/172/172 178/178/178 190/190/190
f 176/176/176 187/187/187 191/191/191
f 192/192/192 189/189/189 183/183/183
f 206/207/206 195/194/195 193/193/193
f 193/193/193 194/195/194 201/200/201
f 195/194/195 197/198/197 198/197/198
f 197/198/197 210/209/210 208/208/208
f 199/199/199 200/201/200 211/211/211
f 200/201/200 201/200/201 203/204/203
f 216/215/216 213/212/213 211/211/211
f 213/212/213 207/206/207 205/205/205
f 208/208/208 209/210/209 216/215/216
f 206/207/206 207/206/207 209/210/209
f 215/216/215 204/203/204 202/202/202
f 203/204/203 198/197/198 196/196/196
f 199/199/199 212/213/212 205/205/205
f 197/198/197 195/194/195 206/207/206
f 203/204/203 201/200/201 194/195/194
f 214/214/214 202/202/202 196/196/196
f 204/203/204 215/216/215 211/211/211
f 216/215/216 209/210/209 207/206/207
