# Blender 5.2.1 LTS
# www.blender.org
o ZombieHead2Jaw
v -0.304503 -0.535146 0.015560
v -0.218530 -0.550737 0.173926
v -0.198737 -0.516768 0.175258
v -0.265296 -0.408463 0.225927
v -0.268013 -0.447316 0.203285
v -0.251987 -0.430439 0.225116
v -0.251270 -0.475036 0.209086
v -0.265845 -0.486865 0.198763
v -0.238022 -0.441775 0.213730
v -0.230708 -0.469030 0.204196
v -0.218754 -0.507597 0.175896
v -0.210185 -0.455752 0.174054
v -0.280586 -0.397290 0.152543
v -0.271496 -0.361279 0.233736
v -0.276226 -0.409965 0.195666
v -0.259894 -0.365265 0.254713
v -0.252311 -0.394611 0.240089
v -0.248371 -0.369337 0.254851
v -0.235376 -0.414600 0.225840
v -0.214713 -0.370422 0.216173
v -0.227289 -0.355734 0.249559
v -0.208754 -0.380355 0.188190
v -0.219815 -0.423027 0.180910
v -0.227612 -0.606340 0.094288
v -0.213112 -0.609793 0.138090
v -0.287463 -0.526318 0.094860
v -0.269734 -0.556648 0.144822
v -0.276758 -0.563259 0.117817
v -0.258793 -0.534336 0.170411
v -0.261051 -0.582394 0.086619
v -0.241074 -0.585253 0.130652
v -0.240339 -0.514981 0.184063
v -0.230140 -0.569363 0.160140
v -0.206836 -0.510050 0.169817
v -0.277640 -0.426122 0.138906
v -0.278050 -0.485667 0.092971
v -0.276692 -0.445499 0.087006
v -0.282929 -0.477583 0.169232
v -0.277897 -0.506603 0.152153
v -0.201172 -0.480595 0.132962
v -0.202709 -0.440860 0.123471
v -0.272196 -0.355468 0.136113
v -0.272231 -0.410382 0.106040
v -0.262335 -0.375035 0.098198
v -0.261423 -0.400943 0.089415
v -0.209032 -0.397575 0.137801
v -0.242922 -0.604830 0.065010
v -0.259635 -0.588644 0.040197
v -0.231224 -0.599348 0.021327
v -0.221198 -0.609167 0.050258
v -0.199566 -0.588773 0.012459
v -0.298572 -0.562557 0.021486
v -0.285873 -0.582352 0.013949
v -0.273797 -0.570062 0.055130
v -0.287166 -0.538159 0.050706
v -0.311635 -0.524320 -0.016859
v -0.293199 -0.429488 0.002879
v -0.258244 -0.459099 0.051720
v -0.280784 -0.511685 0.041361
v -0.260702 -0.472753 0.022653
v -0.276208 -0.427193 0.015438
v -0.262220 -0.429433 0.063087
v -0.255401 -0.470734 0.035237
v -0.270160 -0.461502 0.009735
v -0.252469 -0.457759 0.009805
v -0.229403 -0.437191 0.047465
v -0.231469 -0.440045 -0.001658
v -0.223163 -0.457757 0.045013
v -0.231206 -0.464340 -0.014149
v -0.215727 -0.465385 -0.001318
v -0.210858 -0.448547 0.029558
v -0.289339 -0.394742 -0.002576
v -0.273039 -0.399410 0.009067
v -0.239453 -0.419533 0.009851
v -0.228122 -0.414291 0.051186
v -0.090187 -0.626067 0.287431
v -0.132484 -0.561135 0.277618
v -0.176180 -0.353414 0.307365
v -0.151017 -0.371559 0.299237
v -0.160802 -0.373708 0.281468
v -0.103470 -0.355308 0.336183
v -0.091608 -0.380293 0.335092
v -0.130021 -0.388780 0.288001
v -0.169542 -0.597677 0.230488
v -0.164049 -0.621093 0.213497
v -0.170915 -0.629556 0.167248
v -0.132246 -0.614426 0.259602
v -0.120197 -0.640115 0.241899
v -0.135804 -0.642044 0.189396
v -0.117721 -0.635757 0.168490
v -0.203232 -0.577725 0.192188
v -0.178727 -0.550847 0.217988
v -0.161338 -0.527882 0.249398
v -0.164115 -0.518413 0.206606
v -0.159238 -0.543033 0.257383
v -0.127015 -0.531817 0.252785
v -0.148795 -0.506741 0.236295
v -0.155076 -0.383127 0.222465
v -0.192238 -0.613729 0.178284
v -0.197765 -0.620569 0.122572
v -0.188003 -0.617261 0.089043
v -0.148609 -0.632831 0.150951
v -0.138024 -0.616323 0.116687
v -0.167323 -0.610597 0.079387
v -0.117798 -0.588780 0.100747
v -0.202838 -0.472888 0.089783
v -0.183774 -0.443454 0.106646
v -0.188680 -0.479769 0.081965
v -0.190258 -0.463595 0.081278
v -0.179384 -0.497063 0.141693
v -0.158194 -0.503455 0.176570
v -0.168149 -0.486131 0.108023
v -0.160811 -0.467682 0.105779
v -0.198064 -0.407261 0.125975
v -0.184374 -0.410534 0.121474
v -0.188723 -0.605029 0.042623
v -0.155397 -0.581918 0.044787
v -0.173517 -0.507078 0.012358
v -0.156513 -0.518007 0.009602
v -0.165901 -0.556254 -0.003414
v -0.142724 -0.571835 0.027482
v -0.109582 -0.583821 0.077660
v -0.161975 -0.504365 0.019384
v -0.165312 -0.495953 0.010458
v -0.000479 -0.349075 0.369560
v -0.052630 -0.620025 0.308833
v -0.069671 -0.652648 0.273664
v -0.042077 -0.667853 0.283762
v -0.009721 -0.653512 0.302783
v 0.002377 -0.597069 0.325201
v 0.011708 -0.663414 0.299474
v -0.015463 -0.681728 0.272199
v -0.103028 -0.558386 0.296935
v -0.089997 -0.537120 0.279124
v -0.060832 -0.558977 0.312817
v 0.005901 -0.556273 0.318939
v -0.045985 -0.334634 0.370953
v -0.076129 -0.395169 0.321854
v -0.035198 -0.386850 0.352995
v 0.005950 -0.387333 0.356103
v -0.079259 -0.656723 0.240556
v -0.068996 -0.655750 0.219965
v -0.036764 -0.600746 0.184231
v -0.042321 -0.679040 0.252685
v -0.051299 -0.641216 0.201960
v -0.021876 -0.678074 0.225196
v -0.002594 -0.664406 0.208507
v 0.013939 -0.680843 0.228643
v -0.007108 -0.603095 0.198899
v 0.005056 -0.589237 0.182480
v -0.079592 -0.630919 0.180914
v -0.096813 -0.599718 0.134720
v -0.068561 -0.589411 0.140487
v -0.041112 -0.588483 0.163068
v 0.003371 -0.595836 0.096037
v -0.068462 -0.587910 0.036693
v -0.046755 -0.582010 -0.011663
v 0.029061 -0.594581 0.062843
v 0.032445 -0.576841 -0.035619
v -0.210199 -0.296499 0.298169
v -0.267312 -0.309803 0.161593
v -0.249639 -0.326382 0.256538
v -0.206683 -0.334207 0.264934
v -0.166554 -0.267928 0.389574
v -0.151227 -0.306423 0.386081
v -0.121525 -0.295770 0.410247
v -0.115190 -0.308396 0.401811
v -0.111776 -0.250605 0.424664
v -0.169544 -0.212672 0.371448
v -0.138899 -0.234331 0.406737
v -0.190492 -0.271184 0.357753
v -0.199305 -0.350548 0.255021
v -0.186539 -0.308790 0.348672
v -0.178478 -0.328731 0.332423
v -0.164333 -0.313887 0.357348
v -0.148903 -0.333351 0.324868
v -0.082163 -0.306535 0.418041
v -0.065235 -0.260842 0.440829
v -0.078695 -0.312645 0.387305
v -0.044530 -0.306530 0.427126
v -0.016054 -0.273434 0.445573
v -0.004661 -0.317878 0.401127
v 0.023068 -0.306143 0.433520
v 0.000243 -0.314181 0.421184
v -0.068063 -0.226741 0.432387
v -0.000694 -0.245195 0.448997
v -0.344278 -0.518286 -0.069238
v -0.332138 -0.542423 -0.032526
v -0.331570 -0.564482 -0.068881
v -0.317201 -0.574530 -0.083729
v -0.322032 -0.562122 -0.100983
v -0.312548 -0.547717 -0.015458
v -0.330858 -0.492539 -0.054189
v -0.342046 -0.503549 -0.089972
v -0.305413 -0.455488 -0.067167
v -0.302916 -0.464994 -0.035576
v -0.292489 -0.454555 -0.093392
v -0.301789 -0.395316 -0.047490
v -0.304364 -0.367673 -0.061957
v -0.322181 -0.512503 -0.118521
v -0.308086 -0.483505 -0.117294
v -0.286248 -0.592839 -0.033123
v -0.274804 -0.601505 -0.065325
v -0.256819 -0.596800 -0.020067
v -0.252692 -0.601730 -0.067331
v -0.275137 -0.593328 -0.015180
v -0.263489 -0.595035 -0.093372
v -0.224108 -0.586742 -0.037737
v -0.238892 -0.589192 -0.083280
v -0.217991 -0.572759 -0.052812
v -0.212507 -0.535723 -0.094238
v -0.204985 -0.546252 -0.052821
v -0.203828 -0.509180 -0.052637
v -0.297986 -0.459247 -0.025067
v -0.234432 -0.454659 -0.010179
v -0.240126 -0.452375 -0.079107
v -0.230452 -0.461183 -0.060914
v -0.225709 -0.448588 -0.038615
v -0.224098 -0.419843 -0.057034
v -0.217442 -0.448716 -0.022439
v -0.212186 -0.437691 -0.039645
v -0.218796 -0.486753 -0.093389
v -0.198952 -0.487311 -0.013020
v -0.211534 -0.455323 -0.006823
v -0.308936 -0.426073 -0.036966
v -0.289892 -0.404957 -0.089226
v -0.289040 -0.367226 -0.088931
v -0.275515 -0.388385 -0.091011
v -0.245769 -0.417427 -0.091183
v -0.287315 -0.567239 -0.114816
v -0.276942 -0.516765 -0.133293
v -0.252891 -0.578796 -0.105873
v -0.229702 -0.538592 -0.114087
v -0.259196 -0.454158 -0.099104
v -0.263003 -0.480296 -0.121426
v -0.236570 -0.483773 -0.113785
v -0.265795 -0.421867 -0.100854
v -0.193663 -0.569584 -0.029471
v -0.167001 -0.534260 -0.006666
v -0.155080 -0.554359 -0.008432
v -0.141327 -0.541652 -0.031335
v -0.112810 -0.572210 -0.004344
v -0.124795 -0.516469 -0.023667
v -0.093401 -0.556039 -0.060392
v -0.119370 -0.542089 -0.053434
v -0.176380 -0.483301 -0.016554
v -0.184757 -0.492268 -0.011576
v -0.163687 -0.458481 -0.075520
v -0.147400 -0.485012 -0.051843
v -0.137934 -0.506749 -0.013263
v -0.091835 -0.492993 -0.077075
v -0.109872 -0.445807 -0.118086
v -0.102870 -0.512661 -0.040560
v -0.092430 -0.540806 -0.067972
v -0.051981 -0.564597 -0.063527
v -0.067242 -0.513944 -0.059987
v -0.061885 -0.541265 -0.079931
v -0.036221 -0.515796 -0.067232
v -0.021203 -0.539844 -0.088181
v 0.000097 -0.516579 -0.072736
v 0.020651 -0.542191 -0.089006
v -0.024207 -0.501859 -0.079336
v -0.067645 -0.448585 -0.130582
v -0.029183 -0.483096 -0.101608
v 0.043417 -0.670660 0.284078
v 0.052290 -0.601098 0.318576
v 0.051184 -0.638943 0.299820
v 0.095639 -0.610662 0.297417
v 0.088477 -0.555726 0.303916
v 0.087789 -0.530002 0.283110
v 0.128987 -0.529078 0.259261
v 0.038496 -0.356447 0.359497
v 0.091304 -0.379731 0.334095
v 0.075259 -0.346438 0.352266
v 0.044108 -0.387221 0.350726
v 0.107389 -0.386395 0.314971
v 0.026599 -0.634712 0.201805
v 0.027424 -0.598842 0.189944
v 0.039911 -0.678598 0.250648
v 0.053220 -0.645287 0.208135
v 0.055285 -0.623297 0.182247
v 0.084734 -0.653367 0.248261
v 0.070894 -0.653343 0.222830
v 0.086012 -0.644451 0.271996
v 0.116840 -0.646508 0.182178
v 0.120524 -0.505755 0.256509
v 0.054544 -0.591098 0.151418
v 0.089761 -0.593629 0.124244
v 0.101191 -0.586560 0.084171
v 0.133264 -0.578324 0.050413
v 0.126010 -0.557482 0.287640
v 0.158849 -0.560081 0.264901
v 0.120850 -0.356917 0.320543
v 0.121831 -0.390667 0.267380
v 0.131057 -0.362795 0.270825
v 0.125107 -0.643525 0.235406
v 0.133286 -0.627564 0.258738
v 0.141625 -0.608032 0.266448
v 0.141149 -0.645596 0.197822
v 0.165792 -0.625719 0.226400
v 0.192129 -0.596760 0.222449
v 0.184547 -0.628910 0.178346
v 0.205577 -0.608343 0.191658
v 0.157281 -0.535995 0.261878
v 0.173181 -0.516313 0.208778
v 0.169480 -0.521741 0.250349
v 0.184235 -0.534676 0.215176
v 0.214108 -0.538107 0.187333
v 0.197306 -0.506921 0.170544
v 0.147117 -0.502651 0.200460
v 0.153226 -0.497826 0.241167
v 0.111086 -0.624845 0.138837
v 0.167338 -0.637050 0.157353
v 0.147077 -0.634108 0.133744
v 0.143855 -0.620492 0.110752
v 0.171835 -0.622286 0.089050
v 0.204472 -0.622249 0.145547
v 0.133613 -0.588710 0.079531
v 0.171464 -0.491679 0.132769
v 0.165940 -0.486337 0.105832
v 0.178118 -0.447341 0.108568
v 0.192528 -0.484745 0.083681
v 0.189968 -0.486363 0.134772
v 0.206071 -0.473475 0.090429
v 0.191575 -0.447504 0.109306
v 0.188778 -0.420707 0.114086
v 0.199099 -0.404307 0.124627
v 0.181688 -0.611117 0.071843
v 0.192138 -0.605338 0.043320
v 0.150308 -0.567162 0.021344
v 0.152140 -0.515526 0.020795
v 0.161284 -0.535521 -0.007784
v 0.170955 -0.549537 -0.009759
v 0.195002 -0.585472 0.012741
v 0.164292 -0.504123 0.028217
v 0.157410 -0.491935 0.018739
v 0.176100 -0.473454 0.076560
v 0.189790 -0.483659 -0.009471
v 0.181704 -0.507714 0.016620
v 0.189346 -0.462464 0.078396
v 0.226419 -0.481330 0.206940
v 0.209523 -0.470590 0.185925
v 0.214857 -0.430887 0.173533
v 0.237209 -0.443289 0.214806
v 0.251149 -0.431299 0.225894
v 0.252997 -0.488341 0.208821
v 0.268601 -0.438243 0.207687
v 0.263679 -0.396088 0.230643
v 0.270765 -0.493400 0.195099
v 0.211143 -0.363325 0.186175
v 0.220873 -0.402939 0.211561
v 0.225027 -0.376655 0.196661
v 0.247482 -0.403779 0.236344
v 0.232167 -0.392222 0.224631
v 0.266352 -0.369071 0.185874
v 0.276991 -0.391309 0.190979
v 0.237398 -0.595189 0.137134
v 0.212268 -0.623347 0.113397
v 0.217413 -0.614135 0.086560
v 0.235342 -0.610455 0.069588
v 0.229913 -0.572703 0.167511
v 0.219775 -0.510740 0.182363
v 0.239080 -0.525135 0.185440
v 0.261412 -0.550368 0.170033
v 0.273042 -0.561575 0.151301
v 0.274339 -0.572453 0.119783
v 0.285603 -0.520654 0.144587
v 0.294550 -0.536560 0.100934
v 0.206465 -0.500109 0.167457
v 0.199149 -0.478730 0.145170
v 0.201031 -0.451158 0.122362
v 0.283493 -0.468291 0.169510
v 0.279591 -0.416542 0.117845
v 0.287614 -0.469395 0.119037
v 0.287507 -0.521188 0.053077
v 0.209786 -0.373867 0.169295
v 0.210690 -0.404171 0.140643
v 0.265160 -0.344076 0.166971
v 0.258845 -0.396543 0.088597
v 0.278746 -0.389514 0.146134
v 0.266595 -0.326192 0.144034
v 0.266770 -0.366720 0.113004
v 0.222463 -0.610186 0.050597
v 0.221029 -0.596797 0.019186
v 0.260232 -0.591516 0.042674
v 0.259387 -0.595297 0.073742
v 0.259486 -0.594081 -0.020622
v 0.287881 -0.549409 0.056968
v 0.289522 -0.580031 0.015287
v 0.303175 -0.557576 0.019207
v 0.307782 -0.511400 -0.009703
v 0.306765 -0.556816 -0.017760
v 0.213852 -0.447166 -0.007097
v 0.212116 -0.463411 -0.001545
v 0.214756 -0.454925 0.040582
v 0.223350 -0.467177 0.034171
v 0.229961 -0.435694 0.046125
v 0.221354 -0.433589 0.020955
v 0.234083 -0.430189 0.007953
v 0.231777 -0.463405 -0.013153
v 0.257324 -0.469586 0.035037
v 0.256279 -0.463674 0.020752
v 0.265755 -0.453389 0.014724
v 0.271833 -0.425999 0.075459
v 0.259867 -0.454790 0.051874
v 0.277925 -0.498092 0.045839
v 0.280972 -0.477597 0.002064
v 0.286297 -0.434625 0.008053
v 0.231412 -0.416797 0.052093
v 0.257609 -0.425617 0.060096
v 0.264594 -0.401356 0.009548
v 0.284906 -0.403391 0.003688
v 0.027781 -0.316537 0.408244
v 0.060843 -0.285541 0.440001
v 0.070357 -0.318658 0.394945
v 0.106195 -0.318341 0.378838
v 0.095454 -0.277136 0.433598
v 0.042769 -0.233657 0.443369
v 0.085965 -0.221657 0.431117
v 0.080074 -0.187908 0.409232
v 0.107426 -0.310712 0.416434
v 0.127617 -0.233803 0.417581
v 0.146048 -0.297591 0.403452
v 0.164608 -0.309157 0.377535
v 0.164945 -0.296003 0.387774
v 0.182344 -0.274883 0.359302
v 0.168492 -0.236636 0.386449
v 0.147578 -0.318090 0.339556
v 0.152782 -0.292932 0.306653
v -0.021864 -0.557188 -0.080903
v 0.037692 -0.512370 -0.064650
v 0.081838 -0.566867 -0.045783
v 0.058536 -0.551605 -0.076025
v 0.067986 -0.516639 -0.059588
v 0.097530 -0.554052 -0.058842
v 0.073518 -0.537754 -0.073930
v 0.100188 -0.516616 -0.041443
v 0.078403 -0.505645 -0.061416
v 0.052954 -0.476743 -0.112497
v 0.099595 -0.477409 -0.095993
v 0.124171 -0.516551 -0.018276
v 0.118096 -0.541161 -0.052376
v 0.137821 -0.543413 -0.034954
v 0.155742 -0.552288 -0.008026
v 0.180809 -0.526775 -0.016866
v 0.203769 -0.513928 -0.045393
v 0.208581 -0.545390 -0.053638
v 0.123187 -0.499056 -0.036514
v 0.155986 -0.474647 -0.060375
v 0.163489 -0.451169 -0.083288
v 0.180442 -0.474975 -0.017374
v 0.201128 -0.493141 -0.018419
v 0.206832 -0.469606 -0.008616
v 0.211590 -0.445068 -0.023654
v 0.204711 -0.428671 -0.055472
v 0.257268 -0.597678 -0.061629
v 0.275180 -0.597702 -0.057638
v 0.210254 -0.584730 -0.018905
v 0.219527 -0.538701 -0.090496
v 0.230275 -0.581481 -0.047424
v 0.248084 -0.587813 -0.084863
v 0.274364 -0.586219 -0.090762
v 0.294898 -0.577039 -0.022286
v 0.324224 -0.561370 -0.076924
v 0.215603 -0.493297 -0.078668
v 0.216741 -0.513425 -0.096051
v 0.223222 -0.437892 -0.043919
v 0.237862 -0.443511 -0.002097
v 0.230505 -0.452549 -0.030832
v 0.237581 -0.454603 -0.068514
v 0.253735 -0.452791 -0.090701
v 0.304925 -0.464508 -0.047433
v 0.303241 -0.440257 -0.028560
v 0.304234 -0.450548 -0.056220
v 0.225365 -0.419440 -0.057436
v 0.254067 -0.418817 -0.098839
v 0.272329 -0.388076 -0.091131
v 0.301226 -0.410257 -0.035738
v 0.304810 -0.381309 -0.026695
v 0.296830 -0.392287 -0.075308
v 0.292201 -0.421142 -0.092431
v 0.254314 -0.574598 -0.099208
v 0.248811 -0.539587 -0.114815
v 0.267507 -0.528139 -0.122024
v 0.301171 -0.537845 -0.117362
v 0.239448 -0.486963 -0.111341
v 0.272757 -0.453148 -0.095157
v 0.292081 -0.453375 -0.085130
v 0.283374 -0.483210 -0.115820
v 0.322486 -0.559633 -0.047620
v 0.333852 -0.506989 -0.049305
v 0.336793 -0.521262 -0.060654
v 0.332618 -0.518147 -0.087596
v 0.325444 -0.487994 -0.080330
v 0.304879 -0.364963 -0.068189
v 0.320143 -0.545152 -0.101647
v 0.306865 -0.483732 -0.105459
vn -0.9190 0.1582 0.3612
vn -0.4900 -0.0705 0.8689
vn -0.3699 0.6209 0.6911
vn -0.7530 -0.2820 0.5946
vn -0.7867 -0.1665 0.5944
vn -0.1246 -0.5094 0.8515
vn -0.0904 -0.2957 0.9510
vn -0.5887 -0.3686 0.7195
vn 0.5001 -0.3180 0.8055
vn 0.6117 -0.2005 0.7653
vn 0.6109 -0.0483 0.7902
vn 0.9213 0.0511 0.3854
vn -0.9992 0.0166 -0.0373
vn -0.9448 0.1013 0.3117
vn -0.9782 -0.1197 0.1700
vn -0.5406 -0.1295 0.8312
vn -0.1241 -0.4879 0.8640
vn 0.2079 -0.3333 0.9196
vn 0.6427 -0.3436 0.6847
vn 0.8038 -0.3555 0.4770
vn 0.4666 -0.4204 0.7782
vn 0.9219 -0.2981 0.2476
vn 0.9437 -0.0776 0.3217
vn -0.4637 -0.8799 0.1040
vn -0.6171 -0.7415 0.2632
vn -0.9980 0.0060 0.0623
vn -0.7267 -0.4909 0.4806
vn -0.8320 -0.5142 0.2081
vn -0.5472 -0.4279 0.7193
vn -0.6804 -0.7204 0.1347
vn -0.5968 -0.7160 0.3622
vn 0.1096 -0.4041 0.9081
vn -0.5769 -0.5051 0.6419
vn 0.2662 0.5284 0.8062
vn -0.9994 0.0306 -0.0176
vn -0.9810 0.1426 -0.1318
vn -0.9541 0.1056 -0.2802
vn -0.9723 -0.0807 0.2194
vn -0.9553 -0.1916 0.2251
vn 0.8538 0.4425 0.2744
vn 0.8817 -0.1507 0.4471
vn -0.9746 0.1533 -0.1631
vn -0.9472 0.1829 -0.2634
vn -0.9108 0.1717 -0.3755
vn -0.8161 0.3252 -0.4778
vn 0.9351 -0.0934 0.3419
vn -0.4870 -0.8730 0.0272
vn -0.5468 -0.8307 0.1045
vn -0.0623 -0.9811 -0.1831
vn -0.1320 -0.9735 -0.1869
vn 0.3763 -0.8314 -0.4089
vn -0.8606 -0.3880 0.3300
vn -0.6411 -0.7321 0.2302
vn -0.8066 -0.5530 0.2089
vn -0.9694 -0.0008 0.2456
vn -0.8121 0.2609 0.5220
vn -0.7809 -0.0591 0.6218
vn -0.6751 0.3744 -0.6356
vn -0.8597 0.4182 0.2932
vn -0.7239 0.5425 0.4262
vn -0.2763 0.0315 0.9606
vn -0.6857 0.3304 -0.6485
vn -0.5793 0.7962 -0.1744
vn -0.5241 0.0929 0.8466
vn 0.3885 0.3154 0.8658
vn -0.4083 0.1049 -0.9068
vn 0.6745 -0.4267 0.6024
vn -0.5432 0.4822 -0.6874
vn 0.7597 0.6491 0.0384
vn -0.3649 0.7567 -0.5424
vn -0.8659 0.3695 -0.3372
vn -0.7884 0.2163 0.5759
vn -0.3197 0.2212 0.9213
vn 0.2932 -0.0262 0.9557
vn -0.4455 0.3584 -0.8204
vn -0.4829 -0.4692 0.7394
vn -0.5628 0.1373 0.8151
vn -0.5012 -0.6792 0.5362
vn -0.4211 -0.7149 0.5582
vn -0.5083 -0.8265 0.2418
vn -0.4954 -0.3539 0.7933
vn -0.3992 -0.6360 0.6604
vn -0.4300 -0.8323 0.3498
vn -0.7459 -0.3300 0.5786
vn -0.6146 -0.6864 0.3887
vn -0.3909 -0.9178 0.0692
vn -0.6257 -0.4523 0.6355
vn -0.4976 -0.7920 0.3538
vn -0.2589 -0.9649 -0.0438
vn 0.1744 -0.8836 -0.4346
vn -0.7831 -0.2142 0.5839
vn -0.8196 0.2040 0.5353
vn -0.6144 0.4996 0.6106
vn -0.6581 0.6285 0.4146
vn -0.6854 0.1201 0.7182
vn -0.1474 0.6440 0.7507
vn -0.5436 0.6509 0.5299
vn -0.4542 -0.8856 0.0973
vn -0.6867 -0.6424 0.3403
vn -0.3449 -0.9384 -0.0217
vn -0.0319 -0.9791 -0.2009
vn -0.0250 -0.9672 -0.2529
vn 0.3783 -0.8084 -0.4510
vn 0.3536 -0.8614 -0.3647
vn 0.3369 -0.8669 -0.3673
vn 0.8623 0.2386 0.4466
vn 0.1914 -0.6912 0.6969
vn 0.1281 0.5865 0.7997
vn 0.0450 -0.4027 0.9142
vn 0.1774 0.8807 0.4392
vn -0.3013 0.8816 0.3633
vn -0.0686 0.9554 0.2873
vn -0.6157 -0.4129 0.6711
vn 0.5193 -0.1347 0.8439
vn 0.4125 -0.1907 0.8908
vn 0.2905 -0.8645 -0.4103
vn 0.3761 -0.8207 -0.4301
vn 0.7127 0.1203 -0.6911
vn -0.3496 0.5084 -0.7870
vn 0.3280 -0.6345 -0.6999
vn -0.0641 -0.9388 -0.3384
vn -0.0112 -0.9922 -0.1241
vn -0.1454 -0.1421 -0.9791
vn -0.0260 -0.8182 -0.5743
vn 0.0754 -0.3196 0.9446
vn -0.3158 -0.3457 0.8836
vn -0.4630 -0.7226 0.5133
vn -0.4203 -0.6271 0.6558
vn -0.1293 -0.4690 0.8737
vn -0.0151 -0.1095 0.9939
vn 0.0618 -0.5578 0.8277
vn -0.0836 -0.9474 0.3090
vn -0.4430 0.2890 0.8487
vn -0.2964 0.7134 0.6350
vn -0.2851 0.0780 0.9553
vn 0.0398 0.1581 0.9866
vn -0.3199 -0.3666 0.8737
vn -0.3194 -0.7934 0.5181
vn -0.2398 -0.4382 0.8663
vn 0.0576 -0.3080 0.9496
vn -0.3818 -0.9233 0.0420
vn -0.1710 -0.8983 -0.4048
vn 0.3394 -0.6766 -0.6534
vn -0.3628 -0.9315 0.0256
vn 0.1249 -0.5857 -0.8009
vn -0.1676 -0.8781 -0.4482
vn 0.0146 -0.5234 -0.8520
vn 0.1352 -0.9128 -0.3853
vn 0.0774 -0.5296 -0.8447
vn -0.0235 -0.8222 -0.5687
vn 0.3705 -0.6233 -0.6887
vn 0.4291 -0.7384 -0.5203
vn 0.3017 -0.8914 -0.3382
vn 0.1981 -0.9299 -0.3099
vn -0.0241 -0.9996 0.0137
vn -0.1183 -0.9873 -0.1063
vn -0.0823 -0.9691 -0.2326
vn 0.0568 -0.9943 -0.0900
vn 0.0686 -0.9473 -0.3131
vn -0.8847 -0.3234 0.3358
vn -0.9741 0.2163 0.0656
vn -0.6465 0.2640 0.7158
vn -0.7854 -0.5140 0.3449
vn -0.6842 -0.0705 0.7258
vn -0.4177 -0.6942 0.5862
vn -0.4010 -0.4054 0.8215
vn -0.2110 -0.8795 0.4266
vn -0.4054 0.0698 0.9115
vn -0.7323 0.1762 0.6578
vn -0.5669 0.1368 0.8123
vn -0.8280 -0.1109 0.5496
vn -0.7290 -0.6120 0.3067
vn -0.7215 -0.4586 0.5187
vn -0.2283 -0.7402 0.6325
vn -0.2589 -0.8570 0.4455
vn -0.1563 -0.6622 0.7329
vn -0.1781 -0.7574 0.6282
vn -0.2368 -0.0723 0.9689
vn -0.0542 -0.9812 0.1854
vn -0.1536 -0.5976 0.7869
vn -0.0744 -0.2466 0.9663
vn -0.1372 -0.9676 0.2119
vn 0.0338 -0.6714 0.7403
vn -0.0473 -0.8893 0.4550
vn -0.2477 0.2392 0.9388
vn 0.0003 -0.0464 0.9989
vn -0.9970 0.0118 0.0763
vn -0.8366 -0.1848 0.5156
vn -0.8320 -0.5546 0.0088
vn -0.5512 -0.7998 -0.2379
vn -0.6472 -0.4893 -0.5846
vn -0.8445 -0.2943 0.4474
vn -0.8300 0.4250 0.3613
vn -0.9249 0.2555 -0.2817
vn -0.9195 0.3618 -0.1536
vn -0.8910 0.1627 0.4239
vn -0.5372 0.4696 -0.7006
vn -0.9903 0.0779 -0.1147
vn -0.9308 -0.1053 -0.3500
vn -0.6004 0.0016 -0.7997
vn -0.4412 0.5151 -0.7348
vn -0.5017 -0.8457 0.1817
vn -0.2722 -0.9590 -0.0794
vn 0.0107 -0.9995 0.0308
vn 0.2571 -0.9599 -0.1119
vn -0.2746 -0.9517 0.1370
vn 0.0064 -0.8466 -0.5321
vn 0.4928 -0.8482 -0.1943
vn 0.6160 -0.6801 -0.3974
vn 0.7500 -0.5217 -0.4066
vn 0.8770 -0.1644 -0.4515
vn 0.8520 -0.2238 -0.4734
vn 0.8914 0.2960 -0.3433
vn -0.8126 -0.2906 0.5051
vn 0.8876 -0.1917 0.4188
vn 0.8359 0.2522 -0.4875
vn 0.9175 0.3712 -0.1432
vn 0.7723 -0.6080 -0.1842
vn 0.8247 -0.2450 -0.5097
vn 0.0297 -0.9774 -0.2091
vn 0.0154 -0.7854 -0.6187
vn 0.8432 0.3647 -0.3950
vn 0.2242 0.5989 -0.7688
vn -0.8444 -0.4454 -0.2976
vn -0.9929 0.0685 0.0973
vn -0.6846 0.0658 -0.7259
vn -0.7255 0.0218 -0.6879
vn -0.1168 0.1230 -0.9855
vn 0.6137 0.0724 -0.7862
vn -0.2015 -0.5067 -0.8383
vn -0.0012 -0.0324 -0.9995
vn 0.3209 -0.5424 -0.7764
vn 0.5701 -0.2060 -0.7954
vn 0.2505 0.4055 -0.8791
vn 0.1091 0.4606 -0.8809
vn 0.5434 0.3658 -0.7556
vn -0.0374 0.0698 -0.9969
vn 0.6555 -0.6255 -0.4232
vn 0.3270 0.3426 -0.8807
vn -0.4277 -0.6699 -0.6069
vn -0.7067 0.0746 -0.7036
vn -0.2498 -0.9281 -0.2760
vn -0.6406 0.2991 -0.7072
vn -0.3403 -0.6947 -0.6337
vn -0.6174 -0.0247 -0.7862
vn -0.3554 -0.7258 -0.5890
vn 0.5983 -0.0858 -0.7967
vn -0.4741 -0.7121 -0.5179
vn -0.4457 -0.7684 -0.4592
vn -0.6384 -0.5481 -0.5405
vn -0.2635 -0.7433 -0.6149
vn -0.2929 -0.6886 -0.6634
vn -0.5776 -0.1678 -0.7989
vn -0.4215 0.0949 -0.9019
vn -0.1418 -0.8677 -0.4764
vn -0.3129 -0.0902 -0.9455
vn -0.2754 0.0182 -0.9612
vn -0.1495 0.5857 -0.7966
vn -0.1122 0.1256 -0.9857
vn 0.0101 0.5841 -0.8116
vn 0.1223 -0.0343 -0.9919
vn -0.0653 -0.7694 -0.6354
vn -0.1980 -0.7084 -0.6775
vn -0.0936 -0.7585 -0.6450
vn 0.3499 -0.7820 0.5158
vn 0.2391 -0.1565 0.9583
vn 0.3138 -0.4728 0.8234
vn 0.4494 -0.3447 0.8242
vn 0.3699 0.2056 0.9060
vn 0.3970 0.5836 0.7084
vn 0.0917 0.4300 0.8982
vn 0.1607 -0.2735 0.9483
vn 0.4070 -0.6100 0.6799
vn 0.3593 -0.3077 0.8810
vn 0.2348 -0.3260 0.9157
vn 0.7378 -0.4758 0.4788
vn -0.1189 -0.3542 -0.9276
vn -0.3440 -0.6175 -0.7074
vn 0.3196 -0.9467 -0.0405
vn -0.0278 -0.7529 -0.6576
vn -0.4821 -0.5689 -0.6663
vn 0.3760 -0.9215 0.0971
vn 0.1716 -0.9328 -0.3171
vn 0.4569 -0.7322 0.5051
vn -0.0224 -0.9686 -0.2478
vn 0.1643 0.3626 0.9174
vn -0.2150 -0.9454 -0.2451
vn -0.3817 -0.8123 -0.4410
vn 0.0123 -0.9891 -0.1470
vn 0.0835 -0.9603 -0.2661
vn 0.4511 0.2433 0.8587
vn 0.6935 -0.0203 0.7202
vn 0.8082 -0.4425 0.3886
vn 0.8936 -0.3330 0.3011
vn 0.8862 -0.3721 0.2762
vn 0.3388 -0.9098 0.2397
vn 0.4998 -0.6578 0.5635
vn 0.5948 -0.3518 0.7228
vn 0.2351 -0.9690 0.0752
vn 0.5627 -0.7087 0.4255
vn 0.7676 -0.2335 0.5969
vn 0.4918 -0.8551 0.1644
vn 0.7464 -0.5480 0.3777
vn 0.4033 0.3271 0.8546
vn 0.6246 0.6874 0.3706
vn 0.7217 0.3700 0.5850
vn 0.7880 0.3526 0.5047
vn 0.4577 0.1452 0.8772
vn -0.0013 0.7783 0.6279
vn 0.2752 0.9019 0.3330
vn 0.5283 0.5839 0.6165
vn -0.3440 -0.7820 -0.5197
vn 0.2174 -0.9641 -0.1524
vn -0.1402 -0.9714 -0.1915
vn -0.4169 -0.7524 -0.5100
vn -0.1551 -0.8690 -0.4698
vn 0.4853 -0.8671 0.1124
vn -0.3124 -0.8429 -0.4380
vn -0.1068 0.9641 0.2431
vn 0.1517 0.9561 0.2508
vn 0.1007 -0.8739 0.4755
vn -0.3134 0.7485 0.5844
vn -0.5293 0.8192 0.2209
vn -0.9209 0.1162 0.3720
vn -0.6179 -0.6254 0.4765
vn -0.6989 -0.0883 0.7098
vn -0.7663 -0.0625 0.6395
vn -0.2188 -0.8746 -0.4326
vn -0.2855 -0.8764 -0.3878
vn -0.0746 -0.8981 -0.4335
vn 0.4291 0.4447 -0.7862
vn 0.1014 0.4717 -0.8759
vn -0.4686 -0.4154 -0.7797
vn -0.4242 -0.7887 -0.4450
vn -0.0829 -0.0358 -0.9959
vn 0.3258 -0.6999 -0.6356
vn 0.2404 0.2323 0.9425
vn -0.3245 -0.4035 -0.8555
vn -0.6874 0.1980 -0.6988
vn -0.1985 -0.5194 0.8311
vn -0.5180 -0.2283 0.8244
vn -0.8933 0.0331 0.4483
vn -0.9563 0.0473 0.2885
vn -0.4388 -0.2433 0.8650
vn 0.1611 -0.5181 0.8400
vn 0.1962 -0.3152 0.9285
vn 0.8006 -0.1742 0.5733
vn 0.5563 0.3661 0.7459
vn 0.7470 -0.2486 0.6166
vn -0.9241 0.0177 0.3819
vn -0.8632 -0.0325 0.5039
vn -0.2140 0.6634 0.7170
vn -0.1326 0.0631 0.9892
vn -0.4983 0.4831 0.7199
vn 0.7728 0.5545 0.3088
vn 0.9622 0.1904 0.1948
vn 0.6407 -0.7055 0.3029
vn 0.3928 -0.9194 -0.0198
vn -0.0082 -0.9613 -0.2755
vn 0.3831 -0.9219 -0.0585
vn 0.6443 -0.3793 0.6641
vn -0.5193 -0.0690 0.8518
vn -0.0244 -0.3801 0.9246
vn 0.5144 -0.4444 0.7334
vn 0.7298 -0.4956 0.4709
vn 0.7637 -0.6257 0.1590
vn 0.9568 -0.1279 0.2611
vn 0.9982 -0.0279 0.0535
vn -0.6438 0.3431 0.6840
vn -0.9228 0.3123 0.2259
vn -0.9646 -0.1089 0.2403
vn 0.9711 0.0500 0.2335
vn 0.9724 0.1847 -0.1427
vn 0.9949 0.0946 -0.0341
vn 0.9743 0.2019 0.1002
vn -0.9840 -0.1010 0.1465
vn -0.9629 0.0029 0.2700
vn 0.9596 0.1929 0.2050
vn 0.7764 0.4166 -0.4730
vn 0.9888 0.1482 -0.0200
vn 0.9818 0.1890 0.0188
vn 0.9376 0.1902 -0.2910
vn 0.1354 -0.9519 -0.2750
vn -0.0505 -0.9566 -0.2869
vn 0.5522 -0.8337 0.0011
vn 0.6673 -0.7423 0.0620
vn 0.0923 -0.9955 0.0192
vn 0.9416 -0.3015 0.1501
vn 0.6583 -0.7205 0.2180
vn 0.9175 -0.2800 0.2826
vn 0.8746 0.2354 0.4239
vn 0.8959 -0.3280 0.2997
vn 0.7531 -0.6531 0.0796
vn 0.6704 0.5800 -0.4629
vn 0.7862 0.1404 -0.6018
vn 0.3595 0.8588 -0.3651
vn 0.4792 0.0063 -0.8777
vn 0.8929 -0.4216 -0.1582
vn -0.2749 -0.3501 0.8955
vn -0.8001 0.5999 0.0040
vn 0.5267 0.8234 -0.2111
vn -0.0017 0.7236 0.6902
vn 0.1890 0.0780 0.9789
vn 0.8310 0.3512 -0.4314
vn 0.4933 0.4021 -0.7714
vn 0.8965 0.4430 -0.0038
vn 0.8053 0.2893 0.5174
vn 0.6575 0.0130 0.7533
vn 0.3907 0.4149 -0.8217
vn 0.5325 0.4111 -0.7399
vn 0.1182 0.1185 0.9859
vn 0.7195 0.0600 0.6919
vn 0.0554 -0.9256 0.3744
vn 0.1493 -0.2706 0.9511
vn 0.0573 -0.9645 0.2578
vn 0.1360 -0.9731 0.1857
vn 0.3265 -0.1291 0.9364
vn 0.1651 0.1071 0.9804
vn 0.2105 0.2888 0.9340
vn 0.0819 0.5523 0.8296
vn 0.2546 -0.7371 0.6260
vn 0.4834 0.0189 0.8752
vn 0.5624 -0.3327 0.7570
vn 0.6209 -0.7357 0.2708
vn 0.7389 -0.0309 0.6731
vn 0.9145 -0.3370 0.2238
vn 0.7052 -0.0627 0.7062
vn 0.1568 -0.9748 0.1589
vn 0.7950 -0.5488 -0.2583
vn -0.0604 -0.6900 -0.7213
vn 0.1798 -0.1688 -0.9691
vn 0.2066 -0.8988 -0.3867
vn 0.2242 -0.5642 -0.7946
vn 0.2935 0.1537 -0.9435
vn 0.3921 -0.5933 -0.7030
vn 0.3555 0.2090 -0.9110
vn 0.5713 0.0853 -0.8163
vn 0.3121 -0.6789 -0.6646
vn 0.1018 -0.8089 -0.5791
vn 0.2849 -0.8051 -0.5202
vn 0.7606 0.1556 -0.6303
vn 0.5895 0.0921 -0.8025
vn 0.6819 -0.1550 -0.7148
vn 0.3655 -0.6804 -0.6352
vn -0.7511 0.3862 -0.5355
vn -0.8853 0.2764 -0.3741
vn -0.8304 -0.2868 -0.4777
vn 0.5173 -0.7289 -0.4484
vn 0.4926 -0.7592 -0.4254
vn 0.5464 -0.6679 -0.5054
vn 0.3908 -0.7665 -0.5097
vn -0.6546 0.4313 -0.6209
vn -0.1042 0.5766 -0.8104
vn 0.2059 -0.8760 -0.4361
vn 0.6187 -0.6592 -0.4274
vn -0.2140 -0.9652 -0.1504
vn 0.3046 -0.9507 -0.0576
vn -0.4667 -0.8070 -0.3619
vn -0.8004 -0.3172 -0.5087
vn -0.5859 -0.7629 -0.2733
vn -0.4445 -0.7594 -0.4751
vn 0.1975 -0.7893 -0.5814
vn 0.6438 -0.7485 0.1589
vn 0.7776 -0.5925 -0.2102
vn -0.8780 0.3991 -0.2644
vn -0.8240 0.0261 -0.5660
vn -0.8140 -0.4688 -0.3431
vn -0.5344 -0.4852 0.6920
vn -0.7972 -0.5886 -0.1345
vn -0.9101 0.1696 -0.3781
vn -0.5558 0.2316 -0.7984
vn 0.9454 0.2747 0.1756
vn 0.9641 -0.0128 0.2653
vn 0.9793 -0.0347 -0.1993
vn -0.8593 -0.1439 -0.4908
vn -0.2526 -0.0407 -0.9667
vn 0.3653 0.2547 -0.8954
vn 0.9908 -0.0155 0.1346
vn 0.9735 -0.1688 0.1545
vn 0.9232 0.0441 -0.3817
vn 0.6434 0.0531 -0.7637
vn -0.3067 -0.5221 -0.7959
vn -0.3922 -0.2797 -0.8763
vn -0.0795 -0.1173 -0.9899
vn 0.3609 -0.2207 -0.9061
vn -0.4844 0.3513 -0.8012
vn 0.1129 0.2621 -0.9584
vn 0.7446 0.2854 -0.6035
vn 0.1523 0.3808 -0.9120
vn 0.8269 -0.4985 0.2601
vn 0.9219 0.2304 0.3115
vn 0.9942 -0.0558 0.0922
vn 0.9034 0.0563 -0.4252
vn 0.8470 0.4835 -0.2211
vn 0.9729 -0.1812 -0.1434
vn 0.6898 -0.3364 -0.6411
vn 0.5759 0.4140 -0.7049
vt 0.366450 0.199495
vt 0.366046 0.211845
vt 0.353278 0.205242
vt 0.360457 0.191849
vt 0.352178 0.190474
vt 0.354018 0.169158
vt 0.365310 0.185000
vt 0.357784 0.160792
vt 0.360078 0.171736
vt 0.359597 0.188554
vt 0.348089 0.219702
vt 0.362272 0.224820
vt 0.363127 0.248659
vt 0.371051 0.230177
vt 0.373398 0.249404
vt 0.377049 0.244086
vt 0.371710 0.212194
vt 0.375539 0.219102
vt 0.382428 0.241653
vt 0.338306 0.114181
vt 0.341506 0.125604
vt 0.312505 0.122849
vt 0.300729 0.166140
vt 0.314055 0.156128
vt 0.329726 0.177897
vt 0.346754 0.145651
vt 0.342679 0.167275
vt 0.328421 0.160059
vt 0.329044 0.139466
vt 0.356989 0.149394
vt 0.365021 0.150815
vt 0.359408 0.153808
vt 0.335793 0.192320
vt 0.323831 0.200417
vt 0.301356 0.172878
vt 0.298489 0.183704
vt 0.329253 0.215527
vt 0.309117 0.196930
vt 0.323799 0.225379
vt 0.307006 0.204199
vt 0.337072 0.157207
vt 0.342762 0.178889
vt 0.366762 0.202567
vt 0.264638 0.117655
vt 0.285352 0.098518
vt 0.285558 0.113466
vt 0.281624 0.145010
vt 0.277816 0.158064
vt 0.300990 0.140444
vt 0.257760 0.145406
vt 0.274446 0.133625
vt 0.241228 0.138396
vt 0.291617 0.125423
vt 0.273277 0.161198
vt 0.281458 0.165787
vt 0.241398 0.170902
vt 0.263794 0.160922
vt 0.255733 0.168670
vt 0.258886 0.182923
vt 0.251563 0.190675
vt 0.256178 0.160536
vt 0.287576 0.178503
vt 0.282472 0.156577
vt 0.271820 0.159497
vt 0.281677 0.146903
vt 0.240272 0.147292
vt 0.272166 0.141073
vt 0.249027 0.138168
vt 0.255283 0.190953
vt 0.256544 0.165205
vt 0.248860 0.154142
vt 0.285129 0.163539
vt 0.431599 0.261063
vt 0.425614 0.233632
vt 0.452480 0.248397
vt 0.432508 0.217241
vt 0.417391 0.227439
vt 0.457528 0.235616
vt 0.399063 0.142122
vt 0.395727 0.130205
vt 0.426605 0.127104
vt 0.400995 0.110834
vt 0.373274 0.115549
vt 0.425014 0.140940
vt 0.449344 0.117167
vt 0.370556 0.143525
vt 0.390699 0.150559
vt 0.411821 0.161850
vt 0.408613 0.163145
vt 0.393163 0.149859
vt 0.410559 0.160317
vt 0.429135 0.159618
vt 0.425895 0.155616
vt 0.451611 0.142754
vt 0.446846 0.163189
vt 0.450359 0.159084
vt 0.417163 0.250388
vt 0.394421 0.237314
vt 0.403112 0.196062
vt 0.369009 0.128512
vt 0.361699 0.090800
vt 0.376244 0.102816
vt 0.320399 0.103469
vt 0.320506 0.093740
vt 0.362608 0.081940
vt 0.400828 0.085905
vt 0.402941 0.099534
vt 0.356402 0.137207
vt 0.342951 0.148030
vt 0.315225 0.128936
vt 0.316322 0.139612
vt 0.383728 0.140084
vt 0.342719 0.157068
vt 0.333686 0.142228
vt 0.294660 0.086285
vt 0.259752 0.093565
vt 0.243650 0.096508
vt 0.261316 0.105194
vt 0.246725 0.092280
vt 0.280275 0.079229
vt 0.348125 0.071976
vt 0.342601 0.124280
vt 0.314256 0.133612
vt 0.494892 0.138168
vt 0.460324 0.129987
vt 0.476571 0.129140
vt 0.501163 0.158756
vt 0.473135 0.148925
vt 0.506219 0.135064
vt 0.469431 0.164932
vt 0.502944 0.165733
vt 0.463034 0.221819
vt 0.484183 0.236229
vt 0.502659 0.236659
vt 0.499794 0.259071
vt 0.451625 0.107608
vt 0.473589 0.114843
vt 0.484588 0.102514
vt 0.460411 0.100013
vt 0.490968 0.121097
vt 0.498020 0.096802
vt 0.509691 0.103307
vt 0.494315 0.101463
vt 0.427740 0.082523
vt 0.460693 0.088602
vt 0.468651 0.096474
vt 0.505584 0.050899
vt 0.504408 0.095630
vt 0.328305 0.041813
vt 0.243874 0.062004
vt 0.211091 0.026294
vt 0.568939 0.036900
vt 0.377169 0.264675
vt 0.336537 0.251307
vt 0.435700 0.320509
vt 0.421815 0.288968
vt 0.440583 0.297419
vt 0.454165 0.307474
vt 0.468096 0.286965
vt 0.431399 0.285604
vt 0.455566 0.297668
vt 0.431850 0.347150
vt 0.447625 0.341113
vt 0.459038 0.334929
vt 0.475151 0.347862
vt 0.394559 0.250860
vt 0.402271 0.282766
vt 0.422128 0.312301
vt 0.469113 0.301472
vt 0.476617 0.331434
vt 0.483467 0.302673
vt 0.494268 0.324891
vt 0.508461 0.304495
vt 0.209063 0.194908
vt 0.217401 0.172004
vt 0.218414 0.189556
vt 0.234464 0.175567
vt 0.242135 0.165227
vt 0.258126 0.164847
vt 0.224162 0.190237
vt 0.231393 0.184787
vt 0.215547 0.191507
vt 0.200810 0.189098
vt 0.261434 0.155656
vt 0.208926 0.165150
vt 0.212856 0.139747
vt 0.195798 0.139799
vt 0.208556 0.130497
vt 0.196614 0.129101
vt 0.223450 0.117627
vt 0.237590 0.129705
vt 0.212171 0.118810
vt 0.209862 0.117679
vt 0.225965 0.105440
vt 0.209778 0.124789
vt 0.183569 0.130319
vt 0.236643 0.183723
vt 0.231046 0.200771
vt 0.243094 0.151659
vt 0.223032 0.150237
vt 0.208872 0.151848
vt 0.199350 0.162221
vt 0.210336 0.160251
vt 0.185793 0.144702
vt 0.233634 0.144297
vt 0.244868 0.138500
vt 0.239599 0.123619
vt 0.248583 0.201344
vt 0.225159 0.209428
vt 0.202478 0.204629
vt 0.218039 0.223282
vt 0.193457 0.178490
vt 0.191877 0.174586
vt 0.189493 0.158949
vt 0.201638 0.172113
vt 0.178607 0.170791
vt 0.186898 0.140808
vt 0.176632 0.141464
vt 0.192104 0.190481
vt 0.193897 0.187863
vt 0.181160 0.172752
vt 0.178649 0.158254
vt 0.199222 0.204239
vt 0.192281 0.188750
vt 0.259923 0.104212
vt 0.241355 0.086948
vt 0.215274 0.083127
vt 0.183014 0.075355
vt 0.235106 0.111836
vt 0.220602 0.145840
vt 0.240041 0.114494
vt 0.181203 0.119245
vt 0.260055 0.102604
vt 0.196173 0.099205
vt 0.234744 0.084965
vt 0.268957 0.099573
vt 0.138872 0.075937
vt 0.190227 0.067621
vt 0.119267 0.110502
vt 0.149082 0.066543
vt 0.158649 0.062842
vt 0.134066 0.055248
vt 0.109145 0.045955
vt 0.104857 0.058771
vt 0.042008 0.047520
vt 0.078649 0.046789
vt 0.037555 0.052982
vt 1.109145 0.045955
vt 0.882416 0.026525
vt 1.211091 0.026294
vt 0.047134 0.052139
vt 1.037555 0.052982
vt 0.963716 0.053142
vt 1.042008 0.047520
vt 0.076070 0.100839
vt 0.044512 0.068575
vt 0.526911 0.141422
vt 0.524137 0.128861
vt 0.545088 0.164807
vt 0.525892 0.156886
vt 0.549517 0.150524
vt 0.547855 0.162314
vt 0.573475 0.159404
vt 0.516978 0.252263
vt 0.519911 0.235514
vt 0.533499 0.256205
vt 0.542458 0.235375
vt 0.520857 0.098783
vt 0.546876 0.094392
vt 0.522821 0.098718
vt 0.549024 0.109403
vt 0.525131 0.113925
vt 0.548745 0.132650
vt 0.575708 0.138227
vt 0.590761 0.102826
vt 0.552348 0.121529
vt 0.599574 0.080432
vt 0.555028 0.084617
vt 0.639573 0.070264
vt 0.565715 0.163293
vt 0.577756 0.146632
vt 0.585970 0.160423
vt 0.577746 0.125012
vt 0.600598 0.134192
vt 0.598635 0.114597
vt 0.613381 0.145681
vt 0.627719 0.123328
vt 0.630574 0.137763
vt 0.586079 0.164889
vt 0.594714 0.167167
vt 0.612696 0.155082
vt 0.636559 0.151247
vt 0.635599 0.154806
vt 0.569909 0.162584
vt 0.590083 0.165853
vt 0.610210 0.153978
vt 0.539842 0.102299
vt 0.629893 0.110154
vt 0.607400 0.088247
vt 0.645578 0.090605
vt 0.632551 0.096702
vt 0.651544 0.122037
vt 0.671912 0.117279
vt 0.673904 0.095980
vt 0.600763 0.146226
vt 0.659643 0.122404
vt 0.645134 0.132223
vt 0.684745 0.130088
vt 0.651796 0.142165
vt 0.684186 0.141230
vt 0.649749 0.151327
vt 0.663482 0.153710
vt 0.662979 0.153046
vt 0.660987 0.167528
vt 0.690070 0.098496
vt 0.664549 0.082196
vt 0.727550 0.083252
vt 0.692441 0.076890
vt 0.714706 0.100131
vt 0.739616 0.102544
vt 0.759076 0.096149
vt 0.731142 0.099228
vt 0.722929 0.101652
vt 0.728381 0.092148
vt 0.735483 0.109819
vt 0.684730 0.122647
vt 0.757936 0.119164
vt 0.687525 0.132777
vt 0.667479 0.145765
vt 0.649788 0.146743
vt 0.634486 0.170908
vt 0.632882 0.199033
vt 0.641870 0.181436
vt 0.632149 0.180603
vt 0.640178 0.188285
vt 0.645245 0.209816
vt 0.635620 0.230506
vt 0.633418 0.211489
vt 0.650626 0.189301
vt 0.628427 0.206667
vt 0.627625 0.219312
vt 0.635690 0.213499
vt 0.634989 0.209823
vt 0.628663 0.223787
vt 0.653030 0.229717
vt 0.653930 0.226050
vt 0.666630 0.137400
vt 0.689696 0.115883
vt 0.704244 0.121673
vt 0.645004 0.166385
vt 0.684480 0.153367
vt 0.658218 0.164091
vt 0.669466 0.161490
vt 0.675414 0.175470
vt 0.697458 0.167369
vt 0.639764 0.162289
vt 0.641543 0.155518
vt 0.656321 0.178211
vt 0.664231 0.195539
vt 0.720945 0.162726
vt 0.687545 0.186388
vt 0.686514 0.200388
vt 0.673150 0.216324
vt 0.660559 0.235135
vt 0.686229 0.212831
vt 0.671163 0.238281
vt 0.697514 0.192239
vt 0.714407 0.113891
vt 0.736219 0.113293
vt 0.705917 0.135390
vt 0.724132 0.133489
vt 0.718907 0.156159
vt 0.762622 0.131451
vt 0.741604 0.147544
vt 0.739931 0.158793
vt 0.734978 0.150826
vt 0.720275 0.142560
vt 0.755280 0.142062
vt 0.751159 0.136641
vt 0.725838 0.143392
vt 0.728462 0.160801
vt 0.759022 0.147830
vt 0.718495 0.157190
vt 0.718642 0.167935
vt 0.706905 0.186189
vt 0.713524 0.177008
vt 0.723984 0.163828
vt 0.737140 0.161163
vt 0.755016 0.172521
vt 0.714760 0.164692
vt 0.741191 0.168973
vt 0.744260 0.185622
vt 0.744595 0.158701
vt 0.510814 0.290419
vt 0.500092 0.295995
vt 0.521869 0.318142
vt 0.540181 0.300850
vt 0.534487 0.322374
vt 0.543498 0.283461
vt 0.528058 0.286326
vt 0.515305 0.346222
vt 0.499754 0.340896
vt 0.531325 0.351343
vt 0.530753 0.365236
vt 0.555278 0.306978
vt 0.565438 0.295037
vt 0.564009 0.305081
vt 0.547205 0.343517
vt 0.565437 0.337191
vt 0.573566 0.274829
vt 0.574743 0.309430
vt 0.915992 0.046165
vt 0.999789 0.044527
vt 0.895569 0.054820
vt 0.864538 0.055141
vt 0.875445 0.060959
vt 0.836399 0.064541
vt 0.831179 0.052184
vt 0.812424 0.065848
vt 0.816437 0.074593
vt 0.758195 0.087600
vt 0.789531 0.081460
vt 0.773258 0.075871
vt 0.757675 0.093218
vt 0.784885 0.122820
vt 0.764803 0.105669
vt 0.764272 0.110282
vt 0.782326 0.122304
vt 0.790060 0.119714
vt 0.795862 0.080209
vt 0.855758 0.061903
vt 0.808775 0.107845
vt 0.872069 0.089769
vt 0.765277 0.116053
vt 0.764534 0.123733
vt 0.792116 0.146249
vt 0.802457 0.133553
vt 0.812231 0.132149
vt 0.787421 0.132641
vt 0.782861 0.139954
vt 0.759204 0.160511
vt 0.762005 0.150754
vt 0.787075 0.170517
vt 0.800846 0.145788
vt 0.767718 0.142029
vt 0.805683 0.138612
vt 0.816392 0.137694
vt 0.756626 0.132160
vt 0.751403 0.156701
vt 0.771163 0.151099
vt 0.780919 0.152520
vt 0.794685 0.158568
vt 0.789716 0.161151
vt 0.748831 0.169273
vt 0.745524 0.185468
vt 0.774561 0.186654
vt 0.764945 0.192648
vt 0.768795 0.202660
vt 0.789545 0.210983
vt 0.779082 0.191538
vt 0.785020 0.225354
vt 0.798760 0.200244
vt 0.818809 0.149574
vt 0.809197 0.141174
vt 0.818112 0.161697
vt 0.809139 0.172248
vt 0.819272 0.158166
vt 0.811752 0.179753
vt 0.803424 0.180651
vt 0.795137 0.188130
vt 0.809048 0.183671
vt 0.804640 0.170873
vt 0.773336 0.186941
vt 0.773333 0.167892
vt 0.778359 0.184917
vt 0.790983 0.186540
vt 0.788514 0.191588
vt 0.798931 0.175773
vt 0.802684 0.188073
vt 0.302451 0.192061
vt 0.340160 0.166432
vt 0.340883 0.124158
vt 0.480370 0.267577
vt 0.434037 0.096634
vt 0.421579 0.271865
vt 0.498151 0.286702
vt 0.231665 0.144015
vt 0.202494 0.219286
vt 0.220171 0.076761
vt 1.078649 0.046789
vt 0.552297 0.226311
vt 0.557381 0.243471
vt 0.571731 0.220384
vt 0.568045 0.205264
vt 0.662879 0.138888
vt 0.641935 0.198852
vt 0.747940 0.195750
vt 0.565252 0.274070
vt 0.929980 0.081208
vt 1.044512 0.068575
vt 1.047134 0.052139
vt 0.824989 0.122948
vt 0.763903 0.215249
vt 0.801395 0.202784
s 1
f 9/1/9 6/2/6 5/3/5
f 7/4/7 8/5/8 32/6/32
f 7/4/7 32/6/32 10/7/10
f 10/7/10 32/6/32 11/8/11
f 12/9/12 10/7/10 11/8/11
f 23/10/23 10/7/10 12/9/12
f 15/11/15 4/12/4 14/13/14
f 5/3/5 4/12/4 15/11/15
f 4/12/4 17/14/17 16/15/16
f 4/12/4 16/15/16 14/13/14
f 4/12/4 6/2/6 17/14/17
f 16/15/16 17/14/17 18/16/18
f 18/16/18 17/14/17 19/17/19
f 19/17/19 6/2/6 9/1/9
f 18/16/18 19/17/19 20/18/20
f 20/18/20 21/19/21 18/16/18
f 100/20/100 25/21/25 24/22/24
f 26/23/26 28/24/28 39/25/39
f 33/26/33 29/27/29 27/28/27
f 31/29/31 27/28/27 28/24/28
f 31/29/31 25/21/25 33/26/33
f 24/22/24 25/21/25 31/29/31
f 11/8/11 32/6/32 2/30/2
f 2/30/2 3/31/3 34/32/34
f 38/33/38 5/3/5 35/34/35
f 36/35/36 39/25/39 38/33/38
f 36/35/36 38/33/38 37/36/37
f 39/25/39 29/27/29 38/33/38
f 13/37/13 5/3/5 15/11/15
f 43/38/43 35/34/35 13/37/13
f 43/38/43 42/39/42 44/40/44
f 41/41/41 23/10/23 12/9/12
f 46/42/46 23/10/23 41/41/41
f 46/42/46 22/43/22 23/10/23
f 49/44/49 116/45/116 50/46/50
f 54/47/54 28/24/28 55/48/55
f 54/47/54 30/49/30 28/24/28
f 53/50/53 48/51/48 54/47/54
f 48/51/48 30/49/30 54/47/54
f 206/52/206 49/44/49 48/51/48
f 47/53/47 24/22/24 30/49/30
f 55/48/55 26/23/26 36/35/36
f 59/54/59 55/48/55 58/55/58
f 56/56/56 60/57/60 64/58/64
f 58/55/58 36/35/36 37/36/37
f 61/59/61 57/60/57 64/58/64
f 64/58/64 60/57/60 65/61/65
f 62/62/62 66/63/66 58/55/58
f 60/57/60 63/64/63 65/61/65
f 58/55/58 68/65/68 63/64/63
f 65/61/65 63/64/63 69/66/69
f 71/67/71 68/65/68 66/63/66
f 63/64/63 68/65/68 70/68/70
f 57/60/57 61/59/61 73/69/73
f 74/70/74 73/69/73 61/59/61
f 74/70/74 65/61/65 67/71/67
f 75/72/75 66/63/66 62/62/62
f 176/73/176 79/74/79 81/75/81
f 83/76/83 79/74/79 80/77/80
f 81/75/81 79/74/79 82/78/82
f 83/76/83 82/78/82 79/74/79
f 84/79/84 85/80/85 88/81/88
f 89/82/89 85/80/85 86/83/86
f 84/79/84 88/81/88 87/84/87
f 89/82/89 141/85/141 88/81/88
f 91/86/91 92/87/92 2/30/2
f 2/30/2 92/87/92 3/31/3
f 85/80/85 84/79/84 91/86/91
f 92/87/92 95/88/95 93/89/93
f 3/31/3 92/87/92 94/90/94
f 94/90/94 93/89/93 97/91/97
f 84/79/84 87/84/87 95/88/95
f 93/89/93 77/92/77 96/93/96
f 77/92/77 87/84/87 76/94/76
f 77/92/77 133/95/133 96/93/96
f 96/93/96 133/95/133 134/96/134
f 80/77/80 78/97/78 172/98/172
f 83/76/83 80/77/80 98/99/98
f 100/20/100 99/100/99 25/21/25
f 86/83/86 99/100/99 100/20/100
f 86/83/86 85/80/85 99/100/99
f 103/101/103 102/102/102 101/103/101
f 104/104/104 105/105/105 103/101/103
f 103/101/103 152/106/152 90/107/90
f 110/108/110 40/109/40 34/32/34
f 108/110/108 106/111/106 40/109/40
f 108/110/108 40/109/40 110/108/110
f 110/108/110 3/31/3 111/112/111
f 115/113/115 41/41/41 107/114/107
f 116/45/116 101/103/101 50/46/50
f 117/115/117 105/105/105 104/104/104
f 116/45/116 117/115/117 104/104/104
f 119/116/119 239/117/239 118/118/118
f 120/119/120 121/120/121 117/115/117
f 121/120/121 122/121/122 117/115/117
f 113/122/113 107/114/107 109/123/109
f 129/124/129 127/125/127 128/126/128
f 130/127/130 126/128/126 129/124/129
f 128/126/128 131/129/131 129/124/129
f 77/92/77 76/94/76 133/95/133
f 133/95/133 126/128/126 135/130/135
f 135/130/135 130/127/130 136/131/136
f 83/76/83 138/132/138 82/78/82
f 139/133/139 140/134/140 125/135/125
f 76/94/76 88/81/88 127/125/127
f 141/85/141 127/125/127 88/81/88
f 90/107/90 142/136/142 89/82/89
f 141/85/141 128/126/128 127/125/127
f 144/137/144 128/126/128 141/85/141
f 142/136/142 144/137/144 141/85/141
f 146/138/146 142/136/142 145/139/145
f 144/137/144 132/140/132 128/126/128
f 142/136/142 146/138/146 144/137/144
f 147/141/147 146/138/146 145/139/145
f 146/138/146 148/142/148 144/137/144
f 149/143/149 147/141/147 145/139/145
f 153/144/153 152/106/152 105/105/105
f 154/145/154 143/146/143 152/106/152
f 153/144/153 154/145/154 152/106/152
f 155/147/155 154/145/154 122/121/122
f 154/145/154 150/148/150 149/143/149
f 156/149/156 122/121/122 121/120/121
f 156/149/156 121/120/121 242/150/242
f 156/149/156 155/147/155 122/121/122
f 157/151/157 158/152/158 156/149/156
f 14/13/14 162/153/162 161/154/161
f 162/153/162 16/15/16 18/16/18
f 164/155/164 173/156/173 165/157/165
f 164/155/164 165/157/165 166/158/166
f 179/159/179 165/157/165 175/160/175
f 166/158/166 165/157/165 167/161/167
f 169/162/169 164/155/164 170/163/170
f 170/163/170 168/164/168 185/165/185
f 163/166/163 173/156/173 160/167/160
f 171/168/171 173/156/173 164/155/164
f 172/98/172 78/97/78 173/156/173
f 78/97/78 79/74/79 176/73/176
f 166/158/166 177/169/177 178/170/178
f 178/170/178 177/169/177 180/171/180
f 181/172/181 180/171/180 183/173/183
f 168/164/168 178/170/178 185/165/185
f 194/174/194 189/175/189 187/176/187
f 188/177/188 192/178/192 56/56/56
f 192/178/192 1/179/1 56/56/56
f 187/176/187 188/177/188 193/180/193
f 194/174/194 187/176/187 193/180/193
f 193/180/193 188/177/188 196/181/196
f 193/180/193 196/181/196 195/182/195
f 194/174/194 195/182/195 197/183/197
f 192/178/192 53/50/53 52/184/52
f 190/185/190 203/186/203 189/175/189
f 207/187/207 203/186/203 190/185/190
f 207/187/207 205/188/205 203/186/203
f 207/187/207 209/189/209 205/188/205
f 205/188/205 208/190/208 204/191/204
f 209/189/209 210/192/210 208/190/208
f 209/189/209 212/193/212 210/192/210
f 210/192/210 212/193/212 238/194/238
f 213/195/213 212/193/212 211/196/211
f 56/56/56 64/58/64 196/181/196
f 214/197/214 225/198/225 196/181/196
f 195/182/195 196/181/196 225/198/225
f 67/71/67 65/61/65 215/199/215
f 218/200/218 215/199/215 217/201/217
f 216/202/216 219/203/219 218/200/218
f 216/202/216 217/201/217 222/204/222
f 218/200/218 220/205/220 67/71/67
f 222/204/222 217/201/217 213/195/213
f 220/205/220 224/206/224 71/67/71
f 69/66/69 223/207/223 213/195/213
f 222/204/222 213/195/213 211/196/211
f 225/198/225 72/208/72 198/209/198
f 195/182/195 225/198/225 226/210/226
f 226/210/226 198/209/198 199/211/199
f 57/60/57 73/69/73 72/208/72
f 229/212/229 216/202/216 234/213/234
f 229/212/229 219/203/219 216/202/216
f 230/214/230 191/215/191 231/216/231
f 191/215/191 207/187/207 190/185/190
f 232/217/232 207/187/207 230/214/230
f 233/218/233 209/189/209 232/217/232
f 233/218/233 211/196/211 209/189/209
f 201/219/201 231/216/231 200/220/200
f 235/221/235 231/216/231 201/219/201
f 236/222/236 235/221/235 234/213/234
f 236/222/236 231/216/231 235/221/235
f 236/222/236 211/196/211 233/218/233
f 226/210/226 234/213/234 197/183/197
f 228/223/228 237/224/237 226/210/226
f 237/224/237 229/212/229 234/213/234
f 229/212/229 237/224/237 228/223/228
f 208/190/208 120/119/120 51/225/51
f 239/117/239 240/226/240 120/119/120
f 240/226/240 121/120/121 120/119/120
f 241/227/241 240/226/240 239/117/239
f 245/228/245 240/226/240 241/227/241
f 246/229/246 223/207/223 70/68/70
f 221/230/221 224/206/224 220/205/220
f 247/231/247 223/207/223 246/229/246
f 247/231/247 118/118/118 239/117/239
f 248/232/248 246/229/246 221/230/221
f 124/233/124 118/118/118 247/231/247
f 249/234/249 246/229/246 248/232/248
f 250/235/250 124/233/124 246/229/246
f 250/235/250 119/116/119 123/236/123
f 250/235/250 123/236/123 124/233/124
f 249/234/249 250/235/250 246/229/246
f 251/237/251 249/234/249 248/232/248
f 249/234/249 253/238/253 250/235/250
f 251/237/251 253/238/253 249/234/249
f 252/239/252 251/237/251 248/232/248
f 253/238/253 254/240/254 245/228/245
f 254/240/254 244/241/244 245/228/245
f 256/242/256 254/240/254 253/238/253
f 244/241/244 255/243/255 242/150/242
f 157/151/157 242/150/242 255/243/255
f 257/244/257 244/241/244 254/240/254
f 254/240/254 256/242/256 257/244/257
f 430/245/430 244/241/244 257/244/257
f 256/242/256 258/246/258 257/244/257
f 257/244/257 258/246/258 259/247/259
f 255/248/255 159/249/159 157/250/157
f 251/237/251 256/242/256 253/238/253
f 262/251/262 256/242/256 251/237/251
f 259/252/259 261/253/261 430/254/430
f 263/255/263 251/237/251 252/239/252
f 263/255/263 264/256/264 251/237/251
f 129/124/129 131/129/131 267/257/267
f 131/129/131 265/258/265 267/257/267
f 269/259/269 266/260/266 268/261/268
f 270/262/270 269/259/269 271/263/271
f 272/264/272 140/134/140 275/265/275
f 274/266/274 275/265/275 273/267/273
f 277/268/277 147/141/147 149/143/149
f 281/269/281 277/268/277 278/270/278
f 283/271/283 279/272/279 148/142/148
f 284/273/284 297/274/297 267/257/267
f 285/275/285 282/276/282 283/271/283
f 150/148/150 278/270/278 149/143/149
f 288/277/288 281/269/281 278/270/278
f 287/278/287 288/277/288 278/270/278
f 289/279/289 287/278/287 158/152/158
f 269/259/269 268/261/268 291/280/291
f 291/280/291 268/261/268 298/281/298
f 269/259/269 291/280/291 271/263/271
f 292/282/292 291/280/291 298/281/298
f 296/283/296 297/274/297 284/273/284
f 296/283/296 282/276/282 285/275/285
f 268/261/268 297/274/297 298/281/298
f 300/284/300 297/274/297 296/283/296
f 299/285/299 300/284/300 296/283/296
f 301/286/301 298/281/298 300/284/300
f 302/287/302 300/284/300 299/285/299
f 303/288/303 300/284/300 302/287/302
f 292/282/292 298/281/298 301/286/301
f 304/289/304 292/282/292 306/290/306
f 307/291/307 306/290/306 292/282/292
f 292/282/292 301/286/301 307/291/307
f 309/292/309 307/291/307 308/293/308
f 286/294/286 304/289/304 311/295/311
f 311/295/311 304/289/304 306/290/306
f 305/296/305 311/295/311 306/290/306
f 280/297/280 285/275/285 283/271/283
f 313/298/313 285/275/285 312/299/312
f 315/300/315 312/299/312 288/277/288
f 315/300/315 314/301/314 312/299/312
f 317/302/317 302/287/302 313/298/313
f 358/303/358 314/301/314 316/304/316
f 310/305/310 305/296/305 309/292/309
f 320/306/320 319/307/319 322/308/322
f 319/307/319 323/309/323 322/308/322
f 324/310/324 323/309/323 370/311/370
f 326/312/326 371/313/371 327/314/327
f 328/315/328 316/304/316 318/316/318
f 330/317/330 318/316/318 290/318/290
f 330/317/330 328/315/328 318/316/318
f 329/319/329 328/315/328 330/317/330
f 329/319/329 330/317/330 334/320/334
f 334/320/334 330/317/330 333/321/333
f 336/322/336 335/323/335 331/324/331
f 339/325/339 331/324/331 335/323/335
f 337/326/337 320/306/320 322/308/322
f 338/327/338 339/325/339 335/323/335
f 340/328/340 324/310/324 325/329/325
f 322/308/322 324/310/324 340/328/340
f 337/326/337 322/308/322 340/328/340
f 361/330/361 308/293/308 301/286/301
f 342/331/342 344/332/344 343/333/343
f 344/332/344 341/334/341 346/335/346
f 344/332/344 346/335/346 347/336/347
f 348/337/348 345/338/345 347/336/347
f 347/336/347 346/335/346 349/339/349
f 351/340/351 354/341/354 352/342/352
f 350/343/350 351/340/351 352/342/352
f 351/340/351 353/344/353 354/341/354
f 345/338/345 353/344/353 344/332/344
f 348/337/348 354/341/354 353/344/353
f 352/342/352 348/337/348 355/345/355
f 356/346/356 348/337/348 347/336/347
f 317/302/317 303/288/303 302/287/302
f 357/347/357 303/288/303 317/302/317
f 357/347/357 317/302/317 358/303/358
f 359/348/359 360/349/360 358/303/358
f 361/330/361 303/288/303 357/347/357
f 363/350/363 308/293/308 361/330/361
f 366/351/366 357/347/357 360/349/360
f 363/350/363 364/352/364 346/335/346
f 357/347/357 365/353/365 361/330/361
f 367/354/367 364/352/364 365/353/365
f 367/354/367 365/353/365 368/355/368
f 368/355/368 365/353/365 366/351/366
f 309/292/309 362/356/362 369/357/369
f 370/311/370 369/357/369 342/331/342
f 370/311/370 309/292/309 369/357/369
f 377/358/377 370/311/370 343/333/343
f 371/313/371 370/311/370 377/358/377
f 362/356/362 363/350/363 341/334/341
f 372/359/372 347/336/347 349/339/349
f 375/360/375 374/361/374 367/354/367
f 373/362/373 372/359/372 374/361/374
f 375/360/375 367/354/367 368/355/368
f 327/314/327 371/313/371 377/358/377
f 380/363/380 378/364/378 355/345/355
f 382/365/382 381/366/381 380/363/380
f 382/365/382 373/362/373 379/367/379
f 347/336/347 372/359/372 373/362/373
f 373/362/373 356/346/356 347/336/347
f 373/362/373 380/363/380 356/346/356
f 359/348/359 358/303/358 316/304/316
f 328/315/328 359/348/359 316/304/316
f 383/368/383 328/315/328 329/319/329
f 384/369/384 383/368/383 329/319/329
f 383/368/383 360/349/360 359/348/359
f 384/369/384 329/319/329 334/320/334
f 386/370/386 366/351/366 360/349/360
f 385/371/385 388/372/388 386/370/386
f 387/373/387 389/374/389 385/371/385
f 390/375/390 388/372/388 385/371/385
f 390/375/390 385/371/385 389/374/389
f 390/375/390 375/360/375 388/372/388
f 398/376/398 395/377/395 393/378/393
f 393/378/393 395/377/395 394/379/394
f 394/379/394 395/377/395 396/380/396
f 394/379/394 401/381/401 400/382/400
f 397/383/397 405/384/405 395/377/395
f 405/384/405 396/380/396 395/377/395
f 404/385/404 405/384/405 410/386/410
f 401/381/401 405/384/405 406/387/406
f 402/388/402 401/381/401 406/387/406
f 404/385/404 374/361/374 406/387/406
f 391/389/391 406/387/406 375/360/375
f 410/386/410 409/390/409 379/367/379
f 410/386/410 397/383/397 409/390/409
f 403/391/403 411/392/411 399/393/399
f 413/394/413 183/173/183 184/395/184
f 414/396/414 421/397/421 417/398/417
f 416/399/416 421/397/421 415/400/415
f 418/401/418 186/402/186 414/396/414
f 418/401/418 417/398/417 419/403/419
f 420/404/420 418/401/418 419/403/419
f 417/398/417 421/397/421 423/405/423
f 423/405/423 424/406/424 425/407/425
f 422/408/422 423/405/423 427/409/427
f 429/410/429 426/411/426 424/406/424
f 431/412/431 261/253/261 260/413/260
f 433/414/433 430/254/430 261/253/261
f 434/415/434 261/253/261 431/412/431
f 436/416/436 433/414/433 261/253/261
f 159/249/159 290/318/290 158/152/158
f 435/417/435 432/418/432 433/414/433
f 436/416/436 435/417/435 433/414/433
f 432/418/432 290/318/290 159/249/159
f 437/419/437 436/416/436 434/415/434
f 436/416/436 442/420/442 435/417/435
f 432/418/432 330/317/330 290/318/290
f 444/421/444 330/317/330 432/418/432
f 435/417/435 443/422/443 444/421/444
f 442/420/442 441/423/441 332/424/332
f 443/422/443 332/424/332 444/421/444
f 446/425/446 333/321/333 445/426/445
f 458/427/458 334/320/334 333/321/333
f 460/428/460 333/321/333 447/429/447
f 448/430/448 437/419/437 438/431/438
f 448/430/448 441/423/441 437/419/437
f 449/432/449 438/431/438 440/433/440
f 449/432/449 448/430/448 438/431/438
f 441/423/441 336/322/336 331/324/331
f 448/430/448 336/322/336 441/423/441
f 451/434/451 338/327/338 336/322/336
f 452/435/452 445/426/445 339/325/339
f 446/425/446 445/426/445 452/435/452
f 449/432/449 455/436/455 451/434/451
f 387/373/387 384/369/384 458/427/458
f 458/427/458 384/369/384 334/320/334
f 461/437/461 447/429/447 459/438/459
f 461/437/461 456/439/456 460/428/460
f 461/437/461 457/440/457 456/439/456
f 392/441/392 389/374/389 463/442/463
f 464/443/464 457/440/457 462/444/462
f 454/445/454 394/379/394 451/434/451
f 446/425/446 465/446/465 466/447/466
f 400/382/400 453/448/453 394/379/394
f 400/382/400 468/449/468 469/450/469
f 469/450/469 393/378/393 454/445/454
f 467/451/467 469/450/469 454/445/454
f 470/452/470 467/451/467 475/453/475
f 407/454/407 408/455/408 403/391/403
f 391/389/391 407/454/407 406/387/406
f 472/456/472 473/457/473 407/454/407
f 478/458/478 408/455/408 473/457/473
f 480/459/480 478/458/478 474/460/474
f 480/459/480 495/461/495 478/458/478
f 481/462/481 480/459/480 474/460/474
f 483/463/483 461/437/461 459/438/459
f 482/464/482 462/444/462 461/437/461
f 484/465/484 482/464/482 483/463/483
f 485/466/485 482/464/482 484/465/484
f 486/467/486 465/446/465 470/452/470
f 484/465/484 483/463/483 486/467/486
f 489/468/489 484/465/484 486/467/486
f 489/468/489 487/469/487 488/470/488
f 481/462/481 488/470/488 487/469/487
f 476/471/476 487/469/487 471/472/471
f 481/462/481 487/469/487 476/471/476
f 391/389/391 390/375/390 392/441/392
f 491/473/491 392/441/392 490/474/490
f 492/475/492 490/474/490 464/443/464
f 493/476/493 492/475/492 464/443/464
f 474/460/474 473/457/473 472/456/472
f 472/456/472 391/389/391 491/473/491
f 488/470/488 472/456/472 494/477/494
f 494/477/494 491/473/491 492/475/492
f 496/478/496 464/443/464 462/444/462
f 485/466/485 496/478/496 462/444/462
f 496/478/496 493/476/493 464/443/464
f 497/479/497 485/466/485 489/468/489
f 497/479/497 493/476/493 485/466/485
f 1/179/1 192/178/192 52/184/52
f 5/3/5 38/33/38 8/5/8
f 5/3/5 6/2/6 4/12/4
f 5/3/5 8/5/8 7/4/7
f 9/1/9 5/3/5 7/4/7
f 32/6/32 8/5/8 29/27/29
f 9/1/9 7/4/7 10/7/10
f 23/10/23 9/1/9 10/7/10
f 13/37/13 15/11/15 14/13/14
f 161/154/161 13/37/13 14/13/14
f 17/14/17 6/2/6 19/17/19
f 22/43/22 19/17/19 9/1/9
f 22/43/22 20/18/20 19/17/19
f 23/10/23 22/43/22 9/1/9
f 28/24/28 27/28/27 39/25/39
f 39/25/39 27/28/27 29/27/29
f 31/29/31 33/26/33 27/28/27
f 30/49/30 24/22/24 31/29/31
f 30/49/30 31/29/31 28/24/28
f 2/30/2 29/27/29 33/26/33
f 2/30/2 32/6/32 29/27/29
f 33/26/33 25/21/25 91/86/91
f 33/26/33 91/86/91 2/30/2
f 34/32/34 11/8/11 2/30/2
f 91/86/91 25/21/25 99/100/99
f 36/35/36 26/23/26 39/25/39
f 37/36/37 38/33/38 35/34/35
f 38/33/38 29/27/29 8/5/8
f 40/109/40 12/9/12 11/8/11
f 34/32/34 40/109/40 11/8/11
f 41/41/41 12/9/12 40/109/40
f 106/111/106 41/41/41 40/109/40
f 13/37/13 35/34/35 5/3/5
f 42/39/42 13/37/13 161/154/161
f 43/38/43 13/37/13 42/39/42
f 43/38/43 37/36/37 35/34/35
f 44/40/44 45/480/45 43/38/43
f 114/481/114 46/42/46 41/41/41
f 49/44/49 50/46/50 47/53/47
f 50/46/50 24/22/24 47/53/47
f 101/103/101 100/20/100 24/22/24
f 50/46/50 101/103/101 24/22/24
f 49/44/49 51/225/51 116/45/116
f 1/179/1 52/184/52 55/48/55
f 1/179/1 55/48/55 59/54/59
f 26/23/26 55/48/55 28/24/28
f 55/48/55 52/184/52 54/47/54
f 52/184/52 53/50/53 54/47/54
f 48/51/48 47/53/47 30/49/30
f 206/52/206 48/51/48 53/50/53
f 49/44/49 47/53/47 48/51/48
f 56/56/56 1/179/1 59/54/59
f 58/55/58 55/48/55 36/35/36
f 56/56/56 59/54/59 60/57/60
f 58/55/58 37/36/37 62/62/62
f 63/64/63 59/54/59 58/55/58
f 60/57/60 59/54/59 63/64/63
f 66/63/66 68/65/68 58/55/58
f 71/67/71 70/68/70 68/65/68
f 69/66/69 63/64/63 70/68/70
f 224/206/224 70/68/70 71/67/71
f 62/62/62 37/36/37 43/38/43
f 45/480/45 62/62/62 43/38/43
f 61/59/61 64/58/64 65/61/65
f 65/61/65 74/70/74 61/59/61
f 62/62/62 45/480/45 75/72/75
f 79/74/79 78/97/78 80/77/80
f 89/82/89 88/81/88 85/80/85
f 76/94/76 87/84/87 88/81/88
f 91/86/91 99/100/99 85/80/85
f 92/87/92 91/86/91 84/79/84
f 95/88/95 92/87/92 84/79/84
f 94/90/94 92/87/92 93/89/93
f 77/92/77 95/88/95 87/84/87
f 77/92/77 93/89/93 95/88/95
f 97/91/97 93/89/93 96/93/96
f 100/20/100 102/102/102 86/83/86
f 101/103/101 102/102/102 100/20/100
f 104/104/104 103/101/103 101/103/101
f 102/102/102 89/82/89 86/83/86
f 90/107/90 89/82/89 102/102/102
f 103/101/103 90/107/90 102/102/102
f 105/105/105 152/106/152 103/101/103
f 106/111/106 109/123/109 41/41/41
f 109/123/109 107/114/107 41/41/41
f 110/108/110 34/32/34 3/31/3
f 111/112/111 3/31/3 94/90/94
f 112/482/112 108/110/108 110/108/110
f 115/113/115 114/481/114 41/41/41
f 116/45/116 104/104/104 101/103/101
f 116/45/116 120/119/120 117/115/117
f 51/225/51 120/119/120 116/45/116
f 122/121/122 105/105/105 117/115/117
f 108/110/108 109/123/109 106/111/106
f 109/123/109 108/110/108 113/122/113
f 118/118/118 123/236/123 119/116/119
f 124/233/124 123/236/123 118/118/118
f 126/128/126 76/94/76 127/125/127
f 129/124/129 126/128/126 127/125/127
f 132/140/132 131/129/131 128/126/128
f 126/128/126 133/95/133 76/94/76
f 135/130/135 134/96/134 133/95/133
f 135/130/135 126/128/126 130/127/130
f 139/133/139 137/483/137 82/78/82
f 139/133/139 82/78/82 138/132/138
f 89/82/89 142/136/142 141/85/141
f 151/484/151 145/139/145 90/107/90
f 90/107/90 145/139/145 142/136/142
f 151/484/151 143/146/143 145/139/145
f 143/146/143 149/143/149 145/139/145
f 144/137/144 148/142/148 132/140/132
f 152/106/152 151/484/151 90/107/90
f 151/484/151 152/106/152 143/146/143
f 122/121/122 153/144/153 105/105/105
f 122/121/122 154/145/154 153/144/153
f 154/145/154 149/143/149 143/146/143
f 155/147/155 287/278/287 154/145/154
f 242/150/242 157/151/157 156/149/156
f 156/149/156 158/152/158 155/147/155
f 159/249/159 158/152/158 157/250/157
f 14/13/14 16/15/16 162/153/162
f 162/153/162 18/16/18 21/19/21
f 168/164/168 164/155/164 166/158/166
f 179/159/179 167/161/167 165/157/165
f 170/163/170 164/155/164 168/164/168
f 160/167/160 173/156/173 171/168/171
f 163/166/163 172/98/172 173/156/173
f 173/156/173 78/97/78 174/485/174
f 173/156/173 175/160/175 165/157/165
f 175/160/175 173/156/173 174/485/174
f 174/485/174 176/73/176 175/160/175
f 174/485/174 78/97/78 176/73/176
f 171/168/171 164/155/164 169/162/169
f 177/169/177 166/158/166 167/161/167
f 178/170/178 168/164/168 166/158/166
f 179/159/179 177/169/177 167/161/167
f 181/172/181 178/170/178 180/171/180
f 179/159/179 180/171/180 177/169/177
f 180/171/180 184/395/184 183/173/183
f 182/486/182 184/395/184 180/171/180
f 186/402/186 185/165/185 178/170/178
f 186/402/186 178/170/178 181/172/181
f 187/176/187 189/175/189 188/177/188
f 194/174/194 191/215/191 189/175/189
f 191/215/191 190/185/190 189/175/189
f 192/178/192 188/177/188 202/487/202
f 188/177/188 189/175/189 202/487/202
f 194/174/194 193/180/193 195/182/195
f 196/181/196 188/177/188 56/56/56
f 200/220/200 191/215/191 194/174/194
f 201/219/201 200/220/200 194/174/194
f 201/219/201 194/174/194 197/183/197
f 203/186/203 204/191/204 202/487/202
f 203/186/203 205/188/205 204/191/204
f 204/191/204 49/44/49 206/52/206
f 192/178/192 202/487/202 53/50/53
f 202/487/202 206/52/206 53/50/53
f 189/175/189 203/186/203 202/487/202
f 202/487/202 204/191/204 206/52/206
f 208/190/208 49/44/49 204/191/204
f 209/189/209 208/190/208 205/188/205
f 209/189/209 211/196/211 212/193/212
f 208/190/208 51/225/51 49/44/49
f 208/190/208 210/192/210 238/194/238
f 196/181/196 64/58/64 214/197/214
f 225/198/225 214/197/214 57/60/57
f 57/60/57 214/197/214 64/58/64
f 69/66/69 215/199/215 65/61/65
f 217/201/217 215/199/215 69/66/69
f 218/200/218 67/71/67 215/199/215
f 217/201/217 216/202/216 218/200/218
f 218/200/218 221/230/221 220/205/220
f 213/195/213 217/201/217 69/66/69
f 70/68/70 223/207/223 69/66/69
f 225/198/225 57/60/57 72/208/72
f 226/210/226 225/198/225 198/209/198
f 226/210/226 197/183/197 195/182/195
f 227/488/227 226/210/226 199/211/199
f 227/488/227 228/223/228 226/210/226
f 218/200/218 219/203/219 221/230/221
f 200/220/200 231/216/231 191/215/191
f 230/214/230 207/187/207 191/215/191
f 231/216/231 232/217/232 230/214/230
f 207/187/207 232/217/232 209/189/209
f 231/216/231 233/218/233 232/217/232
f 201/219/201 234/213/234 235/221/235
f 201/219/201 197/183/197 234/213/234
f 231/216/231 236/222/236 233/218/233
f 236/222/236 216/202/216 222/204/222
f 236/222/236 234/213/234 216/202/216
f 222/204/222 211/196/211 236/222/236
f 226/210/226 237/224/237 234/213/234
f 208/190/208 238/194/238 120/119/120
f 238/194/238 212/193/212 120/119/120
f 212/193/212 213/195/213 120/119/120
f 213/195/213 239/117/239 120/119/120
f 241/227/241 239/117/239 119/116/119
f 240/226/240 242/150/242 121/120/121
f 119/116/119 243/489/243 241/227/241
f 240/226/240 244/241/244 242/150/242
f 245/228/245 244/241/244 240/226/240
f 245/228/245 241/227/241 243/489/243
f 245/228/245 243/489/243 253/238/253
f 224/206/224 246/229/246 70/68/70
f 221/230/221 246/229/246 224/206/224
f 213/195/213 247/231/247 239/117/239
f 213/195/213 223/207/223 247/231/247
f 246/229/246 124/233/124 247/231/247
f 243/489/243 119/116/119 250/235/250
f 253/238/253 243/489/243 250/235/250
f 244/241/244 430/245/430 255/243/255
f 259/247/259 430/245/430 257/244/257
f 260/413/260 259/252/259 258/490/258
f 251/237/251 264/256/264 262/251/262
f 131/129/131 132/140/132 265/258/265
f 130/127/130 129/124/129 266/260/266
f 129/124/129 267/257/267 266/260/266
f 266/260/266 267/257/267 268/261/268
f 265/258/265 284/273/284 267/257/267
f 268/261/268 267/257/267 297/274/297
f 136/131/136 130/127/130 266/260/266
f 136/131/136 266/260/266 269/259/269
f 272/264/272 125/135/125 140/134/140
f 275/265/275 276/491/276 273/267/273
f 147/141/147 148/142/148 146/138/146
f 279/272/279 265/258/265 132/140/132
f 148/142/148 279/272/279 132/140/132
f 277/268/277 280/297/280 147/141/147
f 278/270/278 277/268/277 149/143/149
f 148/142/148 280/297/280 283/271/283
f 147/141/147 280/297/280 148/142/148
f 279/272/279 282/276/282 265/258/265
f 283/271/283 282/276/282 279/272/279
f 281/269/281 280/297/280 277/268/277
f 282/276/282 284/273/284 265/258/265
f 312/299/312 280/297/280 281/269/281
f 288/277/288 312/299/312 281/269/281
f 150/148/150 287/278/287 278/270/278
f 155/147/155 158/152/158 287/278/287
f 287/278/287 289/279/289 288/277/288
f 158/152/158 290/318/290 289/279/289
f 293/492/293 273/267/273 276/491/276
f 295/493/295 293/492/293 276/491/276
f 282/276/282 296/283/296 284/273/284
f 285/275/285 299/285/299 296/283/296
f 300/284/300 298/281/298 297/274/297
f 303/288/303 301/286/301 300/284/300
f 304/289/304 291/280/291 292/282/292
f 304/289/304 271/263/271 291/280/291
f 307/291/307 305/296/305 306/290/306
f 301/286/301 308/293/308 307/291/307
f 309/292/309 305/296/305 307/291/307
f 286/294/286 271/263/271 304/289/304
f 294/494/294 295/493/295 276/491/276
f 280/297/280 312/299/312 285/275/285
f 285/275/285 313/298/313 299/285/299
f 312/299/312 314/301/314 313/298/313
f 313/298/313 302/287/302 299/285/299
f 316/304/316 314/301/314 315/300/315
f 314/301/314 317/302/317 313/298/313
f 358/303/358 317/302/317 314/301/314
f 289/279/289 318/316/318 288/277/288
f 318/316/318 315/300/315 288/277/288
f 319/307/319 310/305/310 309/292/309
f 323/309/323 319/307/319 309/292/309
f 324/310/324 322/308/322 323/309/323
f 326/312/326 325/329/325 371/313/371
f 316/304/316 315/300/315 318/316/318
f 289/279/289 290/318/290 318/316/318
f 339/325/339 332/424/332 331/324/331
f 338/327/338 335/323/335 336/322/336
f 321/495/321 337/326/337 340/328/340
f 340/328/340 325/329/325 321/495/321
f 342/331/342 362/356/362 341/334/341
f 342/331/342 341/334/341 344/332/344
f 346/335/346 341/334/341 363/350/363
f 344/332/344 347/336/347 345/338/345
f 343/333/343 344/332/344 351/340/351
f 351/340/351 344/332/344 353/344/353
f 348/337/348 353/344/353 345/338/345
f 352/342/352 354/341/354 348/337/348
f 356/346/356 355/345/355 348/337/348
f 361/330/361 301/286/301 303/288/303
f 362/356/362 309/292/309 308/293/308
f 363/350/363 362/356/362 308/293/308
f 360/349/360 357/347/357 358/303/358
f 363/350/363 361/330/361 364/352/364
f 361/330/361 365/353/365 364/352/364
f 357/347/357 366/351/366 365/353/365
f 343/333/343 370/311/370 342/331/342
f 370/311/370 323/309/323 309/292/309
f 371/313/371 324/310/324 370/311/370
f 371/313/371 325/329/325 324/310/324
f 342/331/342 369/357/369 362/356/362
f 349/339/349 346/335/346 364/352/364
f 364/352/364 367/354/367 349/339/349
f 367/354/367 372/359/372 349/339/349
f 367/354/367 374/361/374 372/359/372
f 376/496/376 351/340/351 350/343/350
f 343/333/343 351/340/351 376/496/376
f 377/358/377 343/333/343 376/496/376
f 380/363/380 355/345/355 356/346/356
f 382/365/382 380/363/380 373/362/373
f 404/385/404 379/367/379 373/362/373
f 328/315/328 383/368/383 359/348/359
f 383/368/383 385/371/385 360/349/360
f 384/369/384 385/371/385 383/368/383
f 384/369/384 387/373/387 385/371/385
f 360/349/360 385/371/385 386/370/386
f 386/370/386 388/372/388 366/351/366
f 388/372/388 368/355/368 366/351/366
f 388/372/388 375/360/375 368/355/368
f 390/375/390 391/389/391 375/360/375
f 389/374/389 392/441/392 390/375/390
f 395/377/395 398/376/398 397/383/397
f 394/379/394 396/380/396 401/381/401
f 405/384/405 401/381/401 396/380/396
f 402/388/402 400/382/400 401/381/401
f 410/386/410 405/384/405 397/383/397
f 468/449/468 402/388/402 403/391/403
f 405/384/405 404/385/404 406/387/406
f 407/454/407 403/391/403 402/388/402
f 406/387/406 374/361/374 375/360/375
f 404/385/404 373/362/373 374/361/374
f 406/387/406 407/454/407 402/388/402
f 399/393/399 468/449/468 403/391/403
f 404/385/404 410/386/410 379/367/379
f 411/392/411 403/391/403 408/455/408
f 412/497/412 411/392/411 408/455/408
f 414/396/414 181/172/181 183/173/183
f 413/394/413 421/397/421 183/173/183
f 413/394/413 415/400/415 421/397/421
f 414/396/414 183/173/183 421/397/421
f 186/402/186 181/172/181 414/396/414
f 418/401/418 414/396/414 417/398/417
f 422/408/422 417/398/417 423/405/423
f 416/399/416 424/406/424 421/397/421
f 423/405/423 421/397/421 424/406/424
f 416/399/416 428/498/428 424/406/424
f 423/405/423 425/407/425 426/411/426
f 424/406/424 426/411/426 425/407/425
f 419/403/419 417/398/417 422/408/422
f 426/411/426 427/409/427 423/405/423
f 380/363/380 381/366/381 378/364/378
f 255/248/255 430/254/430 159/249/159
f 260/413/260 261/253/261 259/252/259
f 430/254/430 432/418/432 159/249/159
f 433/414/433 432/418/432 430/254/430
f 434/415/434 436/416/436 261/253/261
f 431/412/431 438/431/438 434/415/434
f 431/412/431 439/499/439 438/431/438
f 438/431/438 437/419/437 434/415/434
f 264/500/264 439/499/439 262/501/262
f 262/501/262 439/499/439 431/412/431
f 440/433/440 438/431/438 439/499/439
f 442/420/442 436/416/436 437/419/437
f 435/417/435 444/421/444 432/418/432
f 442/420/442 332/424/332 443/422/443
f 442/420/442 437/419/437 441/423/441
f 442/420/442 443/422/443 435/417/435
f 444/421/444 333/321/333 330/317/330
f 332/424/332 441/423/441 331/324/331
f 332/424/332 333/321/333 444/421/444
f 445/426/445 332/424/332 339/325/339
f 445/426/445 333/321/333 332/424/332
f 460/428/460 458/427/458 333/321/333
f 446/425/446 447/429/447 333/321/333
f 448/430/448 451/434/451 336/322/336
f 449/432/449 451/434/451 448/430/448
f 452/435/452 339/325/339 338/327/338
f 338/327/338 451/434/451 453/448/453
f 451/434/451 455/436/455 454/445/454
f 450/502/450 455/436/455 449/432/449
f 450/502/450 449/432/449 440/433/440
f 459/438/459 447/429/447 446/425/446
f 461/437/461 460/428/460 447/429/447
f 458/427/458 460/428/460 387/373/387
f 460/428/460 456/439/456 387/373/387
f 387/373/387 456/439/456 457/440/457
f 461/437/461 462/444/462 457/440/457
f 463/442/463 389/374/389 387/373/387
f 457/440/457 463/442/463 387/373/387
f 490/474/490 463/442/463 457/440/457
f 338/327/338 453/448/453 452/435/452
f 394/379/394 453/448/453 451/434/451
f 394/379/394 454/445/454 393/378/393
f 466/447/466 459/438/459 446/425/446
f 452/435/452 453/448/453 400/382/400
f 446/425/446 452/435/452 400/382/400
f 465/446/465 446/425/446 400/382/400
f 470/452/470 465/446/465 400/382/400
f 393/378/393 468/449/468 399/393/399
f 469/450/469 468/449/468 393/378/393
f 470/452/470 400/382/400 469/450/469
f 470/452/470 469/450/469 467/451/467
f 400/382/400 402/388/402 468/449/468
f 391/389/391 472/456/472 407/454/407
f 473/457/473 408/455/408 407/454/407
f 488/470/488 481/462/481 474/460/474
f 476/471/476 470/452/470 475/453/475
f 476/471/476 471/472/471 470/452/470
f 478/458/478 412/497/412 408/455/408
f 478/458/478 479/503/479 412/497/412
f 480/459/480 481/462/481 477/504/477
f 466/447/466 483/463/483 459/438/459
f 483/463/483 482/464/482 461/437/461
f 485/466/485 462/444/462 482/464/482
f 486/467/486 466/447/466 465/446/465
f 486/467/486 483/463/483 466/447/466
f 486/467/486 470/452/470 471/472/471
f 486/467/486 471/472/471 487/469/487
f 486/467/486 487/469/487 489/468/489
f 484/465/484 489/468/489 485/466/485
f 497/479/497 489/468/489 488/470/488
f 477/504/477 481/462/481 476/471/476
f 490/474/490 392/441/392 463/442/463
f 464/443/464 490/474/490 457/440/457
f 491/473/491 391/389/391 392/441/392
f 492/475/492 491/473/491 490/474/490
f 488/470/488 474/460/474 472/456/472
f 494/477/494 472/456/472 491/473/491
f 493/476/493 494/477/494 492/475/492
f 474/460/474 478/458/478 473/457/473
f 495/461/495 479/503/479 478/458/478
f 496/478/496 485/466/485 493/476/493
f 497/479/497 488/470/488 494/477/494
f 497/479/497 494/477/494 493/476/493
