# Blender 5.2.1 LTS
# www.blender.org
o ZombieHead0Hair
v -0.454709 -0.032091 0.012192
v -0.455858 -0.007008 0.021959
v -0.436692 0.075673 0.022305
v -0.425700 0.104257 0.023901
v -0.363869 0.150379 0.231420
v -0.356128 0.155049 0.248306
v -0.374629 0.189979 0.176780
v -0.340014 0.174794 0.252385
v -0.348982 0.219751 0.214499
v -0.303720 0.242248 0.253393
v -0.357653 0.251368 0.169652
v -0.401475 0.138177 0.068040
v -0.390421 0.148533 0.143098
v -0.394791 0.142927 0.116287
v -0.385372 0.222017 0.106058
v -0.379920 0.234979 0.111740
v -0.391135 0.218663 0.094216
v -0.330351 0.317296 0.110882
v -0.359655 0.280362 0.113959
v -0.410087 0.144500 0.034605
v -0.419335 0.138480 0.025395
v -0.398505 0.242925 0.040465
v -0.416128 0.180051 0.004975
v -0.391364 0.229982 0.080731
v -0.379527 0.284913 -0.069081
v -0.387922 0.251936 0.069260
v -0.359994 0.325092 -0.041259
v -0.375748 0.280848 0.063601
v -0.342570 0.320787 0.045274
v -0.333590 0.341992 0.025983
v -0.322545 0.355700 -0.001752
v -0.232769 0.291178 0.290951
v -0.273504 0.283455 0.262925
v -0.263527 0.339126 0.199399
v -0.259624 0.290568 0.266989
v -0.218110 0.326566 0.272940
v -0.185539 0.357729 0.246550
v -0.274992 0.337700 0.177827
v -0.297870 0.359896 0.091086
v -0.236578 0.398465 0.127917
v -0.220757 0.416961 0.077706
v -0.247525 0.400047 0.087776
v -0.201877 0.426609 0.078743
v -0.194757 0.284043 0.314609
v -0.171053 0.331318 0.288723
v -0.136416 0.282052 0.336342
v -0.124431 0.330369 0.300106
v -0.080369 0.321477 0.321065
v -0.176017 0.414126 0.167718
v -0.146166 0.444894 0.097939
v -0.125826 0.434515 0.148059
v -0.123380 0.452478 0.094377
v -0.095739 0.284402 0.347388
v -0.070931 0.279172 0.339531
v -0.085354 0.293506 0.340729
v -0.009995 0.284799 0.351747
v 0.001465 0.280423 0.355314
v 0.001399 0.303860 0.328505
v -0.054779 0.351281 0.295831
v -0.072015 0.405935 0.241539
v -0.034549 0.383514 0.268280
v -0.030709 0.406829 0.240919
v -0.033385 0.437158 0.181923
v -0.107050 0.460575 0.079870
v -0.023144 0.445117 0.163579
v -0.080067 0.481136 0.036735
v -0.093040 0.473110 0.051249
v -0.077609 0.486075 0.022711
v -0.020114 0.503006 -0.021981
v -0.119223 -0.403505 -0.159317
v -0.130062 -0.399336 -0.169334
v -0.094828 -0.412677 -0.159701
v -0.106695 -0.395386 -0.200176
v -0.131623 -0.360146 -0.255156
v -0.117273 -0.361898 -0.260934
v -0.078393 -0.414477 -0.162438
v -0.059002 -0.408025 -0.192242
v -0.017466 -0.421925 -0.166838
v 0.013374 -0.424544 -0.165850
v -0.095474 -0.384863 -0.228567
v -0.084491 -0.382592 -0.239258
v -0.047542 -0.377252 -0.253942
v -0.033558 -0.366856 -0.270306
v -0.003923 -0.405237 -0.212636
v 0.027322 -0.336714 -0.317553
v -0.035549 -0.357975 -0.283364
v -0.457019 -0.042080 -0.003273
v -0.456042 -0.038867 -0.010162
v -0.460082 -0.032725 -0.058412
v -0.457160 -0.041541 -0.072080
v -0.465047 -0.021814 -0.103366
v -0.466327 0.003783 -0.028430
v -0.451736 0.078319 -0.023835
v -0.461302 0.003445 -0.042054
v -0.462488 0.033774 -0.087591
v -0.455576 0.101443 -0.076653
v -0.443225 0.152645 -0.090002
v -0.420978 0.202457 -0.076216
v -0.433865 -0.120317 -0.162595
v -0.452497 -0.050528 -0.127716
v -0.448927 -0.048221 -0.150051
v -0.438072 -0.086725 -0.162089
v -0.449794 -0.051533 -0.155305
v -0.420823 -0.050948 -0.231216
v -0.442529 0.055400 -0.168668
v -0.449612 0.009795 -0.168413
v -0.439573 0.102376 -0.146750
v -0.410174 0.163709 -0.182854
v -0.423797 0.166383 -0.137887
v -0.418649 0.072505 -0.218697
v -0.420908 0.080151 -0.208215
v -0.419690 0.106966 -0.194510
v -0.404075 0.231040 -0.004967
v -0.394283 0.259871 -0.137569
v -0.369481 0.291488 -0.124281
v -0.305577 0.366049 -0.095947
v -0.311939 0.365435 -0.047234
v -0.337928 0.328544 -0.134321
v -0.327943 -0.283795 -0.160512
v -0.367057 -0.210409 -0.197994
v -0.364436 -0.231772 -0.160276
v -0.324225 -0.265252 -0.199407
v -0.410960 -0.158087 -0.160681
v -0.400462 0.241528 -0.148617
v -0.406183 0.196956 -0.180102
v -0.401608 0.218618 -0.167527
v -0.376594 0.250565 -0.183482
v -0.343911 0.321669 -0.125342
v -0.357962 0.289536 -0.180824
v -0.341128 0.306780 -0.173357
v -0.332147 0.323405 -0.153835
v -0.299854 0.340263 -0.190863
v -0.310912 -0.256664 -0.230351
v -0.306981 -0.207593 -0.280579
v -0.315092 -0.215631 -0.271350
v -0.399228 -0.100940 -0.241179
v -0.369286 -0.120417 -0.277472
v -0.328052 -0.168072 -0.289891
v -0.381395 -0.062574 -0.274800
v -0.413826 0.021584 -0.240619
v -0.415081 0.077073 -0.224221
v -0.377455 0.022767 -0.301269
v -0.410992 0.099421 -0.227362
v -0.403676 0.145238 -0.223775
v -0.388641 0.077726 -0.287501
v -0.368175 0.138032 -0.292215
v -0.396843 0.205753 -0.198909
v -0.400602 0.175121 -0.214406
v -0.373347 0.198790 -0.250760
v -0.339709 0.251794 -0.265803
v -0.343349 0.275832 -0.224570
v -0.273042 -0.186866 -0.324349
v -0.334479 -0.115276 -0.318972
v -0.295171 -0.094349 -0.376833
v -0.345213 -0.033540 -0.336982
v -0.318194 -0.033846 -0.364958
v -0.322877 -0.001409 -0.361221
v -0.326654 0.035822 -0.356311
v -0.318019 0.066768 -0.355673
v -0.338733 0.142306 -0.331917
v -0.316900 0.107614 -0.357819
v -0.318669 0.191685 -0.324440
v -0.272724 -0.332220 -0.162607
v -0.265927 -0.331100 -0.169920
v -0.272891 -0.325872 -0.181777
v -0.293306 0.374631 -0.107411
v -0.261133 0.397042 -0.103162
v -0.241753 0.413405 -0.109646
v -0.252687 0.388653 -0.186511
v -0.299747 -0.282502 -0.213681
v -0.290350 -0.302016 -0.197186
v -0.250936 0.347640 -0.266742
v -0.209900 -0.278898 -0.303483
v -0.297074 -0.207320 -0.289507
v -0.276783 -0.229251 -0.299186
v -0.251104 -0.245349 -0.306268
v -0.209475 -0.205316 -0.372105
v -0.216799 -0.249889 -0.328144
v -0.211282 -0.268506 -0.314494
v -0.185416 -0.236017 -0.369930
v -0.288584 -0.140277 -0.358973
v -0.302376 -0.061308 -0.370664
v -0.306959 0.124563 -0.358277
v -0.300943 0.127311 -0.360862
v -0.291217 0.099737 -0.380420
v -0.259115 0.149952 -0.396146
v -0.291339 0.225320 -0.345426
v -0.264538 0.262121 -0.353088
v -0.272287 0.301668 -0.290200
v -0.194500 0.334418 -0.333348
v -0.207577 -0.177543 -0.398443
v -0.282300 -0.099355 -0.380550
v -0.273891 -0.092626 -0.390098
v -0.196370 -0.135877 -0.426039
v -0.274690 -0.053315 -0.399829
v -0.271428 -0.074796 -0.396832
v -0.271258 -0.020587 -0.407002
v -0.218490 -0.070845 -0.434842
v -0.207446 -0.032860 -0.446968
v -0.200503 -0.043746 -0.449579
v -0.270984 0.022207 -0.404424
v -0.204086 -0.004231 -0.449270
v -0.278912 0.055603 -0.393801
v -0.203925 0.049255 -0.454040
v -0.223798 0.118276 -0.426087
v -0.252552 0.199167 -0.381590
v -0.206835 0.191935 -0.418404
v -0.133794 0.467729 -0.081549
v -0.109458 0.478412 -0.072659
v -0.177753 0.449365 -0.109926
v -0.203277 0.430361 -0.147997
v -0.141047 0.449609 -0.160371
v -0.171167 -0.338503 -0.269227
v -0.152911 -0.351042 -0.256652
v -0.129893 -0.319941 -0.314834
v -0.169681 0.405674 -0.255599
v -0.186219 -0.307870 -0.291334
v -0.121375 -0.270889 -0.372933
v -0.071662 -0.319586 -0.345663
v -0.207572 -0.258611 -0.326515
v -0.174803 0.324600 -0.354065
v -0.087598 0.358831 -0.338290
v -0.118033 -0.217546 -0.412810
v -0.135591 -0.148201 -0.449375
v -0.068387 -0.119061 -0.494635
v -0.153767 -0.079803 -0.468581
v -0.188582 -0.046415 -0.456739
v -0.175219 -0.034501 -0.467530
v -0.201764 0.016807 -0.450550
v -0.185596 0.006606 -0.451288
v -0.196279 0.074685 -0.455859
v -0.181511 0.126356 -0.445620
v -0.174785 0.171065 -0.438782
v -0.186359 0.256146 -0.397064
v -0.151630 0.214660 -0.430026
v -0.125088 0.237226 -0.424502
v -0.098002 0.292412 -0.397549
v -0.102760 0.255142 -0.417615
v -0.144370 -0.025743 -0.485299
v -0.133736 -0.017118 -0.488464
v -0.129080 0.003926 -0.490507
v -0.121960 0.067463 -0.484656
v -0.113182 0.093917 -0.478961
v -0.110061 0.128575 -0.470749
v -0.100826 0.482522 -0.063451
v -0.054601 0.495865 -0.082475
v 0.035894 0.478249 -0.141266
v -0.089179 0.450512 -0.188491
v -0.010022 0.471418 -0.156428
v -0.024168 0.461231 -0.177147
v 0.008577 0.476687 -0.144359
v -0.097110 -0.345922 -0.289667
v -0.073577 0.384964 -0.318602
v -0.018297 0.400944 -0.303730
v -0.035586 0.433431 -0.246584
v -0.041907 0.451605 -0.196753
v -0.044763 0.441561 -0.221542
v -0.030024 0.423326 -0.271745
v -0.078625 -0.343489 -0.296629
v -0.054301 -0.262606 -0.395136
v -0.052067 -0.347559 -0.294793
v 0.002893 -0.273730 -0.390021
v -0.084814 0.312139 -0.379964
v -0.061050 0.332295 -0.368025
v -0.002542 0.364032 -0.341420
v -0.037530 0.335535 -0.369849
v -0.007510 0.335899 -0.371943
v -0.008300 0.383050 -0.320887
v -0.076841 -0.212882 -0.428143
v 0.056340 -0.191754 -0.442477
v -0.075291 -0.150331 -0.465109
v -0.097826 0.160238 -0.460394
v -0.090358 0.230665 -0.433363
v -0.096010 0.213418 -0.442528
v 0.003279 0.242341 -0.443190
v -0.013131 0.179101 -0.464158
v -0.073840 0.248413 -0.427774
v -0.036355 0.273791 -0.417772
v -0.022207 0.313113 -0.385989
v -0.022817 0.301254 -0.395809
v -0.077258 -0.064004 -0.500716
v 0.018336 -0.022350 -0.517670
v 0.017338 -0.066471 -0.504625
v -0.070688 0.051273 -0.499602
v -0.032362 0.008591 -0.516509
v -0.001244 0.130255 -0.492380
v -0.022349 0.083112 -0.494721
v 0.018928 0.313519 0.321580
v 0.033490 0.280839 0.354292
v 0.062961 0.313251 0.321405
v 0.085993 0.314337 0.319679
v 0.093507 0.281884 0.343623
v 0.026226 0.456203 0.146580
v 0.056603 0.464590 0.131305
v 0.054928 0.487812 0.032499
v 0.082055 0.464403 0.126715
v 0.127180 0.465468 0.106707
v 0.024293 0.500477 -0.047624
v 0.130906 0.282341 0.336577
v 0.116194 0.322747 0.309315
v 0.137864 0.321333 0.304301
v 0.183724 0.302333 0.302456
v 0.182942 0.282060 0.316267
v 0.195014 0.285790 0.307031
v 0.213604 0.295105 0.288079
v 0.207404 0.313004 0.278329
v 0.207271 0.339389 0.249816
v 0.203996 0.364663 0.216661
v 0.202174 0.394450 0.181316
v 0.119832 0.457416 0.134764
v 0.188315 0.411920 0.156498
v 0.159782 0.454933 0.105963
v 0.144101 0.470984 0.038485
v 0.199719 0.450214 0.029037
v 0.230437 0.283058 0.283800
v 0.280590 0.263495 0.254583
v 0.260062 0.277350 0.260592
v 0.299442 0.301428 0.196731
v 0.263045 0.381682 0.146309
v 0.296139 0.347096 0.152846
v 0.357000 0.317505 0.081147
v 0.266398 0.402132 0.077556
v 0.282146 0.389806 0.091301
v 0.261225 0.418491 0.026245
v 0.270963 0.415385 -0.006300
v 0.305591 0.368286 0.094038
v 0.349201 0.158747 0.249738
v 0.365638 0.151614 0.229498
v 0.314307 0.218165 0.251403
v 0.372145 0.215092 0.176042
v 0.347649 0.254689 0.183734
v 0.337949 0.184003 0.255351
v 0.374673 0.180522 0.177751
v 0.389495 0.148393 0.141629
v 0.397801 0.139902 0.109348
v 0.397410 0.207013 0.085153
v 0.365966 0.281374 0.136417
v 0.402537 0.137191 0.066725
v 0.407783 0.143628 0.041607
v 0.409701 0.224555 0.033913
v 0.409628 0.168667 0.032098
v 0.383215 0.273156 0.072834
v 0.398456 0.249764 0.046050
v 0.336056 0.340469 0.083272
v 0.460154 -0.032726 0.009755
v 0.455994 -0.017976 0.018543
v 0.447409 0.015114 0.021315
v 0.447596 0.014088 0.020951
v 0.457574 -0.002953 0.004690
v 0.064503 -0.417637 -0.164702
v 0.100619 -0.405839 -0.164721
v 0.061683 -0.384784 -0.229103
v 0.138970 -0.395884 -0.156469
v 0.221577 -0.345767 -0.207247
v 0.213444 -0.365637 -0.156565
v 0.127300 -0.361703 -0.254983
v 0.089531 0.466698 -0.160275
v 0.067300 0.470307 -0.156316
v 0.104796 -0.306128 -0.341963
v 0.091947 -0.331577 -0.313470
v 0.126084 -0.259115 -0.373611
v 0.020255 0.358398 -0.349449
v 0.066145 -0.238897 -0.414925
v 0.065390 -0.217908 -0.426730
v 0.083859 -0.217236 -0.427275
v 0.107996 -0.199776 -0.436460
v 0.059468 -0.158512 -0.467294
v 0.084317 0.193927 -0.454212
v 0.084931 0.314826 -0.385578
v 0.099235 0.276219 -0.404111
v 0.073371 -0.133405 -0.478361
v 0.100458 -0.121533 -0.476681
v 0.083958 -0.090145 -0.491681
v 0.097539 0.063590 -0.498991
v 0.125753 0.034362 -0.495923
v 0.052132 0.158821 -0.479552
v 0.080839 0.098457 -0.499138
v 0.147963 0.145272 -0.463413
v 0.099504 0.480053 -0.107289
v 0.146897 0.463189 -0.088047
v 0.206431 0.445918 -0.101945
v 0.200741 0.423536 -0.174426
v 0.138983 0.460117 -0.149185
v 0.165122 0.450579 -0.149967
v 0.183507 0.439720 -0.156167
v 0.229427 0.428532 -0.130253
v 0.204393 -0.305512 -0.283583
v 0.214032 0.392978 -0.217313
v 0.187779 0.372663 -0.212717
v 0.150668 -0.278176 -0.346138
v 0.131191 0.339029 -0.342159
v 0.163685 0.314018 -0.352095
v 0.179542 0.279355 -0.378282
v 0.179902 0.308417 -0.347506
v 0.191421 0.308477 -0.339638
v 0.105079 0.347220 -0.341031
v 0.199023 0.340003 -0.296907
v 0.132321 -0.211562 -0.422445
v 0.119576 -0.154923 -0.460311
v 0.117848 -0.129177 -0.471779
v 0.137906 -0.073913 -0.475861
v 0.196117 -0.051939 -0.462928
v 0.226670 -0.079527 -0.441700
v 0.223214 0.138513 -0.422218
v 0.176259 0.238335 -0.404409
v 0.214563 0.214577 -0.399248
v 0.211348 0.240948 -0.382494
v 0.213708 0.232299 -0.396446
v 0.218892 0.164945 -0.417360
v 0.142576 -0.023725 -0.481620
v 0.157857 0.072574 -0.482257
v 0.239868 0.005755 -0.439967
v 0.286997 0.400642 -0.069132
v 0.299969 0.377298 -0.094785
v 0.281489 0.413872 -0.038799
v 0.267469 -0.334247 -0.160210
v 0.305656 -0.303912 -0.160305
v 0.306635 -0.265419 -0.215726
v 0.250907 0.400105 -0.155331
v 0.268638 0.371938 -0.194065
v 0.310771 0.365724 -0.108536
v 0.258721 -0.282163 -0.263633
v 0.287483 -0.284259 -0.219646
v 0.262535 -0.288933 -0.243905
v 0.263790 -0.271303 -0.274652
v 0.299852 -0.230628 -0.291645
v 0.291038 0.330400 -0.227798
v 0.209915 0.387247 -0.232061
v 0.208386 0.382688 -0.248032
v 0.237904 -0.232643 -0.348730
v 0.245995 -0.189912 -0.372383
v 0.321038 -0.192295 -0.291837
v 0.224204 -0.154546 -0.417172
v 0.319537 -0.128438 -0.351202
v 0.289812 -0.122497 -0.378117
v 0.302579 -0.103446 -0.370535
v 0.321730 0.003997 -0.381107
v 0.316725 0.081433 -0.378600
v 0.296295 0.161233 -0.361818
v 0.308644 0.104533 -0.379582
v 0.307390 0.126798 -0.377932
v 0.226979 0.245122 -0.366325
v 0.251976 0.232107 -0.360397
v 0.283178 0.187164 -0.359038
v 0.263703 0.302800 -0.277168
v 0.198770 0.316551 -0.328025
v 0.274411 0.256256 -0.323513
v 0.281439 -0.118621 -0.385798
v 0.276050 -0.103454 -0.393329
v 0.230523 -0.090041 -0.439486
v 0.233344 -0.020733 -0.442542
v 0.237360 -0.093093 -0.431676
v 0.258498 -0.079058 -0.420191
v 0.276486 -0.086224 -0.406565
v 0.219131 0.069861 -0.452452
v 0.246248 0.058043 -0.433396
v 0.242053 0.033321 -0.437574
v 0.242620 0.090029 -0.429213
v 0.183969 0.213795 -0.385171
v 0.401194 0.256143 -0.087460
v 0.420632 0.202523 -0.085166
v 0.376002 0.295254 -0.090058
v 0.346712 -0.247761 -0.157545
v 0.336902 -0.244210 -0.192603
v 0.349792 -0.235180 -0.181573
v 0.381757 -0.207110 -0.160389
v 0.370132 -0.204911 -0.190401
v 0.420766 -0.126810 -0.158083
v 0.394743 -0.164935 -0.193837
v 0.365761 0.225561 -0.247209
v 0.412383 0.228331 -0.127987
v 0.350485 0.318873 -0.164848
v 0.354854 0.271010 -0.222007
v 0.334901 0.348270 -0.113395
v 0.325804 -0.238093 -0.227324
v 0.340505 -0.227745 -0.216369
v 0.323464 -0.214093 -0.215831
v 0.348092 -0.167468 -0.273771
v 0.354637 -0.177552 -0.250577
v 0.368311 -0.167472 -0.244409
v 0.353562 -0.148938 -0.288518
v 0.398181 -0.115975 -0.242037
v 0.382802 -0.102369 -0.275531
v 0.408151 -0.112781 -0.209177
v 0.405201 -0.095450 -0.235385
v 0.409616 -0.091263 -0.229834
v 0.409894 -0.094536 -0.221953
v 0.380142 0.102169 -0.298962
v 0.363259 0.187775 -0.268864
v 0.413686 0.160820 -0.201915
v 0.338172 -0.168281 -0.285295
v 0.372315 -0.073219 -0.293689
v 0.308248 -0.073914 -0.366872
v 0.317552 -0.031758 -0.367081
v 0.373412 -0.026367 -0.310471
v 0.337989 0.063184 -0.362599
v 0.342343 0.121316 -0.347726
v 0.356789 0.160295 -0.307688
v 0.305274 0.221579 -0.320298
v 0.460867 -0.029279 0.000597
v 0.461734 -0.025836 -0.065334
v 0.459951 -0.037957 -0.079915
v 0.470407 0.006668 -0.066742
v 0.452439 0.056471 -0.084020
v 0.449426 0.090646 -0.090533
v 0.436924 -0.077642 -0.163619
v 0.442652 -0.050505 -0.147951
v 0.439778 -0.055491 -0.157002
v 0.450175 -0.050777 -0.124808
v 0.439200 -0.026220 -0.181574
v 0.438132 0.065576 -0.169700
v 0.449892 0.035776 -0.152053
v 0.421220 0.001531 -0.224142
v 0.444719 0.122001 -0.098409
v 0.439010 0.102954 -0.166823
v 0.427495 0.169932 -0.094869
v 0.427002 0.161301 -0.172091
v 0.408856 0.060416 -0.262829
vn -0.9966 -0.0404 0.0717
vn -0.9797 0.0405 0.1961
vn -0.9181 0.2590 0.2999
vn -0.9018 0.2040 0.3810
vn -0.9174 0.2137 0.3356
vn -0.8012 0.4293 0.4169
vn -0.9224 0.2237 0.3149
vn -0.7698 0.3968 0.5000
vn -0.7937 0.3610 0.4896
vn -0.7249 0.4255 0.5417
vn -0.8140 0.4544 0.3617
vn -0.9343 -0.3077 0.1800
vn -0.9624 0.1332 0.2368
vn -0.9702 0.2142 0.1133
vn -0.9208 0.2456 0.3029
vn -0.9139 0.3145 0.2566
vn -0.9530 0.1723 0.2491
vn -0.6873 0.6194 0.3795
vn -0.7805 0.5365 0.3209
vn -0.9401 0.0943 0.3276
vn -0.8701 0.2549 0.4219
vn -0.9376 0.3217 0.1318
vn -0.9544 0.2209 0.2006
vn -0.9242 0.2841 0.2552
vn -0.8798 0.4747 -0.0249
vn -0.9098 0.3484 0.2254
vn -0.7837 0.6210 -0.0109
vn -0.8410 0.5250 0.1305
vn -0.7563 0.6279 0.1835
vn -0.7849 0.5993 0.1576
vn -0.6670 0.7429 0.0566
vn -0.4512 0.5584 0.6961
vn -0.6593 0.5672 0.4935
vn -0.5996 0.6884 0.4083
vn -0.4614 0.4013 0.7913
vn -0.4261 0.6719 0.6058
vn -0.3423 0.7747 0.5316
vn -0.6722 0.6637 0.3282
vn -0.6442 0.6961 0.3169
vn -0.5142 0.8054 0.2949
vn -0.4115 0.8807 0.2348
vn -0.5448 0.8188 0.1809
vn -0.4302 0.8196 0.3785
vn -0.3134 0.5721 0.7579
vn -0.2227 0.7030 0.6754
vn -0.2242 0.6080 0.7616
vn -0.2006 0.6753 0.7098
vn -0.1973 0.6626 0.7226
vn -0.3489 0.8603 0.3716
vn -0.3435 0.8822 0.3221
vn -0.2239 0.9113 0.3455
vn -0.2165 0.9287 0.3009
vn -0.0628 0.6349 0.7701
vn 0.3419 0.2688 0.9005
vn 0.0106 0.5155 0.8568
vn 0.0286 0.7436 0.6680
vn 0.0156 0.6560 0.7546
vn 0.0445 0.7134 0.6994
vn -0.1501 0.6860 0.7119
vn -0.1520 0.8143 0.5603
vn -0.0733 0.7113 0.6991
vn -0.0097 0.8333 0.5528
vn -0.1398 0.9203 0.3653
vn -0.1667 0.9309 0.3250
vn -0.1299 0.9383 0.3204
vn -0.0884 0.9476 0.3070
vn -0.2631 0.9244 0.2761
vn -0.1030 0.9666 0.2348
vn -0.0620 0.9935 0.0953
vn -0.2574 -0.9296 -0.2636
vn -0.1504 -0.9598 -0.2368
vn -0.2447 -0.9188 -0.3097
vn -0.2042 -0.9156 -0.3464
vn -0.3057 -0.7997 -0.5167
vn -0.2494 -0.8037 -0.5403
vn -0.1486 -0.9421 -0.3006
vn -0.1359 -0.9223 -0.3617
vn -0.0792 -0.9234 -0.3757
vn 0.0877 -0.8979 -0.4314
vn -0.1821 -0.9017 -0.3921
vn -0.1368 -0.8920 -0.4309
vn -0.0006 -0.8503 -0.5263
vn 0.0500 -0.8631 -0.5026
vn 0.0353 -0.8774 -0.4785
vn 0.0599 -0.8176 -0.5727
vn -0.0457 -0.8085 -0.5867
vn -0.9672 0.2531 -0.0191
vn -0.9953 -0.0183 0.0949
vn -0.9840 -0.1643 0.0688
vn -0.9342 -0.3566 0.0106
vn -0.9873 -0.1362 -0.0817
vn -0.9928 0.0331 0.1151
vn -0.9616 0.1972 0.1909
vn -0.9430 -0.2966 -0.1509
vn -0.9763 0.1998 -0.0827
vn -0.9977 0.0684 -0.0037
vn -0.9456 0.3185 -0.0662
vn -0.9254 0.3789 0.0101
vn -0.8420 -0.3459 -0.4141
vn -0.9452 -0.2960 -0.1381
vn -0.9487 0.0185 -0.3158
vn -0.9338 -0.1641 -0.3179
vn -0.8739 0.3562 -0.3308
vn -0.8635 -0.0924 -0.4958
vn -0.9395 0.1621 -0.3018
vn -0.9387 0.0103 -0.3447
vn -0.9361 0.2089 -0.2831
vn -0.9298 0.1994 -0.3093
vn -0.9277 0.2849 -0.2413
vn -0.9471 0.0470 -0.3175
vn -0.9177 0.1538 -0.3663
vn -0.9072 0.2241 -0.3561
vn -0.9382 0.3426 0.0490
vn -0.8853 0.4638 -0.0340
vn -0.7838 0.6115 -0.1082
vn -0.6731 0.7271 -0.1354
vn -0.6453 0.7629 -0.0394
vn -0.7036 0.6930 -0.1568
vn -0.7045 -0.6193 -0.3467
vn -0.7781 -0.5009 -0.3789
vn -0.7855 -0.5537 -0.2764
vn -0.7101 -0.5877 -0.3878
vn -0.8011 -0.4503 -0.3942
vn -0.9392 0.3190 -0.1273
vn -0.9414 0.2263 -0.2503
vn -0.7485 0.4440 -0.4926
vn -0.8066 0.4622 -0.3684
vn -0.7384 0.6645 -0.1144
vn -0.6812 0.6023 -0.4162
vn -0.6481 0.6782 -0.3464
vn -0.7078 0.6226 -0.3338
vn -0.6665 0.6746 -0.3175
vn -0.6980 -0.5510 -0.4573
vn -0.6789 -0.3973 -0.6175
vn -0.8165 -0.0601 -0.5742
vn -0.8104 -0.2966 -0.5052
vn -0.7604 -0.3097 -0.5709
vn -0.6648 -0.4781 -0.5740
vn -0.7908 -0.1378 -0.5964
vn -0.8853 0.0071 -0.4649
vn -0.9058 0.1083 -0.4097
vn -0.7995 -0.0452 -0.5989
vn -0.8869 0.1820 -0.4246
vn -0.8176 0.1890 -0.5439
vn -0.8279 0.1053 -0.5508
vn -0.8120 0.2731 -0.5158
vn -0.8243 0.4031 -0.3976
vn -0.8466 0.2732 -0.4568
vn -0.8095 0.3199 -0.4923
vn -0.7339 0.4813 -0.4793
vn -0.7235 0.5676 -0.3930
vn -0.5911 -0.5124 -0.6229
vn -0.7369 -0.3074 -0.6020
vn -0.6308 -0.2826 -0.7226
vn -0.7675 -0.1181 -0.6301
vn -0.7100 -0.1675 -0.6839
vn -0.7363 0.0014 -0.6767
vn -0.7448 0.1261 -0.6552
vn -0.7223 0.0853 -0.6863
vn -0.7062 0.2406 -0.6659
vn -0.6998 0.0888 -0.7088
vn -0.7141 0.2978 -0.6336
vn -0.4943 -0.8265 -0.2693
vn -0.1774 -0.9347 -0.3079
vn -0.5836 -0.7615 -0.2819
vn -0.6250 0.7573 -0.1895
vn -0.6077 0.7817 -0.1403
vn -0.5898 0.7938 -0.1487
vn -0.5762 0.7638 -0.2908
vn -0.6726 -0.6202 -0.4038
vn -0.7025 -0.6629 -0.2589
vn -0.5728 0.6661 -0.4778
vn -0.5167 -0.6540 -0.5525
vn -0.6205 -0.4098 -0.6686
vn -0.5564 -0.3873 -0.7351
vn -0.5517 -0.4705 -0.6887
vn -0.5195 -0.5245 -0.6746
vn -0.4468 -0.6761 -0.5859
vn -0.4474 -0.6401 -0.6246
vn -0.4459 -0.5591 -0.6990
vn -0.6145 -0.4452 -0.6513
vn -0.6344 -0.0425 -0.7718
vn -0.5023 0.3034 -0.8097
vn -0.6349 0.0885 -0.7675
vn -0.6238 0.1472 -0.7676
vn -0.5964 0.2163 -0.7730
vn -0.6852 0.2459 -0.6856
vn -0.5571 0.4790 -0.6784
vn -0.6145 0.6082 -0.5025
vn -0.4073 0.6742 -0.6162
vn -0.4702 -0.5004 -0.7270
vn -0.4879 -0.3582 -0.7960
vn -0.5503 -0.3176 -0.7722
vn -0.4529 -0.3355 -0.8260
vn -0.5568 -0.1556 -0.8159
vn -0.5594 -0.2127 -0.8012
vn -0.5372 -0.0280 -0.8430
vn -0.5136 -0.2104 -0.8318
vn -0.5378 -0.0624 -0.8408
vn -0.5212 -0.1140 -0.8458
vn -0.5782 0.0487 -0.8145
vn -0.4569 -0.0091 -0.8895
vn -0.6015 0.1057 -0.7919
vn -0.5984 0.0329 -0.8005
vn -0.5298 0.1820 -0.8284
vn -0.5710 0.2909 -0.7677
vn -0.4587 0.3206 -0.8287
vn -0.3129 0.9310 -0.1879
vn -0.3276 0.9271 -0.1822
vn -0.3450 0.9198 -0.1870
vn -0.4389 0.8695 -0.2267
vn -0.2720 0.9184 -0.2874
vn -0.3316 -0.7504 -0.5718
vn -0.3104 -0.8552 -0.4150
vn -0.3157 -0.7406 -0.5932
vn -0.3200 0.8280 -0.4605
vn -0.4197 -0.6555 -0.6278
vn -0.3048 -0.6277 -0.7163
vn -0.1376 -0.7713 -0.6214
vn -0.4416 -0.6088 -0.6590
vn -0.2965 0.6225 -0.7242
vn -0.1070 0.6594 -0.7442
vn -0.2857 -0.5387 -0.7926
vn -0.3515 -0.4397 -0.8265
vn -0.1607 -0.4001 -0.9023
vn -0.4283 -0.2679 -0.8630
vn -0.4917 -0.1818 -0.8516
vn -0.4696 -0.2024 -0.8594
vn -0.4382 -0.0575 -0.8970
vn -0.0782 -0.0519 -0.9956
vn -0.5703 0.1816 -0.8011
vn -0.4445 0.2390 -0.8633
vn -0.3944 0.2601 -0.8814
vn -0.3407 0.4802 -0.8083
vn -0.2924 0.4214 -0.8584
vn -0.2071 0.4961 -0.8432
vn -0.2719 0.6717 -0.6891
vn -0.1195 0.4824 -0.8677
vn -0.3435 -0.1570 -0.9260
vn -0.2210 -0.0308 -0.9748
vn -0.1310 -0.0288 -0.9910
vn -0.2160 0.1984 -0.9560
vn -0.1521 0.2666 -0.9517
vn -0.1514 0.2927 -0.9441
vn -0.2960 0.9539 -0.0502
vn -0.1572 0.9727 -0.1708
vn 0.0640 0.9658 -0.2512
vn -0.1527 0.9172 -0.3679
vn -0.0735 0.9305 -0.3587
vn -0.0832 0.9172 -0.3897
vn -0.0296 0.9458 -0.3233
vn -0.1602 -0.7836 -0.6002
vn -0.1234 0.7466 -0.6538
vn -0.0367 0.7630 -0.6454
vn -0.1733 0.8853 -0.4315
vn -0.0862 0.9247 -0.3708
vn -0.0616 0.9394 -0.3371
vn -0.2445 0.8492 -0.4680
vn -0.1558 -0.8557 -0.4934
vn -0.1047 -0.6011 -0.7923
vn -0.0578 -0.8588 -0.5091
vn 0.0340 -0.6553 -0.7546
vn -0.1751 0.6297 -0.7568
vn -0.1428 0.6605 -0.7372
vn -0.0455 0.7229 -0.6895
vn -0.0729 0.7000 -0.7105
vn -0.0306 0.6533 -0.7565
vn 0.2866 0.7416 -0.6065
vn -0.1466 -0.5432 -0.8267
vn 0.0026 -0.5551 -0.8318
vn -0.1434 -0.5901 -0.7945
vn -0.1168 0.3383 -0.9338
vn -0.2883 0.5213 -0.8032
vn -0.1344 0.3814 -0.9146
vn 0.0171 0.4801 -0.8770
vn -0.0775 0.4048 -0.9111
vn -0.1472 0.4804 -0.8646
vn -0.0616 0.5793 -0.8128
vn -0.2092 0.6074 -0.7664
vn 0.0045 0.5982 -0.8014
vn -0.2068 -0.1020 -0.9731
vn 0.0794 -0.1102 -0.9907
vn 0.0905 -0.2506 -0.9639
vn -0.1642 0.2232 -0.9609
vn -0.1222 0.0458 -0.9915
vn -0.0927 0.2918 -0.9520
vn -0.0831 0.1586 -0.9838
vn 0.0067 0.5745 0.8185
vn 0.0746 0.7843 0.6159
vn 0.0503 0.3710 0.9273
vn 0.0557 0.5225 0.8508
vn 0.0979 0.8090 0.5795
vn -0.1066 0.9456 0.3073
vn -0.0248 0.9662 0.2566
vn 0.0828 0.9819 0.1704
vn 0.0705 0.9686 0.2384
vn 0.2102 0.9489 0.2355
vn 0.1216 0.9907 -0.0617
vn 0.1826 0.5942 0.7833
vn 0.1637 0.5920 0.7891
vn 0.2460 0.5916 0.7678
vn 0.3296 0.5403 0.7742
vn 0.3519 0.5177 0.7798
vn 0.4243 0.4986 0.7559
vn 0.5481 0.5385 0.6400
vn 0.5743 0.5753 0.5824
vn 0.5395 0.6336 0.5545
vn 0.4268 0.7294 0.5346
vn 0.4328 0.7677 0.4726
vn 0.2387 0.9010 0.3622
vn 0.4283 0.8210 0.3775
vn 0.3927 0.8702 0.2976
vn 0.2844 0.9569 0.0588
vn 0.4004 0.9132 0.0759
vn 0.5775 0.5615 0.5926
vn 0.6188 0.5384 0.5720
vn 0.5643 0.5950 0.5723
vn 0.6278 0.5649 0.5355
vn 0.5094 0.7580 0.4073
vn 0.6601 0.5958 0.4575
vn 0.7524 0.5800 0.3123
vn 0.4535 0.8482 0.2737
vn 0.5204 0.7999 0.2988
vn 0.4725 0.8694 0.1444
vn 0.8525 -0.4308 0.2962
vn 0.6634 0.6683 0.3366
vn 0.7936 0.2282 0.5641
vn 0.8726 0.2442 0.4230
vn 0.6905 0.4718 0.5483
vn 0.8872 0.2562 0.3837
vn 0.7131 0.4381 0.5474
vn 0.7577 0.4106 0.5072
vn 0.9522 0.1561 0.2627
vn 0.9630 0.1079 0.2470
vn 0.9822 0.0687 0.1748
vn 0.9630 0.1278 0.2373
vn 0.7890 0.4962 0.3622
vn 0.9860 0.0290 0.1645
vn 0.9771 0.0140 0.2124
vn 0.9528 0.1318 0.2737
vn 0.9751 0.0040 0.2216
vn 0.8962 0.4002 0.1914
vn 0.9269 0.2556 0.2749
vn 0.7050 0.6194 0.3455
vn 0.9714 0.1871 0.1460
vn 0.9594 0.1472 0.2406
vn 0.9166 0.2147 0.3374
vn 0.9414 0.1697 0.2914
vn 0.0383 -0.1190 -0.9922
vn 0.2680 -0.8408 -0.4704
vn 0.1381 -0.8671 -0.4787
vn 0.2959 -0.8842 -0.3616
vn 0.4540 -0.8035 -0.3850
vn 0.4051 -0.8714 -0.2766
vn 0.2485 -0.8500 -0.4646
vn 0.1451 0.9522 -0.2689
vn 0.1037 0.9525 -0.2862
vn 0.2281 -0.7042 -0.6723
vn 0.1662 -0.8044 -0.5704
vn 0.2577 -0.6700 -0.6961
vn 0.0336 0.7191 -0.6941
vn 0.0990 -0.6384 -0.7633
vn 0.0689 -0.4872 -0.8706
vn 0.1110 -0.5653 -0.8174
vn 0.1940 -0.5585 -0.8065
vn 0.0201 -0.5164 -0.8561
vn 0.1678 0.4643 -0.8696
vn 0.1471 0.6051 -0.7824
vn 0.1803 0.5007 -0.8466
vn 0.1029 -0.3548 -0.9293
vn 0.1297 -0.3712 -0.9194
vn 0.2050 -0.1133 -0.9722
vn 0.1499 0.1020 -0.9834
vn 0.2963 -0.0119 -0.9550
vn 0.0707 0.4617 -0.8842
vn 0.1123 0.1829 -0.9767
vn 0.3306 0.3644 -0.8706
vn 0.2362 0.9648 -0.1155
vn 0.2970 0.9538 -0.0464
vn 0.3700 0.9216 -0.1173
vn 0.4714 0.7932 -0.3854
vn 0.2816 0.9453 -0.1644
vn 0.3622 0.9048 -0.2238
vn 0.4037 0.8638 -0.3016
vn 0.5039 0.8174 -0.2791
vn 0.4384 -0.6844 -0.5826
vn 0.1894 0.9190 -0.3458
vn -0.6208 0.7735 -0.1273
vn 0.3482 -0.6641 -0.6616
vn 0.2651 0.6941 -0.6693
vn 0.3335 0.6614 -0.6718
vn 0.3986 0.5480 -0.7354
vn 0.4160 0.6587 -0.6269
vn 0.2063 0.7499 -0.6285
vn 0.1880 0.7519 -0.6319
vn 0.5342 0.6293 -0.5645
vn 0.2829 -0.6000 -0.7483
vn 0.3415 -0.4125 -0.8445
vn 0.3228 -0.2809 -0.9038
vn 0.2869 -0.1544 -0.9454
vn 0.3857 -0.1012 -0.9171
vn 0.3998 -0.1131 -0.9096
vn 0.4852 0.2879 -0.8257
vn 0.3209 0.4831 -0.8146
vn 0.7263 0.3448 -0.5946
vn 0.2076 0.8753 -0.4368
vn 0.5320 0.6111 -0.5861
vn 0.4609 0.2965 -0.8365
vn 0.3092 -0.1180 -0.9437
vn 0.3762 0.1374 -0.9163
vn 0.4580 -0.0183 -0.8888
vn 0.6305 0.7354 -0.2483
vn 0.6366 0.7329 -0.2398
vn 0.4909 0.8688 -0.0642
vn 0.5481 -0.7603 -0.3486
vn 0.6631 -0.6386 -0.3905
vn 0.7101 -0.6045 -0.3612
vn 0.5651 0.7598 -0.3214
vn 0.5736 0.7283 -0.3749
vn 0.5766 0.8036 -0.1473
vn 0.4894 -0.7098 -0.5066
vn 0.6145 -0.6673 -0.4207
vn 0.6034 -0.6913 -0.3976
vn 0.4510 -0.7168 -0.5317
vn 0.5987 -0.4916 -0.6324
vn 0.5799 0.6308 -0.5156
vn -0.5264 0.8318 -0.1763
vn 0.4958 0.6936 -0.5225
vn 0.4778 -0.6041 -0.6378
vn 0.5401 -0.5097 -0.6697
vn 0.6663 -0.4775 -0.5727
vn 0.4723 -0.4399 -0.7638
vn 0.7083 -0.2912 -0.6431
vn 0.6096 -0.2719 -0.7446
vn 0.6909 -0.0864 -0.7177
vn 0.7559 -0.1211 -0.6434
vn 0.6462 0.1184 -0.7540
vn 0.6039 0.4357 -0.6674
vn 0.3678 0.0893 -0.9256
vn 0.6248 0.3199 -0.7122
vn 0.3242 0.7647 -0.5568
vn 0.5285 0.5136 -0.6760
vn 0.6337 0.3921 -0.6669
vn 0.5433 0.6189 -0.5672
vn 0.5112 0.6414 -0.5721
vn 0.5676 0.5579 -0.6055
vn 0.6116 -0.2555 -0.7488
vn 0.8145 -0.0505 -0.5780
vn 0.4491 -0.2440 -0.8595
vn 0.4464 -0.0177 -0.8947
vn 0.6274 -0.3035 -0.7171
vn 0.5703 -0.3455 -0.7453
vn 0.3325 -0.5798 -0.7438
vn 0.5042 0.1451 -0.8513
vn 0.5994 0.0935 -0.7950
vn 0.5762 0.0289 -0.8168
vn 0.5506 0.2692 -0.7902
vn 0.4174 -0.1222 0.9004
vn 0.8760 0.4750 -0.0841
vn 0.9634 0.2677 -0.0157
vn 0.8313 0.5440 -0.1145
vn 0.7271 -0.6233 -0.2878
vn 0.6886 -0.6669 -0.2848
vn 0.7147 -0.6463 -0.2676
vn 0.7887 -0.5418 -0.2905
vn 0.7627 -0.5527 -0.3359
vn 0.8935 -0.3454 -0.2869
vn 0.8746 -0.4128 -0.2544
vn 0.7749 0.3820 -0.5036
vn 0.9100 0.3857 -0.1522
vn 0.7058 0.6465 -0.2897
vn 0.7284 0.5091 -0.4586
vn 0.6718 0.7118 -0.2050
vn 0.7114 -0.3858 -0.5874
vn 0.6701 -0.1933 -0.7167
vn 0.3214 0.4343 -0.8415
vn 0.6794 -0.5691 -0.4631
vn 0.6606 -0.5902 -0.4639
vn 0.7261 -0.5127 -0.4582
vn 0.7503 -0.4258 -0.5057
vn 0.8372 -0.2729 -0.4739
vn 0.7931 -0.1838 -0.5807
vn 0.9010 -0.3069 -0.3067
vn 0.8555 -0.2930 -0.4269
vn 0.8842 -0.1782 -0.4319
vn 0.8577 -0.4400 -0.2661
vn 0.8368 0.1817 -0.5165
vn 0.7762 0.3357 -0.5336
vn 0.8679 0.2880 -0.4047
vn 0.7771 -0.6271 -0.0532
vn 0.8063 -0.1567 -0.5704
vn 0.7334 -0.1066 -0.6714
vn 0.7016 -0.2455 -0.6689
vn 0.8136 -0.1441 -0.5633
vn 0.7411 0.0492 -0.6696
vn 0.7222 0.2527 -0.6439
vn 0.7446 0.4259 -0.5139
vn 0.6675 0.3977 -0.6295
vn 0.9743 0.1406 0.1760
vn 0.9630 -0.2530 0.0925
vn 0.9746 -0.1971 -0.1059
vn 0.9878 0.0042 -0.1557
vn 0.9780 0.1864 -0.0933
vn 0.9880 0.1038 -0.1148
vn 0.9291 -0.2208 -0.2968
vn 0.9292 -0.2477 -0.2743
vn 0.9781 -0.1222 -0.1686
vn 0.9624 -0.1441 -0.2303
vn 0.9401 -0.0810 -0.3311
vn 0.9604 0.1131 -0.2548
vn 0.9630 0.1005 -0.2499
vn 0.9059 -0.0665 -0.4182
vn 0.9734 0.2074 -0.0969
vn 0.9669 0.0986 -0.2354
vn 0.9628 0.2677 -0.0361
vn 0.9208 0.2818 -0.2695
vn 0.8888 0.0522 -0.4552
vt 0.240309 0.502578
vt 0.258122 0.554547
vt 0.241610 0.554569
vt 0.346905 0.609186
vt 0.351627 0.624613
vt 0.320171 0.636872
vt 0.320492 0.680088
vt 0.360662 0.674917
vt 0.371862 0.704249
vt 0.305914 0.609205
vt 0.340156 0.606805
vt 0.292743 0.661391
vt 0.287620 0.658467
vt 0.337713 0.656732
vt 0.295526 0.670463
vt 0.298836 0.703426
vt 0.341359 0.754891
vt 0.301540 0.735110
vt 0.259627 0.601355
vt 0.251903 0.629976
vt 0.266106 0.673531
vt 0.248044 0.665322
vt 0.282377 0.666231
vt 0.221344 0.702491
vt 0.278120 0.681069
vt 0.276687 0.702159
vt 0.231838 0.732765
vt 0.270913 0.738177
vt 0.353092 0.754117
vt 0.297231 0.772912
vt 0.328889 0.811014
vt 0.304237 0.815086
vt 0.303866 0.837195
vt 0.414876 0.747962
vt 0.438675 0.710282
vt 0.437444 0.752667
vt 0.457200 0.712681
vt 0.460935 0.721565
vt 0.392698 0.739259
vt 0.392609 0.711147
vt 0.371158 0.831019
vt 0.397325 0.773445
vt 0.353926 0.894736
vt 0.343956 0.880125
vt 0.387891 0.866151
vt 0.309190 0.850402
vt 0.467223 0.715717
vt 0.470859 0.774561
vt 0.460963 0.745369
vt 0.453883 0.823132
vt 0.479822 0.828687
vt 0.479616 0.804469
vt 0.471114 0.872594
vt 0.477631 0.886873
vt 0.318461 0.942358
vt 0.564777 0.904963
vt 0.330131 0.929700
vt 0.352018 0.910158
vt 0.117948 0.981167
vt 0.295309 0.947527
vt 0.077939 0.165796
vt 0.085281 0.134617
vt 0.102247 0.145834
vt 0.047395 0.145756
vt 0.016601 0.120455
vt 0.071561 0.130649
vt 0.062974 0.182034
vt 0.054028 0.186404
vt 0.002936 0.153838
vt 1.002936 0.153838
vt 0.987194 0.118896
vt 1.047395 0.145756
vt 0.986340 0.241266
vt 1.019658 0.203294
vt 1.019863 0.214345
vt 0.246454 0.472943
vt 0.254266 0.477581
vt 0.257661 0.495113
vt 0.215191 0.485435
vt 0.225111 0.471506
vt 0.229901 0.477577
vt 0.220210 0.522800
vt 0.235531 0.502367
vt 0.223470 0.568804
vt 0.218115 0.603611
vt 0.221494 0.640694
vt 0.170039 0.466351
vt 0.192933 0.419128
vt 0.193598 0.441566
vt 0.197087 0.465662
vt 0.192044 0.537067
vt 0.192959 0.506493
vt 0.198661 0.467684
vt 0.166178 0.514343
vt 0.198718 0.569208
vt 0.176887 0.553811
vt 0.180928 0.572335
vt 0.196571 0.677190
vt 0.198358 0.704373
vt 0.226082 0.773304
vt 0.249136 0.765545
vt 0.156477 0.250983
vt 0.177557 0.289684
vt 0.162243 0.306271
vt 0.171270 0.351269
vt 0.184057 0.332187
vt 0.190681 0.390495
vt 0.199937 0.613736
vt 0.193443 0.663809
vt 0.183576 0.632814
vt 0.194376 0.729491
vt 0.201579 0.771193
vt 0.189786 0.733873
vt 0.180968 0.730340
vt 0.159784 0.743055
vt 0.163509 0.432160
vt 0.147444 0.418826
vt 0.132147 0.352631
vt 0.134816 0.383319
vt 0.171174 0.551547
vt 0.173383 0.548484
vt 0.148632 0.550744
vt 0.142790 0.514995
vt 0.169579 0.566398
vt 0.143226 0.590918
vt 0.155868 0.632477
vt 0.169440 0.597041
vt 0.171788 0.617097
vt 0.144330 0.668190
vt 0.176052 0.638157
vt 0.157814 0.688410
vt 0.126920 0.477905
vt 0.150630 0.457876
vt 0.128776 0.422197
vt 0.118093 0.523546
vt 0.116114 0.544257
vt 0.126617 0.592793
vt 0.115360 0.570491
vt 0.123572 0.626976
vt 0.164431 0.242800
vt 0.194130 0.778777
vt 0.148802 0.783660
vt 0.190120 0.804075
vt 0.182232 0.818304
vt 0.149842 0.831687
vt 0.155051 0.273822
vt 0.151434 0.291646
vt 0.148516 0.313575
vt 0.120142 0.741715
vt 0.119933 0.706471
vt 0.111364 0.367859
vt 0.127053 0.352468
vt 0.109299 0.323456
vt 0.118813 0.336909
vt 0.081603 0.357339
vt 0.073947 0.335005
vt 0.107768 0.405897
vt 0.108907 0.459425
vt 0.114122 0.477786
vt 0.112747 0.582166
vt 0.092190 0.597651
vt 0.110629 0.584222
vt 0.111514 0.647234
vt 0.093051 0.630672
vt 0.102336 0.670641
vt 0.084062 0.727272
vt 0.101580 0.434208
vt 0.105754 0.438053
vt 0.068739 0.410259
vt 0.074105 0.453984
vt 0.097425 0.438905
vt 0.095477 0.450873
vt 0.069158 0.478805
vt 0.093563 0.486610
vt 0.093956 0.514510
vt 0.067185 0.531397
vt 0.098079 0.536516
vt 0.103985 0.565333
vt 0.076973 0.576705
vt 0.064709 0.547542
vt 0.073070 0.624188
vt 0.093072 0.937329
vt 0.162881 0.897108
vt 0.156731 0.914691
vt 0.161852 0.861429
vt 0.114810 0.858842
vt 0.090131 0.240577
vt 0.067224 0.212922
vt 0.085517 0.224440
vt 0.075797 0.214230
vt 0.093274 0.793896
vt 0.094149 0.303751
vt 0.090518 0.268433
vt 0.096303 0.293984
vt 0.050078 0.307592
vt 0.062278 0.259941
vt 0.032535 0.265806
vt 0.090125 0.312450
vt 0.092922 0.319829
vt 0.069841 0.668245
vt 0.026163 0.731627
vt 0.072988 0.719012
vt 0.040326 0.754217
vt 0.034953 0.715119
vt 0.044324 0.350719
vt 0.076439 0.380206
vt 0.046640 0.402652
vt 0.062320 0.470188
vt 0.066766 0.471787
vt 0.050465 0.448935
vt 0.057069 0.478039
vt 0.067010 0.510833
vt 0.062098 0.504309
vt 0.067862 0.497271
vt 0.061561 0.581743
vt 0.045607 0.656630
vt 0.053953 0.640054
vt 0.038399 0.670437
vt 0.038467 0.697404
vt 0.046020 0.483830
vt 0.042532 0.489245
vt 0.024365 0.460000
vt 0.160603 0.922953
vt 1.093072 0.937329
vt 1.117948 0.981167
vt 0.924927 0.966126
vt 0.960399 0.905836
vt 0.070333 0.862014
vt 0.010183 0.897821
vt 0.990556 0.906242
vt 1.010183 0.897821
vt 0.022811 0.833942
vt 0.033400 0.866609
vt 0.031730 0.849410
vt 0.036121 0.775864
vt 0.017513 0.817468
vt 0.009576 0.793360
vt 0.021580 0.882289
vt 0.051482 0.230280
vt 0.041238 0.232098
vt 0.027823 0.226326
vt 0.021735 0.314660
vt 0.001185 0.760195
vt 0.016095 0.733717
vt 0.003213 0.733773
vt 0.025542 0.401689
vt 0.979854 0.396678
vt 1.028263 0.355126
vt 1.025542 0.401689
vt 0.979844 0.370763
vt 0.034003 0.640193
vt 0.004501 0.617178
vt 0.033322 0.604449
vt 1.013815 0.684112
vt 0.998822 0.659276
vt 1.027205 0.665446
vt 0.009147 0.716681
vt 1.021866 0.425495
vt 0.021866 0.425495
vt 0.994365 0.486275
vt 1.024365 0.460000
vt 1.042532 0.489245
vt 0.022370 0.532234
vt 0.040954 0.502464
vt 0.039236 0.542710
vt 0.009959 0.505284
vt 0.000402 0.582320
vt 0.036554 0.582741
vt 0.007185 0.552928
vt 0.036932 0.560021
vt 0.495479 0.716582
vt 0.500656 0.712673
vt 0.515000 0.712662
vt 0.509357 0.745685
vt 0.500678 0.737599
vt 0.530787 0.742916
vt 0.541822 0.741762
vt 0.559036 0.711215
vt 0.542285 0.713129
vt 0.528178 0.899572
vt 0.591459 0.899957
vt 0.664969 0.958589
vt 0.557191 0.746261
vt 0.567703 0.743813
vt 0.586878 0.725046
vt 0.583463 0.709266
vt 0.638896 0.890947
vt 0.615677 0.880462
vt 0.656802 0.873043
vt 0.639644 0.829287
vt 0.708464 0.902378
vt 0.727022 0.865859
vt 0.601924 0.733569
vt 0.601545 0.719165
vt 0.608543 0.709723
vt 0.657487 0.722634
vt 0.610229 0.757085
vt 0.669213 0.787447
vt 0.620210 0.782132
vt 0.674168 0.756474
vt 0.633648 0.808075
vt 0.714428 0.727408
vt 0.702488 0.772426
vt 0.704911 0.807753
vt 0.734063 0.821655
vt 0.642625 0.658110
vt 0.679677 0.653254
vt 0.672621 0.682952
vt 0.660792 0.607509
vt 0.647016 0.630447
vt 0.651191 0.612738
vt 0.679499 0.630688
vt 0.716406 0.649954
vt 0.707306 0.604068
vt 0.694493 0.609445
vt 0.693213 0.698723
vt 0.723856 0.603245
vt 0.733817 0.607280
vt 0.736856 0.659137
vt 0.737554 0.623989
vt 0.720107 0.694457
vt 0.731688 0.677277
vt 0.749794 0.479805
vt 0.743531 0.487468
vt 0.746626 0.477405
vt 0.748369 0.497946
vt 0.958142 0.175880
vt 1.029455 0.191136
vt 0.869683 0.229252
vt 0.884416 0.154789
vt 0.926304 0.212419
vt 0.918922 0.880704
vt 0.880989 0.905822
vt 0.998820 0.305212
vt 0.952672 0.274662
vt 1.003213 0.733773
vt 1.001185 0.760195
vt 0.990785 0.753757
vt 0.965494 0.714269
vt 0.952430 0.745645
vt 0.974840 0.335435
vt 0.975800 0.351208
vt 0.969155 0.352696
vt 0.951689 0.358092
vt 0.970788 0.626510
vt 1.004501 0.617178
vt 0.961676 0.686535
vt 0.982766 0.601244
vt 1.009165 0.706830
vt 0.975778 0.414382
vt 0.973083 0.443088
vt 0.966943 0.422178
vt 0.994534 0.458335
vt 0.955106 0.452860
vt 0.954193 0.484976
vt 0.969277 0.539605
vt 1.009959 0.505284
vt 0.960475 0.521347
vt 0.974445 0.561214
vt 1.007185 0.552928
vt 1.000402 0.582320
vt 0.950812 0.592374
vt 0.835937 0.887268
vt 0.823006 0.848290
vt 0.880632 0.867224
vt 0.867351 0.853679
vt 0.832181 0.824343
vt 0.863855 0.821531
vt 0.862217 0.840432
vt 0.900605 0.271374
vt 0.934659 0.297858
vt 0.930741 0.716465
vt 0.941728 0.737635
vt 0.929472 0.687274
vt 0.923971 0.712466
vt 0.918317 0.713069
vt 0.888040 0.672971
vt 0.934584 0.657669
vt 0.904717 0.339674
vt 0.948199 0.314943
vt 0.907087 0.371938
vt 0.921513 0.399597
vt 0.923116 0.442870
vt 0.959550 0.399761
vt 0.961041 0.417351
vt 0.936223 0.467232
vt 0.924540 0.449441
vt 0.922773 0.486816
vt 0.921516 0.640743
vt 0.920558 0.503655
vt 0.949653 0.545219
vt 0.771800 0.808488
vt 0.835891 0.238935
vt 0.850725 0.199463
vt 0.787621 0.797867
vt 0.838224 0.797719
vt 0.849568 0.768325
vt 0.801960 0.747593
vt 0.798710 0.778772
vt 0.855696 0.732198
vt 0.803477 0.766725
vt 0.876497 0.292356
vt 0.869148 0.284007
vt 0.826876 0.270193
vt 0.853836 0.288018
vt 0.847576 0.303910
vt 0.882968 0.783666
vt 0.884897 0.792860
vt 0.876210 0.789904
vt 0.906014 0.742043
vt 0.888790 0.776397
vt 0.878961 0.713117
vt 0.867422 0.367201
vt 0.872792 0.339608
vt 0.882508 0.415909
vt 0.891014 0.432212
vt 0.895920 0.419890
vt 0.891325 0.581052
vt 0.889126 0.552044
vt 0.891347 0.567005
vt 0.902889 0.654589
vt 0.878822 0.647780
vt 0.893713 0.623664
vt 0.913294 0.719631
vt 0.911714 0.664618
vt 0.919988 0.440550
vt 0.912224 0.449420
vt 0.899692 0.422501
vt 0.902605 0.432501
vt 0.921313 0.651578
vt 0.929082 0.647804
vt 0.919658 0.660394
vt 0.817880 0.316403
vt 0.825616 0.354384
vt 0.813303 0.352373
vt 0.826203 0.328744
vt 0.844594 0.650356
vt 0.797895 0.654834
vt 0.822268 0.606984
vt 0.784161 0.677533
vt 0.781795 0.640347
vt 0.819971 0.719245
vt 0.838976 0.682895
vt 0.832656 0.321212
vt 0.843648 0.339802
vt 0.840092 0.336415
vt 0.846958 0.328138
vt 0.858932 0.399582
vt 0.836927 0.422354
vt 0.843244 0.384721
vt 0.849293 0.431968
vt 0.825375 0.423248
vt 0.807198 0.412472
vt 0.822648 0.385786
vt 0.833757 0.436039
vt 0.856297 0.451237
vt 0.827829 0.501021
vt 0.831380 0.438912
vt 0.860393 0.482734
vt 0.840929 0.539365
vt 0.851408 0.625347
vt 0.856065 0.566271
vt 0.861534 0.384310
vt 0.856069 0.384920
vt 0.888785 0.451284
vt 0.888414 0.502551
vt 0.886494 0.479203
vt 0.880588 0.540356
vt 0.863261 0.604388
vt 0.890794 0.605681
vt 0.876241 0.577564
vt 0.777379 0.474177
vt 0.772431 0.504467
vt 0.772372 0.482383
vt 0.812392 0.482456
vt 0.793044 0.465537
vt 0.801338 0.465688
vt 0.804574 0.462350
vt 0.801872 0.523935
vt 0.807797 0.568693
vt 0.784660 0.583305
vt 0.781637 0.562135
vt 0.810973 0.607271
vt 0.784756 0.617831
vt 0.807027 0.447510
vt 0.828986 0.436307
vt 0.258926 0.576336
vt 0.263398 0.607483
vt 0.276719 0.604133
vt 0.295590 0.606395
vt 0.262371 0.753478
vt 0.377226 0.710905
vt 0.411779 0.708400
vt 0.104242 0.156293
vt 1.016601 0.120455
vt 0.029455 0.191136
vt 0.248860 0.470775
vt 0.206218 0.465923
vt 0.183258 0.611271
vt 0.187103 0.648194
vt 0.175169 0.715111
vt 0.136849 0.347726
vt 0.177844 0.671583
vt 0.175554 0.699043
vt 0.116089 0.499074
vt 0.159507 0.242361
vt 0.095805 0.465156
vt 0.060332 0.610610
vt 1.021735 0.314660
vt 1.032535 0.265806
vt 1.027823 0.226326
vt 0.004116 0.777984
vt 0.028263 0.355126
vt 0.027204 0.665446
vt 0.032716 0.652902
vt 1.034003 0.640193
vt 0.009165 0.706830
vt 1.318461 0.942358
vt 0.590061 0.711986
vt 0.624838 0.705513
vt 0.632728 0.693431
vt 0.700191 0.792985
vt 0.711341 0.747335
vt 0.742556 0.510004
vt 0.912726 0.141312
vt 0.940591 0.127523
vt 0.935295 0.889481
vt 0.954590 0.247631
vt 0.961395 0.366909
vt 1.022370 0.532234
vt 0.928217 0.543952
vt 0.922600 0.589853
vt 0.923123 0.607165
vt 0.753700 0.815977
vt 0.878210 0.302960
vt 0.904951 0.444740
vt 0.919583 0.521179
vt 0.917765 0.536899
vt 0.918117 0.557490
vt 0.787415 0.707595
vt 0.847900 0.376450
vt 0.779223 0.538867
vt 0.808813 0.544141
s 1
f 92/1/92 3/2/3 93/3/93
f 6/4/6 8/5/8 7/6/7
f 11/7/11 10/8/10 33/9/33
f 13/10/13 5/11/5 7/6/7
f 13/10/13 7/6/7 15/12/15
f 17/13/17 13/10/13 15/12/15
f 7/6/7 9/14/9 11/7/11
f 7/6/7 11/7/11 16/15/16
f 19/16/19 38/17/38 18/18/18
f 93/3/93 21/19/21 23/20/23
f 23/20/23 22/21/22 113/22/113
f 22/21/22 13/10/13 17/13/17
f 22/21/22 17/13/17 24/23/24
f 113/22/113 22/21/22 25/24/25
f 22/21/22 26/25/26 28/26/28
f 27/27/27 22/21/22 28/26/28
f 28/26/28 29/28/29 27/27/27
f 19/16/19 34/29/34 38/17/38
f 39/30/39 18/18/18 38/17/38
f 38/17/38 34/29/34 40/31/40
f 39/30/39 40/31/40 42/32/42
f 42/32/42 40/31/40 41/33/41
f 45/34/45 46/35/46 47/36/47
f 46/35/46 53/37/53 55/38/55
f 36/39/36 32/40/32 45/34/45
f 49/41/49 34/29/34 37/42/37
f 40/31/40 34/29/34 49/41/49
f 52/43/52 50/44/50 51/45/51
f 41/33/41 51/45/51 43/46/43
f 43/46/43 51/45/51 50/44/50
f 55/38/55 53/37/53 54/47/54
f 59/48/59 47/36/47 48/49/48
f 60/50/60 47/36/47 59/48/59
f 62/51/62 60/50/60 61/52/61
f 63/53/63 49/41/49 60/50/60
f 63/53/63 60/50/60 62/51/62
f 65/54/65 51/45/51 63/53/63
f 66/55/66 65/54/65 294/56/294
f 67/57/67 64/58/64 66/55/66
f 69/59/69 68/60/68 66/55/66
f 73/61/73 72/62/72 70/63/70
f 77/64/77 78/65/78 76/66/76
f 73/61/73 77/64/77 72/62/72
f 80/67/80 77/64/77 73/61/73
f 81/68/81 84/69/84 77/64/77
f 84/70/84 79/71/79 77/72/77
f 85/73/85 83/74/83 86/75/86
f 88/76/88 1/77/1 2/78/2
f 91/79/91 90/80/90 89/81/89
f 95/82/95 92/1/92 93/3/93
f 95/82/95 94/83/94 92/1/92
f 96/84/96 93/3/93 97/85/97
f 97/85/97 23/20/23 98/86/98
f 104/87/104 99/88/99 102/89/102
f 104/87/104 102/89/102 103/90/103
f 105/91/105 95/82/95 93/3/93
f 106/92/106 91/79/91 95/82/95
f 101/93/101 91/79/91 106/92/106
f 140/94/140 106/92/106 105/91/105
f 107/95/107 96/84/96 97/85/97
f 101/93/101 106/92/106 140/94/140
f 104/87/104 101/93/101 140/94/140
f 111/96/111 107/95/107 112/97/112
f 98/86/98 113/22/113 25/24/25
f 98/86/98 25/24/25 114/98/114
f 115/99/115 25/24/25 27/27/27
f 117/100/117 27/27/27 31/101/31
f 165/102/165 119/103/119 122/104/122
f 120/105/120 121/106/121 123/107/123
f 122/104/122 119/103/119 121/106/121
f 109/108/109 98/86/98 124/109/124
f 125/110/125 109/108/109 124/109/124
f 115/99/115 114/98/114 25/24/25
f 115/99/115 27/27/27 128/111/128
f 128/111/128 27/27/27 116/112/116
f 128/111/128 116/112/116 118/113/118
f 131/114/131 118/113/118 132/115/132
f 123/107/123 99/88/99 136/116/136
f 120/105/120 136/116/136 137/117/137
f 134/118/134 120/105/120 138/119/138
f 99/88/99 104/87/104 136/116/136
f 141/120/141 140/94/140 110/121/110
f 145/122/145 142/123/142 140/94/140
f 145/122/145 141/120/141 143/124/143
f 146/125/146 143/124/143 149/126/149
f 146/125/146 145/122/145 143/124/143
f 149/126/149 144/127/144 148/128/148
f 150/129/150 147/130/147 151/131/151
f 155/132/155 139/133/139 140/94/140
f 137/117/137 139/133/139 153/134/153
f 155/132/155 153/134/153 139/133/139
f 140/94/140 142/123/142 155/132/155
f 155/132/155 142/123/142 158/135/158
f 159/136/159 158/135/158 142/123/142
f 160/137/160 145/122/145 146/125/146
f 159/136/159 142/123/142 145/122/145
f 160/137/160 159/136/159 145/122/145
f 161/138/161 159/136/159 160/137/160
f 160/137/160 146/125/146 162/139/162
f 162/139/162 149/126/149 150/129/150
f 149/126/149 162/139/162 146/125/146
f 163/140/163 119/103/119 165/102/165
f 166/141/166 118/113/118 116/112/116
f 132/115/132 118/113/118 166/141/166
f 169/142/169 167/143/167 168/144/168
f 211/145/211 169/142/169 168/144/168
f 171/146/171 165/102/165 122/104/122
f 171/146/171 122/104/122 170/147/170
f 170/147/170 122/104/122 133/148/133
f 132/115/132 172/149/172 151/131/151
f 172/149/172 189/150/189 151/131/151
f 152/151/152 174/152/174 134/118/134
f 176/153/176 175/154/175 152/151/152
f 176/153/176 152/151/152 177/155/177
f 180/156/180 176/153/176 177/155/177
f 181/157/181 138/119/138 153/134/153
f 177/155/177 152/151/152 181/157/181
f 182/158/182 155/132/155 156/159/156
f 160/137/160 183/160/183 161/138/161
f 160/137/160 186/161/186 184/162/184
f 186/161/186 160/137/160 162/139/162
f 150/129/150 187/163/187 162/139/162
f 187/163/187 206/164/206 162/139/162
f 162/139/162 206/164/206 186/161/186
f 188/165/188 206/164/206 187/163/187
f 188/165/188 150/129/150 189/150/189
f 190/166/190 188/165/188 189/150/189
f 172/149/172 190/166/190 189/150/189
f 192/167/192 181/157/181 154/168/154
f 194/169/194 181/157/181 192/167/192
f 198/170/198 193/171/193 196/172/196
f 199/173/199 198/170/198 197/174/197
f 197/174/197 201/175/201 199/173/199
f 204/176/204 201/175/201 203/177/203
f 184/162/184 186/161/186 185/178/185
f 205/179/205 231/180/231 203/177/203
f 207/181/207 205/179/205 186/161/186
f 246/182/246 208/183/208 209/184/209
f 211/145/211 168/144/168 210/185/210
f 211/145/211 210/185/210 212/186/212
f 212/186/212 210/185/210 208/183/208
f 213/187/213 75/188/75 214/189/214
f 75/188/75 74/190/74 214/189/214
f 169/142/169 211/145/211 216/191/216
f 216/191/216 211/145/211 212/186/212
f 179/192/179 217/193/217 173/194/173
f 218/195/218 215/196/215 217/193/217
f 218/195/218 219/197/219 215/196/215
f 218/195/218 179/192/179 220/198/220
f 178/199/178 218/195/218 220/198/220
f 190/166/190 234/200/234 188/165/188
f 264/201/264 221/202/221 222/203/222
f 264/201/264 263/204/263 221/202/221
f 223/205/223 177/155/177 191/206/191
f 224/207/224 194/169/194 198/170/198
f 224/207/224 191/206/191 194/169/194
f 227/208/227 198/170/198 200/209/200
f 226/210/226 198/170/198 227/208/227
f 228/211/228 226/210/226 227/208/227
f 204/176/204 229/212/229 201/175/201
f 230/213/230 202/214/202 229/212/229
f 205/179/205 232/215/232 231/180/231
f 206/164/206 188/165/188 234/200/234
f 234/200/234 236/216/236 235/217/235
f 238/218/238 236/216/236 237/219/237
f 239/220/239 226/210/226 228/211/228
f 240/221/240 281/222/281 239/220/239
f 246/182/246 245/223/245 68/60/68
f 245/223/245 246/182/246 209/184/209
f 68/60/68 69/59/69 246/182/246
f 246/224/246 69/225/69 298/226/298
f 247/227/247 246/224/246 298/226/298
f 212/186/212 246/182/246 248/228/248
f 248/228/248 246/182/246 249/229/249
f 246/224/246 251/230/251 249/231/249
f 216/191/216 248/228/248 255/232/255
f 248/228/248 256/233/256 257/234/257
f 253/235/253 258/236/258 254/237/254
f 256/233/256 248/228/248 250/238/250
f 215/196/215 252/239/252 75/188/75
f 219/197/219 259/240/259 215/196/215
f 219/197/219 261/241/261 259/240/259
f 260/242/260 219/197/219 218/195/218
f 253/235/253 265/243/265 222/203/222
f 264/201/264 222/203/222 266/244/266
f 253/235/253 254/237/254 265/243/265
f 222/203/222 265/243/265 267/245/267
f 260/242/260 218/195/218 223/205/223
f 271/246/271 223/205/223 224/207/224
f 367/247/366 269/248/269 271/249/271
f 367/247/366 270/250/270 269/248/269
f 274/251/274 276/252/276 272/253/272
f 278/254/278 275/255/275 277/256/277
f 267/245/267 279/257/279 266/244/266
f 225/258/225 367/247/366 271/249/271
f 281/222/281 225/259/225 226/210/226
f 282/260/282 281/261/281 240/262/240
f 284/263/284 241/264/241 242/265/242
f 284/263/284 285/266/285 240/221/240
f 276/252/276 286/267/286 244/268/244
f 244/268/244 287/269/287 243/270/243
f 56/271/56 57/272/57 289/273/289
f 288/274/288 58/275/58 290/276/290
f 290/276/290 58/275/58 291/277/291
f 299/278/299 58/275/58 292/279/292
f 294/56/294 65/54/65 293/280/293
f 294/56/294 296/281/296 295/282/295
f 291/277/291 299/278/299 300/283/300
f 301/284/301 299/278/299 302/285/302
f 302/285/302 299/278/299 303/286/303
f 297/287/297 296/281/296 310/288/310
f 312/289/312 310/288/310 311/290/311
f 295/282/295 297/287/297 313/291/313
f 313/291/313 312/289/312 314/292/314
f 306/293/306 305/294/305 315/295/315
f 306/293/306 315/295/315 318/296/318
f 307/297/307 306/293/306 318/296/318
f 319/298/319 308/299/308 307/297/307
f 320/300/320 307/297/307 318/296/318
f 309/301/309 308/299/308 319/298/319
f 321/302/321 320/300/320 318/296/318
f 326/303/326 319/298/319 320/300/320
f 312/289/312 322/304/322 324/305/324
f 329/306/329 330/307/330 331/308/331
f 328/309/328 332/310/332 327/311/327
f 333/312/333 330/307/330 328/309/328
f 336/313/336 333/312/333 328/309/328
f 335/314/335 336/313/336 334/315/334
f 336/313/336 337/316/337 330/307/330
f 336/313/336 335/314/335 338/317/338
f 339/318/339 336/313/336 338/317/338
f 340/319/340 336/313/336 341/320/341
f 321/302/321 337/316/337 342/321/342
f 343/322/343 336/313/336 340/319/340
f 500/323/499 346/324/346 345/325/345
f 349/326/348 346/324/346 500/323/499
f 352/327/351 84/70/84 82/328/82
f 354/329/353 353/330/352 356/331/355
f 246/224/246 247/227/247 251/230/251
f 357/332/356 247/227/247 379/333/378
f 262/334/262 359/335/358 85/73/85
f 267/336/267 265/337/265 362/338/361
f 369/339/368 362/338/361 396/340/395
f 270/250/270 363/341/362 269/248/269
f 364/342/363 363/341/362 270/250/270
f 365/343/364 363/341/362 364/342/363
f 398/344/397 363/341/362 365/343/364
f 275/255/275 368/345/367 276/346/276
f 368/345/367 275/255/275 370/347/369
f 368/345/367 376/348/375 276/346/276
f 280/349/280 275/255/275 278/254/278
f 280/349/280 267/336/267 369/339/368
f 280/349/280 370/347/369 275/255/275
f 369/339/368 370/347/369 280/349/280
f 371/350/370 373/351/372 372/352/371
f 283/353/283 401/354/400 373/351/372
f 282/260/282 410/355/409 283/353/283
f 374/356/373 282/260/282 285/357/285
f 374/356/373 375/358/374 282/260/282
f 377/359/376 287/360/287 286/361/286
f 378/362/377 377/359/376 376/348/375
f 376/348/375 286/361/286 276/346/276
f 298/226/298 313/291/313 380/363/379
f 380/363/379 313/291/313 314/292/314
f 381/364/380 380/363/379 314/292/314
f 357/332/356 379/333/378 383/365/382
f 383/365/382 379/333/378 380/363/379
f 384/366/383 383/365/382 381/364/380
f 386/367/385 382/368/381 385/369/384
f 387/370/386 359/335/358 390/371/389
f 392/372/391 369/339/368 391/373/390
f 393/374/392 394/375/393 395/376/394
f 447/377/446 405/378/404 393/374/392
f 391/373/390 369/339/368 396/340/395
f 398/344/397 430/379/429 361/380/360
f 431/381/430 430/379/429 398/344/397
f 398/344/397 433/382/432 431/381/430
f 450/383/449 433/382/432 399/384/398
f 400/385/399 450/383/449 399/384/398
f 401/354/400 450/383/449 400/385/399
f 402/386/401 403/387/402 401/354/400
f 375/358/374 451/388/450 410/355/409
f 406/389/405 378/362/377 405/378/404
f 410/355/409 401/354/400 283/353/283
f 410/355/409 402/386/401 401/354/400
f 412/390/411 375/358/374 411/391/410
f 411/391/410 374/356/373 377/359/376
f 411/391/410 377/359/376 378/362/377
f 415/392/414 314/292/314 324/305/324
f 416/393/415 355/394/354 354/329/353
f 386/367/385 413/395/412 419/396/418
f 420/397/419 419/396/418 474/398/473
f 419/396/418 413/395/412 414/399/413
f 420/397/419 474/398/473 427/400/426
f 419/396/418 414/399/413 421/401/420
f 419/396/418 421/401/420 474/398/473
f 386/367/385 381/364/380 415/392/414
f 422/402/421 354/329/353 387/370/386
f 422/402/421 424/403/423 354/329/353
f 417/404/416 416/393/415 354/329/353
f 424/403/423 423/405/422 354/329/353
f 423/405/422 418/406/417 417/404/416
f 428/407/427 389/408/388 388/409/387
f 397/410/396 429/411/428 445/412/444
f 422/402/421 387/370/386 390/371/389
f 432/413/431 426/414/425 430/379/429
f 431/381/430 434/415/433 432/413/431
f 436/416/435 434/415/433 435/417/434
f 441/418/440 438/419/437 440/420/439
f 443/421/442 499/422/498 444/423/443
f 447/377/446 393/374/392 446/424/445
f 447/377/446 443/421/442 442/425/441
f 433/382/432 452/426/451 453/427/452
f 453/427/452 448/428/447 433/382/432
f 453/427/452 449/429/448 448/428/447
f 408/430/407 459/431/458 406/389/405
f 407/432/406 405/378/404 442/425/441
f 418/406/417 463/433/462 417/404/416
f 467/434/466 466/435/465 465/436/464
f 470/437/469 471/438/470 490/439/489
f 471/438/470 460/440/459 461/441/460
f 472/442/471 471/438/470 473/443/472
f 418/406/417 464/444/463 463/433/462
f 477/445/476 476/446/475 475/447/474
f 481/448/480 482/449/481 480/450/479
f 481/448/480 483/451/482 482/449/481
f 484/452/483 468/453/467 469/454/468
f 483/451/482 485/455/484 482/449/481
f 492/456/491 513/457/512 486/458/485
f 495/459/494 518/460/517 513/457/512
f 489/461/488 490/439/489 488/462/487
f 490/439/489 518/460/517 488/462/487
f 470/437/469 490/439/489 489/461/488
f 472/442/471 473/443/472 427/400/426
f 481/448/480 491/463/490 432/413/431
f 491/463/490 481/448/480 478/464/477
f 434/415/433 493/465/492 492/456/491
f 437/466/436 495/459/494 494/467/493
f 488/462/487 518/460/517 496/468/495
f 498/469/497 441/418/440 439/470/438
f 488/462/487 497/471/496 498/469/497
f 497/471/496 488/462/487 496/468/495
f 444/423/443 499/422/498 489/461/488
f 470/437/469 489/461/488 499/422/498
f 444/423/443 489/461/488 498/469/497
f 502/472/501 503/473/502 501/474/500
f 510/475/509 503/473/502 509/476/508
f 507/477/506 510/475/509 509/476/508
f 510/475/509 507/477/506 508/478/507
f 509/476/508 503/473/502 502/472/501
f 512/479/511 503/473/502 510/475/509
f 513/457/512 512/479/511 510/475/509
f 515/480/514 514/481/513 505/482/504
f 517/483/516 516/484/515 514/481/513
f 517/483/516 461/441/460 516/484/515
f 506/485/505 510/475/509 508/478/507
f 486/458/485 506/485/505 487/486/486
f 486/458/485 513/457/512 510/475/509
f 517/483/516 515/480/514 490/439/489
f 518/460/517 490/439/489 515/480/514
f 92/1/92 2/78/2 3/2/3
f 93/3/93 3/2/3 4/487/4
f 5/11/5 6/4/6 7/6/7
f 7/6/7 8/5/8 9/14/9
f 9/14/9 8/5/8 10/8/10
f 11/7/11 9/14/9 10/8/10
f 16/15/16 15/12/15 7/6/7
f 19/16/19 16/15/16 11/7/11
f 11/7/11 33/9/33 34/29/34
f 19/16/19 11/7/11 34/29/34
f 23/20/23 21/19/21 20/488/20
f 12/489/12 14/490/14 13/10/13
f 20/488/20 12/489/12 13/10/13
f 23/20/23 13/10/13 22/21/22
f 23/20/23 20/488/20 13/10/13
f 22/21/22 24/23/24 26/25/26
f 27/27/27 25/24/25 22/21/22
f 27/27/27 29/28/29 30/491/30
f 33/9/33 35/492/35 36/39/36
f 34/29/34 33/9/33 36/39/36
f 36/39/36 35/492/35 32/40/32
f 34/29/34 36/39/36 37/42/37
f 40/31/40 39/30/39 38/17/38
f 45/34/45 44/493/44 46/35/46
f 48/49/48 47/36/47 46/35/46
f 32/40/32 44/493/44 45/34/45
f 45/34/45 37/42/37 36/39/36
f 37/42/37 45/34/45 47/36/47
f 49/41/49 41/33/41 40/31/40
f 51/45/51 41/33/41 49/41/49
f 64/58/64 52/43/52 51/45/51
f 48/49/48 46/35/46 55/38/55
f 37/42/37 47/36/47 60/50/60
f 60/50/60 49/41/49 37/42/37
f 60/50/60 59/48/59 61/52/61
f 63/53/63 51/45/51 49/41/49
f 64/58/64 51/45/51 65/54/65
f 66/55/66 64/58/64 65/54/65
f 71/494/71 73/61/73 70/63/70
f 72/62/72 77/64/77 76/66/76
f 77/72/77 79/71/79 78/495/78
f 80/67/80 81/68/81 77/64/77
f 81/68/81 82/496/82 84/69/84
f 83/74/83 356/331/355 82/328/82
f 85/73/85 356/331/355 83/74/83
f 88/76/88 87/497/87 1/77/1
f 92/1/92 88/76/88 2/78/2
f 94/83/94 91/79/91 89/81/89
f 95/82/95 91/79/91 94/83/94
f 105/91/105 93/3/93 96/84/96
f 93/3/93 4/487/4 21/19/21
f 97/85/97 93/3/93 23/20/23
f 100/498/100 90/80/90 91/79/91
f 101/93/101 100/498/100 91/79/91
f 106/92/106 95/82/95 105/91/105
f 96/84/96 107/95/107 105/91/105
f 97/85/97 109/108/109 108/499/108
f 97/85/97 108/499/108 107/95/107
f 108/499/108 112/97/112 107/95/107
f 98/86/98 109/108/109 97/85/97
f 104/87/104 103/90/103 101/93/101
f 107/95/107 111/96/111 105/91/105
f 140/94/140 105/91/105 111/96/111
f 111/96/111 110/121/110 140/94/140
f 113/22/113 98/86/98 23/20/23
f 31/101/31 27/27/27 30/491/30
f 116/112/116 27/27/27 117/100/117
f 122/104/122 121/106/121 120/105/120
f 125/110/125 108/499/108 109/108/109
f 126/500/126 125/110/125 124/109/124
f 114/98/114 124/109/124 98/86/98
f 130/501/130 131/114/131 132/115/132
f 133/148/133 122/104/122 120/105/120
f 135/502/135 133/148/133 120/105/120
f 134/118/134 135/502/135 120/105/120
f 136/116/136 120/105/120 123/107/123
f 137/117/137 138/119/138 120/105/120
f 139/133/139 136/116/136 104/87/104
f 140/94/140 139/133/139 104/87/104
f 149/126/149 143/124/143 144/127/144
f 145/122/145 140/94/140 141/120/141
f 149/126/149 148/128/148 147/130/147
f 150/129/150 149/126/149 147/130/147
f 151/131/151 147/130/147 127/503/127
f 129/504/129 151/131/151 127/503/127
f 130/501/130 151/131/151 129/504/129
f 138/119/138 137/117/137 153/134/153
f 152/151/152 134/118/134 138/119/138
f 181/157/181 153/134/153 154/168/154
f 137/117/137 136/116/136 139/133/139
f 154/168/154 153/134/153 155/132/155
f 155/132/155 157/505/157 156/159/156
f 157/505/157 155/132/155 158/135/158
f 165/102/165 164/506/164 163/140/163
f 132/115/132 166/141/166 169/142/169
f 166/141/166 167/143/167 169/142/169
f 132/115/132 151/131/151 130/501/130
f 132/115/132 169/142/169 172/149/172
f 152/151/152 175/154/175 174/152/174
f 176/153/176 180/156/180 178/199/178
f 181/157/181 152/151/152 138/119/138
f 182/158/182 154/168/154 155/132/155
f 184/162/184 183/160/183 160/137/160
f 189/150/189 150/129/150 151/131/151
f 150/129/150 188/165/188 187/163/187
f 192/167/192 193/171/193 194/169/194
f 191/206/191 177/155/177 181/157/181
f 194/169/194 191/206/191 181/157/181
f 198/170/198 196/172/196 195/507/195
f 197/174/197 198/170/198 195/507/195
f 198/170/198 194/169/194 193/171/193
f 200/209/200 198/170/198 199/173/199
f 203/177/203 231/180/231 204/176/204
f 201/175/201 202/214/202 199/173/199
f 185/178/185 205/179/205 203/177/203
f 185/178/185 186/161/186 205/179/205
f 206/164/206 207/181/207 186/161/186
f 212/186/212 208/183/208 246/182/246
f 213/187/213 215/196/215 75/188/75
f 172/149/172 169/142/169 216/191/216
f 190/166/190 172/149/172 216/191/216
f 216/191/216 212/186/212 248/228/248
f 218/195/218 217/193/217 179/192/179
f 215/196/215 213/187/213 217/193/217
f 180/156/180 218/195/218 178/199/178
f 221/202/221 234/200/234 190/166/190
f 221/202/221 263/204/263 234/200/234
f 190/166/190 216/191/216 221/202/221
f 216/191/216 253/235/253 221/202/221
f 253/235/253 222/203/222 221/202/221
f 177/155/177 223/205/223 180/156/180
f 223/205/223 218/195/218 180/156/180
f 224/207/224 223/205/223 191/206/191
f 226/210/226 225/259/225 224/207/224
f 225/259/225 271/246/271 224/207/224
f 226/210/226 224/207/224 198/170/198
f 201/175/201 229/212/229 202/214/202
f 205/179/205 233/508/233 232/215/232
f 206/164/206 234/200/234 207/181/207
f 207/181/207 233/508/233 205/179/205
f 207/181/207 234/200/234 235/217/235
f 207/181/207 235/217/235 233/508/233
f 234/200/234 237/219/237 236/216/236
f 234/200/234 263/204/263 237/219/237
f 281/222/281 226/210/226 239/220/239
f 248/228/248 249/229/249 250/238/250
f 253/235/253 216/191/216 255/232/255
f 257/234/257 255/232/255 248/228/248
f 253/235/253 255/232/255 258/236/258
f 259/240/259 252/239/252 215/196/215
f 260/509/260 262/334/262 219/510/219
f 85/73/85 86/75/86 261/511/261
f 219/510/219 85/73/85 261/511/261
f 267/245/267 266/244/266 222/203/222
f 265/243/265 254/237/254 268/512/268
f 269/513/269 260/242/260 223/205/223
f 269/248/269 262/334/262 260/509/260
f 271/246/271 269/513/269 223/205/223
f 277/514/277 274/251/274 273/515/273
f 277/256/277 275/255/275 274/516/274
f 275/255/275 276/346/276 274/516/274
f 279/257/279 267/245/267 280/517/280
f 281/261/281 282/260/282 283/353/283
f 283/353/283 225/258/225 281/261/281
f 241/264/241 284/263/284 240/221/240
f 285/357/285 282/260/282 240/262/240
f 276/252/276 244/268/244 272/253/272
f 242/265/242 243/270/243 284/263/284
f 284/263/284 243/270/243 287/269/287
f 244/268/244 286/267/286 287/269/287
f 58/275/58 56/271/56 289/273/289
f 292/279/292 58/275/58 289/273/289
f 299/278/299 291/277/291 58/275/58
f 297/287/297 295/282/295 296/281/296
f 295/282/295 69/225/69 66/518/66
f 66/55/66 294/56/294 295/282/295
f 298/226/298 295/282/295 313/291/313
f 301/284/301 300/283/300 299/278/299
f 304/519/304 302/285/302 303/286/303
f 297/287/297 310/288/310 312/289/312
f 312/289/312 313/291/313 297/287/297
f 317/520/317 318/296/318 315/295/315
f 318/296/318 317/520/317 316/521/316
f 316/521/316 331/308/331 318/296/318
f 311/290/311 309/301/309 319/298/319
f 322/304/322 311/290/311 319/298/319
f 323/522/323 322/304/322 319/298/319
f 320/300/320 319/298/319 307/297/307
f 326/303/326 323/522/323 319/298/319
f 314/292/314 312/289/312 324/305/324
f 312/289/312 311/290/311 322/304/322
f 332/310/332 330/307/330 329/306/329
f 328/309/328 330/307/330 332/310/332
f 331/308/331 316/521/316 329/306/329
f 336/313/336 328/309/328 334/315/334
f 336/313/336 330/307/330 333/312/333
f 331/308/331 337/316/337 318/296/318
f 337/316/337 321/302/321 318/296/318
f 330/307/330 337/316/337 331/308/331
f 339/318/339 341/320/341 336/313/336
f 343/322/343 337/316/337 336/313/336
f 343/322/343 342/321/342 337/316/337
f 344/523/344 326/303/326 320/300/320
f 321/302/321 344/523/344 320/300/320
f 349/326/348 348/524/347 346/324/346
f 79/71/79 351/525/350 350/526/349
f 356/331/355 352/327/351 82/328/82
f 84/70/84 351/525/350 79/71/79
f 84/70/84 352/327/351 351/525/350
f 352/327/351 353/330/352 351/525/350
f 354/329/353 355/394/354 353/330/352
f 356/331/355 353/330/352 352/327/351
f 298/226/298 69/225/69 295/282/295
f 379/333/378 247/227/247 298/226/298
f 357/332/356 358/527/357 247/227/247
f 262/334/262 85/73/85 219/510/219
f 359/335/358 360/528/359 85/73/85
f 85/73/85 360/528/359 356/331/355
f 262/334/262 361/380/360 359/335/358
f 267/336/267 362/338/361 369/339/368
f 269/248/269 363/341/362 262/334/262
f 363/341/362 361/380/360 262/334/262
f 365/343/364 366/529/365 398/344/397
f 370/347/369 405/378/404 368/345/367
f 368/345/367 378/362/377 376/348/375
f 225/258/225 371/350/370 367/247/366
f 283/353/283 371/350/370 225/258/225
f 283/353/283 373/351/372 371/350/370
f 374/356/373 285/357/285 284/530/284
f 282/260/282 375/358/374 410/355/409
f 287/360/287 374/356/373 284/530/284
f 287/360/287 377/359/376 374/356/373
f 376/348/375 377/359/376 286/361/286
f 380/363/379 379/333/378 298/226/298
f 383/365/382 380/363/379 381/364/380
f 385/369/384 384/366/383 381/364/380
f 386/367/385 385/369/384 381/364/380
f 359/335/358 356/331/355 360/528/359
f 359/335/358 387/370/386 356/331/355
f 387/370/386 354/329/353 356/331/355
f 359/335/358 361/380/360 390/371/389
f 361/380/360 430/379/429 390/371/389
f 392/372/391 393/374/392 369/339/368
f 393/374/392 392/372/391 394/375/393
f 395/376/394 446/424/445 393/374/392
f 363/341/362 398/344/397 361/380/360
f 366/529/365 399/384/398 398/344/397
f 399/384/398 433/382/432 398/344/397
f 401/354/400 403/387/402 450/383/449
f 410/355/409 451/388/450 402/386/401
f 375/358/374 412/390/411 451/388/450
f 411/391/410 455/531/454 412/390/411
f 455/531/454 411/391/410 378/362/377
f 404/532/403 455/531/454 378/362/377
f 405/378/404 378/362/377 368/345/367
f 408/430/407 406/389/405 405/378/404
f 409/533/408 404/532/403 378/362/377
f 406/389/405 409/533/408 378/362/377
f 407/432/406 408/430/407 405/378/404
f 370/347/369 369/339/368 393/374/392
f 393/374/392 405/378/404 370/347/369
f 373/351/372 400/385/399 372/352/371
f 373/351/372 401/354/400 400/385/399
f 374/356/373 411/391/410 375/358/374
f 381/364/380 314/292/314 415/392/414
f 325/534/325 415/392/414 324/305/324
f 386/367/385 419/396/418 382/368/381
f 413/395/412 386/367/385 415/392/414
f 354/329/353 423/405/422 417/404/416
f 447/377/446 445/412/444 473/443/472
f 419/396/418 388/409/387 382/368/381
f 429/411/428 388/409/387 419/396/418
f 429/411/428 428/407/427 388/409/387
f 420/397/419 429/411/428 419/396/418
f 427/400/426 445/412/444 429/411/428
f 427/400/426 429/411/428 420/397/419
f 390/371/389 430/379/429 422/402/421
f 430/379/429 425/535/424 422/402/421
f 425/535/424 430/379/429 426/414/425
f 431/381/430 432/413/431 430/379/429
f 433/382/432 434/415/433 431/381/430
f 433/382/432 435/417/434 434/415/433
f 432/413/431 434/415/433 481/448/480
f 436/416/435 493/465/492 434/415/433
f 441/418/440 497/471/496 438/419/437
f 447/377/446 499/422/498 443/421/442
f 405/378/404 447/377/446 442/425/441
f 447/377/446 446/424/445 445/412/444
f 446/424/445 397/410/396 445/412/444
f 452/426/451 433/382/432 450/383/449
f 448/428/447 435/417/434 433/382/432
f 402/386/401 451/388/450 403/387/402
f 453/427/452 454/536/453 449/429/448
f 455/531/454 457/537/456 412/390/411
f 456/538/455 457/537/456 455/531/454
f 455/531/454 404/532/403 458/539/457
f 458/539/457 456/538/455 455/531/454
f 464/444/463 465/436/464 463/433/462
f 463/433/462 465/436/464 466/435/465
f 466/435/465 469/454/468 468/453/467
f 490/439/489 471/438/470 517/483/516
f 472/442/471 462/540/461 471/438/470
f 471/438/470 462/540/461 460/440/459
f 474/398/473 472/442/471 427/400/426
f 472/442/471 474/398/473 462/540/461
f 475/447/474 464/444/463 418/406/417
f 475/447/474 476/446/475 464/444/463
f 469/454/468 466/435/465 467/434/466
f 479/541/478 481/448/480 480/450/479
f 478/464/477 481/448/480 479/541/478
f 483/451/482 492/456/491 486/458/485
f 483/451/482 486/458/485 485/455/484
f 484/452/483 487/486/486 468/453/467
f 487/486/486 506/485/505 468/453/467
f 445/412/444 427/400/426 473/443/472
f 470/437/469 447/377/446 473/443/472
f 473/443/472 471/438/470 470/437/469
f 481/448/480 434/415/433 492/456/491
f 481/448/480 492/456/491 483/451/482
f 492/456/491 493/465/492 495/459/494
f 493/465/492 494/467/493 495/459/494
f 495/459/494 513/457/512 492/456/491
f 437/466/436 438/419/437 496/468/495
f 437/466/436 518/460/517 495/459/494
f 437/466/436 496/468/495 518/460/517
f 441/418/440 498/469/497 497/471/496
f 438/419/437 497/471/496 496/468/495
f 498/469/497 489/461/488 488/462/487
f 499/422/498 447/377/446 470/437/469
f 444/423/443 498/469/497 439/470/438
f 512/479/511 504/542/503 503/473/502
f 512/479/511 505/482/504 504/542/503
f 512/479/511 511/543/510 505/482/504
f 517/483/516 514/481/513 515/480/514
f 515/480/514 505/482/504 511/543/510
f 517/483/516 471/438/470 461/441/460
f 506/485/505 486/458/485 510/475/509
f 518/460/517 512/479/511 513/457/512
f 518/460/517 511/543/510 512/479/511
f 511/543/510 518/460/517 515/480/514
l 347 348
