# Blender 5.2.1 LTS
# www.blender.org
o ZombieHead1Jaw
v -0.309296 -0.539459 0.016709
v -0.311336 -0.511118 -0.006313
v -0.223811 -0.553756 0.180634
v -0.267649 -0.417334 0.227504
v -0.262182 -0.478097 0.200850
v -0.263205 -0.453204 0.206155
v -0.280235 -0.443710 0.174503
v -0.252301 -0.430673 0.228869
v -0.242538 -0.475205 0.206047
v -0.234461 -0.447825 0.211740
v -0.235807 -0.501858 0.191676
v -0.222949 -0.474486 0.192311
v -0.211148 -0.437635 0.174407
v -0.281144 -0.409867 0.188324
v -0.265170 -0.361968 0.233998
v -0.269601 -0.322432 0.174079
v -0.254505 -0.367739 0.251465
v -0.239409 -0.344677 0.254726
v -0.251522 -0.392950 0.238655
v -0.232602 -0.421347 0.225440
v -0.232541 -0.376114 0.229315
v -0.209816 -0.409580 0.191390
v -0.231662 -0.609092 0.094641
v -0.218219 -0.617476 0.126467
v -0.203203 -0.614313 0.170238
v -0.288456 -0.542848 0.152620
v -0.300970 -0.528238 0.101197
v -0.290300 -0.562588 0.107410
v -0.266704 -0.507574 0.185399
v -0.275401 -0.567297 0.149697
v -0.258956 -0.542067 0.183007
v -0.267043 -0.589761 0.079218
v -0.246829 -0.587635 0.137278
v -0.233083 -0.575167 0.162980
v -0.217071 -0.531192 0.183838
v -0.206193 -0.511860 0.172272
v -0.287436 -0.476894 0.128714
v -0.286812 -0.441496 0.107546
v -0.207904 -0.481484 0.158921
v -0.191136 -0.494385 0.144178
v -0.198893 -0.481109 0.135192
v -0.197955 -0.449390 0.114476
v -0.198458 -0.471170 0.092000
v -0.279758 -0.386924 0.133414
v -0.269153 -0.370579 0.198796
v -0.198810 -0.406765 0.135670
v -0.271352 -0.589961 0.045337
v -0.259643 -0.602194 -0.016877
v -0.238957 -0.605310 0.029268
v -0.241516 -0.611380 0.063455
v -0.197743 -0.595720 0.014359
v -0.195081 -0.611986 0.043246
v -0.283400 -0.565358 0.056046
v -0.296395 -0.529417 0.051622
v -0.290995 -0.585800 0.019678
v -0.278939 -0.461961 0.059703
v -0.277326 -0.471708 0.041336
v -0.293420 -0.490669 0.019278
v -0.285368 -0.425290 0.015734
v -0.284690 -0.457529 0.013532
v -0.270362 -0.405981 0.080874
v -0.268594 -0.462960 0.028386
v -0.263338 -0.448574 0.021206
v -0.258397 -0.451858 0.043874
v -0.241023 -0.446171 0.009062
v -0.237040 -0.460066 0.026980
v -0.225051 -0.452946 0.035432
v -0.232427 -0.421548 0.043192
v -0.225544 -0.439550 0.024364
v -0.220224 -0.456920 -0.004916
v -0.291775 -0.401240 0.003231
v -0.266528 -0.429249 0.058160
v -0.269887 -0.400982 0.015767
v -0.238422 -0.430540 0.015002
v -0.095162 -0.600173 0.294960
v -0.132548 -0.557236 0.274238
v -0.180118 -0.344435 0.317178
v -0.172842 -0.359524 0.297296
v -0.116110 -0.390753 0.297891
v -0.104612 -0.343357 0.337564
v -0.149768 -0.369401 0.301905
v -0.189159 -0.597631 0.209587
v -0.161741 -0.628259 0.212173
v -0.131807 -0.593100 0.270688
v -0.132205 -0.623062 0.255323
v -0.131026 -0.642128 0.203131
v -0.121292 -0.640238 0.183254
v -0.101085 -0.644301 0.250506
v -0.183041 -0.556571 0.225411
v -0.159486 -0.508273 0.201111
v -0.163103 -0.524322 0.248465
v -0.171521 -0.521790 0.212484
v -0.157725 -0.548003 0.261616
v -0.127925 -0.529480 0.252428
v -0.151850 -0.502774 0.239867
v -0.147379 -0.498070 0.158180
v -0.157441 -0.384105 0.236141
v -0.204546 -0.619979 0.085846
v -0.162259 -0.619538 0.089597
v -0.178289 -0.634426 0.163331
v -0.168964 -0.632016 0.135292
v -0.147077 -0.630867 0.133703
v -0.124668 -0.592832 0.091485
v -0.111371 -0.621662 0.144712
v -0.185533 -0.479866 0.097379
v -0.179244 -0.444680 0.113268
v -0.188371 -0.411274 0.127118
v -0.165418 -0.473056 0.103370
v -0.152830 -0.482988 0.108183
v -0.176416 -0.609526 0.066093
v -0.170561 -0.559110 -0.005331
v -0.166699 -0.507044 0.014918
v -0.146684 -0.581358 0.048920
v -0.157716 -0.556052 -0.008587
v -0.164787 -0.529658 -0.004694
v -0.148796 -0.571516 0.016615
v -0.161658 -0.503883 0.016478
v -0.113062 -0.586293 0.072357
v -0.188863 -0.469681 0.082766
v 0.000670 -0.356854 0.361435
v -0.092088 -0.630987 0.280144
v -0.053484 -0.616555 0.308883
v -0.056331 -0.660176 0.271145
v -0.035050 -0.666086 0.282711
v 0.001829 -0.633264 0.311545
v -0.005808 -0.658417 0.297568
v -0.090522 -0.557644 0.297507
v -0.063622 -0.538798 0.293470
v -0.049832 -0.557609 0.313783
v 0.001540 -0.600771 0.320622
v -0.072962 -0.384813 0.337460
v -0.044529 -0.352086 0.353326
v -0.036588 -0.380547 0.351697
v -0.002723 -0.388017 0.353317
v -0.070023 -0.650810 0.228981
v -0.064439 -0.640134 0.209770
v -0.062203 -0.621431 0.187619
v -0.016226 -0.676317 0.252886
v -0.041080 -0.642250 0.213804
v -0.043950 -0.588882 0.171785
v -0.003054 -0.667022 0.224251
v 0.022298 -0.670795 0.233318
v -0.008674 -0.599180 0.196418
v 0.007729 -0.587803 0.182812
v -0.079285 -0.592682 0.146381
v -0.082691 -0.586504 0.120213
v -0.084174 -0.587767 0.030858
v -0.048146 -0.592716 0.055548
v -0.205785 -0.328196 0.281840
v -0.251799 -0.328773 0.257362
v -0.177912 -0.290435 0.363722
v -0.151281 -0.258138 0.403957
v -0.149151 -0.306050 0.388940
v -0.099281 -0.289161 0.427418
v -0.115141 -0.310730 0.407287
v -0.118746 -0.321386 0.360848
v -0.177122 -0.232365 0.377048
v -0.135079 -0.206027 0.400172
v -0.095288 -0.233566 0.429934
v -0.190491 -0.319115 0.317403
v -0.173327 -0.313199 0.347402
v -0.150826 -0.329886 0.326714
v -0.067795 -0.320987 0.387947
v -0.039287 -0.306895 0.434372
v -0.027048 -0.316976 0.411371
v -0.021019 -0.281742 0.445176
v 0.029487 -0.309387 0.437192
v 0.000218 -0.318201 0.424270
v -0.002009 -0.328825 0.385002
v -0.039927 -0.217773 0.435950
v -0.001929 -0.252216 0.447520
v -0.332035 -0.557689 -0.056505
v -0.340724 -0.497739 -0.064914
v -0.316895 -0.570908 -0.053289
v -0.311392 -0.573408 -0.086098
v -0.323618 -0.552470 -0.094335
v -0.336257 -0.499746 -0.041388
v -0.313289 -0.459048 -0.055211
v -0.310518 -0.433868 -0.042288
v -0.313341 -0.377061 -0.032722
v -0.308766 -0.372936 -0.070307
v -0.327666 -0.491913 -0.094179
v -0.306561 -0.529965 -0.115503
v -0.276895 -0.602133 -0.056062
v -0.256124 -0.603456 -0.068067
v -0.232879 -0.599065 -0.034151
v -0.310120 -0.557724 -0.017440
v -0.282882 -0.593295 -0.020186
v -0.275081 -0.590740 -0.090831
v -0.253119 -0.585373 -0.099784
v -0.237100 -0.587051 -0.083442
v -0.218349 -0.537323 -0.095600
v -0.219597 -0.579171 -0.050954
v -0.202782 -0.528946 -0.054770
v -0.202511 -0.586798 -0.029073
v -0.303151 -0.471001 -0.011024
v -0.297749 -0.455333 -0.089785
v -0.224615 -0.450025 -0.010933
v -0.237834 -0.449966 -0.080259
v -0.257836 -0.416664 -0.095846
v -0.220881 -0.458515 -0.021562
v -0.222626 -0.452506 -0.033541
v -0.227994 -0.421178 -0.060956
v -0.207050 -0.490082 -0.038437
v -0.213414 -0.487859 -0.087463
v -0.206442 -0.472348 -0.019273
v -0.210583 -0.441324 -0.039055
v -0.302825 -0.400971 -0.032292
v -0.294102 -0.401324 -0.080639
v -0.292730 -0.366005 -0.092905
v -0.277036 -0.390883 -0.091886
v -0.280446 -0.570745 -0.108926
v -0.280143 -0.525022 -0.122847
v -0.249355 -0.541946 -0.117081
v -0.229996 -0.495918 -0.110627
v -0.294597 -0.480981 -0.111003
v -0.277160 -0.454785 -0.099371
v -0.255850 -0.452587 -0.096596
v -0.256566 -0.487096 -0.117269
v -0.165298 -0.540930 -0.008843
v -0.127297 -0.542266 -0.050770
v -0.108210 -0.568291 -0.035483
v -0.132180 -0.515116 -0.019915
v -0.085515 -0.559443 -0.069787
v -0.194027 -0.475096 -0.026033
v -0.182159 -0.496597 -0.012693
v -0.169819 -0.464223 -0.069430
v -0.164370 -0.490975 -0.019267
v -0.129989 -0.458018 -0.101281
v -0.115405 -0.514206 -0.036816
v -0.095497 -0.512326 -0.051028
v -0.077064 -0.553364 -0.076479
v -0.076850 -0.536948 -0.077567
v -0.069215 -0.513754 -0.063294
v -0.021452 -0.571544 -0.059513
v -0.033646 -0.513634 -0.072714
v -0.022908 -0.541247 -0.095167
v -0.000133 -0.557751 -0.086337
v 0.002770 -0.515625 -0.079148
v 0.011296 -0.505109 -0.083332
v -0.066519 -0.462483 -0.122427
v -0.012854 -0.462069 -0.133481
v 0.034405 -0.669457 0.277089
v 0.049738 -0.626563 0.305625
v 0.051452 -0.593567 0.314835
v 0.067859 -0.644843 0.278832
v 0.091035 -0.603525 0.296368
v 0.097188 -0.627299 0.280718
v 0.000714 -0.556835 0.319581
v 0.052938 -0.555819 0.312636
v 0.104251 -0.557133 0.293766
v 0.089844 -0.532856 0.276238
v 0.038040 -0.389011 0.349948
v 0.056246 -0.403243 0.316612
v 0.039365 -0.356438 0.359399
v 0.102348 -0.388300 0.323861
v 0.089338 -0.344996 0.350409
v 0.111320 -0.398930 0.276202
v 0.089956 -0.377333 0.336582
v 0.038614 -0.672275 0.252196
v 0.033705 -0.642236 0.215293
v 0.054935 -0.635266 0.206020
v 0.077881 -0.648009 0.247399
v 0.067552 -0.646490 0.227481
v 0.108514 -0.624590 0.159178
v 0.113538 -0.639656 0.245071
v 0.022801 -0.595897 0.189144
v 0.114510 -0.587525 0.108702
v 0.044051 -0.589632 0.158057
v 0.076273 -0.587096 0.130803
v 0.051275 -0.578409 -0.023493
v 0.114952 -0.576079 0.057561
v 0.139506 -0.594859 0.267881
v 0.149063 -0.336105 0.324031
v 0.157175 -0.373236 0.298654
v 0.181992 -0.350025 0.310819
v 0.198406 -0.345630 0.269009
v 0.126255 -0.637711 0.177791
v 0.128548 -0.626485 0.256127
v 0.139665 -0.639710 0.199069
v 0.157174 -0.628413 0.216644
v 0.174105 -0.591940 0.234876
v 0.176783 -0.622901 0.190142
v 0.127422 -0.528831 0.251052
v 0.148462 -0.552956 0.264501
v 0.163517 -0.530157 0.252633
v 0.149745 -0.509448 0.236424
v 0.163445 -0.519179 0.206011
v 0.177845 -0.540303 0.216878
v 0.194710 -0.578762 0.204396
v 0.199034 -0.523664 0.178868
v 0.219607 -0.545324 0.177643
v 0.141084 -0.510249 0.199996
v 0.170821 -0.498657 0.130690
v 0.134797 -0.393424 0.239370
v 0.191733 -0.357468 0.243793
v 0.139389 -0.612927 0.115850
v 0.150968 -0.629508 0.139956
v 0.178541 -0.628660 0.159117
v 0.162894 -0.616389 0.099170
v 0.194197 -0.615545 0.176741
v 0.197737 -0.620070 0.108421
v 0.197767 -0.610051 0.081698
v 0.162065 -0.493528 0.105771
v 0.176969 -0.433348 0.110285
v 0.186399 -0.504660 0.152058
v 0.186239 -0.460289 0.074248
v 0.193897 -0.488063 0.081303
v 0.204478 -0.443437 0.109079
v 0.190270 -0.418407 0.110686
v 0.208936 -0.404169 0.126629
v 0.146781 -0.579349 0.057739
v 0.171281 -0.601307 0.069490
v 0.190856 -0.600728 0.039006
v 0.221375 -0.595321 0.019464
v 0.126458 -0.558431 -0.025870
v 0.142460 -0.567539 0.029517
v 0.146225 -0.508266 0.015743
v 0.161492 -0.522947 0.013278
v 0.173362 -0.547270 -0.004448
v 0.175867 -0.561762 0.010929
v 0.176059 -0.529286 -0.001771
v 0.199355 -0.584189 0.012507
v 0.164319 -0.503914 0.027582
v 0.163674 -0.491784 0.012517
v 0.173949 -0.474319 0.074488
v 0.178514 -0.481325 -0.014318
v 0.180188 -0.506071 0.016209
v 0.221989 -0.567707 0.165631
v 0.243282 -0.506637 0.182611
v 0.219344 -0.434549 0.178302
v 0.227626 -0.494129 0.176807
v 0.239288 -0.445706 0.208390
v 0.245632 -0.475634 0.201369
v 0.260081 -0.428004 0.225269
v 0.264041 -0.454171 0.197901
v 0.215945 -0.349767 0.244199
v 0.220136 -0.368061 0.207938
v 0.232614 -0.415345 0.224396
v 0.217684 -0.376791 0.185303
v 0.242012 -0.375493 0.234439
v 0.252474 -0.364613 0.249799
v 0.250896 -0.393756 0.235616
v 0.262348 -0.381005 0.229555
v 0.281482 -0.408345 0.176440
v 0.268426 -0.373145 0.161195
v 0.235975 -0.585595 0.130518
v 0.226629 -0.601186 0.095177
v 0.211897 -0.612831 0.134484
v 0.212142 -0.514135 0.167935
v 0.257287 -0.579795 0.087304
v 0.262297 -0.552739 0.163138
v 0.262195 -0.502825 0.178839
v 0.273607 -0.538881 0.161531
v 0.267144 -0.569419 0.122725
v 0.283521 -0.527769 0.140523
v 0.283606 -0.551092 0.102373
v 0.287463 -0.519514 0.096001
v 0.205043 -0.491496 0.143580
v 0.217611 -0.473519 0.146333
v 0.212139 -0.471046 0.088739
v 0.272557 -0.439869 0.088581
v 0.275689 -0.434061 0.125718
v 0.276748 -0.491048 0.120975
v 0.274004 -0.477225 0.082387
v 0.216930 -0.390986 0.139911
v 0.219448 -0.376814 0.095811
v 0.276326 -0.400323 0.127947
v 0.256313 -0.344781 0.127147
v 0.256665 -0.378523 0.099747
v 0.238971 -0.595812 0.029153
v 0.239178 -0.601509 0.067236
v 0.267434 -0.597629 -0.022215
v 0.259328 -0.582822 0.043227
v 0.284655 -0.579231 0.014336
v 0.279290 -0.554396 0.053419
v 0.281490 -0.500316 0.040331
v 0.286540 -0.593258 -0.037626
v 0.297801 -0.549959 0.013566
v 0.305192 -0.530032 -0.015758
v 0.209195 -0.451197 0.035807
v 0.209390 -0.455833 -0.008178
v 0.221605 -0.461751 0.043550
v 0.231133 -0.425432 0.054524
v 0.225317 -0.464997 -0.002525
v 0.255581 -0.469494 0.030023
v 0.229468 -0.432352 0.003081
v 0.257200 -0.461949 0.051043
v 0.254303 -0.463145 0.018768
v 0.264880 -0.452116 0.011763
v 0.262498 -0.401003 0.007326
v 0.262531 -0.421235 0.080022
v 0.281113 -0.478345 0.003577
v 0.284182 -0.428013 0.003456
v 0.217544 -0.428336 0.024615
v 0.231168 -0.402992 0.013417
v 0.240653 -0.369657 0.010869
v 0.285163 -0.401492 -0.001936
v 0.027719 -0.317300 0.416910
v 0.070005 -0.319135 0.395108
v 0.061090 -0.263074 0.444427
v 0.110023 -0.315111 0.401890
v 0.105134 -0.305985 0.418249
v 0.111264 -0.324301 0.362486
v 0.078887 -0.208670 0.421770
v 0.120673 -0.279437 0.417711
v 0.150793 -0.309387 0.387439
v 0.158641 -0.260270 0.393925
v 0.167222 -0.313795 0.361145
v 0.117489 -0.242090 0.417441
v 0.187224 -0.259036 0.362996
v 0.184776 -0.325729 0.338176
v 0.177817 -0.298518 0.359802
v 0.203446 -0.310880 0.295868
v 0.209316 -0.252425 0.305876
v 0.218960 -0.333134 0.261448
v 0.251878 -0.325741 0.257545
v 0.265539 -0.319366 0.181844
v 0.057332 -0.565753 -0.059366
v 0.022958 -0.541461 -0.095191
v 0.037131 -0.514220 -0.070082
v 0.068043 -0.554281 -0.074958
v 0.069361 -0.514578 -0.060428
v 0.063300 -0.534768 -0.082730
v 0.106791 -0.516207 -0.037673
v 0.091456 -0.538037 -0.069873
v 0.072651 -0.505503 -0.062388
v 0.112254 -0.482822 -0.080735
v 0.045421 -0.483417 -0.107794
v 0.103242 -0.448020 -0.121405
v 0.123837 -0.542860 -0.046900
v 0.119155 -0.507682 -0.029176
v 0.131192 -0.513567 -0.010393
v 0.153912 -0.550523 -0.003975
v 0.153490 -0.537006 -0.006104
v 0.225429 -0.584329 -0.035104
v 0.217601 -0.559089 -0.054415
v 0.205859 -0.501783 -0.044117
v 0.192679 -0.490031 -0.016908
v 0.165667 -0.470862 -0.055107
v 0.170943 -0.447075 -0.080177
v 0.196023 -0.476275 -0.013209
v 0.212748 -0.434783 -0.038468
v 0.247024 -0.596368 -0.025564
v 0.280203 -0.598893 -0.064760
v 0.222111 -0.538824 -0.095769
v 0.239669 -0.585560 -0.082345
v 0.253103 -0.599659 -0.063371
v 0.251749 -0.583994 -0.097831
v 0.273972 -0.585776 -0.095332
v 0.298750 -0.558889 -0.019083
v 0.320968 -0.561544 -0.061557
v 0.212697 -0.468924 -0.013015
v 0.214966 -0.496936 -0.091049
v 0.216650 -0.445171 -0.025000
v 0.245256 -0.445949 -0.000504
v 0.232032 -0.457934 -0.019236
v 0.231931 -0.430371 -0.058031
v 0.239732 -0.452899 -0.078599
v 0.297877 -0.466359 -0.025481
v 0.299960 -0.447221 -0.046416
v 0.297560 -0.449449 -0.074432
v 0.253957 -0.421531 -0.090692
v 0.261685 -0.387354 -0.085684
v 0.286570 -0.393443 -0.085122
v 0.302467 -0.390039 -0.040302
v 0.237790 -0.527454 -0.115752
v 0.263030 -0.557180 -0.114964
v 0.271901 -0.513624 -0.126513
v 0.297249 -0.550503 -0.114519
v 0.237887 -0.487517 -0.111247
v 0.265721 -0.453658 -0.097760
v 0.286946 -0.453269 -0.092882
v 0.273908 -0.489024 -0.122545
v 0.283423 -0.420518 -0.093319
v 0.331867 -0.527774 -0.048197
v 0.318152 -0.559633 -0.091883
v 0.334992 -0.526810 -0.071236
v 0.323784 -0.489462 -0.053369
v 0.323761 -0.479949 -0.075800
v 0.310241 -0.503600 -0.115268
v 0.320596 -0.498710 -0.106247
vn -0.9596 -0.0723 0.2719
vn -0.8869 0.1052 0.4498
vn -0.4775 -0.2285 0.8484
vn -0.7231 -0.1909 0.6638
vn -0.5225 -0.2580 0.8127
vn -0.6038 -0.3619 0.7102
vn -0.9629 -0.0821 0.2569
vn -0.0665 -0.4672 0.8817
vn 0.1264 -0.3233 0.9378
vn 0.5006 -0.3789 0.7784
vn 0.3072 -0.2207 0.9257
vn 0.7720 -0.2300 0.5926
vn 0.9324 -0.1233 0.3398
vn -0.9762 0.0711 0.2051
vn -0.9406 0.0120 0.3392
vn -0.9772 0.1367 0.1625
vn -0.2796 -0.3736 0.8844
vn 0.1947 -0.2611 0.9455
vn -0.0007 -0.2063 0.9785
vn 0.6169 -0.2518 0.7456
vn 0.6404 -0.2164 0.7369
vn 0.8935 -0.2009 0.4017
vn -0.4876 -0.8636 0.1282
vn -0.5170 -0.8517 0.0856
vn -0.6554 -0.6539 0.3779
vn -0.8740 -0.2391 0.4231
vn -0.9995 -0.0083 0.0318
vn -0.8586 -0.5068 0.0771
vn -0.4544 -0.2724 0.8481
vn -0.6069 -0.6590 0.4444
vn -0.3597 -0.3650 0.8587
vn -0.6771 -0.7272 0.1126
vn -0.5573 -0.7543 0.3471
vn -0.5482 -0.5286 0.6481
vn -0.2089 0.1937 0.9585
vn 0.1746 0.6867 0.7057
vn -0.9935 0.0996 0.0557
vn -0.9889 0.0984 -0.1113
vn 0.8622 0.0444 0.5046
vn 0.4289 0.7628 0.4839
vn 0.8855 0.3896 0.2532
vn 0.7952 -0.3366 0.5043
vn 0.8358 0.2158 0.5048
vn -0.9820 0.1850 -0.0372
vn -0.9830 0.1138 0.1443
vn 0.8722 -0.2190 0.4374
vn -0.6343 -0.7576 0.1541
vn -0.1582 -0.9864 0.0455
vn -0.1682 -0.9774 -0.1282
vn -0.3833 -0.9235 -0.0150
vn 0.4075 -0.8409 -0.3561
vn 0.2294 -0.9114 -0.3416
vn -0.8894 -0.4325 0.1479
vn -0.9915 0.0161 0.1288
vn -0.7083 -0.6732 0.2123
vn -0.9210 0.2293 -0.3149
vn -0.8101 0.5782 -0.0967
vn -0.8589 0.3288 0.3928
vn -0.5544 0.0765 0.8287
vn -0.6666 0.1515 0.7298
vn -0.8559 0.3391 -0.3904
vn -0.3600 0.6726 0.6465
vn -0.0600 0.2971 0.9530
vn -0.4710 0.4335 -0.7682
vn 0.6576 0.1969 0.7272
vn -0.0825 0.9964 -0.0205
vn -0.7090 0.4370 -0.5536
vn -0.5304 0.2751 -0.8019
vn -0.9415 -0.3341 -0.0432
vn -0.8999 0.3640 -0.2401
vn -0.8383 0.0848 0.5386
vn -0.6383 0.4010 -0.6571
vn -0.2168 0.2032 0.9548
vn 0.0851 -0.4543 0.8868
vn -0.4693 -0.2143 0.8566
vn -0.4289 0.2659 0.8633
vn -0.5049 -0.6191 0.6015
vn -0.5286 -0.7801 0.3347
vn -0.4295 -0.7829 0.4501
vn -0.4504 -0.3460 0.8231
vn -0.3786 -0.7029 0.6022
vn -0.7267 -0.3700 0.5788
vn -0.5348 -0.7548 0.3797
vn -0.6068 -0.2467 0.7556
vn -0.5724 -0.5706 0.5889
vn -0.1812 -0.9829 0.0312
vn 0.1195 -0.9664 -0.2274
vn -0.3792 -0.8876 0.2614
vn -0.7924 0.0906 0.6032
vn -0.3251 0.8767 0.3546
vn -0.5965 0.4405 0.6709
vn -0.6625 0.5902 0.4612
vn -0.5433 0.1753 0.8210
vn -0.1802 0.5533 0.8133
vn -0.5154 0.5360 0.6687
vn -0.1489 0.9421 0.3005
vn -0.4718 -0.8528 0.2240
vn -0.1273 -0.9824 -0.1370
vn 0.2895 -0.8701 -0.3989
vn -0.3402 -0.9377 0.0702
vn -0.0879 -0.9801 -0.1782
vn 0.2174 -0.9184 -0.3306
vn 0.3835 -0.8501 -0.3609
vn 0.4346 -0.7734 -0.4614
vn 0.1086 0.8998 0.4226
vn -0.0026 -0.5901 0.8073
vn 0.4168 -0.3789 0.8263
vn -0.6643 -0.1684 0.7283
vn -0.0064 0.9553 0.2956
vn 0.3348 -0.8632 -0.3778
vn 0.4576 -0.6032 -0.6533
vn 0.5118 0.1525 -0.8455
vn 0.2876 -0.8699 -0.4007
vn -0.3775 -0.6332 -0.6757
vn 0.1582 0.4709 -0.8679
vn -0.2247 -0.9334 -0.2797
vn -0.2188 -0.3023 -0.9278
vn -0.0040 -0.9896 -0.1437
vn 0.0504 0.0242 0.9984
vn 0.0085 -0.2597 0.9657
vn -0.4727 -0.5820 0.6616
vn -0.2952 -0.3055 0.9053
vn -0.4207 -0.8624 0.2818
vn -0.2688 -0.8213 0.5032
vn 0.0208 -0.3936 0.9191
vn -0.0264 -0.6751 0.7372
vn -0.4108 0.3317 0.8493
vn -0.2777 0.6307 0.7247
vn -0.2197 0.3323 0.9172
vn -0.0041 -0.1311 0.9914
vn -0.3960 -0.4101 0.8216
vn -0.3452 -0.1493 0.9266
vn -0.2303 -0.4870 0.8425
vn -0.0256 -0.2880 0.9573
vn -0.1680 -0.9245 -0.3420
vn 0.0900 -0.8407 -0.5340
vn 0.3560 -0.6785 -0.6425
vn -0.1391 -0.9890 -0.0496
vn 0.0159 -0.6274 -0.7786
vn 0.3886 -0.6562 -0.6468
vn -0.0370 -0.7295 -0.6829
vn 0.1767 -0.8505 -0.4954
vn 0.0975 -0.6303 -0.7702
vn -0.0930 -0.8066 -0.5838
vn 0.4479 -0.7738 -0.4479
vn 0.1484 -0.9821 -0.1159
vn -0.1167 -0.9819 -0.1493
vn -0.0137 -0.9984 -0.0546
vn -0.7946 -0.4969 0.3488
vn -0.7523 0.0591 0.6562
vn -0.7365 -0.3375 0.5863
vn -0.6067 -0.0342 0.7942
vn -0.5137 -0.6382 0.5734
vn -0.3340 -0.2706 0.9029
vn -0.3584 -0.6715 0.6486
vn -0.2318 -0.9372 0.2607
vn -0.6940 0.0538 0.7180
vn -0.5239 0.2226 0.8221
vn -0.3228 0.0547 0.9449
vn -0.8096 -0.3359 0.4814
vn -0.4363 -0.7038 0.5607
vn 0.0646 -0.6347 0.7700
vn -0.0814 -0.9492 0.3041
vn -0.1469 -0.6560 0.7403
vn -0.1353 -0.9352 0.3274
vn -0.1127 -0.1443 0.9831
vn 0.1004 -0.6292 0.7707
vn -0.0067 -0.8868 0.4621
vn 0.0996 -0.9619 0.2546
vn -0.1517 0.1603 0.9753
vn -0.0454 0.0375 0.9983
vn -0.8887 -0.4453 0.1097
vn -0.9701 0.2271 -0.0857
vn -0.6668 -0.7315 0.1423
vn -0.5974 -0.7015 -0.3886
vn -0.7634 -0.3536 -0.5406
vn -0.9096 0.1774 0.3756
vn -0.9114 0.4083 -0.0524
vn -0.9895 0.1427 0.0212
vn -0.9143 -0.4048 -0.0096
vn -0.8778 -0.3255 -0.3515
vn -0.7714 0.3088 -0.5564
vn -0.4798 -0.1018 -0.8714
vn -0.3609 -0.9306 -0.0618
vn 0.1655 -0.9545 -0.2480
vn 0.3304 -0.9195 -0.2130
vn -0.8763 -0.3863 0.2879
vn -0.5609 -0.8191 0.1200
vn -0.2484 -0.8199 -0.5159
vn 0.2703 -0.6374 -0.7216
vn 0.6371 -0.6458 -0.4209
vn 0.7950 -0.2190 -0.5657
vn 0.7044 -0.5427 -0.4575
vn 0.8916 -0.0494 -0.4501
vn 0.6111 -0.6430 -0.4616
vn -0.8695 0.2174 0.4435
vn -0.6494 0.4244 -0.6310
vn 0.1020 -0.7365 0.6687
vn 0.7757 0.3126 -0.5482
vn 0.1875 0.0928 -0.9779
vn 0.8607 0.5084 -0.0261
vn 0.9479 -0.1618 -0.2743
vn 0.8379 -0.0925 -0.5380
vn 0.8527 0.3890 -0.3487
vn 0.8607 0.2997 -0.4115
vn 0.2294 0.5334 -0.8141
vn -0.1485 -0.7403 -0.6556
vn -0.9895 -0.1142 0.0883
vn -0.8186 -0.0377 -0.5732
vn -0.6461 -0.2279 -0.7285
vn -0.4011 -0.0886 -0.9117
vn -0.2008 -0.5030 -0.8406
vn -0.0800 -0.0405 -0.9960
vn 0.3272 -0.2202 -0.9190
vn 0.5594 0.1972 -0.8051
vn -0.3279 0.3752 -0.8670
vn -0.1835 0.3861 -0.9040
vn 0.3700 0.3095 -0.8760
vn 0.1449 0.3019 -0.9423
vn 0.0870 0.0202 -0.9960
vn -0.6409 -0.0166 -0.7675
vn -0.2908 -0.8840 -0.3659
vn -0.6339 0.4487 -0.6300
vn -0.3323 -0.6712 -0.6627
vn -0.5331 -0.6143 -0.5818
vn 0.5561 -0.2329 -0.7978
vn -0.4541 -0.7375 -0.4999
vn -0.2956 -0.8661 -0.4030
vn -0.3104 -0.7383 -0.5988
vn -0.6212 0.0183 -0.7835
vn -0.5360 -0.2236 -0.8141
vn -0.2954 -0.3676 -0.8818
vn -0.3691 0.2702 -0.8892
vn -0.3335 -0.1046 -0.9369
vn -0.0325 -0.9362 -0.3501
vn -0.1973 -0.0973 -0.9755
vn -0.1441 0.0041 -0.9896
vn 0.0160 -0.7310 -0.6821
vn -0.0157 0.1685 -0.9856
vn 0.0835 -0.6704 -0.7373
vn -0.1875 -0.7379 -0.6483
vn -0.0658 -0.7514 -0.6566
vn 0.2806 -0.8509 0.4441
vn 0.2876 -0.4430 0.8491
vn 0.2513 -0.1107 0.9616
vn 0.4329 -0.7467 0.5049
vn 0.4521 -0.2449 0.8577
vn 0.4600 -0.5909 0.6628
vn -0.0080 0.1045 0.9945
vn 0.2561 0.1528 0.9545
vn 0.4344 0.3149 0.8439
vn 0.3228 0.6718 0.6668
vn 0.1980 -0.4236 0.8839
vn 0.2026 -0.8558 0.4760
vn 0.1590 -0.2811 0.9464
vn 0.4200 -0.6048 0.6766
vn 0.4832 -0.3475 0.8036
vn 0.4022 -0.8933 0.2007
vn 0.4152 -0.4168 0.8086
vn 0.3379 -0.9386 -0.0696
vn 0.0351 -0.5709 -0.8202
vn -0.1662 -0.7930 -0.5861
vn 0.3183 -0.9479 -0.0125
vn 0.6981 -0.4428 -0.5627
vn -0.3451 -0.7973 -0.4953
vn 0.3610 -0.8895 0.2802
vn -0.2608 -0.7136 -0.6502
vn -0.3552 -0.8451 -0.3997
vn -0.1167 -0.9699 -0.2137
vn -0.0803 -0.9769 -0.1979
vn 0.1230 -0.9711 -0.2044
vn 0.0379 -0.9840 -0.1739
vn 0.6100 -0.2563 0.7498
vn 0.0333 -0.7256 0.6873
vn 0.4721 -0.7954 0.3802
vn 0.5572 -0.6595 0.5045
vn 0.7397 -0.6346 0.2237
vn -0.0204 -0.9690 -0.2463
vn 0.5338 -0.6635 0.5243
vn 0.2815 -0.9590 -0.0321
vn 0.5460 -0.7641 0.3437
vn 0.7883 -0.2466 0.5637
vn 0.5644 -0.7694 0.2990
vn 0.1791 0.6257 0.7593
vn 0.5742 0.2100 0.7913
vn 0.6508 0.3387 0.6795
vn 0.5116 0.7107 0.4828
vn 0.5294 0.7656 0.3655
vn 0.7746 0.3557 0.5229
vn 0.8124 -0.1817 0.5540
vn 0.4128 0.6651 0.6223
vn 0.4483 -0.0331 0.8933
vn 0.2633 0.8976 0.3536
vn -0.2109 0.9518 0.2226
vn 0.4802 -0.8696 0.1149
vn 0.5837 -0.8010 0.1330
vn -0.4514 -0.7605 -0.4668
vn -0.0551 -0.9509 -0.3045
vn 0.3092 -0.9505 0.0300
vn -0.2241 -0.8884 -0.4006
vn 0.7184 -0.5946 0.3609
vn 0.2525 -0.9486 -0.1909
vn 0.0859 -0.9626 -0.2569
vn 0.0748 0.9481 0.3091
vn -0.1345 -0.4708 0.8719
vn -0.0886 0.8260 0.5566
vn -0.4288 -0.2649 0.8637
vn -0.3042 0.7043 0.6415
vn -0.7454 -0.4051 0.5294
vn -0.2700 -0.2135 0.9389
vn -0.6845 -0.2313 0.6914
vn -0.3165 -0.8513 -0.4185
vn -0.3477 -0.8518 -0.3917
vn -0.2859 -0.8704 -0.4009
vn -0.1375 -0.9687 -0.2067
vn 0.4259 -0.8085 -0.4062
vn 0.0819 -0.9430 -0.3227
vn 0.7493 -0.0903 -0.6560
vn 0.0229 0.6911 -0.7224
vn -0.4156 -0.3671 -0.8322
vn -0.4314 -0.7002 -0.5689
vn -0.5906 0.3916 -0.7056
vn -0.4930 -0.7448 -0.4497
vn -0.0300 -0.1479 -0.9886
vn 0.1099 -0.8685 -0.4833
vn 0.0518 0.5030 0.8627
vn 0.2136 -0.7576 -0.6168
vn -0.7549 -0.0133 -0.6557
vn 0.6047 -0.5102 0.6116
vn -0.0856 -0.2966 0.9512
vn -0.9516 -0.1033 0.2896
vn -0.7250 -0.0705 0.6852
vn -0.4565 -0.4511 0.7669
vn -0.0656 -0.3718 0.9260
vn 0.4487 -0.4107 0.7938
vn 0.7674 -0.3128 0.5597
vn -0.4472 -0.6801 0.5810
vn -0.6322 -0.7036 0.3245
vn -0.6653 -0.2465 0.7047
vn -0.9599 -0.1119 0.2571
vn -0.4578 -0.4920 0.7405
vn 0.3339 -0.4762 0.8135
vn 0.0910 -0.0980 0.9910
vn 0.8179 -0.0576 0.5724
vn 0.9923 0.0304 0.1199
vn 0.9626 0.2697 0.0250
vn 0.5962 -0.7304 0.3331
vn 0.5189 -0.8510 0.0804
vn 0.6525 -0.7360 0.1804
vn -0.3014 0.4653 0.8323
vn 0.6811 -0.7255 0.0992
vn 0.4976 -0.5570 0.6650
vn 0.6995 -0.2146 0.6817
vn 0.7725 -0.2859 0.5669
vn 0.6727 -0.7104 0.2070
vn 0.9662 -0.0163 0.2573
vn 0.9139 -0.4036 0.0433
vn 0.9965 0.0829 0.0077
vn -0.5844 0.6996 0.4112
vn -0.9552 0.1253 0.2681
vn -0.8625 0.0545 0.5030
vn 0.9435 0.1456 -0.2976
vn 0.9990 -0.0404 -0.0170
vn 0.9814 0.1546 0.1134
vn 0.9595 0.2484 -0.1330
vn -0.9833 0.0175 0.1810
vn 0.2590 0.5366 -0.8031
vn 0.9600 0.2051 -0.1906
vn 0.9211 0.3289 -0.2083
vn 0.6641 0.3923 -0.6365
vn 0.2355 -0.9718 -0.0115
vn 0.4593 -0.8877 0.0303
vn 0.1917 -0.9713 0.1410
vn 0.6325 -0.7546 0.1746
vn 0.7065 -0.6476 0.2854
vn 0.9167 -0.3559 0.1815
vn 0.9311 0.3452 0.1178
vn 0.6000 -0.7801 0.1774
vn 0.9450 -0.1602 0.2851
vn 0.8881 0.0170 0.4594
vn 0.8915 0.3140 -0.3266
vn 0.8389 -0.2056 -0.5040
vn 0.4580 0.6737 -0.5800
vn 0.4432 0.4318 -0.7855
vn -0.0863 0.9946 0.0579
vn 0.4528 0.8893 0.0648
vn 0.1220 -0.6749 0.7278
vn 0.6632 0.5248 -0.5336
vn 0.0033 0.7172 0.6969
vn 0.1304 0.1935 0.9724
vn 0.0384 -0.0221 0.9990
vn 0.6908 0.4160 -0.5913
vn 0.8062 0.2721 0.5253
vn 0.6824 0.0520 0.7292
vn 0.8398 -0.5004 0.2108
vn 0.4787 -0.1246 0.8691
vn 0.2090 -0.1318 0.9690
vn 0.7305 0.1100 0.6740
vn 0.1015 -0.9421 0.3197
vn 0.0634 -0.9767 0.2052
vn 0.2143 0.0274 0.9764
vn 0.2275 -0.8765 0.4242
vn 0.3270 -0.5527 0.7666
vn 0.2031 -0.9480 0.2448
vn 0.2510 0.3010 0.9200
vn 0.4823 -0.1207 0.8677
vn 0.5129 -0.6322 0.5808
vn 0.6458 -0.1527 0.7481
vn 0.5082 -0.6558 0.5583
vn 0.4258 0.1144 0.8976
vn 0.8399 -0.2395 0.4870
vn 0.6266 -0.5499 0.5523
vn 0.8004 -0.2608 0.5398
vn 0.9043 -0.2584 0.3398
vn 0.9096 -0.1881 0.3705
vn -0.1150 -0.4501 0.8855
vn 0.6863 -0.0777 0.7232
vn 0.9898 0.0516 0.1328
vn 0.1739 -0.8988 -0.4024
vn 0.1493 -0.0188 -0.9886
vn 0.2126 0.5292 -0.8215
vn 0.3177 -0.6179 -0.7193
vn 0.4037 0.2020 -0.8923
vn 0.3377 0.2493 -0.9076
vn 0.6053 0.2726 -0.7479
vn 0.5201 0.1257 -0.8448
vn 0.3217 -0.6209 -0.7148
vn 0.3307 -0.7617 -0.5572
vn 0.1578 -0.8038 -0.5735
vn 0.3325 -0.6789 -0.6546
vn 0.6719 -0.0785 -0.7365
vn 0.5687 -0.6273 -0.5321
vn 0.7815 0.0532 -0.6216
vn 0.4116 -0.6585 -0.6300
vn 0.4908 0.3465 -0.7994
vn -0.6200 -0.7418 -0.2557
vn -0.8622 -0.3427 -0.3730
vn -0.8921 0.2486 -0.3774
vn -0.6514 0.1893 -0.7347
vn 0.5174 -0.7270 -0.4514
vn 0.5157 -0.6608 -0.5454
vn -0.0584 0.2686 -0.9615
vn 0.1072 -0.8277 -0.5508
vn -0.2405 -0.9700 -0.0354
vn 0.3367 -0.9253 -0.1746
vn -0.8415 -0.2544 -0.4765
vn -0.6573 -0.6506 -0.3804
vn -0.2496 -0.9524 -0.1751
vn -0.3092 -0.6780 -0.6668
vn 0.1968 -0.7707 -0.6061
vn 0.8777 -0.3778 0.2948
vn 0.8267 -0.5493 0.1217
vn -0.2446 0.6243 -0.7419
vn -0.8860 0.2140 -0.4114
vn -0.2189 -0.9232 -0.3159
vn -0.5163 0.0865 0.8520
vn -0.9651 0.2526 0.0694
vn -0.8953 -0.1699 -0.4118
vn -0.8194 0.3233 -0.4733
vn 0.8713 0.1850 0.4546
vn 0.9647 0.2112 0.1573
vn 0.8618 0.3714 -0.3456
vn -0.5363 0.1838 -0.8238
vn -0.2985 0.2623 -0.9177
vn 0.6155 0.2133 -0.7587
vn 0.9987 0.0186 0.0476
vn -0.5186 -0.1287 -0.8453
vn -0.1225 -0.3948 -0.9105
vn -0.0202 -0.0144 -0.9997
vn 0.3842 -0.3679 -0.8468
vn -0.5087 0.3596 -0.7822
vn -0.1726 0.3760 -0.9104
vn 0.5209 0.3804 -0.7641
vn 0.0363 0.3730 -0.9271
vn 0.4381 0.1396 -0.8880
vn 0.9219 -0.0676 0.3816
vn 0.7398 -0.5056 -0.4439
vn 0.9913 -0.0702 -0.1113
vn 0.9000 0.3040 0.3124
vn 0.8772 0.4585 -0.1424
vn 0.5002 0.1329 -0.8557
vn 0.7604 0.2437 -0.6020
vt 0.338641 0.203610
vt 0.354041 0.192428
vt 0.355750 0.202313
vt 0.362125 0.222709
vt 0.367256 0.213013
vt 0.366903 0.195563
vt 0.362082 0.187835
vt 0.358628 0.173308
vt 0.346681 0.181203
vt 0.347915 0.168481
vt 0.363279 0.176782
vt 0.359879 0.177986
vt 0.351249 0.233778
vt 0.365074 0.246301
vt 0.370823 0.230134
vt 0.374044 0.245632
vt 0.373888 0.227603
vt 0.372511 0.208625
vt 0.367696 0.192981
vt 0.311726 0.124086
vt 0.313242 0.109374
vt 0.333594 0.123435
vt 0.306401 0.160108
vt 0.329241 0.160681
vt 0.327453 0.172294
vt 0.347118 0.146176
vt 0.330782 0.142613
vt 0.358073 0.152481
vt 0.361837 0.156497
vt 0.360987 0.129674
vt 0.353873 0.158467
vt 0.352856 0.143553
vt 0.360773 0.153867
vt 0.345013 0.147549
vt 0.333446 0.149829
vt 0.319086 0.138353
vt 0.307096 0.193073
vt 0.343934 0.219685
vt 0.320822 0.214978
vt 0.345306 0.170075
vt 0.276348 0.138893
vt 0.290892 0.123429
vt 0.295897 0.140453
vt 0.269397 0.120492
vt 0.284721 0.100456
vt 0.277444 0.164493
vt 0.301624 0.172280
vt 0.281074 0.150368
vt 0.260746 0.147044
vt 0.317008 0.185781
vt 0.273549 0.170710
vt 0.283559 0.176083
vt 0.296260 0.193352
vt 0.284194 0.180206
vt 0.260442 0.171855
vt 0.266758 0.168107
vt 0.257559 0.177335
vt 0.262789 0.169423
vt 0.276768 0.167308
vt 0.268038 0.152274
vt 0.279243 0.162688
vt 0.274854 0.148342
vt 0.246448 0.142991
vt 0.251762 0.200143
vt 0.258766 0.188343
vt 0.259287 0.188824
vt 0.260001 0.161248
vt 0.255981 0.157750
vt 0.267126 0.151659
vt 0.426708 0.235416
vt 0.417802 0.259117
vt 0.416187 0.242926
vt 0.440849 0.218281
vt 0.406410 0.202559
vt 0.452171 0.254589
vt 0.466111 0.232771
vt 0.438958 0.126370
vt 0.423959 0.137620
vt 0.396337 0.127826
vt 0.427881 0.149520
vt 0.450330 0.151733
vt 0.449454 0.139161
vt 0.391451 0.153064
vt 0.383147 0.140480
vt 0.413652 0.161875
vt 0.391914 0.153471
vt 0.407548 0.164151
vt 0.425347 0.156240
vt 0.428345 0.159230
vt 0.466022 0.161846
vt 0.368035 0.115905
vt 0.357458 0.105030
vt 0.408824 0.114602
vt 0.406945 0.105247
vt 0.330297 0.092534
vt 0.350756 0.081218
vt 0.367425 0.097156
vt 0.395606 0.090942
vt 0.393291 0.148852
vt 0.326926 0.131049
vt 0.315735 0.131682
vt 0.338892 0.124491
vt 0.339693 0.141626
vt 0.380623 0.130357
vt 0.348038 0.117724
vt 0.344479 0.160683
vt 0.307050 0.095418
vt 0.301233 0.082747
vt 0.267699 0.081555
vt 0.245027 0.094292
vt 0.340607 0.071643
vt 0.238928 0.112159
vt 0.266167 0.099299
vt 0.264205 0.101483
vt 0.472713 0.149725
vt 0.480368 0.128643
vt 0.467399 0.126430
vt 0.500764 0.156047
vt 0.500934 0.145534
vt 0.452991 0.161925
vt 0.474934 0.164854
vt 0.500356 0.165848
vt 0.483502 0.238319
vt 0.498773 0.235116
vt 0.452767 0.112221
vt 0.452566 0.105124
vt 0.449049 0.098025
vt 0.489802 0.114112
vt 0.469789 0.104033
vt 0.492976 0.100924
vt 0.497832 0.103245
vt 0.460136 0.093098
vt 0.420996 0.087162
vt 0.404103 0.077612
vt 0.506725 0.096059
vt 0.386341 0.039276
vt 0.305924 0.048180
vt 0.543259 0.086392
vt 1.305924 0.048180
vt 0.818380 0.030941
vt 1.386341 0.039276
vt 0.376739 0.264444
vt 0.341250 0.249251
vt 0.442970 0.328346
vt 0.427597 0.301935
vt 0.441720 0.298304
vt 0.463675 0.314531
vt 0.456151 0.298420
vt 0.430105 0.338041
vt 0.448188 0.355537
vt 0.465287 0.344772
vt 0.399625 0.259763
vt 0.413971 0.273537
vt 0.426345 0.283924
vt 0.431166 0.263819
vt 0.449402 0.276491
vt 0.489551 0.291357
vt 0.472465 0.282324
vt 0.485644 0.304820
vt 0.492491 0.320555
vt 0.499314 0.336640
vt 0.485464 0.353065
vt 0.220037 0.193728
vt 0.223172 0.172941
vt 0.230508 0.189637
vt 0.241059 0.161747
vt 0.246773 0.174177
vt 0.207067 0.163323
vt 0.204857 0.174385
vt 0.244215 0.182133
vt 0.222237 0.192898
vt 0.205456 0.192916
vt 0.208659 0.131718
vt 0.239669 0.129821
vt 0.218206 0.139641
vt 0.258590 0.165909
vt 0.223485 0.163187
vt 0.238662 0.141935
vt 0.199242 0.145125
vt 0.226825 0.119165
vt 0.190235 0.138493
vt 0.196144 0.128771
vt 0.213713 0.118153
vt 0.184319 0.132902
vt 0.208015 0.120325
vt 0.227306 0.106784
vt 0.261537 0.102268
vt 0.188097 0.140572
vt 0.242259 0.147509
vt 0.234513 0.143489
vt 0.198202 0.161970
vt 0.208421 0.162576
vt 0.226200 0.146956
vt 0.235184 0.131663
vt 0.220787 0.129184
vt 0.233092 0.206762
vt 0.233439 0.221554
vt 0.207408 0.206835
vt 0.228458 0.199115
vt 0.214367 0.224085
vt 0.199030 0.204162
vt 0.201089 0.222224
vt 0.220814 0.143818
vt 0.191038 0.154417
vt 0.180134 0.149691
vt 0.184227 0.167925
vt 0.178646 0.151290
vt 0.203388 0.190739
vt 0.192649 0.184477
vt 0.195210 0.182887
vt 0.192653 0.176235
vt 0.181767 0.167093
vt 0.192544 0.173015
vt 0.193356 0.185734
vt 0.241494 0.094528
vt 0.241344 0.088097
vt 0.245468 0.096047
vt 0.226199 0.080818
vt 0.199570 0.062952
vt 0.228773 0.124413
vt 0.188231 0.119801
vt 0.231429 0.103487
vt 0.171896 0.066296
vt 0.144656 0.109933
vt 0.200852 0.073643
vt 0.124261 0.063859
vt 0.189601 0.078797
vt 0.125607 0.061670
vt 0.141064 0.062005
vt 0.132108 0.057478
vt 0.055061 0.035089
vt 0.068974 0.049255
vt 0.037595 0.056951
vt 1.068974 0.049255
vt 0.994433 0.048511
vt 1.037595 0.056951
vt 0.015279 0.089908
vt 0.079213 0.093143
vt 1.015279 0.089908
vt 0.978557 0.052513
vt 0.496894 0.135135
vt 0.519661 0.125778
vt 0.525676 0.146103
vt 0.525782 0.156976
vt 0.537995 0.133279
vt 0.553046 0.140781
vt 0.547431 0.151054
vt 0.526696 0.165023
vt 0.554274 0.162372
vt 0.550046 0.158870
vt 0.500295 0.252030
vt 0.517233 0.234119
vt 0.517363 0.252265
vt 0.548716 0.228758
vt 0.527982 0.214283
vt 0.541474 0.103076
vt 0.524716 0.104125
vt 0.519094 0.098497
vt 0.548539 0.121189
vt 0.545942 0.111978
vt 0.524181 0.115457
vt 0.515164 0.106999
vt 0.569049 0.127177
vt 0.595230 0.095232
vt 0.629141 0.083567
vt 0.584019 0.080344
vt 0.676114 0.069889
vt 0.576415 0.149547
vt 0.581403 0.159703
vt 0.560976 0.204113
vt 0.577102 0.234003
vt 0.574032 0.136561
vt 0.598277 0.104876
vt 0.597370 0.115631
vt 0.599891 0.128167
vt 0.601523 0.146030
vt 0.619208 0.125703
vt 0.574751 0.155721
vt 0.591425 0.164337
vt 0.589859 0.159897
vt 0.609313 0.152411
vt 0.621138 0.144450
vt 0.606744 0.149239
vt 0.633485 0.150375
vt 0.641750 0.152126
vt 0.581626 0.194029
vt 0.606065 0.227480
vt 0.584306 0.254551
vt 0.601140 0.244678
vt 0.639636 0.091519
vt 0.631021 0.100604
vt 0.662964 0.095510
vt 0.634145 0.115710
vt 0.632484 0.128347
vt 0.597779 0.142365
vt 0.641093 0.141586
vt 0.686809 0.129477
vt 0.657971 0.118953
vt 0.646060 0.129620
vt 0.652774 0.149941
vt 0.672006 0.153294
vt 0.661304 0.142757
vt 0.689623 0.130762
vt 0.663282 0.173069
vt 0.666145 0.154160
vt 0.688659 0.094930
vt 0.687651 0.107381
vt 0.717484 0.079877
vt 0.740122 0.096749
vt 0.690353 0.084610
vt 0.754083 0.097680
vt 0.735722 0.109286
vt 0.736943 0.095643
vt 0.723531 0.101646
vt 0.685607 0.120829
vt 0.762738 0.113382
vt 0.686945 0.144558
vt 0.641369 0.183577
vt 0.644895 0.168084
vt 0.635967 0.196933
vt 0.640709 0.187414
vt 0.647633 0.199999
vt 0.647521 0.172118
vt 0.654730 0.179221
vt 0.627862 0.210493
vt 0.627529 0.232793
vt 0.637761 0.206599
vt 0.625848 0.245822
vt 0.615240 0.238801
vt 0.629534 0.219141
vt 0.629997 0.228650
vt 0.636396 0.215534
vt 0.635594 0.235871
vt 0.623230 0.265994
vt 0.654434 0.251226
vt 0.663929 0.222223
vt 0.660887 0.217390
vt 0.670177 0.111031
vt 0.659995 0.123724
vt 0.647979 0.144482
vt 0.643429 0.154200
vt 0.661445 0.162212
vt 0.669592 0.137367
vt 0.697935 0.139489
vt 0.681461 0.151705
vt 0.665120 0.169579
vt 0.694866 0.159357
vt 0.676765 0.171920
vt 0.655781 0.160988
vt 0.684412 0.175527
vt 0.681907 0.193985
vt 0.698702 0.168100
vt 0.699988 0.183809
vt 0.703514 0.171916
vt 0.658832 0.185741
vt 0.676711 0.220487
vt 0.680985 0.206994
vt 0.691007 0.200194
vt 0.686720 0.123544
vt 0.736043 0.113724
vt 0.730680 0.122231
vt 0.717915 0.099815
vt 0.723712 0.134887
vt 0.706385 0.124682
vt 0.719922 0.150853
vt 0.763190 0.134342
vt 0.741991 0.145555
vt 0.742755 0.158113
vt 0.727351 0.164515
vt 0.732068 0.150403
vt 0.723019 0.139954
vt 0.756213 0.137159
vt 0.719116 0.144797
vt 0.751783 0.143634
vt 0.747863 0.155328
vt 0.718820 0.164336
vt 0.713129 0.162057
vt 0.702912 0.183813
vt 0.731389 0.159600
vt 0.747975 0.169133
vt 0.742937 0.168829
vt 0.738275 0.160199
vt 0.748064 0.186580
vt 0.758210 0.166479
vt 0.684483 0.180192
vt 0.740773 0.166008
vt 0.750327 0.160052
vt 0.742817 0.183842
vt 0.745559 0.184551
vt 0.510566 0.293261
vt 0.500082 0.295168
vt 0.499169 0.275001
vt 0.510718 0.304308
vt 0.527909 0.286132
vt 0.542529 0.293898
vt 0.539194 0.303576
vt 0.521741 0.331175
vt 0.529428 0.355920
vt 0.544760 0.318175
vt 0.559073 0.296359
vt 0.547399 0.274780
vt 0.560932 0.324982
vt 0.575788 0.320092
vt 0.573052 0.296435
vt 0.569016 0.287474
vt 0.543665 0.337931
vt 0.579588 0.276632
vt 0.568621 0.259448
vt 0.595513 0.309683
vt 0.595870 0.272855
vt 0.610961 0.253726
vt 1.000246 0.048885
vt 0.877774 0.046109
vt 1.055061 0.035089
vt 0.896053 0.061237
vt 0.962334 0.056949
vt 0.882690 0.057503
vt 0.864063 0.056310
vt 0.922456 0.048711
vt 0.803977 0.068739
vt 0.853834 0.067080
vt 0.782116 0.072305
vt 0.849234 0.088782
vt 0.862928 0.059595
vt 0.936530 0.075569
vt 0.887840 0.108785
vt 0.807619 0.076158
vt 0.754110 0.086803
vt 0.756326 0.088685
vt 0.732931 0.089656
vt 0.751601 0.102221
vt 0.788999 0.121446
vt 0.774586 0.118487
vt 0.740028 0.104870
vt 0.783600 0.126453
vt 0.788218 0.075469
vt 0.801108 0.113024
vt 0.737852 0.102547
vt 0.762582 0.079850
vt 0.763930 0.119664
vt 0.760709 0.124536
vt 0.819800 0.127198
vt 0.766412 0.125601
vt 0.802671 0.130012
vt 0.814791 0.134307
vt 0.789046 0.130634
vt 0.808990 0.137888
vt 0.786149 0.142502
vt 0.760152 0.156527
vt 0.770780 0.144292
vt 0.794747 0.170079
vt 0.803295 0.146363
vt 0.759727 0.135770
vt 0.763164 0.149723
vt 0.800423 0.161778
vt 0.768285 0.145000
vt 0.778470 0.146884
vt 0.763581 0.181458
vt 0.771082 0.211318
vt 0.751081 0.196584
vt 0.822100 0.147940
vt 0.813764 0.139797
vt 0.815581 0.151430
vt 0.819312 0.168220
vt 0.819620 0.157280
vt 0.806108 0.177604
vt 0.816954 0.175188
vt 0.799823 0.186887
vt 0.806617 0.185070
vt 0.795954 0.206823
vt 0.800624 0.196437
vt 0.800362 0.196709
vt 0.772954 0.180178
vt 0.780157 0.167774
vt 0.783347 0.183490
vt 0.786603 0.192860
vt 0.774434 0.189805
vt 0.775999 0.187996
vt 0.789011 0.190621
vt 0.808527 0.166976
vt 0.800932 0.189484
vt 0.379932 0.252245
vt 0.410177 0.163618
vt 0.480047 0.251814
vt 0.000246 0.048885
vt 0.541565 0.237314
vt 0.539731 0.257487
vt 0.789021 0.161406
vt 0.804590 0.181157
s 1
f 7/1/7 5/2/5 6/3/6
f 4/4/4 6/3/6 8/5/8
f 8/5/8 6/3/6 10/6/10
f 10/6/10 5/2/5 9/7/9
f 9/7/9 5/2/5 11/8/11
f 11/8/11 29/9/29 31/10/31
f 10/6/10 9/7/9 12/11/12
f 10/6/10 12/11/12 13/12/13
f 45/13/45 4/4/4 15/14/15
f 7/1/7 6/3/6 4/4/4
f 15/14/15 19/15/19 17/16/17
f 21/17/21 19/15/19 20/18/20
f 22/19/22 20/18/20 10/6/10
f 13/12/13 22/19/22 10/6/10
f 23/20/23 98/21/98 24/22/24
f 28/23/28 30/24/30 26/25/26
f 31/10/31 30/24/30 34/26/34
f 34/26/34 30/24/30 33/27/33
f 31/10/31 3/28/3 35/29/35
f 33/27/33 25/30/25 34/26/34
f 23/20/23 24/22/24 33/27/33
f 39/31/39 13/12/13 12/11/12
f 40/32/40 11/8/11 36/33/36
f 40/32/40 39/31/39 11/8/11
f 13/12/13 39/31/39 41/34/41
f 42/35/42 41/34/41 43/36/43
f 38/37/38 14/38/14 44/39/44
f 46/40/46 13/12/13 42/35/42
f 47/41/47 50/42/50 32/43/32
f 49/44/49 50/42/50 47/41/47
f 98/21/98 23/20/23 50/42/50
f 49/44/49 52/45/52 50/42/50
f 54/46/54 28/23/28 27/47/27
f 53/48/53 55/49/55 47/41/47
f 54/46/54 37/50/37 57/51/57
f 57/51/57 37/50/37 56/52/56
f 56/52/56 61/53/61 72/54/72
f 58/55/58 57/51/57 62/56/62
f 60/57/60 58/55/58 62/56/62
f 60/57/60 62/56/62 63/58/63
f 64/59/64 66/60/66 57/51/57
f 68/61/68 64/59/64 72/54/72
f 66/60/66 67/62/67 70/63/70
f 71/64/71 59/65/59 73/66/73
f 73/66/73 59/65/59 63/58/63
f 74/67/74 63/58/63 65/68/65
f 61/53/61 68/61/68 72/54/72
f 69/69/69 67/62/67 68/61/68
f 81/70/81 77/71/77 78/72/78
f 79/73/79 81/70/81 78/72/78
f 79/73/79 78/72/78 97/74/97
f 80/75/80 81/70/81 131/76/131
f 88/77/88 85/78/85 83/79/83
f 84/80/84 85/78/85 75/81/75
f 121/82/121 85/78/85 88/77/88
f 89/83/89 82/84/82 93/85/93
f 35/29/35 89/83/89 92/86/92
f 89/83/89 91/87/91 92/86/92
f 94/88/94 76/89/76 128/90/128
f 24/22/24 100/91/100 25/30/25
f 98/21/98 101/92/101 24/22/24
f 100/91/100 83/79/83 25/30/25
f 100/91/100 86/93/86 83/79/83
f 101/92/101 87/94/87 100/91/100
f 100/91/100 87/94/87 86/93/86
f 99/95/99 103/96/103 102/97/102
f 104/98/104 87/94/87 102/97/102
f 36/33/36 35/29/35 90/99/90
f 105/100/105 43/36/43 41/34/41
f 105/100/105 41/34/41 40/32/40
f 119/101/119 108/102/108 106/103/106
f 96/104/96 36/33/36 90/99/90
f 105/100/105 40/32/40 109/105/109
f 107/106/107 42/35/42 106/103/106
f 110/107/110 98/21/98 52/45/52
f 99/95/99 98/21/98 110/107/110
f 52/45/52 113/108/113 110/107/110
f 116/109/116 113/108/113 111/110/111
f 113/108/113 99/95/99 110/107/110
f 113/108/113 118/111/118 103/96/103
f 116/109/116 118/111/118 113/108/113
f 119/101/119 105/100/105 108/102/108
f 226/112/226 117/113/117 112/114/112
f 121/82/121 75/81/75 85/78/85
f 75/81/75 121/82/121 122/115/122
f 122/115/122 121/82/121 124/116/124
f 124/116/124 121/82/121 123/117/123
f 130/118/130 122/115/122 125/119/125
f 76/89/76 75/81/75 127/120/127
f 128/90/128 76/89/76 127/120/127
f 75/81/75 122/115/122 129/121/129
f 128/90/128 127/120/127 129/121/129
f 129/121/129 130/118/130 249/122/249
f 133/123/133 131/76/131 134/124/134
f 88/77/88 123/117/123 121/82/121
f 135/125/135 88/77/88 86/93/86
f 136/126/136 135/125/135 86/93/86
f 136/126/136 86/93/86 87/94/87
f 136/126/136 87/94/87 137/127/137
f 88/77/88 138/128/138 123/117/123
f 135/125/135 138/128/138 88/77/88
f 136/126/136 139/129/139 135/125/135
f 137/127/137 143/130/143 139/129/139
f 141/131/141 135/125/135 139/129/139
f 137/127/137 87/94/87 104/98/104
f 140/132/140 137/127/137 145/133/145
f 103/96/103 145/133/145 104/98/104
f 146/134/146 140/132/140 145/133/145
f 140/132/140 144/135/144 143/130/143
f 148/136/148 118/111/118 147/137/147
f 148/136/148 269/138/269 146/134/146
f 147/139/147 271/140/271 148/141/148
f 15/14/15 150/142/150 16/143/16
f 152/144/152 151/145/151 153/146/153
f 154/147/154 153/146/153 155/148/155
f 157/149/157 152/144/152 158/150/158
f 152/144/152 159/151/159 158/150/158
f 149/152/149 77/71/77 160/153/160
f 160/153/160 77/71/77 161/154/161
f 149/152/149 78/72/78 77/71/77
f 77/71/77 162/155/162 161/154/161
f 77/71/77 81/70/81 162/155/162
f 156/156/156 153/146/153 161/154/161
f 165/157/165 155/148/155 163/158/163
f 165/157/165 164/159/164 155/148/155
f 154/147/154 166/160/166 171/161/171
f 170/162/170 159/151/159 171/161/171
f 173/163/173 172/164/172 177/165/177
f 177/165/177 187/166/187 2/167/2
f 175/168/175 172/164/172 176/169/176
f 177/165/177 196/170/196 178/171/178
f 176/169/176 173/163/173 182/172/182
f 185/173/185 48/174/48 184/175/184
f 187/166/187 55/49/55 1/176/1
f 174/177/174 188/178/188 187/166/187
f 175/168/175 184/175/184 174/177/174
f 189/179/189 185/173/185 184/175/184
f 188/178/188 48/174/48 55/49/55
f 185/173/185 186/180/186 48/174/48
f 190/181/190 191/182/191 185/173/185
f 191/182/191 193/183/193 185/173/185
f 192/184/192 194/185/194 193/183/193
f 195/186/195 51/187/51 186/180/186
f 205/188/205 194/185/194 192/184/192
f 2/167/2 58/55/58 196/170/196
f 58/55/58 60/57/60 196/170/196
f 198/189/198 66/60/66 201/190/201
f 199/191/199 203/192/203 202/193/202
f 205/188/205 199/191/199 202/193/202
f 198/189/198 69/69/69 74/67/74
f 201/190/201 70/63/70 206/194/206
f 201/190/201 206/194/206 204/195/204
f 202/193/202 204/195/204 205/188/205
f 198/189/198 70/63/70 69/69/69
f 202/193/202 70/63/70 198/189/198
f 208/196/208 71/64/71 180/197/180
f 209/198/209 179/199/179 208/196/208
f 209/198/209 180/197/180 181/200/181
f 211/201/211 209/198/209 210/202/210
f 203/192/203 207/203/207 202/193/202
f 212/204/212 175/168/175 176/169/176
f 190/181/190 189/179/189 212/204/212
f 214/205/214 212/204/212 213/206/213
f 192/184/192 191/182/191 190/181/190
f 215/207/215 192/184/192 214/205/214
f 182/172/182 197/208/197 216/209/216
f 216/209/216 197/208/197 217/210/217
f 216/209/216 213/206/213 183/211/183
f 219/212/219 213/206/213 216/209/216
f 218/213/218 219/212/219 217/210/217
f 199/191/199 205/188/205 215/207/215
f 199/191/199 215/207/215 218/213/218
f 215/207/215 219/212/219 218/213/218
f 197/208/197 209/198/209 211/201/211
f 200/214/200 197/208/197 211/201/211
f 193/183/193 220/215/220 195/186/195
f 194/185/194 220/215/220 193/183/193
f 220/215/220 114/216/114 111/110/111
f 115/217/115 117/113/117 223/218/223
f 115/217/115 223/218/223 220/215/220
f 222/219/222 147/137/147 116/109/116
f 225/220/225 206/194/206 70/63/70
f 194/185/194 204/195/204 226/112/226
f 226/112/226 112/114/112 115/217/115
f 227/221/227 225/220/225 207/203/207
f 228/222/228 226/112/226 225/220/225
f 228/222/228 117/113/117 226/112/226
f 231/223/231 227/221/227 229/224/229
f 228/222/228 230/225/230 117/113/117
f 225/220/225 231/223/231 228/222/228
f 230/225/230 233/226/233 221/227/221
f 232/228/232 224/229/224 221/227/221
f 234/230/234 233/226/233 231/223/231
f 235/231/235 147/137/147 222/219/222
f 235/231/235 222/219/222 224/229/224
f 234/230/234 236/232/236 233/226/233
f 237/233/237 232/228/232 233/226/233
f 233/226/233 236/232/236 237/233/237
f 236/234/236 239/235/239 237/236/237
f 234/230/234 231/223/231 229/224/229
f 242/237/242 234/230/234 241/238/241
f 242/239/242 240/240/240 236/234/236
f 126/241/126 243/242/243 244/243/244
f 126/241/126 244/243/244 125/119/125
f 245/244/245 130/118/130 244/243/244
f 244/243/244 246/245/246 248/246/248
f 244/243/244 248/246/248 247/247/247
f 249/122/249 245/244/245 250/248/250
f 251/249/251 250/248/250 245/244/245
f 251/249/251 245/244/245 247/247/247
f 252/250/252 250/248/250 251/249/251
f 120/251/120 134/124/134 253/252/253
f 120/251/120 253/252/253 255/253/255
f 256/254/256 253/252/253 254/255/254
f 262/256/262 261/257/261 267/258/267
f 263/259/263 246/245/246 243/242/243
f 264/260/264 260/261/260 142/262/142
f 264/260/264 142/262/142 261/257/261
f 263/259/263 266/263/266 246/245/246
f 265/264/265 267/258/267 268/265/268
f 265/264/265 262/256/262 267/258/267
f 269/138/269 267/258/267 144/135/144
f 271/140/271 270/266/270 269/138/269
f 271/140/271 272/267/272 270/266/270
f 273/268/273 247/247/247 248/246/248
f 251/249/251 273/268/273 285/269/285
f 258/270/258 275/271/275 256/254/256
f 279/272/279 248/246/248 266/263/266
f 262/256/262 263/259/263 264/260/264
f 278/273/278 280/274/280 263/259/263
f 248/246/248 279/272/279 273/268/273
f 280/274/280 279/272/279 266/263/266
f 279/272/279 281/275/281 282/276/282
f 282/276/282 281/275/281 283/277/283
f 252/250/252 251/249/251 285/269/285
f 284/278/284 252/250/252 285/269/285
f 285/269/285 273/268/273 282/276/282
f 284/278/284 285/269/285 286/279/286
f 282/276/282 273/268/273 279/272/279
f 284/278/284 286/279/286 287/280/287
f 289/281/289 287/280/287 286/279/286
f 290/282/290 289/281/289 282/276/282
f 290/282/290 282/276/282 283/277/283
f 288/283/288 289/281/289 291/284/291
f 291/284/291 289/281/289 292/285/292
f 295/286/295 275/271/275 258/270/258
f 295/286/295 296/287/296 275/271/275
f 296/287/296 276/288/276 275/271/275
f 296/287/296 277/289/277 276/288/276
f 265/264/265 278/273/278 262/256/262
f 297/290/297 265/264/265 268/265/268
f 298/291/298 265/264/265 297/290/297
f 278/273/278 283/277/283 280/274/280
f 300/292/300 298/291/298 297/290/297
f 283/277/283 299/293/299 301/294/301
f 299/293/299 298/291/298 300/292/300
f 293/295/293 288/283/288 306/296/306
f 306/296/306 288/283/288 291/284/291
f 308/297/308 304/298/304 294/299/294
f 308/297/308 294/299/294 359/300/359
f 309/301/309 305/302/305 307/303/307
f 309/301/309 311/304/311 310/305/310
f 313/306/313 303/307/303 300/292/300
f 317/308/317 321/309/321 312/310/312
f 320/311/320 321/309/321 317/308/317
f 328/312/328 319/313/319 324/314/324
f 326/315/326 304/298/304 308/297/308
f 327/316/327 328/312/328 324/314/324
f 307/303/307 361/317/361 309/301/309
f 308/297/308 361/317/361 307/303/307
f 331/318/331 332/319/332 333/320/333
f 333/320/333 334/321/334 336/322/336
f 330/323/330 353/324/353 334/321/334
f 339/325/339 341/326/341 340/327/340
f 331/318/331 333/320/333 339/325/339
f 342/328/342 337/329/337 341/326/341
f 341/326/341 337/329/337 338/330/338
f 343/331/343 339/325/339 335/332/335
f 344/333/344 342/328/342 341/326/341
f 417/334/417 342/328/342 344/333/344
f 344/333/344 343/331/343 335/332/335
f 418/335/418 344/333/344 346/336/346
f 346/336/346 344/333/344 345/337/345
f 302/338/302 349/339/349 299/293/299
f 349/339/349 290/282/290 301/294/301
f 349/339/349 329/340/329 290/282/290
f 292/285/292 290/282/290 329/340/329
f 350/341/350 292/285/292 330/323/330
f 353/324/353 292/285/292 352/342/352
f 347/343/347 352/342/352 329/340/329
f 351/344/351 355/345/355 347/343/347
f 353/324/353 352/342/352 354/346/354
f 355/345/355 354/346/354 352/342/352
f 357/347/357 354/346/354 355/345/355
f 356/348/356 354/346/354 357/347/357
f 360/349/360 332/319/332 331/318/331
f 361/317/361 359/300/359 360/349/360
f 359/300/359 350/341/350 332/319/332
f 332/319/332 330/323/330 334/321/334
f 332/319/332 350/341/350 330/323/330
f 353/324/353 354/346/354 356/348/356
f 364/350/364 336/322/336 353/324/353
f 363/351/363 336/322/336 364/350/364
f 364/350/364 356/348/356 358/352/358
f 362/353/362 363/351/363 364/350/364
f 365/354/365 364/350/364 358/352/358
f 362/353/362 364/350/364 365/354/365
f 331/318/331 340/327/340 366/355/366
f 309/301/309 366/355/366 311/304/311
f 369/356/369 346/336/346 368/357/368
f 369/356/369 368/357/368 370/358/370
f 370/358/370 368/357/368 362/353/362
f 368/357/368 345/337/345 363/351/363
f 368/357/368 346/336/346 345/337/345
f 303/307/303 348/359/348 302/338/302
f 315/360/315 371/361/371 314/362/314
f 374/363/374 351/344/351 372/364/372
f 376/365/376 351/344/351 374/363/374
f 373/366/373 375/367/375 374/363/374
f 357/347/357 355/345/355 351/344/351
f 357/347/357 351/344/351 376/365/376
f 376/365/376 358/352/358 357/347/357
f 379/368/379 377/369/377 376/365/376
f 395/370/395 381/371/381 382/372/382
f 382/372/382 383/373/383 385/374/385
f 382/372/382 381/371/381 383/373/383
f 387/375/387 395/370/395 382/372/382
f 388/376/388 383/373/383 384/377/384
f 392/378/392 362/353/362 388/376/388
f 386/379/386 365/354/365 377/369/377
f 388/376/388 365/354/365 386/379/386
f 393/380/393 386/379/386 377/369/377
f 393/380/393 390/381/390 389/382/389
f 377/369/377 365/354/365 358/352/358
f 390/381/390 393/380/393 394/383/394
f 380/384/380 377/369/377 379/368/379
f 392/378/392 384/377/384 367/385/367
f 396/386/396 456/387/456 397/388/397
f 370/358/370 362/353/362 392/378/392
f 392/378/392 388/376/388 384/377/384
f 391/389/391 456/387/456 390/381/390
f 399/390/399 168/391/168 169/392/169
f 399/390/399 167/393/167 168/391/168
f 400/394/400 402/395/402 399/390/399
f 402/395/402 403/396/403 167/393/167
f 171/161/171 401/397/401 405/398/405
f 401/397/401 403/396/403 406/399/406
f 402/395/402 407/400/407 403/396/403
f 404/401/404 407/400/407 402/395/402
f 406/399/406 407/400/407 408/402/408
f 411/403/411 408/402/408 413/404/413
f 413/404/413 407/400/407 409/405/409
f 410/406/410 401/397/401 406/399/406
f 408/402/408 410/406/410 406/399/406
f 412/407/412 409/405/409 274/408/274
f 412/407/412 274/408/274 276/288/276
f 409/405/409 412/407/412 413/404/413
f 415/409/415 413/404/413 414/410/414
f 414/410/414 276/288/276 277/289/277
f 416/411/416 337/329/337 342/328/342
f 416/411/416 342/328/342 417/334/417
f 418/335/418 417/334/417 344/333/344
f 238/412/238 419/413/419 235/414/235
f 239/235/239 424/415/424 420/416/420
f 238/412/238 422/417/422 419/413/419
f 422/417/422 238/412/238 420/416/420
f 423/418/423 424/415/424 421/419/421
f 424/415/424 422/417/422 420/416/420
f 425/420/425 426/421/426 423/418/423
f 316/422/316 271/140/271 419/413/419
f 428/423/428 427/424/427 240/240/240
f 242/239/242 429/425/429 240/240/240
f 428/423/428 240/240/240 429/425/429
f 429/425/429 430/426/430 428/423/428
f 316/422/316 317/308/317 271/140/271
f 431/427/431 316/422/316 422/417/422
f 434/428/434 317/308/317 316/422/316
f 431/427/431 435/429/435 434/428/434
f 435/429/435 318/430/318 319/313/319
f 320/311/320 434/428/434 435/429/435
f 320/311/320 322/431/322 437/432/437
f 436/433/436 323/434/323 320/311/320
f 320/311/320 323/434/323 321/309/321
f 436/433/436 320/311/320 437/432/437
f 438/435/438 437/432/437 322/431/322
f 427/424/427 432/436/432 425/420/425
f 440/437/440 432/436/432 428/423/428
f 325/438/325 318/430/318 433/439/433
f 327/316/327 325/438/325 432/436/432
f 439/440/439 322/431/322 328/312/328
f 442/441/442 439/440/439 327/316/327
f 440/437/440 382/372/382 327/316/327
f 438/435/438 322/431/322 439/440/439
f 441/442/441 428/423/428 430/426/430
f 436/433/436 444/443/444 323/434/323
f 447/444/447 437/432/437 446/445/446
f 447/444/447 436/433/436 437/432/437
f 447/444/447 448/446/448 436/433/436
f 449/447/449 448/446/448 447/444/447
f 449/447/449 445/448/445 448/446/448
f 451/449/451 379/368/379 375/367/375
f 451/449/451 375/367/375 378/450/378
f 477/451/477 445/448/445 450/452/450
f 382/372/382 442/441/442 327/316/327
f 439/440/439 453/453/453 457/454/457
f 459/455/459 438/435/438 457/454/457
f 385/374/385 389/382/389 456/387/456
f 457/454/457 385/374/385 456/387/456
f 455/456/455 456/387/456 387/375/387
f 443/457/443 457/454/457 455/456/455
f 394/383/394 393/380/393 460/458/460
f 466/459/466 398/460/398 394/383/394
f 467/461/467 446/445/446 454/462/454
f 449/447/449 447/444/447 446/445/446
f 467/461/467 449/447/449 446/445/446
f 468/463/468 449/447/449 467/461/467
f 467/461/467 469/464/469 468/463/468
f 471/465/471 454/462/454 459/455/459
f 471/465/471 459/455/459 472/466/472
f 471/465/471 472/466/472 474/467/474
f 469/464/469 467/461/467 471/465/471
f 473/468/473 474/467/474 472/466/472
f 474/467/474 481/469/481 469/464/469
f 465/470/465 475/471/475 464/472/464
f 476/473/476 451/449/451 452/474/452
f 478/475/478 476/473/476 452/474/452
f 477/451/477 478/475/478 452/474/452
f 480/476/480 461/477/461 479/478/479
f 462/479/462 461/477/461 480/476/480
f 460/458/460 380/384/380 476/473/476
f 480/476/480 479/478/479 476/473/476
f 481/469/481 477/451/477 470/480/470
f 482/481/482 481/469/481 473/468/473
f 10/6/10 6/3/6 5/2/5
f 11/8/11 5/2/5 29/9/29
f 11/8/11 31/10/31 35/29/35
f 9/7/9 11/8/11 12/11/12
f 16/143/16 45/13/45 15/14/15
f 45/13/45 14/38/14 4/4/4
f 14/38/14 7/1/7 4/4/4
f 15/14/15 4/4/4 19/15/19
f 19/15/19 4/4/4 8/5/8
f 21/17/21 17/16/17 19/15/19
f 18/482/18 17/16/17 21/17/21
f 19/15/19 8/5/8 20/18/20
f 20/18/20 8/5/8 10/6/10
f 22/19/22 21/17/21 20/18/20
f 27/47/27 28/23/28 26/25/26
f 26/25/26 31/10/31 29/9/29
f 32/43/32 30/24/30 28/23/28
f 31/10/31 26/25/26 30/24/30
f 32/43/32 23/20/23 33/27/33
f 32/43/32 33/27/33 30/24/30
f 3/28/3 31/10/31 34/26/34
f 33/27/33 24/22/24 25/30/25
f 23/20/23 32/43/32 50/42/50
f 34/26/34 25/30/25 82/84/82
f 3/28/3 34/26/34 82/84/82
f 7/1/7 37/50/37 26/25/26
f 27/47/27 26/25/26 37/50/37
f 38/37/38 37/50/37 7/1/7
f 38/37/38 7/1/7 14/38/14
f 26/25/26 29/9/29 5/2/5
f 7/1/7 26/25/26 5/2/5
f 36/33/36 11/8/11 35/29/35
f 39/31/39 12/11/12 11/8/11
f 40/32/40 41/34/41 39/31/39
f 42/35/42 13/12/13 41/34/41
f 44/39/44 14/38/14 45/13/45
f 46/40/46 22/19/22 13/12/13
f 50/42/50 52/45/52 98/21/98
f 186/180/186 51/187/51 49/44/49
f 49/44/49 51/187/51 52/45/52
f 1/176/1 55/49/55 54/46/54
f 54/46/54 53/48/53 28/23/28
f 55/49/55 53/48/53 54/46/54
f 53/48/53 32/43/32 28/23/28
f 47/41/47 32/43/32 53/48/53
f 48/174/48 47/41/47 55/49/55
f 49/44/49 47/41/47 48/174/48
f 58/55/58 1/176/1 54/46/54
f 2/167/2 1/176/1 58/55/58
f 56/52/56 37/50/37 38/37/38
f 54/46/54 27/47/27 37/50/37
f 58/55/58 54/46/54 57/51/57
f 38/37/38 61/53/61 56/52/56
f 60/57/60 63/58/63 59/65/59
f 56/52/56 64/59/64 57/51/57
f 72/54/72 64/59/64 56/52/56
f 62/56/62 57/51/57 66/60/66
f 63/58/63 62/56/62 66/60/66
f 65/68/65 63/58/63 66/60/66
f 68/61/68 67/62/67 64/59/64
f 66/60/66 64/59/64 67/62/67
f 69/69/69 70/63/70 67/62/67
f 61/53/61 38/37/38 44/39/44
f 74/67/74 73/66/73 63/58/63
f 76/89/76 84/80/84 75/81/75
f 79/73/79 131/76/131 81/70/81
f 82/84/82 25/30/25 83/79/83
f 83/79/83 85/78/85 82/84/82
f 84/80/84 82/84/82 85/78/85
f 86/93/86 88/77/88 83/79/83
f 3/28/3 82/84/82 89/83/89
f 35/29/35 3/28/3 89/83/89
f 35/29/35 92/86/92 90/99/90
f 89/83/89 93/85/93 91/87/91
f 84/80/84 93/85/93 82/84/82
f 94/88/94 91/87/91 93/85/93
f 76/89/76 93/85/93 84/80/84
f 76/89/76 94/88/94 93/85/93
f 92/86/92 91/87/91 95/483/95
f 95/483/95 91/87/91 94/88/94
f 98/21/98 99/95/99 101/92/101
f 24/22/24 101/92/101 100/91/100
f 101/92/101 99/95/99 102/97/102
f 101/92/101 102/97/102 87/94/87
f 102/97/102 103/96/103 104/98/104
f 42/35/42 43/36/43 119/101/119
f 42/35/42 119/101/119 106/103/106
f 40/32/40 36/33/36 96/104/96
f 107/106/107 46/40/46 42/35/42
f 51/187/51 113/108/113 52/45/52
f 51/187/51 111/110/111 113/108/113
f 114/216/114 116/109/116 111/110/111
f 99/95/99 113/108/113 103/96/103
f 115/217/115 112/114/112 117/113/117
f 116/109/116 147/137/147 118/111/118
f 118/111/118 146/134/146 103/96/103
f 105/100/105 119/101/119 43/36/43
f 126/241/126 122/115/122 124/116/124
f 122/115/122 126/241/126 125/119/125
f 127/120/127 75/81/75 129/121/129
f 129/121/129 122/115/122 130/118/130
f 249/122/249 128/90/128 129/121/129
f 132/484/132 131/76/131 133/123/133
f 120/251/120 133/123/133 134/124/134
f 135/125/135 141/131/141 138/128/138
f 136/126/136 137/127/137 139/129/139
f 138/128/138 124/116/124 123/117/123
f 140/132/140 143/130/143 137/127/137
f 141/131/141 142/262/142 138/128/138
f 261/257/261 141/131/141 139/129/139
f 139/129/139 143/130/143 261/257/261
f 104/98/104 145/133/145 137/127/137
f 146/134/146 145/133/145 103/96/103
f 118/111/118 148/136/148 146/134/146
f 15/14/15 17/16/17 150/142/150
f 150/142/150 17/16/17 18/482/18
f 151/145/151 152/144/152 157/149/157
f 154/147/154 152/144/152 153/146/153
f 156/156/156 155/148/155 153/146/153
f 152/144/152 154/147/154 159/151/159
f 151/145/151 161/154/161 153/146/153
f 164/159/164 154/147/154 155/148/155
f 166/160/166 154/147/154 164/159/164
f 166/160/166 164/159/164 167/393/167
f 164/159/164 168/391/168 167/393/167
f 165/157/165 168/391/168 164/159/164
f 171/161/171 159/151/159 154/147/154
f 176/169/176 172/164/172 173/163/173
f 177/165/177 172/164/172 187/166/187
f 175/168/175 174/177/174 172/164/172
f 187/166/187 1/176/1 2/167/2
f 172/164/172 174/177/174 187/166/187
f 173/163/173 177/165/177 178/171/178
f 182/172/182 173/163/173 178/171/178
f 177/165/177 2/167/2 196/170/196
f 197/208/197 182/172/182 178/171/178
f 183/211/183 176/169/176 182/172/182
f 48/174/48 186/180/186 49/44/49
f 187/166/187 188/178/188 55/49/55
f 174/177/174 184/175/184 188/178/188
f 175/168/175 189/179/189 184/175/184
f 48/174/48 188/178/188 184/175/184
f 189/179/189 190/181/190 185/173/185
f 185/173/185 193/183/193 186/180/186
f 191/182/191 192/184/192 193/183/193
f 193/183/193 195/186/195 186/180/186
f 178/171/178 196/170/196 179/199/179
f 197/208/197 178/171/178 179/199/179
f 59/65/59 196/170/196 60/57/60
f 199/191/199 200/214/200 203/192/203
f 218/213/218 200/214/200 199/191/199
f 198/189/198 65/68/65 66/60/66
f 65/68/65 198/189/198 74/67/74
f 202/193/202 198/189/198 201/190/201
f 201/190/201 66/60/66 70/63/70
f 202/193/202 201/190/201 204/195/204
f 202/193/202 207/203/207 70/63/70
f 194/185/194 205/188/205 204/195/204
f 71/64/71 196/170/196 59/65/59
f 179/199/179 196/170/196 71/64/71
f 179/199/179 71/64/71 208/196/208
f 209/198/209 208/196/208 180/197/180
f 209/198/209 197/208/197 179/199/179
f 210/202/210 209/198/209 181/200/181
f 183/211/183 212/204/212 176/169/176
f 212/204/212 189/179/189 175/168/175
f 213/206/213 212/204/212 183/211/183
f 212/204/212 214/205/214 190/181/190
f 190/181/190 214/205/214 192/184/192
f 183/211/183 182/172/182 216/209/216
f 216/209/216 217/210/217 219/212/219
f 213/206/213 219/212/219 214/205/214
f 219/212/219 215/207/215 214/205/214
f 215/207/215 205/188/205 192/184/192
f 197/208/197 200/214/200 217/210/217
f 200/214/200 218/213/218 217/210/217
f 195/186/195 111/110/111 51/187/51
f 195/186/195 220/215/220 111/110/111
f 194/185/194 226/112/226 220/215/220
f 226/112/226 115/217/115 220/215/220
f 221/227/221 114/216/114 220/215/220
f 114/216/114 222/219/222 116/109/116
f 220/215/220 223/218/223 221/227/221
f 114/216/114 224/229/224 222/219/222
f 221/227/221 224/229/224 114/216/114
f 221/227/221 223/218/223 230/225/230
f 204/195/204 206/194/206 226/112/226
f 207/203/207 225/220/225 70/63/70
f 225/220/225 226/112/226 206/194/206
f 227/221/227 231/223/231 225/220/225
f 117/113/117 230/225/230 223/218/223
f 228/222/228 231/223/231 230/225/230
f 230/225/230 231/223/231 233/226/233
f 233/226/233 232/228/232 221/227/221
f 232/228/232 237/233/237 224/229/224
f 224/229/224 238/485/238 235/231/235
f 237/233/237 238/485/238 224/229/224
f 235/414/235 271/140/271 147/139/147
f 236/234/236 240/240/240 239/235/239
f 241/238/241 234/230/234 229/224/229
f 234/230/234 242/237/242 236/232/236
f 126/241/126 124/116/124 243/242/243
f 130/118/130 125/119/125 244/243/244
f 244/243/244 243/242/243 246/245/246
f 245/244/245 244/243/244 247/247/247
f 245/244/245 249/122/249 130/118/130
f 255/253/255 253/252/253 259/486/259
f 259/486/259 253/252/253 256/254/256
f 138/128/138 243/242/243 124/116/124
f 267/258/267 261/257/261 143/130/143
f 138/128/138 260/261/260 243/242/243
f 142/262/142 260/261/260 138/128/138
f 141/131/141 261/257/261 142/262/142
f 260/261/260 263/259/263 243/242/243
f 264/260/264 263/259/263 260/261/260
f 262/256/262 264/260/264 261/257/261
f 248/246/248 246/245/246 266/263/266
f 143/130/143 144/135/144 267/258/267
f 269/138/269 268/265/268 267/258/267
f 269/138/269 270/266/270 268/265/268
f 148/136/148 271/140/271 269/138/269
f 273/268/273 251/249/251 247/247/247
f 257/487/257 259/486/259 256/254/256
f 257/487/257 256/254/256 275/271/275
f 262/256/262 278/273/278 263/259/263
f 263/259/263 280/274/280 266/263/266
f 280/274/280 281/275/281 279/272/279
f 280/274/280 283/277/283 281/275/281
f 282/276/282 289/281/289 285/269/285
f 289/281/289 286/279/286 285/269/285
f 289/281/289 288/283/288 287/280/287
f 290/282/290 283/277/283 301/294/301
f 290/282/290 292/285/292 289/281/289
f 265/264/265 298/291/298 278/273/278
f 278/273/278 298/291/298 299/293/299
f 278/273/278 299/293/299 283/277/283
f 300/292/300 302/338/302 299/293/299
f 300/292/300 303/307/303 302/338/302
f 299/293/299 349/339/349 301/294/301
f 359/300/359 294/299/294 306/296/306
f 310/305/310 305/302/305 309/301/309
f 312/310/312 300/292/300 297/290/297
f 313/306/313 314/362/314 303/307/303
f 272/267/272 268/265/268 270/266/270
f 312/310/312 268/265/268 272/267/272
f 312/310/312 297/290/297 268/265/268
f 317/308/317 312/310/312 272/267/272
f 313/306/313 300/292/300 312/310/312
f 314/362/314 313/306/313 312/310/312
f 321/309/321 314/362/314 312/310/312
f 321/309/321 323/434/323 314/362/314
f 323/434/323 315/360/315 314/362/314
f 324/314/324 319/313/319 318/430/318
f 325/438/325 324/314/324 318/430/318
f 328/312/328 322/431/322 319/313/319
f 327/316/327 324/314/324 325/438/325
f 307/303/307 326/315/326 308/297/308
f 334/321/334 333/320/333 332/319/332
f 333/320/333 336/322/336 335/332/335
f 336/322/336 334/321/334 353/324/353
f 340/327/340 341/326/341 338/330/338
f 340/327/340 331/318/331 339/325/339
f 341/326/341 339/325/339 343/331/343
f 339/325/339 333/320/333 335/332/335
f 344/333/344 341/326/341 343/331/343
f 345/337/345 344/333/344 335/332/335
f 345/337/345 335/332/335 336/322/336
f 302/338/302 348/359/348 349/339/349
f 350/341/350 291/284/291 292/285/292
f 329/340/329 349/339/349 347/343/347
f 348/359/348 347/343/347 349/339/349
f 348/359/348 351/344/351 347/343/347
f 292/285/292 329/340/329 352/342/352
f 330/323/330 292/285/292 353/324/353
f 347/343/347 355/345/355 352/342/352
f 357/347/357 358/352/358 356/348/356
f 350/341/350 306/296/306 291/284/291
f 359/300/359 306/296/306 350/341/350
f 360/349/360 359/300/359 332/319/332
f 309/301/309 360/349/360 331/318/331
f 309/301/309 361/317/361 360/349/360
f 361/317/361 308/297/308 359/300/359
f 364/350/364 353/324/353 356/348/356
f 309/301/309 331/318/331 366/355/366
f 362/353/362 368/357/368 363/351/363
f 363/351/363 345/337/345 336/322/336
f 314/362/314 371/361/371 303/307/303
f 303/307/303 372/364/372 348/359/348
f 371/361/371 372/364/372 303/307/303
f 315/360/315 373/366/373 371/361/371
f 372/364/372 351/344/351 348/359/348
f 371/361/371 374/363/374 372/364/372
f 373/366/373 374/363/374 371/361/371
f 376/365/376 377/369/377 358/352/358
f 375/367/375 376/365/376 374/363/374
f 373/366/373 378/450/378 375/367/375
f 379/368/379 376/365/376 375/367/375
f 381/371/381 384/377/384 383/373/383
f 386/379/386 385/374/385 383/373/383
f 386/379/386 383/373/383 388/376/388
f 389/382/389 385/374/385 386/379/386
f 456/387/456 389/382/389 390/381/390
f 388/376/388 362/353/362 365/354/365
f 393/380/393 389/382/389 386/379/386
f 380/384/380 393/380/393 377/369/377
f 367/385/367 370/358/370 392/378/392
f 396/386/396 387/375/387 456/387/456
f 397/388/397 456/387/456 391/389/391
f 391/389/391 390/381/390 394/383/394
f 398/460/398 391/389/391 394/383/394
f 401/397/401 166/160/166 167/393/167
f 166/160/166 401/397/401 171/161/171
f 399/390/399 402/395/402 167/393/167
f 401/397/401 167/393/167 403/396/403
f 405/398/405 401/397/401 410/406/410
f 406/399/406 403/396/403 407/400/407
f 413/404/413 408/402/408 407/400/407
f 404/401/404 409/405/409 407/400/407
f 276/288/276 274/408/274 275/271/275
f 414/410/414 413/404/413 412/407/412
f 415/409/415 411/403/411 413/404/413
f 414/410/414 412/407/412 276/288/276
f 235/414/235 419/413/419 271/140/271
f 239/235/239 421/419/421 424/415/424
f 424/415/424 423/418/423 426/421/426
f 271/140/271 317/308/317 272/267/272
f 424/415/424 426/421/426 422/417/422
f 240/240/240 421/419/421 239/235/239
f 421/419/421 427/424/427 423/418/423
f 427/424/427 425/420/425 423/418/423
f 237/236/237 420/416/420 238/412/238
f 420/416/420 237/236/237 239/235/239
f 422/417/422 316/422/316 419/413/419
f 426/421/426 431/427/431 422/417/422
f 431/427/431 426/421/426 425/420/425
f 433/439/433 431/427/431 425/420/425
f 433/439/433 425/420/425 432/436/432
f 316/422/316 431/427/431 434/428/434
f 435/429/435 431/427/431 433/439/433
f 434/428/434 320/311/320 317/308/317
f 435/429/435 433/439/433 318/430/318
f 322/431/322 320/311/320 435/429/435
f 322/431/322 435/429/435 319/313/319
f 428/423/428 432/436/432 427/424/427
f 432/436/432 325/438/325 433/439/433
f 441/442/441 440/437/440 428/423/428
f 440/437/440 327/316/327 432/436/432
f 439/440/439 328/312/328 327/316/327
f 440/437/440 443/457/443 382/372/382
f 440/437/440 441/442/441 443/457/443
f 444/443/444 373/366/373 315/360/315
f 448/446/448 373/366/373 444/443/444
f 445/448/445 373/366/373 448/446/448
f 445/448/445 378/450/378 373/366/373
f 454/462/454 446/445/446 437/432/437
f 323/434/323 444/443/444 315/360/315
f 436/433/436 448/446/448 444/443/444
f 449/447/449 450/452/450 445/448/445
f 452/474/452 451/449/451 378/450/378
f 445/448/445 452/474/452 378/450/378
f 453/453/453 439/440/439 442/441/442
f 382/372/382 453/453/453 442/441/442
f 443/457/443 455/456/455 382/372/382
f 454/462/454 437/432/437 438/435/438
f 382/372/382 385/374/385 453/453/453
f 455/456/455 387/375/387 382/372/382
f 438/435/438 439/440/439 457/454/457
f 454/462/454 438/435/438 459/455/459
f 457/454/457 453/453/453 385/374/385
f 455/456/455 457/454/457 456/387/456
f 443/457/443 458/488/458 457/454/457
f 459/455/459 457/454/457 458/488/458
f 380/384/380 460/458/460 393/380/393
f 460/458/460 461/477/461 394/383/394
f 463/489/463 459/455/459 458/488/458
f 464/472/464 463/489/463 458/488/458
f 461/477/461 466/459/466 394/383/394
f 462/479/462 466/459/466 461/477/461
f 462/479/462 465/470/465 466/459/466
f 473/468/473 475/471/475 462/479/462
f 475/471/475 465/470/465 462/479/462
f 468/463/468 450/452/450 449/447/449
f 470/480/470 450/452/450 468/463/468
f 469/464/469 470/480/470 468/463/468
f 450/452/450 470/480/470 477/451/477
f 481/469/481 470/480/470 469/464/469
f 454/462/454 471/465/471 467/461/467
f 463/489/463 472/466/472 459/455/459
f 471/465/471 474/467/474 469/464/469
f 473/468/473 481/469/481 474/467/474
f 463/489/463 475/471/475 472/466/472
f 464/472/464 475/471/475 463/489/463
f 475/471/475 473/468/473 472/466/472
f 451/449/451 380/384/380 379/368/379
f 476/473/476 380/384/380 451/449/451
f 477/451/477 452/474/452 445/448/445
f 479/478/479 461/477/461 460/458/460
f 479/478/479 460/458/460 476/473/476
f 478/475/478 480/476/480 476/473/476
f 477/451/477 481/469/481 482/481/482
f 477/451/477 482/481/482 478/475/478
f 482/481/482 462/479/462 480/476/480
f 482/481/482 473/468/473 462/479/462
f 482/481/482 480/476/480 478/475/478
