# Blender 5.2.1 LTS
# www.blender.org
o ZombieHead3Hair
v -0.459295 -0.035559 0.004415
v -0.455642 -0.023673 0.016617
v -0.450330 0.005605 0.020773
v -0.443789 0.048050 0.001161
v -0.445084 0.025316 0.015772
v -0.384463 0.151719 0.206011
v -0.357830 0.161125 0.255649
v -0.374920 0.215201 0.182526
v -0.367314 0.153048 0.245838
v -0.333926 0.208152 0.259942
v -0.397268 0.140829 0.099396
v -0.391708 0.149229 0.149573
v -0.396103 0.184184 0.063469
v -0.380964 0.241409 0.129064
v -0.351107 0.309935 0.085668
v -0.398351 0.152444 0.077631
v -0.408016 0.170603 0.023450
v -0.410554 0.167589 0.013661
v -0.412042 0.173070 0.003541
v -0.404283 0.230163 -0.004648
v -0.400823 0.193518 0.055750
v -0.403203 0.192207 0.043580
v -0.416072 0.201392 -0.003175
v -0.393500 0.231461 0.068216
v -0.380584 0.247984 -0.008331
v -0.388654 0.259875 0.019481
v -0.361975 0.295184 0.032375
v -0.357996 0.274569 0.003844
v -0.347396 0.288232 0.006622
v -0.370472 0.255310 -0.004033
v -0.352725 0.326205 0.015172
v -0.341624 0.278031 0.003431
v -0.344866 0.302618 0.008365
v -0.343827 0.345217 0.014726
v -0.321723 0.362505 0.006193
v -0.320254 0.232539 0.258842
v -0.329669 0.280280 0.207748
v -0.277511 0.279382 0.264258
v -0.304593 0.325575 0.176941
v -0.260170 0.290464 0.266943
v -0.259622 0.312666 0.244794
v -0.223605 0.296371 0.282827
v -0.190504 0.338666 0.263711
v -0.225844 0.370710 0.192146
v -0.307199 0.378254 0.073088
v -0.302715 0.346920 0.140319
v -0.270975 0.395774 0.102212
v -0.187972 0.412620 0.161118
v -0.295964 0.382982 0.009785
v -0.270492 0.399758 0.037586
v -0.209223 0.435363 0.050169
v -0.222485 0.430397 0.045248
v -0.178043 0.308983 0.292615
v -0.161731 0.286398 0.321117
v -0.168763 0.305503 0.302656
v -0.134108 0.281901 0.337881
v -0.115266 0.339514 0.295911
v -0.149004 0.415345 0.184189
v -0.119263 0.406771 0.232095
v -0.141527 0.408530 0.205348
v -0.105304 0.397844 0.246111
v -0.128443 0.436994 0.145075
v -0.118609 0.447523 0.110406
v -0.142046 0.451431 0.070639
v -0.105897 0.450013 0.099587
v -0.173162 0.444138 0.072905
v -0.176094 0.455243 -0.003370
v -0.170767 0.452572 0.027016
v -0.144675 0.454001 0.057953
v -0.125472 0.472288 0.007724
v -0.066447 0.281595 0.353137
v -0.113153 0.306581 0.329260
v -0.022566 0.278411 0.355985
v -0.054816 0.319382 0.323836
v -0.086846 0.394591 0.256101
v 0.029220 0.340664 0.311508
v -0.060426 0.391910 0.255308
v -0.011789 0.397710 0.246545
v 0.011132 0.387090 0.252307
v -0.049110 0.492624 -0.042439
v -0.046925 0.468691 0.081475
v -0.020884 0.478774 0.059453
v 0.015512 0.486732 0.038339
v -0.213159 -0.369619 -0.156536
v -0.160024 -0.393203 -0.158218
v -0.173005 -0.370823 -0.204641
v -0.067801 -0.401632 -0.208254
v -0.073425 -0.367004 -0.266044
v -0.099745 -0.411945 -0.159754
v -0.043736 -0.420868 -0.163689
v 0.012595 -0.424673 -0.164735
v -0.027166 -0.363393 -0.279336
v -0.006885 -0.404024 -0.215730
v -0.007503 -0.370643 -0.269822
v -0.000350 -0.351904 -0.244963
v -0.460848 -0.047321 -0.043338
v -0.460097 -0.044625 -0.074699
v -0.462069 -0.021887 -0.101904
v -0.465590 0.032742 -0.078006
v -0.451053 0.060487 -0.032311
v -0.454113 0.086410 -0.095506
v -0.431124 0.093630 -0.005099
v -0.435675 0.146546 -0.082165
v -0.421982 0.124045 -0.002962
v -0.415479 0.180740 -0.020115
v -0.416818 0.161272 -0.008162
v -0.413572 0.197364 -0.048231
v -0.403166 0.199823 -0.091370
v -0.455901 -0.052866 -0.118067
v -0.448789 -0.048970 -0.153400
v -0.446513 0.031638 -0.171641
v -0.442540 -0.056365 -0.167722
v -0.439951 -0.051945 -0.179251
v -0.435796 -0.015032 -0.197266
v -0.441943 0.110668 -0.117304
v -0.441774 0.119166 -0.109985
v -0.431720 0.145319 -0.126945
v -0.423052 0.138426 -0.174691
v -0.424719 0.111794 -0.189512
v -0.423226 0.154586 -0.160193
v -0.419443 0.187532 -0.107228
v -0.425971 0.156474 -0.143150
v -0.424774 -0.039103 -0.226001
v -0.431640 0.041588 -0.200672
v -0.420154 0.045125 -0.226547
v -0.414630 0.118891 -0.216476
v -0.325733 0.283907 -0.176156
v -0.337561 -0.197578 -0.264850
v -0.332291 -0.251057 -0.208411
v -0.349255 -0.223577 -0.228230
v -0.300260 -0.236858 -0.279877
v -0.394431 -0.119175 -0.240016
v -0.366739 -0.175117 -0.241342
v -0.362688 -0.127014 -0.289977
v -0.420355 -0.048738 -0.232480
v -0.413150 -0.089535 -0.234299
v -0.421277 -0.058369 -0.229113
v -0.366864 -0.090369 -0.289599
v -0.352912 -0.053173 -0.329536
v -0.390859 0.009765 -0.297697
v -0.414821 0.152390 -0.208181
v -0.390040 0.050782 -0.294096
v -0.379441 0.136532 -0.266501
v -0.372999 0.228709 -0.199404
v -0.336045 0.231617 -0.268594
v -0.355040 0.179862 -0.279666
v -0.365494 0.241845 -0.191468
v -0.357065 0.251128 -0.182915
v -0.336585 0.269565 -0.226834
v -0.346633 0.258500 -0.180184
v -0.342437 0.265130 -0.180777
v -0.329566 0.295582 -0.195317
v -0.320362 0.299683 -0.179871
v -0.318293 0.316221 -0.189483
v -0.290870 -0.149569 -0.366381
v -0.328821 -0.082372 -0.345905
v -0.349447 -0.009057 -0.348216
v -0.292849 -0.017488 -0.398765
v -0.329637 0.045468 -0.351201
v -0.358241 0.087244 -0.323432
v -0.345689 0.116653 -0.335907
v -0.303275 0.100556 -0.374879
v -0.222794 0.430564 -0.048274
v -0.220960 0.431666 -0.058675
v -0.209364 0.442317 -0.044133
v -0.211044 0.438378 -0.060386
v -0.305601 -0.299920 -0.196439
v -0.289480 -0.318212 -0.179783
v -0.271173 -0.335886 -0.164493
v -0.275798 -0.318751 -0.211675
v -0.237600 -0.283089 -0.292258
v -0.202855 -0.323802 -0.267823
v -0.281122 0.291102 -0.282791
v -0.247745 0.332753 -0.281275
v -0.288968 0.343561 -0.193962
v -0.258005 0.370710 -0.208658
v -0.230155 0.380556 -0.221620
v -0.192067 0.381549 -0.264345
v -0.214208 0.387627 -0.220463
v -0.300430 -0.185662 -0.309961
v -0.232982 -0.189818 -0.373126
v -0.265326 -0.225812 -0.315417
v -0.194890 -0.236339 -0.370123
v -0.298265 -0.126131 -0.373336
v -0.318034 0.164210 -0.334652
v -0.282647 0.221275 -0.358755
v -0.184089 0.318095 -0.343540
v -0.236471 0.278657 -0.345768
v -0.200119 -0.131209 -0.431542
v -0.209179 -0.097661 -0.435794
v -0.272867 -0.084584 -0.396263
v -0.246245 -0.062459 -0.424156
v -0.163487 -0.044696 -0.476506
v -0.261210 0.048041 -0.412526
v -0.217747 0.053573 -0.450247
v -0.252522 0.119801 -0.415379
v -0.255853 0.156863 -0.395433
v -0.192652 0.224693 -0.405336
v -0.257190 0.233973 -0.370274
v -0.204755 0.443969 -0.053380
v -0.181108 0.455000 -0.090657
v -0.165745 0.461578 -0.019917
v -0.166924 0.462687 -0.080521
v -0.138455 0.472953 -0.072003
v -0.135945 0.474253 -0.035973
v -0.130515 0.476484 -0.056602
v -0.097359 0.486298 -0.119125
v -0.184569 0.449470 -0.105525
v -0.175279 0.448921 -0.126476
v -0.144714 0.453211 -0.159122
v -0.144945 0.439938 -0.182142
v -0.080251 0.454609 -0.194606
v -0.162467 -0.346042 -0.254859
v -0.146412 -0.319837 -0.307728
v -0.034105 -0.350214 -0.303713
v -0.132200 0.394243 -0.271680
v -0.116114 0.405442 -0.256710
v -0.164625 0.423275 -0.199998
v -0.103132 0.420804 -0.237113
v -0.175202 -0.266280 -0.352193
v -0.100595 -0.300327 -0.361600
v -0.196393 -0.185410 -0.401195
v -0.116434 -0.255054 -0.385901
v -0.181881 0.292481 -0.367913
v -0.120795 0.310386 -0.369343
v -0.138743 0.368877 -0.306404
v -0.124062 0.345789 -0.337372
v -0.158268 -0.205261 -0.406536
v -0.151556 -0.225022 -0.396714
v -0.148968 -0.178813 -0.426866
v -0.130748 -0.165134 -0.442966
v -0.105448 -0.130599 -0.474244
v -0.121055 -0.140150 -0.458797
v -0.218006 0.009927 -0.451319
v -0.174812 0.026257 -0.472669
v -0.174220 0.055049 -0.469524
v -0.175347 0.085946 -0.463326
v -0.161078 0.132442 -0.455127
v -0.146927 0.154755 -0.452830
v -0.209772 0.179536 -0.420933
v -0.148676 0.213170 -0.425260
v -0.134468 0.164239 -0.452297
v -0.093202 0.215239 -0.434195
v -0.106627 0.226526 -0.423339
v -0.111622 0.287865 -0.391971
v -0.088830 -0.066199 -0.498996
v -0.102745 0.004154 -0.504422
v -0.165248 0.009167 -0.477693
v -0.156384 0.008150 -0.481393
v -0.146398 0.021855 -0.485227
v -0.139886 0.054142 -0.482698
v -0.125612 0.089214 -0.478785
v -0.122758 0.141511 -0.465505
v -0.015977 0.474134 -0.176085
v -0.089540 0.427529 -0.230090
v -0.066699 0.434464 -0.228538
v -0.010340 0.440949 -0.238659
v -0.106716 -0.319109 -0.339433
v -0.083180 -0.318164 -0.346925
v -0.044402 -0.329690 -0.336362
v -0.035928 -0.336693 -0.326548
v -0.014813 -0.316767 -0.347051
v -0.012025 -0.311713 -0.351369
v -0.029216 -0.200678 -0.446376
v 0.001640 -0.220391 -0.432122
v -0.066032 -0.143702 -0.477108
v -0.050015 -0.164033 -0.469406
v -0.012016 0.213119 -0.452520
v -0.125227 0.163000 -0.454849
v -0.059939 0.220939 -0.438856
v -0.010980 0.249024 -0.430627
v -0.085775 -0.132803 -0.478329
v -0.069512 -0.120153 -0.491099
v -0.007325 -0.080645 -0.508052
v -0.085875 0.052346 -0.496154
v -0.007535 0.098723 -0.499051
v 0.036015 0.275253 0.351299
v 0.110731 0.304644 0.322884
v 0.090060 0.276355 0.341323
v 0.030383 0.372664 0.274508
v 0.054051 0.362285 0.278466
v 0.103202 0.347958 0.275691
v 0.077817 0.424102 0.185188
v 0.086632 0.420850 0.186560
v 0.082324 0.427312 0.178266
v 0.091593 0.424225 0.179851
v 0.051948 0.493059 0.013057
v 0.080573 0.489998 0.008260
v 0.098643 0.484888 0.011565
v 0.165769 0.277712 0.318730
v 0.207324 0.307853 0.276996
v 0.236728 0.280036 0.278700
v 0.120318 0.354041 0.263426
v 0.125818 0.381905 0.232223
v 0.136546 0.385302 0.220109
v 0.161850 0.389694 0.207296
v 0.175015 0.401707 0.184555
v 0.198489 0.395707 0.180902
v 0.163582 0.415642 0.165951
v 0.119907 0.449712 0.131909
v 0.130302 0.431913 0.155478
v 0.131228 0.455345 0.111462
v 0.156953 0.455565 0.090093
v 0.166632 0.464058 -0.036007
v 0.146424 0.469294 0.048078
v 0.163289 0.460498 0.071927
v 0.192696 0.454387 -0.011290
v 0.310948 0.217882 0.250430
v 0.258942 0.275789 0.259004
v 0.301460 0.307833 0.189653
v 0.276242 0.261897 0.251669
v 0.331526 0.252293 0.198867
v 0.230689 0.346263 0.206580
v 0.232435 0.411531 0.080274
v 0.299806 0.339847 0.147253
v 0.271147 0.388325 0.095828
v 0.244919 0.417150 0.013167
v 0.280035 0.388043 0.006359
v 0.322049 0.360363 0.026306
v 0.300776 0.377908 0.011315
v 0.219332 0.434255 0.015369
v 0.232179 0.425637 0.016417
v 0.225937 0.404511 0.023976
v 0.342636 0.163032 0.250762
v 0.358125 0.151899 0.238066
v 0.390269 0.148890 0.150464
v 0.361537 0.187905 0.206374
v 0.397466 0.142280 0.116128
v 0.405569 0.139718 0.079018
v 0.382580 0.208117 0.161881
v 0.393610 0.224594 0.064486
v 0.415427 0.191047 0.006876
v 0.344421 0.285260 0.148218
v 0.337070 0.331789 0.083403
v 0.373254 0.290689 0.089672
v 0.414951 0.147330 0.040620
v 0.421883 0.103506 0.020449
v 0.415887 0.135996 0.024781
v 0.398718 0.241371 0.007401
v 0.422473 0.149766 0.010201
v 0.370369 0.300201 0.028846
v 0.337945 0.343627 0.031501
v 0.455901 -0.026356 0.015737
v 0.459996 -0.036458 0.002521
v 0.434876 0.067409 0.021087
v 0.434328 0.068992 0.021538
v 0.447315 0.013372 0.020596
v 0.447176 -0.003716 0.020279
v 0.447156 0.011001 0.020322
v 0.448530 0.008939 0.007590
v 0.434205 0.070710 0.019750
v 0.425770 0.100310 0.015420
v 0.419361 0.114707 0.009245
v 0.049293 -0.421552 -0.165582
v 0.098682 -0.410210 -0.159766
v 0.127642 -0.388988 -0.190552
v 0.013094 -0.371938 -0.267105
v 0.046063 -0.372713 -0.265019
v 0.127345 -0.366607 -0.247207
v 0.082082 -0.363809 -0.270025
v 0.145502 -0.393595 -0.156532
v 0.217380 -0.363324 -0.156538
v -0.030475 0.495443 -0.077651
v 0.032677 0.485100 -0.084504
v 0.103135 0.455634 -0.184043
v 0.012717 0.448317 -0.230425
v 0.023484 0.458886 -0.206807
v 0.037081 0.462307 -0.196619
v 0.083804 0.456685 -0.192586
v 0.097167 -0.267337 -0.374706
v 0.003765 -0.161481 -0.475476
v 0.024541 -0.253838 -0.406453
v 0.014845 -0.233174 -0.423258
v 0.042034 -0.265650 -0.388899
v 0.081004 -0.221086 -0.431996
v 0.052536 0.242795 -0.433062
v 0.079875 0.240095 -0.431093
v 0.100506 0.242704 -0.425079
v 0.120653 0.183759 -0.446728
v 0.014262 0.250517 -0.430214
v 0.065046 -0.108878 -0.491876
v -0.001640 -0.037343 -0.519498
v 0.007764 0.000513 -0.514282
v 0.072038 0.034105 -0.511092
v 0.065286 0.082488 -0.498928
v 0.086134 0.145695 -0.473577
v 0.069618 0.475515 -0.144147
v 0.159602 0.464788 -0.046691
v 0.159682 0.461314 -0.065049
v 0.170658 0.450814 -0.090810
v 0.232822 0.418517 -0.151716
v 0.133456 0.451731 -0.161789
v 0.154194 0.445180 -0.164482
v 0.157205 0.441988 -0.176489
v 0.182968 0.442343 -0.129953
v 0.201944 0.435897 -0.143212
v 0.139777 -0.337322 -0.279299
v 0.184257 -0.314289 -0.286071
v 0.221339 -0.335436 -0.215139
v 0.128986 0.423621 -0.253826
v 0.140984 0.407197 -0.265356
v 0.162650 0.390712 -0.276299
v 0.199478 0.373439 -0.275621
v 0.126139 0.431741 -0.240560
v 0.125172 0.436251 -0.222370
v 0.135301 0.441348 -0.203913
v 0.129894 -0.298624 -0.331747
v 0.117916 -0.276895 -0.362037
v 0.149868 -0.326109 -0.288801
v 0.149867 -0.312177 -0.307390
v 0.142329 0.320267 -0.360597
v 0.148760 0.295486 -0.370426
v 0.143109 0.350446 -0.331990
v 0.138665 0.337764 -0.344468
v 0.166169 0.373419 -0.303524
v 0.133668 -0.233003 -0.399364
v 0.131917 -0.224536 -0.408207
v 0.192210 -0.249765 -0.364617
v 0.144584 -0.236553 -0.391992
v 0.160179 -0.231027 -0.390197
v 0.142980 -0.197737 -0.423609
v 0.175013 -0.216074 -0.393506
v 0.185547 -0.191731 -0.403426
v 0.166606 -0.170782 -0.441252
v 0.174263 -0.121133 -0.456202
v 0.173499 -0.103551 -0.459242
v 0.160754 -0.112051 -0.457804
v 0.140595 -0.046476 -0.483445
v 0.172678 -0.034176 -0.471142
v 0.176597 -0.068354 -0.462848
v 0.140767 0.107539 -0.469386
v 0.151058 0.134608 -0.454949
v 0.177221 0.148599 -0.441176
v 0.114763 0.252064 -0.418699
v 0.161694 0.214338 -0.427651
v 0.191533 0.174438 -0.421952
v 0.205116 0.178455 -0.411054
v 0.143428 0.278785 -0.388776
v 0.178982 0.276732 -0.371183
v 0.154894 0.063286 -0.479893
v 0.163388 0.030367 -0.477924
v 0.237428 -0.349698 -0.161808
v 0.243993 -0.340344 -0.173704
v 0.249931 0.397425 -0.162939
v 0.265023 0.378913 -0.179331
v 0.223119 -0.328389 -0.223852
v 0.241309 -0.333952 -0.192440
v 0.234725 -0.322273 -0.223657
v 0.255124 -0.318205 -0.207523
v 0.277650 -0.306462 -0.196492
v 0.257303 -0.287571 -0.246257
v 0.302489 -0.280370 -0.189108
v 0.240352 -0.271037 -0.296125
v 0.292194 -0.221848 -0.300639
v 0.264455 0.320282 -0.281582
v 0.256445 0.367165 -0.217156
v 0.296398 0.342544 -0.194832
v 0.271300 -0.164294 -0.365446
v 0.287729 -0.084866 -0.372610
v 0.311042 0.000430 -0.388328
v 0.262683 0.160516 -0.381726
v 0.276460 0.219033 -0.352535
v 0.273247 0.245267 -0.331190
v 0.289280 0.276362 -0.301570
v 0.199840 -0.170066 -0.414706
v 0.217255 -0.147527 -0.418394
v 0.283348 -0.129615 -0.370814
v 0.246540 -0.088694 -0.410450
v 0.259245 -0.049861 -0.419400
v 0.263231 -0.004977 -0.426269
v 0.260300 0.043120 -0.423352
v 0.297118 0.057074 -0.402003
v 0.236226 0.150762 -0.408929
v 0.258167 0.092242 -0.420253
v 0.248717 0.125289 -0.420079
v 0.219649 0.225583 -0.383171
v 0.219282 0.170844 -0.407261
v 0.315979 -0.274835 -0.180705
v 0.330455 -0.270422 -0.163548
v 0.351566 -0.233642 -0.199394
v 0.346814 -0.253942 -0.158885
v 0.387869 -0.190465 -0.160063
v 0.416626 -0.155837 -0.160716
v 0.382258 -0.160586 -0.220944
v 0.427647 -0.122830 -0.165688
v 0.402803 0.203339 -0.176222
v 0.412223 0.178376 -0.160767
v 0.354759 -0.160891 -0.279077
v 0.362172 -0.115809 -0.288917
v 0.401786 -0.073587 -0.239190
v 0.389026 0.050946 -0.296750
v 0.409600 0.062341 -0.258578
v 0.382133 0.169187 -0.257157
v 0.412323 0.151161 -0.214946
v 0.421242 0.094476 -0.233664
v 0.326529 0.271499 -0.265172
v 0.357359 0.172556 -0.296191
v 0.356477 0.218006 -0.274948
v 0.342185 0.307025 -0.196462
v 0.350344 0.292775 -0.195703
v 0.373053 0.249793 -0.189048
v 0.260137 -0.192041 -0.348381
v 0.339783 -0.054211 -0.340359
v 0.354835 0.010313 -0.331041
v 0.334256 0.095487 -0.354223
v 0.327156 0.126997 -0.351156
v 0.462817 -0.041197 -0.020117
v 0.463201 -0.041991 -0.065699
v 0.462439 -0.052440 -0.114508
v 0.452264 0.017449 -0.005418
v 0.448390 0.051710 -0.017088
v 0.465082 -0.003787 -0.099111
v 0.450289 0.040135 -0.090270
v 0.435493 0.097696 -0.033498
v 0.433228 0.109723 -0.049550
v 0.438812 0.092842 -0.069158
v 0.434378 0.107671 -0.059421
v 0.433045 -0.108522 -0.163268
v 0.449998 -0.052071 -0.153328
v 0.437348 -0.071694 -0.163456
v 0.457686 -0.021667 -0.157367
v 0.437644 0.026622 -0.206687
v 0.436983 0.056813 -0.182701
v 0.449717 0.029530 -0.107339
v 0.447627 0.030663 -0.122134
v 0.443869 0.043775 -0.134527
v 0.443492 0.068486 -0.140976
v 0.427555 0.145125 -0.145833
v 0.441693 0.091786 -0.179780
v 0.445046 0.084752 -0.137581
v 0.439952 0.119263 -0.144551
v 0.408609 -0.044955 -0.239382
v 0.393698 0.004657 -0.280628
vn -0.9905 0.0652 0.1208
vn -0.9740 0.1344 0.1825
vn -0.9554 0.2118 0.2058
vn -0.9203 0.2568 0.2951
vn -0.9359 0.2623 0.2352
vn 0.0355 0.9982 -0.0486
vn -0.8012 0.3639 0.4749
vn -0.8715 0.3679 0.3243
vn -0.8520 0.3516 0.3880
vn -0.7870 0.4160 0.4555
vn -0.9917 0.0864 0.0954
vn -0.9724 0.1684 0.1614
vn -0.9700 0.0758 0.2311
vn -0.9134 0.3415 0.2217
vn -0.8305 0.5206 0.1982
vn -0.9895 0.1082 0.0962
vn -0.9722 -0.0216 0.2330
vn -0.9689 0.1280 0.2118
vn -0.9798 -0.0592 0.1908
vn -0.8753 0.4827 -0.0274
vn -0.9333 0.0641 0.3533
vn -0.9667 0.0555 0.2500
vn -0.9682 0.1474 0.2021
vn -0.9566 0.2269 0.1827
vn -0.4940 0.7384 -0.4590
vn -0.7967 0.5779 -0.1769
vn -0.8635 0.4677 -0.1890
vn -0.5034 0.5379 -0.6762
vn -0.5567 0.3528 -0.7521
vn -0.4871 0.7062 -0.5138
vn -0.9389 0.3407 0.0495
vn -0.0787 0.2568 -0.9632
vn -0.3080 0.1676 -0.9365
vn -0.8007 0.5914 0.0959
vn -0.6226 0.7810 -0.0487
vn -0.7425 0.4540 0.4926
vn -0.7439 0.5019 0.4412
vn -0.5725 0.5872 0.5723
vn -0.6028 0.6939 0.3939
vn -0.4529 0.6291 0.6318
vn -0.4734 0.7017 0.5325
vn -0.3749 0.6092 0.6988
vn -0.3884 0.6648 0.6381
vn -0.5051 0.6949 0.5119
vn -0.6616 0.7326 0.1600
vn -0.6531 0.6540 0.3818
vn -0.5068 0.8126 0.2876
vn -0.3759 0.8486 0.3723
vn -0.5814 0.8125 -0.0425
vn -0.5139 0.8579 0.0014
vn -0.4180 0.8772 0.2360
vn -0.4640 0.5541 0.6912
vn -0.5012 0.4865 0.7157
vn -0.3612 0.5724 0.7362
vn -0.3633 0.6049 0.7086
vn -0.3034 0.5334 0.7896
vn -0.2374 0.6561 0.7163
vn -0.2821 0.8843 0.3721
vn -0.3602 0.7056 0.6103
vn 0.0634 0.9977 0.0257
vn -0.2827 0.6503 0.7051
vn -0.3146 0.9206 0.2312
vn -0.2124 0.9560 0.2025
vn -0.2028 0.9440 0.2602
vn -0.1516 0.9635 0.2205
vn -0.2883 0.9160 0.2789
vn -0.3436 0.9284 0.1413
vn -0.3273 0.9277 0.1797
vn -0.2725 0.9329 0.2355
vn -0.2378 0.9565 0.1691
vn -0.0334 0.6080 0.7932
vn -0.2119 0.6060 0.7667
vn 0.0208 0.7411 0.6710
vn -0.0351 0.6248 0.7800
vn -0.1536 0.6809 0.7161
vn 0.0880 0.6037 0.7923
vn 0.1008 0.8872 0.4502
vn 0.0736 0.5937 0.8013
vn 0.0791 0.8294 0.5530
vn -0.1313 0.9874 0.0883
vn -0.1898 0.9562 0.2227
vn -0.1751 0.9679 0.1801
vn -0.0968 0.9841 0.1492
vn -0.4237 -0.8426 -0.3326
vn -0.3282 -0.8835 -0.3341
vn -0.3663 -0.8339 -0.4128
vn -0.1681 -0.8985 -0.4055
vn -0.1933 -0.8226 -0.5348
vn -0.2274 -0.9070 -0.3543
vn 0.0170 0.4907 -0.8712
vn 0.0582 -0.8978 -0.4365
vn -0.0710 -0.8722 -0.4839
vn 0.0124 -0.8995 -0.4368
vn 0.0080 -0.6095 -0.7928
vn 0.1305 0.7733 -0.6205
vn -0.9998 0.0004 0.0210
vn -0.9897 -0.1366 -0.0425
vn -0.9912 -0.0630 -0.1162
vn -0.9943 0.1064 0.0002
vn -0.9460 0.2264 0.2319
vn -0.9705 0.2358 -0.0501
vn -0.9018 0.2567 0.3477
vn -0.9512 0.3061 0.0389
vn -0.8974 0.2223 0.3812
vn -0.9446 0.2713 0.1846
vn -0.9772 0.1557 0.1440
vn -0.9029 0.4241 0.0702
vn -0.5468 0.8330 -0.0844
vn -0.9806 -0.1107 -0.1619
vn -0.9609 -0.0612 -0.2700
vn -0.9461 0.0800 -0.3138
vn -0.9307 -0.2190 -0.2930
vn -0.9464 -0.0803 -0.3129
vn -0.9388 -0.0270 -0.3435
vn -0.9382 0.2899 -0.1892
vn -0.9453 0.2913 -0.1470
vn -0.9555 0.2159 -0.2011
vn -0.9535 0.2041 -0.2217
vn -0.9411 0.1942 -0.2768
vn -0.9641 0.1788 -0.1965
vn -0.8540 0.5191 -0.0342
vn -0.9560 0.2318 -0.1796
vn -0.5106 0.0460 -0.8586
vn -0.8993 0.1077 -0.4238
vn -0.9122 0.0751 -0.4028
vn -0.9221 0.0946 -0.3751
vn -0.7619 0.4741 0.4413
vn -0.6962 -0.4321 -0.5733
vn -0.6947 -0.5793 -0.4264
vn -0.6803 -0.5499 -0.4847
vn -0.6235 -0.5111 -0.5916
vn -0.7818 -0.3153 -0.5380
vn -0.7610 -0.4191 -0.4952
vn -0.7873 -0.2887 -0.5447
vn 0.8760 0.0822 0.4752
vn -0.7549 -0.1853 -0.6291
vn -0.8054 -0.1143 -0.5815
vn -0.8019 -0.1996 -0.5631
vn -0.7543 -0.2412 -0.6107
vn -0.8298 -0.0181 -0.5578
vn -0.8114 0.3215 -0.4881
vn -0.8322 0.1178 -0.5418
vn -0.7915 0.2870 -0.5396
vn -0.7949 0.4805 -0.3706
vn -0.7651 0.4349 -0.4748
vn -0.7650 0.3487 -0.5415
vn -0.8009 0.5855 -0.1254
vn -0.6852 0.7255 -0.0635
vn -0.7601 0.5287 -0.3779
vn -0.4711 0.3698 0.8008
vn -0.7166 0.5309 0.4524
vn -0.8589 0.5081 0.0643
vn -0.8400 0.3615 0.4046
vn -0.7923 0.5756 -0.2021
vn -0.5831 -0.5098 -0.6326
vn -0.7350 -0.1752 -0.6550
vn -0.7235 -0.0193 -0.6901
vn -0.6351 -0.0414 -0.7713
vn -0.6781 0.0985 -0.7283
vn -0.6731 -0.0100 -0.7395
vn -0.7192 0.2470 -0.6494
vn -0.6541 0.1388 -0.7436
vn -0.6050 0.7926 -0.0756
vn -0.5619 0.8272 -0.0114
vn -0.6083 0.7835 -0.1269
vn -0.5982 0.7953 -0.0985
vn -0.6581 -0.6331 -0.4076
vn -0.5840 -0.7762 -0.2374
vn -0.4341 -0.8412 -0.3225
vn -0.4955 -0.7760 -0.3902
vn -0.4859 -0.6285 -0.6074
vn -0.3781 -0.7874 -0.4868
vn -0.6469 0.5639 -0.5133
vn -0.5657 0.6120 -0.5526
vn -0.6867 0.7164 -0.1235
vn -0.6061 0.6773 -0.4169
vn -0.4392 0.8175 -0.3726
vn -0.3415 0.8307 -0.4396
vn -0.3470 0.8692 -0.3523
vn -0.6299 -0.4964 -0.5974
vn -0.5220 -0.5110 -0.6829
vn -0.5644 -0.4951 -0.6606
vn -0.4468 -0.5806 -0.6806
vn -0.6502 -0.2406 -0.7207
vn -0.7174 0.3048 -0.6264
vn -0.6458 0.3738 -0.6657
vn -0.3606 0.6638 -0.6552
vn -0.5088 0.6240 -0.5931
vn -0.4379 -0.3657 -0.8213
vn -0.4977 -0.2369 -0.8344
vn -0.6041 -0.1696 -0.7786
vn -0.5470 -0.1934 -0.8145
vn -0.4200 -0.1482 -0.8953
vn -0.6423 0.0787 -0.7624
vn -0.5293 0.0996 -0.8426
vn -0.5561 0.2485 -0.7931
vn -0.5685 0.2868 -0.7711
vn -0.3383 0.4411 -0.8313
vn -0.4999 0.4007 -0.7678
vn -0.5678 0.8115 -0.1379
vn -0.4012 0.8940 -0.1996
vn -0.3390 0.9313 0.1331
vn -0.3749 0.9202 -0.1129
vn -0.3393 0.9402 -0.0297
vn -0.2065 0.9741 0.0920
vn -0.2236 0.9741 0.0343
vn -0.2182 0.9552 -0.1997
vn -0.4441 0.8686 -0.2197
vn -0.3640 0.9067 -0.2131
vn -0.2755 0.8780 -0.3914
vn -0.2550 0.8451 -0.4700
vn -0.2133 0.8499 -0.4818
vn -0.3040 -0.8310 -0.4658
vn -0.3259 -0.7889 -0.5210
vn -0.1524 -0.8628 -0.4820
vn -0.2549 0.8376 -0.4831
vn 0.0663 0.7635 -0.6424
vn -0.3192 0.8194 -0.4762
vn -0.2037 0.8604 -0.4672
vn -0.3996 -0.6408 -0.6555
vn -0.3208 -0.6413 -0.6971
vn -0.4371 -0.4688 -0.7676
vn -0.3210 -0.5711 -0.7555
vn -0.3144 0.5810 -0.7507
vn -0.2070 0.6476 -0.7333
vn -0.2756 0.7468 -0.6053
vn -0.2404 0.6846 -0.6882
vn -0.3608 -0.4937 -0.7913
vn -0.3205 -0.5630 -0.7618
vn -0.3720 -0.4608 -0.8058
vn -0.3505 -0.4323 -0.8309
vn -0.3464 -0.3523 -0.8695
vn -0.3257 -0.5620 -0.7603
vn -0.5320 -0.0277 -0.8463
vn -0.4367 0.0420 -0.8986
vn -0.4050 0.1359 -0.9041
vn -0.4198 0.2298 -0.8780
vn -0.3979 0.2784 -0.8742
vn -0.3008 0.3626 -0.8821
vn -0.4791 0.3184 -0.8180
vn -0.2091 0.5197 -0.8283
vn -0.2265 0.4198 -0.8789
vn -0.1717 0.4768 -0.8621
vn -0.1689 0.5378 -0.8260
vn -0.2171 0.5335 -0.8175
vn -0.2572 -0.1905 -0.9474
vn -0.2506 0.0680 -0.9657
vn -0.4026 -0.4589 -0.7920
vn -0.3522 -0.6046 -0.7144
vn -0.3329 0.1075 -0.9368
vn -0.2339 0.1558 -0.9597
vn -0.1989 0.2339 -0.9517
vn -0.1632 0.3447 -0.9244
vn -0.0235 0.9403 -0.3395
vn -0.2272 0.8276 -0.5133
vn -0.1984 0.8060 -0.5577
vn -0.1312 0.8687 -0.4777
vn -0.2796 -0.8043 -0.5243
vn -0.1425 -0.8209 -0.5530
vn -0.1147 -0.8528 -0.5096
vn -0.1212 -0.8575 -0.5000
vn 0.0820 -0.4965 -0.8641
vn -0.0094 -0.5803 -0.8144
vn -0.2627 -0.5213 -0.8120
vn -0.0790 -0.5141 -0.8541
vn -0.0530 0.4446 -0.8942
vn -0.1726 0.4349 -0.8838
vn -0.1850 0.4191 -0.8889
vn -0.0701 0.5208 -0.8508
vn -0.2319 -0.5272 -0.8175
vn -0.1913 -0.3586 -0.9137
vn 0.0167 -0.2744 -0.9615
vn -0.1636 0.2072 -0.9645
vn -0.0345 0.1957 -0.9801
vn 0.1031 0.5434 0.8331
vn 0.2307 0.5784 0.7824
vn 0.1819 0.4402 0.8793
vn 0.1050 0.7756 0.6224
vn 0.2332 0.7241 0.6491
vn 0.2526 0.7183 0.6482
vn 0.1997 0.8213 0.5344
vn 0.2093 0.8027 0.5585
vn 0.1911 0.8371 0.5125
vn 0.2006 0.8197 0.5366
vn 0.0352 0.9993 -0.0134
vn 0.1783 0.9775 -0.1129
vn 0.2849 0.9585 -0.0126
vn 0.3382 0.5289 0.7784
vn 0.4168 0.6414 0.6442
vn 0.5345 0.6014 0.5939
vn 0.3009 0.6903 0.6580
vn 0.3108 0.7078 0.6344
vn -0.0557 0.9731 0.2235
vn 0.5923 -0.2136 0.7769
vn 0.2867 0.8079 0.5148
vn 0.4210 0.7509 0.5088
vn 0.2637 0.8308 0.4902
vn 0.3116 0.8447 0.4351
vn 0.2400 0.8227 0.5154
vn 0.3425 0.8399 0.4210
vn 0.4448 0.8148 0.3718
vn 0.2639 0.9638 -0.0385
vn 0.3488 0.9362 0.0429
vn 0.4913 0.8405 0.2286
vn 0.4109 0.9094 0.0647
vn 0.6922 0.4459 0.5674
vn 0.5896 0.6622 0.4625
vn 0.6248 0.5613 0.5428
vn 0.6442 0.4930 0.5848
vn 0.7023 0.4555 0.5470
vn 0.4512 0.6662 0.5938
vn 0.5118 0.8338 0.2071
vn 0.6313 0.6714 0.3881
vn 0.5549 0.8004 0.2266
vn 0.5657 0.8047 -0.1799
vn 0.5479 0.8268 0.1274
vn 0.6125 0.7719 0.1701
vn 0.2484 0.7855 0.5668
vn 0.5331 0.8342 0.1412
vn 0.4840 0.8465 -0.2218
vn -0.3724 -0.2132 -0.9033
vn 0.7297 0.4151 0.5433
vn 0.8136 0.3388 0.4725
vn 0.9571 0.0959 0.2733
vn 0.8229 0.3037 0.4802
vn 0.9739 0.0613 0.2183
vn 0.9712 -0.0946 0.2186
vn 0.8901 0.2536 0.3787
vn 0.9539 0.2578 0.1538
vn 0.9540 0.2286 0.1939
vn 0.7351 0.5242 0.4300
vn 0.6413 0.7281 0.2421
vn 0.8412 0.4895 0.2299
vn 0.9741 0.0648 0.2165
vn 0.9023 0.3890 0.1858
vn 0.9637 -0.1189 0.2390
vn 0.9393 0.3164 0.1330
vn 0.9624 0.0260 0.2704
vn 0.8579 0.5123 0.0394
vn 0.7077 0.6850 0.1732
vn 0.9363 0.3495 0.0360
vn 0.9473 0.3162 0.0518
vn 0.9753 0.1477 0.1642
vn 0.9942 0.0011 0.1071
vn 0.9657 0.0847 0.2454
vn 0.8109 0.4949 0.3123
vn 0.9787 0.1759 0.1062
vn 0.0691 -0.7063 -0.7045
vn 0.2733 -0.8927 -0.3583
vn 0.2933 -0.8884 -0.3532
vn 0.0670 -0.5933 -0.8022
vn 0.1198 -0.8897 -0.4405
vn 0.2849 -0.8433 -0.4556
vn 0.1837 -0.8633 -0.4702
vn 0.3575 -0.8820 -0.3071
vn 0.4159 -0.8380 -0.3533
vn 0.0073 0.9966 -0.0826
vn 0.1384 0.9827 -0.1230
vn 0.2427 0.9342 -0.2616
vn -0.0702 0.8890 -0.4525
vn 0.0404 0.9147 -0.4021
vn 0.0964 0.9390 -0.3300
vn 0.1647 0.9347 -0.3151
vn 0.1926 -0.7067 -0.6808
vn 0.0206 -0.4835 -0.8751
vn 0.0825 -0.6974 -0.7119
vn 0.0027 -0.5955 -0.8033
vn 0.1429 -0.7498 -0.6461
vn 0.1585 -0.6120 -0.7748
vn 0.0975 0.4179 -0.9033
vn 0.1239 0.3618 -0.9240
vn 0.1756 0.4578 -0.8715
vn 0.2445 0.3576 -0.9013
vn 0.0175 0.5031 -0.8641
vn 0.1748 -0.2774 -0.9447
vn 0.0461 -0.0760 -0.9960
vn 0.0336 0.1157 -0.9927
vn 0.1498 0.0689 -0.9863
vn 0.1159 0.2681 -0.9564
vn 0.1880 0.3625 -0.9128
vn 0.1676 0.9680 -0.1870
vn 0.1868 0.9803 -0.0646
vn 0.3173 0.9282 -0.1946
vn 0.3141 0.9316 -0.1831
vn 0.4717 0.7976 -0.3761
vn 0.2917 0.9422 -0.1648
vn 0.2902 0.9427 -0.1644
vn 0.3539 0.8887 -0.2916
vn 0.2539 0.9579 -0.1343
vn 0.3312 0.9010 -0.2803
vn 0.2933 -0.7603 -0.5797
vn 0.4047 -0.7241 -0.5585
vn 0.4378 -0.8025 -0.4054
vn 0.4232 0.8050 -0.4158
vn 0.2828 0.6920 -0.6642
vn 0.3855 0.8042 -0.4523
vn 0.4750 0.7329 -0.4870
vn 0.9129 0.4048 -0.0518
vn 0.2192 0.9143 -0.3405
vn 0.3846 0.8534 -0.3518
vn 0.3192 -0.7290 -0.6055
vn 0.2166 -0.6615 -0.7180
vn 0.3069 -0.7611 -0.5715
vn 0.3546 -0.6821 -0.6396
vn 0.3779 0.5548 -0.7412
vn 0.2888 0.4984 -0.8174
vn 0.2015 0.6711 -0.7135
vn 0.0804 0.6846 -0.7245
vn 0.4266 0.6618 -0.6165
vn 0.3700 -0.5033 -0.7809
vn 0.2959 -0.6235 -0.7236
vn 0.4063 -0.6253 -0.6663
vn 0.2307 -0.6793 -0.6967
vn 0.3076 -0.5419 -0.7821
vn 0.3415 -0.6695 -0.6596
vn 0.3626 -0.4930 -0.7908
vn 0.4783 -0.5331 -0.6979
vn 0.2413 -0.4465 -0.8616
vn 0.4087 -0.2908 -0.8651
vn 0.5792 -0.1128 -0.8074
vn -0.0024 0.1703 0.9854
vn 0.3155 -0.1237 -0.9408
vn 0.3897 -0.1010 -0.9154
vn 0.4252 -0.1419 -0.8939
vn 0.2944 0.3228 -0.8995
vn 0.3115 0.3212 -0.8943
vn 0.3319 0.3898 -0.8590
vn 0.2648 0.4708 -0.8416
vn 0.3651 0.3964 -0.8424
vn 0.4508 0.2996 -0.8408
vn 0.5311 0.3291 -0.7808
vn 0.4069 0.5011 -0.7638
vn 0.4146 0.5282 -0.7411
vn 0.2960 0.1461 -0.9440
vn 0.2528 -0.0055 -0.9675
vn 0.4674 -0.8099 -0.3545
vn 0.5067 -0.7912 -0.3425
vn 0.7789 0.6270 0.0090
vn 0.5723 0.7293 -0.3751
vn 0.4682 -0.7526 -0.4630
vn 0.4708 -0.8075 -0.3554
vn 0.5037 -0.7093 -0.4931
vn 0.5601 -0.6648 -0.4943
vn 0.6557 -0.5769 -0.4871
vn 0.5749 -0.6790 -0.4566
vn 0.6163 -0.6644 -0.4229
vn 0.5127 -0.6959 -0.5028
vn 0.6186 -0.5492 -0.5619
vn 0.5329 0.6381 -0.5558
vn 0.5428 0.7353 -0.4057
vn 0.6039 0.7588 -0.2439
vn 0.5867 -0.4560 -0.6692
vn 0.6360 -0.1928 -0.7472
vn 0.7048 -0.1024 -0.7020
vn 0.5533 0.4061 -0.7273
vn 0.5588 0.3947 -0.7294
vn 0.8538 0.3656 -0.3706
vn 0.5571 0.4722 -0.6832
vn 0.5100 -0.5692 -0.6449
vn 0.5986 -0.4518 -0.6615
vn 0.6491 -0.2491 -0.7187
vn 0.6432 -0.2476 -0.7246
vn 0.6623 -0.2908 -0.6905
vn 0.6243 -0.0497 -0.7796
vn 0.5348 0.0338 -0.8443
vn 0.6321 0.0794 -0.7708
vn 0.5113 0.5204 -0.6839
vn 0.5181 0.1356 -0.8445
vn 0.5779 0.3875 -0.7182
vn 0.4683 0.4348 -0.7692
vn 0.5060 0.6038 -0.6159
vn 0.5880 -0.6954 -0.4131
vn 0.6650 -0.6808 -0.3069
vn 0.7407 -0.5823 -0.3350
vn 0.7644 -0.6079 -0.2150
vn 0.7952 -0.5276 -0.2987
vn 0.7881 -0.4558 -0.4138
vn 0.8240 -0.4001 -0.4012
vn 0.8412 -0.2879 -0.4577
vn 0.9041 0.2775 -0.3251
vn 0.9115 0.3328 -0.2416
vn 0.7681 -0.3762 -0.5182
vn 0.7979 -0.2389 -0.5534
vn 0.8553 -0.2212 -0.4685
vn 0.8133 0.0745 -0.5771
vn 0.8660 0.1046 -0.4890
vn 0.8414 0.2802 -0.4621
vn 0.8535 0.4073 -0.3250
vn 0.8808 0.1313 -0.4550
vn 0.6723 0.5296 -0.5171
vn 0.7679 0.2224 -0.6007
vn 0.7640 0.3899 -0.5141
vn 0.6945 0.5826 -0.4221
vn 0.8135 0.4394 -0.3810
vn 0.8469 0.4243 -0.3204
vn 0.5592 -0.5158 -0.6490
vn 0.7464 -0.1928 -0.6370
vn 0.7850 -0.0761 -0.6148
vn 0.7423 0.1649 -0.6495
vn 0.6756 0.3176 -0.6653
vn 0.9823 0.1506 0.1114
vn 0.9990 -0.0449 0.0049
vn 0.9893 -0.0850 -0.1187
vn 0.9743 0.1291 0.1845
vn 0.9750 0.2177 0.0448
vn 0.9836 0.1647 -0.0731
vn 0.9500 0.3035 -0.0733
vn 0.9596 0.2764 0.0522
vn 0.9640 0.2595 0.0584
vn 0.9687 0.2467 0.0265
vn 0.9655 0.2541 0.0563
vn 0.8752 -0.1869 -0.4463
vn 0.8647 -0.2745 -0.4206
vn 0.8804 -0.2222 -0.4189
vn 0.9560 -0.0379 -0.2909
vn 0.9259 0.0705 -0.3710
vn 0.9710 0.0518 -0.2334
vn 0.9099 0.3768 -0.1733
vn 0.9484 0.2957 -0.1145
vn 0.9858 0.1466 -0.0814
vn 0.9979 -0.0236 -0.0605
vn 0.9002 0.4336 0.0412
vn 0.9693 0.0987 -0.2252
vn 0.9969 0.0170 -0.0764
vn 0.9435 0.2907 -0.1594
vn 0.8491 -0.1757 -0.4982
vn 0.8106 -0.1765 -0.5583
vt 0.289019 0.605432
vt 0.308053 0.608839
vt 0.280632 0.614374
vt 0.328290 0.606553
vt 0.343872 0.606108
vt 0.322108 0.651652
vt 0.358185 0.663634
vt 0.301987 0.672062
vt 0.339494 0.698482
vt 0.288089 0.725643
vt 0.333757 0.737476
vt 0.319082 0.756203
vt 0.251368 0.626573
vt 0.255294 0.623302
vt 0.259137 0.625876
vt 0.267136 0.640879
vt 0.277319 0.667195
vt 0.248786 0.643488
vt 0.275287 0.637008
vt 0.248170 0.664732
vt 0.257971 0.687420
vt 0.246517 0.683787
vt 0.248268 0.692061
vt 0.264197 0.717138
vt 0.253033 0.720428
vt 0.251709 0.708251
vt 0.256842 0.737426
vt 0.256812 0.750496
vt 0.253860 0.729213
vt 0.287175 0.778579
vt 0.253063 0.768920
vt 0.371108 0.700526
vt 0.370323 0.729033
vt 0.377045 0.710705
vt 0.400433 0.756395
vt 0.307407 0.798916
vt 0.362197 0.785247
vt 0.362781 0.827979
vt 0.255260 0.790491
vt 0.271975 0.809230
vt 0.447317 0.729813
vt 0.425744 0.714107
vt 0.439865 0.709959
vt 0.424454 0.818443
vt 0.419044 0.729999
vt 0.403959 0.825541
vt 0.440882 0.760627
vt 0.435653 0.811472
vt 0.391745 0.834997
vt 0.384666 0.867152
vt 0.323447 0.892431
vt 0.369302 0.889419
vt 0.274972 0.883845
vt 0.310638 0.894742
vt 0.259785 0.917195
vt 0.370114 0.900545
vt 0.416834 0.936981
vt 0.470399 0.711579
vt 0.473313 0.745548
vt 0.489925 0.710960
vt 0.552581 0.731936
vt 0.447966 0.808755
vt 0.514885 0.763526
vt 0.517544 0.796986
vt 0.463012 0.812222
vt 0.507017 0.815989
vt 0.492395 0.823197
vt 0.111698 0.199186
vt 0.088831 0.136496
vt 0.125903 0.165461
vt 0.050093 0.158911
vt 0.042858 0.205242
vt 0.987856 0.118101
vt 1.041553 0.121825
vt 1.088831 0.136496
vt 1.050093 0.158911
vt 0.005077 0.156180
vt 0.004425 0.200359
vt 0.215453 0.485287
vt 0.235077 0.467571
vt 0.251530 0.475406
vt 0.223580 0.522042
vt 0.255802 0.483488
vt 0.257336 0.503957
vt 0.238618 0.542326
vt 0.255637 0.518074
vt 0.250416 0.534330
vt 0.217009 0.558601
vt 0.248118 0.568068
vt 0.242301 0.630474
vt 0.220333 0.601615
vt 0.248883 0.591004
vt 0.188423 0.465333
vt 0.192343 0.462267
vt 0.197581 0.467250
vt 0.191592 0.521021
vt 0.208708 0.575587
vt 0.211166 0.581491
vt 0.187675 0.593485
vt 0.183204 0.575089
vt 0.210166 0.630115
vt 0.231523 0.640896
vt 0.214530 0.643322
vt 0.130590 0.333408
vt 0.160845 0.318768
vt 0.157879 0.343411
vt 0.144118 0.362635
vt 0.157367 0.379189
vt 0.162997 0.419595
vt 0.142658 0.415013
vt 0.143647 0.439206
vt 0.167895 0.440692
vt 0.130449 0.465087
vt 0.170723 0.461446
vt 0.146404 0.506325
vt 0.171296 0.530002
vt 0.147175 0.532972
vt 0.173420 0.579231
vt 0.175972 0.600983
vt 0.152549 0.591151
vt 0.143812 0.620559
vt 0.171864 0.657788
vt 0.174653 0.678027
vt 0.173706 0.686068
vt 0.172694 0.691106
vt 0.173199 0.668756
vt 0.155619 0.686610
vt 0.164852 0.709180
vt 0.171099 0.708200
vt 0.168576 0.717796
vt 0.164540 0.724925
vt 0.122515 0.370706
vt 0.106795 0.401498
vt 0.107283 0.417855
vt 0.120971 0.445597
vt 0.125281 0.494157
vt 0.133120 0.556924
vt 0.127284 0.575582
vt 0.120949 0.608777
vt 0.142682 0.657211
vt 0.205646 0.852228
vt 0.216040 0.845005
vt 0.216935 0.856585
vt 0.145816 0.263802
vt 0.163220 0.240877
vt 0.161549 0.260889
vt 0.103170 0.255872
vt 0.108640 0.294844
vt 0.155915 0.747944
vt 0.141768 0.767602
vt 0.114926 0.731096
vt 0.100004 0.774576
vt 0.128006 0.777687
vt 0.111306 0.340464
vt 0.088836 0.370329
vt 0.077137 0.336297
vt 0.108257 0.565442
vt 0.091399 0.602336
vt 0.106203 0.643609
vt 0.124529 0.700727
vt 0.096621 0.652380
vt 0.078292 0.717885
vt 0.069107 0.414330
vt 0.095976 0.444606
vt 0.100814 0.488753
vt 0.083715 0.459680
vt 0.089839 0.531218
vt 0.119961 0.529959
vt 0.071618 0.506304
vt 0.052602 0.471832
vt 0.086935 0.576913
vt 0.071692 0.533967
vt 0.070615 0.647753
vt 0.073582 0.616077
vt 0.209412 0.858429
vt 0.230966 0.889537
vt 0.208829 0.908245
vt 0.178467 0.878730
vt 0.173676 0.898550
vt 0.109052 0.902469
vt 0.149188 0.197687
vt 0.150519 0.857168
vt 0.176135 0.866695
vt 0.117459 0.858954
vt 0.106978 0.845090
vt 0.090324 0.228526
vt 0.072077 0.791858
vt 0.122710 0.786585
vt 0.109608 0.825189
vt 0.065296 0.824615
vt 0.070679 0.260089
vt 0.073468 0.310582
vt 0.048480 0.267294
vt 0.017798 0.228391
vt 0.072452 0.374764
vt 0.073072 0.697086
vt 0.095467 0.686847
vt 0.067671 0.764670
vt 0.056083 0.743831
vt 0.050307 0.714532
vt 0.058079 0.344903
vt 0.059087 0.360015
vt 0.046638 0.320423
vt 0.053439 0.380116
vt 0.045680 0.390699
vt 0.071224 0.436546
vt 0.056549 0.534849
vt 0.056379 0.516569
vt 0.057581 0.554679
vt 0.054138 0.585224
vt 0.053529 0.640682
vt 0.045992 0.606618
vt 0.049934 0.600042
vt 0.042759 0.605891
vt 0.044154 0.695747
vt 0.039270 0.652357
vt 0.053005 0.505772
vt 0.031981 0.502569
vt 0.049991 0.505125
vt 0.027277 0.532973
vt 0.046636 0.513718
vt 0.044893 0.534161
vt 0.040835 0.556761
vt 0.136577 0.958301
vt 0.014402 0.886384
vt 0.059522 0.946905
vt 0.059065 0.833297
vt 0.062250 0.861966
vt 0.045194 0.840437
vt 0.037453 0.268182
vt 0.043184 0.285192
vt 0.017441 0.246089
vt 0.015430 0.209330
vt 0.999396 0.349876
vt 1.010402 0.365769
vt 1.016894 0.393548
vt 0.004225 0.640060
vt 0.041036 0.591003
vt 0.033653 0.643658
vt 0.021604 0.647281
vt 0.004057 0.666844
vt 0.022379 0.424348
vt 0.021888 0.407708
vt 0.028240 0.415086
vt 1.022379 0.424348
vt 0.998740 0.395789
vt 1.002294 0.449897
vt 0.002294 0.449897
vt 0.028039 0.458659
vt 0.997598 0.500318
vt 1.031981 0.502569
vt 1.027277 0.532973
vt 0.516260 0.710747
vt 0.541058 0.711423
vt 0.557008 0.776492
vt 0.530513 0.788554
vt 0.576330 0.709469
vt 0.602261 0.731454
vt 0.612068 0.708031
vt 0.588371 0.811603
vt 0.579024 0.807406
vt 0.605504 0.811030
vt 0.632372 0.810200
vt 0.568189 0.781762
vt 0.633766 0.767742
vt 0.623856 0.837354
vt 0.620778 0.820332
vt 0.617420 0.879872
vt 0.611015 0.860231
vt 0.667066 0.879637
vt 0.697076 0.828555
vt 0.759314 0.872133
vt 0.699507 0.899000
vt 0.683964 0.882334
vt 0.738866 0.850812
vt 0.624981 0.705448
vt 0.677338 0.752754
vt 0.695932 0.797097
vt 0.660626 0.726876
vt 0.741452 0.830809
vt 0.746386 0.800981
vt 0.735208 0.751965
vt 0.737029 0.767327
vt 0.738765 0.840711
vt 0.667448 0.634963
vt 0.642091 0.659013
vt 0.649447 0.616696
vt 0.656627 0.608081
vt 0.691435 0.608856
vt 0.704759 0.605349
vt 0.686293 0.647833
vt 0.734469 0.608120
vt 0.747366 0.637188
vt 0.724155 0.663242
vt 0.685322 0.707017
vt 0.664007 0.684047
vt 0.711395 0.742760
vt 0.712475 0.706305
vt 0.746492 0.584968
vt 0.740528 0.600432
vt 0.742292 0.576496
vt 0.719375 0.603792
vt 0.746158 0.608412
vt 0.747046 0.673250
vt 0.906066 0.169579
vt 0.953950 0.123806
vt 0.992204 0.198424
vt 0.972611 0.198992
vt 1.005077 0.156180
vt 0.924293 0.206562
vt 0.880810 0.158338
vt 0.911938 0.136652
vt 1.059522 0.946905
vt 0.710808 0.965555
vt 0.941276 0.941226
vt 0.733742 0.947856
vt 0.783871 0.887936
vt 0.928392 0.896637
vt 1.014402 0.886384
vt 0.970333 0.869984
vt 0.934677 0.862790
vt 0.970499 0.351650
vt 0.994420 0.339802
vt 0.982864 0.310103
vt 0.990402 0.322563
vt 0.943761 0.336013
vt 0.959618 0.307614
vt 0.979075 0.431239
vt 0.942541 0.389418
vt 0.971366 0.593556
vt 0.980786 0.661660
vt 0.958017 0.620327
vt 0.970842 0.659478
vt 1.004225 0.640060
vt 1.004057 0.666844
vt 0.994726 0.667771
vt 0.954957 0.470700
vt 1.000502 0.477159
vt 0.979292 0.551721
vt 1.002403 0.562159
vt 0.811568 0.886145
vt 0.795296 0.890633
vt 0.841916 0.813423
vt 0.884187 0.843692
vt 0.848175 0.835585
vt 0.849328 0.202229
vt 0.922273 0.797640
vt 0.900292 0.764800
vt 0.915322 0.781265
vt 0.925172 0.811637
vt 0.918403 0.831528
vt 0.906764 0.838848
vt 0.923138 0.821247
vt 0.908929 0.262630
vt 0.926150 0.237757
vt 0.923816 0.249640
vt 0.922788 0.326587
vt 0.949887 0.299858
vt 0.891487 0.303335
vt 0.940604 0.277947
vt 0.940168 0.719785
vt 0.928491 0.688240
vt 0.939222 0.702833
vt 0.920280 0.762111
vt 0.938004 0.340497
vt 0.933397 0.351980
vt 0.946255 0.427758
vt 0.941927 0.422607
vt 0.942510 0.433828
vt 0.942468 0.639542
vt 0.963048 0.661436
vt 0.939207 0.596426
vt 0.932182 0.614602
vt 0.917158 0.650312
vt 0.957422 0.667442
vt 0.943750 0.688507
vt 0.947572 0.519115
vt 0.944088 0.478354
vt 0.953628 0.568763
vt 0.950310 0.539740
vt 0.857144 0.237472
vt 0.845207 0.218930
vt 0.872739 0.236779
vt 0.871509 0.283787
vt 0.838924 0.287973
vt 0.848019 0.266566
vt 0.832112 0.333161
vt 0.877267 0.345076
vt 0.879990 0.720347
vt 0.832950 0.710484
vt 0.858555 0.682444
vt 0.844680 0.776770
vt 0.861827 0.764081
vt 0.842551 0.744452
vt 0.931391 0.370257
vt 0.897920 0.367608
vt 0.896155 0.413766
vt 0.856086 0.391009
vt 0.898363 0.389732
vt 0.894156 0.644745
vt 0.860147 0.613297
vt 0.904073 0.606146
vt 0.890211 0.665204
vt 0.878310 0.685989
vt 0.923775 0.403464
vt 0.928532 0.387357
vt 0.913913 0.441697
vt 0.911884 0.467919
vt 0.895347 0.443228
vt 0.892517 0.500275
vt 0.911955 0.496838
vt 0.912262 0.527549
vt 0.914921 0.579965
vt 0.916628 0.598361
vt 0.926336 0.617940
vt 0.921391 0.612623
vt 0.812290 0.364364
vt 0.818372 0.313050
vt 0.833411 0.388961
vt 0.808829 0.416704
vt 0.808596 0.393123
vt 0.839622 0.540743
vt 0.820222 0.517491
vt 0.853712 0.533024
vt 0.844274 0.612050
vt 0.854563 0.643548
vt 0.831077 0.700630
vt 0.824650 0.671383
vt 0.875135 0.464271
vt 0.857168 0.422030
vt 0.869481 0.506764
vt 0.834344 0.469874
vt 0.879614 0.561626
vt 0.848559 0.503066
vt 0.880629 0.582341
vt 0.756914 0.471767
vt 0.751907 0.512274
vt 0.747307 0.506342
vt 0.756062 0.536521
vt 0.783417 0.497465
vt 0.781489 0.527747
vt 0.835461 0.450314
vt 0.807382 0.426684
vt 0.806925 0.451501
vt 0.802707 0.485760
vt 0.802265 0.465274
vt 0.788632 0.465103
vt 0.772425 0.471507
vt 0.813027 0.538000
vt 0.792393 0.521005
vt 0.809183 0.621981
vt 0.800524 0.580233
vt 0.811521 0.560525
vt 0.797718 0.557287
vt 0.798984 0.546511
vt 0.796836 0.529954
vt 0.826481 0.600048
vt 0.830603 0.561647
vt 0.355274 0.645510
vt 0.348732 0.611789
vt 0.271996 0.641984
vt 0.251598 0.717439
vt 0.393527 0.719004
vt 0.287456 0.853898
vt 0.281933 0.845488
vt 0.413004 0.733627
vt 0.313423 0.872612
vt 0.446237 0.958345
vt 0.561188 0.973018
vt 0.224384 0.469619
vt 0.246884 0.617491
vt 0.209669 0.464417
vt 0.182350 0.490001
vt 0.204484 0.599428
vt 0.192411 0.604780
vt 0.198402 0.606656
vt 0.180739 0.527740
vt 0.172180 0.474188
vt 0.169597 0.467814
vt 0.208690 0.844964
vt 0.159076 0.280323
vt 0.246955 0.882497
vt 0.184873 0.907646
vt 0.167338 0.859362
vt 0.067606 0.806688
vt 0.041058 0.408582
vt 0.034822 0.416409
vt 0.006891 0.841964
vt 0.991225 0.848680
vt 1.062250 0.861966
vt 1.006891 0.841964
vt 0.020889 0.254563
vt 0.016894 0.393548
vt 0.000502 0.477159
vt 0.977714 0.521002
vt 0.002403 0.562159
vt 0.574968 0.858648
vt 0.563313 0.859198
vt 0.569190 0.855292
vt 0.568855 0.862891
vt 1.136577 0.958301
vt 0.637934 0.884930
vt 0.731426 0.935691
vt 0.632403 0.694578
vt 0.744016 0.785912
vt 0.733174 0.837100
vt 0.737629 0.716342
vt 0.742787 0.497357
vt 0.744508 0.481629
vt 0.742772 0.507821
vt 0.744238 0.573604
vt 1.004424 0.200359
vt 1.000227 0.193567
vt 0.953033 0.210014
vt 0.918706 0.861970
vt 0.982004 0.864458
vt 0.948596 0.339143
vt 0.827828 0.871054
vt 0.890227 0.861642
vt 0.848289 0.850551
vt 0.880136 0.850782
vt 0.927802 0.264491
vt 0.939091 0.734943
vt 0.935224 0.745049
vt 0.950253 0.346513
vt 0.948192 0.367452
vt 0.941989 0.456355
vt 0.948978 0.587138
vt 0.848466 0.229713
vt 0.841949 0.795022
vt 0.875261 0.243909
vt 0.871158 0.250958
vt 0.858682 0.255245
vt 0.898700 0.536186
vt 0.912325 0.558851
vt 0.823143 0.298571
vt 0.832680 0.294144
vt 0.815636 0.637888
vt 0.749128 0.474825
vt 0.774879 0.565582
vt 0.762218 0.570044
vt 0.771637 0.576656
vt 0.768125 0.578466
vt 0.787290 0.520303
vt 0.802316 0.598944
s 1
f 11/1/11 12/2/12 16/3/16
f 12/2/12 6/4/6 9/5/9
f 12/2/12 9/5/9 8/6/8
f 8/6/8 36/7/36 14/8/14
f 36/7/36 37/9/37 14/8/14
f 14/8/14 37/9/37 15/10/15
f 15/10/15 39/11/39 46/12/46
f 19/13/19 18/14/18 17/15/17
f 22/16/22 24/17/24 23/18/23
f 24/17/24 13/19/13 14/8/14
f 20/20/20 26/21/26 25/22/25
f 26/21/26 24/17/24 14/8/14
f 25/22/25 26/21/26 30/23/30
f 26/21/26 15/10/15 27/24/27
f 29/25/29 28/26/28 26/21/26
f 31/27/31 27/24/27 34/28/34
f 31/27/31 33/29/33 29/25/29
f 15/10/15 46/12/46 45/30/45
f 35/31/35 34/28/34 45/30/45
f 37/9/37 36/7/36 38/32/38
f 39/11/39 37/9/37 41/33/41
f 37/9/37 38/32/38 41/33/41
f 40/34/40 43/35/43 41/33/41
f 45/30/45 46/12/46 47/36/47
f 46/12/46 39/11/39 41/33/41
f 47/36/47 44/37/44 48/38/48
f 49/39/49 45/30/45 50/40/50
f 72/41/72 54/42/54 56/43/56
f 48/38/48 44/37/44 59/44/59
f 43/35/43 55/45/55 59/44/59
f 48/38/48 59/44/59 60/46/60
f 59/44/59 57/47/57 61/48/61
f 48/38/48 58/49/58 62/50/62
f 64/51/64 48/38/48 63/52/63
f 68/53/68 69/54/69 70/55/70
f 70/55/70 69/54/69 64/51/64
f 65/56/65 64/51/64 63/52/63
f 70/55/70 65/56/65 81/57/81
f 56/43/56 71/58/71 72/41/72
f 57/47/57 72/41/72 74/59/74
f 71/58/71 73/60/73 278/61/276
f 75/62/75 57/47/57 74/59/74
f 75/62/75 76/63/76 280/64/278
f 77/65/77 280/64/278 79/66/79
f 78/67/78 77/65/77 79/66/79
f 86/68/86 89/69/89 85/70/85
f 86/68/86 87/71/87 89/69/89
f 88/72/88 87/71/87 86/68/86
f 91/73/91 90/74/90 89/75/89
f 87/76/87 91/73/91 89/75/89
f 88/72/88 93/77/93 87/71/87
f 94/78/94 93/77/93 88/72/88
f 98/79/98 96/80/96 1/81/1
f 99/82/99 2/83/2 3/84/3
f 1/81/1 2/83/2 99/82/99
f 100/85/100 5/86/5 4/87/4
f 99/82/99 100/85/100 101/88/101
f 4/87/4 102/89/102 100/85/100
f 101/88/101 105/90/105 103/91/103
f 104/92/104 100/85/100 102/89/102
f 105/90/105 100/85/100 104/92/104
f 113/93/113 112/94/112 110/95/110
f 113/93/113 110/95/110 111/96/111
f 111/96/111 99/82/99 101/88/101
f 115/97/115 101/88/101 116/98/116
f 118/99/118 111/96/111 101/88/101
f 111/96/111 118/99/118 119/100/119
f 121/101/121 103/91/103 107/102/107
f 121/101/121 107/102/107 108/103/108
f 131/104/131 129/105/129 130/106/130
f 131/104/131 130/106/130 128/107/128
f 133/108/133 132/109/132 134/110/134
f 134/110/134 132/109/132 138/111/138
f 132/109/132 136/112/136 138/111/138
f 139/113/139 138/111/138 137/114/137
f 140/115/140 137/114/137 125/116/125
f 142/117/142 126/118/126 141/119/141
f 143/120/143 142/117/142 141/119/141
f 146/121/146 141/119/141 144/122/144
f 148/123/148 150/124/150 151/125/151
f 147/126/147 148/123/148 151/125/151
f 149/127/149 147/126/147 152/128/152
f 152/128/152 151/125/151 127/129/127
f 152/128/152 153/130/153 154/131/154
f 180/132/180 134/110/134 155/133/155
f 155/133/155 134/110/134 184/134/184
f 156/135/156 138/111/138 139/113/139
f 134/110/134 138/111/138 156/135/156
f 139/113/139 140/115/140 157/136/157
f 160/137/160 140/115/140 142/117/142
f 161/138/161 160/137/160 142/117/142
f 161/138/161 142/117/142 143/120/143
f 185/139/185 146/121/146 145/140/145
f 166/141/166 163/142/163 165/143/165
f 170/144/170 169/145/169 168/146/168
f 172/147/172 169/145/169 170/144/170
f 171/148/171 170/144/170 131/104/131
f 152/128/152 154/131/154 149/127/149
f 154/131/154 175/149/175 176/150/176
f 154/131/154 174/151/174 149/127/149
f 178/152/178 176/150/176 177/153/177
f 131/104/131 128/107/128 180/132/180
f 182/154/182 171/148/171 131/104/131
f 182/154/182 180/132/180 181/155/181
f 181/155/181 183/156/183 182/154/182
f 162/157/162 161/138/161 185/139/185
f 185/139/185 197/158/197 162/157/162
f 186/159/186 185/139/185 145/140/145
f 186/159/186 145/140/145 149/127/149
f 173/160/173 186/159/186 149/127/149
f 173/160/173 199/161/199 186/159/186
f 173/160/173 174/151/174 187/162/187
f 189/163/189 155/133/155 184/134/184
f 189/163/189 181/155/181 155/133/155
f 184/134/184 156/135/156 191/164/191
f 158/165/158 192/166/192 191/164/191
f 194/167/194 157/136/157 159/168/159
f 234/169/234 193/170/193 158/165/158
f 234/169/234 158/165/158 194/167/194
f 162/157/162 194/167/194 159/168/159
f 196/171/196 162/157/162 197/158/197
f 194/167/194 162/157/162 196/171/196
f 195/172/195 194/167/194 196/171/196
f 197/158/197 186/159/186 198/173/198
f 198/173/198 240/174/240 197/158/197
f 166/141/166 165/143/165 200/175/200
f 202/176/202 70/55/70 205/177/205
f 203/178/203 204/179/204 207/180/207
f 207/180/207 205/177/205 70/55/70
f 86/68/86 84/181/84 169/145/169
f 209/182/209 201/183/201 210/184/210
f 210/184/210 207/180/207 211/185/211
f 213/186/213 169/145/169 172/147/172
f 216/187/216 179/188/179 218/189/218
f 178/152/178 179/188/179 216/187/216
f 216/187/216 211/185/211 219/190/219
f 214/191/214 172/147/172 171/148/171
f 220/192/220 214/191/214 171/148/171
f 220/192/220 258/193/258 214/191/214
f 215/194/215 213/186/213 214/191/214
f 222/195/222 183/156/183 181/155/181
f 187/162/187 224/196/224 188/197/188
f 178/152/178 187/162/187 174/151/174
f 178/152/178 216/187/216 226/198/226
f 187/162/187 227/199/227 224/196/224
f 227/199/227 225/200/225 224/196/224
f 229/201/229 183/156/183 228/202/228
f 183/156/183 223/203/223 220/192/220
f 223/203/223 183/156/183 229/201/229
f 228/202/228 222/195/222 230/204/230
f 189/163/189 231/205/231 222/195/222
f 193/170/193 189/163/189 190/206/190
f 195/172/195 236/207/236 235/208/235
f 236/207/236 195/172/195 237/209/237
f 197/158/197 238/210/238 196/171/196
f 196/171/196 237/209/237 195/172/195
f 238/210/238 237/209/237 196/171/196
f 198/173/198 241/211/241 240/174/240
f 241/211/241 242/212/242 239/213/239
f 241/211/241 269/214/267 242/212/242
f 245/215/245 244/216/244 198/173/198
f 248/217/248 234/169/234 235/208/235
f 247/218/247 193/170/193 234/169/234
f 249/219/249 234/169/234 248/217/248
f 275/220/273 250/221/250 251/222/251
f 252/223/252 275/220/273 251/222/251
f 207/180/207 70/55/70 80/224/80
f 254/225/254 207/180/207 363/226/357
f 219/190/219 211/185/211 255/227/255
f 255/227/255 212/228/212 256/229/256
f 258/193/258 215/194/215 214/191/214
f 259/230/259 258/193/258 221/231/221
f 258/193/258 261/232/261 215/194/215
f 259/230/259 261/232/261 258/193/258
f 215/194/215 92/233/92 88/72/88
f 265/234/263 264/235/262 267/236/265
f 268/237/266 253/238/253 269/214/267
f 243/239/243 270/240/268 268/237/266
f 271/241/269 268/237/266 270/240/268
f 273/242/271 266/243/264 272/244/270
f 273/245/271 371/246/365 267/236/265
f 274/247/272 371/246/365 273/245/271
f 274/248/272 273/242/271 246/249/246
f 383/250/377 247/251/247 275/252/273
f 278/61/276 277/253/275 279/254/277
f 282/255/280 76/63/76 278/61/276
f 280/64/278 76/63/76 281/256/279
f 278/61/276 279/254/277 290/257/288
f 291/258/289 290/257/288 292/259/290
f 295/260/293 294/261/292 296/262/294
f 298/263/296 294/261/292 293/264/291
f 293/264/291 291/258/289 313/265/311
f 298/263/296 293/264/291 313/265/311
f 298/263/296 299/266/297 297/267/295
f 300/268/298 301/269/299 299/266/297
f 303/270/301 298/263/296 314/271/312
f 307/272/305 305/273/303 306/274/304
f 303/270/301 314/271/312 306/274/304
f 307/272/305 306/274/304 321/275/319
f 291/258/289 292/259/290 309/276/307
f 298/263/296 315/277/313 316/278/314
f 298/263/296 313/265/311 310/279/308
f 317/280/315 314/271/312 318/281/316
f 342/282/340 316/278/314 315/277/313
f 319/283/317 318/281/316 316/278/314
f 319/283/317 316/278/314 342/282/340
f 306/274/304 314/271/312 322/284/320
f 321/275/319 306/274/304 322/284/320
f 322/284/320 314/271/312 317/280/315
f 327/285/325 308/286/306 324/287/322
f 327/285/325 325/288/323 326/289/324
f 328/290/326 330/291/328 326/289/324
f 330/291/328 328/290/326 336/292/334
f 332/293/330 331/294/329 330/291/328
f 333/295/331 310/279/308 312/296/310
f 315/277/313 310/279/308 333/295/331
f 315/277/313 333/295/331 334/297/332
f 335/298/333 333/295/331 330/291/328
f 353/299/347 338/300/336 337/301/335
f 329/302/327 336/292/334 328/290/326
f 340/303/338 332/293/330 336/292/334
f 340/303/338 336/292/334 338/300/336
f 339/304/337 335/298/333 330/291/328
f 356/305/350 354/306/348 91/73/91
f 357/307/351 358/308/352 93/309/93
f 356/305/350 91/73/91 93/309/93
f 359/310/353 93/309/93 358/308/352
f 356/305/350 361/311/355 355/312/349
f 363/313/357 287/314/285 364/315/358
f 364/315/358 288/316/286 304/317/302
f 387/318/381 254/319/254 364/315/358
f 368/320/362 254/319/254 387/318/381
f 368/320/362 387/318/381 369/321/363
f 375/322/369 373/323/367 265/234/263
f 371/246/365 375/322/369 265/234/263
f 375/322/369 374/324/368 372/325/366
f 375/322/369 419/326/413 370/327/364
f 381/328/375 424/329/418 375/322/369
f 386/330/380 376/331/370 379/332/373
f 377/333/371 379/332/373 376/331/370
f 268/334/266 271/335/269 380/336/374
f 428/337/422 382/338/376 383/250/377
f 386/330/380 385/339/379 276/340/274
f 386/330/380 276/340/274 268/334/266
f 364/315/358 304/317/302 387/318/381
f 389/341/383 387/318/381 388/342/382
f 391/343/385 394/344/388 396/345/390
f 359/310/353 362/346/356 356/305/350
f 401/347/395 403/348/397 402/349/396
f 400/350/394 405/351/399 406/352/400
f 400/350/394 404/353/398 405/351/399
f 400/350/394 394/344/388 391/343/385
f 398/354/392 397/355/391 409/356/403
f 418/357/412 408/358/402 370/327/364
f 418/357/412 453/359/447 407/360/401
f 411/361/405 439/362/433 412/363/406
f 415/364/409 402/349/396 403/348/397
f 419/326/413 418/357/412 370/327/364
f 420/365/414 418/357/412 419/326/413
f 422/366/416 418/357/412 420/365/414
f 427/367/421 425/368/419 426/369/420
f 435/370/429 377/333/371 378/371/372
f 435/370/429 379/332/373 377/333/371
f 433/372/427 386/330/380 379/332/373
f 436/373/430 379/332/373 435/370/429
f 476/374/470 435/370/429 434/375/428
f 434/375/428 435/370/429 378/371/372
f 439/362/433 438/376/432 412/363/406
f 439/362/433 434/375/428 438/376/432
f 441/377/435 429/378/423 428/337/422
f 386/330/380 431/379/425 440/380/434
f 447/381/441 442/382/436 399/383/393
f 451/384/445 452/385/446 450/386/444
f 451/384/445 480/387/474 452/385/446
f 453/359/447 454/388/448 451/384/445
f 451/384/445 454/388/448 480/387/474
f 455/389/449 499/390/493 496/391/490
f 445/392/439 403/348/397 391/343/385
f 456/393/450 499/390/493 403/348/397
f 445/392/439 457/394/451 456/393/450
f 457/394/451 499/390/493 456/393/450
f 423/395/417 502/396/496 418/357/412
f 502/396/496 454/388/448 418/357/412
f 467/397/461 488/398/482 458/399/452
f 458/399/452 488/398/482 502/396/496
f 462/400/456 497/401/491 461/402/455
f 439/362/433 462/400/456 476/374/470
f 462/400/456 455/389/449 463/403/457
f 464/404/458 463/403/457 455/389/449
f 455/389/449 411/361/405 415/364/409
f 466/405/460 467/397/461 465/406/459
f 458/399/452 502/396/496 465/406/459
f 466/405/460 468/407/462 467/397/461
f 467/397/461 458/399/452 465/406/459
f 468/407/462 469/408/463 459/409/453
f 469/408/463 460/410/454 459/409/453
f 460/410/454 469/408/463 470/411/464
f 471/412/465 460/410/454 470/411/464
f 461/402/455 475/413/469 473/414/467
f 476/374/470 437/415/431 435/370/429
f 461/402/455 477/416/471 437/415/431
f 462/400/456 461/402/455 476/374/470
f 480/387/474 482/417/476 481/418/475
f 484/419/478 485/420/479 483/421/477
f 454/388/448 488/398/482 480/387/474
f 488/398/482 484/419/478 480/387/474
f 492/422/486 522/423/516 491/424/485
f 493/425/487 497/401/491 498/426/492
f 500/427/494 501/428/495 498/426/492
f 467/397/461 503/429/497 489/430/483
f 460/410/454 503/429/497 459/409/453
f 504/431/498 532/432/526 503/429/497
f 505/433/499 504/431/498 460/410/454
f 504/431/498 503/429/497 460/410/454
f 504/431/498 533/434/527 532/432/526
f 497/401/491 493/425/487 506/435/500
f 505/433/499 492/422/486 491/424/485
f 505/433/499 493/425/487 492/422/486
f 496/391/490 498/426/492 462/400/456
f 462/400/456 498/426/492 497/401/491
f 496/391/490 463/403/457 464/404/458
f 507/436/501 510/437/504 350/438/345
f 511/439/505 510/437/504 507/436/501
f 512/440/506 511/439/505 507/436/501
f 513/441/507 511/439/505 512/440/506
f 490/442/484 518/443/512 485/420/479
f 490/442/484 520/444/514 518/443/512
f 521/445/515 519/446/513 520/444/514
f 509/447/503 512/440/506 508/448/502
f 519/446/513 521/445/515 509/447/503
f 522/423/516 523/449/517 521/445/515
f 525/450/519 512/440/506 521/445/515
f 487/451/481 531/452/525 529/453/523
f 529/453/523 530/454/524 527/455/521
f 529/453/523 526/456/520 523/449/517
f 490/442/484 521/445/515 520/444/514
f 533/434/527 522/423/516 521/445/515
f 494/457/488 529/453/523 495/458/489
f 495/458/489 529/453/523 492/422/486
f 8/6/8 9/5/9 10/459/10
f 9/5/9 7/460/7 10/459/10
f 36/7/36 8/6/8 10/459/10
f 13/19/13 12/2/12 14/8/14
f 13/19/13 16/3/16 12/2/12
f 14/8/14 12/2/12 8/6/8
f 15/10/15 37/9/37 39/11/39
f 19/13/19 17/15/17 23/18/23
f 24/17/24 21/461/21 13/19/13
f 22/16/22 21/461/21 24/17/24
f 23/18/23 17/15/17 22/16/22
f 20/20/20 23/18/23 26/21/26
f 23/18/23 24/17/24 26/21/26
f 26/21/26 14/8/14 15/10/15
f 26/21/26 28/26/28 30/23/30
f 29/25/29 26/21/26 27/24/27
f 31/27/31 29/25/29 27/24/27
f 32/462/32 28/26/28 29/25/29
f 34/28/34 27/24/27 15/10/15
f 34/28/34 15/10/15 45/30/45
f 41/33/41 38/32/38 40/34/40
f 43/35/43 40/34/40 42/463/42
f 46/12/46 41/33/41 43/35/43
f 46/12/46 43/35/43 44/37/44
f 44/37/44 47/36/47 46/12/46
f 49/39/49 35/31/35 45/30/45
f 45/30/45 47/36/47 51/464/51
f 50/40/50 45/30/45 51/464/51
f 52/465/52 50/40/50 51/464/51
f 55/45/55 54/42/54 72/41/72
f 55/45/55 72/41/72 57/47/57
f 43/35/43 42/463/42 53/466/53
f 43/35/43 53/466/53 55/45/55
f 59/44/59 44/37/44 43/35/43
f 60/46/60 58/49/58 48/38/48
f 57/47/57 59/44/59 55/45/55
f 48/38/48 51/464/51 47/36/47
f 64/51/64 66/467/66 48/38/48
f 63/52/63 48/38/48 62/50/62
f 66/467/66 51/464/51 48/38/48
f 70/55/70 64/51/64 65/56/65
f 74/59/74 72/41/72 71/58/71
f 74/59/74 71/58/71 278/61/276
f 75/62/75 74/59/74 76/63/76
f 61/48/61 57/47/57 75/62/75
f 280/64/278 77/65/77 75/62/75
f 80/224/80 70/55/70 81/57/81
f 80/224/80 81/57/81 82/468/82
f 83/469/83 80/224/80 82/468/82
f 84/181/84 86/68/86 85/70/85
f 213/186/213 88/72/88 86/68/86
f 87/76/87 93/309/93 91/73/91
f 88/72/88 92/233/92 94/78/94
f 98/79/98 97/470/97 96/80/96
f 5/86/5 99/82/99 3/84/3
f 100/85/100 99/82/99 5/86/5
f 98/79/98 1/81/1 99/82/99
f 101/88/101 100/85/100 105/90/105
f 105/90/105 104/92/104 106/471/106
f 103/91/103 105/90/105 107/102/107
f 98/79/98 109/472/109 97/470/97
f 98/79/98 110/95/110 109/472/109
f 111/96/111 110/95/110 98/79/98
f 114/473/114 113/93/113 111/96/111
f 111/96/111 98/79/98 99/82/99
f 116/98/116 101/88/101 103/91/103
f 118/99/118 101/88/101 115/97/115
f 118/99/118 115/97/115 117/474/117
f 120/475/120 118/99/118 117/474/117
f 121/101/121 116/98/116 103/91/103
f 120/475/120 117/474/117 122/476/122
f 124/477/124 114/473/114 111/96/111
f 119/100/119 124/477/124 111/96/111
f 128/107/128 130/106/130 133/108/133
f 134/110/134 128/107/128 133/108/133
f 123/478/123 137/114/137 135/479/135
f 138/111/138 136/112/136 137/114/137
f 137/114/137 123/478/123 125/116/125
f 140/115/140 125/116/125 142/117/142
f 142/117/142 125/116/125 126/118/126
f 146/121/146 143/120/143 141/119/141
f 145/140/145 146/121/146 144/122/144
f 149/127/149 144/122/144 147/126/147
f 147/126/147 151/125/151 152/128/152
f 149/127/149 145/140/145 144/122/144
f 152/128/152 127/129/127 153/130/153
f 180/132/180 128/107/128 134/110/134
f 156/135/156 184/134/184 134/110/134
f 158/165/158 156/135/156 139/113/139
f 158/165/158 139/113/139 157/136/157
f 140/115/140 139/113/139 137/114/137
f 160/137/160 159/168/159 140/115/140
f 157/136/157 140/115/140 159/168/159
f 185/139/185 161/138/161 143/120/143
f 161/138/161 159/168/159 160/137/160
f 161/138/161 162/157/162 159/168/159
f 146/121/146 185/139/185 143/120/143
f 164/480/164 163/142/163 166/141/166
f 170/144/170 168/146/168 167/481/167
f 171/148/171 172/147/172 170/144/170
f 131/104/131 167/481/167 129/105/129
f 170/144/170 167/481/167 131/104/131
f 174/151/174 173/160/173 149/127/149
f 176/150/176 174/151/174 154/131/154
f 174/151/174 176/150/176 178/152/178
f 177/153/177 179/188/179 178/152/178
f 182/154/182 131/104/131 180/132/180
f 182/154/182 220/192/220 171/148/171
f 183/156/183 220/192/220 182/154/182
f 155/133/155 181/155/181 180/132/180
f 185/139/185 186/159/186 197/158/197
f 173/160/173 188/197/188 199/161/199
f 173/160/173 187/162/187 188/197/188
f 188/197/188 224/196/224 199/161/199
f 190/206/190 189/163/189 184/134/184
f 191/164/191 190/206/190 184/134/184
f 222/195/222 181/155/181 189/163/189
f 191/164/191 156/135/156 158/165/158
f 158/165/158 193/170/193 192/166/192
f 192/166/192 190/206/190 191/164/191
f 158/165/158 157/136/157 194/167/194
f 195/172/195 234/169/234 194/167/194
f 199/161/199 198/173/198 186/159/186
f 70/55/70 67/482/67 68/53/68
f 70/55/70 202/176/202 67/482/67
f 207/180/207 206/483/206 205/177/205
f 207/180/207 204/179/204 206/483/206
f 209/182/209 208/484/208 201/183/201
f 207/180/207 201/183/201 203/178/203
f 210/184/210 201/183/201 207/180/207
f 211/185/211 207/180/207 212/228/212
f 169/145/169 213/186/213 86/68/86
f 172/147/172 214/191/214 213/186/213
f 213/186/213 215/194/215 88/72/88
f 211/185/211 216/187/216 218/189/218
f 216/187/216 219/190/219 217/485/217
f 221/231/221 258/193/258 220/192/220
f 223/203/223 221/231/221 220/192/220
f 199/161/199 224/196/224 198/173/198
f 187/162/187 178/152/178 226/198/226
f 187/162/187 226/198/226 227/199/227
f 228/202/228 183/156/183 222/195/222
f 231/205/231 230/204/230 222/195/222
f 233/486/233 231/205/231 189/163/189
f 232/487/232 233/486/233 189/163/189
f 193/170/193 190/206/190 192/166/192
f 193/170/193 232/487/232 189/163/189
f 234/169/234 195/172/195 235/208/235
f 238/210/238 197/158/197 240/174/240
f 240/174/240 239/213/239 238/210/238
f 240/174/240 241/211/241 239/213/239
f 198/173/198 244/216/244 241/211/241
f 241/211/241 243/239/243 269/214/267
f 244/216/244 243/239/243 241/211/241
f 224/196/224 245/215/245 198/173/198
f 245/215/245 224/196/224 225/200/225
f 193/170/193 246/249/246 232/487/232
f 246/249/246 193/170/193 247/218/247
f 249/219/249 247/218/247 234/169/234
f 250/221/250 247/218/247 249/219/249
f 363/226/357 207/180/207 80/224/80
f 212/228/212 207/180/207 254/225/254
f 255/227/255 211/185/211 212/228/212
f 257/488/257 256/229/256 212/228/212
f 366/489/360 212/490/212 254/319/254
f 212/490/212 366/489/360 257/491/257
f 259/230/259 260/492/260 261/232/261
f 371/246/365 265/234/263 267/236/265
f 243/239/243 268/237/266 269/214/267
f 273/242/271 272/244/270 232/487/232
f 273/242/271 267/493/265 266/243/264
f 246/249/246 273/242/271 232/487/232
f 247/218/247 382/494/376 246/249/246
f 382/494/376 274/248/272 246/249/246
f 250/221/250 275/220/273 247/218/247
f 247/251/247 383/250/377 382/338/376
f 275/252/273 384/495/378 383/250/377
f 253/238/253 275/220/273 252/223/252
f 253/238/253 276/496/274 275/220/273
f 253/238/253 268/237/266 276/496/274
f 278/61/276 73/60/73 277/253/275
f 76/63/76 74/59/74 278/61/276
f 282/255/280 281/256/279 76/63/76
f 286/497/284 283/498/281 284/499/282
f 285/500/283 283/498/281 286/497/284
f 287/314/285 80/501/80 83/469/83
f 290/257/288 291/258/289 278/61/276
f 291/258/289 282/255/280 278/61/276
f 293/264/291 282/255/280 291/258/289
f 298/263/296 296/262/294 294/261/292
f 297/267/295 296/262/294 298/263/296
f 303/270/301 302/502/300 300/268/298
f 300/268/298 299/266/297 298/263/296
f 303/270/301 300/268/298 298/263/296
f 304/317/302 289/503/287 305/273/303
f 304/317/302 305/273/303 307/272/305
f 312/296/310 291/258/289 309/276/307
f 312/296/310 310/279/308 291/258/289
f 313/265/311 291/258/289 310/279/308
f 312/296/310 309/276/307 311/504/309
f 308/286/306 312/296/310 311/504/309
f 316/278/314 314/271/312 298/263/296
f 315/277/313 298/263/296 310/279/308
f 314/271/312 316/278/314 318/281/316
f 320/505/318 318/281/316 319/283/317
f 334/297/332 342/282/340 315/277/313
f 323/506/321 322/284/320 317/280/315
f 312/296/310 308/286/306 327/285/325
f 325/288/323 327/285/325 324/287/322
f 330/291/328 312/296/310 327/285/325
f 326/289/324 330/291/328 327/285/325
f 336/292/334 332/293/330 330/291/328
f 335/298/333 334/297/332 333/295/331
f 330/291/328 333/295/331 312/296/310
f 353/299/347 340/303/338 338/300/336
f 332/293/330 339/304/337 331/294/329
f 341/507/339 342/282/340 335/298/333
f 339/304/337 330/291/328 331/294/329
f 339/304/337 341/507/339 335/298/333
f 335/298/333 342/282/340 334/297/332
f 507/436/501 348/508/343 343/509/341
f 507/436/501 350/438/345 348/508/343
f 350/438/345 349/510/344 348/508/343
f 352/511/346 353/299/347 337/301/335
f 356/305/350 355/312/349 354/306/348
f 94/512/94 357/307/351 93/309/93
f 95/513/95 357/307/351 94/512/94
f 359/310/353 356/305/350 93/309/93
f 360/514/354 359/310/353 358/308/352
f 356/305/350 362/346/356 361/311/355
f 363/313/357 80/501/80 287/314/285
f 364/315/358 287/314/285 288/316/286
f 304/317/302 288/316/286 289/503/287
f 364/315/358 254/319/254 363/313/357
f 365/515/359 369/321/363 387/318/381
f 254/319/254 368/320/362 367/516/361
f 367/516/361 366/489/360 254/319/254
f 375/322/369 372/325/366 373/323/367
f 375/322/369 370/327/364 374/324/368
f 375/322/369 416/517/410 419/326/413
f 371/246/365 381/328/375 375/322/369
f 268/334/266 376/331/370 386/330/380
f 376/331/370 268/334/266 380/336/374
f 274/247/272 381/328/375 371/246/365
f 425/368/419 424/329/418 381/328/375
f 381/328/375 274/247/272 428/337/422
f 382/338/376 428/337/422 274/247/272
f 385/339/379 384/495/378 275/252/273
f 384/495/378 428/337/422 383/250/377
f 440/380/434 384/495/378 385/339/379
f 276/340/274 385/339/379 275/252/273
f 386/330/380 440/380/434 385/339/379
f 387/318/381 304/317/302 388/342/382
f 390/518/384 387/318/381 389/341/383
f 392/519/386 365/515/359 387/318/381
f 392/519/386 387/318/381 390/518/384
f 395/520/389 392/519/386 390/518/384
f 395/520/389 393/521/387 392/519/386
f 394/344/388 393/521/387 395/520/389
f 395/520/389 396/345/390 394/344/388
f 397/355/391 359/310/353 360/514/354
f 397/355/391 398/354/392 359/310/353
f 398/354/392 399/383/393 359/310/353
f 399/383/393 362/346/356 359/310/353
f 400/350/394 403/348/397 401/347/395
f 403/348/397 400/350/394 391/343/385
f 394/344/388 400/350/394 406/352/400
f 410/522/404 407/360/401 398/354/392
f 410/522/404 398/354/392 409/356/403
f 407/360/401 453/359/447 398/354/392
f 408/358/402 418/357/412 407/360/401
f 455/389/449 439/362/433 411/361/405
f 411/361/405 414/523/408 413/524/407
f 415/364/409 411/361/405 413/524/407
f 375/322/369 417/525/411 416/517/410
f 424/329/418 421/526/415 375/322/369
f 375/322/369 421/526/415 417/525/411
f 422/366/416 423/395/417 418/357/412
f 425/368/419 428/337/422 426/369/420
f 428/337/422 430/527/424 426/369/420
f 433/372/427 432/528/426 386/330/380
f 386/330/380 432/528/426 431/379/425
f 436/373/430 433/372/427 379/332/373
f 435/370/429 437/415/431 436/373/430
f 439/362/433 476/374/470 434/375/428
f 381/328/375 428/337/422 425/368/419
f 428/337/422 429/378/423 430/527/424
f 384/495/378 440/380/434 428/337/422
f 428/337/422 440/380/434 441/377/435
f 399/383/393 442/382/436 362/346/356
f 447/381/441 443/529/437 442/382/436
f 445/392/439 391/343/385 444/530/438
f 398/354/392 446/531/440 399/383/393
f 398/354/392 448/532/442 446/531/440
f 451/384/445 448/532/442 398/354/392
f 453/359/447 451/384/445 398/354/392
f 448/532/442 451/384/445 449/533/443
f 451/384/445 450/386/444 449/533/443
f 456/393/450 403/348/397 445/392/439
f 455/389/449 403/348/397 499/390/493
f 453/359/447 418/357/412 454/388/448
f 454/388/448 502/396/496 488/398/482
f 439/362/433 455/389/449 462/400/456
f 464/404/458 455/389/449 496/391/490
f 455/389/449 415/364/409 403/348/397
f 423/395/417 465/406/459 502/396/496
f 468/407/462 459/409/453 467/397/461
f 472/534/466 460/410/454 471/412/465
f 474/535/468 472/534/466 471/412/465
f 506/435/500 505/433/499 475/413/469
f 461/402/455 506/435/500 475/413/469
f 475/413/469 472/534/466 474/535/468
f 472/534/466 475/413/469 505/433/499
f 476/374/470 461/402/455 437/415/431
f 461/402/455 473/414/467 477/416/471
f 479/536/473 480/387/474 481/418/475
f 482/417/476 484/419/478 483/421/477
f 452/385/446 480/387/474 478/537/472
f 480/387/474 479/536/473 478/537/472
f 480/387/474 484/419/478 482/417/476
f 488/398/482 489/430/483 484/419/478
f 489/430/483 490/442/484 485/420/479
f 484/419/478 489/430/483 485/420/479
f 489/430/483 532/432/526 490/442/484
f 491/424/485 522/423/516 533/434/527
f 493/425/487 494/457/488 495/458/489
f 493/425/487 495/458/489 492/422/486
f 498/426/492 486/538/480 493/425/487
f 498/426/492 501/428/495 486/538/480
f 493/425/487 486/538/480 487/451/481
f 493/425/487 487/451/481 494/457/488
f 499/390/493 500/427/494 496/391/490
f 496/391/490 500/427/494 498/426/492
f 488/398/482 467/397/461 489/430/483
f 467/397/461 459/409/453 503/429/497
f 489/430/483 503/429/497 532/432/526
f 472/534/466 505/433/499 460/410/454
f 504/431/498 491/424/485 533/434/527
f 504/431/498 505/433/499 491/424/485
f 506/435/500 493/425/487 505/433/499
f 463/403/457 496/391/490 462/400/456
f 461/402/455 497/401/491 506/435/500
f 507/436/501 343/509/341 344/539/342
f 508/448/502 512/440/506 507/436/501
f 513/441/507 516/540/510 511/439/505
f 511/439/505 516/540/510 514/541/508
f 516/540/510 517/542/511 514/541/508
f 517/542/511 515/543/509 514/541/508
f 521/445/515 512/440/506 509/447/503
f 523/449/517 526/456/520 521/445/515
f 512/440/506 524/544/518 513/441/507
f 525/450/519 524/544/518 512/440/506
f 526/456/520 525/450/519 521/445/515
f 487/451/481 528/545/522 531/452/525
f 494/457/488 487/451/481 529/453/523
f 529/453/523 527/455/521 526/456/520
f 529/453/523 531/452/525 530/454/524
f 532/432/526 533/434/527 521/445/515
f 490/442/484 532/432/526 521/445/515
f 522/423/516 492/422/486 523/449/517
f 492/422/486 529/453/523 523/449/517
l 262 263
l 345 346
l 347 349
l 346 351
