# Blender 5.2.1 LTS
# www.blender.org
o ZombieHead1Hair
v -0.456608 -0.027789 0.012272
v -0.460085 -0.034513 0.001422
v -0.444635 0.008871 0.018591
v -0.435440 0.051031 0.006750
v -0.435083 0.062689 -0.000054
v -0.401211 0.138824 0.091678
v -0.388287 0.159017 0.148396
v -0.392160 0.150126 0.140824
v -0.396693 0.140608 0.114810
v -0.404664 0.153858 0.069081
v -0.384700 0.211567 0.149048
v -0.377527 0.230647 0.147143
v -0.368584 0.278545 0.112396
v -0.356323 0.275599 0.151882
v -0.362540 0.321474 0.065334
v -0.327246 0.309596 0.163880
v -0.313538 0.344000 0.142872
v -0.403614 0.143021 0.076894
v -0.404464 0.174737 0.066356
v -0.393519 0.241600 0.063644
v -0.382113 0.282623 0.054904
v -0.375359 0.304328 0.048533
v -0.363958 0.325115 0.030950
v -0.359660 0.327751 0.008624
v -0.341837 0.346350 0.021827
v -0.301068 0.340424 0.166952
v -0.304604 0.365995 0.095759
v -0.227818 0.389193 0.156628
v -0.198907 0.402956 0.160624
v -0.316673 0.380433 0.006082
v -0.254013 0.426181 0.027428
v -0.257762 0.421063 0.055097
v -0.182598 0.417750 0.160415
v -0.163288 0.429453 0.152181
v -0.174177 0.437857 0.127365
v -0.132500 0.440792 0.151036
v -0.084466 0.465275 0.129903
v -0.115037 0.442515 0.157548
v -0.180701 0.460720 0.024025
v -0.132211 0.472713 -0.002312
v -0.069788 0.361910 0.286920
v -0.063832 0.361410 0.288840
v -0.073971 0.372216 0.275229
v -0.070851 0.395963 0.239848
v -0.061583 0.415140 0.221784
v -0.030284 0.373726 0.279050
v 0.018892 0.395356 0.257494
v -0.018164 0.414699 0.224478
v -0.065069 0.427158 0.206074
v -0.101639 0.441483 0.168820
v -0.078945 0.468603 0.118216
v -0.085512 0.471885 0.093782
v -0.001552 0.456768 0.158571
v -0.037143 0.465822 0.141465
v -0.074098 0.478452 -0.013896
v -0.069521 0.476139 0.062710
v -0.050941 0.479366 0.034459
v -0.053193 0.479240 0.019285
v -0.206829 -0.367995 -0.157126
v -0.139850 -0.397607 -0.157215
v -0.115731 -0.390452 -0.197717
v -0.157404 -0.362326 -0.231376
v -0.086725 -0.349818 -0.293070
v -0.100976 -0.407326 -0.160526
v -0.089439 -0.407999 -0.167869
v -0.084770 -0.399546 -0.192686
v -0.073802 -0.395544 -0.207797
v -0.041473 -0.396427 -0.221398
v -0.018974 -0.384188 -0.263295
v -0.026098 -0.395445 -0.233406
v -0.004667 -0.363149 -0.291146
v -0.463969 -0.036718 -0.024126
v -0.464646 -0.040281 -0.042848
v -0.463399 -0.038518 -0.051324
v -0.455709 -0.022456 -0.060162
v -0.454443 0.024541 -0.070255
v -0.457016 0.061959 -0.082386
v -0.450709 0.087541 -0.090511
v -0.433575 0.090742 -0.034713
v -0.433351 0.108691 -0.047437
v -0.428313 0.142966 -0.049957
v -0.444608 0.113438 -0.106549
v -0.438158 0.152099 -0.111806
v -0.424990 0.193079 -0.051932
v -0.424728 0.199648 -0.102246
v -0.422603 -0.115207 -0.157780
v -0.423051 -0.100971 -0.172306
v -0.419937 -0.109369 -0.176790
v -0.445186 -0.046241 -0.140277
v -0.451875 -0.036521 -0.136981
v -0.449892 -0.006257 -0.142115
v -0.439756 -0.051623 -0.153590
v -0.430703 -0.088344 -0.162695
v -0.431480 -0.071265 -0.168976
v -0.434007 -0.038060 -0.187404
v -0.451682 0.030860 -0.152353
v -0.448520 0.056401 -0.153392
v -0.441754 0.060920 -0.137715
v -0.440907 0.066461 -0.137660
v -0.448497 0.072284 -0.155558
v -0.428641 0.067409 -0.224721
v -0.440713 0.133577 -0.149988
v -0.446222 0.114442 -0.156513
v -0.441022 0.106572 -0.186759
v -0.435421 0.161003 -0.146716
v -0.431722 0.158871 -0.168563
v -0.432487 0.171131 -0.122498
v -0.428847 0.177212 -0.132491
v -0.429643 0.174549 -0.141134
v -0.428793 0.016201 -0.230716
v -0.430270 -0.035735 -0.199507
v -0.423229 -0.045540 -0.211907
v -0.408415 -0.027470 -0.265381
v -0.408800 0.242375 -0.066615
v -0.389336 0.278974 -0.085304
v -0.370350 0.306001 -0.088362
v -0.363363 0.316641 -0.026610
v -0.360713 0.319932 -0.043668
v -0.358220 0.323846 -0.082004
v -0.357563 0.328768 -0.057484
v -0.358736 0.331320 -0.069844
v -0.295654 0.394587 -0.063967
v -0.404530 -0.174755 -0.159999
v -0.361687 -0.242686 -0.159972
v -0.419389 -0.119599 -0.173023
v -0.410364 -0.140334 -0.182532
v -0.406053 -0.145840 -0.191410
v -0.412916 0.201806 -0.156942
v -0.391727 0.209652 -0.203694
v -0.377636 0.252019 -0.185736
v -0.364984 0.303533 -0.124275
v -0.355842 0.284038 -0.179244
v -0.331298 0.333397 -0.151120
v -0.340976 0.316583 -0.165376
v -0.322161 0.350430 -0.127127
v -0.305263 0.375206 -0.105233
v -0.366790 -0.191861 -0.233769
v -0.346162 -0.237326 -0.205399
v -0.356799 -0.203538 -0.241289
v -0.345681 -0.204614 -0.263958
v -0.348580 -0.206507 -0.253692
v -0.339051 -0.190729 -0.278816
v -0.314258 -0.192653 -0.312656
v -0.396752 -0.144061 -0.215659
v -0.385941 -0.157574 -0.227515
v -0.410047 -0.083014 -0.226301
v -0.407587 -0.063809 -0.253738
v -0.408100 -0.085620 -0.232780
v -0.406481 -0.079865 -0.241291
v -0.408068 0.002288 -0.268968
v -0.403400 0.050788 -0.264237
v -0.404168 0.082210 -0.256932
v -0.399727 0.158907 -0.234185
v -0.403807 0.116508 -0.250367
v -0.366076 -0.113444 -0.296936
v -0.315361 -0.115962 -0.353800
v -0.346412 -0.167730 -0.291133
v -0.314455 -0.163218 -0.331501
v -0.386805 -0.012242 -0.299926
v -0.375225 -0.091305 -0.297998
v -0.385846 -0.041694 -0.298766
v -0.379876 -0.067848 -0.300427
v -0.334629 -0.086301 -0.342025
v -0.324028 -0.028878 -0.372511
v -0.384992 0.016151 -0.305206
v -0.378837 0.059855 -0.309839
v -0.354237 0.067985 -0.348448
v -0.335187 0.034479 -0.365330
v -0.337050 0.004966 -0.369154
v -0.356159 0.110271 -0.320570
v -0.326347 0.108103 -0.306469
v -0.324375 0.113260 -0.306736
v -0.349758 0.126487 -0.320270
v -0.335000 0.164088 -0.320228
v -0.326897 0.121918 -0.355615
v -0.324677 0.200739 -0.313697
v -0.304810 0.183315 -0.345752
v -0.276518 0.402469 -0.091169
v -0.250108 0.417956 -0.090898
v -0.218101 0.430367 -0.099488
v -0.208416 0.451972 -0.037137
v -0.313492 -0.291261 -0.157309
v -0.284105 -0.284985 -0.246639
v -0.239926 -0.350009 -0.159008
v -0.256310 -0.305611 -0.249366
v -0.198961 -0.281332 -0.331126
v -0.200314 -0.329385 -0.246249
v -0.192298 -0.306610 -0.302033
v -0.266593 -0.254211 -0.297713
v -0.300472 -0.214527 -0.309135
v -0.281653 -0.226325 -0.317589
v -0.267044 -0.227315 -0.329141
v -0.255395 -0.223653 -0.341780
v -0.243226 -0.225454 -0.348469
v -0.258955 -0.157802 -0.379378
v -0.305179 -0.157254 -0.339855
v -0.298305 -0.160257 -0.345517
v -0.275415 -0.179507 -0.355454
v -0.275012 -0.110734 -0.400753
v -0.257244 -0.175942 -0.353550
v -0.259886 -0.172928 -0.368874
v -0.312842 -0.059835 -0.378841
v -0.289357 0.123512 -0.387747
v -0.297901 0.235805 -0.304813
v -0.239463 0.260547 -0.332832
v -0.239168 0.221134 -0.373983
v -0.271146 0.262937 -0.305229
v -0.257305 0.270115 -0.313009
v -0.229428 0.262425 -0.343880
v -0.259605 -0.118124 -0.407864
v -0.253329 -0.113174 -0.416971
v -0.246246 -0.114472 -0.418848
v -0.224507 -0.136853 -0.419428
v -0.189327 -0.116136 -0.453579
v -0.223594 -0.075382 -0.443043
v -0.221021 -0.031352 -0.453446
v -0.287509 0.065528 -0.406476
v -0.285572 0.006554 -0.419562
v -0.224349 0.006926 -0.460560
v -0.207844 0.127394 -0.438846
v -0.204268 0.189640 -0.408330
v -0.187167 0.446296 -0.097938
v -0.153813 0.464061 -0.079040
v -0.128123 0.472079 -0.077987
v -0.110949 0.474497 -0.084058
v -0.139065 -0.323399 -0.302601
v -0.124981 -0.277777 -0.357863
v -0.116187 -0.289364 -0.345469
v -0.197027 -0.246623 -0.353512
v -0.169151 -0.252171 -0.365658
v -0.127532 -0.249930 -0.385078
v -0.197421 0.285038 -0.350889
v -0.181778 0.299347 -0.343937
v -0.115913 0.323635 -0.369018
v -0.171781 0.328166 -0.325599
v -0.154997 0.348473 -0.316845
v -0.136313 0.362043 -0.314540
v -0.101293 0.379174 -0.309563
v -0.153162 -0.241105 -0.382997
v -0.142753 -0.239150 -0.390110
v -0.134358 -0.242088 -0.391498
v -0.202124 -0.147631 -0.423376
v -0.185702 -0.148873 -0.431339
v -0.173656 -0.142182 -0.441862
v -0.156098 -0.121400 -0.461430
v -0.120375 -0.115746 -0.468702
v -0.147317 -0.064384 -0.476500
v -0.186879 0.039253 -0.467587
v -0.165162 0.068436 -0.474837
v -0.152210 0.123854 -0.465020
v -0.099422 0.128721 -0.480857
v -0.102578 0.162111 -0.473036
v -0.186040 0.261654 -0.377523
v -0.135768 0.212464 -0.433747
v -0.142412 0.301613 -0.372383
v -0.106268 -0.107021 -0.473301
v -0.152387 0.009004 -0.484222
v -0.100550 -0.078281 -0.484646
v -0.102280 -0.041388 -0.493667
v -0.105607 0.009120 -0.495591
v -0.101537 0.068111 -0.492500
v -0.075846 0.478279 -0.032187
v -0.089081 0.477278 -0.105111
v -0.067563 0.478550 -0.044295
v -0.037705 0.481458 -0.063560
v -0.013600 0.486490 -0.089268
v -0.083363 0.464523 -0.177281
v -0.062810 0.480500 -0.119272
v -0.056969 0.478301 -0.150202
v -0.028166 0.460741 -0.211044
v -0.053349 0.480855 -0.131611
v -0.019112 0.480789 -0.155432
v 0.005417 0.485952 -0.096489
v -0.061688 0.416023 -0.270540
v -0.086901 0.444799 -0.219320
v -0.080380 0.436298 -0.234488
v -0.063606 0.425430 -0.255039
v -0.081330 -0.327439 -0.314786
v -0.062066 -0.336754 -0.311962
v -0.043522 -0.338169 -0.313867
v -0.040791 -0.281113 -0.378733
v -0.025186 -0.334110 -0.323255
v -0.018376 -0.311819 -0.347468
v -0.023384 -0.301091 -0.361502
v 0.021322 -0.327369 -0.336013
v -0.078411 0.364151 -0.342140
v -0.081952 0.390767 -0.299061
v -0.019720 0.346552 -0.366998
v -0.004395 0.366083 -0.348214
v -0.015745 -0.257718 -0.403458
v -0.097436 -0.224882 -0.417725
v -0.101018 -0.178803 -0.449496
v -0.077431 -0.244037 -0.408292
v -0.054765 -0.205297 -0.449109
v -0.051520 -0.262325 -0.396778
v 0.003064 -0.228641 -0.430934
v -0.093701 -0.157261 -0.461578
v -0.078854 -0.153379 -0.467457
v -0.045236 -0.158416 -0.470799
v -0.001960 -0.176971 -0.468075
v -0.024555 -0.150338 -0.475040
v -0.098946 0.193557 -0.454331
v -0.083741 0.240088 -0.431708
v -0.090826 0.218072 -0.445070
v -0.074516 0.254164 -0.426637
v -0.024448 0.328064 -0.386658
v -0.038997 0.289721 -0.410020
v -0.008488 -0.130167 -0.483378
v -0.102078 0.106877 -0.488646
v 0.058006 0.411840 0.225842
v 0.028851 0.450103 0.157858
v 0.060609 0.445982 0.147553
v 0.090592 0.438776 0.143658
v 0.092536 0.420634 0.192934
v 0.112151 0.430862 0.147144
v 0.115025 0.424708 0.165845
v 0.117682 0.426500 0.154375
v 0.299479 0.122720 0.158783
v 0.298524 0.113562 0.147795
v 0.300090 0.108029 0.123599
v 0.302202 0.139871 0.163302
v 0.307041 0.106854 0.105033
v 0.313919 0.125237 0.080953
v 0.320040 0.156441 0.163596
v 0.337669 0.164776 0.099052
v 0.315791 0.112431 0.081605
v 0.251676 0.400895 0.067367
v 0.265460 0.392273 0.069605
v 0.286153 0.368568 0.081485
v 0.292235 0.382978 0.016161
v 0.323029 0.368126 -0.031808
v 0.222341 0.417060 0.067862
v 0.216353 0.425225 0.045872
v 0.223191 0.428432 0.011347
v 0.230945 0.411439 0.072169
v 0.269329 0.396336 0.045235
v 0.340082 0.171928 0.157132
v 0.357756 0.186228 0.130946
v 0.372236 0.192944 0.124254
v 0.383035 0.222297 0.123874
v 0.326326 0.306653 0.137098
v 0.317394 0.330619 0.111330
v 0.338905 0.266078 0.163600
v 0.329249 0.280974 0.162739
v 0.360248 0.252534 0.137330
v 0.379047 0.286279 0.052218
v 0.372226 0.242718 0.129058
v 0.414547 0.073622 0.030805
v 0.331191 0.117097 0.054060
v 0.345999 0.119958 0.047847
v 0.370357 0.127664 0.038200
v 0.385004 0.128018 0.035509
v 0.387028 0.089784 0.033688
v 0.380953 0.111302 0.032689
v 0.413897 0.104508 0.021617
v 0.404162 0.134840 0.028569
v 0.355063 0.163094 0.072847
v 0.398192 0.198156 0.064491
v 0.391510 0.176336 0.063070
v 0.421566 0.220401 -0.026606
v 0.435132 0.155187 -0.043238
v 0.401015 0.267370 -0.025772
v 0.348406 0.337109 0.016192
v 0.449749 -0.027514 0.013087
v 0.447466 -0.014869 0.017498
v 0.453302 -0.036493 0.000988
v 0.435921 0.056643 0.023186
v 0.443553 0.012242 0.018438
v 0.423412 0.122847 -0.002343
v 0.033175 0.484640 -0.092307
v 0.072172 0.480821 -0.077244
v 0.098069 0.477325 -0.074876
v 0.053325 0.471063 -0.166018
v 0.022462 0.396358 -0.319546
v 0.088288 0.377328 -0.328851
v 0.066358 0.443205 -0.229414
v 0.059395 0.415379 -0.281346
v 0.114229 0.424586 -0.258419
v 0.017037 -0.350772 -0.303694
v 0.077421 -0.326367 -0.324970
v 0.057066 -0.300692 -0.357206
v 0.078732 -0.278552 -0.379328
v 0.108438 -0.319267 -0.321931
v 0.011586 0.375311 -0.339993
v 0.048239 0.380915 -0.332015
v 0.054949 -0.241864 -0.407760
v 0.071317 -0.179572 -0.457526
v 0.132527 -0.192186 -0.416906
v 0.073162 -0.143260 -0.467744
v -0.004529 -0.078411 -0.500907
v 0.059355 -0.110380 -0.487883
v 0.010708 -0.033945 -0.508935
v 0.028865 -0.010855 -0.506035
v 0.085524 -0.054308 -0.506585
v 0.040902 0.010098 -0.505872
v 0.056317 0.067119 -0.500576
v 0.060885 0.100574 -0.487000
v 0.073790 0.125603 -0.479394
v 0.091858 0.134413 -0.473352
v 0.123216 0.470974 -0.081115
v 0.152369 0.460530 -0.093967
v 0.188597 0.445122 -0.089220
v 0.212032 0.435875 -0.060894
v 0.176698 0.441532 -0.133134
v 0.168212 0.453294 -0.097184
v 0.204790 -0.331712 -0.246619
v 0.190347 -0.310293 -0.292793
v 0.200163 -0.340127 -0.238629
v 0.198271 -0.333363 -0.256552
v 0.146777 0.412650 -0.261781
v 0.241308 0.400357 -0.181788
v 0.222971 0.379673 -0.237354
v 0.170433 -0.294841 -0.326277
v 0.148658 -0.240384 -0.382712
v 0.179455 -0.306777 -0.305206
v 0.212676 -0.254793 -0.330272
v 0.186471 -0.202225 -0.387669
v 0.181753 -0.234562 -0.373042
v 0.178660 0.321015 -0.342887
v 0.191365 0.298953 -0.354095
v 0.195530 0.271926 -0.370030
v 0.220947 0.320321 -0.321023
v 0.120043 0.365929 -0.328227
v 0.150053 0.349215 -0.331923
v 0.182279 0.365087 -0.295268
v 0.217870 0.338884 -0.305339
v 0.149512 -0.141073 -0.447019
v 0.161545 -0.102362 -0.466110
v 0.152606 -0.161692 -0.429585
v 0.161365 -0.161277 -0.423516
v 0.174300 -0.153345 -0.423388
v 0.187843 -0.137380 -0.427443
v 0.175867 -0.041149 -0.469230
v 0.176883 -0.020578 -0.473791
v 0.210427 -0.090920 -0.427809
v 0.210730 -0.085876 -0.429325
v 0.202266 -0.082511 -0.447173
v 0.146302 0.105024 -0.465701
v 0.130964 0.119388 -0.465283
v 0.197542 0.235777 -0.391281
v 0.205190 0.181203 -0.415574
v 0.137446 -0.013811 -0.492473
v 0.157023 0.080476 -0.466357
v 0.171719 0.035479 -0.475177
v 0.104872 0.132874 -0.469984
v 0.259091 0.406022 -0.122527
v 0.297493 0.385631 -0.102947
v 0.232832 0.424347 -0.037223
v 0.238023 0.421419 -0.019216
v 0.252787 -0.340302 -0.164650
v 0.245282 -0.341601 -0.173881
v 0.265064 -0.335083 -0.160510
v 0.279143 -0.292981 -0.235551
v 0.321006 -0.291006 -0.159068
v 0.239602 0.410898 -0.143881
v 0.246029 0.409602 -0.130507
v 0.201037 0.426135 -0.174900
v 0.213050 -0.343719 -0.214482
v 0.237326 -0.340774 -0.192977
v 0.213589 -0.280747 -0.311949
v 0.266809 -0.248659 -0.282927
v 0.218508 0.360817 -0.275016
v 0.224027 -0.187883 -0.371942
v 0.235702 -0.181858 -0.368108
v 0.264805 -0.208843 -0.324575
v 0.285916 -0.189855 -0.321335
v 0.290750 -0.195703 -0.311600
v 0.299585 -0.194673 -0.303304
v 0.247359 -0.166000 -0.370385
v 0.262313 -0.120817 -0.388956
v 0.284761 -0.178612 -0.329079
v 0.295308 -0.148944 -0.338685
v 0.288289 -0.093341 -0.379818
v 0.306421 -0.120701 -0.341308
v 0.299035 0.210980 -0.339045
v 0.243149 0.194482 -0.385600
v 0.313829 0.235986 -0.305371
v 0.319759 0.161451 -0.342166
v 0.238157 0.298688 -0.329692
v 0.237393 0.258994 -0.358230
v 0.260129 0.280673 -0.327644
v 0.283603 0.263923 -0.317547
v 0.218356 -0.185469 -0.378406
v 0.219812 -0.170919 -0.386409
v 0.201100 -0.100192 -0.441572
v 0.232798 -0.148541 -0.389725
v 0.241477 -0.143785 -0.387038
v 0.246766 -0.148464 -0.380877
v 0.204954 -0.055003 -0.449044
v 0.219766 -0.020879 -0.452473
v 0.272893 -0.051050 -0.394988
v 0.294133 -0.011941 -0.390039
v 0.227961 0.066578 -0.434875
v 0.231252 0.033288 -0.444404
v 0.287189 0.033482 -0.406082
v 0.279825 0.065494 -0.406075
v 0.222757 0.141074 -0.428180
v 0.232886 0.095237 -0.433069
v 0.284366 0.095360 -0.399805
v 0.266306 0.147862 -0.390629
v 0.201624 0.214301 -0.400178
v 0.432549 0.173098 -0.085908
v 0.424017 0.204235 -0.076181
v 0.363283 0.317079 -0.084492
v 0.378433 0.296517 -0.075318
v 0.403303 0.248830 -0.074531
v 0.331772 0.344414 -0.095804
v 0.324313 -0.267587 -0.200144
v 0.365920 -0.236078 -0.161267
v 0.345008 -0.231258 -0.214048
v 0.395944 -0.178412 -0.161712
v 0.386355 -0.159612 -0.206691
v 0.418971 -0.127820 -0.176877
v 0.359001 -0.197900 -0.225642
v 0.345660 -0.177971 -0.268962
v 0.344063 -0.119748 -0.311290
v 0.373978 -0.134272 -0.243364
v 0.384715 -0.072196 -0.276016
v 0.416282 -0.026384 -0.248611
v 0.388626 0.088308 -0.275835
v 0.415770 0.028265 -0.244387
v 0.415892 0.085065 -0.224601
v 0.406273 0.148592 -0.237458
v 0.409523 0.091409 -0.234409
v 0.416458 0.103063 -0.228286
v 0.367590 0.196789 -0.262143
v 0.365300 0.187616 -0.271923
v 0.373083 0.200133 -0.253071
v 0.388149 0.179418 -0.242287
v 0.315452 -0.178121 -0.301268
v 0.334018 -0.145019 -0.301856
v 0.352957 -0.089486 -0.316414
v 0.329589 -0.084279 -0.347984
v 0.336631 -0.057972 -0.347811
v 0.347112 -0.034173 -0.345328
v 0.353368 -0.054943 -0.326441
v 0.347952 0.009666 -0.335786
v 0.346965 0.056265 -0.331584
v 0.353124 -0.001081 -0.329358
v 0.357605 0.019498 -0.325280
v 0.368036 0.051063 -0.314704
v 0.314282 0.125424 -0.350522
v 0.344955 0.138181 -0.310917
v 0.348274 0.095093 -0.323602
v 0.363517 0.150465 -0.287804
v 0.370196 0.083474 -0.300889
v 0.326292 0.219865 -0.303582
v 0.341411 0.176415 -0.307667
v 0.458560 -0.041257 -0.046286
v 0.459226 -0.033162 -0.058959
v 0.454259 -0.011169 -0.069501
v 0.459669 -0.041349 -0.022167
v 0.459160 0.045813 -0.081411
v 0.449876 0.096059 -0.084236
v 0.437833 0.125226 -0.083744
v 0.424046 -0.096611 -0.185739
v 0.427102 -0.056405 -0.202957
v 0.433590 -0.017424 -0.208340
v 0.430928 0.013746 -0.216417
v 0.425714 0.051089 -0.218176
vn -0.9492 0.2906 0.1207
vn -0.9469 0.2992 0.1181
vn -0.9532 0.2608 0.1531
vn -0.9608 0.1928 0.1995
vn -0.9423 0.2203 0.2520
vn -0.9813 0.0527 0.1850
vn -0.9146 0.0574 0.4004
vn -0.9764 0.0924 0.1951
vn -0.9812 0.0785 0.1761
vn -0.9789 0.0500 0.1981
vn -0.9570 0.2013 0.2087
vn -0.8883 0.3666 0.2767
vn -0.8590 0.4248 0.2858
vn -0.8217 0.4896 0.2917
vn -0.7794 0.5917 0.2058
vn -0.7715 0.5339 0.3460
vn -0.6455 0.6838 0.3403
vn -0.9856 0.0252 0.1674
vn -0.9770 0.0874 0.1946
vn -0.9495 0.2523 0.1867
vn -0.9121 0.3396 0.2298
vn -0.8762 0.4428 0.1901
vn -0.7206 0.6908 0.0593
vn -0.6708 0.7311 -0.1244
vn -0.7318 0.6778 0.0710
vn -0.5827 0.7039 0.4063
vn -0.6097 0.7503 0.2558
vn -0.5070 0.7761 0.3750
vn -0.2767 0.3179 0.9069
vn -0.6997 0.7113 0.0673
vn -0.4990 0.8643 0.0622
vn -0.5012 0.8386 0.2135
vn -0.4495 0.7816 0.4325
vn -0.3132 0.8493 0.4250
vn -0.3667 0.8721 0.3240
vn -0.2762 0.8728 0.4023
vn -0.1852 0.9291 0.3200
vn -0.2605 0.8667 0.4254
vn -0.3130 0.9432 0.1111
vn -0.1761 0.9839 0.0304
vn -0.1608 0.7111 0.6844
vn -0.1076 0.7380 0.6661
vn -0.1042 0.7827 0.6136
vn -0.1088 0.7953 0.5963
vn -0.0338 0.7439 0.6675
vn -0.0810 0.7834 0.6163
vn -0.0279 0.8463 0.5319
vn -0.0034 0.8608 0.5090
vn -0.0253 0.8455 0.5334
vn -0.1933 0.8727 0.4483
vn -0.1484 0.9674 0.2053
vn -0.2889 0.9450 0.1534
vn 0.0600 0.8329 0.5501
vn -0.0740 0.8807 0.4678
vn -0.0936 0.9955 0.0129
vn -0.1166 0.9913 0.0602
vn -0.0909 0.9953 0.0341
vn -0.0320 0.9995 -0.0036
vn -0.4079 -0.8455 -0.3445
vn -0.3354 -0.8730 -0.3541
vn -0.2691 -0.8894 -0.3695
vn -0.3558 -0.8245 -0.4400
vn -0.2224 -0.7739 -0.5930
vn -0.2554 -0.9132 -0.3176
vn -0.2386 -0.9140 -0.3282
vn -0.2061 -0.9061 -0.3693
vn -0.1989 -0.9054 -0.3752
vn -0.1286 -0.9614 -0.2433
vn -0.1790 -0.8381 -0.5152
vn -0.1988 -0.9048 -0.3766
vn -0.0716 -0.7729 -0.6305
vn -0.9668 0.2517 0.0436
vn -0.9103 0.4114 -0.0463
vn -0.9111 0.4093 -0.0489
vn -0.9780 0.0828 -0.1916
vn -0.9844 0.1050 0.1412
vn -0.9509 0.1915 0.2432
vn -0.9028 0.3487 0.2518
vn -0.9162 0.3196 0.2417
vn -0.9684 0.1535 0.1967
vn -0.9755 0.1250 0.1809
vn -0.9508 0.2298 0.2076
vn -0.9744 0.1980 0.1069
vn -0.9714 0.2233 0.0806
vn -0.9272 0.3679 -0.0707
vn -0.9510 -0.2583 -0.1698
vn -0.9240 -0.2542 -0.2856
vn -0.9296 -0.1701 -0.3270
vn -0.8366 -0.5332 -0.1257
vn -0.9386 -0.2464 -0.2413
vn -0.6728 0.1664 0.7208
vn -0.9040 -0.3347 -0.2658
vn -0.8870 -0.2350 -0.3975
vn -0.9301 -0.2063 -0.3040
vn -0.9306 -0.1982 -0.3078
vn -0.9679 0.0162 -0.2508
vn -0.9968 0.0586 -0.0542
vn -0.9232 0.1375 0.3588
vn -0.9193 0.1009 0.3803
vn -0.9965 0.0017 -0.0836
vn -0.8956 0.0850 -0.4367
vn -0.9512 0.2480 -0.1838
vn -0.9472 0.2305 -0.2228
vn -0.9322 0.1634 -0.3228
vn -0.9165 0.3522 -0.1896
vn -0.7103 0.3818 -0.5914
vn -0.9496 0.3061 -0.0672
vn -0.9841 0.1776 0.0023
vn -0.8335 0.5056 -0.2229
vn -0.9187 -0.0201 -0.3945
vn -0.9285 -0.1803 -0.3247
vn -0.9266 -0.2129 -0.3099
vn -0.9246 -0.1231 -0.3606
vn -0.9046 0.4080 -0.1236
vn -0.8784 0.3432 -0.3326
vn -0.8024 0.5750 -0.1594
vn -0.8407 0.5415 0.0091
vn -0.9797 0.1593 -0.1215
vn -0.7172 -0.5763 0.3917
vn -0.8662 0.4857 0.1171
vn -0.7852 0.6146 -0.0757
vn -0.6084 0.7863 -0.1075
vn -0.8586 -0.4241 -0.2879
vn -0.7494 -0.5832 -0.3135
vn -0.9548 -0.2453 -0.1679
vn -0.9224 -0.3085 -0.2324
vn -0.8737 -0.3753 -0.3097
vn -0.8671 0.4273 -0.2562
vn -0.8661 0.3760 -0.3294
vn -0.8329 0.4833 -0.2697
vn -0.8064 0.5453 -0.2287
vn -0.7690 0.5514 -0.3234
vn -0.7295 0.6442 -0.2299
vn -0.7774 0.5660 -0.2744
vn -0.7000 0.6793 -0.2203
vn -0.6780 0.7081 -0.1973
vn -0.8168 -0.4980 -0.2914
vn -0.7298 -0.5923 -0.3413
vn -0.7706 -0.5619 -0.3006
vn -0.6706 -0.5914 -0.4477
vn -0.7552 -0.5691 -0.3253
vn -0.7702 -0.3306 -0.5455
vn -0.6965 -0.4452 -0.5628
vn -0.8483 -0.4005 -0.3465
vn -0.8556 -0.4237 -0.2973
vn -0.9484 -0.2134 -0.2344
vn -0.9427 -0.1778 -0.2824
vn -0.9489 -0.2067 -0.2383
vn -0.8292 -0.3770 -0.4126
vn -0.8748 0.0270 -0.4838
vn -0.8311 0.1027 -0.5465
vn -0.8157 0.1148 -0.5670
vn -0.8636 0.3207 -0.3890
vn -0.8471 0.2029 -0.4911
vn -0.7035 -0.3279 -0.6306
vn -0.6902 -0.3924 -0.6080
vn -0.7185 -0.3952 -0.5723
vn -0.6746 -0.2347 -0.6999
vn -0.8346 -0.0488 -0.5488
vn -0.7133 -0.2509 -0.6544
vn -0.5905 -0.0807 -0.8030
vn -0.7288 -0.1600 -0.6658
vn -0.7185 -0.2419 -0.6521
vn -0.7371 -0.1524 -0.6584
vn -0.7879 -0.0487 -0.6138
vn -0.8482 0.1377 -0.5114
vn -0.7620 0.1287 -0.6347
vn -0.7190 0.0552 -0.6928
vn -0.7594 -0.0582 -0.6480
vn -0.9193 0.3542 -0.1714
vn -0.4068 0.2017 0.8910
vn -0.4068 0.1839 0.8948
vn -0.9255 0.3623 -0.1106
vn -0.7389 0.3301 -0.5874
vn -0.6967 0.2965 -0.6532
vn -0.6164 0.4684 -0.6330
vn -0.6151 0.4280 -0.6622
vn -0.5465 0.8248 -0.1454
vn -0.4863 0.8637 -0.1327
vn -0.4195 0.8759 -0.2384
vn -0.4149 0.9064 -0.0798
vn -0.6464 -0.7162 -0.2630
vn -0.6394 -0.6382 -0.4289
vn -0.4890 -0.8082 -0.3281
vn -0.4910 -0.7652 -0.4163
vn -0.3778 -0.6468 -0.6625
vn -0.3701 -0.8297 -0.4178
vn -0.3308 -0.7973 -0.5050
vn -0.5713 -0.6309 -0.5249
vn -0.6252 -0.6080 -0.4893
vn -0.5613 -0.6595 -0.5000
vn -0.4779 -0.6475 -0.5936
vn -0.4263 -0.6846 -0.5912
vn -0.3984 -0.7257 -0.5609
vn -0.5980 -0.4293 -0.6768
vn -0.6391 -0.1388 -0.7565
vn -0.6435 -0.1181 -0.7563
vn -0.4125 -0.6065 -0.6796
vn -0.6262 -0.3100 -0.7154
vn 0.2101 -0.9518 -0.2235
vn -0.2676 -0.7059 -0.6558
vn -0.6948 -0.1903 -0.6935
vn -0.5710 0.2996 -0.7643
vn -0.5388 0.5598 -0.6295
vn -0.5642 0.5241 -0.6380
vn -0.5115 0.4955 -0.7020
vn -0.5505 0.4919 -0.6745
vn -0.5938 0.3714 -0.7138
vn -0.4939 -0.6064 -0.6231
vn -0.5494 -0.5049 -0.6657
vn -0.5707 -0.2334 -0.7873
vn -0.3278 -0.8024 -0.4987
vn -0.4471 -0.4824 -0.7532
vn -0.3691 -0.3370 -0.8662
vn -0.4870 -0.1666 -0.8574
vn -0.3316 -0.1873 -0.9247
vn -0.5891 0.1842 -0.7868
vn -0.6259 -0.0209 -0.7796
vn -0.4369 0.0285 -0.8991
vn -0.4501 0.3168 -0.8349
vn -0.4450 0.3898 -0.8063
vn -0.3998 0.8891 -0.2227
vn -0.3153 0.9386 -0.1402
vn -0.1991 0.9795 -0.0308
vn -0.1415 0.9898 -0.0152
vn -0.2569 -0.7843 -0.5646
vn -0.1867 -0.7175 -0.6710
vn -0.1193 -0.7456 -0.6556
vn -0.4169 -0.4979 -0.7604
vn -0.3425 -0.5617 -0.7531
vn -0.2783 -0.6864 -0.6719
vn -0.4750 0.5881 -0.6546
vn -0.4616 0.6662 -0.5858
vn -0.3026 0.6166 -0.7268
vn -0.4604 0.6179 -0.6374
vn -0.4242 0.6522 -0.6283
vn -0.3568 0.7067 -0.6110
vn -0.2550 0.7974 -0.5469
vn -0.2887 -0.6793 -0.6747
vn -0.3096 -0.7246 -0.6157
vn -0.3556 -0.7576 -0.5473
vn -0.3899 -0.5443 -0.7427
vn -0.4122 -0.4779 -0.7757
vn -0.3399 -0.5396 -0.7703
vn -0.2393 -0.0657 -0.9687
vn -0.1982 -0.2584 -0.9455
vn -0.2928 -0.1829 -0.9385
vn -0.4074 0.1560 -0.8998
vn -0.3743 0.1480 -0.9154
vn -0.3753 0.3031 -0.8760
vn -0.2995 0.2719 -0.9145
vn -0.3429 0.3422 -0.8748
vn -0.4402 0.5241 -0.7291
vn -0.3476 0.4561 -0.8192
vn -0.3895 0.5688 -0.7244
vn -0.0871 -0.3507 -0.9324
vn -0.2944 -0.0038 -0.9557
vn -0.2251 -0.2645 -0.9378
vn -0.2622 -0.1478 -0.9536
vn -0.2444 0.0161 -0.9695
vn -0.2663 0.0802 -0.9606
vn -0.1236 0.9911 -0.0485
vn -0.1162 0.9932 0.0089
vn -0.0990 0.9950 0.0139
vn 0.0705 0.9644 0.2548
vn -0.0595 0.9976 -0.0344
vn -0.1617 0.9161 -0.3670
vn -0.1103 0.9937 -0.0175
vn -0.1079 0.9634 -0.2454
vn -0.0357 0.8803 -0.4730
vn -0.0765 0.9939 -0.0793
vn -0.0019 0.9744 -0.2249
vn 0.0352 0.9942 -0.1017
vn -0.1290 0.8238 -0.5521
vn -0.1678 0.8643 -0.4742
vn -0.1449 0.8284 -0.5410
vn -0.0706 0.8385 -0.5402
vn -0.2012 -0.6734 -0.7114
vn -0.1523 -0.7087 -0.6889
vn -0.1211 -0.7600 -0.6385
vn -0.0617 -0.6931 -0.7182
vn -0.0999 -0.7575 -0.6451
vn -0.1291 -0.7803 -0.6119
vn -0.0211 -0.7148 -0.6990
vn 0.0455 -0.7466 -0.6637
vn -0.1898 0.7396 -0.6457
vn -0.1685 0.8187 -0.5490
vn -0.1171 0.7119 -0.6925
vn -0.0726 0.7194 -0.6908
vn -0.0037 -0.6831 -0.7303
vn -0.2774 -0.5992 -0.7510
vn -0.2649 -0.4721 -0.8408
vn -0.1548 -0.6567 -0.7381
vn -0.1450 -0.5508 -0.8219
vn -0.0599 -0.6426 -0.7639
vn 0.0688 -0.6533 -0.7540
vn -0.2406 -0.4113 -0.8792
vn -0.1940 -0.4105 -0.8910
vn -0.1407 -0.4571 -0.8782
vn 0.0281 -0.4315 -0.9017
vn -0.0801 -0.3152 -0.9456
vn -0.2268 0.4805 -0.8471
vn -0.2200 0.4772 -0.8508
vn -0.2696 0.5040 -0.8205
vn -0.2340 0.5282 -0.8162
vn -0.1725 0.6636 -0.7280
vn -0.1831 0.5609 -0.8074
vn 0.0473 -0.3356 -0.9408
vn -0.3025 0.2365 -0.9233
vn 0.0292 0.9405 0.3385
vn 0.2122 0.9031 0.3734
vn 0.2389 0.9107 0.3370
vn 0.2626 0.8849 0.3847
vn 0.1678 0.9061 0.3884
vn 0.2979 0.9170 0.2654
vn 0.2780 0.9145 0.2939
vn 0.3981 0.8878 0.2310
vn 0.9836 -0.1712 0.0572
vn 0.9752 -0.1965 0.1021
vn 0.9541 -0.2241 0.1988
vn 0.8497 -0.5077 0.1420
vn 0.9311 0.1081 0.3484
vn 0.8508 -0.2801 0.4445
vn 0.6678 -0.7379 0.0982
vn 0.6360 -0.7111 0.2999
vn 0.8879 0.1519 0.4343
vn 0.4845 0.8489 0.2115
vn 0.6000 0.7682 0.2233
vn 0.6464 0.7254 0.2365
vn 0.5898 0.7974 0.1278
vn 0.6508 0.7591 0.0157
vn 0.4712 0.8614 0.1895
vn 0.4725 0.8624 0.1818
vn 0.5111 0.8523 0.1114
vn 0.4720 0.8609 0.1898
vn 0.5823 0.7962 0.1645
vn 0.6062 -0.7949 -0.0249
vn 0.5791 -0.7990 0.1622
vn 0.6844 -0.6415 0.3465
vn 0.9673 0.1876 0.1706
vn 0.7649 0.5368 0.3559
vn 0.6994 0.6551 0.2859
vn 0.7735 0.5222 0.3592
vn 0.7753 0.4976 0.3890
vn 0.7645 0.5208 0.3799
vn 0.8409 0.4854 0.2394
vn 0.8439 0.4530 0.2874
vn 0.4219 0.2667 0.8666
vn 0.6061 -0.4711 0.6409
vn 0.4091 -0.1708 0.8964
vn 0.3879 -0.4875 0.7822
vn 0.2780 0.1794 0.9437
vn 0.3074 0.2015 0.9300
vn 0.3433 -0.0424 0.9383
vn 0.5980 0.2170 0.7716
vn 0.6180 -0.2335 0.7507
vn 0.5003 -0.6771 0.5396
vn 0.9356 -0.0417 0.3505
vn 0.6604 -0.4762 0.5806
vn 0.9531 0.2852 0.1014
vn 0.9881 0.0486 0.1459
vn 0.8787 0.4770 0.0180
vn 0.7311 0.6672 0.1428
vn 0.9743 0.1268 0.1863
vn 0.9839 0.1381 0.1134
vn 0.9664 0.1102 0.2323
vn 0.9054 0.2307 0.3565
vn 0.9790 0.1266 0.1599
vn 0.9267 0.1316 0.3519
vn 0.1276 0.9819 -0.1397
vn 0.1703 0.9636 -0.2061
vn 0.1556 0.9335 -0.3232
vn 0.1790 0.9453 -0.2725
vn 0.0080 0.8048 -0.5935
vn 0.1887 0.7770 -0.6006
vn 0.1209 0.9071 -0.4032
vn 0.0546 0.8583 -0.5103
vn 0.1907 0.8778 -0.4394
vn 0.1313 -0.8111 -0.5700
vn 0.1863 -0.7226 -0.6657
vn 0.1192 -0.7256 -0.6777
vn 0.1763 -0.6571 -0.7329
vn 0.2291 -0.7005 -0.6759
vn -0.0192 0.7018 -0.7121
vn 0.1017 0.7222 -0.6842
vn 0.1777 -0.6003 -0.7798
vn 0.2313 -0.4776 -0.8476
vn 0.3350 -0.5390 -0.7728
vn 0.1894 -0.3685 -0.9101
vn 0.0146 -0.2741 -0.9616
vn 0.1167 -0.4080 -0.9055
vn 0.0133 -0.0663 -0.9977
vn 0.0246 0.0447 -0.9987
vn 0.1719 -0.1584 -0.9723
vn 0.0556 0.0496 -0.9972
vn 0.2332 0.2123 -0.9490
vn 0.2576 0.2604 -0.9305
vn 0.2380 0.1680 -0.9566
vn 0.2540 0.1572 -0.9543
vn 0.2281 0.9477 -0.2231
vn 0.2269 0.9242 -0.3073
vn 0.5370 0.8164 -0.2123
vn 0.6832 0.6739 -0.2814
vn 0.3425 0.9192 -0.1943
vn 0.3958 0.8963 -0.1998
vn -0.6645 0.6733 0.3243
vn 0.4571 -0.7004 -0.5482
vn 0.3634 -0.8583 -0.3623
vn 0.4222 -0.7522 -0.5059
vn 0.3492 0.8006 -0.4870
vn 0.4742 0.8129 -0.3380
vn 0.2910 0.8592 -0.4208
vn 0.3424 -0.6837 -0.6444
vn 0.3141 -0.5463 -0.7765
vn 0.3889 -0.7202 -0.5745
vn 0.5328 -0.5228 -0.6654
vn 0.4319 -0.4624 -0.7744
vn 0.4040 -0.5739 -0.7123
vn 0.3702 0.6330 -0.6799
vn 0.3891 0.5485 -0.7401
vn 0.3824 0.5064 -0.7728
vn 0.3716 0.6106 -0.6993
vn 0.2963 0.7211 -0.6263
vn 0.3651 0.6848 -0.6306
vn 0.3878 0.7201 -0.5754
vn 0.3546 0.6900 -0.6310
vn 0.3002 -0.4941 -0.8159
vn 0.3011 -0.3450 -0.8890
vn 0.4289 -0.5728 -0.6985
vn 0.3721 -0.5260 -0.7647
vn 0.4080 -0.4982 -0.7650
vn 0.4759 -0.5146 -0.7133
vn 0.6664 -0.1926 -0.7202
vn 0.4318 -0.0868 -0.8978
vn -0.8675 0.1903 0.4596
vn -0.8688 0.1949 0.4552
vn 0.4364 -0.1418 -0.8885
vn -0.0037 0.0251 -0.9997
vn 0.2281 0.1685 -0.9589
vn 0.4316 0.4230 -0.7968
vn 0.3769 0.4237 -0.8236
vn 0.3246 0.0113 -0.9458
vn 0.2346 0.2087 -0.9494
vn 0.2202 0.1831 -0.9581
vn 0.2668 0.1866 -0.9455
vn 0.4544 0.8873 -0.0787
vn 0.5962 0.8020 -0.0358
vn 0.5296 0.8477 -0.0297
vn 0.7006 0.7107 -0.0637
vn 0.4425 -0.8676 -0.2270
vn 0.4116 -0.8869 -0.2098
vn 0.5463 -0.7819 -0.3003
vn 0.6113 -0.6283 -0.4812
vn 0.6616 -0.6831 -0.3093
vn 0.4690 0.8693 -0.1561
vn -0.0663 -0.9552 -0.2885
vn 0.3764 0.8902 -0.2565
vn 0.4154 -0.8386 -0.3524
vn 0.5023 -0.7927 -0.3454
vn 0.5168 -0.5813 -0.6285
vn 0.6214 -0.5217 -0.5845
vn 0.3659 0.7928 -0.4874
vn 0.4949 -0.5574 -0.6667
vn 0.5224 -0.5230 -0.6735
vn 0.5647 -0.5296 -0.6330
vn 0.5461 -0.4913 -0.6785
vn 0.5798 -0.5896 -0.5623
vn 0.6126 -0.5785 -0.5386
vn 0.5610 -0.4756 -0.6775
vn 0.5742 -0.3600 -0.7353
vn 0.4667 -0.4237 -0.7763
vn 0.6328 -0.4101 -0.6568
vn 0.5860 -0.2558 -0.7688
vn 0.6538 -0.4121 -0.6345
vn 0.6158 0.3804 -0.6899
vn 0.4926 0.3440 -0.7994
vn 0.6232 0.4457 -0.6427
vn 0.7122 0.1915 -0.6753
vn 0.4141 0.5404 -0.7325
vn 0.4719 0.4539 -0.7558
vn 0.5501 0.4237 -0.7196
vn 0.4602 0.1142 -0.8805
vn 0.4805 -0.5268 -0.7012
vn 0.4680 -0.4294 -0.7724
vn 0.2953 -0.4151 -0.8605
vn 0.4776 -0.4242 -0.7694
vn 0.4678 -0.4792 -0.7426
vn 0.4223 -0.4648 -0.7782
vn 0.6246 -0.2223 -0.7486
vn 0.6110 -0.2184 -0.7609
vn 0.5976 -0.1919 -0.7785
vn 0.6542 -0.1517 -0.7410
vn 0.5124 0.1124 -0.8514
vn 0.5602 0.1289 -0.8183
vn 0.6651 0.0314 -0.7461
vn 0.6213 0.0955 -0.7777
vn 0.5490 0.3499 -0.7591
vn 0.5188 0.1049 -0.8484
vn 0.6674 0.1780 -0.7231
vn 0.5972 0.3388 -0.7270
vn 0.4793 0.4055 -0.7784
vn 0.9838 0.1793 -0.0056
vn 0.9420 0.3301 -0.0611
vn 0.7633 0.6433 -0.0597
vn 0.8313 0.5532 -0.0534
vn 0.8961 0.4292 -0.1133
vn 0.7239 0.6733 -0.1506
vn 0.6881 -0.5995 -0.4088
vn 0.7893 -0.5123 -0.3384
vn 0.7144 -0.5153 -0.4733
vn 0.8206 -0.4463 -0.3570
vn 0.8191 -0.3838 -0.4263
vn 0.8152 -0.3755 -0.4410
vn 0.7655 -0.4644 -0.4454
vn 0.7285 -0.4463 -0.5197
vn 0.7959 -0.3994 -0.4549
vn 0.8098 -0.3380 -0.4796
vn 0.8126 -0.2855 -0.5081
vn 0.8641 -0.1190 -0.4890
vn 0.8231 0.1256 -0.5539
vn 0.8669 0.0897 -0.4903
vn 0.9052 0.1164 -0.4087
vn 0.7914 0.1992 -0.5779
vn -0.7828 0.1484 0.6043
vn 0.8874 0.0301 -0.4600
vn 0.7842 0.3215 -0.5307
vn 0.7700 0.3012 -0.5625
vn 0.7769 0.2686 -0.5694
vn 0.7813 0.3648 -0.5064
vn 0.6432 -0.4768 -0.5992
vn 0.7613 -0.3841 -0.5224
vn 0.8101 -0.2578 -0.5265
vn 0.6236 -0.2855 -0.7277
vn 0.5948 -0.1596 -0.7879
vn 0.6396 -0.0212 -0.7684
vn 0.7976 -0.1161 -0.5919
vn 0.7296 0.0658 -0.6807
vn 0.7537 0.1021 -0.6493
vn 0.7807 -0.0393 -0.6236
vn 0.7713 -0.0421 -0.6351
vn 0.8080 0.0511 -0.5870
vn 0.7260 0.1944 -0.6596
vn 0.7779 0.1451 -0.6114
vn 0.7416 0.1843 -0.6450
vn 0.7487 0.2126 -0.6279
vn 0.7671 0.1963 -0.6108
vn 0.6899 0.3691 -0.6227
vn 0.7628 0.2467 -0.5978
vn 0.9871 -0.1532 -0.0460
vn 0.9819 0.1870 0.0298
vn 0.9914 0.0904 0.0941
vn 0.9783 0.1872 0.0891
vn 0.9796 0.0970 0.1758
vn 0.9416 0.2767 0.1920
vn 0.9738 0.1940 0.1189
vn 0.8244 -0.2746 -0.4949
vn 0.9022 -0.2280 -0.3661
vn 0.9218 -0.1098 -0.3718
vn 0.9017 0.0432 -0.4303
vn 0.8777 0.1430 -0.4575
vt 0.308829 0.650829
vt 0.304870 0.610076
vt 0.308100 0.616302
vt 0.276910 0.614142
vt 0.294837 0.604458
vt 0.309149 0.664722
vt 0.297107 0.699230
vt 0.314128 0.696846
vt 0.323892 0.723492
vt 0.285754 0.603557
vt 0.275519 0.673438
vt 0.275880 0.628276
vt 0.270465 0.715566
vt 0.278377 0.728390
vt 0.263502 0.731506
vt 0.318049 0.749743
vt 0.298477 0.771655
vt 0.283515 0.821964
vt 0.350488 0.854254
vt 0.267119 0.828099
vt 0.364721 0.832270
vt 0.369399 0.847427
vt 0.385390 0.863867
vt 0.408242 0.897671
vt 0.399622 0.867836
vt 0.271037 0.880072
vt 0.247217 0.913179
vt 0.382336 0.916369
vt 0.458213 0.791998
vt 0.462026 0.782160
vt 0.465384 0.781668
vt 0.482795 0.794953
vt 0.511656 0.815854
vt 0.487150 0.841638
vt 0.456893 0.838854
vt 0.451323 0.850915
vt 0.413749 0.866369
vt 0.406292 0.906248
vt 0.459135 0.903159
vt 0.498442 0.893635
vt 0.571177 0.850208
vt 0.366810 0.938198
vt 0.344657 0.959383
vt 0.220495 0.950253
vt 0.305356 0.962592
vt 0.095076 0.209336
vt 0.084283 0.168901
vt 0.146601 0.195643
vt 0.045790 0.228575
vt 0.011450 0.191629
vt 0.017722 0.170593
vt 0.054315 0.161886
vt 0.229109 0.484462
vt 0.235365 0.472590
vt 0.241732 0.474896
vt 0.254276 0.480658
vt 0.256651 0.506345
vt 0.252467 0.537130
vt 0.225589 0.516971
vt 0.249980 0.545550
vt 0.221614 0.542220
vt 0.218458 0.559898
vt 0.212565 0.577414
vt 0.237285 0.565467
vt 0.210237 0.603282
vt 0.231520 0.601903
vt 0.230648 0.634853
vt 0.212402 0.636448
vt 0.187725 0.417953
vt 0.193130 0.420407
vt 0.188442 0.430754
vt 0.186581 0.425012
vt 0.185126 0.474428
vt 0.196521 0.464866
vt 0.203155 0.475429
vt 0.192517 0.439655
vt 0.190594 0.451428
vt 0.201304 0.495779
vt 0.198224 0.520578
vt 0.197554 0.537696
vt 0.201835 0.545489
vt 0.196865 0.548100
vt 0.173149 0.544051
vt 0.171436 0.510587
vt 0.186247 0.569694
vt 0.196310 0.575582
vt 0.190756 0.605118
vt 0.197792 0.588943
vt 0.198274 0.607282
vt 0.206072 0.615792
vt 0.202310 0.619694
vt 0.180900 0.476061
vt 0.158291 0.482067
vt 0.176120 0.469468
vt 0.224291 0.668529
vt 0.230826 0.729802
vt 0.238366 0.727742
vt 0.224630 0.734631
vt 0.260148 0.751764
vt 0.190056 0.378411
vt 0.183390 0.403601
vt 0.192192 0.636407
vt 0.197768 0.712287
vt 0.215671 0.694386
vt 0.177251 0.671751
vt 0.212724 0.715492
vt 0.214183 0.729934
vt 0.175736 0.697135
vt 0.181889 0.735982
vt 0.178128 0.721528
vt 0.219396 0.734411
vt 0.190182 0.751870
vt 0.164769 0.330422
vt 0.159692 0.367763
vt 0.149871 0.357809
vt 0.155364 0.359484
vt 0.179892 0.400012
vt 0.170759 0.401702
vt 0.165223 0.392346
vt 0.161378 0.457942
vt 0.169739 0.444160
vt 0.157250 0.501490
vt 0.157706 0.533400
vt 0.161668 0.576544
vt 0.159877 0.554112
vt 0.165654 0.605180
vt 0.173684 0.641112
vt 0.125407 0.369504
vt 0.138765 0.387009
vt 0.120801 0.390792
vt 0.140467 0.369530
vt 0.095324 0.394667
vt 0.141537 0.424821
vt 0.115868 0.423619
vt 0.143503 0.455696
vt 0.143317 0.510461
vt 0.113940 0.481403
vt 0.143178 0.440064
vt 0.123261 0.443200
vt 0.109860 0.461425
vt 0.126311 0.543282
vt 0.140893 0.538738
vt 0.133362 0.571997
vt 0.129447 0.579086
vt 0.132000 0.582966
vt 0.128587 0.608320
vt 0.118307 0.578698
vt 0.216088 0.791810
vt 0.253056 0.779004
vt 0.194520 0.819527
vt 0.199312 0.800649
vt 0.221935 0.860567
vt 0.197165 0.773809
vt 0.136216 0.293648
vt 0.183724 0.324805
vt 0.116232 0.319661
vt 0.146208 0.360031
vt 0.122738 0.353021
vt 0.115467 0.344082
vt 0.108482 0.343304
vt 0.102136 0.346315
vt 0.096985 0.344737
vt 0.086111 0.299641
vt 0.116452 0.394459
vt 0.113350 0.392528
vt 0.104915 0.379101
vt 0.090554 0.647110
vt 0.102034 0.579562
vt 0.114997 0.620490
vt 0.099261 0.680187
vt 0.123175 0.660855
vt 0.115600 0.682126
vt 0.093640 0.680044
vt 0.072871 0.677049
vt 0.081565 0.696096
vt 0.095720 0.428697
vt 0.062933 0.426142
vt 0.078219 0.410840
vt 0.084589 0.426349
vt 0.074386 0.452016
vt 0.086891 0.427446
vt 0.090213 0.423724
vt 0.118156 0.522101
vt 0.095114 0.504111
vt 0.117770 0.503162
vt 0.097979 0.541655
vt 0.072144 0.504303
vt 0.070397 0.581670
vt 0.073824 0.625310
vt 0.053275 0.543066
vt 0.162976 0.902075
vt 0.174452 0.886456
vt 0.146810 0.909171
vt 0.068561 0.254668
vt 0.090233 0.274588
vt 0.053476 0.298699
vt 0.051635 0.286411
vt 0.050900 0.324232
vt 0.068958 0.321984
vt 0.077382 0.708766
vt 0.058135 0.706157
vt 0.077265 0.731748
vt 0.048439 0.721775
vt 0.035856 0.755848
vt 0.065085 0.758685
vt 0.050330 0.774095
vt 0.060546 0.331628
vt 0.059598 0.407378
vt 0.070890 0.402958
vt 0.051917 0.422254
vt 0.040010 0.425268
vt 0.047722 0.459135
vt 0.050345 0.578915
vt 0.048280 0.639192
vt 0.033987 0.602870
vt 0.027520 0.668926
vt 0.072183 0.480242
vt 0.048525 0.505646
vt 0.032514 0.473927
vt 0.032558 0.450071
vt 0.060514 0.524763
vt 0.033415 0.505728
vt 0.032450 0.581607
vt 0.032776 0.567136
vt 0.186124 0.945698
vt 0.157641 0.946765
vt 0.024062 0.941583
vt 0.085216 0.951519
vt 0.069956 0.872963
vt 0.057696 0.896860
vt 0.021116 0.862209
vt 0.111892 0.910542
vt 0.077144 0.912939
vt 0.061293 0.908591
vt 0.019472 0.899770
vt 1.024062 0.941583
vt 0.991074 0.937513
vt 1.019472 0.899770
vt 0.060042 0.844777
vt 0.052559 0.835539
vt 0.038899 0.823834
vt 0.040240 0.248870
vt 0.031257 0.240923
vt 0.002551 0.215131
vt 0.021929 0.239654
vt 0.012375 0.245225
vt 1.008409 0.267416
vt 0.989914 0.254467
vt 1.012375 0.245225
vt 1.010281 0.279268
vt 0.008544 0.740652
vt 1.042569 0.786482
vt 1.035680 0.812761
vt 0.988831 0.783639
vt 0.006208 0.319169
vt 0.020550 0.315276
vt 0.029829 0.330984
vt 0.000667 0.384941
vt 0.019312 0.364407
vt 0.026597 0.400397
vt 0.015245 0.397123
vt 0.008219 0.402560
vt 0.034129 0.625558
vt 0.015092 0.695132
vt 0.540013 0.836015
vt 0.528770 0.890986
vt 0.562031 0.890662
vt 0.589544 0.882445
vt 0.603650 0.870896
vt 0.596511 0.858789
vt 0.603663 0.864045
vt 0.671151 0.623087
vt 0.672410 0.610568
vt 0.676835 0.604584
vt 0.687818 0.602281
vt 0.709833 0.617345
vt 0.697542 0.601253
vt 0.704587 0.639397
vt 0.709752 0.605663
vt 0.741208 0.792289
vt 0.723516 0.807948
vt 0.705848 0.783820
vt 0.701796 0.830784
vt 0.708374 0.816559
vt 0.694156 0.644726
vt 0.674792 0.630672
vt 0.724248 0.606868
vt 0.728130 0.605301
vt 0.733642 0.605145
vt 0.736376 0.590167
vt 0.736181 0.572295
vt 0.741695 0.578624
vt 0.738195 0.555796
vt 0.738768 0.602263
vt 0.717794 0.634589
vt 0.698724 0.645455
vt 0.724580 0.633184
vt 0.696882 0.675760
vt 0.700219 0.660597
vt 0.724445 0.645344
vt 0.760031 0.653081
vt 0.728212 0.704465
vt 0.696308 0.747264
vt 0.686699 0.727247
vt 0.742609 0.744583
vt 0.760214 0.686879
vt 0.743388 0.508776
vt 0.745370 0.480559
vt 0.749653 0.474430
vt 0.741543 0.541073
vt 0.950536 0.887151
vt 0.945088 0.936435
vt 0.880401 0.931112
vt 0.842660 0.903380
vt 1.038899 0.823834
vt 0.955187 0.842679
vt 0.966887 0.807261
vt 0.852768 0.852144
vt 0.991081 0.227390
vt 1.002551 0.215131
vt 0.962777 0.253710
vt 0.994578 0.765612
vt 1.002009 0.757949
vt 0.977037 0.770151
vt 0.958255 0.766318
vt 1.000666 0.384941
vt 0.998869 0.344730
vt 1.019312 0.364407
vt 1.006208 0.319169
vt 0.967429 0.301576
vt 0.978681 0.330841
vt 0.975390 0.382242
vt 0.941034 0.331397
vt 1.002795 0.416282
vt 0.975306 0.406468
vt 0.980732 0.429678
vt 1.001439 0.450576
vt 0.946902 0.434875
vt 0.996652 0.478806
vt 0.973382 0.466476
vt 0.990931 0.493184
vt 0.987160 0.506332
vt 0.956683 0.491404
vt 0.982169 0.542164
vt 0.948310 0.551600
vt 0.980205 0.564338
vt 0.969494 0.586535
vt 0.975693 0.580656
vt 0.820327 0.860482
vt 0.833381 0.871119
vt 0.911976 0.758084
vt 0.918670 0.799842
vt 0.852756 0.794227
vt 0.933758 0.813102
vt 0.863953 0.822120
vt 0.904447 0.296682
vt 0.923387 0.285037
vt 0.908255 0.268769
vt 0.915404 0.272734
vt 0.927844 0.336235
vt 0.908947 0.316843
vt 0.904061 0.718991
vt 0.900436 0.701629
vt 0.923551 0.720565
vt 0.932427 0.743287
vt 0.901363 0.733868
vt 0.951015 0.368240
vt 0.928645 0.360124
vt 0.948630 0.407434
vt 0.945675 0.391509
vt 0.937845 0.397131
vt 0.942063 0.391177
vt 0.911221 0.402810
vt 0.934102 0.408911
vt 0.927379 0.443446
vt 0.931985 0.435182
vt 0.927247 0.440017
vt 0.943132 0.487055
vt 0.956332 0.577078
vt 0.803023 0.782079
vt 0.775231 0.838563
vt 0.794510 0.850863
vt 0.820306 0.804347
vt 0.762821 0.835900
vt 0.858654 0.232841
vt 0.841883 0.230873
vt 0.848147 0.229738
vt 0.861553 0.284808
vt 0.823222 0.282853
vt 0.836659 0.237565
vt 0.836069 0.809874
vt 0.827622 0.809929
vt 0.888917 0.236006
vt 0.895284 0.245583
vt 0.875533 0.229626
vt 0.838000 0.305142
vt 0.879665 0.318916
vt 0.891085 0.352784
vt 0.913719 0.370007
vt 0.875982 0.363648
vt 0.906287 0.386440
vt 0.909356 0.374501
vt 0.905567 0.419770
vt 0.886471 0.376029
vt 0.884272 0.367685
vt 0.896669 0.438468
vt 0.883564 0.418094
vt 0.877599 0.462058
vt 0.879320 0.444595
vt 0.880386 0.605674
vt 0.883667 0.582878
vt 0.904768 0.596486
vt 0.910460 0.628358
vt 0.906856 0.672643
vt 0.884966 0.638989
vt 0.922631 0.683408
vt 0.872826 0.657341
vt 0.893144 0.754275
vt 0.914301 0.399341
vt 0.917684 0.383164
vt 0.932394 0.446982
vt 0.931853 0.464676
vt 0.903777 0.466280
vt 0.928039 0.486796
vt 0.897166 0.492221
vt 0.923652 0.590516
vt 0.901604 0.561107
vt 0.921474 0.560897
vt 0.903970 0.542028
vt 0.923157 0.542900
vt 0.925721 0.641995
vt 0.925591 0.657091
vt 0.786369 0.724271
vt 0.781267 0.708561
vt 0.779084 0.673586
vt 0.816066 0.330242
vt 0.813578 0.412786
vt 0.811712 0.374203
vt 0.828183 0.388804
vt 0.838378 0.335194
vt 0.839307 0.361004
vt 0.855241 0.377142
vt 0.841816 0.406955
vt 0.866957 0.400808
vt 0.867048 0.419603
vt 0.849049 0.451836
vt 0.835684 0.482696
vt 0.834181 0.597357
vt 0.829805 0.568022
vt 0.848239 0.558321
vt 0.848595 0.630838
vt 0.838814 0.618950
vt 0.851843 0.624394
vt 0.871340 0.376598
vt 0.868699 0.463803
vt 0.902032 0.521396
vt 0.871393 0.537148
vt 0.872168 0.506362
vt 0.834574 0.518634
vt 0.862593 0.533442
vt 0.869460 0.499287
vt 0.869158 0.562840
vt 0.858621 0.555139
vt 0.869264 0.645880
vt 0.770322 0.477240
vt 0.757669 0.471476
vt 0.766010 0.471582
vt 0.750881 0.589884
vt 0.780078 0.587173
vt 0.781204 0.619060
vt 0.765763 0.608553
vt 0.820602 0.462210
vt 0.815706 0.434512
vt 0.824073 0.509071
vt 0.821290 0.488476
vt 0.279962 0.606625
vt 0.272713 0.701157
vt 0.253816 0.735190
vt 0.330583 0.748217
vt 0.345859 0.803398
vt 0.358117 0.820033
vt 0.454286 0.820684
vt 0.115707 0.154933
vt 0.077912 0.138860
vt 0.089364 0.138699
vt 0.065962 0.154352
vt 0.029472 0.164473
vt 0.232444 0.473762
vt 0.250492 0.476167
vt 0.232647 0.577777
vt 0.201418 0.468569
vt 0.201904 0.541668
vt 0.199486 0.617251
vt 0.167499 0.442621
vt 0.164740 0.446723
vt 0.145136 0.472870
vt 0.145028 0.492040
vt 0.129998 0.575418
vt 0.127737 0.633177
vt 0.181888 0.838231
vt 0.156850 0.219069
vt 0.175980 0.279409
vt 0.127185 0.274902
vt 0.108686 0.244119
vt 0.080924 0.325793
vt 0.097684 0.383507
vt 0.100110 0.378223
vt 0.109504 0.687160
vt 0.173274 0.859281
vt 0.072409 0.748070
vt 0.055831 0.333728
vt 0.052616 0.331542
vt 0.064703 0.402282
vt 0.030494 0.659070
vt 0.032039 0.642470
vt 0.035151 0.430881
vt 0.032359 0.542854
vt 0.042569 0.786482
vt 0.010050 0.723649
vt 1.035856 0.755848
vt 0.002009 0.757949
vt 0.017076 0.297630
vt 0.010281 0.279268
vt 0.036471 0.346295
vt 0.035183 0.382158
vt 0.031876 0.397424
vt 0.002794 0.416282
vt 0.709188 0.805686
vt 0.716748 0.847337
vt 0.702853 0.838138
vt 0.741916 0.846958
vt 0.681114 0.636955
vt 0.676939 0.707872
vt 0.678422 0.695899
vt 0.692035 0.684587
vt 0.735362 0.601778
vt 0.765621 0.769978
vt 0.743780 0.489435
vt 0.853783 0.919481
vt 1.021116 0.862209
vt 0.974787 0.279250
vt 0.948290 0.259868
vt 0.837951 0.881990
vt 0.889706 0.244559
vt 0.921144 0.703350
vt 0.944197 0.757313
vt 0.942928 0.473920
vt 0.944809 0.522315
vt 0.965059 0.585700
vt 0.951554 0.567456
vt 0.879972 0.774329
vt 0.880507 0.362974
vt 0.885872 0.398119
vt 0.893202 0.688099
vt 0.883977 0.676637
vt 0.916704 0.372209
vt 0.908503 0.399362
vt 0.874590 0.477820
vt 0.923637 0.521119
vt 0.927006 0.618634
vt 0.778293 0.640914
vt 0.794741 0.749578
vt 0.828809 0.556679
vt 0.825375 0.533867
vt 0.832740 0.560908
vt 0.844861 0.632989
vt 0.856582 0.599884
vt 0.866320 0.440608
vt 0.867472 0.512831
vt 0.866747 0.592058
vt 0.866733 0.616664
vt 0.774163 0.492265
vt 0.777929 0.531172
vt 0.779460 0.565850
s 1
f 11/1/11 8/2/8 7/3/7
f 10/4/10 9/5/9 11/1/11
f 11/1/11 12/6/12 13/7/13
f 13/7/13 12/6/12 14/8/14
f 13/7/13 14/8/14 16/9/16
f 10/4/10 6/10/6 9/5/9
f 20/11/20 19/12/19 11/1/11
f 22/13/22 13/7/13 15/14/15
f 22/13/22 15/14/15 23/15/23
f 15/14/15 17/16/17 27/17/27
f 32/18/32 35/19/35 31/20/31
f 35/19/35 33/21/33 34/22/34
f 35/19/35 34/22/34 36/23/36
f 37/24/37 36/23/36 38/25/38
f 39/26/39 31/20/31 35/19/35
f 40/27/40 37/24/37 52/28/52
f 43/29/43 41/30/41 42/31/42
f 43/29/43 42/31/42 46/32/46
f 47/33/47 43/29/43 46/32/46
f 48/34/48 43/29/43 47/33/47
f 45/35/45 48/34/48 49/36/49
f 37/24/37 38/25/38 50/37/50
f 52/28/52 37/24/37 51/38/51
f 37/24/37 50/37/50 49/36/49
f 51/38/51 37/24/37 54/39/54
f 54/39/54 49/36/49 53/40/53
f 53/40/53 49/36/49 314/41/314
f 56/42/56 40/27/40 52/28/52
f 40/27/40 56/42/56 57/43/57
f 55/44/55 57/43/57 58/45/58
f 62/46/62 61/47/61 59/48/59
f 62/46/62 63/49/63 61/47/61
f 69/50/69 61/47/61 63/49/63
f 70/51/70 67/52/67 61/47/61
f 75/53/75 73/54/73 72/55/72
f 72/55/72 1/56/1 3/57/3
f 72/55/72 3/57/3 4/58/4
f 76/59/76 72/55/72 4/58/4
f 4/58/4 5/60/5 77/61/77
f 75/53/75 72/55/72 76/59/76
f 77/61/77 76/59/76 4/58/4
f 77/61/77 5/60/5 78/62/78
f 78/62/78 5/60/5 82/63/82
f 82/63/82 5/60/5 79/64/79
f 83/65/83 82/63/82 81/66/81
f 83/65/83 81/66/81 84/67/84
f 83/65/83 84/67/84 85/68/85
f 125/69/125 86/70/86 87/71/87
f 88/72/88 125/69/125 87/71/87
f 95/73/95 92/74/92 90/75/90
f 87/71/87 93/76/93 94/77/94
f 90/75/90 91/78/91 96/79/96
f 97/80/97 99/81/99 100/82/100
f 101/83/101 96/79/96 97/80/97
f 101/83/101 97/80/97 100/82/100
f 110/84/110 90/75/90 96/79/96
f 101/83/101 100/82/100 104/85/104
f 104/85/104 100/82/100 103/86/103
f 106/87/106 102/88/102 105/89/105
f 107/90/107 85/68/85 108/91/108
f 95/73/95 90/75/90 110/84/110
f 110/84/110 111/92/111 95/73/95
f 113/93/113 112/94/112 111/92/111
f 85/68/85 84/67/84 114/95/114
f 118/96/118 117/97/117 120/98/120
f 117/97/117 25/99/25 120/98/120
f 123/100/123 86/70/86 125/69/125
f 126/101/126 123/100/123 125/69/125
f 128/102/128 85/68/85 114/95/114
f 106/87/106 85/68/85 128/102/128
f 131/103/131 114/95/114 115/104/115
f 130/105/130 128/102/128 131/103/131
f 131/103/131 116/106/116 119/107/119
f 132/108/132 130/105/130 131/103/131
f 133/109/133 134/110/134 131/103/131
f 131/103/131 121/111/121 133/109/133
f 133/109/133 121/111/121 135/112/135
f 138/113/138 123/100/123 137/114/137
f 141/115/141 138/113/138 139/116/139
f 137/114/137 123/100/123 127/117/127
f 137/114/137 127/117/127 144/118/144
f 145/119/145 137/114/137 144/118/144
f 147/120/147 146/121/146 112/94/112
f 113/93/113 110/84/110 150/122/150
f 151/123/151 110/84/110 101/83/101
f 154/124/154 101/83/101 104/85/104
f 101/83/101 154/124/154 152/125/152
f 153/126/153 128/102/128 129/127/129
f 143/128/143 157/129/157 158/130/158
f 143/128/143 142/131/142 157/129/157
f 195/132/195 155/133/155 156/134/156
f 162/135/162 165/136/165 164/137/164
f 156/134/156 160/138/160 162/135/162
f 156/134/156 162/135/162 163/139/163
f 202/140/202 162/135/162 164/137/164
f 167/141/167 165/136/165 166/142/166
f 170/143/170 172/144/172 173/145/173
f 174/146/174 175/147/175 173/145/173
f 122/148/122 30/149/30 31/20/31
f 122/148/122 31/20/31 179/150/179
f 178/151/178 122/148/122 179/150/179
f 181/152/181 179/150/179 31/20/31
f 136/153/136 122/148/122 178/151/178
f 183/154/183 124/155/124 138/113/138
f 189/156/189 183/154/183 138/113/138
f 189/156/189 140/157/140 190/158/190
f 190/158/190 140/157/140 143/128/143
f 189/156/189 138/113/138 140/157/140
f 191/159/191 189/156/189 190/158/190
f 192/160/192 189/156/189 191/159/191
f 193/161/193 194/162/194 192/160/192
f 192/160/192 186/163/186 189/156/189
f 155/133/155 158/130/158 157/129/157
f 158/130/158 155/133/155 196/164/196
f 195/132/195 197/165/197 196/164/196
f 198/166/198 197/165/197 195/132/195
f 206/167/206 203/168/203 177/169/177
f 205/170/205 206/167/206 177/169/177
f 205/170/205 204/171/204 207/172/207
f 205/170/205 209/173/209 253/174/253
f 253/174/253 209/173/209 232/175/232
f 199/176/199 195/132/195 156/134/156
f 214/177/214 213/178/213 212/179/212
f 156/134/156 163/139/163 202/140/202
f 215/180/215 199/176/199 202/140/202
f 211/181/211 210/182/210 199/176/199
f 168/183/168 218/184/218 169/185/169
f 217/186/217 219/187/219 218/184/218
f 219/187/219 215/180/215 218/184/218
f 203/168/203 217/186/217 175/147/175
f 203/168/203 220/188/220 217/186/217
f 206/167/206 221/189/221 203/168/203
f 220/188/220 249/190/249 217/186/217
f 224/191/224 181/152/181 40/27/40
f 181/152/181 224/191/224 223/192/223
f 224/191/224 40/27/40 225/193/225
f 186/163/186 226/194/226 188/195/188
f 226/194/226 227/196/227 228/197/228
f 231/198/231 186/163/186 230/199/230
f 233/200/233 255/201/255 232/175/232
f 235/202/235 255/201/255 233/200/233
f 235/202/235 234/203/234 255/201/255
f 286/204/286 237/205/237 238/206/238
f 239/207/239 231/198/231 230/199/230
f 244/208/244 242/209/242 214/177/214
f 244/208/244 214/177/214 245/210/245
f 246/211/246 245/210/245 214/177/214
f 247/212/247 214/177/214 215/180/215
f 220/188/220 250/213/250 249/190/249
f 221/189/221 250/213/250 220/188/220
f 254/214/254 252/215/252 250/213/250
f 253/174/253 254/214/254 206/167/206
f 255/201/255 254/214/254 253/174/253
f 255/201/255 305/216/305 254/214/254
f 216/217/216 257/218/257 247/212/247
f 259/219/259 247/212/247 257/218/257
f 258/220/258 246/211/246 247/212/247
f 249/190/249 257/218/257 248/221/248
f 260/222/260 257/218/257 249/190/249
f 251/223/251 309/224/309 250/213/250
f 40/27/40 55/44/55 262/225/262
f 264/226/264 40/27/40 262/225/262
f 266/227/266 264/226/264 265/228/265
f 267/229/267 269/230/269 270/231/270
f 263/232/263 264/226/264 266/227/266
f 268/233/268 266/227/266 271/234/271
f 270/231/270 269/230/269 272/235/272
f 271/234/271 266/227/266 272/235/272
f 266/236/266 273/237/273 272/238/272
f 275/239/275 267/229/267 270/231/270
f 275/239/275 270/231/270 276/240/276
f 276/240/276 270/231/270 277/241/277
f 278/242/278 226/194/226 228/197/228
f 279/243/279 63/49/63 278/242/278
f 71/244/71 63/49/63 280/245/280
f 282/246/282 71/244/71 280/245/280
f 283/247/283 285/248/285 282/249/282
f 285/248/285 283/247/283 284/250/284
f 234/203/234 286/204/286 288/251/288
f 287/252/287 274/253/274 374/254/374
f 290/255/290 295/256/295 293/257/293
f 300/258/300 294/259/294 298/260/298
f 299/261/299 300/258/300 298/260/298
f 301/262/301 300/258/300 299/261/299
f 254/214/254 302/263/302 252/215/252
f 307/264/307 305/216/305 234/203/234
f 49/36/49 48/34/48 314/41/314
f 48/34/48 310/265/310 314/41/314
f 53/40/53 314/41/314 311/266/311
f 311/266/311 314/41/314 312/267/312
f 313/268/313 312/267/312 315/269/315
f 315/269/315 316/270/316 317/271/317
f 321/272/321 318/273/318 319/274/319
f 321/272/321 319/274/319 320/275/320
f 323/276/323 320/275/320 322/277/322
f 323/276/323 321/272/321 320/275/320
f 325/278/325 321/272/321 323/276/323
f 326/279/326 323/276/323 322/277/322
f 330/280/330 336/281/336 329/282/329
f 336/281/336 335/283/335 327/284/327
f 321/272/321 338/285/338 324/286/324
f 325/278/325 338/285/338 321/272/321
f 323/276/323 326/279/326 349/287/349
f 349/287/349 350/288/350 351/289/351
f 354/290/354 353/291/353 355/292/355
f 355/292/355 353/291/353 348/293/348
f 356/294/356 354/290/354 355/292/355
f 357/295/357 325/278/325 349/287/349
f 357/295/357 349/287/349 351/289/351
f 357/295/357 339/296/339 325/278/325
f 357/295/357 359/297/359 339/296/339
f 347/298/347 340/299/340 358/300/358
f 359/297/359 358/300/358 339/296/339
f 351/289/351 356/294/356 359/297/359
f 360/301/360 347/298/347 358/300/358
f 359/297/359 356/294/356 358/300/358
f 346/302/346 342/303/342 341/304/341
f 360/301/360 346/302/346 347/298/347
f 363/305/363 346/302/346 362/306/362
f 330/280/330 329/282/329 363/305/363
f 368/307/368 364/308/364 366/309/366
f 355/292/355 348/293/348 367/310/367
f 373/311/373 272/238/272 370/312/370
f 370/312/370 371/313/371 400/314/400
f 274/253/274 277/315/277 374/254/374
f 277/315/277 376/316/376 377/317/377
f 376/316/376 373/311/373 404/318/404
f 285/248/285 379/319/379 71/320/71
f 285/248/285 380/321/380 379/319/379
f 374/254/374 384/322/384 289/323/289
f 384/322/384 374/254/374 385/324/385
f 374/254/374 375/325/375 385/324/385
f 300/326/300 296/327/296 294/328/294
f 290/329/290 382/330/382 284/250/284
f 386/331/386 290/329/290 296/327/296
f 387/332/387 386/331/386 296/327/296
f 386/331/386 382/330/382 290/329/290
f 386/331/386 414/333/414 382/330/382
f 308/334/308 387/332/387 300/326/300
f 389/335/389 387/332/387 308/334/308
f 391/336/391 308/334/308 390/337/390
f 428/338/428 389/335/389 391/336/391
f 392/339/392 394/340/394 390/337/390
f 394/340/394 391/336/391 390/337/390
f 393/341/393 394/340/394 392/339/392
f 428/338/428 391/336/391 394/340/394
f 395/342/395 394/340/394 393/341/393
f 442/343/442 394/340/394 396/344/396
f 443/345/443 396/344/396 397/346/397
f 399/347/399 397/346/397 398/348/398
f 402/349/402 404/318/404 405/350/405
f 425/351/425 410/352/410 411/353/411
f 410/352/410 378/354/378 457/355/457
f 460/356/460 413/357/413 414/333/414
f 413/357/413 407/358/407 415/359/415
f 418/360/418 416/361/416 414/333/414
f 416/361/416 460/356/460 414/333/414
f 422/362/422 479/363/479 419/364/419
f 419/364/419 424/365/424 425/351/425
f 426/366/426 419/364/419 425/351/425
f 388/367/388 414/333/414 386/331/386
f 414/333/414 417/368/417 418/360/418
f 388/367/388 417/368/417 414/333/414
f 427/369/427 388/367/388 387/332/387
f 428/338/428 427/369/427 389/335/389
f 427/369/427 429/370/429 388/367/388
f 431/371/431 417/368/417 430/372/430
f 487/373/487 431/371/431 432/374/432
f 436/375/436 485/376/485 435/377/435
f 442/343/442 428/338/428 394/340/394
f 442/343/442 434/378/434 428/338/428
f 399/347/399 439/379/439 397/346/397
f 447/380/447 448/381/448 330/280/330
f 404/318/404 402/349/402 403/382/403
f 404/318/404 448/381/448 446/383/446
f 448/381/448 449/384/449 336/281/336
f 459/385/459 450/386/450 451/387/451
f 453/388/453 454/389/454 452/390/452
f 457/355/457 455/391/455 411/353/411
f 457/355/457 446/383/446 456/392/456
f 408/393/408 409/394/409 458/395/458
f 407/358/407 453/388/453 409/394/409
f 409/394/409 453/388/453 459/385/459
f 508/396/508 453/388/453 461/397/461
f 417/368/417 465/398/465 418/360/418
f 465/398/465 416/361/416 418/360/418
f 463/399/463 465/398/465 417/368/417
f 461/397/461 453/388/453 460/356/460
f 416/361/416 461/397/461 460/356/460
f 465/398/465 461/397/461 416/361/416
f 468/400/468 461/397/461 465/398/465
f 469/401/469 465/398/465 464/402/464
f 470/403/470 465/398/465 469/401/469
f 465/398/465 471/404/471 466/405/466
f 473/406/473 474/407/474 470/403/470
f 473/406/473 534/408/534 533/409/533
f 478/410/478 542/411/542 500/412/500
f 476/413/476 480/414/480 475/415/475
f 475/415/475 478/410/478 476/413/476
f 478/410/478 500/412/500 476/413/476
f 421/416/421 479/363/479 480/414/480
f 477/417/477 475/415/475 480/414/480
f 462/418/462 426/366/426 425/351/425
f 431/371/431 486/419/486 484/420/484
f 437/421/437 470/403/470 485/376/485
f 489/422/489 491/423/491 470/403/470
f 470/403/470 491/423/491 473/406/473
f 490/424/490 491/423/491 489/422/489
f 490/424/490 492/425/492 491/423/491
f 534/408/534 473/406/473 491/423/491
f 492/425/492 534/408/534 491/423/491
f 497/426/497 499/427/499 498/428/498
f 496/429/496 493/430/493 498/428/498
f 500/412/500 499/427/499 497/426/497
f 499/427/499 496/429/496 498/428/498
f 476/413/476 501/431/501 440/432/440
f 504/433/504 363/305/363 362/306/362
f 505/434/505 362/306/362 506/435/506
f 508/396/508 509/436/509 454/389/454
f 513/437/513 511/438/511 512/439/512
f 510/440/510 514/441/514 509/436/509
f 515/442/515 512/439/512 514/441/514
f 515/442/515 517/443/517 512/439/512
f 531/444/531 517/443/517 515/442/515
f 514/441/514 512/439/512 511/438/511
f 516/445/516 518/446/518 517/443/517
f 518/446/518 519/447/519 513/437/513
f 523/448/523 525/449/525 520/450/520
f 526/451/526 529/452/529 527/453/527
f 530/454/530 531/444/531 515/442/515
f 536/455/536 519/447/519 518/446/518
f 495/456/495 538/457/538 537/458/537
f 538/457/538 495/456/495 496/429/496
f 520/450/520 521/459/521 541/460/541
f 541/460/541 519/447/519 539/461/539
f 542/411/542 499/427/499 500/412/500
f 542/411/542 544/462/544 499/427/499
f 499/427/499 544/462/544 496/429/496
f 546/463/546 520/450/520 541/460/541
f 477/417/477 547/464/547 475/415/475
f 550/465/550 552/466/552 549/467/549
f 369/468/369 355/292/355 367/310/367
f 555/469/555 502/470/502 361/471/361
f 557/472/557 556/473/556 513/437/513
f 559/474/559 558/475/558 519/447/519
f 559/474/559 519/447/519 521/459/521
f 9/5/9 8/2/8 11/1/11
f 13/7/13 16/9/16 17/16/17
f 17/16/17 15/14/15 13/7/13
f 10/4/10 18/476/18 6/10/6
f 19/12/19 10/4/10 11/1/11
f 20/11/20 11/1/11 21/477/21
f 21/477/21 11/1/11 13/7/13
f 22/13/22 21/477/21 13/7/13
f 25/99/25 23/15/23 15/14/15
f 25/99/25 24/478/24 23/15/23
f 25/99/25 15/14/15 27/17/27
f 17/16/17 16/9/16 26/479/26
f 27/17/27 17/16/17 28/480/28
f 28/480/28 17/16/17 26/479/26
f 33/21/33 27/17/27 28/480/28
f 30/149/30 25/99/25 27/17/27
f 32/18/32 30/149/30 27/17/27
f 31/20/31 30/149/30 32/18/32
f 32/18/32 27/17/27 33/21/33
f 35/19/35 32/18/32 33/21/33
f 33/21/33 28/480/28 29/481/29
f 37/24/37 35/19/35 36/23/36
f 39/26/39 35/19/35 37/24/37
f 39/26/39 37/24/37 40/27/40
f 48/34/48 45/35/45 44/482/44
f 48/34/48 44/482/44 43/29/43
f 54/39/54 37/24/37 49/36/49
f 55/44/55 40/27/40 57/43/57
f 59/48/59 61/47/61 60/483/60
f 60/483/60 65/484/65 64/485/64
f 61/47/61 65/484/65 60/483/60
f 66/486/66 65/484/65 61/47/61
f 61/47/61 67/52/67 66/486/66
f 61/47/61 69/50/69 70/51/70
f 67/52/67 70/51/70 68/487/68
f 63/49/63 71/244/71 69/50/69
f 75/53/75 74/488/74 73/54/73
f 72/55/72 2/489/2 1/56/1
f 82/63/82 79/64/79 80/490/80
f 82/63/82 80/490/80 81/66/81
f 90/75/90 92/74/92 89/491/89
f 95/73/95 94/77/94 92/74/92
f 87/71/87 86/70/86 93/76/93
f 97/80/97 98/492/98 99/81/99
f 104/85/104 103/86/103 102/88/102
f 106/87/106 104/85/104 102/88/102
f 107/90/107 83/65/83 85/68/85
f 106/87/106 105/89/105 109/493/109
f 113/93/113 111/92/111 110/84/110
f 110/84/110 96/79/96 101/83/101
f 25/99/25 117/97/117 24/478/24
f 120/98/120 25/99/25 30/149/30
f 121/111/121 120/98/120 30/149/30
f 121/111/121 30/149/30 122/148/122
f 123/100/123 138/113/138 124/155/124
f 126/101/126 127/117/127 123/100/123
f 109/493/109 108/91/108 85/68/85
f 106/87/106 109/493/109 85/68/85
f 131/103/131 128/102/128 114/95/114
f 130/105/130 129/127/129 128/102/128
f 131/103/131 115/104/115 116/106/116
f 134/110/134 132/108/132 131/103/131
f 131/103/131 119/107/119 121/111/121
f 137/114/137 139/116/139 138/113/138
f 141/115/141 140/157/140 138/113/138
f 143/128/143 140/157/140 142/131/142
f 147/120/147 112/94/112 113/93/113
f 148/494/148 146/121/146 147/120/147
f 147/120/147 149/495/149 148/494/148
f 151/123/151 150/122/150 110/84/110
f 101/83/101 152/125/152 151/123/151
f 153/126/153 154/124/154 104/85/104
f 104/85/104 106/87/106 128/102/128
f 128/102/128 153/126/153 104/85/104
f 165/136/165 161/496/161 159/497/159
f 162/135/162 161/496/161 165/136/165
f 156/134/156 155/133/155 160/138/160
f 202/140/202 163/139/163 162/135/162
f 169/185/169 164/137/164 165/136/165
f 167/141/167 168/183/168 165/136/165
f 165/136/165 168/183/168 169/185/169
f 166/142/166 170/143/170 167/141/167
f 175/147/175 167/141/167 170/143/170
f 170/143/170 171/498/171 172/144/172
f 175/147/175 170/143/170 173/145/173
f 175/147/175 217/186/217 167/141/167
f 177/169/177 174/146/174 176/499/176
f 180/500/180 179/150/179 181/152/181
f 183/154/183 184/501/184 182/502/182
f 136/153/136 121/111/121 122/148/122
f 136/153/136 135/112/135 121/111/121
f 124/155/124 183/154/183 182/502/182
f 185/503/185 184/501/184 183/154/183
f 186/163/186 185/503/185 183/154/183
f 184/501/184 185/503/185 187/504/187
f 185/503/185 188/195/188 187/504/187
f 189/156/189 186/163/186 183/154/183
f 229/505/229 192/160/192 194/162/194
f 195/132/195 196/164/196 155/133/155
f 201/506/201 198/166/198 195/132/195
f 198/166/198 201/506/201 200/507/200
f 167/141/167 217/186/217 168/183/168
f 175/147/175 174/146/174 177/169/177
f 203/168/203 175/147/175 177/169/177
f 205/170/205 176/499/176 204/171/204
f 176/499/176 205/170/205 177/169/177
f 207/172/207 208/508/208 205/170/205
f 205/170/205 253/174/253 206/167/206
f 210/182/210 195/132/195 199/176/199
f 202/140/202 199/176/199 156/134/156
f 218/184/218 202/140/202 164/137/164
f 218/184/218 215/180/215 202/140/202
f 215/180/215 211/181/211 199/176/199
f 214/177/214 212/179/212 211/181/211
f 215/180/215 214/177/214 211/181/211
f 217/186/217 218/184/218 168/183/168
f 169/185/169 218/184/218 164/137/164
f 217/186/217 248/221/248 219/187/219
f 217/186/217 249/190/249 248/221/248
f 219/187/219 216/217/216 215/180/215
f 203/168/203 221/189/221 220/188/220
f 181/152/181 31/20/31 39/26/39
f 222/509/222 180/500/180 181/152/181
f 222/509/222 181/152/181 223/192/223
f 181/152/181 39/26/39 40/27/40
f 184/501/184 62/46/62 59/48/59
f 187/504/187 62/46/62 184/501/184
f 187/504/187 63/49/63 62/46/62
f 186/163/186 188/195/188 185/503/185
f 188/195/188 226/194/226 187/504/187
f 186/163/186 227/196/227 226/194/226
f 226/194/226 63/49/63 187/504/187
f 229/505/229 186/163/186 192/160/192
f 229/505/229 230/199/230 186/163/186
f 231/198/231 227/196/227 186/163/186
f 232/175/232 255/201/255 253/174/253
f 236/510/236 237/205/237 234/203/234
f 235/202/235 236/510/236 234/203/234
f 234/203/234 237/205/237 286/204/286
f 239/207/239 240/511/240 231/198/231
f 241/512/241 231/198/231 240/511/240
f 214/177/214 242/209/242 213/178/213
f 242/209/242 244/208/244 243/513/243
f 247/212/247 215/180/215 216/217/216
f 247/212/247 246/211/246 214/177/214
f 219/187/219 257/218/257 216/217/216
f 252/215/252 251/223/251 250/213/250
f 206/167/206 254/214/254 221/189/221
f 221/189/221 254/214/254 250/213/250
f 254/214/254 303/514/303 304/515/304
f 255/201/255 234/203/234 305/216/305
f 254/214/254 305/216/305 303/514/303
f 258/220/258 256/516/256 246/211/246
f 247/212/247 259/219/259 258/220/258
f 248/221/248 257/218/257 219/187/219
f 249/190/249 261/517/261 260/222/260
f 260/222/260 259/219/259 257/218/257
f 250/213/250 309/224/309 249/190/249
f 263/232/263 40/27/40 264/226/264
f 225/193/225 40/27/40 263/232/263
f 266/227/266 268/233/268 263/232/263
f 269/230/269 271/234/271 272/235/272
f 226/194/226 278/242/278 63/49/63
f 279/243/279 280/245/280 63/49/63
f 285/248/285 71/320/71 282/249/282
f 287/518/287 286/204/286 238/206/238
f 234/203/234 288/251/288 306/519/306
f 286/520/286 287/252/287 374/254/374
f 288/251/288 286/204/286 289/521/289
f 374/254/374 289/323/289 286/520/286
f 281/522/281 290/255/290 284/523/284
f 294/259/294 291/524/291 292/525/292
f 294/259/294 293/257/293 291/524/291
f 290/255/290 281/522/281 295/256/295
f 294/259/294 290/255/290 293/257/293
f 294/328/294 296/327/296 290/329/290
f 297/526/297 298/260/298 292/525/292
f 298/260/298 294/259/294 292/525/292
f 304/515/304 302/263/302 254/214/254
f 234/203/234 306/519/306 307/264/307
f 301/262/301 308/527/308 300/258/300
f 309/224/309 261/517/261 249/190/249
f 310/265/310 48/34/48 47/33/47
f 312/267/312 314/41/314 316/270/316
f 315/269/315 312/267/312 316/270/316
f 336/281/336 327/284/327 328/528/328
f 329/282/329 336/281/336 328/528/328
f 336/281/336 333/529/333 332/530/332
f 334/531/334 333/529/333 336/281/336
f 336/281/336 332/530/332 335/283/335
f 324/286/324 338/285/338 337/532/337
f 339/296/339 338/285/338 325/278/325
f 358/300/358 340/299/340 339/296/339
f 344/533/344 343/534/343 345/535/345
f 345/535/345 341/304/341 344/533/344
f 345/535/345 346/302/346 341/304/341
f 347/298/347 346/302/346 345/535/345
f 323/276/323 349/287/349 325/278/325
f 351/289/351 352/536/352 356/294/356
f 356/294/356 352/536/352 354/290/354
f 355/292/355 369/468/369 356/294/356
f 357/295/357 351/289/351 359/297/359
f 356/294/356 369/468/369 358/300/358
f 369/468/369 361/471/361 358/300/358
f 361/471/361 360/301/360 358/300/358
f 363/305/363 329/282/329 342/303/342
f 331/537/331 330/280/330 363/305/363
f 346/302/346 363/305/363 342/303/342
f 368/307/368 365/538/365 364/308/364
f 400/314/400 371/313/371 372/539/372
f 272/238/272 273/237/273 370/312/370
f 373/311/373 370/312/370 400/314/400
f 404/318/404 373/311/373 400/314/400
f 378/354/378 375/325/375 377/317/377
f 376/316/376 277/315/277 270/540/270
f 270/540/270 272/238/272 373/311/373
f 377/317/377 374/254/374 277/315/277
f 376/316/376 270/540/270 373/311/373
f 378/354/378 377/317/377 376/316/376
f 284/250/284 381/541/381 285/248/285
f 284/250/284 382/330/382 381/541/381
f 285/248/285 381/541/381 380/321/380
f 380/321/380 381/541/381 383/542/383
f 382/330/382 413/357/413 381/541/381
f 377/317/377 375/325/375 374/254/374
f 387/332/387 388/367/388 386/331/386
f 300/326/300 387/332/387 296/327/296
f 389/335/389 427/369/427 387/332/387
f 391/336/391 389/335/389 308/334/308
f 395/342/395 396/344/396 394/340/394
f 396/344/396 443/345/443 442/343/442
f 404/318/404 400/314/400 401/543/401
f 404/318/404 401/543/401 405/350/405
f 406/544/406 409/394/409 408/393/408
f 411/353/411 410/352/410 457/355/457
f 457/355/457 376/316/376 404/318/404
f 457/355/457 378/354/378 376/316/376
f 414/333/414 413/357/413 382/330/382
f 413/357/413 383/542/383 381/541/381
f 383/542/383 413/357/413 415/359/415
f 413/357/413 460/356/460 407/358/407
f 420/545/420 419/364/419 479/363/479
f 420/545/420 479/363/479 421/416/421
f 410/352/410 375/325/375 378/354/378
f 423/546/423 375/325/375 410/352/410
f 424/365/424 423/546/423 410/352/410
f 425/351/425 424/365/424 410/352/410
f 388/367/388 429/370/429 430/372/430
f 388/367/388 430/372/430 417/368/417
f 417/368/417 431/371/431 484/420/484
f 436/375/436 437/421/437 485/376/485
f 421/416/421 480/414/480 440/432/440
f 434/378/434 433/547/433 428/338/428
f 443/345/443 444/548/444 442/343/442
f 444/548/444 434/378/434 442/343/442
f 399/347/399 445/549/445 439/379/439
f 439/379/439 443/345/443 397/346/397
f 439/379/439 438/550/438 443/345/443
f 448/381/448 336/281/336 330/280/330
f 331/537/331 447/380/447 330/280/330
f 448/381/448 404/318/404 403/382/403
f 336/281/336 449/384/449 334/531/334
f 459/385/459 452/390/452 450/386/450
f 446/383/446 448/381/448 447/380/447
f 457/355/457 404/318/404 446/383/446
f 457/355/457 456/392/456 455/391/455
f 409/394/409 459/385/459 458/395/458
f 407/358/407 460/356/460 453/388/453
f 459/385/459 453/388/453 452/390/452
f 461/397/461 510/440/510 508/396/508
f 461/397/461 514/441/514 510/440/510
f 412/551/412 425/351/425 411/353/411
f 462/418/462 425/351/425 412/551/412
f 464/402/464 465/398/465 463/399/463
f 461/397/461 468/400/468 514/441/514
f 465/398/465 467/552/467 468/400/468
f 466/405/466 467/552/467 465/398/465
f 465/398/465 470/403/470 472/553/472
f 472/553/472 471/404/471 465/398/465
f 470/403/470 474/407/474 472/553/472
f 473/406/473 533/409/533 474/407/474
f 480/414/480 479/363/479 481/554/481
f 482/555/482 477/417/477 481/554/481
f 481/554/481 477/417/477 480/414/480
f 426/366/426 422/362/422 419/364/419
f 417/368/417 483/556/483 463/399/463
f 417/368/417 484/420/484 483/556/483
f 432/374/432 485/376/485 487/373/487
f 431/371/431 487/373/487 486/419/486
f 485/376/485 470/403/470 487/373/487
f 469/401/469 488/557/488 470/403/470
f 488/557/488 487/373/487 470/403/470
f 437/421/437 489/422/489 470/403/470
f 492/425/492 535/558/535 534/408/534
f 495/456/495 490/424/490 494/559/494
f 493/430/493 495/456/495 494/559/494
f 493/430/493 496/429/496 495/456/495
f 490/424/490 495/456/495 492/425/492
f 492/425/492 495/456/495 537/458/537
f 497/426/497 441/560/441 501/431/501
f 501/431/501 500/412/500 497/426/497
f 476/413/476 500/412/500 501/431/501
f 440/432/440 480/414/480 476/413/476
f 361/471/361 502/470/502 360/301/360
f 506/435/506 360/301/360 503/561/503
f 505/434/505 504/433/504 362/306/362
f 362/306/362 346/302/346 360/301/360
f 360/301/360 506/435/506 362/306/362
f 507/562/507 447/380/447 331/537/331
f 504/433/504 331/537/331 363/305/363
f 331/537/331 504/433/504 507/562/507
f 508/396/508 510/440/510 509/436/509
f 508/396/508 454/389/454 453/388/453
f 509/436/509 514/441/514 511/438/511
f 531/444/531 516/445/516 517/443/517
f 512/439/512 517/443/517 513/437/513
f 517/443/517 518/446/518 513/437/513
f 513/437/513 519/447/519 557/472/557
f 522/563/522 560/564/560 521/459/521
f 546/463/546 523/448/523 520/450/520
f 522/563/522 525/449/525 524/565/524
f 520/450/520 525/449/525 522/563/522
f 526/451/526 528/566/528 529/452/529
f 545/567/545 527/453/527 523/448/523
f 527/453/527 529/452/529 523/448/523
f 514/441/514 468/400/468 515/442/515
f 468/400/468 530/454/530 515/442/515
f 516/445/516 532/568/532 518/446/518
f 532/568/532 536/455/536 518/446/518
f 492/425/492 537/458/537 535/558/535
f 539/461/539 540/569/540 541/460/541
f 520/450/520 522/563/522 521/459/521
f 539/461/539 519/447/519 536/455/536
f 541/460/541 521/459/521 519/447/519
f 478/410/478 543/570/543 542/411/542
f 496/429/496 544/462/544 538/457/538
f 543/570/543 544/462/544 542/411/542
f 545/567/545 523/448/523 546/463/546
f 478/410/478 475/415/475 548/571/548
f 547/464/547 548/571/548 475/415/475
f 478/410/478 548/571/548 543/570/543
f 552/466/552 368/307/368 366/309/366
f 550/465/550 551/572/551 552/466/552
f 368/307/368 553/573/553 367/310/367
f 551/572/551 368/307/368 552/466/552
f 553/573/553 368/307/368 551/572/551
f 554/574/554 367/310/367 553/573/553
f 554/574/554 369/468/369 367/310/367
f 555/469/555 361/471/361 369/468/369
f 555/469/555 369/468/369 554/574/554
f 502/470/502 503/561/503 360/301/360
f 519/447/519 558/475/558 557/472/557
f 521/459/521 560/564/560 559/474/559
