# Blender 5.2.1 LTS
# www.blender.org
o ZombieHead3Gore
v -0.125199 -0.556561 0.276097
v -0.088998 -0.534497 0.275406
v -0.157762 -0.372399 0.296306
v -0.135234 -0.394695 0.251645
v -0.118447 -0.386819 0.312833
v -0.096792 -0.377953 0.334921
v -0.159339 -0.511292 0.203558
v -0.125957 -0.529345 0.253516
v -0.149102 -0.499129 0.238664
v -0.170953 -0.497706 0.151288
v -0.134875 -0.502542 0.184286
v -0.114579 -0.499934 0.210942
v -0.119489 -0.501798 0.248507
v -0.143588 -0.387777 0.189251
v -0.122094 -0.396122 0.182102
v -0.179147 -0.443114 0.110149
v -0.187815 -0.463120 0.082648
v -0.167569 -0.487870 0.107761
v -0.158158 -0.468418 0.104512
v -0.139803 -0.439815 0.144261
v -0.152175 -0.484177 0.102382
v -0.125421 -0.508906 0.124141
v -0.111310 -0.431408 0.157470
v -0.119354 -0.464435 0.129138
v -0.110932 -0.491480 0.110614
v -0.093354 -0.493798 0.116510
v -0.102606 -0.454794 0.112093
v -0.178764 -0.405186 0.123236
v -0.140575 -0.390579 0.157308
v -0.110112 -0.408231 0.169868
v -0.186834 -0.472630 0.077489
v 0.000243 -0.348219 0.371367
v -0.088878 -0.557414 0.292799
v -0.076608 -0.508365 0.269785
v -0.044215 -0.558428 0.308615
v -0.043585 -0.514409 0.285864
v 0.002925 -0.563914 0.316972
v -0.044622 -0.538976 0.293848
v -0.022767 -0.519180 0.278285
v -0.000963 -0.546227 0.302991
v 0.000332 -0.525630 0.292895
v -0.050342 -0.356069 0.358869
v -0.061290 -0.405944 0.300691
v -0.071729 -0.409123 0.268845
v -0.040311 -0.387932 0.351004
v -0.002924 -0.385095 0.357148
v 0.035304 -0.389786 0.350703
v -0.007240 -0.398858 0.254514
v -0.000834 -0.595280 0.195496
v -0.025749 -0.527800 0.185540
v -0.015586 -0.528845 0.231864
v -0.088162 -0.502109 0.264131
v -0.063879 -0.515973 0.219676
v -0.081690 -0.508949 0.144723
v -0.079112 -0.404881 0.203909
v -0.088848 -0.411503 0.170150
v -0.009307 -0.396651 0.180571
v -0.070550 -0.585704 0.137389
v -0.006338 -0.584595 0.184389
v -0.052634 -0.511283 0.118589
v -0.039416 -0.587640 0.103454
v -0.072951 -0.441206 0.090585
v -0.077120 -0.466457 0.083518
v -0.051434 -0.490840 0.078083
v -0.024743 -0.406088 0.121676
v -0.043106 -0.414071 0.115962
v 0.003490 -0.421554 0.085478
v -0.039160 -0.466718 0.062267
v -0.024510 -0.445743 0.066037
v -0.000864 -0.483589 0.062941
v 0.006623 -0.455104 0.058257
v -0.387832 0.220396 -0.011142
v -0.372980 0.252614 0.021466
v -0.340784 0.308665 0.025415
v -0.353136 0.281522 0.029125
v -0.326166 0.279440 0.009955
v -0.306760 0.298494 -0.002243
v -0.194359 -0.037717 0.369352
v -0.264494 0.003500 0.326944
v -0.212072 -0.029454 0.348612
v -0.191799 -0.017452 0.286353
v -0.261135 0.067274 0.334628
v -0.268733 0.039754 0.319996
v -0.251351 0.053413 0.290687
v -0.244313 -0.015472 0.332732
v -0.231858 -0.009688 0.284287
v -0.241294 0.013722 0.270266
v -0.231411 0.072970 0.290490
v -0.238037 0.089356 0.355591
v -0.204685 0.078768 0.276446
v -0.183639 0.100969 0.348676
v -0.228892 0.046849 0.256642
v -0.204113 0.021764 0.237656
v -0.197455 0.052014 0.240750
v -0.167204 -0.309981 0.365467
v -0.110397 -0.323981 0.364170
v -0.141428 -0.031370 0.387009
v -0.098221 -0.009282 0.394819
v -0.178984 0.109587 0.410128
v -0.142860 0.100704 0.404730
v -0.146548 -0.333221 0.322334
v -0.103539 -0.343637 0.342570
v -0.152970 -0.020605 0.322101
v -0.158276 0.005307 0.258402
v -0.120365 0.040446 0.278492
v -0.121129 0.018894 0.289761
v -0.173691 0.073248 0.262448
v -0.158916 0.090661 0.316642
v -0.151034 0.073675 0.276039
v -0.123391 0.081210 0.333749
v -0.184565 -0.003568 0.259176
v -0.169246 0.023606 0.236069
v -0.169208 0.043279 0.235169
v -0.137728 0.052035 0.259649
v -0.136711 0.025990 0.259164
v -0.072065 -0.321991 0.398207
v -0.074793 -0.333759 0.367226
v -0.031265 -0.331242 0.381952
v 0.000451 -0.255646 0.446213
v -0.011208 -0.320927 0.404371
v 0.024685 -0.312377 0.434330
v -0.064736 -0.213073 0.434101
v -0.073792 -0.179935 0.403284
v -0.037367 -0.192545 0.385007
v -0.040536 -0.208255 0.429945
v 0.013258 -0.208054 0.435484
v -0.006649 -0.196212 0.426040
v -0.026479 -0.184379 0.375988
v -0.001685 -0.177377 0.406947
v -0.076279 -0.123383 0.380447
v -0.069273 -0.094191 0.395188
v -0.068362 -0.153755 0.374300
v -0.045404 -0.166138 0.356821
v -0.019716 -0.088560 0.379917
v 0.000871 -0.163677 0.386637
v 0.000100 -0.121353 0.378633
v -0.000048 -0.148531 0.371996
v -0.034389 -0.074519 0.389575
v 0.009889 -0.032266 0.388666
v -0.093612 0.069012 0.410812
v -0.087281 0.016748 0.398583
v -0.099864 0.029402 0.329499
v -0.094852 0.052567 0.356266
v -0.085065 0.052610 0.411891
v -0.027076 -0.170425 0.357784
v -0.040665 -0.109990 0.355147
v -0.037606 -0.140245 0.344006
v -0.020609 -0.133298 0.351058
v -0.391264 0.200747 -0.062237
v -0.400112 0.193539 -0.105928
v -0.359099 0.211872 -0.053643
v -0.328876 0.231739 -0.040028
v -0.336729 0.240760 -0.012663
v -0.290839 0.286941 -0.025868
v -0.289917 0.262430 -0.053418
v -0.307000 0.236367 -0.076713
v -0.295024 0.358707 -0.042811
v -0.349936 0.206556 -0.106977
v -0.383601 0.207884 -0.160142
v -0.358737 0.228244 -0.186773
v -0.326482 0.224792 -0.142361
v -0.309307 0.250501 -0.160466
v -0.345883 0.247333 -0.195733
v -0.314939 0.292767 -0.194962
v -0.281397 0.321685 -0.045424
v -0.269938 0.329153 -0.088859
v -0.272195 0.291365 -0.086597
v -0.282804 0.360980 -0.093755
v -0.288525 0.255855 -0.117602
v -0.275558 0.311398 -0.135487
v -0.282949 0.341438 -0.151018
v 0.056419 -0.541277 0.287541
v 0.042771 -0.516866 0.284451
v 0.075494 -0.515005 0.267632
v 0.102185 -0.559113 0.284534
v 0.027891 -0.404274 0.306637
v 0.038035 -0.349418 0.365789
v 0.070370 -0.406644 0.265820
v 0.093343 -0.347519 0.348402
v 0.093852 -0.386138 0.330458
v 0.112779 -0.398690 0.269076
v 0.047952 -0.526873 0.231220
v 0.022568 -0.529626 0.194271
v 0.038197 -0.586487 0.174634
v 0.046565 -0.520895 0.158744
v 0.121827 -0.529322 0.246770
v 0.097975 -0.512020 0.188314
v 0.115339 -0.507801 0.221298
v 0.095273 -0.510164 0.252683
v 0.034009 -0.398040 0.204691
v 0.082414 -0.407521 0.192279
v -0.013038 -0.506807 0.095692
v 0.081858 -0.584644 0.125987
v 0.033592 -0.492913 0.079950
v 0.090050 -0.491136 0.119744
v 0.066705 -0.476105 0.084003
v 0.084901 -0.505478 0.143481
v 0.112562 -0.464411 0.130810
v 0.085197 -0.452155 0.100827
v 0.039218 -0.408362 0.123710
v 0.061618 -0.424898 0.101809
v 0.087245 -0.415012 0.166195
v 0.046418 -0.461512 0.068030
v 0.148739 -0.368205 0.304425
v 0.159275 -0.524849 0.243263
v 0.138451 -0.507040 0.233590
v 0.149511 -0.509750 0.199186
v 0.149984 -0.385139 0.217177
v 0.121275 -0.436192 0.154725
v 0.111258 -0.438462 0.148139
v 0.119509 -0.494005 0.114595
v 0.111088 -0.483732 0.123323
v 0.126186 -0.505618 0.125303
v 0.172466 -0.495590 0.137383
v 0.154098 -0.486647 0.109523
v 0.155489 -0.426533 0.140288
v 0.163042 -0.472630 0.107085
v 0.186238 -0.479951 0.100898
v 0.136403 -0.389987 0.171246
v 0.111962 -0.413108 0.167396
v 0.151979 -0.383394 0.151123
v 0.186819 -0.469746 0.083635
v 0.027996 -0.328682 0.382386
v 0.111859 -0.315350 0.398950
v 0.068943 -0.317993 0.397395
v 0.106847 -0.324912 0.367993
v 0.025574 -0.171762 0.362917
v 0.048255 -0.210608 0.426050
v 0.036589 -0.192067 0.386150
v 0.068314 -0.154876 0.376648
v 0.071916 -0.184695 0.409723
v 0.090153 -0.223069 0.426907
v 0.013354 -0.094016 0.378962
v 0.043786 -0.164407 0.358003
v 0.058523 -0.087357 0.391299
v 0.068671 -0.133233 0.377961
v 0.072520 -0.070030 0.400184
v 0.016715 -0.065197 0.389685
v 0.033038 -0.083683 0.381198
v 0.082522 0.044726 0.408225
v 0.092768 0.068292 0.411831
v 0.084187 0.023478 0.400186
v 0.098266 -0.001514 0.399731
v 0.108635 0.004014 0.328536
v 0.020679 -0.138577 0.350820
v 0.037376 -0.106818 0.358580
v 0.035484 -0.137999 0.345226
v 0.046493 -0.127567 0.352184
v 0.097332 0.029889 0.331296
v 0.102007 0.071130 0.358783
v 0.162040 -0.314926 0.365387
v 0.127017 -0.020791 0.389046
v 0.187981 -0.033950 0.367862
v 0.122001 -0.011225 0.339109
v 0.114887 0.089010 0.416850
v 0.132309 0.091854 0.348167
v 0.155510 0.104243 0.400451
v 0.203693 0.105593 0.379325
v 0.148943 -0.331872 0.328655
v 0.153948 -0.024608 0.315935
v 0.176146 -0.011538 0.268633
v 0.195929 -0.024073 0.300783
v 0.113380 0.035599 0.288431
v 0.132935 0.079178 0.300977
v 0.140158 0.004991 0.267527
v 0.164616 0.098043 0.316580
v 0.169567 0.087757 0.284046
v 0.197209 0.090686 0.288270
v 0.137706 0.050736 0.262283
v 0.145272 0.026478 0.249415
v 0.165175 0.050920 0.239602
v 0.168582 0.012513 0.240424
v 0.199218 0.063261 0.249879
v 0.194477 0.045988 0.236848
v 0.210156 -0.000169 0.255834
v 0.201895 0.021801 0.238363
v 0.231536 0.098787 0.370689
v 0.237182 -0.019258 0.338831
v 0.237641 -0.007362 0.294049
v 0.237511 0.027087 0.261830
v 0.245758 0.051970 0.277607
v 0.261895 -0.000975 0.331386
v 0.267536 0.008573 0.328041
v 0.269894 0.045283 0.319130
v 0.227694 0.078589 0.291048
v 0.256709 0.075445 0.336250
vn -0.3476 0.5930 0.7263
vn -0.3490 0.4303 0.8325
vn -0.4677 -0.3923 0.7921
vn -0.2552 -0.9655 0.0512
vn -0.2554 -0.9303 0.2631
vn -0.3389 -0.2677 0.9019
vn -0.1926 0.9808 0.0317
vn -0.3917 0.3668 0.8438
vn -0.1620 0.9678 0.1925
vn 0.1930 0.9747 0.1129
vn -0.0497 0.9981 0.0364
vn 0.0638 0.9967 -0.0500
vn -0.2141 0.7892 0.5756
vn -0.3652 -0.9309 -0.0113
vn -0.3660 -0.9209 0.1340
vn -0.5696 -0.4696 0.6745
vn -0.5460 -0.5862 0.5985
vn -0.0173 0.6649 0.7467
vn -0.4323 -0.3302 0.8391
vn -0.4264 -0.4651 0.7758
vn 0.0217 0.2409 0.9703
vn 0.0467 0.9252 0.3766
vn 0.1239 -0.6580 0.7427
vn 0.1150 -0.5752 0.8099
vn -0.2848 0.0678 0.9562
vn 0.2450 0.6170 0.7479
vn 0.7424 -0.2595 0.6176
vn -0.6138 -0.2326 0.7544
vn -0.5707 -0.5271 0.6297
vn -0.2790 -0.6146 0.7378
vn -0.6540 0.4213 0.6283
vn 0.0455 -0.5037 0.8627
vn -0.2610 0.5827 0.7696
vn 0.0102 0.8250 0.5651
vn -0.0665 0.6024 0.7954
vn -0.0268 0.8065 0.5906
vn 0.1499 0.6332 0.7594
vn -0.1746 0.4378 0.8820
vn 0.1465 0.9886 -0.0345
vn 0.0662 0.5265 0.8476
vn 0.0163 0.6390 0.7691
vn -0.2519 -0.5508 0.7957
vn -0.1213 -0.9614 0.2470
vn -0.0849 -0.9958 0.0346
vn -0.0766 -0.9282 0.3642
vn 0.1245 -0.3663 0.9221
vn 0.1382 -0.8632 0.4855
vn 0.0511 -0.9943 -0.0936
vn -0.1716 -0.7511 -0.6375
vn 0.1392 0.9860 0.0921
vn 0.1055 0.9892 -0.1014
vn -0.0013 0.8506 0.5258
vn 0.3017 0.9525 -0.0419
vn 0.1687 0.9739 0.1516
vn -0.0300 -0.9988 0.0398
vn 0.1003 -0.9072 0.4085
vn 0.0317 -0.9970 0.0711
vn 0.0100 -0.9991 0.0413
vn -0.0702 -0.9644 -0.2551
vn 0.2021 0.9280 0.3131
vn 0.0120 -0.9976 0.0679
vn 0.4812 -0.5942 0.6445
vn 0.6228 0.0613 0.7800
vn 0.3320 0.6410 0.6921
vn 0.1240 -0.9408 0.3155
vn 0.3008 -0.8495 0.4334
vn -0.0290 -0.7922 0.6096
vn 0.3111 0.0299 0.9499
vn 0.2013 -0.5435 0.8149
vn -0.0418 0.5209 0.8526
vn -0.1118 -0.2478 0.9623
vn -0.3488 0.8450 -0.4053
vn -0.4886 0.5209 -0.6999
vn -0.6061 0.1133 -0.7873
vn -0.4757 0.5290 -0.7028
vn -0.6021 0.3946 -0.6941
vn -0.7409 0.1298 -0.6589
vn -0.0714 0.9734 0.2179
vn 0.8004 0.4816 0.3570
vn 0.1996 0.9528 0.2290
vn -0.0280 0.9330 0.3588
vn 0.5684 -0.7725 0.2831
vn 0.8920 0.0970 0.4414
vn 0.7804 -0.3766 0.4992
vn 0.4593 0.8604 0.2208
vn 0.4464 0.7820 0.4350
vn 0.7340 0.3015 0.6086
vn 0.4957 -0.7720 0.3979
vn 0.3695 -0.8963 0.2451
vn 0.2300 -0.8655 0.4449
vn -0.0713 -0.9761 0.2054
vn 0.6299 -0.3348 0.7008
vn 0.3183 0.2952 0.9009
vn 0.2399 -0.4902 0.8379
vn -0.2128 -0.8991 0.3825
vn -0.2987 -0.8172 0.4929
vn -0.3677 0.9046 0.2154
vn -0.7583 0.5831 0.2915
vn -0.2146 -0.9649 0.1516
vn -0.3639 -0.9216 0.1350
vn -0.4004 -0.6429 0.6530
vn -0.3797 -0.5917 0.7112
vn -0.3709 0.8816 0.2918
vn -0.4249 0.7242 0.5431
vn -0.8684 -0.1386 0.4761
vn -0.7566 0.5153 0.4025
vn -0.1183 -0.8218 0.5573
vn -0.2121 -0.9467 0.2423
vn -0.4056 -0.8007 0.4409
vn -0.5808 -0.7752 0.2484
vn -0.0478 0.8133 0.5798
vn -0.2754 0.3355 0.9009
vn -0.2617 -0.2841 0.9224
vn -0.6295 -0.4155 0.6565
vn -0.6847 0.2949 0.6665
vn -0.1259 -0.9168 0.3790
vn -0.2602 -0.7842 0.5632
vn -0.0634 -0.7915 0.6079
vn -0.0319 0.2280 0.9731
vn 0.0036 -0.9288 0.3707
vn 0.0522 -0.9518 0.3021
vn -0.0212 0.5869 0.8094
vn 0.4476 0.7319 0.5138
vn 0.0447 0.8874 0.4588
vn -0.0314 0.8311 0.5552
vn 0.1509 0.6580 0.7377
vn -0.1600 0.7088 0.6871
vn -0.4053 0.7876 0.4641
vn -0.0314 0.8306 0.5560
vn 0.6258 -0.3162 0.7130
vn 0.3999 -0.4878 0.7759
vn 0.6979 0.2593 0.6676
vn 0.4088 0.4992 0.7640
vn -0.1444 -0.4818 0.8643
vn 0.0298 0.7731 0.6336
vn 0.0115 -0.3259 0.9453
vn -0.0195 0.3168 0.9483
vn 0.1742 -0.5198 0.8364
vn -0.0075 0.0294 0.9995
vn -0.7611 -0.6332 0.1403
vn -0.9570 0.1769 0.2300
vn -0.9268 0.2237 0.3017
vn -0.9180 -0.3202 0.2339
vn -0.9532 -0.2514 0.1679
vn -0.3023 0.5717 0.7627
vn 0.1860 -0.5216 0.8327
vn 0.1308 0.0238 0.9911
vn -0.5266 -0.1409 0.8384
vn -0.2714 0.9541 -0.1268
vn -0.2518 0.9618 -0.1077
vn -0.3904 0.8887 -0.2404
vn -0.5310 0.7827 -0.3247
vn -0.5346 0.6673 -0.5186
vn -0.8427 0.2426 -0.4806
vn -0.8131 0.5076 -0.2850
vn -0.6521 0.7484 -0.1210
vn -0.8809 -0.2983 -0.3675
vn -0.4282 0.9036 -0.0089
vn -0.3540 0.8882 0.2927
vn -0.4769 0.7668 0.4295
vn -0.5483 0.7973 0.2524
vn -0.7306 0.5116 0.4523
vn -0.6010 0.5570 0.5732
vn -0.7613 0.3461 0.5483
vn -0.9166 -0.1203 -0.3812
vn -0.9801 -0.1770 -0.0904
vn -0.9723 0.2222 -0.0722
vn -0.9271 -0.3663 -0.0790
vn -0.8374 0.5240 0.1555
vn -0.9636 0.1030 0.2468
vn -0.9605 -0.2308 0.1554
vn 0.3149 0.4067 0.8576
vn 0.1295 0.8157 0.5639
vn 0.1757 0.8476 0.5007
vn 0.3039 0.6647 0.6825
vn 0.0480 -0.9868 0.1544
vn 0.2243 -0.4679 0.8548
vn 0.0463 -0.9964 0.0713
vn 0.3001 -0.6256 0.7202
vn 0.1676 -0.9510 0.2598
vn 0.2186 -0.9700 0.1060
vn -0.1548 0.9852 -0.0729
vn -0.0755 0.9931 0.0895
vn -0.0781 -0.9831 -0.1659
vn -0.1657 0.9590 0.2299
vn 0.3181 0.4030 0.8581
vn -0.1641 0.9838 0.0723
vn -0.1102 0.9930 -0.0419
vn 0.1032 0.8958 0.4322
vn -0.1114 -0.9936 0.0208
vn 0.0285 -0.9900 0.1383
vn 0.0044 0.9071 0.4209
vn -0.0087 -1.0000 -0.0000
vn -0.2561 0.7309 0.6326
vn -0.3166 0.6184 0.7192
vn -0.5653 0.3573 0.7435
vn -0.1117 0.9399 0.3228
vn -0.7771 -0.1727 0.6052
vn -0.6839 -0.2776 0.6747
vn -0.1872 -0.9393 0.2875
vn -0.4162 -0.7189 0.5567
vn -0.2400 -0.8977 0.3696
vn -0.4013 -0.0818 0.9123
vn 0.4117 -0.5072 0.7571
vn 0.3504 0.7291 0.5879
vn 0.2520 0.8799 0.4028
vn 0.0663 0.9950 0.0750
vn 0.3405 -0.9402 -0.0014
vn 0.1515 -0.5086 0.8476
vn -0.4621 -0.6455 0.6082
vn 0.2028 0.1824 0.9621
vn 0.1007 -0.4914 0.8651
vn -0.0365 0.9076 0.4184
vn -0.1839 0.9451 0.2703
vn 0.0608 0.4910 0.8690
vn 0.4722 -0.3390 0.8137
vn 0.4580 -0.2581 0.8507
vn 0.0332 0.7258 0.6871
vn 0.5216 -0.8196 0.2370
vn 0.3352 -0.5709 0.7495
vn 0.5672 -0.4158 0.7110
vn 0.6783 -0.3530 0.6444
vn 0.1040 -0.8052 0.5838
vn 0.0485 -0.9565 0.2876
vn 0.1055 -0.9377 0.3311
vn 0.2083 -0.8420 0.4977
vn 0.3179 0.6218 0.7157
vn 0.0649 0.8312 0.5521
vn -0.0930 0.8328 0.5456
vn -0.6631 0.3796 0.6451
vn -0.3040 0.6909 0.6560
vn 0.2174 0.7719 0.5974
vn 0.1991 -0.3649 0.9095
vn -0.3746 0.5009 0.7802
vn -0.3234 -0.4133 0.8512
vn -0.7317 -0.1867 0.6556
vn -0.2011 -0.3134 0.9281
vn -0.0465 -0.2757 0.9601
vn -0.1472 -0.6218 0.7692
vn 0.9564 -0.2302 0.1800
vn 0.8020 -0.5875 0.1082
vn 0.9582 0.2168 0.1865
vn 0.7677 0.6244 0.1441
vn 0.7727 0.5639 0.2915
vn 0.5173 -0.0170 0.8556
vn -0.0836 -0.5513 0.8301
vn -0.0763 0.0213 0.9969
vn -0.5587 -0.2050 0.8036
vn 0.9549 0.0519 0.2923
vn 0.7998 -0.5621 0.2106
vn 0.1826 -0.9159 0.3574
vn 0.4627 0.8826 0.0833
vn 0.0411 0.9953 0.0876
vn 0.5728 0.7937 0.2050
vn 0.5482 -0.8326 0.0789
vn 0.4556 -0.8772 0.1516
vn 0.2515 -0.9651 0.0728
vn -0.0589 -0.9896 0.1315
vn 0.3425 -0.7183 0.6055
vn 0.3140 0.9203 0.2331
vn 0.1222 0.8629 0.4904
vn -0.1212 0.9546 0.2721
vn 0.8798 -0.0388 0.4737
vn 0.5937 -0.7045 0.3888
vn 0.6028 0.6045 0.5208
vn 0.1743 -0.9606 0.2166
vn 0.1951 -0.8472 0.4942
vn -0.1636 -0.8991 0.4061
vn 0.6624 -0.4181 0.6217
vn 0.6288 0.1324 0.7662
vn 0.2963 -0.4064 0.8643
vn 0.2224 0.4528 0.8634
vn -0.2419 -0.6703 0.7015
vn -0.2129 -0.2701 0.9390
vn -0.3456 0.6865 0.6397
vn -0.2988 0.2350 0.9249
vn -0.2892 -0.9357 0.2021
vn -0.3664 0.9118 0.1853
vn -0.5545 0.7289 0.4015
vn -0.7153 0.1214 0.6882
vn -0.7318 -0.3791 0.5664
vn -0.5395 0.8151 0.2110
vn -0.8474 0.2670 0.4589
vn -0.8772 -0.1997 0.4366
vn -0.4924 -0.7670 0.4115
vn -0.5890 -0.7501 0.3007
vt 0.411126 0.163413
vt 0.426611 0.156316
vt 0.428668 0.159939
vt 0.420806 0.142493
vt 0.394298 0.149004
vt 0.315978 0.132760
vt 0.342936 0.122407
vt 0.337737 0.141049
vt 0.344256 0.115262
vt 0.374772 0.098219
vt 0.365300 0.136886
vt 0.399445 0.135769
vt 0.374183 0.106248
vt 0.381263 0.115211
vt 0.377498 0.136383
vt 0.402069 0.133803
vt 0.382028 0.102647
vt 0.392490 0.093458
vt 0.383931 0.157640
vt 0.405998 0.160908
vt 0.396699 0.174957
vt 0.408466 0.146534
vt 0.450254 0.157975
vt 0.453096 0.159803
vt 0.476015 0.160413
vt 0.475919 0.163010
vt 0.487008 0.157063
vt 0.500180 0.161821
vt 0.499494 0.161207
vt 0.458503 0.190111
vt 0.467998 0.206042
vt 0.421518 0.199428
vt 0.481801 0.235143
vt 0.442394 0.226955
vt 0.514437 0.207187
vt 0.454962 0.132844
vt 0.455966 0.160468
vt 0.489318 0.131788
vt 0.478053 0.108555
vt 0.448728 0.161175
vt 0.418214 0.100463
vt 0.495474 0.180848
vt 0.433518 0.079105
vt 0.478447 0.059938
vt 0.392095 0.082044
vt 0.381336 0.076091
vt 0.407296 0.059917
vt 0.423410 0.138929
vt 0.443358 0.092416
vt 0.468071 0.094453
vt 0.410650 0.049758
vt 0.443436 0.049888
vt 0.497816 0.041202
vt 0.518015 0.040784
vt 0.248836 0.745649
vt 0.254856 0.725416
vt 0.261847 0.733831
vt 0.384004 0.512050
vt 0.388823 0.530192
vt 0.391743 0.502649
vt 0.391111 0.491596
vt 0.399199 0.488075
vt 0.392940 0.561754
vt 0.394535 0.550034
vt 0.386530 0.543961
vt 0.406114 0.565528
vt 0.398565 0.571656
vt 0.422848 0.579839
vt 0.384086 0.543099
vt 0.390674 0.552688
vt 0.387061 0.522078
vt 0.453154 0.275498
vt 0.431710 0.290875
vt 0.432087 0.259659
vt 0.406072 0.483895
vt 0.413018 0.477064
vt 0.422905 0.471313
vt 0.429434 0.481627
vt 0.444238 0.475813
vt 0.412533 0.505574
vt 0.461194 0.492740
vt 0.436982 0.519126
vt 0.422380 0.555776
vt 0.435072 0.542186
vt 0.443639 0.571424
vt 0.453164 0.527116
vt 0.458587 0.545082
vt 0.425969 0.579744
vt 0.445995 0.573358
vt 0.464342 0.551678
vt 0.401512 0.496430
vt 0.401005 0.525812
vt 0.400734 0.547201
vt 0.406953 0.572789
vt 0.420319 0.573211
vt 0.422745 0.528161
vt 0.487001 0.273121
vt 0.471505 0.286064
vt 0.468022 0.268402
vt 0.471197 0.368355
vt 0.476439 0.356138
vt 0.485039 0.356972
vt 0.504844 0.358189
vt 0.497516 0.362635
vt 0.484601 0.352985
vt 0.479856 0.362270
vt 0.471249 0.377759
vt 0.488810 0.355185
vt 0.499341 0.369162
vt 0.500359 0.372530
vt 0.487979 0.358852
vt 0.499980 0.379078
vt 0.485987 0.440067
vt 0.472382 0.426601
vt 0.468507 0.402001
vt 0.481856 0.404985
vt 0.506822 0.447281
vt 0.504048 0.473644
vt 0.467587 0.539611
vt 0.465690 0.513058
vt 0.477819 0.252797
vt 0.453286 0.256459
vt 0.482670 0.377438
vt 0.491748 0.427197
vt 0.490667 0.384671
vt 0.500042 0.401273
vt 0.245429 0.664436
vt 0.244018 0.697474
vt 0.226400 0.668139
vt 0.230724 0.694289
vt 0.202782 0.663577
vt 0.211029 0.704212
vt 0.259150 0.689252
vt 0.263097 0.713708
vt 0.235882 0.747225
vt 0.221000 0.731531
vt 0.187058 0.647608
vt 0.184557 0.679209
vt 0.173602 0.663542
vt 0.173834 0.698400
vt 0.188401 0.718844
vt 0.224529 0.769202
vt 0.200977 0.753159
vt 0.199387 0.773295
vt 0.227065 0.779282
vt 0.199052 0.780361
vt 0.177271 0.752231
vt 0.161779 0.712906
vt 0.171972 0.759952
vt 0.523753 0.161650
vt 0.501469 0.163006
vt 0.530836 0.157940
vt 0.500104 0.260236
vt 0.498697 0.238026
vt 0.516490 0.258140
vt 0.544041 0.231432
vt 0.515968 0.234013
vt 0.541188 0.189261
vt 0.563168 0.201089
vt 0.532546 0.134120
vt 0.543758 0.157593
vt 0.576467 0.145395
vt 0.557385 0.154966
vt 0.576352 0.125102
vt 0.572986 0.152615
vt 0.518406 0.112599
vt 0.545412 0.097886
vt 0.494531 0.097309
vt 0.534272 0.094174
vt 0.499321 0.101005
vt 0.563306 0.055434
vt 0.602622 0.094249
vt 0.613089 0.113249
vt 0.606812 0.070537
vt 0.506495 0.063731
vt 0.548860 0.097946
vt 0.586621 0.086924
vt 0.564447 0.150962
vt 0.526204 0.152960
vt 0.595295 0.056211
vt 0.611659 0.090415
vt 0.585155 0.156504
vt 0.592262 0.161036
vt 0.602479 0.144663
vt 0.607051 0.162828
vt 0.596192 0.191237
vt 0.585038 0.101410
vt 0.628340 0.102941
vt 0.616701 0.105213
vt 0.602522 0.127254
vt 0.605805 0.134783
vt 0.625558 0.107651
vt 0.642944 0.133251
vt 0.657509 0.124594
vt 0.633173 0.145280
vt 0.651659 0.117946
vt 0.593823 0.144383
vt 0.576938 0.135203
vt 0.625450 0.162256
vt 0.511632 0.274415
vt 0.527339 0.287484
vt 0.509036 0.301775
vt 0.511197 0.359597
vt 0.515035 0.353648
vt 0.517950 0.354669
vt 0.528556 0.377622
vt 0.519369 0.363860
vt 0.520890 0.390260
vt 0.528604 0.393734
vt 0.523628 0.430829
vt 0.505606 0.422640
vt 0.513759 0.431462
vt 0.528532 0.445722
vt 0.550826 0.503692
vt 0.533000 0.518255
vt 0.538364 0.498830
vt 0.516302 0.379529
vt 0.509371 0.380441
vt 0.516530 0.408312
vt 0.544087 0.559981
vt 0.531745 0.534053
vt 0.545479 0.527485
vt 0.554964 0.490089
vt 0.550225 0.483843
vt 0.567721 0.263299
vt 0.544974 0.276139
vt 0.541662 0.255919
vt 0.572164 0.477749
vt 0.575187 0.473899
vt 0.591889 0.478686
vt 0.559609 0.536403
vt 0.576806 0.505260
vt 0.566194 0.575170
vt 0.557799 0.576964
vt 0.576316 0.585355
vt 0.578431 0.576554
vt 0.558953 0.575776
vt 0.595490 0.580862
vt 0.585655 0.582540
vt 0.576947 0.553992
vt 0.583941 0.529118
vt 0.596059 0.555137
vt 0.597327 0.513556
vt 0.609416 0.547412
vt 0.607122 0.562207
vt 0.592370 0.488572
vt 0.609448 0.499838
vt 0.611847 0.522179
vt 0.597200 0.485189
vt 0.608178 0.493802
vt 0.608887 0.506445
vt 0.617255 0.524342
vt 0.615327 0.544329
vt 0.611727 0.534353
vt 0.603777 0.556176
vt 0.588859 0.570758
vt 0.605658 0.566702
vt 0.422133 0.233512
vt 0.432244 0.158761
vt 0.340957 0.123407
vt 0.346060 0.156586
vt 0.312572 0.128716
vt 0.477352 0.162079
vt 0.455224 0.237160
vt 0.441097 0.157656
vt 0.491804 0.136142
vt 0.424498 0.082067
vt 0.591703 0.080068
vt 0.442064 0.059273
vt 0.434509 0.576449
vt 0.495590 0.286520
vt 0.500161 0.334392
vt 0.208809 0.639228
vt 0.224894 0.649286
vt 0.168041 0.677198
vt 0.572332 0.236777
vt 0.554875 0.157784
vt 0.683008 0.130803
vt 0.670979 0.132295
vt 0.533123 0.349565
vt 0.527654 0.366995
vt 0.535262 0.551051
vt 0.543507 0.292918
vt 0.542802 0.564623
vt 0.566433 0.287587
vt 0.606443 0.499265
s 1
f 9/1/9 8/2/8 13/3/13
f 9/1/9 12/4/12 7/5/7
f 9/1/9 13/3/13 12/4/12
f 17/6/17 19/7/19 16/8/16
f 19/7/19 21/9/21 25/10/25
f 10/11/10 11/12/11 22/13/22
f 24/14/24 19/7/19 25/10/25
f 24/14/24 20/15/20 19/7/19
f 21/9/21 22/13/22 25/10/25
f 23/16/23 24/14/24 27/17/27
f 25/10/25 22/13/22 26/18/26
f 29/19/29 15/20/15 14/21/14
f 30/22/30 15/20/15 29/19/29
f 20/15/20 23/16/23 30/22/30
f 2/23/2 33/24/33 38/25/38
f 36/26/36 2/23/2 38/25/38
f 39/27/39 36/26/36 41/28/41
f 38/25/38 40/29/40 41/28/41
f 44/30/44 43/31/43 4/32/4
f 43/31/43 45/33/45 5/34/5
f 176/35/176 43/31/43 44/30/44
f 53/36/53 34/37/34 51/38/51
f 53/36/53 51/38/51 50/39/50
f 34/37/34 39/27/39 51/38/51
f 13/3/13 2/23/2 52/40/52
f 12/4/12 13/3/13 52/40/52
f 52/40/52 2/23/2 34/37/34
f 54/41/54 12/4/12 53/36/53
f 52/40/52 34/37/34 53/36/53
f 44/30/44 4/32/4 15/20/15
f 48/42/48 176/35/176 44/30/44
f 60/43/60 54/41/54 50/39/50
f 60/43/60 50/39/50 192/44/192
f 54/41/54 11/12/11 12/4/12
f 23/16/23 27/17/27 62/45/62
f 26/18/26 22/13/22 54/41/54
f 27/17/27 24/14/24 26/18/26
f 63/46/63 27/17/27 26/18/26
f 64/47/64 63/46/63 26/18/26
f 27/17/27 63/46/63 62/45/62
f 56/48/56 23/16/23 62/45/62
f 62/45/62 66/49/66 56/48/56
f 66/49/66 65/50/65 56/48/56
f 62/45/62 68/51/68 69/52/69
f 68/51/68 64/47/64 70/53/70
f 69/52/69 68/51/68 71/54/71
f 64/47/64 192/44/192 70/53/70
f 77/55/77 76/56/76 74/57/74
f 87/58/87 83/59/83 79/60/79
f 86/61/86 79/60/79 85/62/85
f 87/58/87 79/60/79 86/61/86
f 88/63/88 82/64/82 84/65/84
f 88/63/88 89/66/89 82/64/82
f 88/63/88 90/67/90 89/66/89
f 91/68/91 89/66/89 90/67/90
f 92/69/92 94/70/94 90/67/90
f 92/69/92 93/71/93 94/70/94
f 90/67/90 88/63/88 92/69/92
f 96/72/96 95/73/95 101/74/101
f 81/75/81 80/76/80 78/77/78
f 81/75/81 78/77/78 103/78/103
f 103/78/103 78/77/78 97/79/97
f 104/80/104 81/75/81 103/78/103
f 103/78/103 98/81/98 106/82/106
f 114/83/114 105/84/105 110/85/110
f 105/84/105 142/86/142 143/87/143
f 106/82/106 142/86/142 105/84/105
f 90/67/90 108/88/108 91/68/91
f 110/85/110 100/89/100 91/68/91
f 110/85/110 143/87/143 140/90/140
f 86/61/86 81/75/81 111/91/111
f 93/71/93 112/92/112 113/93/113
f 107/94/107 94/70/94 113/93/113
f 107/94/107 114/83/114 109/95/109
f 112/92/112 104/80/104 115/96/115
f 114/83/114 112/92/112 115/96/115
f 104/80/104 106/82/106 115/96/115
f 114/83/114 115/96/115 105/84/105
f 118/97/118 116/98/116 117/99/117
f 123/100/123 122/101/122 125/102/125
f 125/102/125 126/103/126 127/104/127
f 124/105/124 125/102/125 127/104/127
f 133/106/133 132/107/132 123/100/123
f 128/108/128 129/109/129 135/110/135
f 128/108/128 135/110/135 145/111/145
f 145/111/145 135/110/135 137/112/137
f 138/113/138 131/114/131 130/115/130
f 138/113/138 130/115/130 146/116/146
f 138/113/138 238/117/238 139/118/139
f 143/87/143 144/119/144 140/90/140
f 143/87/143 141/120/141 144/119/144
f 42/121/42 117/99/117 102/122/102
f 147/123/147 146/116/146 130/115/130
f 145/111/145 133/106/133 124/105/124
f 147/123/147 133/106/133 145/111/145
f 134/124/134 146/116/146 148/125/148
f 145/111/145 137/112/137 148/125/148
f 148/125/148 137/112/137 136/126/136
f 146/116/146 134/124/134 138/113/138
f 106/82/106 141/120/141 142/86/142
f 72/127/72 153/128/153 151/129/151
f 152/130/152 151/129/151 153/128/153
f 158/131/158 152/130/152 156/132/156
f 153/128/153 73/133/73 75/134/75
f 77/55/77 154/135/154 76/56/76
f 155/136/155 153/128/153 154/135/154
f 156/132/156 152/130/152 155/136/155
f 159/137/159 161/138/161 160/139/160
f 161/138/161 158/131/158 156/132/156
f 160/139/160 161/138/161 162/140/162
f 162/140/162 161/138/161 169/141/169
f 165/142/165 154/135/154 77/55/77
f 155/136/155 154/135/154 167/143/167
f 154/135/154 165/142/165 166/144/166
f 165/142/165 157/145/157 168/146/168
f 162/140/162 170/147/170 164/148/164
f 169/141/169 167/143/167 170/147/170
f 167/143/167 166/144/166 170/147/170
f 171/149/171 166/144/166 168/146/168
f 171/149/171 170/147/170 166/144/166
f 39/27/39 41/28/41 173/150/173
f 40/29/40 37/151/37 172/152/172
f 41/28/41 172/152/172 173/150/173
f 32/153/32 46/154/46 177/155/177
f 180/156/180 47/157/47 176/35/176
f 178/158/178 181/159/181 176/35/176
f 182/160/182 39/27/39 173/150/173
f 182/160/182 173/150/173 174/161/174
f 188/162/188 182/160/182 189/163/189
f 187/164/187 182/160/182 188/162/188
f 174/161/174 186/165/186 189/163/189
f 192/44/192 50/39/50 183/166/183
f 192/44/192 183/166/183 185/167/185
f 59/168/59 184/169/184 49/170/49
f 194/171/194 192/44/192 185/167/185
f 195/172/195 198/173/198 196/174/196
f 67/175/67 200/176/200 65/50/65
f 201/177/201 200/176/200 67/175/67
f 200/176/200 191/178/191 190/179/190
f 71/54/71 70/53/70 203/180/203
f 203/180/203 194/171/194 196/174/196
f 201/177/201 203/180/203 199/181/199
f 203/180/203 196/174/196 199/181/199
f 188/162/188 189/163/189 206/182/206
f 206/182/206 186/165/186 205/183/205
f 207/184/207 206/182/206 205/183/205
f 219/185/219 208/186/208 181/159/181
f 195/172/195 197/187/197 211/188/211
f 212/189/212 195/172/195 211/188/211
f 198/173/198 210/190/210 199/181/199
f 209/191/209 210/190/210 198/173/198
f 211/188/211 197/187/197 213/192/213
f 213/192/213 187/164/187 214/193/214
f 198/173/198 212/189/212 209/191/209
f 209/191/209 217/194/217 216/195/216
f 213/192/213 214/193/214 215/196/215
f 220/197/220 202/198/202 209/191/209
f 202/198/202 220/197/220 191/178/191
f 220/197/220 219/185/219 191/178/191
f 221/199/221 209/191/209 216/195/216
f 32/153/32 177/155/177 223/200/223
f 225/201/225 121/202/121 223/200/223
f 227/203/227 129/109/129 126/103/126
f 229/204/229 228/205/228 230/206/230
f 229/204/229 230/206/230 234/207/234
f 248/208/248 236/209/236 235/210/235
f 238/117/238 134/124/134 233/211/233
f 238/117/238 233/211/233 239/212/239
f 238/117/238 239/212/239 235/210/235
f 237/213/237 238/117/238 235/210/235
f 244/214/244 242/215/242 243/216/243
f 247/217/247 245/218/245 227/203/227
f 245/218/245 247/217/247 246/219/246
f 227/203/227 229/204/229 234/207/234
f 248/208/248 234/207/234 230/206/230
f 250/220/250 240/221/240 249/222/249
f 254/223/254 243/216/243 252/224/252
f 259/225/259 226/226/226 179/227/179
f 260/228/260 253/229/253 262/230/262
f 263/231/263 244/214/244 265/232/265
f 264/233/264 256/234/256 250/220/250
f 266/235/266 258/236/258 257/237/257
f 268/238/268 266/235/266 267/239/267
f 269/240/269 263/231/263 270/241/270
f 269/240/269 271/242/271 264/233/264
f 271/242/271 272/243/272 274/244/274
f 274/244/274 273/245/273 271/242/271
f 261/246/261 262/230/262 275/247/275
f 272/243/272 275/247/275 276/248/276
f 264/233/264 271/242/271 267/239/267
f 271/242/271 268/238/268 267/239/267
f 262/230/262 278/249/278 279/250/279
f 275/247/275 262/230/262 279/250/279
f 279/250/279 283/251/283 280/252/280
f 281/253/281 284/254/284 286/255/286
f 280/252/280 284/254/284 281/253/281
f 268/238/268 277/256/277 258/236/258
f 286/255/286 277/256/277 285/257/285
f 276/248/276 275/247/275 280/252/280
f 274/244/274 276/248/276 280/252/280
f 281/253/281 273/245/273 274/244/274
f 281/253/281 285/257/285 273/245/273
f 102/122/102 101/74/101 3/258/3
f 2/23/2 8/2/8 1/259/1
f 10/11/10 7/5/7 11/12/11
f 11/12/11 7/5/7 12/4/12
f 13/3/13 8/2/8 2/23/2
f 15/20/15 4/32/4 14/21/14
f 19/7/19 18/260/18 21/9/21
f 20/15/20 16/8/16 19/7/19
f 18/260/18 10/11/10 22/13/22
f 21/9/21 18/260/18 22/13/22
f 24/14/24 23/16/23 20/15/20
f 28/261/28 16/8/16 20/15/20
f 29/19/29 28/261/28 20/15/20
f 30/22/30 29/19/29 20/15/20
f 31/262/31 18/260/18 19/7/19
f 34/37/34 2/23/2 36/26/36
f 41/28/41 36/26/36 38/25/38
f 40/29/40 38/25/38 35/263/35
f 4/32/4 43/31/43 5/34/5
f 42/121/42 102/122/102 6/264/6
f 43/31/43 47/157/47 45/33/45
f 39/27/39 34/37/34 36/26/36
f 53/36/53 12/4/12 52/40/52
f 55/265/55 44/30/44 15/20/15
f 15/20/15 56/48/56 55/265/55
f 55/265/55 48/42/48 44/30/44
f 55/265/55 57/266/57 48/42/48
f 54/41/54 53/36/53 50/39/50
f 58/267/58 193/268/193 59/168/59
f 61/269/61 193/268/193 58/267/58
f 54/41/54 22/13/22 11/12/11
f 26/18/26 24/14/24 25/10/25
f 60/43/60 26/18/26 54/41/54
f 64/47/64 26/18/26 60/43/60
f 64/47/64 60/43/60 192/44/192
f 30/22/30 56/48/56 15/20/15
f 30/22/30 23/16/23 56/48/56
f 56/48/56 65/50/65 55/265/55
f 65/50/65 57/266/57 55/265/55
f 67/175/67 65/50/65 66/49/66
f 62/45/62 63/46/63 68/51/68
f 68/51/68 63/46/63 64/47/64
f 62/45/62 69/52/69 67/175/67
f 71/54/71 68/51/68 70/53/70
f 62/45/62 67/175/67 66/49/66
f 75/134/75 76/56/76 153/128/153
f 86/61/86 85/62/85 80/76/80
f 81/75/81 86/61/86 80/76/80
f 87/58/87 84/65/84 83/59/83
f 87/58/87 92/69/92 84/65/84
f 92/69/92 88/63/88 84/65/84
f 87/58/87 93/71/93 92/69/92
f 93/71/93 87/58/87 86/61/86
f 91/68/91 100/89/100 99/270/99
f 110/85/110 140/90/140 100/89/100
f 101/74/101 102/122/102 96/72/96
f 98/81/98 103/78/103 97/79/97
f 104/80/104 103/78/103 106/82/106
f 110/85/110 105/84/105 143/87/143
f 107/94/107 108/88/108 90/67/90
f 107/94/107 109/95/109 108/88/108
f 108/88/108 110/85/110 91/68/91
f 109/95/109 110/85/110 108/88/108
f 109/95/109 114/83/114 110/85/110
f 93/71/93 86/61/86 111/91/111
f 112/92/112 93/71/93 111/91/111
f 94/70/94 93/71/93 113/93/113
f 112/92/112 111/91/111 104/80/104
f 104/80/104 111/91/111 81/75/81
f 107/94/107 113/93/113 114/83/114
f 114/83/114 113/93/113 112/92/112
f 115/96/115 106/82/106 105/84/105
f 90/67/90 94/70/94 107/94/107
f 96/72/96 117/99/117 116/98/116
f 118/97/118 120/271/120 116/98/116
f 32/153/32 118/97/118 42/121/42
f 124/105/124 123/100/123 125/102/125
f 125/102/125 122/101/122 126/103/126
f 126/103/126 122/101/122 119/272/119
f 129/109/129 124/105/124 127/104/127
f 128/108/128 124/105/124 129/109/129
f 124/105/124 133/106/133 123/100/123
f 134/124/134 148/125/148 136/126/136
f 143/87/143 142/86/142 141/120/141
f 102/122/102 117/99/117 96/72/96
f 42/121/42 118/97/118 117/99/117
f 145/111/145 124/105/124 128/108/128
f 147/123/147 132/107/132 133/106/133
f 147/123/147 130/115/130 132/107/132
f 148/125/148 147/123/147 145/111/145
f 148/125/148 146/116/146 147/123/147
f 106/82/106 98/81/98 141/120/141
f 158/131/158 150/273/150 149/274/149
f 158/131/158 149/274/149 151/129/151
f 158/131/158 151/129/151 152/130/152
f 153/128/153 76/56/76 154/135/154
f 153/128/153 155/136/155 152/130/152
f 161/138/161 159/137/159 158/131/158
f 162/140/162 163/275/163 160/139/160
f 161/138/161 156/132/156 169/141/169
f 163/275/163 162/140/162 164/148/164
f 167/143/167 169/141/169 155/136/155
f 166/144/166 167/143/167 154/135/154
f 165/142/165 77/55/77 157/145/157
f 166/144/166 165/142/165 168/146/168
f 169/141/169 156/132/156 155/136/155
f 162/140/162 169/141/169 170/147/170
f 172/152/172 41/28/41 40/29/40
f 174/161/174 173/150/173 172/152/172
f 43/31/43 176/35/176 47/157/47
f 179/227/179 177/155/177 47/157/47
f 176/35/176 181/159/181 180/156/180
f 183/166/183 50/39/50 51/38/51
f 182/160/182 51/38/51 39/27/39
f 51/38/51 182/160/182 183/166/183
f 185/167/185 183/166/183 182/160/182
f 187/164/187 185/167/185 182/160/182
f 186/165/186 174/161/174 172/152/172
f 189/163/189 182/160/182 174/161/174
f 57/266/57 190/179/190 48/42/48
f 190/179/190 176/35/176 48/42/48
f 190/179/190 178/158/178 176/35/176
f 190/179/190 191/178/191 178/158/178
f 191/178/191 181/159/181 178/158/178
f 193/268/193 184/169/184 59/168/59
f 197/187/197 194/171/194 185/167/185
f 194/171/194 197/187/197 195/172/195
f 197/187/197 185/167/185 187/164/187
f 196/174/196 194/171/194 195/172/195
f 201/177/201 199/181/199 210/190/210
f 196/174/196 198/173/198 199/181/199
f 200/176/200 57/266/57 65/50/65
f 200/176/200 190/179/190 57/266/57
f 200/176/200 202/198/202 191/178/191
f 201/177/201 202/198/202 200/176/200
f 201/177/201 210/190/210 202/198/202
f 194/171/194 70/53/70 192/44/192
f 203/180/203 70/53/70 194/171/194
f 201/177/201 71/54/71 203/180/203
f 67/175/67 69/52/69 71/54/71
f 67/175/67 71/54/71 201/177/201
f 259/225/259 179/227/179 204/276/204
f 186/165/186 172/152/172 175/277/175
f 206/182/206 189/163/189 186/165/186
f 206/182/206 207/184/207 188/162/188
f 187/164/187 188/162/188 207/184/207
f 219/185/219 181/159/181 191/178/191
f 198/173/198 195/172/195 212/189/212
f 197/187/197 187/164/187 213/192/213
f 214/193/214 187/164/187 207/184/207
f 209/191/209 212/189/212 217/194/217
f 211/188/211 213/192/213 215/196/215
f 212/189/212 211/188/211 215/196/215
f 217/194/217 212/189/212 215/196/215
f 217/194/217 222/278/222 216/195/216
f 217/194/217 215/196/215 218/279/218
f 218/279/218 215/196/215 214/193/214
f 210/190/210 209/191/209 202/198/202
f 221/199/221 220/197/220 209/191/209
f 221/199/221 219/185/219 220/197/220
f 223/200/223 118/97/118 32/153/32
f 118/97/118 223/200/223 120/271/120
f 120/271/120 223/200/223 121/202/121
f 177/155/177 179/227/179 223/200/223
f 223/200/223 179/227/179 226/226/226
f 226/226/226 225/201/225 223/200/223
f 129/109/129 127/104/127 126/103/126
f 229/204/229 227/203/227 126/103/126
f 229/204/229 126/103/126 228/205/228
f 228/205/228 126/103/126 232/280/232
f 231/281/231 230/206/230 228/205/228
f 227/203/227 135/110/135 129/109/129
f 233/211/233 134/124/134 136/126/136
f 227/203/227 137/112/137 135/110/135
f 237/213/237 235/210/235 236/209/236
f 138/113/138 134/124/134 238/117/238
f 239/212/239 246/219/246 235/210/235
f 246/219/246 248/208/248 235/210/235
f 250/220/250 241/282/241 240/221/240
f 227/203/227 245/218/245 137/112/137
f 245/218/245 136/126/136 137/112/137
f 245/218/245 233/211/233 136/126/136
f 233/211/233 245/218/245 246/219/246
f 247/217/247 227/203/227 234/207/234
f 248/208/248 247/217/247 234/207/234
f 248/208/248 230/206/230 236/209/236
f 248/208/248 246/219/246 247/217/247
f 233/211/233 246/219/246 239/212/239
f 249/222/249 242/215/242 244/214/244
f 249/222/249 240/221/240 242/215/242
f 249/222/249 263/231/263 250/220/250
f 226/226/226 224/283/224 225/201/225
f 254/223/254 244/214/244 243/216/243
f 241/282/241 250/220/250 255/284/255
f 250/220/250 256/234/256 255/284/255
f 256/234/256 257/237/257 255/284/255
f 226/226/226 259/225/259 251/285/251
f 254/223/254 252/224/252 260/228/260
f 253/229/253 260/228/260 252/224/252
f 261/246/261 260/228/260 262/230/262
f 264/233/264 250/220/250 263/231/263
f 244/214/244 263/231/263 249/222/249
f 269/240/269 264/233/264 263/231/263
f 244/214/244 254/223/254 260/228/260
f 265/232/265 244/214/244 260/228/260
f 264/233/264 266/235/266 256/234/256
f 256/234/256 266/235/266 257/237/257
f 264/233/264 267/239/267 266/235/266
f 268/238/268 258/236/258 266/235/266
f 265/232/265 270/241/270 263/231/263
f 271/242/271 269/240/269 270/241/270
f 270/241/270 265/232/265 272/243/272
f 272/243/272 271/242/271 270/241/270
f 265/232/265 260/228/260 261/246/261
f 272/243/272 265/232/265 261/246/261
f 275/247/275 272/243/272 261/246/261
f 274/244/274 272/243/272 276/248/276
f 271/242/271 273/245/273 268/238/268
f 278/249/278 262/230/262 253/229/253
f 279/250/279 278/249/278 282/286/282
f 280/252/280 283/251/283 284/254/284
f 268/238/268 285/257/285 277/256/277
f 285/257/285 281/253/281 286/255/286
f 281/253/281 274/244/274 280/252/280
f 275/247/275 279/250/279 280/252/280
f 285/257/285 268/238/268 273/245/273
