# Blender 5.2.1 LTS
# www.blender.org
o ZombieHead2Hair
v -0.455757 -0.035487 0.006370
v -0.454567 -0.019776 0.016920
v -0.452647 0.021033 0.021905
v -0.439379 0.056113 0.021483
v -0.429164 0.092222 0.024056
v -0.348764 0.151203 0.231065
v -0.336926 0.160683 0.243504
v -0.370686 0.150858 0.185707
v -0.353240 0.192477 0.198268
v -0.343849 0.210308 0.203258
v -0.337337 0.228045 0.203441
v -0.323098 0.180318 0.246740
v -0.322744 0.248232 0.206633
v -0.304814 0.222576 0.248451
v -0.294494 0.270801 0.211205
v -0.371223 0.158023 0.181201
v -0.413742 0.143130 0.035071
v -0.420821 0.124785 0.023752
v -0.417222 0.138517 0.027209
v -0.401611 0.140831 0.075530
v -0.399044 0.160264 0.087521
v -0.406665 0.138749 0.056282
v -0.401662 0.246335 0.000757
v -0.395993 0.219039 0.085441
v -0.410952 0.175954 0.030449
v -0.383742 0.255834 0.073040
v -0.385134 0.305572 -0.005361
v -0.382923 0.281747 0.053003
v -0.374962 0.300321 0.038975
v -0.345046 0.333222 0.018638
v -0.304305 0.369876 0.021630
v -0.274892 0.261629 0.248443
v -0.271057 0.303290 0.212855
v -0.254908 0.275616 0.256569
v -0.257820 0.331681 0.211699
v -0.276798 0.406162 -0.007931
v -0.283510 0.382906 0.037505
v -0.266936 0.394823 0.043077
v -0.240961 0.415609 0.043527
v -0.226712 0.423955 0.046051
v -0.216032 0.441794 -0.050845
v -0.226033 0.279464 0.287423
v -0.182220 0.280892 0.314661
v -0.168518 0.319249 0.291193
v -0.101152 0.340430 0.301143
v -0.124176 0.279809 0.333922
v -0.097613 0.306607 0.321088
v -0.211748 0.368579 0.208541
v -0.188095 0.390021 0.196164
v -0.136013 0.367390 0.249391
v -0.181266 0.395807 0.186868
v -0.105383 0.393269 0.219973
v -0.096016 0.360056 0.275526
v -0.173888 0.406349 0.167489
v -0.124344 0.420186 0.179443
v -0.151837 0.432064 0.138627
v -0.146349 0.442943 0.121623
v -0.155119 0.447404 0.104095
v -0.196295 0.438010 0.066949
v -0.181169 0.459766 -0.001778
v -0.120971 0.477893 0.063194
v -0.100818 0.284599 0.336822
v -0.094955 0.290978 0.334193
v -0.098189 0.327746 0.308906
v -0.077276 0.375314 0.264423
v -0.031802 0.399451 0.251331
v -0.008254 0.418653 0.231759
v -0.003962 0.396748 0.255258
v 0.036992 0.451397 0.169567
v -0.015141 0.457477 0.152134
v -0.092512 0.478678 0.087425
v 0.026578 0.474122 0.105472
v -0.084843 0.487458 0.041084
v -0.084750 0.486940 0.040574
v -0.083991 0.486956 0.040945
v -0.075575 0.491009 -0.019411
v -0.021504 0.495725 0.020802
v -0.004872 0.494453 -0.010073
v -0.192662 -0.376116 -0.164343
v -0.182901 -0.382673 -0.158989
v -0.171879 -0.376515 -0.185915
v -0.150626 -0.395342 -0.157839
v -0.087061 -0.377447 -0.248160
v -0.144726 -0.372304 -0.223530
v -0.131211 -0.363940 -0.249403
v -0.098055 -0.408735 -0.159107
v -0.053694 -0.409149 -0.181251
v -0.045021 -0.421231 -0.166273
v -0.018385 -0.425430 -0.169325
v 0.028131 -0.412403 -0.181630
v 0.003778 -0.369648 -0.275602
v -0.461402 -0.043457 -0.028732
v -0.459528 -0.046999 -0.048445
v -0.457761 -0.042024 -0.072874
v -0.448476 0.056042 -0.043602
v -0.449118 0.021904 -0.146192
v -0.450458 0.048290 -0.114868
v -0.445863 0.082987 -0.061933
v -0.445525 0.085722 -0.068371
v -0.446051 0.089516 -0.056030
v -0.443091 0.099861 -0.056655
v -0.437912 0.158193 -0.096251
v -0.441917 0.108597 -0.063036
v -0.445338 0.096818 -0.071077
v -0.442197 0.107936 -0.068118
v -0.427869 0.173617 -0.030326
v -0.426903 -0.097920 -0.167678
v -0.452937 -0.042155 -0.103517
v -0.439859 -0.032598 -0.164361
v -0.446524 -0.047634 -0.132032
v -0.440251 -0.060413 -0.153335
v -0.429894 -0.035969 -0.194765
v -0.430232 -0.091972 -0.161659
v -0.422631 -0.090114 -0.180135
v -0.438680 0.086691 -0.179507
v -0.432924 0.142736 -0.171928
v -0.413635 0.216413 -0.151677
v -0.414788 -0.063170 -0.207606
v -0.422051 0.026006 -0.240330
v -0.422440 0.097958 -0.226561
v -0.426575 0.222028 -0.089079
v -0.400868 0.266460 -0.037133
v -0.373364 0.301557 -0.078798
v -0.386067 0.280786 -0.137506
v -0.356362 0.331249 -0.045871
v -0.361707 0.304753 -0.144884
v -0.350796 0.336107 -0.128380
v -0.348039 0.345797 -0.066800
v -0.383234 0.266693 -0.168912
v -0.381110 0.241985 -0.226134
v -0.319178 0.314741 -0.230040
v -0.403147 -0.044366 -0.242558
v -0.390572 -0.030877 -0.272748
v -0.385977 -0.020472 -0.282632
v -0.383472 -0.004827 -0.286127
v -0.384293 0.029812 -0.287453
v -0.372727 0.149296 -0.296643
v -0.381015 0.089522 -0.296313
v -0.376429 0.113538 -0.300523
v -0.396105 0.192027 -0.228938
v -0.359376 0.203681 -0.281100
v -0.341162 0.247750 -0.275103
v -0.329771 0.269094 -0.271859
v -0.379258 0.062244 -0.293795
v -0.303724 0.385740 -0.126966
v -0.268819 0.404862 -0.130253
v -0.236642 0.431924 -0.101299
v -0.288337 0.387166 -0.158005
v -0.287492 0.337223 -0.241193
v -0.290263 0.308839 -0.269610
v -0.248462 0.341157 -0.270612
v -0.203923 0.362506 -0.277872
v -0.207533 0.399862 -0.228736
v -0.154878 0.453684 -0.114774
v -0.095632 0.485590 -0.048036
v -0.184193 0.427074 -0.179978
v -0.107506 0.449364 -0.179745
v -0.117090 -0.345136 -0.294144
v -0.113472 0.433666 -0.239580
v -0.108367 0.445473 -0.200554
v -0.098057 0.444436 -0.211965
v -0.110605 -0.316011 -0.324889
v -0.160870 0.294815 -0.370519
v -0.154545 0.316650 -0.356242
v -0.157452 0.332964 -0.342831
v -0.103801 0.320597 -0.378380
v -0.186047 0.363147 -0.289983
v -0.169781 0.350737 -0.317597
v -0.107628 0.362413 -0.333953
v -0.118659 0.395429 -0.302616
v -0.111293 -0.244297 -0.395352
v -0.110722 -0.210669 -0.416884
v -0.076564 -0.182338 -0.452009
v -0.164633 -0.123881 -0.454047
v -0.138679 -0.165725 -0.446048
v -0.123234 -0.131070 -0.470788
v -0.087576 -0.140911 -0.474366
v -0.178019 -0.065702 -0.466216
v -0.181630 -0.009617 -0.470405
v -0.171544 -0.088430 -0.463132
v -0.154773 -0.040327 -0.480296
v -0.185664 0.069029 -0.457875
v -0.178875 0.040111 -0.467730
v -0.180065 0.060258 -0.462894
v -0.143803 0.026371 -0.483167
v -0.182960 0.078590 -0.462135
v -0.179635 0.125867 -0.453465
v -0.070001 0.174172 -0.471375
v -0.165649 0.251777 -0.402421
v -0.153638 0.199980 -0.433939
v -0.156596 0.229615 -0.420879
v -0.135180 0.250620 -0.421892
v -0.124419 0.190677 -0.451598
v -0.028604 0.482871 -0.091203
v -0.012717 0.493923 -0.013633
v -0.011281 0.494147 -0.021373
v 0.011549 0.489930 -0.052066
v -0.094008 0.454720 -0.158469
v -0.052264 0.468864 -0.131913
v -0.000228 0.457786 -0.188431
v -0.064928 0.446503 -0.222971
v -0.069465 0.426867 -0.269288
v -0.031601 0.443149 -0.234218
v -0.009320 0.425580 -0.268322
v -0.002626 0.454718 -0.197368
v -0.010278 0.441986 -0.234650
v -0.098255 -0.298197 -0.339530
v -0.098689 -0.274089 -0.367726
v -0.088146 -0.335737 -0.316431
v 0.000339 -0.286311 -0.377915
v -0.026578 -0.318091 -0.335189
v 0.036001 -0.312799 -0.349172
v -0.083424 0.395031 -0.313888
v -0.045851 0.380993 -0.329442
v -0.032125 0.343280 -0.372157
v 0.083139 0.395272 -0.288430
v 0.013141 0.368987 -0.348098
v -0.006915 -0.209617 -0.437124
v -0.064699 -0.245005 -0.405931
v 0.009129 -0.166436 -0.462295
v -0.076725 0.244688 -0.445210
v 0.019432 0.228382 -0.450050
v 0.043472 0.182750 -0.467328
v -0.061541 0.303258 -0.396035
v 0.008926 0.271555 -0.424478
v -0.008535 -0.067473 -0.498861
v -0.074243 -0.034308 -0.500250
v -0.069861 0.023366 -0.501861
v -0.072736 0.101996 -0.494012
v -0.005789 0.046998 -0.510405
v 0.036270 0.000027 -0.509209
v -0.000443 0.143496 -0.487651
v 0.099338 0.354871 0.292528
v 0.014120 0.379251 0.274092
v 0.030495 0.415669 0.239207
v 0.053642 0.373684 0.280238
v 0.078966 0.367711 0.284886
v 0.108980 0.436520 0.186341
v -0.000301 0.493916 -0.015782
v 0.030661 0.489653 -0.032767
v 0.051998 0.486951 -0.029195
v 0.074510 0.476012 0.069638
v 0.118763 0.328037 0.310898
v 0.144126 0.293964 0.327464
v 0.174055 0.335226 0.287959
v 0.157675 0.287981 0.328006
v 0.175379 0.306837 0.302994
v 0.183612 0.285789 0.317504
v 0.218133 0.286094 0.292324
v 0.108315 0.384631 0.259221
v 0.265404 0.309009 0.238125
v 0.139833 0.429974 0.176403
v 0.158423 0.402465 0.203212
v 0.183848 0.381829 0.234499
v 0.223828 0.385062 0.171195
v 0.121015 0.453142 0.114708
v 0.189879 0.423892 0.125255
v 0.134867 0.465529 0.008533
v 0.178892 0.452955 -0.008540
v 0.194976 0.437701 0.066346
v 0.193049 0.441867 0.046391
v 0.197727 0.443389 0.029208
v 0.203225 0.431962 0.081631
v 0.209043 0.440291 0.020855
v 0.240731 0.283049 0.277697
v 0.314503 0.230731 0.255868
v 0.342384 0.242793 0.212492
v 0.257999 0.285242 0.262799
v 0.268991 0.282528 0.260568
v 0.294501 0.258431 0.256626
v 0.281919 0.315227 0.210545
v 0.320250 0.276845 0.214712
v 0.267091 0.342026 0.202981
v 0.236720 0.368029 0.193352
v 0.225589 0.379142 0.184036
v 0.240546 0.406736 0.103501
v 0.241419 0.385305 0.148410
v 0.249228 0.394641 0.122365
v 0.273053 0.414961 0.007608
v 0.304834 0.387330 0.011449
v 0.313984 0.372011 0.025721
v 0.243079 0.428557 0.017667
v 0.349807 0.159250 0.249588
v 0.354301 0.155881 0.243628
v 0.375332 0.157016 0.198175
v 0.379360 0.151023 0.188509
v 0.337691 0.181556 0.254578
v 0.352378 0.226091 0.216318
v 0.355778 0.194864 0.224693
v 0.357638 0.161128 0.236726
v 0.371625 0.173905 0.201873
v 0.369241 0.194938 0.190902
v 0.385254 0.151011 0.172752
v 0.385067 0.169367 0.160876
v 0.370452 0.199015 0.181903
v 0.375585 0.192370 0.170076
v 0.386331 0.157789 0.162838
v 0.419294 0.114741 0.023592
v 0.408135 0.149410 0.019363
v 0.403796 0.233145 0.033163
v 0.406759 0.198479 0.021533
v 0.413814 0.236722 -0.020325
v 0.355618 0.326500 0.031025
v 0.381628 0.298738 -0.007650
v 0.387881 0.271212 0.031903
v 0.405994 0.251171 -0.051587
v 0.327919 0.354223 0.036580
v 0.354966 0.332663 -0.027383
v 0.457322 -0.035052 0.006734
v 0.461457 -0.021566 0.017210
v 0.430457 0.059862 0.021571
v 0.451485 0.013413 0.020146
v 0.448486 0.039714 -0.022614
v 0.422509 0.086903 0.021036
v 0.043732 -0.419577 -0.165201
v 0.099229 -0.407718 -0.157988
v 0.072585 -0.400866 -0.211187
v 0.106887 -0.363238 -0.262170
v 0.111706 -0.331038 -0.314559
v 0.153755 -0.399526 -0.159485
v 0.207209 -0.376583 -0.157895
v 0.165781 -0.369398 -0.223124
v 0.080102 0.483869 -0.032763
v 0.116636 0.478645 -0.049778
v 0.016352 0.460034 -0.182590
v 0.083199 0.454254 -0.188133
v 0.109077 0.457931 -0.167922
v 0.002056 0.449386 -0.213350
v 0.000861 0.444411 -0.225370
v 0.075245 0.448737 -0.204397
v 0.058565 0.456253 -0.190714
v 0.061726 -0.342656 -0.303218
v 0.056217 -0.273578 -0.391404
v 0.110008 -0.270010 -0.380805
v 0.100380 0.312880 -0.384394
v 0.081161 0.364062 -0.335599
v 0.116420 0.381596 -0.298696
v 0.063470 -0.227850 -0.421582
v 0.108533 -0.178021 -0.439221
v 0.074102 -0.161074 -0.459104
v 0.084035 0.156776 -0.473455
v 0.165415 0.121121 -0.464572
v 0.072226 0.159813 -0.473936
v 0.124412 0.233620 -0.423754
v 0.070766 0.217251 -0.452099
v 0.112927 0.296610 -0.392417
v -0.000274 -0.113523 -0.485547
v 0.075551 -0.113130 -0.479463
v 0.048922 -0.024184 -0.502605
v 0.060475 -0.033730 -0.501124
v 0.073908 -0.035109 -0.499639
v 0.069889 -0.057515 -0.498982
v 0.085453 -0.027626 -0.499989
v 0.096612 -0.006391 -0.497788
v 0.035130 0.061865 -0.504186
v 0.033288 0.018073 -0.506251
v 0.101481 0.046793 -0.493981
v 0.100571 0.082624 -0.489814
v 0.048605 0.135059 -0.484651
v 0.043917 0.092486 -0.496283
v 0.061666 0.154336 -0.477221
v 0.100260 0.117893 -0.480977
v 0.094045 0.140319 -0.475401
v 0.134103 0.472200 -0.079266
v 0.148143 0.459734 -0.144275
v 0.154619 0.461115 -0.120804
v 0.185121 0.447508 -0.113839
v 0.189530 0.420361 -0.175924
v 0.201263 -0.346220 -0.230145
v 0.203006 -0.325559 -0.263895
v 0.148130 0.408178 -0.234432
v 0.189221 0.399835 -0.224503
v 0.159938 -0.284240 -0.346766
v 0.197766 -0.286095 -0.321356
v 0.205943 -0.298406 -0.300531
v 0.199999 -0.267049 -0.335969
v 0.206883 -0.250173 -0.342281
v 0.183411 0.333357 -0.325389
v 0.207028 0.275312 -0.368161
v 0.210709 0.294643 -0.345426
v 0.206546 0.351914 -0.281540
v 0.120846 -0.239943 -0.402221
v 0.141378 -0.202907 -0.417631
v 0.187832 -0.187001 -0.410988
v 0.171459 -0.065390 -0.471809
v 0.256117 -0.110835 -0.410686
v 0.196780 -0.145544 -0.416371
v 0.157566 0.177265 -0.446578
v 0.209371 0.125476 -0.436617
v 0.205769 0.211930 -0.406321
v 0.242129 0.174730 -0.410836
v 0.207577 0.245140 -0.384511
v 0.151200 0.047805 -0.481473
v 0.245427 0.399870 -0.137396
v 0.250573 0.415987 -0.053173
v 0.294580 0.398155 -0.014869
v 0.272595 0.385854 -0.087573
v 0.152485 0.464779 -0.106497
v 0.263264 -0.335828 -0.159336
v 0.320126 -0.290315 -0.158677
v 0.281957 0.376848 -0.159188
v 0.304164 0.337044 -0.201922
v 0.226832 -0.294779 -0.290105
v 0.253921 -0.276798 -0.291575
v 0.238299 -0.315417 -0.248570
v 0.300945 -0.281551 -0.238692
v 0.266238 -0.258512 -0.294537
v 0.321192 -0.230298 -0.259886
v 0.256385 0.318459 -0.275966
v 0.289634 0.293424 -0.265383
v 0.219503 0.382732 -0.236661
v 0.235198 0.327351 -0.287581
v 0.286303 0.331674 -0.238726
v 0.227071 -0.226167 -0.354681
v 0.232442 -0.208446 -0.367652
v 0.283502 -0.219842 -0.307898
v 0.318301 -0.160222 -0.315890
v 0.226052 0.324900 -0.299748
v 0.232263 -0.150738 -0.397935
v 0.236700 -0.135986 -0.401718
v 0.216080 -0.055701 -0.449591
v 0.267827 -0.063792 -0.414673
v 0.266569 -0.031671 -0.415784
v 0.236548 0.040332 -0.439041
v 0.252112 0.093922 -0.411150
v 0.265224 0.006957 -0.412383
v 0.262781 0.057561 -0.411575
v 0.249019 0.119318 -0.409019
v 0.214410 0.222368 -0.395283
v 0.236450 0.189639 -0.404480
v 0.424120 0.179161 -0.034193
v 0.357837 0.312404 -0.133111
v 0.313896 0.368648 -0.045479
v 0.319210 0.358848 -0.085257
v 0.350840 -0.257080 -0.160912
v 0.382622 -0.217893 -0.162393
v 0.399697 -0.182633 -0.160460
v 0.414389 -0.122534 -0.156574
v 0.381885 -0.167943 -0.224448
v 0.402638 0.181080 -0.223392
v 0.399174 0.232223 -0.155734
v 0.379390 0.284204 -0.150937
v 0.379781 0.228919 -0.219513
v 0.335213 0.317981 -0.171322
v 0.305177 -0.188547 -0.313386
v 0.354964 -0.213318 -0.218556
v 0.377743 -0.088007 -0.289142
v 0.394255 -0.114926 -0.241656
v 0.397282 0.069063 -0.266114
v 0.407405 -0.010070 -0.255011
v 0.381586 0.150210 -0.269137
v 0.391573 0.115803 -0.264722
v 0.399117 0.097631 -0.254054
v 0.396785 0.097452 -0.259415
v 0.400009 0.136474 -0.241163
v 0.354500 0.218302 -0.258450
v 0.360418 0.175082 -0.280383
v 0.378793 0.197647 -0.244694
v 0.369589 0.169134 -0.274689
v 0.392942 0.165494 -0.242676
v 0.305934 0.278050 -0.265404
v 0.327485 0.247901 -0.263700
v 0.350886 0.272542 -0.212644
v 0.310414 -0.150131 -0.322532
v 0.322695 -0.147121 -0.315634
v 0.339659 -0.100420 -0.326169
v 0.328586 -0.137660 -0.316340
v 0.349690 -0.057472 -0.333892
v 0.358966 -0.000104 -0.331409
v 0.360663 0.047737 -0.323033
v 0.361483 0.130565 -0.312104
v 0.357101 0.149521 -0.304145
v 0.359900 0.092888 -0.321870
v 0.379554 0.096774 -0.297803
v 0.356855 0.169915 -0.290502
v 0.458474 -0.042426 -0.017710
v 0.454669 -0.041289 -0.093108
v 0.457108 -0.000604 -0.087523
v 0.456756 0.089378 -0.092686
v 0.443708 0.116841 -0.047300
v 0.447337 0.119889 -0.098063
v 0.426897 0.193811 -0.105665
v 0.446787 0.148821 -0.104445
v 0.428325 -0.093974 -0.160091
v 0.424494 -0.063845 -0.208394
v 0.437746 -0.048389 -0.150371
v 0.435477 -0.058002 -0.155219
v 0.441181 -0.047667 -0.129739
v 0.436405 -0.024962 -0.162930
v 0.436374 0.003454 -0.182532
v 0.422308 0.060047 -0.228629
v 0.461866 0.030932 -0.137759
v 0.451152 0.091265 -0.134365
v 0.433085 0.109700 -0.174609
v 0.429518 0.167112 -0.170190
v 0.386973 -0.036559 -0.297892
v 0.399303 0.104808 -0.248152
vn -0.9852 -0.0375 0.1670
vn -0.9901 0.0176 0.1391
vn -0.9784 0.1932 0.0736
vn -0.9433 0.3049 0.1315
vn -0.9560 0.2374 0.1723
vn -0.7870 0.4886 0.3766
vn -0.7820 0.3479 0.5171
vn -0.8566 0.2423 0.4556
vn -0.8373 0.2574 0.4824
vn -0.7568 0.3232 0.5682
vn -0.3805 0.1303 0.9156
vn -0.7245 0.3552 0.5907
vn -0.6491 0.4717 0.5968
vn -0.7109 0.4261 0.5595
vn -0.6855 0.5312 0.4979
vn -0.8610 0.2229 0.4571
vn -0.9511 0.0940 0.2943
vn -0.9565 0.1734 0.2346
vn -0.8823 0.1081 0.4581
vn -0.9570 -0.0608 0.2835
vn -0.9697 0.0415 0.2408
vn -0.9393 -0.2120 0.2696
vn -0.9488 0.2657 0.1706
vn -0.9629 0.2055 0.1750
vn -0.9624 0.1518 0.2252
vn -0.9345 0.2994 0.1923
vn -0.8194 0.5688 0.0717
vn -0.9353 0.2903 0.2024
vn -0.7544 0.6088 0.2452
vn -0.6460 0.7528 0.1264
vn -0.6869 0.7023 0.1868
vn -0.6516 0.5265 0.5461
vn -0.6338 0.4828 0.6043
vn -0.6461 0.5141 0.5641
vn -0.5620 0.4404 0.7002
vn -0.5864 0.7990 0.1330
vn -0.6352 0.7215 0.2755
vn -0.6106 0.7398 0.2825
vn -0.5205 0.8376 0.1657
vn -0.5188 0.8466 0.1192
vn -0.4138 0.9103 -0.0112
vn -0.5169 0.6367 0.5722
vn -0.3527 0.5768 0.7368
vn -0.3625 0.6321 0.6848
vn -0.2800 0.6304 0.7240
vn -0.2305 0.5835 0.7787
vn -0.2435 0.5524 0.7972
vn -0.3870 0.6842 0.6181
vn -0.2069 0.8110 0.5473
vn -0.2665 0.7828 0.5623
vn -0.2140 0.8513 0.4791
vn -0.2728 0.7859 0.5550
vn -0.2393 0.7758 0.5839
vn -0.3343 0.8555 0.3955
vn -0.2597 0.8171 0.5147
vn -0.3113 0.8355 0.4528
vn -0.3015 0.8546 0.4228
vn -0.3802 0.8632 0.3323
vn -0.4703 0.8613 0.1924
vn -0.4215 0.9060 0.0391
vn -0.3150 0.9312 0.1835
vn -0.2109 0.5318 0.8202
vn -0.2305 0.5842 0.7781
vn -0.2686 0.4668 0.8426
vn -0.2527 0.7755 0.5785
vn -0.1908 0.7911 0.5812
vn -0.1051 0.8290 0.5493
vn -0.0521 0.7172 0.6949
vn 0.0444 0.9200 0.3893
vn -0.0799 0.9120 0.4024
vn -0.1668 0.9308 0.3253
vn 0.0753 0.9593 0.2723
vn -0.3505 0.8802 -0.3200
vn -0.2565 0.9584 -0.1250
vn -0.2923 0.6183 -0.7295
vn -0.1488 0.9879 -0.0446
vn 0.0163 0.9956 0.0920
vn 0.1187 0.9927 0.0230
vn -0.3815 -0.8549 -0.3517
vn -0.3579 -0.8677 -0.3450
vn -0.3393 -0.8770 -0.3401
vn -0.2836 -0.8958 -0.3423
vn -0.1508 -0.8898 -0.4306
vn -0.2519 -0.8992 -0.3579
vn -0.2536 -0.8681 -0.4267
vn -0.2232 -0.9022 -0.3691
vn -0.1491 -0.8712 -0.4678
vn -0.2168 -0.8174 -0.5338
vn -0.0384 -0.6970 -0.7160
vn 0.0620 -0.8929 -0.4460
vn 0.0095 -0.8424 -0.5387
vn -0.9972 0.0745 0.0052
vn -0.9947 -0.0590 -0.0840
vn -0.9942 0.0208 -0.1057
vn -0.9873 0.1473 0.0603
vn -0.9846 0.0006 -0.1747
vn -0.9988 0.0397 -0.0270
vn -0.9968 0.0681 -0.0419
vn -0.9966 0.0712 0.0423
vn -0.9779 0.1718 0.1188
vn -0.9644 0.2018 0.1708
vn -0.9885 0.1514 -0.0041
vn -0.8405 -0.2530 -0.4791
vn -0.9931 0.1154 0.0215
vn -0.9760 0.1637 0.1438
vn -0.9635 0.1842 0.1945
vn -0.9025 -0.2101 -0.3760
vn -0.9420 0.2974 -0.1558
vn -0.9601 -0.0791 -0.2681
vn -0.9745 -0.0422 -0.2205
vn -0.9449 -0.1380 -0.2968
vn -0.9124 -0.1695 -0.3724
vn -0.9290 -0.2156 -0.3007
vn -0.9039 -0.1466 -0.4018
vn -0.9731 0.0917 -0.2115
vn -0.9494 0.2056 -0.2373
vn -0.8974 0.3680 -0.2434
vn -0.8540 -0.2578 -0.4520
vn -0.8892 -0.0492 -0.4548
vn -0.9016 0.1525 -0.4048
vn -0.9387 0.3438 -0.0238
vn -0.9063 0.4215 0.0306
vn -0.8272 0.5562 -0.0802
vn -0.8002 0.5664 -0.1973
vn -0.7589 0.6509 0.0228
vn -0.7944 0.5525 -0.2522
vn -0.8023 0.5619 -0.2014
vn -0.7811 0.6238 0.0272
vn -0.8016 0.5262 -0.2838
vn -0.7929 0.4710 -0.3867
vn -0.6809 0.5996 -0.4206
vn -0.8641 -0.2291 -0.4481
vn -0.8470 -0.1375 -0.5135
vn -0.9303 0.0685 -0.3604
vn -0.8028 -0.0599 -0.5932
vn -0.7795 -0.0194 -0.6261
vn -0.8562 0.2229 -0.4661
vn -0.8358 0.0577 -0.5460
vn -0.9476 0.1298 -0.2919
vn -0.8747 0.2639 -0.4065
vn -0.7864 0.3367 -0.5178
vn -0.7245 0.4276 -0.5407
vn -0.6934 0.5591 -0.4546
vn -0.7518 -0.0782 -0.6547
vn -0.6199 0.7690 -0.1561
vn -0.4720 0.8608 -0.1907
vn -0.4416 0.8864 -0.1387
vn -0.5521 0.7656 -0.3304
vn -0.5376 0.6837 -0.4934
vn -0.5672 0.6161 -0.5465
vn -0.4577 0.7285 -0.5098
vn -0.4602 0.7049 -0.5398
vn -0.4512 0.7744 -0.4434
vn -0.2606 0.9437 -0.2038
vn -0.2058 0.9679 -0.1444
vn -0.3426 0.8962 -0.2820
vn -0.1458 0.9744 -0.1711
vn -0.2005 -0.8148 -0.5440
vn -0.2478 0.8928 -0.3761
vn -0.2465 0.9394 -0.2383
vn -0.1742 0.9464 -0.2719
vn -0.2274 -0.5909 -0.7741
vn -0.3774 0.5904 -0.7134
vn -0.3666 0.5645 -0.7396
vn -0.2869 0.6838 -0.6709
vn -0.2229 0.6280 -0.7456
vn -0.4354 0.6764 -0.5940
vn -0.3620 0.6792 -0.6385
vn -0.2356 0.6574 -0.7157
vn -0.2925 0.7364 -0.6101
vn -0.1827 -0.6200 -0.7631
vn -0.1896 -0.5938 -0.7819
vn -0.1242 -0.5847 -0.8017
vn -0.4027 -0.3382 -0.8506
vn -0.2812 -0.5142 -0.8103
vn -0.2665 -0.3361 -0.9034
vn -0.1254 -0.3654 -0.9224
vn -0.3556 -0.1828 -0.9166
vn -0.3160 0.0291 -0.9483
vn -0.3469 -0.2333 -0.9084
vn -0.3199 -0.0943 -0.9428
vn -0.7385 -0.0890 -0.6684
vn -0.3413 0.1401 -0.9295
vn -0.5238 -0.0040 -0.8518
vn -0.3142 0.0679 -0.9469
vn -0.3890 0.1110 -0.9145
vn -0.3037 0.2415 -0.9217
vn -0.1399 0.3272 -0.9345
vn -0.4430 0.5279 -0.7246
vn -0.3956 0.3526 -0.8480
vn -0.4128 0.3810 -0.8273
vn -0.3440 0.5015 -0.7938
vn -0.3133 0.3202 -0.8940
vn -0.1048 0.9731 -0.2050
vn 0.5514 0.8285 0.0974
vn -0.0008 0.9948 -0.1020
vn 0.0265 0.9923 -0.1207
vn -0.1583 0.9675 -0.1971
vn -0.1822 0.9575 -0.2235
vn -0.0153 0.9470 -0.3210
vn -0.0898 0.9278 -0.3622
vn -0.0707 0.8678 -0.4919
vn 0.0092 0.9058 -0.4235
vn 0.0907 0.8431 -0.5301
vn 0.0052 0.9457 -0.3249
vn 0.1115 0.8946 -0.4327
vn -0.1468 -0.6520 -0.7438
vn -0.1608 -0.7292 -0.6651
vn -0.1400 -0.7093 -0.6909
vn -0.0762 -0.7042 -0.7059
vn -0.0658 -0.7460 -0.6627
vn 0.0218 -0.7900 -0.6127
vn -0.1062 0.7280 -0.6773
vn -0.0346 0.7564 -0.6532
vn -0.0468 0.6282 -0.7767
vn 0.1692 0.8494 -0.4999
vn 0.0613 0.7732 -0.6311
vn 0.0004 -0.5737 -0.8190
vn -0.1379 -0.6084 -0.7815
vn 0.0580 -0.4704 -0.8806
vn -0.1354 0.4968 -0.8572
vn 0.0657 0.4541 -0.8885
vn 0.0546 0.3772 -0.9245
vn -0.0692 0.5961 -0.7999
vn 0.0586 0.6150 -0.7864
vn -0.0153 -0.1910 -0.9815
vn -0.1437 -0.1122 -0.9832
vn -0.1750 0.0231 -0.9843
vn -0.1904 0.2097 -0.9590
vn -0.0211 0.0720 -0.9972
vn 0.0161 -0.1223 -0.9924
vn 0.0119 0.3331 -0.9428
vn 0.2559 0.6856 0.6815
vn -0.0305 0.6985 0.7149
vn 0.0315 0.8029 0.5953
vn 0.0674 0.7324 0.6775
vn 0.1217 0.7590 0.6396
vn 0.2254 0.8754 0.4276
vn 0.1241 0.9922 -0.0121
vn 0.1167 0.9930 -0.0185
vn 0.1684 0.9823 0.0819
vn 0.2061 0.9635 0.1706
vn 0.2620 0.6244 0.7358
vn 0.3035 0.6269 0.7175
vn 0.3785 0.5678 0.7310
vn 0.2905 0.6539 0.6986
vn 0.3971 0.5495 0.7351
vn 0.4014 0.6211 0.6732
vn 0.4650 0.5974 0.6534
vn 0.2022 0.7565 0.6219
vn 0.5443 0.5876 0.5987
vn 0.3792 0.8385 0.3913
vn 0.3550 0.8287 0.4327
vn 0.3721 0.7795 0.5039
vn 0.3923 0.8681 0.3040
vn 0.2742 0.9355 0.2229
vn 0.4035 0.8577 0.3188
vn 0.2919 0.9500 0.1105
vn 0.3136 0.9476 0.0613
vn 0.3025 0.9320 0.1997
vn 0.3043 0.9380 0.1660
vn 0.2842 0.9525 0.1098
vn 0.2860 0.9228 0.2582
vn 0.3261 0.9426 0.0716
vn 0.5052 0.5486 0.6662
vn 0.6854 0.4224 0.5931
vn 0.6662 0.4753 0.5747
vn 0.4338 0.5806 0.6890
vn 0.4789 0.5968 0.6438
vn 0.6370 0.4931 0.5925
vn 0.6326 0.5827 0.5102
vn 0.6426 0.4955 0.5844
vn 0.5576 0.6226 0.5490
vn 0.5057 0.7685 0.3920
vn 0.4639 0.8180 0.3401
vn 0.4111 0.8382 0.3583
vn 0.4055 0.8336 0.3750
vn 0.3190 0.8578 0.4031
vn 0.5105 0.8562 -0.0793
vn 0.8092 0.5840 -0.0640
vn 0.6167 0.7014 0.3575
vn 0.3835 0.9235 -0.0053
vn 0.7970 0.2397 0.5544
vn 0.8306 0.1696 0.5304
vn 0.9405 0.1486 0.3055
vn 0.9347 0.0644 0.3496
vn 0.7452 0.2864 0.6022
vn 0.6996 0.3950 0.5955
vn 0.7796 0.2481 0.5751
vn 0.8183 0.2213 0.5305
vn 0.9377 0.1977 0.2856
vn 0.9277 0.2630 0.2650
vn 0.9361 0.1873 0.2976
vn 0.9391 0.2098 0.2723
vn 0.9270 0.2801 0.2494
vn 0.9273 0.2854 0.2421
vn 0.9695 0.1399 0.2010
vn 0.9233 0.2062 0.3241
vn 0.9263 0.1817 0.3302
vn 0.9555 0.2223 0.1938
vn 0.9679 0.0460 0.2470
vn 0.9387 0.3280 0.1064
vn 0.7529 0.6529 0.0828
vn 0.8546 0.5178 0.0392
vn 0.8858 0.4359 0.1594
vn 0.8831 0.4664 -0.0504
vn 0.7458 0.6661 0.0002
vn 0.7358 0.6769 -0.0218
vn 0.9002 -0.4035 0.1641
vn 0.9978 0.0545 0.0364
vn 0.9194 0.3193 0.2296
vn 0.9412 0.3132 0.1266
vn 0.9670 0.2000 0.1576
vn 0.9330 0.1588 0.3229
vn 0.2082 -0.8083 -0.5507
vn 0.1477 -0.9556 -0.2549
vn 0.1205 -0.9204 -0.3720
vn 0.2112 -0.8357 -0.5070
vn 0.2127 -0.7887 -0.5768
vn 0.2837 -0.9016 -0.3265
vn 0.4696 -0.8073 -0.3575
vn 0.3417 -0.8112 -0.4745
vn 0.1592 0.9632 0.2167
vn 0.3543 0.9298 0.0995
vn 0.0113 0.9362 -0.3513
vn 0.1605 0.9082 -0.3866
vn 0.2120 0.8828 -0.4192
vn 0.0372 0.9322 -0.3599
vn 0.0780 0.9096 -0.4080
vn 0.1675 0.8682 -0.4670
vn 0.0644 0.9162 -0.3955
vn 0.0237 -0.7737 -0.6331
vn 0.0810 -0.6593 -0.7475
vn 0.2522 -0.6597 -0.7080
vn 0.1761 0.6025 -0.7785
vn 0.2137 0.7610 -0.6125
vn 0.2715 0.7789 -0.5654
vn 0.0948 -0.5053 -0.8577
vn 0.2485 -0.4102 -0.8775
vn 0.1663 -0.5144 -0.8413
vn 0.1910 0.3433 -0.9196
vn 0.3935 0.2260 -0.8911
vn 0.1312 0.4228 -0.8967
vn 0.2674 0.4790 -0.8361
vn 0.1488 0.5383 -0.8295
vn 0.2306 0.5437 -0.8070
vn 0.0316 -0.3289 -0.9438
vn 0.1603 -0.3532 -0.9217
vn 0.0107 -0.1463 -0.9892
vn 0.0870 -0.0551 -0.9947
vn 0.0334 -0.0353 -0.9988
vn 0.1185 -0.2036 -0.9719
vn 0.2374 -0.0925 -0.9670
vn 0.3515 -0.0731 -0.9333
vn 0.0887 0.1667 -0.9820
vn 0.2142 0.1508 -0.9651
vn 0.2416 0.0811 -0.9670
vn 0.2468 0.1747 -0.9532
vn 0.1057 0.2744 -0.9558
vn 0.0776 0.2339 -0.9692
vn 0.0938 0.3597 -0.9283
vn 0.2230 0.2660 -0.9378
vn 0.2120 0.2560 -0.9432
vn 0.5414 0.8291 0.1395
vn 0.4076 0.8406 -0.3568
vn 0.4333 0.8855 -0.1677
vn 0.4961 0.8505 -0.1746
vn 0.4813 0.8176 -0.3160
vn 0.4308 -0.7948 -0.4274
vn 0.3741 -0.7815 -0.4993
vn 0.2608 0.8347 -0.4850
vn 0.3180 0.8433 -0.4333
vn 0.3616 -0.6233 -0.6933
vn 0.3661 -0.7061 -0.6061
vn 0.2985 -0.7781 -0.5528
vn 0.4205 -0.5077 -0.7519
vn 0.3934 -0.5859 -0.7085
vn 0.3673 0.7124 -0.5979
vn 0.3413 0.5883 -0.7331
vn 0.3864 0.6547 -0.6497
vn 0.4128 0.7127 -0.5672
vn 0.2750 -0.5670 -0.7765
vn 0.2531 -0.4616 -0.8502
vn 0.3918 -0.3977 -0.8297
vn 0.3639 -0.2232 -0.9043
vn 0.4362 -0.3727 -0.8191
vn 0.3696 -0.3460 -0.8624
vn 0.3188 0.3973 -0.8605
vn 0.5022 0.1789 -0.8460
vn 0.3587 0.4777 -0.8020
vn 0.4386 0.2853 -0.8522
vn 0.7770 0.3155 -0.5448
vn 0.3550 0.0769 -0.9317
vn 0.5211 0.8366 -0.1691
vn 0.5588 0.8041 -0.2029
vn 0.6651 0.7349 -0.1323
vn 0.5864 0.7954 -0.1530
vn 0.4213 0.9050 -0.0581
vn 0.5618 -0.7537 -0.3411
vn 0.6356 -0.7256 -0.2636
vn 0.5723 0.7907 -0.2174
vn 0.6745 0.6337 -0.3788
vn 0.4490 -0.7548 -0.4782
vn 0.5304 -0.6571 -0.5356
vn 0.4795 -0.7745 -0.4126
vn 0.6335 -0.6656 -0.3946
vn 0.6254 -0.5014 -0.5979
vn 0.7328 -0.4539 -0.5069
vn 0.5719 0.5119 -0.6411
vn 0.6506 0.5408 -0.5332
vn 0.4262 0.7761 -0.4649
vn 0.4932 0.6723 -0.5520
vn 0.6371 0.5801 -0.5074
vn 0.3800 -0.6300 -0.6773
vn 0.4286 -0.5527 -0.7147
vn 0.6201 -0.5083 -0.5975
vn 0.7029 -0.3119 -0.6392
vn 0.4813 0.6870 -0.5444
vn 0.4502 -0.3260 -0.8313
vn 0.4014 -0.4909 -0.7733
vn 0.5008 -0.1057 -0.8591
vn 0.5442 -0.1095 -0.8318
vn 0.5376 0.0542 -0.8414
vn 0.5768 0.0792 -0.8130
vn 0.6109 0.1906 -0.7684
vn 0.6362 0.0089 -0.7715
vn 0.6715 0.1382 -0.7280
vn 0.5787 0.0979 -0.8096
vn 0.4016 0.4871 -0.7755
vn 0.3896 0.4828 -0.7843
vn 0.9577 0.1839 0.2215
vn 0.7112 0.6817 -0.1718
vn 0.6609 0.7401 -0.1244
vn 0.6211 0.7732 -0.1280
vn 0.7326 -0.5910 -0.3376
vn 0.7722 -0.5087 -0.3807
vn 0.8961 -0.3074 -0.3200
vn 0.9070 -0.3811 -0.1794
vn 0.8129 -0.3955 -0.4275
vn 0.8404 0.2990 -0.4520
vn 0.8871 0.4098 -0.2124
vn 0.8066 0.5442 -0.2307
vn 0.7642 0.4652 -0.4467
vn 0.6770 0.6529 -0.3396
vn 0.7201 -0.4372 -0.5387
vn 0.7410 -0.5108 -0.4358
vn 0.7852 -0.3150 -0.5331
vn 0.8403 -0.3209 -0.4369
vn 0.8599 0.0740 -0.5050
vn 0.9052 -0.0689 -0.4193
vn 0.8207 0.2824 -0.4968
vn 0.8900 0.1659 -0.4248
vn 0.9979 -0.0435 -0.0488
vn 0.8957 0.1169 -0.4289
vn 0.8924 0.1007 -0.4399
vn 0.6699 0.4869 -0.5604
vn 0.7091 0.4203 -0.5661
vn 0.7292 0.3919 -0.5610
vn 0.7191 0.4001 -0.5682
vn 0.7916 0.2152 -0.5719
vn 0.6435 0.5909 -0.4866
vn 0.6802 0.4877 -0.5472
vn 0.6672 0.5705 -0.4789
vn 0.5124 -0.1554 -0.8446
vn 0.6960 -0.2815 -0.6606
vn 0.7108 -0.3331 -0.6195
vn 0.7235 -0.4548 -0.5193
vn 0.7263 -0.2020 -0.6570
vn 0.8111 0.0366 -0.5837
vn 0.8330 0.0226 -0.5528
vn 0.7937 0.2548 -0.5524
vn 0.6844 0.4111 -0.6022
vn 0.7666 0.0733 -0.6379
vn 0.8424 0.0952 -0.5303
vn 0.8069 0.3544 -0.4726
vn 0.9954 -0.0906 -0.0309
vn 0.9826 -0.0623 -0.1748
vn 0.9980 -0.0336 -0.0541
vn 0.9848 0.1688 0.0402
vn 0.9496 0.1950 0.2453
vn 0.9865 0.1580 -0.0431
vn 0.9152 0.3991 -0.0557
vn 0.9780 0.2063 -0.0316
vn 0.9302 -0.3009 -0.2102
vn 0.9391 -0.1117 -0.3248
vn 0.9815 -0.0595 -0.1822
vn 0.9716 -0.1479 -0.1844
vn 0.9419 -0.1981 -0.2711
vn 0.9623 -0.1003 -0.2528
vn 0.9237 -0.1836 -0.3362
vn 0.8916 0.0979 -0.4421
vn 0.9757 -0.1112 -0.1887
vn 0.9390 0.2611 -0.2236
vn 0.9300 0.1534 -0.3340
vn 0.9213 0.2688 -0.2810
vn 0.8387 -0.0593 -0.5414
vn 0.8945 0.1595 -0.4176
vt 0.234575 0.539388
vt 0.257776 0.540385
vt 0.258912 0.567274
vt 0.323917 0.611081
vt 0.343126 0.610393
vt 0.349601 0.617405
vt 0.331402 0.641195
vt 0.334968 0.654264
vt 0.353800 0.632886
vt 0.336370 0.667034
vt 0.340636 0.682961
vt 0.358842 0.663944
vt 0.349020 0.704270
vt 0.258973 0.591621
vt 0.260365 0.601832
vt 0.261771 0.628456
vt 0.271888 0.603742
vt 0.279586 0.605640
vt 0.263459 0.605663
vt 0.284363 0.618999
vt 0.247785 0.713480
vt 0.271891 0.700476
vt 0.266484 0.714125
vt 0.366963 0.695700
vt 0.355949 0.729712
vt 0.375517 0.707276
vt 0.261294 0.780468
vt 0.270933 0.795806
vt 0.245441 0.809527
vt 0.275464 0.808862
vt 0.416504 0.741657
vt 0.393939 0.707723
vt 0.416458 0.709367
vt 0.443337 0.711923
vt 0.453029 0.735640
vt 0.373786 0.783998
vt 0.448426 0.761000
vt 0.446632 0.783222
vt 0.420536 0.790491
vt 0.377422 0.814807
vt 0.428895 0.823289
vt 0.403556 0.847473
vt 0.248438 0.880513
vt 0.281894 0.840999
vt 0.302313 0.859235
vt 0.344067 0.874098
vt 0.326617 0.911451
vt 0.370502 0.917272
vt 0.453712 0.716606
vt 0.455940 0.721930
vt 0.451018 0.751763
vt 0.479968 0.820093
vt 0.454748 0.798450
vt 0.494334 0.838980
vt 0.484212 0.897338
vt 0.534185 0.883161
vt 0.321063 0.939324
vt 0.321771 0.939194
vt 0.372360 0.980812
vt 0.322191 0.939655
vt 0.209988 0.949836
vt 0.539287 0.928218
vt 0.136113 0.179699
vt 0.137599 0.188621
vt 0.118760 0.188442
vt 0.121279 0.160517
vt 0.053700 0.193706
vt 0.091448 0.197635
vt 0.077080 0.209733
vt 0.045837 0.137767
vt 0.042085 0.123566
vt 0.087902 0.136513
vt 0.017214 0.121214
vt 0.240102 0.470166
vt 0.252224 0.475268
vt 0.255921 0.486170
vt 0.257696 0.514763
vt 0.199915 0.514752
vt 0.210262 0.532947
vt 0.230112 0.562564
vt 0.228033 0.558031
vt 0.224811 0.567315
vt 0.225674 0.575351
vt 0.215566 0.607967
vt 0.229760 0.570008
vt 0.238738 0.622422
vt 0.214240 0.471199
vt 0.224874 0.471220
vt 0.193086 0.477938
vt 0.196659 0.458979
vt 0.182297 0.475788
vt 0.190434 0.433048
vt 0.225765 0.559822
vt 0.188183 0.557582
vt 0.189834 0.594646
vt 0.217235 0.649993
vt 0.185876 0.438347
vt 0.176143 0.456915
vt 0.167615 0.517028
vt 0.171652 0.564164
vt 0.250300 0.675112
vt 0.235299 0.686109
vt 0.195543 0.691203
vt 0.216896 0.712879
vt 0.258589 0.744220
vt 0.229626 0.737076
vt 0.194164 0.733221
vt 0.219820 0.746093
vt 0.189364 0.711278
vt 0.183929 0.680493
vt 0.164769 0.659095
vt 0.194062 0.645338
vt 0.163795 0.470073
vt 0.152978 0.479397
vt 0.147977 0.496789
vt 0.147787 0.519748
vt 0.149407 0.486387
vt 0.143013 0.596674
vt 0.144800 0.558374
vt 0.166592 0.626495
vt 0.144355 0.633650
vt 0.141995 0.663775
vt 0.140273 0.678865
vt 0.150607 0.714772
vt 0.145101 0.541069
vt 0.186982 0.775123
vt 0.178189 0.797664
vt 0.185627 0.828925
vt 0.278443 0.830528
vt 0.213211 0.851819
vt 0.170216 0.775895
vt 0.126842 0.827278
vt 0.117271 0.790653
vt 0.100761 0.758027
vt 0.138902 0.733019
vt 0.060295 0.236278
vt 0.148498 0.872108
vt 0.070399 0.825351
vt 0.078844 0.849445
vt 0.068960 0.845992
vt 0.065145 0.717750
vt 0.042613 0.718068
vt 0.065192 0.700690
vt 0.059474 0.780996
vt 0.078133 0.745794
vt 0.090787 0.758370
vt 0.049621 0.755152
vt 0.068522 0.730173
vt 0.056457 0.443604
vt 0.040746 0.416256
vt 0.055362 0.420078
vt 0.047974 0.391477
vt 0.026705 0.379504
vt 0.041317 0.355382
vt 0.029056 0.409534
vt 0.059044 0.538430
vt 0.046040 0.516636
vt 0.058135 0.525442
vt 0.059996 0.549917
vt 0.060029 0.580388
vt 0.023464 0.611538
vt 0.042787 0.623052
vt 0.054157 0.630451
vt 0.049350 0.663873
vt 0.062149 0.666955
vt 0.056691 0.650452
vt 0.049615 0.474616
vt 0.058645 0.493930
vt 0.022013 0.514668
vt 0.077294 0.984445
vt 0.175916 0.930952
vt 0.048370 0.937795
vt 0.071702 0.992798
vt 0.119468 0.987991
vt 1.048370 0.937795
vt 1.077294 0.984445
vt 0.965260 0.965486
vt 0.085215 0.877455
vt 0.040179 0.816199
vt 0.045098 0.847336
vt 0.052224 0.263122
vt 0.043238 0.246522
vt 0.044832 0.276930
vt 0.012593 0.258827
vt 0.997818 0.203945
vt 1.053700 0.193706
vt 1.043238 0.246522
vt 0.999857 0.293623
vt 1.012593 0.258827
vt 1.044832 0.276930
vt 0.968037 0.233799
vt 0.041344 0.780965
vt 0.022009 0.771545
vt 0.005526 0.820853
vt 1.022009 0.771545
vt 1.005526 0.820853
vt 0.955335 0.793259
vt 0.025155 0.328907
vt 0.041730 0.301391
vt 0.043672 0.329198
vt 0.002518 0.357686
vt 0.996858 0.390020
vt 1.026705 0.379504
vt 1.029056 0.409534
vt 0.027161 0.658004
vt 0.993132 0.649358
vt 1.023464 0.611538
vt 1.027161 0.658004
vt 0.024535 0.706184
vt 0.996654 0.681127
vt 0.002723 0.457213
vt 0.000090 0.426891
vt 1.000090 0.426891
vt 0.023449 0.478439
vt 0.023266 0.564137
vt 0.001805 0.529226
vt 1.001805 0.529226
vt 0.988683 0.500017
vt 1.022013 0.514668
vt 1.023449 0.478439
vt 0.000145 0.591094
vt 0.520181 0.832670
vt 0.497530 0.818003
vt 0.508191 0.800597
vt 0.562993 0.799195
vt 0.543035 0.784455
vt 0.552102 0.771992
vt 0.003037 0.989831
vt 0.880283 0.970909
vt 1.003037 0.989831
vt 1.372360 0.980812
vt 0.630377 0.932817
vt 0.831424 0.961212
vt 0.739943 0.910071
vt 0.583509 0.729072
vt 0.558074 0.747701
vt 0.565988 0.718933
vt 0.586529 0.749408
vt 0.571317 0.713080
vt 0.605824 0.789066
vt 0.584225 0.853814
vt 0.606677 0.846482
vt 0.605388 0.818731
vt 0.657191 0.843227
vt 0.646082 0.798905
vt 0.629258 0.887767
vt 0.697799 0.860007
vt 0.689210 0.850637
vt 0.712466 0.865578
vt 0.726659 0.865194
vt 0.757592 0.880147
vt 0.633614 0.727292
vt 0.602029 0.711721
vt 0.646573 0.753081
vt 0.647907 0.732536
vt 0.656000 0.698217
vt 0.627531 0.705729
vt 0.635921 0.686044
vt 0.661598 0.672609
vt 0.641304 0.664688
vt 0.640995 0.779391
vt 0.641090 0.791557
vt 0.662276 0.798144
vt 0.685331 0.817919
vt 0.677361 0.804845
vt 0.660348 0.638046
vt 0.647189 0.629080
vt 0.651367 0.612968
vt 0.662375 0.659278
vt 0.654129 0.610706
vt 0.656941 0.614393
vt 0.687015 0.622719
vt 0.672683 0.612785
vt 0.682911 0.609335
vt 0.674057 0.639585
vt 0.670801 0.624181
vt 0.686513 0.614581
vt 0.757811 0.665233
vt 0.736958 0.666212
vt 0.741582 0.644326
vt 0.742031 0.543929
vt 0.742903 0.509445
vt 0.758018 0.528078
vt 0.975544 0.133451
vt 0.958814 0.123115
vt 1.017214 0.121214
vt 0.947312 0.161784
vt 0.877911 0.161154
vt 0.910744 0.136601
vt 0.898299 0.205341
vt 0.938387 0.210746
vt 0.811793 0.943663
vt 1.006967 0.844519
vt 0.999392 0.850607
vt 1.000193 0.875707
vt 0.985785 0.879295
vt 1.002117 0.869640
vt 0.952581 0.868788
vt 0.998466 0.858903
vt 0.943861 0.856162
vt 0.933731 0.864648
vt 0.910313 0.810047
vt 0.983648 0.268308
vt 0.977296 0.307344
vt 0.945692 0.251325
vt 0.955241 0.309652
vt 1.025155 0.328907
vt 0.976218 0.343767
vt 0.953548 0.334778
vt 0.961445 0.380675
vt 0.948050 0.362712
vt 1.002518 0.357686
vt 0.975288 0.641091
vt 0.985238 0.618192
vt 0.954550 0.654878
vt 0.972042 0.600321
vt 0.975931 0.602422
vt 0.974531 0.393866
vt 0.975126 0.427111
vt 0.984557 0.484768
vt 1.002723 0.457213
vt 0.980886 0.478761
vt 0.977852 0.463821
vt 0.976627 0.477909
vt 0.973059 0.482681
vt 0.988929 0.538770
vt 0.989550 0.511334
vt 0.985953 0.558423
vt 1.000145 0.591094
vt 0.945559 0.576663
vt 0.968917 0.589713
vt 0.979547 0.598795
vt 0.847030 0.878833
vt 0.834963 0.898569
vt 0.814200 0.917560
vt 0.908315 0.868787
vt 0.895639 0.253570
vt 0.885640 0.230259
vt 0.853633 0.192637
vt 0.940850 0.777590
vt 0.888540 0.798384
vt 0.872895 0.865454
vt 0.931221 0.296325
vt 0.913473 0.322074
vt 0.959347 0.712345
vt 0.912825 0.700344
vt 0.918471 0.683871
vt 0.899264 0.751242
vt 0.880983 0.776982
vt 0.921347 0.525687
vt 0.944523 0.458770
vt 0.951572 0.530063
vt 0.928836 0.580708
vt 0.946016 0.614011
vt 0.925393 0.638630
vt 0.921216 0.662738
vt 0.920899 0.646178
vt 0.955405 0.699965
vt 0.967753 0.529451
vt 0.967770 0.552125
vt 0.969490 0.495988
vt 0.967292 0.574962
vt 0.758027 0.797049
vt 0.745567 0.814689
vt 0.744025 0.787651
vt 0.783280 0.824314
vt 0.772900 0.773846
vt 0.732319 0.761287
vt 0.837747 0.856097
vt 0.831801 0.774059
vt 0.869077 0.824452
vt 0.831225 0.804875
vt 0.799472 0.796797
vt 0.878357 0.263948
vt 0.885969 0.302228
vt 0.894384 0.285132
vt 0.836621 0.236109
vt 0.856720 0.298660
vt 0.823240 0.282804
vt 0.868050 0.704210
vt 0.880851 0.723401
vt 0.860617 0.731450
vt 0.825197 0.723260
vt 0.890894 0.729913
vt 0.843274 0.737294
vt 0.904385 0.281556
vt 0.931773 0.375104
vt 0.909367 0.343126
vt 0.881562 0.346049
vt 0.858270 0.338137
vt 0.883025 0.316286
vt 0.877112 0.370457
vt 0.897163 0.727073
vt 0.918310 0.731934
vt 0.929734 0.402565
vt 0.915914 0.399357
vt 0.911253 0.428344
vt 0.915257 0.409671
vt 0.928695 0.464602
vt 0.909264 0.479616
vt 0.908729 0.459092
vt 0.912455 0.561222
vt 0.909563 0.537349
vt 0.909036 0.504516
vt 0.912961 0.577731
vt 0.915241 0.611795
vt 0.762804 0.626857
vt 0.742455 0.611588
vt 0.762254 0.739208
vt 0.753190 0.711379
vt 0.770115 0.675213
vt 0.736939 0.693729
vt 0.810263 0.693554
vt 0.806679 0.718288
vt 0.736150 0.735819
vt 0.788618 0.632128
vt 0.809202 0.658091
vt 0.791539 0.763131
vt 0.874395 0.390772
vt 0.837837 0.349442
vt 0.837517 0.422461
vt 0.834568 0.384646
vt 0.853978 0.441770
vt 0.822632 0.457283
vt 0.847766 0.599067
vt 0.844613 0.576480
vt 0.855884 0.563014
vt 0.842157 0.564535
vt 0.843932 0.545658
vt 0.838498 0.569820
vt 0.828973 0.539596
vt 0.840218 0.564776
vt 0.833411 0.653102
vt 0.830618 0.619265
vt 0.841283 0.631484
vt 0.851724 0.612044
vt 0.863354 0.584947
vt 0.855224 0.616543
vt 0.838053 0.609525
vt 0.836713 0.686638
vt 0.850262 0.646972
vt 0.878047 0.396997
vt 0.873240 0.399711
vt 0.871978 0.406698
vt 0.871776 0.433123
vt 0.871322 0.462340
vt 0.868650 0.499932
vt 0.854414 0.476215
vt 0.866249 0.531282
vt 0.839011 0.493332
vt 0.858744 0.612596
vt 0.862281 0.598224
vt 0.744067 0.485145
vt 0.780109 0.499587
vt 0.782148 0.471756
vt 0.781863 0.560310
vt 0.796134 0.520400
vt 0.766902 0.581518
vt 0.741054 0.584897
vt 0.742083 0.564493
vt 0.804494 0.460272
vt 0.806927 0.435481
vt 0.802662 0.466843
vt 0.806869 0.482959
vt 0.795520 0.467123
vt 0.796069 0.560957
vt 0.813053 0.502324
vt 0.810042 0.610475
vt 0.786549 0.599835
vt 0.810995 0.573447
vt 0.784346 0.581501
vt 0.836349 0.590486
vt 0.322272 0.616300
vt 0.283821 0.657777
vt 0.279935 0.684565
vt 0.359416 0.749083
vt 0.378342 0.806282
vt 0.372017 0.829352
vt 0.367767 0.858623
vt 0.360356 0.870842
vt 1.045837 0.137767
vt 0.233283 0.467735
vt 0.227450 0.575962
vt 0.204244 0.467550
vt 0.192795 0.437132
vt 0.142772 0.573685
vt 0.130868 0.710774
vt 0.118212 0.738227
vt 0.085788 0.861170
vt 0.058052 0.458333
vt 0.061311 0.544185
vt 0.060038 0.906461
vt 0.021345 0.844045
vt 0.006967 0.844519
vt 1.041730 0.301391
vt 0.013704 0.736571
vt 0.993995 0.759157
vt 1.013705 0.736571
vt 1.024535 0.706184
vt 0.530101 0.792425
vt 0.583447 0.710698
vt 0.623533 0.709772
vt 0.613671 0.708902
vt 0.736992 0.776337
vt 0.734174 0.858290
vt 0.738453 0.835406
vt 0.676602 0.609009
vt 0.677354 0.643025
vt 0.682327 0.638960
vt 0.962235 0.758429
vt 0.984092 0.586098
vt 0.855557 0.871939
vt 0.912198 0.293503
vt 0.914542 0.309259
vt 0.910271 0.357751
vt 0.915807 0.622423
vt 0.818440 0.312970
vt 0.813882 0.346310
vt 0.810759 0.372341
vt 0.807496 0.414100
vt 0.863729 0.691503
vt 0.857894 0.669575
vt 0.866131 0.560498
vt 0.756145 0.470650
vt 0.747657 0.475653
s 1
f 95/1/95 4/2/4 5/3/5
f 8/4/8 6/5/6 7/6/7
f 8/4/8 7/6/7 9/7/9
f 9/7/9 7/6/7 10/8/10
f 7/6/7 12/9/12 10/8/10
f 11/10/11 10/8/10 13/11/13
f 13/11/13 14/12/14 15/13/15
f 18/14/18 19/15/19 25/16/25
f 22/17/22 20/18/20 17/19/17
f 17/19/17 20/18/20 21/20/21
f 27/21/27 28/22/28 29/23/29
f 14/12/14 32/24/32 33/25/33
f 14/12/14 33/25/33 15/13/15
f 33/25/33 32/24/32 34/26/34
f 31/27/31 37/28/37 36/29/36
f 36/29/36 37/28/37 38/30/38
f 44/31/44 42/32/42 43/33/43
f 46/34/46 47/35/47 44/31/44
f 48/36/48 44/31/44 45/37/45
f 53/38/53 50/39/50 45/37/45
f 51/40/51 50/39/50 52/41/52
f 55/42/55 51/40/51 52/41/52
f 60/43/60 40/44/40 59/45/59
f 59/45/59 58/46/58 61/47/61
f 61/47/61 58/46/58 71/48/71
f 46/34/46 62/49/62 63/50/63
f 44/31/44 47/35/47 64/51/64
f 66/52/66 50/39/50 65/53/65
f 55/42/55 52/41/52 66/52/66
f 55/42/55 66/52/66 67/54/67
f 70/55/70 67/54/67 69/56/69
f 74/57/74 61/47/61 73/58/73
f 73/58/73 71/48/71 77/59/77
f 75/60/75 73/58/73 77/59/77
f 76/61/76 74/57/74 75/60/75
f 71/48/71 72/62/72 77/59/77
f 80/63/80 79/64/79 81/65/81
f 81/65/81 82/66/82 80/63/80
f 83/67/83 84/68/84 85/69/85
f 87/70/87 88/71/88 86/72/86
f 87/70/87 89/73/89 88/71/88
f 83/67/83 87/70/87 86/72/86
f 92/74/92 1/75/1 2/76/2
f 95/1/95 92/74/92 3/77/3
f 96/78/96 95/1/95 97/79/97
f 3/77/3 4/2/4 95/1/95
f 95/1/95 100/80/100 98/81/98
f 100/80/100 95/1/95 5/3/5
f 104/82/104 105/83/105 102/84/102
f 101/85/101 106/86/106 102/84/102
f 108/87/108 94/88/94 109/89/109
f 111/90/111 109/89/109 112/91/112
f 107/92/107 111/90/111 112/91/112
f 97/79/97 99/93/99 104/82/104
f 115/94/115 97/79/97 104/82/104
f 115/94/115 102/84/102 116/95/116
f 116/95/116 102/84/102 121/96/121
f 114/97/114 107/92/107 118/98/118
f 112/91/112 109/89/109 96/78/96
f 119/99/119 112/91/112 96/78/96
f 120/100/120 119/99/119 115/94/115
f 106/86/106 18/14/18 25/16/25
f 121/96/121 23/101/23 122/102/122
f 124/103/124 121/96/121 122/102/122
f 122/102/122 27/21/27 123/104/123
f 27/21/27 30/105/30 125/106/125
f 127/107/127 123/104/123 125/106/125
f 128/108/128 125/106/125 31/27/31
f 124/103/124 123/104/123 126/109/126
f 129/110/129 130/111/130 117/112/117
f 129/110/129 124/103/124 126/109/126
f 132/113/132 119/99/119 133/114/133
f 133/114/133 119/99/119 135/115/135
f 136/116/136 135/115/135 119/99/119
f 135/115/135 134/117/134 133/114/133
f 137/118/137 120/100/120 116/95/116
f 120/100/120 138/119/138 119/99/119
f 137/118/137 138/119/138 120/100/120
f 140/120/140 116/95/116 117/112/117
f 141/121/141 140/120/140 130/111/130
f 142/122/142 141/121/141 130/111/130
f 143/123/143 130/111/130 129/110/129
f 143/123/143 129/110/129 131/124/131
f 144/125/144 119/99/119 138/119/138
f 145/126/145 36/29/36 146/127/146
f 146/127/146 36/29/36 147/128/147
f 36/29/36 39/129/39 41/130/41
f 131/124/131 127/107/127 145/126/145
f 131/124/131 145/126/145 148/131/148
f 145/126/145 146/127/146 148/131/148
f 156/132/156 153/133/153 146/127/146
f 152/134/152 149/135/149 148/131/148
f 148/131/148 146/127/146 153/133/153
f 158/136/158 83/67/83 85/69/85
f 156/132/156 154/137/154 159/138/159
f 159/138/159 154/137/154 160/139/160
f 161/140/161 159/138/159 160/139/160
f 164/141/164 166/142/166 163/143/163
f 170/144/170 168/145/168 167/146/167
f 169/147/169 168/145/168 170/144/170
f 168/145/168 166/142/166 165/148/165
f 180/149/180 176/150/176 174/151/174
f 176/150/176 175/152/175 174/151/174
f 175/152/175 173/153/173 172/154/172
f 177/155/177 175/152/175 176/150/176
f 184/156/184 185/157/185 183/158/183
f 186/159/186 185/157/185 184/156/184
f 186/159/186 187/160/187 185/157/185
f 188/161/188 187/160/187 193/162/193
f 190/163/190 193/162/193 187/160/187
f 192/164/192 193/162/193 190/163/190
f 189/165/189 192/164/192 191/166/191
f 183/158/183 181/167/181 179/168/179
f 228/169/228 181/167/181 185/157/185
f 76/61/76 77/59/77 196/170/196
f 155/171/155 76/61/76 196/170/196
f 194/172/194 155/171/155 196/170/196
f 77/59/77 78/173/78 195/174/195
f 194/175/194 196/176/196 197/177/197
f 154/137/154 155/171/155 194/172/194
f 154/137/154 194/172/194 198/178/198
f 159/138/159 202/179/202 170/144/170
f 159/138/159 201/180/201 202/179/202
f 162/181/162 209/182/209 158/136/158
f 207/183/207 211/184/211 209/182/209
f 91/185/91 83/186/83 209/187/209
f 210/188/210 211/189/211 207/190/207
f 211/189/211 332/191/332 91/185/91
f 170/144/170 202/179/202 213/192/213
f 213/192/213 214/193/214 169/147/169
f 213/192/213 204/194/204 214/193/214
f 214/195/214 204/196/204 216/197/216
f 219/198/219 208/199/208 171/200/171
f 173/153/173 218/201/218 172/154/172
f 220/202/220 173/203/173 177/204/177
f 192/164/192 221/205/221 193/162/193
f 222/206/222 188/207/188 221/208/221
f 166/142/166 224/209/224 192/164/192
f 224/209/224 221/205/221 192/164/192
f 225/210/225 222/206/222 221/208/221
f 226/211/226 347/212/347 177/155/177
f 347/213/347 220/202/220 177/204/177
f 181/167/181 227/214/227 176/150/176
f 226/211/226 177/155/177 176/150/176
f 227/214/227 226/211/226 176/150/176
f 228/169/228 227/214/227 181/167/181
f 229/215/229 230/216/230 228/169/228
f 230/217/230 231/218/231 228/219/228
f 231/218/231 227/220/227 228/219/228
f 232/221/232 229/215/229 188/161/188
f 235/222/235 68/223/68 234/224/234
f 250/225/250 237/226/237 233/227/233
f 69/56/69 67/54/67 235/222/235
f 78/173/78 77/59/77 239/228/239
f 240/229/240 239/230/239 77/231/77
f 77/59/77 72/62/72 242/232/242
f 241/233/241 77/59/77 242/232/242
f 241/233/241 242/232/242 258/234/258
f 247/235/247 243/236/243 244/237/244
f 245/238/245 243/236/243 247/235/247
f 247/235/247 244/237/244 246/239/246
f 250/225/250 233/227/233 243/236/243
f 254/240/254 250/225/250 245/238/245
f 238/241/238 250/225/250 252/242/252
f 250/225/250 254/240/254 253/243/253
f 252/242/252 253/243/253 257/244/257
f 253/243/253 254/240/254 255/245/255
f 238/241/238 252/242/252 256/246/256
f 256/246/256 252/242/252 257/244/257
f 260/247/260 257/244/257 263/248/263
f 256/246/256 257/244/257 260/247/260
f 256/246/256 260/247/260 261/249/261
f 262/250/262 256/246/256 261/249/261
f 259/251/259 256/246/256 262/250/262
f 251/252/251 247/235/247 249/253/249
f 273/254/273 251/252/251 271/255/271
f 272/256/272 269/257/269 270/258/270
f 271/255/271 251/252/251 272/256/272
f 267/259/267 270/258/270 266/260/266
f 267/259/267 272/256/272 270/258/270
f 245/238/245 251/252/251 273/254/273
f 254/240/254 245/238/245 273/254/273
f 274/261/274 254/240/254 273/254/273
f 275/262/275 254/240/254 274/261/274
f 255/245/255 254/240/254 275/262/275
f 253/243/253 277/263/277 276/264/276
f 276/264/276 277/263/277 278/265/278
f 289/266/289 287/267/287 283/268/283
f 288/269/288 287/267/287 289/266/289
f 283/268/283 284/270/284 290/271/290
f 294/272/294 285/273/285 293/274/293
f 294/272/294 292/275/292 291/276/291
f 294/272/294 293/274/293 297/277/297
f 302/278/302 300/279/300 301/280/301
f 311/281/311 312/282/312 313/283/313
f 90/284/90 315/285/315 89/286/89
f 317/287/317 90/284/90 91/185/91
f 320/288/320 316/289/316 90/284/90
f 317/287/317 320/288/320 90/284/90
f 322/290/322 317/287/317 318/291/318
f 239/230/239 240/229/240 197/177/197
f 323/292/323 241/233/241 258/234/258
f 204/196/204 206/293/206 329/294/329
f 200/295/200 325/296/325 205/297/205
f 331/298/331 205/297/205 325/296/325
f 328/299/328 331/298/331 330/300/330
f 330/300/330 331/298/331 326/301/326
f 204/196/204 371/302/371 216/197/216
f 371/302/371 204/196/204 330/300/330
f 210/188/210 212/303/212 211/189/211
f 333/304/333 212/303/212 210/188/210
f 319/305/319 91/185/91 332/191/332
f 319/305/319 332/191/332 212/303/212
f 333/304/333 334/306/334 212/303/212
f 219/307/219 333/304/333 210/188/210
f 338/308/338 382/309/382 333/304/333
f 339/310/339 383/311/383 338/308/338
f 220/202/220 339/310/339 218/312/218
f 222/206/222 345/313/345 223/314/223
f 344/315/344 345/313/345 222/206/222
f 223/314/223 341/316/341 343/317/343
f 347/213/347 340/318/340 220/202/220
f 348/319/348 340/318/340 347/213/347
f 227/220/227 349/320/349 226/321/226
f 226/321/226 348/319/348 347/213/347
f 350/322/350 352/323/352 349/320/349
f 351/324/351 352/323/352 350/322/350
f 353/325/353 352/323/352 351/324/351
f 355/326/355 356/327/356 230/217/230
f 231/218/231 349/320/349 227/220/227
f 360/328/360 230/217/230 232/329/232
f 230/217/230 360/328/360 355/326/355
f 341/316/341 342/330/342 363/331/363
f 223/314/223 361/332/361 232/329/232
f 398/333/398 364/334/364 324/335/324
f 398/333/398 258/234/258 259/251/259
f 330/300/330 326/301/326 327/336/327
f 319/305/319 370/337/370 318/291/318
f 370/337/370 369/338/369 318/291/318
f 322/290/322 369/338/369 321/339/321
f 337/340/337 371/302/371 372/341/372
f 371/302/371 330/300/330 365/342/365
f 373/343/373 370/337/370 319/305/319
f 382/309/382 377/344/377 334/306/334
f 377/344/377 373/343/373 334/306/334
f 335/345/335 380/346/380 379/347/379
f 381/348/381 337/340/337 411/349/411
f 424/350/424 385/351/385 393/352/393
f 389/353/389 342/330/342 388/354/388
f 389/353/389 424/350/424 393/352/393
f 389/353/389 393/352/393 342/330/342
f 388/354/388 341/316/341 345/313/345
f 390/355/390 345/313/345 344/315/344
f 388/354/388 342/330/342 341/316/341
f 388/354/388 345/313/345 390/355/390
f 390/355/390 392/356/392 429/357/429
f 344/315/344 222/206/222 346/358/346
f 379/347/379 390/355/390 346/358/346
f 390/355/390 344/315/344 346/358/346
f 392/356/392 390/355/390 379/347/379
f 385/351/385 340/318/340 348/319/348
f 393/352/393 357/359/357 358/360/358
f 357/359/357 393/352/393 354/361/354
f 393/352/393 385/351/385 353/325/353
f 342/330/342 362/362/362 363/331/363
f 342/330/342 393/352/393 358/360/358
f 396/363/396 279/364/279 280/365/280
f 395/366/395 396/363/396 433/367/433
f 396/363/396 307/368/307 433/367/433
f 367/369/367 398/333/398 395/366/395
f 398/333/398 279/364/279 395/366/395
f 401/370/401 368/371/368 394/372/394
f 411/349/411 368/371/368 401/370/401
f 397/373/397 394/372/394 395/366/395
f 401/370/401 394/372/394 397/373/397
f 368/371/368 367/369/367 394/372/394
f 394/372/394 367/369/367 395/366/395
f 405/374/405 369/338/369 370/337/370
f 404/375/404 370/337/370 403/376/403
f 405/374/405 399/377/399 369/338/369
f 404/375/404 406/378/406 405/374/405
f 400/379/400 399/377/399 405/374/405
f 406/378/406 400/379/400 405/374/405
f 410/380/410 409/381/409 413/382/413
f 413/382/413 444/383/444 410/380/410
f 413/382/413 412/384/412 381/348/381
f 413/382/413 401/370/401 402/385/402
f 402/385/402 444/383/444 413/382/413
f 403/376/403 370/337/370 375/386/375
f 384/387/384 414/388/414 382/309/382
f 416/389/416 408/390/408 407/391/407
f 416/389/416 445/392/445 408/390/408
f 418/393/418 378/394/378 381/348/381
f 418/393/418 381/348/381 412/384/412
f 412/384/412 413/382/413 409/381/409
f 387/395/387 419/396/419 384/387/384
f 386/397/386 420/398/420 387/395/387
f 421/399/421 423/400/423 422/401/422
f 425/402/425 427/403/427 424/350/424
f 426/404/426 423/400/423 421/399/421
f 427/403/427 426/404/426 424/350/424
f 389/353/389 428/405/428 425/402/425
f 425/402/425 424/350/424 389/353/389
f 429/357/429 391/406/391 390/355/390
f 431/407/431 301/280/301 299/408/299
f 431/407/431 302/278/302 301/280/301
f 308/409/308 304/410/304 306/411/306
f 306/411/306 304/410/304 305/412/305
f 442/413/442 432/414/432 306/411/306
f 308/409/308 433/367/433 303/415/303
f 306/411/306 482/416/482 441/417/441
f 444/383/444 432/414/432 442/413/442
f 442/413/442 306/411/306 441/417/441
f 432/414/432 434/418/434 308/409/308
f 445/392/445 417/419/417 446/420/446
f 417/419/417 448/421/448 439/422/439
f 447/423/447 485/424/485 448/421/448
f 451/425/451 452/426/452 474/427/474
f 454/428/454 449/429/449 452/426/452
f 497/430/497 491/431/491 449/429/449
f 497/430/497 449/429/449 453/432/453
f 443/433/443 440/434/440 458/435/458
f 459/436/459 471/437/471 457/438/457
f 443/433/443 441/417/441 440/434/440
f 458/435/458 440/434/440 460/439/460
f 444/383/444 442/413/442 463/440/463
f 463/440/463 442/413/442 443/433/443
f 463/440/463 443/433/443 456/441/456
f 464/442/464 465/443/465 417/419/417
f 465/443/465 448/421/448 417/419/417
f 467/444/467 447/423/447 448/421/448
f 466/445/466 468/446/468 447/423/447
f 469/447/469 496/448/496 468/446/468
f 469/447/469 470/449/470 450/450/450
f 470/449/470 449/429/449 491/431/491
f 449/429/449 470/449/470 474/427/474
f 475/451/475 471/437/471 472/452/472
f 313/283/313 312/282/312 310/453/310
f 313/283/313 310/453/310 478/454/478
f 477/455/477 478/454/478 310/453/310
f 479/456/479 313/283/313 492/457/492
f 480/458/480 298/459/298 314/460/314
f 313/283/313 314/460/314 311/281/311
f 313/283/313 480/458/480 314/460/314
f 479/456/479 480/458/480 313/283/313
f 480/458/480 431/407/431 299/408/299
f 485/424/485 487/461/487 484/462/484
f 485/424/485 486/463/486 487/461/487
f 489/464/489 477/455/477 488/465/488
f 489/464/489 478/454/478 477/455/477
f 491/431/491 493/466/493 492/457/492
f 490/467/490 492/457/492 478/454/478
f 495/468/495 483/469/483 494/470/494
f 483/469/483 480/458/480 481/471/481
f 483/469/483 481/471/481 494/470/494
f 482/416/482 483/469/483 495/468/495
f 441/417/441 482/416/482 495/468/495
f 448/421/448 485/424/485 439/422/439
f 496/448/496 450/450/450 489/464/489
f 491/431/491 492/457/492 490/467/490
f 455/472/455 494/470/494 497/430/497
f 92/74/92 2/76/2 3/77/3
f 9/7/9 16/473/16 8/4/8
f 10/8/10 14/12/14 13/11/13
f 14/12/14 10/8/10 12/9/12
f 25/16/25 19/15/19 17/19/17
f 25/16/25 21/20/21 24/474/24
f 25/16/25 17/19/17 21/20/21
f 23/101/23 25/16/25 24/474/24
f 23/101/23 24/474/24 26/475/26
f 28/22/28 23/101/23 26/475/26
f 27/21/27 23/101/23 28/22/28
f 27/21/27 29/23/29 30/105/30
f 31/27/31 125/106/125 30/105/30
f 42/32/42 33/25/33 34/26/34
f 33/25/33 42/32/42 44/31/44
f 35/476/35 33/25/33 44/31/44
f 35/476/35 44/31/44 48/36/48
f 39/129/39 36/29/36 38/30/38
f 44/31/44 43/33/43 46/34/46
f 47/35/47 46/34/46 63/50/63
f 45/37/45 44/31/44 64/51/64
f 49/477/49 48/36/48 50/39/50
f 50/39/50 48/36/48 45/37/45
f 51/40/51 49/477/49 50/39/50
f 55/42/55 54/478/54 51/40/51
f 55/42/55 56/479/56 54/478/54
f 57/480/57 56/479/56 55/42/55
f 71/48/71 57/480/57 55/42/55
f 71/48/71 58/46/58 57/480/57
f 41/130/41 40/44/40 60/43/60
f 60/43/60 59/45/59 61/47/61
f 50/39/50 53/38/53 65/53/65
f 52/41/52 50/39/50 66/52/66
f 67/54/67 66/52/66 68/223/68
f 70/55/70 55/42/55 67/54/67
f 71/48/71 55/42/55 70/55/70
f 72/62/72 71/48/71 70/55/70
f 73/58/73 61/47/61 71/48/71
f 76/61/76 61/47/61 74/57/74
f 76/61/76 75/60/75 77/59/77
f 81/65/81 84/68/84 82/66/82
f 84/68/84 83/67/83 82/66/82
f 83/67/83 86/72/86 82/66/82
f 87/481/87 90/284/90 89/286/89
f 83/186/83 91/185/91 87/481/87
f 91/185/91 90/284/90 87/481/87
f 92/74/92 94/88/94 93/482/93
f 95/1/95 96/78/96 92/74/92
f 99/93/99 97/79/97 95/1/95
f 99/93/99 95/1/95 98/81/98
f 100/80/100 5/3/5 101/85/101
f 102/84/102 103/483/103 101/85/101
f 102/84/102 105/83/105 103/483/103
f 18/14/18 101/85/101 5/3/5
f 101/85/101 18/14/18 106/86/106
f 102/84/102 106/86/106 121/96/121
f 110/484/110 108/87/108 109/89/109
f 109/89/109 111/90/111 110/484/110
f 107/92/107 113/485/113 111/90/111
f 96/78/96 94/88/94 92/74/92
f 109/89/109 94/88/94 96/78/96
f 115/94/115 96/78/96 97/79/97
f 102/84/102 115/94/115 104/82/104
f 112/91/112 118/98/118 107/92/107
f 119/99/119 96/78/96 115/94/115
f 120/100/120 115/94/115 116/95/116
f 106/86/106 25/16/25 23/101/23
f 121/96/121 106/86/106 23/101/23
f 122/102/122 23/101/23 27/21/27
f 124/103/124 122/102/122 123/104/123
f 125/106/125 123/104/123 27/21/27
f 128/108/128 127/107/127 125/106/125
f 116/95/116 121/96/121 117/112/117
f 129/110/129 117/112/117 121/96/121
f 129/110/129 121/96/121 124/103/124
f 126/109/126 123/104/123 127/107/127
f 127/107/127 131/124/131 126/109/126
f 131/124/131 129/110/129 126/109/126
f 145/126/145 127/107/127 128/108/128
f 132/113/132 118/98/118 112/91/112
f 119/99/119 132/113/132 112/91/112
f 137/118/137 139/486/139 138/119/138
f 140/120/140 137/118/137 116/95/116
f 130/111/130 140/120/140 117/112/117
f 141/121/141 137/118/137 140/120/140
f 130/111/130 143/123/143 142/122/142
f 144/125/144 136/116/136 119/99/119
f 128/108/128 31/27/31 36/29/36
f 145/126/145 128/108/128 36/29/36
f 41/130/41 147/128/147 36/29/36
f 40/44/40 41/130/41 39/129/39
f 147/128/147 156/132/156 146/127/146
f 131/124/131 150/487/150 143/123/143
f 149/135/149 150/487/150 131/124/131
f 148/131/148 149/135/149 131/124/131
f 151/488/151 150/487/150 149/135/149
f 152/134/152 151/488/151 149/135/149
f 153/133/153 152/134/152 148/131/148
f 154/137/154 147/128/147 41/130/41
f 154/137/154 41/130/41 155/171/155
f 155/171/155 41/130/41 60/43/60
f 156/132/156 147/128/147 154/137/154
f 152/134/152 153/133/153 170/144/170
f 153/133/153 159/138/159 170/144/170
f 153/133/153 156/132/156 159/138/159
f 157/489/157 160/139/160 154/137/154
f 164/141/164 165/148/165 166/142/166
f 163/143/163 166/142/166 192/164/192
f 167/146/167 152/134/152 170/144/170
f 168/145/168 169/147/169 166/142/166
f 181/167/181 180/149/180 178/490/178
f 179/168/179 181/167/181 178/490/178
f 181/167/181 176/150/176 180/149/180
f 186/159/186 184/156/184 182/491/182
f 191/166/191 192/164/192 190/163/190
f 163/143/163 192/164/192 189/165/189
f 183/158/183 185/157/185 181/167/181
f 187/160/187 229/215/229 185/157/185
f 76/61/76 60/43/60 61/47/61
f 155/171/155 60/43/60 76/61/76
f 195/174/195 196/170/196 77/59/77
f 198/178/198 157/489/157 154/137/154
f 199/492/199 198/178/198 194/172/194
f 159/138/159 161/140/161 201/180/201
f 202/179/202 201/180/201 203/493/203
f 204/194/204 202/179/202 203/493/203
f 203/493/203 206/494/206 204/194/204
f 162/181/162 207/183/207 209/182/209
f 158/136/158 209/182/209 83/67/83
f 208/495/208 210/188/210 207/190/207
f 209/187/209 211/189/211 91/185/91
f 169/147/169 170/144/170 213/192/213
f 215/496/215 166/142/166 169/147/169
f 166/142/166 215/496/215 224/209/224
f 169/147/169 214/193/214 215/496/215
f 213/192/213 202/179/202 204/194/204
f 217/497/217 215/498/215 214/195/214
f 172/154/172 219/198/219 171/200/171
f 208/495/208 219/307/219 210/188/210
f 172/154/172 218/201/218 219/198/219
f 177/155/177 173/153/173 175/152/175
f 173/203/173 220/202/220 218/312/218
f 193/162/193 221/205/221 188/161/188
f 222/206/222 223/314/223 188/207/188
f 188/207/188 223/314/223 232/329/232
f 221/208/221 224/499/224 225/210/225
f 187/160/187 188/161/188 229/215/229
f 229/215/229 228/169/228 185/157/185
f 229/215/229 232/221/232 230/216/230
f 67/54/67 68/223/68 235/222/235
f 235/222/235 234/224/234 236/500/236
f 250/225/250 236/500/236 237/226/237
f 235/222/235 236/500/236 250/225/250
f 238/241/238 235/222/235 250/225/250
f 238/241/238 69/56/69 235/222/235
f 72/62/72 70/55/70 69/56/69
f 72/62/72 69/56/69 238/241/238
f 256/246/256 72/62/72 238/241/238
f 241/233/241 240/229/240 77/231/77
f 242/232/242 72/62/72 256/246/256
f 247/235/247 246/239/246 248/501/248
f 249/253/249 247/235/247 248/501/248
f 245/238/245 250/225/250 243/236/243
f 251/252/251 245/238/245 247/235/247
f 252/242/252 250/225/250 253/243/253
f 258/234/258 242/232/242 256/246/256
f 259/251/259 258/234/258 256/246/256
f 268/502/268 251/252/251 249/253/249
f 268/502/268 249/253/249 265/503/265
f 251/252/251 268/502/268 269/257/269
f 272/256/272 251/252/251 269/257/269
f 276/264/276 257/244/257 253/243/253
f 277/263/277 253/243/253 255/245/255
f 307/368/307 280/365/280 281/504/281
f 263/248/263 257/244/257 276/264/276
f 259/251/259 262/250/262 264/505/264
f 259/251/259 264/505/264 282/506/282
f 287/267/287 288/269/288 266/260/266
f 288/269/288 267/259/267 266/260/266
f 290/271/290 289/266/289 283/268/283
f 293/274/293 285/273/285 286/507/286
f 294/272/294 291/276/291 285/273/285
f 294/272/294 295/508/295 292/275/292
f 296/509/296 295/508/295 294/272/294
f 305/412/305 304/410/304 303/415/303
f 302/278/302 305/412/305 300/279/300
f 303/415/303 433/367/433 307/368/307
f 90/284/90 316/289/316 315/285/315
f 91/185/91 318/291/318 317/287/317
f 319/305/319 318/291/318 91/185/91
f 322/290/322 320/288/320 317/287/317
f 322/290/322 321/339/321 320/288/320
f 197/177/197 196/176/196 239/230/239
f 331/298/331 328/299/328 205/297/205
f 330/300/330 329/294/329 328/299/328
f 204/196/204 329/294/329 330/300/330
f 212/303/212 332/191/332 211/189/211
f 212/303/212 334/306/334 319/305/319
f 214/195/214 216/197/216 217/497/217
f 335/345/335 215/498/215 217/497/217
f 336/510/336 335/345/335 217/497/217
f 336/510/336 217/497/217 216/197/216
f 337/340/337 336/510/336 216/197/216
f 218/312/218 338/308/338 219/307/219
f 219/307/219 338/308/338 333/304/333
f 218/312/218 339/310/339 338/308/338
f 333/304/333 382/309/382 334/306/334
f 338/308/338 383/311/383 382/309/382
f 220/202/220 340/318/340 339/310/339
f 223/314/223 345/313/345 341/316/341
f 215/498/215 335/345/335 224/499/224
f 346/358/346 225/210/225 224/499/224
f 224/499/224 335/345/335 346/358/346
f 346/358/346 222/206/222 225/210/225
f 226/321/226 349/320/349 352/323/352
f 226/321/226 352/323/352 348/319/348
f 230/217/230 356/327/356 231/218/231
f 359/511/359 360/328/360 232/329/232
f 232/329/232 361/332/361 359/511/359
f 343/317/343 361/332/361 223/314/223
f 324/335/324 323/292/323 258/234/258
f 398/333/398 324/335/324 258/234/258
f 365/342/365 330/300/330 327/336/327
f 367/369/367 366/512/366 398/333/398
f 365/342/365 366/512/366 367/369/367
f 368/371/368 365/342/365 367/369/367
f 369/338/369 322/290/322 318/291/318
f 371/302/371 337/340/337 216/197/216
f 411/349/411 337/340/337 372/341/372
f 372/341/372 371/302/371 365/342/365
f 368/371/368 372/341/372 365/342/365
f 319/305/319 334/306/334 373/343/373
f 370/337/370 374/513/374 375/386/375
f 373/343/373 374/513/374 370/337/370
f 376/514/376 374/513/374 373/343/373
f 377/344/377 376/514/376 373/343/373
f 382/309/382 414/388/414 377/344/377
f 335/345/335 379/347/379 346/358/346
f 378/394/378 380/346/380 335/345/335
f 335/345/335 336/510/336 378/394/378
f 381/348/381 336/510/336 337/340/337
f 381/348/381 378/394/378 336/510/336
f 383/311/383 384/387/384 382/309/382
f 340/318/340 387/395/387 339/310/339
f 339/310/339 384/387/384 383/311/383
f 339/310/339 387/395/387 384/387/384
f 340/318/340 386/397/386 387/395/387
f 385/351/385 386/397/386 340/318/340
f 424/350/424 421/399/421 385/351/385
f 390/355/390 391/406/391 388/354/388
f 391/406/391 389/353/389 388/354/388
f 348/319/348 352/323/352 385/351/385
f 353/325/353 385/351/385 352/323/352
f 393/352/393 353/325/353 354/361/354
f 342/330/342 358/360/358 362/362/362
f 395/366/395 279/364/279 396/363/396
f 397/373/397 395/366/395 433/367/433
f 434/418/434 397/373/397 433/367/433
f 396/363/396 280/365/280 307/368/307
f 398/333/398 259/251/259 282/506/282
f 398/333/398 282/506/282 279/364/279
f 397/373/397 434/418/434 401/370/401
f 402/385/402 401/370/401 444/383/444
f 369/338/369 399/377/399 321/339/321
f 370/337/370 404/375/404 405/374/405
f 407/391/407 406/378/406 404/375/404
f 407/391/407 408/390/408 406/378/406
f 411/349/411 372/341/372 368/371/368
f 411/349/411 413/382/413 381/348/381
f 411/349/411 401/370/401 413/382/413
f 384/387/384 415/515/415 414/388/414
f 378/394/378 418/393/418 380/346/380
f 384/387/384 419/396/419 415/515/415
f 387/395/387 420/398/420 419/396/419
f 385/351/385 421/399/421 386/397/386
f 386/397/386 421/399/421 422/401/422
f 424/350/424 426/404/426 421/399/421
f 389/353/389 391/406/391 428/405/428
f 429/357/429 430/516/430 391/406/391
f 431/407/431 482/416/482 302/278/302
f 304/410/304 308/409/308 303/415/303
f 432/414/432 308/409/308 306/411/306
f 302/278/302 306/411/306 305/412/305
f 482/416/482 306/411/306 302/278/302
f 434/418/434 433/367/433 308/409/308
f 443/433/443 442/413/442 441/417/441
f 444/383/444 401/370/401 434/418/434
f 432/414/432 444/383/444 434/418/434
f 406/378/406 435/517/435 400/379/400
f 406/378/406 408/390/408 435/517/435
f 408/390/408 446/420/446 435/517/435
f 408/390/408 445/392/445 446/420/446
f 435/517/435 446/420/446 436/518/436
f 446/420/446 439/422/439 436/518/436
f 446/420/446 417/419/417 439/422/439
f 436/518/436 439/422/439 437/519/437
f 437/519/437 439/422/439 438/520/438
f 447/423/447 496/448/496 485/424/485
f 474/427/474 452/426/452 449/429/449
f 454/428/454 453/432/453 449/429/449
f 458/435/458 456/441/456 443/433/443
f 471/437/471 459/436/459 451/425/451
f 440/434/440 441/417/441 495/468/495
f 460/439/460 440/434/440 455/472/455
f 455/472/455 440/434/440 495/468/495
f 463/440/463 410/380/410 444/383/444
f 461/521/461 410/380/410 463/440/463
f 462/522/462 461/521/461 463/440/463
f 462/522/462 463/440/463 456/441/456
f 465/443/465 467/444/467 448/421/448
f 466/445/466 447/423/447 467/444/467
f 447/423/447 468/446/468 496/448/496
f 469/447/469 450/450/450 496/448/496
f 450/450/450 470/449/470 491/431/491
f 473/523/473 471/437/471 474/427/474
f 471/437/471 451/425/451 474/427/474
f 474/427/474 470/449/470 473/523/473
f 475/451/475 457/438/457 471/437/471
f 476/524/476 310/453/310 309/525/309
f 477/455/477 310/453/310 476/524/476
f 492/457/492 313/283/313 478/454/478
f 480/458/480 299/408/299 298/459/298
f 479/456/479 481/471/481 480/458/480
f 480/458/480 483/469/483 431/407/431
f 483/469/483 482/416/482 431/407/431
f 439/422/439 484/462/484 438/520/438
f 439/422/439 485/424/485 484/462/484
f 485/424/485 489/464/489 486/463/486
f 489/464/489 488/465/488 486/463/486
f 493/466/493 479/456/479 492/457/492
f 489/464/489 490/467/490 478/454/478
f 494/470/494 481/471/481 493/466/493
f 491/431/491 494/470/494 493/466/493
f 493/466/493 481/471/481 479/456/479
f 485/424/485 496/448/496 489/464/489
f 450/450/450 490/467/490 489/464/489
f 450/450/450 491/431/491 490/467/490
f 455/472/455 495/468/495 494/470/494
f 497/430/497 494/470/494 491/431/491
