# Blender 5.2.1 LTS
# www.blender.org
o ZombieHead3Jaw
v -0.306064 -0.512442 -0.011758
v -0.262643 -0.475828 0.203552
v -0.261925 -0.507335 0.183556
v -0.272357 -0.453397 0.199007
v -0.260274 -0.427728 0.233398
v -0.252586 -0.451135 0.214065
v -0.242673 -0.476778 0.208109
v -0.231557 -0.447817 0.209112
v -0.236971 -0.507730 0.184732
v -0.216668 -0.476699 0.190873
v -0.210245 -0.436068 0.172723
v -0.264334 -0.385221 0.223141
v -0.278337 -0.416339 0.205600
v -0.252258 -0.367801 0.247322
v -0.253024 -0.330129 0.257101
v -0.251599 -0.390981 0.237769
v -0.262726 -0.355518 0.235198
v -0.235330 -0.351797 0.249438
v -0.240130 -0.420068 0.235604
v -0.239978 -0.381675 0.232077
v -0.213910 -0.418075 0.209701
v -0.217227 -0.382209 0.196116
v -0.213840 -0.369520 0.209166
v -0.188513 -0.359928 0.239064
v -0.220530 -0.612735 0.087194
v -0.214946 -0.618184 0.117164
v -0.205854 -0.615469 0.150052
v -0.287202 -0.533063 0.143526
v -0.280431 -0.566571 0.121101
v -0.292528 -0.532381 0.098484
v -0.265317 -0.546413 0.174858
v -0.267526 -0.576141 0.132320
v -0.265577 -0.585613 0.084678
v -0.240432 -0.589781 0.137903
v -0.229952 -0.576869 0.161170
v -0.219703 -0.547719 0.180735
v -0.212012 -0.524308 0.177552
v -0.201460 -0.512730 0.167343
v -0.282273 -0.435481 0.164956
v -0.290449 -0.470221 0.137494
v -0.290151 -0.491511 0.070857
v -0.278827 -0.504558 0.165517
v -0.213099 -0.496044 0.168130
v -0.201217 -0.488605 0.147819
v -0.201145 -0.473953 0.129466
v -0.198871 -0.448282 0.113562
v -0.202805 -0.471105 0.091265
v -0.280550 -0.397110 0.149492
v -0.273388 -0.419916 0.099278
v -0.269079 -0.347579 0.140406
v -0.270910 -0.378194 0.103807
v -0.210677 -0.400572 0.135939
v -0.245134 -0.607873 0.064234
v -0.264329 -0.597427 0.000914
v -0.226248 -0.600093 -0.001505
v -0.222166 -0.612682 0.049754
v -0.203676 -0.596664 0.014999
v -0.189982 -0.604801 0.036828
v -0.298660 -0.552154 0.013459
v -0.286536 -0.531999 0.049923
v -0.286092 -0.579011 0.020651
v -0.267059 -0.584564 0.050466
v -0.248178 -0.600531 0.031856
v -0.283584 -0.468944 0.000034
v -0.288305 -0.501146 0.040342
v -0.273071 -0.426251 0.011712
v -0.261936 -0.451222 0.053852
v -0.266241 -0.471113 0.035577
v -0.256390 -0.463882 0.023878
v -0.266019 -0.449344 0.010895
v -0.227394 -0.463949 0.032880
v -0.238157 -0.458257 -0.005595
v -0.239708 -0.445824 -0.006144
v -0.214720 -0.453318 0.039264
v -0.213129 -0.446282 -0.007722
v -0.225388 -0.424251 0.029553
v -0.226485 -0.466058 -0.006625
v -0.210908 -0.460345 -0.002432
v -0.286684 -0.403827 -0.000107
v -0.295908 -0.374298 0.006459
v -0.260942 -0.408514 0.084810
v -0.266378 -0.399252 0.010977
v -0.239778 -0.417194 0.012053
v -0.227259 -0.391185 0.076161
v -0.227982 -0.428669 0.046666
v -0.098188 -0.618936 0.284498
v -0.125199 -0.556561 0.276097
v -0.088998 -0.534497 0.275406
v -0.171652 -0.354191 0.304494
v -0.157762 -0.372399 0.296306
v -0.135234 -0.394695 0.251645
v -0.118447 -0.386819 0.312833
v -0.096792 -0.377953 0.334921
v -0.198904 -0.612205 0.181697
v -0.170597 -0.612793 0.223352
v -0.174745 -0.630968 0.165022
v -0.174558 -0.585735 0.234564
v -0.139930 -0.634442 0.222649
v -0.130910 -0.592616 0.275227
v -0.131655 -0.624503 0.253732
v -0.133409 -0.639589 0.184813
v -0.200816 -0.589625 0.201387
v -0.159339 -0.511292 0.203558
v -0.163887 -0.524007 0.251304
v -0.180402 -0.539173 0.218242
v -0.158176 -0.545075 0.261053
v -0.125957 -0.529345 0.253516
v -0.149102 -0.499129 0.238664
v -0.170953 -0.497706 0.151288
v -0.184718 -0.624578 0.109502
v -0.165211 -0.617001 0.088748
v -0.140726 -0.617880 0.115134
v -0.140789 -0.631119 0.141226
v -0.104285 -0.584559 0.105302
v -0.186593 -0.487516 0.124583
v -0.192599 -0.482829 0.089660
v -0.179147 -0.443114 0.110149
v -0.187815 -0.463120 0.082648
v -0.167569 -0.487870 0.107761
v -0.158158 -0.468418 0.104512
v -0.190211 -0.420517 0.112669
v -0.176696 -0.610074 0.072240
v -0.179708 -0.550411 -0.017136
v -0.178131 -0.506826 0.013790
v -0.159609 -0.575926 0.031803
v -0.162959 -0.551385 -0.005884
v -0.171609 -0.530177 -0.006859
v -0.137963 -0.586844 0.073840
v -0.148211 -0.510224 0.009252
v -0.130001 -0.564881 -0.024375
v -0.144164 -0.573859 0.032141
v -0.073185 -0.580994 -0.018946
v -0.186834 -0.472630 0.077489
v -0.164176 -0.505618 0.023130
v -0.165272 -0.494295 0.013538
v 0.000243 -0.348219 0.371367
v -0.089076 -0.600247 0.302163
v -0.087629 -0.639351 0.263669
v -0.060357 -0.597077 0.311175
v -0.050267 -0.617621 0.305125
v -0.041668 -0.654957 0.274353
v -0.002021 -0.653499 0.282882
v -0.007049 -0.668385 0.262810
v -0.002012 -0.615462 0.312672
v -0.088878 -0.557414 0.292799
v -0.044215 -0.558428 0.308615
v 0.002925 -0.563914 0.316972
v -0.044622 -0.538976 0.293848
v -0.000963 -0.546227 0.302991
v -0.050342 -0.356069 0.358869
v -0.040311 -0.387932 0.351004
v -0.002924 -0.385095 0.357148
v 0.035304 -0.389786 0.350703
v -0.071791 -0.644390 0.234241
v -0.067507 -0.636543 0.206045
v -0.033155 -0.664241 0.248476
v -0.059732 -0.625965 0.191328
v -0.040974 -0.639445 0.214016
v -0.000834 -0.595280 0.195496
v 0.001295 -0.660636 0.221404
v -0.099462 -0.606011 0.140657
v -0.042904 -0.595773 0.182072
v -0.070550 -0.585704 0.137389
v -0.006338 -0.584595 0.184389
v -0.039416 -0.587640 0.103454
v -0.202528 -0.274320 0.318107
v -0.206807 -0.326475 0.283671
v -0.267095 -0.325031 0.176033
v -0.168570 -0.239924 0.384376
v -0.164097 -0.300635 0.382304
v -0.128451 -0.273984 0.420637
v -0.167204 -0.309981 0.365467
v -0.110397 -0.323981 0.364170
v -0.111184 -0.308696 0.417648
v -0.110697 -0.206267 0.415549
v -0.191118 -0.267147 0.349265
v -0.182435 -0.323719 0.335817
v -0.146548 -0.333221 0.322334
v -0.103539 -0.343637 0.342570
v -0.111166 -0.318438 0.401651
v -0.072065 -0.321991 0.398207
v -0.066611 -0.278918 0.442141
v -0.040726 -0.310525 0.437958
v -0.040727 -0.320375 0.417711
v 0.000451 -0.255646 0.446213
v -0.011208 -0.320927 0.404371
v 0.024685 -0.312377 0.434330
v 0.035378 -0.299003 0.441845
v -0.000042 -0.319605 0.425070
v -0.064736 -0.213073 0.434101
v 0.013258 -0.208054 0.435484
v -0.324439 -0.539260 -0.048944
v -0.329480 -0.529006 -0.067816
v -0.321618 -0.537653 -0.097261
v -0.319237 -0.557399 -0.059544
v -0.304077 -0.570423 -0.076424
v -0.321851 -0.495347 -0.052558
v -0.315145 -0.486029 -0.080588
v -0.298025 -0.460939 -0.042990
v -0.296370 -0.457153 -0.072436
v -0.308352 -0.376073 -0.031331
v -0.301496 -0.398650 -0.051047
v -0.302199 -0.422973 -0.065112
v -0.299277 -0.386543 -0.071609
v -0.304069 -0.536746 -0.112655
v -0.300643 -0.487174 -0.099251
v -0.275853 -0.595289 -0.053571
v -0.252774 -0.596177 -0.023196
v -0.257522 -0.595380 -0.061059
v -0.299654 -0.562204 -0.021573
v -0.280882 -0.576462 -0.093474
v -0.248971 -0.578202 -0.094722
v -0.229684 -0.583881 -0.039874
v -0.221743 -0.555227 -0.086125
v -0.210104 -0.586239 -0.018893
v -0.209628 -0.549956 -0.051074
v -0.203788 -0.517023 -0.048070
v -0.214318 -0.504845 -0.092503
v -0.300597 -0.405432 -0.032768
v -0.284596 -0.457373 -0.088270
v -0.232382 -0.448550 -0.036120
v -0.219953 -0.444034 -0.021537
v -0.225956 -0.474143 -0.035773
v -0.229719 -0.423125 -0.055009
v -0.241363 -0.461493 -0.075830
v -0.201296 -0.484739 -0.014322
v -0.209412 -0.471640 -0.009096
v -0.290001 -0.423229 -0.092300
v -0.278650 -0.389829 -0.088105
v -0.261289 -0.387296 -0.086011
v -0.287724 -0.546486 -0.116134
v -0.265551 -0.512874 -0.119666
v -0.242230 -0.559438 -0.107295
v -0.262143 -0.461243 -0.093693
v -0.261296 -0.422812 -0.097244
v -0.240792 -0.508931 -0.113968
v -0.158801 -0.537563 -0.011474
v -0.127310 -0.542198 -0.048743
v -0.131672 -0.515209 -0.018984
v -0.083931 -0.569843 -0.048052
v -0.072225 -0.556178 -0.074867
v -0.181880 -0.472609 -0.027352
v -0.207970 -0.434724 -0.039862
v -0.188544 -0.501152 -0.012125
v -0.177647 -0.485077 -0.013319
v -0.175520 -0.454056 -0.065232
v -0.162130 -0.441769 -0.090892
v -0.141803 -0.498405 -0.023928
v -0.131979 -0.483932 -0.075233
v -0.103811 -0.475515 -0.107447
v -0.111465 -0.514437 -0.038744
v -0.073381 -0.531990 -0.078274
v -0.077076 -0.544344 -0.078801
v -0.069782 -0.515650 -0.065164
v -0.001134 -0.565886 -0.086145
v -0.038908 -0.514588 -0.075815
v -0.024853 -0.540033 -0.095722
v 0.001688 -0.515526 -0.085517
v -0.076796 -0.508831 -0.066092
v -0.062620 -0.492085 -0.106773
v -0.048811 -0.465994 -0.131098
v -0.017399 -0.483711 -0.121210
v 0.049508 -0.618814 0.302479
v 0.029504 -0.663075 0.269293
v 0.087331 -0.629998 0.275572
v 0.093790 -0.601371 0.287916
v 0.049463 -0.562856 0.309958
v 0.056419 -0.541277 0.287541
v 0.102185 -0.559113 0.284534
v 0.038035 -0.349418 0.365789
v 0.093343 -0.347519 0.348402
v 0.093852 -0.386138 0.330458
v 0.112779 -0.398690 0.269076
v 0.030725 -0.664708 0.237986
v -0.004673 -0.621674 0.207682
v 0.038268 -0.664321 0.257240
v 0.070550 -0.645691 0.227057
v 0.049082 -0.635870 0.210866
v 0.082053 -0.643685 0.251641
v 0.078978 -0.624048 0.183393
v 0.112960 -0.632282 0.179652
v 0.038197 -0.586487 0.174634
v 0.121827 -0.529322 0.246770
v 0.085342 -0.596005 0.148643
v 0.081858 -0.584644 0.125987
v 0.014049 -0.591300 0.029540
v 0.040413 -0.586000 -0.013432
v 0.086273 -0.584624 0.011478
v 0.128293 -0.596415 0.264333
v 0.144899 -0.552464 0.261520
v 0.148739 -0.368205 0.304425
v 0.169490 -0.364344 0.293056
v 0.183337 -0.335872 0.325309
v 0.116850 -0.637617 0.227070
v 0.125083 -0.623373 0.248932
v 0.134641 -0.635503 0.187651
v 0.189559 -0.573478 0.209332
v 0.159317 -0.628976 0.180651
v 0.157848 -0.622392 0.212519
v 0.183558 -0.614823 0.183016
v 0.157482 -0.559916 0.249314
v 0.159275 -0.524849 0.243263
v 0.176416 -0.556538 0.224082
v 0.167121 -0.522318 0.205367
v 0.219888 -0.552652 0.174494
v 0.213778 -0.539191 0.178130
v 0.149511 -0.509750 0.199186
v 0.109065 -0.618164 0.150181
v 0.142669 -0.609955 0.095320
v 0.152938 -0.624589 0.129935
v 0.179327 -0.625538 0.158677
v 0.179124 -0.620066 0.090584
v 0.203135 -0.619821 0.114705
v 0.120491 -0.583645 0.077769
v 0.172466 -0.495590 0.137383
v 0.155489 -0.426533 0.140288
v 0.188082 -0.414222 0.119838
v 0.163042 -0.472630 0.107085
v 0.190845 -0.509302 0.165278
v 0.186238 -0.479951 0.100898
v 0.189849 -0.445143 0.106680
v 0.199829 -0.479200 0.137164
v 0.201187 -0.406954 0.126908
v 0.183323 -0.605890 0.038390
v 0.181258 -0.613001 0.069966
v 0.215209 -0.615835 0.046085
v 0.115681 -0.572245 -0.025035
v 0.150274 -0.576626 0.033524
v 0.151791 -0.593208 0.062341
v 0.155777 -0.566868 0.006177
v 0.167376 -0.508477 0.010271
v 0.165568 -0.556228 -0.005728
v 0.191875 -0.588679 0.009839
v 0.163585 -0.504887 0.012647
v 0.186819 -0.469746 0.083635
v 0.181989 -0.493276 -0.011158
v 0.240122 -0.504952 0.182924
v 0.221422 -0.464472 0.191628
v 0.233658 -0.446532 0.211489
v 0.247629 -0.473533 0.206567
v 0.261725 -0.450690 0.207627
v 0.270654 -0.421828 0.226295
v 0.273403 -0.478384 0.190026
v 0.273947 -0.446810 0.187053
v 0.259194 -0.506681 0.178817
v 0.220180 -0.355748 0.237879
v 0.207211 -0.371268 0.186751
v 0.212557 -0.388967 0.182429
v 0.222570 -0.413221 0.217966
v 0.213253 -0.433366 0.178297
v 0.242113 -0.370156 0.241204
v 0.237519 -0.341887 0.258957
v 0.246428 -0.426258 0.235499
v 0.226924 -0.379666 0.219464
v 0.253073 -0.366599 0.249122
v 0.253168 -0.393797 0.238015
v 0.265286 -0.359926 0.236379
v 0.266855 -0.386410 0.220424
v 0.282079 -0.415889 0.194929
v 0.274139 -0.357723 0.181065
v 0.278691 -0.390688 0.142987
v 0.221119 -0.606929 0.133223
v 0.229768 -0.607569 0.092897
v 0.219801 -0.576528 0.165579
v 0.211082 -0.510183 0.166653
v 0.242891 -0.580311 0.143674
v 0.261141 -0.538595 0.173447
v 0.261873 -0.561607 0.154630
v 0.265593 -0.584465 0.082779
v 0.273733 -0.569274 0.129546
v 0.285310 -0.524292 0.141393
v 0.282158 -0.564666 0.106561
v 0.213830 -0.485303 0.165731
v 0.203283 -0.443910 0.125797
v 0.197307 -0.470747 0.093113
v 0.283021 -0.499728 0.149387
v 0.279362 -0.428445 0.147642
v 0.284727 -0.451497 0.128004
v 0.292571 -0.509726 0.092868
v 0.280701 -0.474276 0.082632
v 0.278694 -0.446329 0.085760
v 0.213746 -0.366630 0.141249
v 0.265545 -0.351692 0.125383
v 0.270532 -0.383380 0.101393
v 0.259359 -0.410418 0.084270
v 0.216682 -0.604322 0.018026
v 0.235076 -0.599160 -0.029022
v 0.245307 -0.609492 0.066131
v 0.244216 -0.604826 0.029560
v 0.267399 -0.590132 0.042423
v 0.263754 -0.603053 0.007041
v 0.277612 -0.564630 0.052849
v 0.285498 -0.586206 0.017115
v 0.288074 -0.526973 0.048893
v 0.304762 -0.537252 0.016373
v 0.314174 -0.535239 -0.014693
v 0.217448 -0.452843 0.039151
v 0.215010 -0.449142 -0.009666
v 0.228347 -0.462918 0.032188
v 0.229348 -0.431984 0.007086
v 0.241056 -0.459794 0.007359
v 0.259197 -0.434787 0.062197
v 0.259193 -0.466377 0.028920
v 0.267920 -0.449522 0.012485
v 0.261849 -0.456120 0.050629
v 0.283675 -0.485820 0.017940
v 0.276096 -0.480789 0.039867
v 0.287641 -0.422378 0.007781
v 0.294435 -0.455381 -0.016581
v 0.229578 -0.411203 0.061077
v 0.225600 -0.421422 0.045350
v 0.219501 -0.432209 0.027320
v 0.242812 -0.411125 0.012779
v 0.266602 -0.417342 0.015006
v 0.289557 -0.394029 -0.001001
v 0.064128 -0.242164 0.438870
v 0.111859 -0.315350 0.398950
v 0.068943 -0.317993 0.397395
v 0.108002 -0.306165 0.414505
v 0.106847 -0.324912 0.367993
v 0.139012 -0.267093 0.415761
v 0.090153 -0.223069 0.426907
v 0.162040 -0.314926 0.365387
v 0.158471 -0.306348 0.381921
v 0.173647 -0.267517 0.388147
v 0.136149 -0.212094 0.401299
v 0.172926 -0.214617 0.373644
v 0.148943 -0.331872 0.328655
v 0.188827 -0.309495 0.348701
v 0.201275 -0.338326 0.280833
v 0.194803 -0.246645 0.356063
v 0.214260 -0.288510 0.308449
v 0.223052 -0.303709 0.292316
v 0.256949 -0.332894 0.252221
v 0.014449 -0.574247 -0.069601
v 0.039600 -0.515180 -0.077208
v 0.059671 -0.557579 -0.084160
v 0.084150 -0.565219 -0.064722
v 0.075692 -0.513354 -0.061670
v 0.108727 -0.515740 -0.042455
v 0.081724 -0.539438 -0.079290
v 0.022762 -0.541651 -0.096620
v 0.036975 -0.498619 -0.099798
v 0.035663 -0.454828 -0.137395
v 0.090343 -0.450133 -0.126262
v 0.138862 -0.515377 -0.017119
v 0.128608 -0.541999 -0.050819
v 0.135626 -0.559970 -0.030247
v 0.163236 -0.537727 -0.009552
v 0.170695 -0.531876 -0.011435
v 0.210892 -0.564067 -0.054084
v 0.199584 -0.527403 -0.051294
v 0.122851 -0.474039 -0.089721
v 0.138424 -0.499168 -0.034883
v 0.174169 -0.486986 -0.012794
v 0.158019 -0.470527 -0.065294
v 0.167718 -0.422817 -0.100484
v 0.207870 -0.440675 -0.037415
v 0.198167 -0.474155 -0.015062
v 0.214702 -0.476201 -0.026041
v 0.196682 -0.459760 -0.025781
v 0.204578 -0.499806 -0.043409
v 0.253305 -0.601673 -0.023708
v 0.263532 -0.602592 -0.063417
v 0.277793 -0.599515 -0.035032
v 0.199995 -0.581266 -0.027211
v 0.208806 -0.540780 -0.090210
v 0.213075 -0.497113 -0.081245
v 0.236127 -0.583783 -0.086308
v 0.263326 -0.588242 -0.096663
v 0.292613 -0.586510 -0.036571
v 0.311707 -0.574817 -0.083162
v 0.214937 -0.461789 -0.010183
v 0.220894 -0.443366 -0.032035
v 0.228810 -0.421384 -0.057004
v 0.228586 -0.461295 -0.020611
v 0.233789 -0.447055 -0.007019
v 0.229966 -0.447766 -0.043398
v 0.239036 -0.457155 -0.077006
v 0.255986 -0.459779 -0.096098
v 0.304665 -0.475920 -0.026794
v 0.303525 -0.423371 -0.031265
v 0.303282 -0.458567 -0.078036
v 0.256309 -0.387984 -0.080946
v 0.257862 -0.422131 -0.096919
v 0.302079 -0.403285 -0.058111
v 0.223316 -0.542714 -0.109998
v 0.231860 -0.500064 -0.110234
v 0.250812 -0.566731 -0.116126
v 0.273513 -0.515518 -0.129147
v 0.292491 -0.560562 -0.117222
v 0.272654 -0.464318 -0.101537
v 0.291918 -0.460180 -0.095214
v 0.306739 -0.498789 -0.117138
v 0.276244 -0.388431 -0.090210
v 0.330543 -0.530794 -0.036153
v 0.325196 -0.550673 -0.095214
v 0.328556 -0.559070 -0.060562
v 0.338789 -0.517839 -0.067232
v 0.305614 -0.456471 -0.060178
v 0.334175 -0.495161 -0.065768
v 0.329929 -0.497043 -0.091838
v 0.307408 -0.366667 -0.025479
v 0.299579 -0.391240 -0.074496
v 0.317246 -0.514411 -0.113335
vn -0.9253 0.1354 0.3541
vn -0.5264 -0.3405 0.7791
vn -0.4345 -0.3549 0.8278
vn -0.8424 -0.2165 0.4935
vn -0.4208 -0.3495 0.8371
vn -0.1088 -0.4515 0.8856
vn 0.1609 -0.3937 0.9050
vn 0.5994 -0.3264 0.7308
vn 0.2231 -0.2953 0.9290
vn 0.7667 -0.2303 0.5993
vn 0.9721 0.0121 0.2343
vn -0.9189 0.0435 0.3921
vn -0.9491 0.0407 0.3124
vn -0.2797 -0.3764 0.8832
vn -0.7546 -0.0328 0.6554
vn -0.1973 -0.0961 0.9756
vn -0.9450 -0.0062 0.3270
vn 0.3460 -0.3764 0.8595
vn 0.3699 -0.2621 0.8913
vn 0.6558 -0.2172 0.7230
vn 0.8929 -0.1075 0.4372
vn 0.9385 -0.0249 0.3443
vn 0.6775 -0.5617 0.4749
vn -0.6428 -0.7438 0.1832
vn -0.3091 -0.9510 0.0046
vn -0.4706 -0.8807 0.0535
vn -0.5706 -0.7967 0.1990
vn -0.9279 -0.2059 0.3107
vn -0.8420 -0.5157 0.1581
vn -0.9853 -0.1701 -0.0185
vn -0.5202 -0.3952 0.7571
vn -0.6009 -0.7283 0.3294
vn -0.6695 -0.7358 0.1022
vn -0.5552 -0.7452 0.3693
vn -0.5801 -0.5365 0.6130
vn -0.4647 -0.0775 0.8821
vn -0.0346 0.4309 0.9017
vn 0.0975 0.6931 0.7142
vn -0.9951 0.0406 0.0905
vn -0.9901 0.0976 0.1005
vn -0.9639 0.2087 -0.1652
vn -0.8677 -0.1263 0.4808
vn 0.7575 -0.0230 0.6524
vn 0.7411 0.4626 0.4865
vn 0.9773 0.2092 0.0336
vn 0.8451 -0.2539 0.4704
vn 0.9107 0.0611 0.4086
vn -0.9899 0.1412 -0.0123
vn -0.9266 0.2138 -0.3093
vn -0.9875 0.1544 0.0319
vn -0.9618 0.1337 -0.2390
vn 0.9674 0.0807 0.2401
vn -0.4909 -0.8694 0.0571
vn -0.3932 -0.9192 0.0210
vn 0.1485 -0.9532 -0.2634
vn -0.0653 -0.9851 -0.1589
vn 0.4237 -0.8100 -0.4055
vn 0.3627 -0.8444 -0.3943
vn -0.9452 -0.2006 0.2576
vn -0.9815 -0.1506 0.1185
vn -0.7764 -0.5873 0.2286
vn -0.7808 -0.6160 0.1041
vn -0.4093 -0.9109 -0.0524
vn -0.8417 0.2864 0.4576
vn -0.9561 0.2720 0.1086
vn -0.3657 -0.0082 0.9307
vn -0.6013 0.4990 -0.6241
vn -0.6191 0.7830 -0.0596
vn -0.1084 0.9058 0.4097
vn -0.0948 0.0983 0.9906
vn -0.2750 0.8930 -0.3562
vn 0.6659 0.5532 0.5006
vn 0.5626 -0.4275 0.7076
vn -0.7897 0.2626 -0.5544
vn -0.7145 -0.6856 -0.1394
vn -0.9091 -0.3860 -0.1566
vn 0.3270 0.9431 -0.0606
vn -0.7478 0.3186 -0.5825
vn -0.8177 -0.1100 0.5650
vn -0.8838 -0.3093 0.3511
vn -0.7044 0.3535 -0.6155
vn -0.2638 0.0915 0.9602
vn 0.1635 -0.2620 0.9511
vn -0.4756 0.5344 -0.6988
vn -0.6498 0.1539 -0.7443
vn -0.4109 -0.6116 0.6762
vn -0.3588 0.2446 0.9008
vn -0.3325 0.5690 0.7521
vn -0.4706 -0.6728 0.5708
vn -0.5331 -0.7398 0.4104
vn -0.5076 -0.8455 0.1660
vn -0.4631 -0.6703 0.5799
vn -0.4005 -0.5598 0.7255
vn -0.6614 -0.6703 0.3365
vn -0.6338 -0.5895 0.5008
vn -0.3556 -0.9313 0.0791
vn -0.7547 -0.1755 0.6321
vn -0.3685 -0.8974 0.2428
vn -0.5773 -0.2088 0.7894
vn -0.5217 -0.6583 0.5427
vn -0.0708 -0.9957 -0.0596
vn -0.7808 -0.2372 0.5780
vn -0.6231 0.7155 0.3158
vn -0.6158 0.4313 0.6594
vn -0.7810 0.3564 0.5129
vn -0.5557 0.1900 0.8094
vn -0.0511 0.5251 0.8495
vn -0.6095 0.6159 0.4992
vn 0.0279 0.9105 0.4126
vn -0.0909 -0.9769 -0.1936
vn 0.2594 -0.8680 -0.4233
vn 0.3903 -0.8099 -0.4379
vn 0.2026 -0.9178 -0.3414
vn 0.2458 -0.9223 -0.2981
vn 0.4168 0.8887 0.1910
vn 0.3650 0.8287 0.4243
vn 0.2682 -0.4672 0.8425
vn 0.1960 -0.5963 0.7785
vn 0.0923 0.9689 0.2295
vn -0.5837 -0.4329 0.6869
vn 0.5364 -0.1406 0.8322
vn 0.2632 -0.8886 -0.3756
vn 0.6795 -0.3011 -0.6690
vn 0.7607 0.0438 -0.6477
vn 0.3589 -0.7983 -0.4837
vn -0.0793 -0.5950 -0.7998
vn 0.5285 0.4141 -0.7411
vn 0.4268 -0.7994 -0.4228
vn -0.7585 0.0358 -0.6506
vn -0.4676 -0.7674 -0.4387
vn -0.0445 -0.9567 -0.2877
vn -0.1361 -0.9720 -0.1915
vn 0.0901 0.0653 0.9938
vn -0.0652 -0.0056 -0.9979
vn -0.0485 -0.8239 -0.5647
vn -0.1753 -0.3411 0.9236
vn -0.4168 -0.1815 0.8907
vn -0.3268 -0.8689 0.3717
vn -0.2255 -0.0906 0.9700
vn -0.2063 -0.5279 0.8239
vn -0.2785 -0.8109 0.5146
vn -0.0081 -0.7028 0.7113
vn -0.0643 -0.9695 0.2365
vn 0.0291 -0.3672 0.9297
vn -0.3781 0.3199 0.8688
vn -0.2257 0.3275 0.9175
vn 0.0147 0.1977 0.9802
vn -0.2601 0.5804 0.7717
vn -0.0691 0.6092 0.7900
vn -0.2306 -0.3152 0.9206
vn -0.2080 -0.3682 0.9062
vn -0.0466 -0.6391 0.7677
vn 0.1634 -0.4165 0.8943
vn -0.1975 -0.9658 -0.1679
vn 0.1235 -0.9219 -0.3671
vn -0.2712 -0.9559 -0.1126
vn 0.3403 -0.6948 -0.6336
vn -0.0212 -0.7626 -0.6466
vn 0.0724 -0.5336 -0.8426
vn -0.0337 -0.7636 -0.6448
vn 0.4679 -0.7075 -0.5297
vn 0.3738 -0.6681 -0.6433
vn 0.3053 -0.8927 -0.3315
vn 0.2594 -0.7137 -0.6506
vn -0.0305 -0.9992 0.0271
vn -0.8904 -0.2191 0.3990
vn -0.7761 -0.5329 0.3373
vn -0.9959 0.0380 0.0823
vn -0.6999 0.0214 0.7139
vn -0.6725 -0.4211 0.6086
vn -0.5047 -0.0619 0.8611
vn -0.2492 -0.8532 0.4582
vn -0.1769 -0.9742 0.1405
vn -0.3607 -0.5845 0.7268
vn -0.4168 0.1636 0.8942
vn -0.8594 -0.1793 0.4789
vn -0.5803 -0.6123 0.5369
vn -0.0155 -0.7366 0.6761
vn -0.5315 -0.2825 0.7986
vn -0.2388 -0.9099 0.3392
vn -0.0629 -0.9836 0.1691
vn -0.2152 -0.0852 0.9728
vn -0.0804 -0.6121 0.7867
vn 0.0214 -0.9540 0.2990
vn 0.0144 0.0207 0.9997
vn 0.0043 -0.9887 0.1500
vn 0.1108 -0.6853 0.7198
vn 0.1555 -0.3228 0.9336
vn 0.0968 -0.9670 0.2359
vn -0.2644 0.1243 0.9564
vn 0.0962 0.2394 0.9662
vn -0.9226 -0.1970 0.3317
vn -0.9989 -0.0265 -0.0399
vn -0.8232 -0.1999 -0.5314
vn -0.8273 -0.5581 0.0641
vn -0.6326 -0.7209 -0.2829
vn -0.9216 0.3379 0.1911
vn -0.8365 0.4364 -0.3313
vn -0.9591 0.1943 0.2059
vn -0.9007 0.2732 -0.3378
vn -0.9629 -0.2365 0.1301
vn -0.9954 -0.0706 -0.0647
vn -0.9808 -0.0546 -0.1875
vn -0.9131 0.0745 -0.4008
vn -0.5071 -0.1434 -0.8498
vn -0.5092 0.4079 -0.7579
vn -0.3860 -0.9186 -0.0851
vn 0.1074 -0.9849 -0.1354
vn 0.1785 -0.9490 -0.2599
vn -0.8397 -0.4945 0.2243
vn -0.2887 -0.7575 -0.5856
vn 0.2964 -0.7588 -0.5799
vn 0.5227 -0.7746 -0.3561
vn 0.8052 -0.4051 -0.4332
vn 0.5473 -0.7097 -0.4437
vn 0.8314 -0.3412 -0.4387
vn 0.8930 0.1935 -0.4063
vn 0.8305 0.2389 -0.5032
vn -0.9679 -0.1544 0.1983
vn -0.5082 0.2210 -0.8324
vn 0.9215 -0.3213 -0.2180
vn 0.2226 -0.9739 -0.0443
vn 0.8388 0.4792 -0.2585
vn 0.7965 -0.1806 -0.5771
vn 0.8177 0.3009 -0.4907
vn 0.4356 0.4434 -0.7833
vn 0.0321 0.5867 -0.8092
vn -0.5999 -0.0149 -0.7999
vn -0.2650 0.2823 -0.9220
vn 0.4260 0.2728 -0.8626
vn -0.2125 -0.3681 -0.9052
vn -0.0023 0.1606 -0.9870
vn 0.4123 -0.4093 -0.8139
vn 0.2199 0.2657 -0.9386
vn 0.3399 0.0836 -0.9367
vn 0.4181 0.1856 -0.8892
vn -0.5368 0.1880 -0.8225
vn -0.6541 -0.0399 -0.7553
vn -0.7708 0.0444 -0.6356
vn -0.2461 -0.8725 -0.4221
vn -0.3069 -0.6288 -0.7144
vn -0.5663 -0.6635 -0.4890
vn -0.2579 -0.7997 -0.5422
vn 0.7461 0.1342 -0.6522
vn -0.1115 -0.7235 -0.6813
vn -0.5996 -0.6435 -0.4758
vn -0.5383 -0.6034 -0.5884
vn -0.5778 -0.7283 -0.3685
vn -0.4677 -0.7348 -0.4913
vn -0.3563 -0.7321 -0.5806
vn -0.6486 -0.1459 -0.7470
vn -0.3731 0.4032 -0.8356
vn -0.4214 -0.1454 -0.8951
vn -0.4083 0.1180 -0.9052
vn -0.0555 -0.7131 -0.6989
vn -0.2845 -0.2181 -0.9335
vn -0.1762 0.0255 -0.9840
vn 0.0141 -0.2097 -0.9777
vn -0.3445 -0.7237 -0.5980
vn -0.2093 -0.7545 -0.6221
vn -0.1622 -0.6256 -0.7631
vn -0.0103 -0.7079 -0.7062
vn 0.2683 -0.4053 0.8739
vn 0.1985 -0.8450 0.4966
vn 0.4555 -0.6419 0.6168
vn 0.4886 -0.2417 0.8383
vn 0.2460 0.3081 0.9190
vn 0.2309 0.6642 0.7110
vn 0.4612 0.1674 0.8714
vn 0.1130 -0.3545 0.9282
vn 0.4093 -0.3800 0.8295
vn 0.4286 -0.5192 0.7394
vn 0.3981 -0.8669 0.3000
vn 0.1973 -0.9369 -0.2887
vn 0.0764 -0.4254 -0.9018
vn 0.3178 -0.9400 0.1238
vn 0.1755 -0.9460 -0.2727
vn -0.0830 -0.6863 -0.7226
vn 0.3761 -0.9044 0.2014
vn -0.3588 -0.7140 -0.6013
vn -0.1107 -0.9494 -0.2939
vn -0.3646 -0.6535 -0.6633
vn 0.1436 0.6297 0.7634
vn -0.4785 -0.7371 -0.4772
vn -0.2416 -0.9469 -0.2122
vn -0.0018 -0.9990 -0.0437
vn 0.0620 -0.9819 -0.1790
vn 0.1265 -0.9848 -0.1192
vn 0.6436 -0.3138 0.6981
vn 0.4713 0.0920 0.8772
vn 0.4284 -0.5045 0.7496
vn 0.5019 -0.7628 0.4076
vn 0.4819 -0.7026 0.5236
vn 0.3030 -0.9406 0.1534
vn 0.5607 -0.6269 0.5409
vn 0.1379 -0.9729 -0.1857
vn 0.7514 -0.2294 0.6187
vn 0.2822 -0.9567 0.0712
vn 0.5792 -0.7038 0.4114
vn 0.6340 -0.6602 0.4028
vn 0.7101 -0.1208 0.6937
vn 0.6767 0.4249 0.6013
vn 0.7903 0.1987 0.5796
vn 0.5980 0.6856 0.4151
vn 0.5256 -0.2453 0.8146
vn 0.3342 0.2157 0.9175
vn 0.4151 0.8449 0.3374
vn -0.4289 -0.7857 -0.4459
vn -0.4113 -0.8191 -0.4000
vn -0.1102 -0.9730 -0.2026
vn 0.3097 -0.9457 0.0983
vn -0.0796 -0.9757 -0.2043
vn 0.3108 -0.9500 -0.0296
vn -0.2277 -0.9406 -0.2520
vn -0.2221 0.8658 0.4484
vn 0.5904 -0.4502 0.6699
vn 0.4900 -0.4839 0.7251
vn 0.3779 0.7914 0.4805
vn 0.2106 0.8246 0.5251
vn -0.2255 0.9043 0.3626
vn -0.8386 -0.2903 0.4610
vn -0.8259 0.4126 0.3843
vn -0.6899 -0.0608 0.7213
vn -0.3963 -0.8296 -0.3934
vn -0.3519 -0.8781 -0.3242
vn 0.0307 -0.9788 -0.2027
vn 0.2764 -0.9061 -0.3202
vn -0.1934 -0.9128 -0.3598
vn -0.4768 -0.7712 -0.4217
vn 0.4937 -0.8341 -0.2459
vn -0.5407 0.2579 -0.8007
vn -0.1332 -0.6307 -0.7645
vn -0.4905 -0.7574 -0.4310
vn 0.1609 -0.2434 -0.9565
vn -0.2453 0.2883 0.9256
vn -0.5840 -0.0271 -0.8113
vn -0.2155 -0.2944 0.9311
vn -0.7764 -0.2452 0.5805
vn -0.5350 -0.4170 0.7347
vn -0.0361 -0.4214 0.9062
vn 0.5358 -0.4129 0.7365
vn 0.7284 -0.2229 0.6479
vn 0.7832 -0.2696 0.5602
vn 0.9566 -0.1577 0.2450
vn 0.4988 -0.3600 0.7884
vn -0.5209 -0.6713 0.5272
vn -0.7298 -0.4890 0.4778
vn -0.9923 0.0056 0.1234
vn -0.8198 -0.1037 0.5632
vn -0.9592 -0.0359 0.2804
vn -0.5450 -0.4731 0.6922
vn -0.0130 -0.3623 0.9320
vn -0.1484 -0.3707 0.9168
vn -0.8058 0.0283 0.5914
vn 0.2590 -0.3716 0.8915
vn 0.1307 -0.1445 0.9808
vn 0.9175 -0.0396 0.3959
vn 0.9289 0.0330 0.3688
vn 0.9859 0.0132 0.1669
vn 0.9940 0.0593 0.0921
vn 0.9885 0.1233 -0.0875
vn 0.6165 -0.7363 0.2790
vn 0.4512 -0.8723 0.1882
vn 0.6922 -0.3894 0.6076
vn -0.4012 0.3621 0.8414
vn 0.4945 -0.7084 0.5037
vn 0.5110 -0.3291 0.7941
vn 0.5425 -0.5762 0.6113
vn 0.7151 -0.6851 0.1386
vn 0.7055 -0.6287 0.3270
vn 0.9284 -0.1498 0.3400
vn 0.8921 -0.4454 0.0765
vn -0.8240 -0.1158 0.5546
vn -0.9433 0.0003 0.3321
vn -0.8030 0.2448 0.5434
vn 0.9518 -0.0487 0.3027
vn 0.9985 0.0467 -0.0296
vn 0.9932 0.1164 0.0056
vn 0.9968 0.0797 -0.0005
vn 0.9621 0.2206 -0.1604
vn 0.9162 0.2751 -0.2913
vn -0.9834 0.0361 0.1780
vn 0.9558 0.2633 -0.1305
vn 0.9690 0.0167 -0.2466
vn 0.8405 0.3361 -0.4249
vn -0.1692 -0.9335 -0.3162
vn -0.3420 -0.9121 -0.2261
vn 0.4774 -0.8714 0.1130
vn 0.2731 -0.9599 -0.0629
vn 0.6984 -0.6859 0.2042
vn 0.3104 -0.9466 0.0877
vn 0.9099 -0.3643 0.1983
vn 0.7552 -0.6008 0.2619
vn 0.9845 0.0198 0.1741
vn 0.9367 -0.0117 0.3501
vn 0.8969 -0.1091 0.4286
vn 0.7756 0.3506 -0.5249
vn 0.7906 -0.5723 -0.2176
vn 0.2834 0.9148 -0.2877
vn 0.3754 -0.5720 0.7293
vn -0.2977 0.8632 0.4078
vn 0.6173 0.4417 -0.6510
vn 0.3861 0.9131 0.1314
vn 0.2379 0.2102 0.9483
vn 0.6040 0.5828 -0.5436
vn 0.8314 0.3869 0.3988
vn 0.8638 0.5010 -0.0542
vn 0.6740 -0.0169 0.7386
vn 0.8964 0.0748 0.4369
vn 0.5164 0.6206 -0.5901
vn 0.6802 0.2222 -0.6985
vn 0.9768 -0.1710 -0.1287
vn -0.1775 -0.3010 0.9370
vn 0.1362 0.0022 0.9907
vn 0.8935 0.0177 0.4486
vn 0.2039 0.1279 0.9706
vn 0.2631 -0.8527 0.4514
vn 0.0524 -0.9760 0.2113
vn 0.3239 -0.5847 0.7438
vn 0.1838 -0.9472 0.2628
vn 0.4960 -0.0715 0.8654
vn 0.3220 0.2150 0.9220
vn 0.3420 -0.8042 0.4861
vn 0.4995 -0.5965 0.6282
vn 0.7180 -0.0731 0.6922
vn 0.5259 0.2376 0.8167
vn 0.6633 0.2063 0.7194
vn -0.0232 -0.7511 0.6598
vn 0.7293 -0.4170 0.5424
vn 0.7155 -0.6196 0.3228
vn 0.8374 -0.0064 0.5465
vn 0.8613 -0.0818 0.5015
vn 0.8136 -0.3932 0.4284
vn 0.7126 -0.0396 0.7005
vn 0.0380 -0.9276 -0.3716
vn 0.3040 -0.1726 -0.9369
vn 0.2665 -0.5175 -0.8131
vn 0.3327 -0.7459 -0.5770
vn 0.4716 -0.1395 -0.8707
vn 0.5439 0.0798 -0.8353
vn 0.4468 0.1295 -0.8852
vn 0.1253 0.0259 -0.9918
vn 0.1858 -0.7191 -0.6697
vn 0.1709 -0.6389 -0.7501
vn 0.2494 -0.6608 -0.7079
vn 0.7442 0.0217 -0.6676
vn 0.6361 0.0196 -0.7713
vn 0.5543 -0.6291 -0.5450
vn 0.0861 0.2604 -0.9616
vn -0.6766 0.3390 -0.6536
vn -0.7802 -0.4831 -0.3973
vn -0.9144 0.0323 -0.4035
vn 0.3804 -0.7212 -0.5790
vn 0.5059 -0.7071 -0.4940
vn 0.2637 -0.7158 -0.6466
vn 0.5333 -0.6700 -0.5164
vn 0.5819 -0.5560 -0.5934
vn 0.6530 -0.6075 -0.4522
vn -0.0550 -0.0865 -0.9947
vn -0.4675 0.6272 -0.6230
vn 0.6010 -0.5824 -0.5474
vn -0.8139 0.4460 -0.3724
vn -0.0160 -0.9987 -0.0475
vn 0.0367 -0.9744 -0.2219
vn 0.4185 -0.9079 0.0226
vn -0.5815 -0.6657 -0.4677
vn -0.8940 -0.1711 -0.4141
vn -0.8566 0.3770 -0.3524
vn -0.5632 -0.7193 -0.4067
vn 0.0106 -0.8360 -0.5487
vn 0.7322 -0.6625 0.1582
vn 0.5949 -0.7508 -0.2871
vn 0.3998 0.6625 -0.6335
vn -0.4546 -0.8716 -0.1833
vn -0.8784 -0.0036 -0.4779
vn -0.8072 0.5783 -0.1184
vn -0.5679 -0.4609 0.6820
vn -0.9234 -0.2978 -0.2420
vn -0.8436 0.2835 -0.4560
vn -0.4719 0.2629 -0.8415
vn 0.8647 0.3225 0.3852
vn 0.9770 0.0560 0.2057
vn 0.8287 0.4189 -0.3711
vn -0.5901 0.3199 -0.7412
vn -0.3902 0.1669 -0.9055
vn 0.9975 0.0038 -0.0709
vn -0.6400 -0.1761 -0.7479
vn -0.5547 0.3308 -0.7635
vn -0.2649 -0.4794 -0.8367
vn -0.0216 0.1206 -0.9925
vn 0.3278 -0.4679 -0.8207
vn -0.0001 0.3463 -0.9381
vn 0.4977 0.4037 -0.7677
vn 0.4155 0.3526 -0.8384
vn 0.1363 0.2638 -0.9549
vn 0.8804 -0.0921 0.4652
vn 0.8026 -0.3562 -0.4784
vn 0.8528 -0.5062 0.1282
vn 0.9998 -0.0024 -0.0183
vn 0.9556 0.2912 0.0456
vn 0.9110 0.3981 0.1076
vn 0.8448 0.3339 -0.4181
vn 0.9407 -0.2915 0.1735
vn 0.8935 0.0528 -0.4459
vn 0.6485 0.0073 -0.7611
vt 0.347295 0.144200
vt 0.375226 0.143055
vt 0.359561 0.152487
vt 0.351256 0.220731
vt 0.350430 0.203602
vt 0.366344 0.218112
vt 0.334170 0.204986
vt 0.361892 0.201530
vt 0.354934 0.194044
vt 0.362820 0.188014
vt 0.366210 0.248699
vt 0.373428 0.243588
vt 0.376272 0.264088
vt 0.361583 0.232909
vt 0.370503 0.230675
vt 0.379630 0.245937
vt 0.372337 0.228751
vt 0.373486 0.214941
vt 0.373419 0.197899
vt 0.366878 0.208008
vt 0.373242 0.216613
vt 0.329428 0.120021
vt 0.350248 0.124913
vt 0.332881 0.139842
vt 0.301685 0.167245
vt 0.314879 0.157394
vt 0.323759 0.172561
vt 0.323104 0.152143
vt 0.342742 0.167663
vt 0.299124 0.141413
vt 0.367809 0.131955
vt 0.335262 0.181816
vt 0.347285 0.179048
vt 0.355384 0.170092
vt 0.360958 0.154493
vt 0.356313 0.159376
vt 0.360319 0.150319
vt 0.364940 0.173359
vt 0.350839 0.150373
vt 0.359456 0.177573
vt 0.341200 0.178019
vt 0.332577 0.150338
vt 0.341020 0.148781
vt 0.317301 0.140392
vt 0.327920 0.214877
vt 0.308238 0.208290
vt 0.326544 0.228487
vt 0.305439 0.192825
vt 0.300014 0.188263
vt 0.250550 0.132594
vt 0.248941 0.114766
vt 0.270318 0.125663
vt 0.285064 0.113249
vt 0.309925 0.117542
vt 0.290787 0.125724
vt 0.261699 0.104973
vt 0.280475 0.098573
vt 0.257168 0.157963
vt 0.261468 0.146408
vt 0.277454 0.159256
vt 0.279725 0.138530
vt 0.243889 0.171484
vt 0.272127 0.167512
vt 0.250019 0.173126
vt 0.288121 0.173811
vt 0.320367 0.190826
vt 0.271142 0.164944
vt 0.282271 0.170294
vt 0.256514 0.170263
vt 0.256822 0.181494
vt 0.272855 0.146365
vt 0.264780 0.161303
vt 0.246262 0.152597
vt 0.245922 0.157076
vt 0.278785 0.142842
vt 0.282134 0.158311
vt 0.270750 0.156571
vt 0.245346 0.144042
vt 0.249941 0.196509
vt 0.256555 0.187408
vt 0.257993 0.166217
vt 0.301465 0.174978
vt 0.429339 0.151201
vt 0.447109 0.144066
vt 0.454374 0.153840
vt 0.399740 0.261542
vt 0.422133 0.233512
vt 0.418302 0.247898
vt 0.421518 0.199428
vt 0.442394 0.226955
vt 0.453286 0.256459
vt 0.455224 0.237160
vt 0.370447 0.115850
vt 0.396187 0.136878
vt 0.398178 0.147375
vt 0.423823 0.136639
vt 0.400489 0.108971
vt 0.410699 0.125075
vt 0.390062 0.153926
vt 0.394298 0.149004
vt 0.413299 0.162490
vt 0.408027 0.165519
vt 0.393729 0.223481
vt 0.335166 0.105408
vt 0.359133 0.091097
vt 0.328455 0.093926
vt 0.402041 0.088160
vt 0.375247 0.097417
vt 0.375772 0.079035
vt 0.365300 0.136886
vt 0.343694 0.137291
vt 0.340957 0.123407
vt 0.335111 0.154067
vt 0.337737 0.141049
vt 0.311769 0.096528
vt 0.281302 0.087663
vt 0.234870 0.100880
vt 0.328212 0.082947
vt 0.244256 0.091527
vt 0.284912 0.080188
vt 0.220501 0.073213
vt 0.209683 0.041186
vt 0.312572 0.128716
vt 0.319342 0.131942
vt 0.315978 0.132760
vt 0.262297 0.107880
vt 0.272276 0.100860
vt 0.243643 0.099718
vt 0.263008 0.103031
vt 0.259922 0.090153
vt 0.469508 0.155349
vt 0.474014 0.147760
vt 0.448933 0.130493
vt 0.476011 0.127566
vt 0.498976 0.149624
vt 0.498863 0.130039
vt 0.453096 0.159803
vt 0.477352 0.162079
vt 0.476015 0.160413
vt 0.501469 0.163006
vt 0.499494 0.161207
vt 0.481801 0.235143
vt 0.500104 0.260236
vt 0.477819 0.252797
vt 0.498697 0.238026
vt 0.452668 0.115648
vt 0.478888 0.114867
vt 0.469893 0.104542
vt 0.449610 0.104500
vt 0.451838 0.098640
vt 0.500931 0.102935
vt 0.496420 0.102651
vt 0.463168 0.096839
vt 0.424498 0.082067
vt 0.494531 0.097309
vt 0.342743 0.247461
vt 0.452830 0.322660
vt 0.435471 0.300819
vt 0.458591 0.302575
vt 0.457026 0.292315
vt 0.431710 0.290875
vt 0.434222 0.334701
vt 0.458565 0.357642
vt 0.409768 0.299814
vt 0.420797 0.276299
vt 0.420313 0.311881
vt 0.453154 0.275498
vt 0.471505 0.286064
vt 0.476202 0.322468
vt 0.485243 0.304325
vt 0.484531 0.292464
vt 0.495590 0.286520
vt 0.512716 0.311101
vt 0.509036 0.301775
vt 0.500161 0.334392
vt 0.476439 0.356138
vt 0.210811 0.159975
vt 0.220652 0.167918
vt 0.203261 0.177795
vt 0.238562 0.156217
vt 0.226170 0.173990
vt 0.224237 0.185328
vt 0.211849 0.187323
vt 0.227199 0.184193
vt 0.210155 0.187740
vt 0.216225 0.200897
vt 0.232719 0.203979
vt 0.223306 0.208279
vt 0.198870 0.151009
vt 0.193530 0.172987
vt 0.199251 0.183438
vt 0.235436 0.128128
vt 0.219472 0.140387
vt 0.212948 0.133146
vt 0.222642 0.120915
vt 0.192140 0.137421
vt 0.191039 0.128846
vt 0.235727 0.109948
vt 0.185151 0.137860
vt 0.213132 0.122481
vt 0.211964 0.119007
vt 0.202134 0.183798
vt 0.225458 0.153710
vt 0.225010 0.143094
vt 0.201552 0.159622
vt 0.212593 0.162072
vt 0.243092 0.133120
vt 0.234466 0.147003
vt 0.248165 0.136758
vt 0.238695 0.125571
vt 0.219860 0.144283
vt 0.253473 0.212974
vt 0.233884 0.219409
vt 0.212621 0.214017
vt 0.200958 0.198440
vt 0.201260 0.204768
vt 0.199388 0.196582
vt 0.193296 0.185562
vt 0.188943 0.164370
vt 0.182617 0.164405
vt 0.179643 0.153500
vt 0.183637 0.140781
vt 0.195368 0.172851
vt 0.238520 0.091656
vt 0.191805 0.078406
vt 0.226243 0.118136
vt 0.244236 0.141901
vt 0.239779 0.114758
vt 0.238090 0.112033
vt 0.223394 0.089415
vt 0.167542 0.096823
vt 0.193368 0.124505
vt 0.168679 0.126769
vt 0.196758 0.071775
vt 0.167244 0.053513
vt 0.119867 0.063347
vt 0.123239 0.063597
vt 0.122141 0.058856
vt 0.130444 0.058278
vt 0.002096 0.048091
vt 0.040430 0.057653
vt 0.075463 0.052238
vt 0.967423 0.039203
vt 1.209683 0.041186
vt 1.002096 0.048091
vt 1.075463 0.052238
vt 0.996859 0.052336
vt 1.040430 0.057653
vt 0.136900 0.062565
vt 0.084418 0.078441
vt 0.963177 0.057694
vt 0.122262 0.096902
vt 0.495732 0.119288
vt 0.517368 0.123460
vt 0.525821 0.146387
vt 0.548844 0.136935
vt 0.550120 0.148481
vt 0.525186 0.161925
vt 0.554875 0.157784
vt 0.515968 0.234013
vt 0.516490 0.258140
vt 0.541662 0.255919
vt 0.544041 0.231432
vt 0.536397 0.104460
vt 0.523504 0.118775
vt 0.564719 0.098572
vt 0.589335 0.103075
vt 0.550166 0.124179
vt 0.575640 0.121259
vt 0.547947 0.112308
vt 0.534272 0.094174
vt 0.599967 0.092847
vt 0.582950 0.089135
vt 0.591703 0.080068
vt 0.728949 0.047041
vt 0.570656 0.017591
vt 0.801069 0.023092
vt 0.589664 0.154301
vt 0.580526 0.157895
vt 0.572332 0.236777
vt 0.583453 0.238319
vt 0.563168 0.201089
vt 0.574107 0.133779
vt 0.571915 0.145705
vt 0.599055 0.110957
vt 0.601675 0.128011
vt 0.615026 0.116413
vt 0.625235 0.127001
vt 0.592262 0.161036
vt 0.606146 0.150736
vt 0.608715 0.149341
vt 0.634712 0.116369
vt 0.668188 0.114583
vt 0.675484 0.099654
vt 0.658779 0.076694
vt 0.656257 0.087286
vt 0.602479 0.144663
vt 0.636406 0.146489
vt 0.642944 0.133251
vt 0.633173 0.145280
vt 0.683008 0.130803
vt 0.659712 0.157211
vt 0.643634 0.154421
vt 0.668521 0.144824
vt 0.661805 0.157243
vt 0.660434 0.168371
vt 0.687978 0.085903
vt 0.691370 0.097701
vt 0.717146 0.095434
vt 0.715066 0.083056
vt 0.783920 0.064921
vt 0.759303 0.093965
vt 0.737720 0.100014
vt 0.740246 0.101400
vt 0.679824 0.138145
vt 0.639350 0.190304
vt 0.636460 0.179054
vt 0.646389 0.171505
vt 0.632920 0.195633
vt 0.643264 0.203045
vt 0.639169 0.221706
vt 0.628609 0.214711
vt 0.653331 0.193544
vt 0.633258 0.205106
vt 0.627660 0.220795
vt 0.625299 0.237309
vt 0.639171 0.181538
vt 0.626664 0.205624
vt 0.637116 0.198661
vt 0.629908 0.230139
vt 0.634161 0.247950
vt 0.626252 0.244936
vt 0.640120 0.232510
vt 0.653760 0.219466
vt 0.654651 0.203281
vt 0.663698 0.128011
vt 0.647247 0.141756
vt 0.617117 0.145653
vt 0.643238 0.149598
vt 0.639437 0.151652
vt 0.656690 0.167789
vt 0.665109 0.157979
vt 0.653884 0.177000
vt 0.701914 0.141409
vt 0.679650 0.155622
vt 0.664986 0.144075
vt 0.676772 0.173733
vt 0.672704 0.181309
vt 0.692528 0.156158
vt 0.645062 0.161877
vt 0.654261 0.149055
vt 0.670979 0.132295
vt 0.682758 0.192561
vt 0.672621 0.202270
vt 0.701082 0.172535
vt 0.704435 0.175961
vt 0.657062 0.194143
vt 0.692929 0.205561
vt 0.679791 0.221453
vt 0.674553 0.215115
vt 0.700001 0.186680
vt 0.702489 0.184205
vt 0.688851 0.123285
vt 0.716425 0.109255
vt 0.708091 0.125715
vt 0.730829 0.122960
vt 0.736790 0.109935
vt 0.745753 0.131280
vt 0.741846 0.100417
vt 0.720060 0.147711
vt 0.724959 0.136916
vt 0.740470 0.144488
vt 0.741458 0.164444
vt 0.757150 0.142242
vt 0.721648 0.144489
vt 0.757535 0.138800
vt 0.730292 0.150569
vt 0.745143 0.153764
vt 0.727712 0.147114
vt 0.732315 0.162301
vt 0.712518 0.175062
vt 0.719602 0.168418
vt 0.742589 0.171238
vt 0.727177 0.167349
vt 0.739948 0.168505
vt 0.723243 0.161152
vt 0.758953 0.182927
vt 0.757438 0.169108
vt 0.718427 0.159090
vt 0.741632 0.170005
vt 0.745084 0.155422
vt 0.754777 0.153434
vt 0.708617 0.166757
vt 0.741051 0.181177
vt 0.527339 0.287484
vt 0.543507 0.292918
vt 0.540567 0.302468
vt 0.551354 0.325819
vt 0.504844 0.358189
vt 0.523092 0.340921
vt 0.544974 0.276139
vt 0.566433 0.287587
vt 0.562598 0.297034
vt 0.566951 0.321250
vt 0.533123 0.349565
vt 0.552057 0.352289
vt 0.581680 0.266833
vt 0.567721 0.263299
vt 0.578990 0.289048
vt 0.579676 0.326184
vt 0.596626 0.291491
vt 0.603738 0.280245
vt 0.598971 0.253345
vt 0.618132 0.254362
vt 0.626478 0.262469
vt 0.657100 0.236471
vt 0.924574 0.053114
vt 0.901841 0.058238
vt 0.854346 0.059097
vt 0.872594 0.066218
vt 0.858809 0.059824
vt 0.943528 0.066937
vt 1.022691 0.078923
vt 0.959581 0.096293
vt 0.901155 0.105721
vt 0.850393 0.098845
vt 0.784923 0.077426
vt 0.743692 0.085429
vt 0.809893 0.079517
vt 0.769522 0.084380
vt 0.760646 0.099057
vt 0.771522 0.106383
vt 0.755504 0.092142
vt 0.789955 0.117252
vt 0.790037 0.118566
vt 0.789290 0.088663
vt 0.809247 0.070846
vt 0.812363 0.110944
vt 0.761671 0.109602
vt 0.759745 0.112700
vt 0.778343 0.142266
vt 0.770744 0.129655
vt 0.835908 0.137869
vt 0.762074 0.126337
vt 0.783278 0.126143
vt 0.769210 0.135700
vt 0.764853 0.127337
vt 0.769550 0.119833
vt 0.805772 0.129439
vt 0.814904 0.126735
vt 0.787585 0.134550
vt 0.805993 0.141636
vt 0.769966 0.139078
vt 0.769789 0.148292
vt 0.791496 0.162794
vt 0.764312 0.146957
vt 0.772921 0.148456
vt 0.779686 0.153299
vt 0.745696 0.190360
vt 0.766336 0.198783
vt 0.750550 0.201727
vt 0.822843 0.136891
vt 0.819011 0.144434
vt 0.807977 0.136901
vt 0.820633 0.150977
vt 0.820210 0.168897
vt 0.807220 0.184043
vt 0.807157 0.170777
vt 0.799601 0.159899
vt 0.800179 0.187295
vt 0.806737 0.178176
vt 0.808058 0.185313
vt 0.798686 0.192852
vt 0.800236 0.204453
vt 0.767339 0.178139
vt 0.779011 0.171455
vt 0.781179 0.187239
vt 0.795332 0.175586
vt 0.763961 0.181812
vt 0.780943 0.190603
vt 0.780928 0.191785
vt 0.780247 0.207421
vt 0.763161 0.222625
vt 0.804609 0.184558
vt 0.810665 0.163008
vt 0.793208 0.192042
vt 0.366901 0.193699
vt 0.432087 0.259659
vt 0.432244 0.158761
vt 0.426611 0.156316
vt 0.411126 0.163413
vt 0.342936 0.122407
vt 0.450254 0.157975
vt 0.499321 0.101005
vt 0.442064 0.059273
vt 0.499984 0.294783
vt 0.217693 0.180287
vt 0.227211 0.080435
vt 0.056726 0.092831
vt 0.022691 0.078923
vt 1.084418 0.078441
vt 0.530836 0.157940
vt 0.520434 0.110276
vt 0.572986 0.152615
vt 0.637914 0.098957
vt 0.657509 0.124594
vt 0.618853 0.235212
vt 0.568986 0.347046
vt 0.788860 0.162395
vt 0.790082 0.190720
vt 0.788790 0.212637
s 1
f 35/1/35 102/2/102 36/3/36
f 13/4/13 4/5/4 5/6/5
f 4/5/4 13/4/13 39/7/39
f 5/6/5 4/5/4 6/8/6
f 4/5/4 2/9/2 6/8/6
f 6/8/6 2/9/2 7/10/7
f 17/11/17 14/12/14 15/13/15
f 12/14/12 16/15/16 14/12/14
f 12/14/12 5/6/5 16/15/16
f 12/14/12 13/4/13 5/6/5
f 15/13/15 14/12/14 18/16/18
f 14/12/14 16/15/16 20/17/20
f 14/12/14 20/17/20 18/16/18
f 20/17/20 19/18/19 21/19/21
f 20/17/20 21/19/21 22/20/22
f 23/21/23 20/17/20 22/20/22
f 26/22/26 27/23/27 34/24/34
f 30/25/30 29/26/29 28/27/28
f 32/28/32 31/29/31 29/26/29
f 33/30/33 32/28/32 29/26/29
f 34/24/34 31/29/31 32/28/32
f 34/24/34 27/23/27 35/1/35
f 35/1/35 94/31/94 102/2/102
f 42/32/42 3/33/3 2/9/2
f 9/34/9 37/35/37 43/36/43
f 38/37/38 43/36/43 37/35/37
f 10/38/10 43/36/43 44/39/44
f 11/40/11 10/38/10 44/39/44
f 52/41/52 11/40/11 46/42/46
f 46/42/46 45/43/45 47/44/47
f 48/45/48 39/7/39 13/4/13
f 51/46/51 48/45/48 50/47/50
f 51/46/51 49/48/49 48/45/48
f 49/48/49 51/46/51 81/49/81
f 52/41/52 22/20/22 21/19/21
f 11/40/11 52/41/52 21/19/21
f 54/50/54 55/51/55 63/52/63
f 56/53/56 25/54/25 53/55/53
f 57/56/57 58/57/58 56/53/56
f 59/58/59 61/59/61 60/60/60
f 60/60/60 61/59/61 62/61/62
f 53/55/53 33/30/33 62/61/62
f 54/50/54 62/61/62 61/59/61
f 53/55/53 25/54/25 33/30/33
f 63/52/63 53/55/53 62/61/62
f 63/52/63 62/61/62 54/50/54
f 1/62/1 65/63/65 64/64/64
f 41/65/41 30/25/30 40/66/40
f 60/60/60 41/65/41 65/63/65
f 64/64/64 65/63/65 68/67/68
f 67/68/67 49/48/49 81/49/81
f 70/69/70 66/70/66 64/64/64
f 67/68/67 71/71/71 68/67/68
f 70/69/70 69/72/69 72/73/72
f 73/74/73 70/69/70 72/73/72
f 67/68/67 74/75/74 71/71/71
f 74/75/74 85/76/85 76/77/76
f 69/72/69 71/71/71 77/78/77
f 64/64/64 66/70/66 79/79/79
f 79/79/79 66/70/66 82/80/82
f 83/81/83 82/80/82 66/70/66
f 83/81/83 70/69/70 73/74/73
f 84/82/84 85/76/85 67/68/67
f 99/83/99 86/84/86 137/85/137
f 167/86/167 90/87/90 89/88/89
f 91/89/91 92/90/92 90/87/90
f 179/91/179 90/87/90 93/92/93
f 96/93/96 95/94/95 94/31/94
f 97/95/97 100/96/100 99/83/99
f 101/97/101 98/98/98 96/93/96
f 99/83/99 100/96/100 86/84/86
f 36/3/36 102/2/102 105/99/105
f 102/2/102 95/94/95 97/95/97
f 105/99/105 102/2/102 97/95/97
f 38/37/38 105/99/105 103/100/103
f 105/99/105 97/95/97 106/101/106
f 105/99/105 104/102/104 103/100/103
f 106/101/106 97/95/97 99/83/99
f 91/89/91 90/87/90 24/103/24
f 96/93/96 94/31/94 27/23/27
f 110/104/110 101/97/101 96/93/96
f 112/105/112 110/104/110 111/106/111
f 161/107/161 113/108/113 112/105/112
f 114/109/114 161/107/161 112/105/112
f 38/37/38 37/35/37 105/99/105
f 44/39/44 109/110/109 115/111/115
f 109/110/109 38/37/38 103/100/103
f 115/111/115 109/110/109 119/112/119
f 121/113/121 46/42/46 117/114/117
f 25/54/25 110/104/110 26/22/26
f 122/115/122 25/54/25 56/53/56
f 122/115/122 111/106/111 110/104/110
f 125/116/125 58/57/58 57/56/57
f 123/117/123 125/116/125 57/56/57
f 122/115/122 128/118/128 111/106/111
f 125/116/125 128/118/128 122/115/122
f 126/119/126 131/120/131 125/116/125
f 131/120/131 128/118/128 125/116/125
f 130/121/130 132/122/132 131/120/131
f 133/123/133 47/44/47 116/124/116
f 118/125/118 47/44/47 133/123/133
f 116/124/116 119/112/119 133/123/133
f 124/126/124 134/127/134 127/128/127
f 135/129/135 129/130/129 134/127/134
f 139/131/139 137/85/137 140/132/140
f 140/132/140 138/133/138 141/134/141
f 144/135/144 140/132/140 142/136/142
f 145/137/145 99/83/99 137/85/137
f 145/137/145 137/85/137 139/131/139
f 145/137/145 139/131/139 146/138/146
f 145/137/145 146/138/146 148/139/148
f 146/138/146 139/131/139 147/140/147
f 146/138/146 147/140/147 149/141/149
f 93/92/93 92/90/92 151/142/151
f 136/143/136 150/144/150 152/145/152
f 86/84/86 100/96/100 138/133/138
f 154/146/154 138/133/138 98/98/98
f 156/147/156 141/134/141 138/133/138
f 154/146/154 156/147/156 138/133/138
f 158/148/158 154/146/154 155/149/155
f 157/150/157 158/148/158 155/149/155
f 160/151/160 154/146/154 158/148/158
f 154/146/154 160/151/160 156/147/156
f 157/150/157 275/152/275 158/148/158
f 162/153/162 275/152/275 157/150/157
f 157/150/157 155/149/155 113/108/113
f 163/154/163 164/155/164 162/153/162
f 168/156/168 17/11/17 15/13/15
f 171/157/171 170/158/170 174/159/174
f 180/160/180 174/159/174 172/161/172
f 169/162/169 171/157/171 175/163/175
f 166/164/166 177/165/177 176/166/176
f 89/88/89 177/165/177 167/86/167
f 170/158/170 177/165/177 172/161/172
f 173/167/173 181/168/181 180/160/180
f 182/169/182 174/159/174 183/170/183
f 180/160/180 183/170/183 174/159/174
f 184/171/184 183/170/183 180/160/180
f 186/172/186 183/170/183 184/171/184
f 188/173/188 183/170/183 187/174/187
f 182/169/182 188/173/188 185/175/185
f 190/176/190 175/163/175 182/169/182
f 190/176/190 182/169/182 185/175/185
f 196/177/196 195/178/195 194/179/194
f 210/180/210 59/58/59 1/62/1
f 192/181/192 1/62/1 197/182/197
f 200/183/200 197/182/197 199/184/199
f 198/185/198 197/182/197 200/183/200
f 203/186/203 219/187/219 202/188/202
f 211/189/211 194/179/194 205/190/205
f 206/191/206 194/179/194 198/185/198
f 205/190/205 194/179/194 206/191/206
f 208/192/208 55/51/55 54/50/54
f 210/180/210 61/59/61 59/58/59
f 195/178/195 207/193/207 210/180/210
f 196/177/196 207/193/207 195/178/195
f 210/180/210 54/50/54 61/59/61
f 208/192/208 207/193/207 209/194/209
f 208/192/208 54/50/54 207/193/207
f 211/189/211 209/194/209 207/193/207
f 213/195/213 208/192/208 209/194/209
f 212/196/212 213/195/213 209/194/209
f 214/197/214 213/195/213 212/196/212
f 215/198/215 55/51/55 213/195/213
f 215/198/215 57/56/57 55/51/55
f 218/199/218 217/200/217 216/201/216
f 1/62/1 64/64/64 199/184/199
f 200/183/200 199/184/199 203/186/203
f 198/185/198 200/183/200 220/202/220
f 77/78/77 72/73/72 69/72/69
f 221/203/221 77/78/77 223/204/223
f 221/203/221 223/204/223 225/205/225
f 224/206/224 221/203/221 225/205/225
f 223/204/223 77/78/77 227/207/227
f 222/208/222 73/74/73 221/203/221
f 77/78/77 78/209/78 227/207/227
f 223/204/223 227/207/227 226/210/226
f 243/211/243 222/208/222 221/203/221
f 219/187/219 80/212/80 201/213/201
f 203/186/203 202/188/202 204/214/204
f 228/215/228 203/186/203 204/214/204
f 204/214/204 229/216/229 228/215/228
f 230/217/230 224/206/224 235/218/235
f 224/206/224 243/211/243 221/203/221
f 231/219/231 211/189/211 205/190/205
f 231/219/231 212/196/212 211/189/211
f 232/220/232 236/221/236 233/222/233
f 233/222/233 218/199/218 214/197/214
f 232/220/232 205/190/205 206/191/206
f 232/220/232 220/202/220 234/223/234
f 234/223/234 225/205/225 218/199/218
f 228/215/228 235/218/235 220/202/220
f 229/216/229 235/218/235 228/215/228
f 235/218/235 224/206/224 225/205/225
f 216/201/216 123/117/123 215/198/215
f 216/201/216 127/128/127 123/117/123
f 127/128/127 237/224/237 126/119/126
f 130/121/130 237/224/237 238/225/238
f 242/226/242 78/209/78 75/227/75
f 226/210/226 244/228/244 217/200/217
f 226/210/226 217/200/217 223/204/223
f 244/228/244 124/126/124 127/128/127
f 245/229/245 226/210/226 227/207/227
f 127/128/127 217/200/217 244/228/244
f 135/129/135 124/126/124 244/228/244
f 245/229/245 135/129/135 244/228/244
f 242/226/242 245/229/245 227/207/227
f 248/230/248 135/129/135 245/229/245
f 249/231/249 242/226/242 246/232/246
f 248/230/248 129/130/129 135/129/135
f 242/226/242 248/230/248 245/229/245
f 249/231/249 248/230/248 242/226/242
f 247/233/247 249/231/249 246/232/246
f 249/231/249 251/234/251 248/230/248
f 240/235/240 132/122/132 130/121/130
f 251/234/251 252/236/252 238/225/238
f 253/237/253 241/238/241 238/225/238
f 252/236/252 253/237/253 238/225/238
f 254/239/254 252/236/252 251/234/251
f 241/238/241 255/240/255 240/235/240
f 252/236/252 257/241/257 253/237/253
f 255/240/255 132/122/132 240/235/240
f 252/236/252 256/242/256 257/241/257
f 435/243/435 132/244/132 255/245/255
f 256/246/256 258/247/258 257/248/257
f 259/249/259 254/239/254 251/234/251
f 256/242/256 254/239/254 259/249/259
f 260/250/260 256/242/256 259/249/259
f 257/241/257 255/240/255 241/238/241
f 257/248/257 258/247/258 442/251/442
f 260/250/260 249/231/249 250/252/250
f 142/136/142 143/253/143 264/254/264
f 144/135/144 142/136/142 263/255/263
f 264/254/264 263/255/263 142/136/142
f 263/255/263 264/254/264 265/256/265
f 263/255/263 265/256/265 266/257/266
f 267/258/267 266/257/266 269/259/269
f 152/145/152 153/260/153 270/261/270
f 271/262/271 153/260/153 272/263/272
f 275/152/275 278/264/278 160/151/160
f 276/265/276 265/256/265 264/254/264
f 280/266/280 281/267/281 278/264/278
f 279/268/279 265/256/265 276/265/276
f 294/269/294 279/268/279 277/270/277
f 280/266/280 278/264/278 282/271/282
f 308/272/308 280/266/280 284/273/284
f 285/274/285 284/273/284 282/271/282
f 288/275/288 286/276/286 287/277/287
f 269/259/269 266/257/266 301/278/301
f 290/279/290 269/259/269 301/278/301
f 291/280/291 272/263/272 292/281/292
f 273/282/273 292/281/292 272/263/272
f 281/267/281 294/269/294 277/270/277
f 295/283/295 289/284/289 266/257/266
f 294/269/294 295/283/295 265/256/265
f 301/278/301 289/284/289 295/283/295
f 296/285/296 299/286/299 294/269/294
f 298/287/298 300/288/300 299/286/299
f 290/279/290 301/278/301 302/289/302
f 303/290/303 302/289/302 301/278/301
f 304/291/304 302/289/302 303/290/303
f 281/267/281 298/287/298 296/285/296
f 298/287/298 311/292/311 300/288/300
f 313/293/313 311/292/311 312/294/312
f 314/295/314 309/296/309 284/273/284
f 307/297/307 304/291/304 319/298/319
f 315/299/315 307/297/307 319/298/319
f 316/300/316 335/301/335 317/302/317
f 315/299/315 319/298/319 365/303/365
f 321/304/321 374/305/374 323/306/323
f 329/307/329 325/308/325 309/296/309
f 324/309/324 325/308/325 329/307/329
f 328/310/328 314/295/314 288/275/288
f 327/311/327 328/310/328 288/275/288
f 328/310/328 329/307/329 314/295/314
f 449/312/449 334/313/334 331/314/331
f 324/309/324 329/307/329 328/310/328
f 335/301/335 375/315/375 321/304/321
f 340/316/340 338/317/338 337/318/337
f 339/319/339 340/316/340 341/320/341
f 342/321/342 353/322/353 341/320/341
f 341/320/341 340/316/340 343/323/343
f 347/324/347 354/325/354 351/326/351
f 350/327/350 349/328/349 348/329/348
f 349/328/349 339/319/339 353/322/353
f 354/325/354 353/322/353 356/330/356
f 351/326/351 354/325/354 356/330/356
f 357/331/357 355/332/355 356/330/356
f 358/333/358 356/330/356 342/321/342
f 357/331/357 356/330/356 358/333/358
f 358/333/358 342/321/342 359/334/359
f 344/335/344 342/321/342 341/320/341
f 313/293/313 362/336/362 311/292/311
f 364/337/364 297/338/297 300/288/300
f 305/339/305 297/338/297 364/337/364
f 306/340/306 305/339/305 367/341/367
f 365/303/365 306/340/306 337/318/337
f 337/318/337 306/340/306 367/341/367
f 305/339/305 368/342/368 367/341/367
f 337/318/337 367/341/367 345/343/345
f 369/344/369 370/345/370 366/346/366
f 371/347/371 368/342/368 370/345/370
f 376/348/376 367/341/367 371/347/371
f 372/349/372 370/345/370 369/344/369
f 373/350/373 338/317/338 322/351/322
f 365/303/365 373/350/373 322/351/322
f 374/305/374 322/351/322 350/327/350
f 320/352/320 322/351/322 375/315/375
f 375/315/375 374/305/374 321/304/321
f 373/350/373 337/318/337 338/317/338
f 376/348/376 345/343/345 367/341/367
f 378/353/378 377/354/377 343/323/343
f 379/355/379 376/348/376 371/347/371
f 380/356/380 376/348/376 379/355/379
f 380/356/380 378/353/378 376/348/376
f 350/327/350 348/329/348 382/357/382
f 374/305/374 350/327/350 382/357/382
f 384/358/384 383/359/383 361/360/361
f 385/361/385 384/358/384 377/354/377
f 377/354/377 378/353/378 381/362/381
f 312/294/312 363/363/363 313/293/313
f 326/364/326 388/365/388 312/294/312
f 389/366/389 326/364/326 386/367/386
f 391/368/391 389/366/389 386/367/386
f 333/369/333 386/367/386 324/309/324
f 392/370/392 369/344/369 390/371/390
f 392/370/392 372/349/372 369/344/369
f 379/355/379 372/349/372 392/370/392
f 392/370/392 390/371/390 393/372/393
f 395/373/395 392/370/392 393/372/393
f 398/374/398 397/375/397 473/376/473
f 412/377/412 397/375/397 398/374/398
f 401/378/401 399/379/399 403/380/403
f 402/381/402 405/382/405 397/375/397
f 401/378/401 403/380/403 404/383/404
f 405/382/405 381/362/381 380/356/380
f 407/384/407 405/382/405 380/356/380
f 406/385/406 403/380/403 407/384/407
f 406/385/406 404/383/404 403/380/403
f 380/356/380 379/355/379 407/384/407
f 406/385/406 407/384/407 394/386/394
f 404/383/404 406/385/406 409/387/409
f 406/385/406 394/386/394 395/373/395
f 396/388/396 406/385/406 395/373/395
f 402/381/402 397/375/397 411/389/411
f 413/390/413 400/391/400 477/392/477
f 402/381/402 410/393/410 385/361/385
f 413/390/413 404/383/404 414/394/414
f 418/395/418 417/396/417 187/174/187
f 417/396/417 419/397/419 187/174/187
f 188/173/188 419/397/419 421/398/421
f 191/399/191 185/175/185 416/400/416
f 420/401/420 423/402/423 417/396/417
f 421/398/421 424/403/424 425/404/425
f 422/405/422 416/400/416 421/398/421
f 425/404/425 426/406/426 421/398/421
f 293/407/293 423/402/423 428/408/428
f 423/402/423 293/407/293 429/409/429
f 423/402/423 429/409/429 424/403/424
f 425/404/425 429/409/429 431/410/431
f 432/411/432 431/410/431 429/409/429
f 433/412/433 432/411/432 429/409/429
f 433/412/433 293/407/293 430/413/430
f 352/414/352 355/332/355 434/415/434
f 434/415/434 355/332/355 357/331/357
f 360/416/360 434/415/434 357/331/357
f 132/244/132 287/277/287 286/276/286
f 258/247/258 436/417/436 442/251/442
f 255/245/255 437/418/437 435/243/435
f 437/418/437 255/245/255 442/251/442
f 438/419/438 327/311/327 287/277/287
f 441/420/441 436/417/436 439/421/439
f 441/420/441 438/419/438 437/418/437
f 439/421/439 436/417/436 443/422/443
f 442/251/442 255/245/255 257/248/257
f 443/422/443 258/247/258 262/423/262
f 444/424/444 445/425/445 443/422/443
f 445/425/445 453/426/453 443/422/443
f 448/427/448 327/311/327 438/419/438
f 448/427/448 330/428/330 327/311/327
f 447/429/447 446/430/446 449/312/449
f 450/431/450 449/312/449 331/314/331
f 466/432/466 332/433/332 449/312/449
f 466/432/466 449/312/449 451/434/451
f 451/434/451 450/431/450 452/435/452
f 439/421/439 454/436/454 440/437/440
f 456/438/456 454/436/454 453/426/453
f 334/313/334 446/430/446 454/436/454
f 455/439/455 334/313/334 454/436/454
f 456/438/456 455/439/455 454/436/454
f 455/439/455 336/440/336 334/313/334
f 456/438/456 458/441/458 461/442/461
f 457/443/457 458/441/458 456/438/456
f 461/442/461 459/444/459 455/439/455
f 450/431/450 336/440/336 462/445/462
f 462/445/462 336/440/336 460/446/460
f 463/447/463 386/367/386 387/448/387
f 466/432/466 386/367/386 333/369/333
f 451/434/451 387/448/387 466/432/466
f 469/449/469 451/434/451 467/450/467
f 469/449/469 464/451/464 387/448/387
f 470/452/470 464/451/464 469/449/469
f 465/453/465 391/368/391 463/447/463
f 471/454/471 393/372/393 465/453/465
f 471/454/471 396/388/396 393/372/393
f 472/455/472 465/453/465 464/451/464
f 472/455/472 464/451/464 470/452/470
f 461/442/461 473/376/473 459/444/459
f 461/442/461 398/374/398 473/376/473
f 476/456/476 473/376/473 401/378/401
f 477/392/477 398/374/398 474/457/474
f 476/456/476 477/392/477 478/458/478
f 409/387/409 408/459/408 404/383/404
f 482/460/482 415/461/415 408/459/408
f 482/460/482 408/459/408 409/387/409
f 487/462/487 469/449/469 467/450/467
f 489/463/489 469/449/469 487/462/487
f 468/464/468 488/465/488 467/450/467
f 488/465/488 490/466/490 487/462/487
f 485/467/485 480/468/480 479/469/479
f 485/467/485 493/470/493 492/471/492
f 492/471/492 494/472/494 490/466/490
f 494/472/494 492/471/492 493/470/493
f 485/467/485 484/473/484 495/474/495
f 495/474/495 493/470/493 485/467/485
f 496/475/496 396/388/396 471/454/471
f 496/475/496 471/454/471 498/476/498
f 472/455/472 498/476/498 471/454/471
f 499/477/499 496/475/496 498/476/498
f 499/477/499 498/476/498 497/478/497
f 409/387/409 481/479/481 500/480/500
f 481/479/481 396/388/396 496/475/496
f 501/481/501 481/479/481 496/475/496
f 486/482/486 503/483/503 415/461/415
f 486/482/486 482/460/482 500/480/500
f 505/484/505 497/478/497 491/485/491
f 505/484/505 490/466/490 494/472/494
f 502/486/502 494/472/494 493/470/493
f 502/486/502 499/477/499 497/478/497
f 502/486/502 497/478/497 505/484/505
f 7/10/7 2/9/2 3/33/3
f 9/34/9 7/10/7 3/33/3
f 5/6/5 6/8/6 8/487/8
f 6/8/6 7/10/7 8/487/8
f 10/38/10 8/487/8 7/10/7
f 7/10/7 9/34/9 10/38/10
f 10/38/10 11/40/11 8/487/8
f 168/156/168 12/14/12 17/11/17
f 17/11/17 12/14/12 14/12/14
f 16/15/16 5/6/5 19/18/19
f 20/17/20 16/15/16 19/18/19
f 19/18/19 5/6/5 8/487/8
f 21/19/21 19/18/19 8/487/8
f 20/17/20 23/21/23 18/16/18
f 11/40/11 21/19/21 8/487/8
f 25/54/25 26/22/26 34/24/34
f 29/26/29 31/29/31 28/27/28
f 9/34/9 3/33/3 31/29/31
f 34/24/34 35/1/35 31/29/31
f 33/30/33 34/24/34 32/28/32
f 9/34/9 31/29/31 36/3/36
f 36/3/36 31/29/31 35/1/35
f 34/24/34 33/30/33 25/54/25
f 9/34/9 36/3/36 37/35/37
f 35/1/35 27/23/27 94/31/94
f 40/66/40 42/32/42 4/5/4
f 40/66/40 4/5/4 39/7/39
f 28/27/28 42/32/42 40/66/40
f 49/48/49 40/66/40 39/7/39
f 40/66/40 30/25/30 28/27/28
f 41/65/41 40/66/40 49/48/49
f 4/5/4 42/32/42 2/9/2
f 42/32/42 31/29/31 3/33/3
f 42/32/42 28/27/28 31/29/31
f 43/36/43 10/38/10 9/34/9
f 38/37/38 44/39/44 43/36/43
f 46/42/46 44/39/44 45/43/45
f 46/42/46 11/40/11 44/39/44
f 48/45/48 49/48/49 39/7/39
f 48/45/48 13/4/13 12/14/12
f 50/47/50 48/45/48 12/14/12
f 168/156/168 50/47/50 12/14/12
f 63/52/63 56/53/56 53/55/53
f 55/51/55 56/53/56 63/52/63
f 55/51/55 57/56/57 56/53/56
f 59/58/59 60/60/60 65/63/65
f 62/61/62 29/26/29 30/25/30
f 60/60/60 62/61/62 30/25/30
f 29/26/29 62/61/62 33/30/33
f 1/62/1 59/58/59 65/63/65
f 41/65/41 60/60/60 30/25/30
f 67/68/67 41/65/41 49/48/49
f 68/67/68 41/65/41 67/68/67
f 65/63/65 41/65/41 68/67/68
f 64/64/64 68/67/68 69/72/69
f 64/64/64 69/72/69 70/69/70
f 69/72/69 68/67/68 71/71/71
f 67/68/67 85/76/85 74/75/74
f 78/209/78 77/78/77 71/71/71
f 78/209/78 71/71/71 74/75/74
f 76/77/76 75/227/75 74/75/74
f 75/227/75 78/209/78 74/75/74
f 70/69/70 83/81/83 66/70/66
f 81/49/81 84/82/84 67/68/67
f 83/81/83 73/74/73 75/227/75
f 178/488/178 89/88/89 90/87/90
f 93/92/93 90/87/90 92/90/92
f 96/93/96 98/98/98 95/94/95
f 97/95/97 95/94/95 100/96/100
f 98/98/98 100/96/100 95/94/95
f 98/98/98 138/133/138 100/96/100
f 101/97/101 154/146/154 98/98/98
f 37/35/37 36/3/36 105/99/105
f 102/2/102 94/31/94 95/94/95
f 105/99/105 106/101/106 104/102/104
f 87/489/87 106/101/106 99/83/99
f 107/490/107 106/101/106 87/489/87
f 107/490/107 104/102/104 106/101/106
f 103/100/103 104/102/104 108/491/108
f 108/491/108 104/102/104 107/490/107
f 167/86/167 24/103/24 90/87/90
f 110/104/110 27/23/27 26/22/26
f 110/104/110 96/93/96 27/23/27
f 110/104/110 113/108/113 101/97/101
f 112/105/112 113/108/113 110/104/110
f 128/118/128 114/109/114 112/105/112
f 115/111/115 45/43/45 44/39/44
f 116/124/116 45/43/45 115/111/115
f 47/44/47 45/43/45 116/124/116
f 44/39/44 38/37/38 109/110/109
f 46/42/46 118/125/118 117/114/117
f 119/112/119 116/124/116 115/111/115
f 121/113/121 52/41/52 46/42/46
f 122/115/122 110/104/110 25/54/25
f 56/53/56 58/57/58 122/115/122
f 58/57/58 125/116/125 122/115/122
f 123/117/123 126/119/126 125/116/125
f 237/224/237 127/128/127 134/127/134
f 237/224/237 134/127/134 129/130/129
f 111/106/111 128/118/128 112/105/112
f 131/120/131 114/109/114 128/118/128
f 118/125/118 46/42/46 47/44/47
f 118/125/118 133/123/133 120/492/120
f 124/126/124 135/129/135 134/127/134
f 137/85/137 86/84/86 140/132/140
f 140/132/140 86/84/86 138/133/138
f 139/131/139 140/132/140 144/135/144
f 142/136/142 140/132/140 141/134/141
f 143/253/143 142/136/142 141/134/141
f 87/489/87 99/83/99 145/137/145
f 145/137/145 88/493/88 87/489/87
f 147/140/147 139/131/139 144/135/144
f 150/144/150 93/92/93 151/142/151
f 152/145/152 150/144/150 151/142/151
f 152/145/152 151/142/151 153/260/153
f 155/149/155 154/146/154 101/97/101
f 156/147/156 143/253/143 141/134/141
f 162/153/162 159/494/159 275/152/275
f 156/147/156 160/151/160 143/253/143
f 275/152/275 160/151/160 158/148/158
f 113/108/113 155/149/155 101/97/101
f 161/107/161 157/150/157 113/108/113
f 161/107/161 162/153/162 157/150/157
f 163/154/163 161/107/161 114/109/114
f 114/109/114 165/495/165 163/154/163
f 163/154/163 162/153/162 161/107/161
f 164/155/164 159/494/159 162/153/162
f 132/122/132 114/109/114 131/120/131
f 286/276/286 114/109/114 132/122/132
f 114/109/114 286/276/286 165/495/165
f 171/157/171 169/162/169 170/158/170
f 174/159/174 170/158/170 172/161/172
f 173/167/173 180/160/180 172/161/172
f 167/86/167 177/165/177 166/164/166
f 176/166/176 170/158/170 169/162/169
f 176/166/176 177/165/177 170/158/170
f 177/165/177 178/488/178 172/161/172
f 177/165/177 89/88/89 178/488/178
f 182/169/182 171/157/171 174/159/174
f 181/168/181 184/171/184 180/160/180
f 181/168/181 186/172/186 184/171/184
f 182/169/182 183/170/183 188/173/188
f 183/170/183 189/496/189 187/174/187
f 186/172/186 189/496/189 183/170/183
f 175/163/175 171/157/171 182/169/182
f 193/497/193 195/178/195 192/181/192
f 194/179/194 195/178/195 193/497/193
f 192/181/192 210/180/210 1/62/1
f 192/181/192 195/178/195 210/180/210
f 193/497/193 192/181/192 197/182/197
f 198/185/198 193/497/193 197/182/197
f 197/182/197 1/62/1 199/184/199
f 203/186/203 199/184/199 219/187/219
f 204/214/204 202/188/202 201/213/201
f 194/179/194 211/189/211 196/177/196
f 198/185/198 194/179/194 193/497/193
f 210/180/210 207/193/207 54/50/54
f 196/177/196 211/189/211 207/193/207
f 211/189/211 212/196/212 209/194/209
f 213/195/213 55/51/55 208/192/208
f 213/195/213 216/201/216 215/198/215
f 214/197/214 216/201/216 213/195/213
f 214/197/214 218/199/218 216/201/216
f 199/184/199 64/64/64 219/187/219
f 220/202/220 200/183/200 203/186/203
f 73/74/73 222/208/222 75/227/75
f 221/203/221 72/73/72 77/78/77
f 221/203/221 73/74/73 72/73/72
f 217/200/217 218/199/218 223/204/223
f 218/199/218 225/205/225 223/204/223
f 219/187/219 64/64/64 79/79/79
f 219/187/219 79/79/79 80/212/80
f 202/188/202 219/187/219 201/213/201
f 228/215/228 220/202/220 203/186/203
f 205/190/205 232/220/232 231/219/231
f 231/219/231 233/222/233 212/196/212
f 232/220/232 233/222/233 231/219/231
f 212/196/212 233/222/233 214/197/214
f 236/221/236 218/199/218 233/222/233
f 206/191/206 198/185/198 220/202/220
f 206/191/206 220/202/220 232/220/232
f 235/218/235 234/223/234 220/202/220
f 234/223/234 236/221/236 232/220/232
f 235/218/235 225/205/225 234/223/234
f 234/223/234 218/199/218 236/221/236
f 229/216/229 230/217/230 235/218/235
f 215/198/215 123/117/123 57/56/57
f 216/201/216 217/200/217 127/128/127
f 127/128/127 126/119/126 123/117/123
f 130/121/130 126/119/126 237/224/237
f 126/119/126 130/121/130 131/120/131
f 129/130/129 239/498/239 237/224/237
f 239/498/239 238/225/238 237/224/237
f 130/121/130 241/238/241 240/235/240
f 238/225/238 241/238/241 130/121/130
f 238/225/238 239/498/239 251/234/251
f 242/226/242 227/207/227 78/209/78
f 243/211/243 242/226/242 75/227/75
f 246/232/246 242/226/242 243/211/243
f 226/210/226 245/229/245 244/228/244
f 248/230/248 239/498/239 129/130/129
f 251/234/251 239/498/239 248/230/248
f 247/233/247 250/252/250 249/231/249
f 249/231/249 259/249/259 251/234/251
f 257/241/257 241/238/241 253/237/253
f 252/236/252 254/239/254 256/242/256
f 260/250/260 259/249/259 249/231/249
f 261/499/261 260/250/260 250/252/250
f 261/499/261 262/500/262 260/250/260
f 260/501/260 258/247/258 256/246/256
f 260/501/260 262/423/262 258/247/258
f 267/258/267 147/140/147 144/135/144
f 267/258/267 144/135/144 263/255/263
f 268/502/268 147/140/147 267/258/267
f 267/258/267 263/255/263 266/257/266
f 268/502/268 267/258/267 269/259/269
f 160/151/160 274/503/274 143/253/143
f 159/494/159 278/264/278 275/152/275
f 143/253/143 276/265/276 264/254/264
f 274/503/274 276/265/276 143/253/143
f 160/151/160 277/270/277 274/503/274
f 278/264/278 277/270/277 160/151/160
f 274/503/274 279/268/279 276/265/276
f 274/503/274 277/270/277 279/268/279
f 278/264/278 281/267/281 277/270/277
f 282/271/282 278/264/278 159/494/159
f 282/271/282 284/273/284 280/266/280
f 165/495/165 286/276/286 285/274/285
f 286/276/286 314/295/314 285/274/285
f 288/275/288 314/295/314 286/276/286
f 266/257/266 265/256/265 295/283/295
f 289/284/289 301/278/301 266/257/266
f 271/262/271 272/263/272 291/280/291
f 291/280/291 292/281/292 293/407/293
f 294/269/294 265/256/265 279/268/279
f 281/267/281 296/285/296 294/269/294
f 294/269/294 299/286/299 295/283/295
f 296/285/296 298/287/298 299/286/299
f 297/338/297 295/283/295 299/286/299
f 283/504/283 269/259/269 290/279/290
f 302/289/302 283/504/283 290/279/290
f 297/338/297 301/278/301 295/283/295
f 297/338/297 303/290/303 301/278/301
f 307/297/307 302/289/302 304/291/304
f 297/338/297 299/286/299 300/288/300
f 297/338/297 305/339/305 303/290/303
f 305/339/305 306/340/306 303/290/303
f 306/340/306 304/291/304 303/290/303
f 308/272/308 281/267/281 280/266/280
f 284/273/284 309/296/309 308/272/308
f 308/272/308 310/505/310 281/267/281
f 309/296/309 310/505/310 308/272/308
f 281/267/281 310/505/310 298/287/298
f 310/505/310 311/292/311 298/287/298
f 309/296/309 312/294/312 310/505/310
f 310/505/310 312/294/312 311/292/311
f 285/274/285 314/295/314 284/273/284
f 319/298/319 304/291/304 306/340/306
f 317/302/317 335/301/335 321/304/321
f 315/299/315 365/303/365 322/351/322
f 320/352/320 315/299/315 322/351/322
f 309/296/309 325/308/325 312/294/312
f 324/309/324 326/364/326 325/308/325
f 327/311/327 330/428/330 328/310/328
f 314/295/314 329/307/329 309/296/309
f 332/433/332 328/310/328 330/428/330
f 333/369/333 324/309/324 328/310/328
f 332/433/332 333/369/333 328/310/328
f 335/301/335 318/506/318 320/352/320
f 334/313/334 336/440/336 331/314/331
f 350/327/350 338/317/338 339/319/339
f 339/319/339 338/317/338 340/316/340
f 339/319/339 341/320/341 353/322/353
f 340/316/340 337/318/337 345/343/345
f 340/316/340 345/343/345 343/323/343
f 344/335/344 341/320/341 343/323/343
f 347/324/347 351/326/351 346/507/346
f 350/327/350 339/319/339 349/328/349
f 348/329/348 349/328/349 354/325/354
f 351/326/351 352/414/352 346/507/346
f 354/325/354 349/328/349 353/322/353
f 355/332/355 352/414/352 351/326/351
f 355/332/355 351/326/351 356/330/356
f 342/321/342 356/330/356 353/322/353
f 344/335/344 359/334/359 342/321/342
f 360/416/360 357/331/357 358/333/358
f 359/334/359 361/360/361 358/333/358
f 311/292/311 362/336/362 300/288/300
f 363/363/363 362/336/362 313/293/313
f 365/303/365 319/298/319 306/340/306
f 300/288/300 362/336/362 364/337/364
f 305/339/305 364/337/364 366/346/366
f 366/346/366 364/337/364 362/336/362
f 363/363/363 366/346/366 362/336/362
f 305/339/305 366/346/366 368/342/368
f 363/363/363 369/344/369 366/346/366
f 366/346/366 370/345/370 368/342/368
f 371/347/371 367/341/367 368/342/368
f 372/349/372 371/347/371 370/345/370
f 379/355/379 371/347/371 372/349/372
f 350/327/350 322/351/322 338/317/338
f 374/305/374 375/315/375 322/351/322
f 373/350/373 365/303/365 337/318/337
f 376/348/376 343/323/343 345/343/345
f 343/323/343 377/354/377 344/335/344
f 376/348/376 378/353/378 343/323/343
f 380/356/380 381/362/381 378/353/378
f 323/306/323 374/305/374 382/357/382
f 361/360/361 360/416/360 358/333/358
f 383/359/383 360/416/360 361/360/361
f 384/358/384 361/360/361 377/354/377
f 385/361/385 377/354/377 381/362/381
f 377/354/377 359/334/359 344/335/344
f 377/354/377 361/360/361 359/334/359
f 326/364/326 312/294/312 325/308/325
f 324/309/324 386/367/386 326/364/326
f 312/294/312 388/365/388 363/363/363
f 326/364/326 389/366/389 388/365/388
f 389/366/389 390/371/390 388/365/388
f 388/365/388 369/344/369 363/363/363
f 388/365/388 390/371/390 369/344/369
f 389/366/389 391/368/391 390/371/390
f 391/368/391 393/372/393 390/371/390
f 392/370/392 394/386/394 379/355/379
f 395/373/395 394/386/394 392/370/392
f 396/388/396 395/373/395 393/372/393
f 375/315/375 335/301/335 320/352/320
f 397/375/397 412/377/412 411/389/411
f 399/379/399 473/376/473 397/375/397
f 401/378/401 473/376/473 399/379/399
f 405/382/405 403/380/403 399/379/399
f 405/382/405 399/379/399 397/375/397
f 477/392/477 401/378/401 404/383/404
f 405/382/405 402/381/402 381/362/381
f 407/384/407 403/380/403 405/382/405
f 394/386/394 407/384/407 379/355/379
f 402/381/402 411/389/411 410/393/410
f 413/390/413 477/392/477 404/383/404
f 402/381/402 385/361/385 381/362/381
f 414/394/414 404/383/404 408/459/408
f 415/461/415 414/394/414 408/459/408
f 186/172/186 187/174/187 189/496/189
f 416/400/416 185/175/185 188/173/188
f 188/173/188 187/174/187 419/397/419
f 421/398/421 416/400/416 188/173/188
f 422/405/422 191/399/191 416/400/416
f 417/396/417 423/402/423 419/397/419
f 419/397/419 423/402/423 424/403/424
f 419/397/419 424/403/424 421/398/421
f 429/409/429 425/404/425 424/403/424
f 426/406/426 422/405/422 421/398/421
f 425/404/425 427/508/427 426/406/426
f 293/407/293 428/408/428 291/280/291
f 430/413/430 293/407/293 292/281/292
f 433/412/433 429/409/429 293/407/293
f 431/410/431 427/508/427 425/404/425
f 132/244/132 435/243/435 287/277/287
f 437/418/437 438/419/438 435/243/435
f 441/420/441 437/418/437 442/251/442
f 435/243/435 438/419/438 287/277/287
f 441/420/441 442/251/442 436/417/436
f 327/311/327 288/275/288 287/277/287
f 439/421/439 440/437/440 441/420/441
f 262/423/262 444/424/444 443/422/443
f 443/422/443 436/417/436 258/247/258
f 453/426/453 439/421/439 443/422/443
f 440/437/440 447/429/447 441/420/441
f 441/420/441 447/429/447 438/419/438
f 438/419/438 447/429/447 448/427/448
f 446/430/446 447/429/447 440/437/440
f 448/427/448 447/429/447 449/312/449
f 448/427/448 332/433/332 330/428/330
f 449/312/449 446/430/446 334/313/334
f 449/312/449 332/433/332 448/427/448
f 466/432/466 333/369/333 332/433/332
f 451/434/451 449/312/449 450/431/450
f 454/436/454 446/430/446 440/437/440
f 453/426/453 454/436/454 439/421/439
f 453/426/453 457/443/457 456/438/456
f 336/440/336 450/431/450 331/314/331
f 456/438/456 461/442/461 455/439/455
f 455/439/455 459/444/459 336/440/336
f 460/446/460 336/440/336 459/444/459
f 462/445/462 452/435/452 450/431/450
f 463/447/463 391/368/391 386/367/386
f 467/450/467 451/434/451 452/435/452
f 468/464/468 467/450/467 452/435/452
f 466/432/466 387/448/387 386/367/386
f 469/449/469 387/448/387 451/434/451
f 464/451/464 463/447/463 387/448/387
f 463/447/463 464/451/464 465/453/465
f 465/453/465 393/372/393 391/368/391
f 472/455/472 471/454/471 465/453/465
f 473/376/473 460/446/460 459/444/459
f 458/441/458 398/374/398 461/442/461
f 468/464/468 452/435/452 462/445/462
f 476/456/476 462/445/462 460/446/460
f 468/464/468 462/445/462 476/456/476
f 479/469/479 468/464/468 476/456/476
f 398/374/398 477/392/477 400/391/400
f 476/456/476 460/446/460 473/376/473
f 477/392/477 476/456/476 401/378/401
f 478/458/478 477/392/477 474/457/474
f 478/458/478 479/469/479 476/456/476
f 475/509/475 479/469/479 478/458/478
f 396/388/396 409/387/409 406/385/406
f 396/388/396 481/479/481 409/387/409
f 500/480/500 482/460/482 409/387/409
f 483/510/483 486/482/486 500/480/500
f 483/510/483 493/470/493 486/482/486
f 478/458/478 474/457/474 475/509/475
f 485/467/485 479/469/479 475/509/475
f 484/473/484 485/467/485 475/509/475
f 482/460/482 486/482/486 415/461/415
f 493/470/493 504/511/504 486/482/486
f 487/462/487 467/450/467 488/465/488
f 489/463/489 470/452/470 469/449/469
f 490/466/490 489/463/489 487/462/487
f 491/485/491 470/452/470 489/463/489
f 489/463/489 490/466/490 491/485/491
f 491/485/491 472/455/472 470/452/470
f 488/465/488 468/464/468 479/469/479
f 479/469/479 480/468/480 488/465/488
f 480/468/480 492/471/492 488/465/488
f 488/465/488 492/471/492 490/466/490
f 485/467/485 492/471/492 480/468/480
f 493/470/493 495/474/495 504/511/504
f 472/455/472 497/478/497 498/476/498
f 501/481/501 500/480/500 481/479/481
f 483/510/483 500/480/500 501/481/501
f 502/486/502 483/510/483 501/481/501
f 499/477/499 501/481/501 496/475/496
f 499/477/499 502/486/502 501/481/501
f 504/511/504 503/483/503 486/482/486
f 491/485/491 497/478/497 472/455/472
f 490/466/490 505/484/505 491/485/491
f 502/486/502 493/470/493 483/510/483
f 494/472/494 502/486/502 505/484/505
