# Blender 5.2.1 LTS
# www.blender.org
o ZombieHead0Gore
v -0.268498 -0.370430 0.189319
v -0.232730 -0.392230 0.226508
v -0.234869 -0.351122 0.173258
v -0.226327 -0.376539 0.197067
v -0.202855 -0.359450 0.187609
v -0.148302 -0.344005 0.279426
v -0.132463 -0.366567 0.269089
v -0.120289 -0.367030 0.321632
v -0.110304 -0.397141 0.289513
v -0.152614 -0.508168 0.198364
v -0.159322 -0.522200 0.252662
v -0.126288 -0.527948 0.254624
v -0.145988 -0.501705 0.235920
v -0.128291 -0.506103 0.195876
v -0.120571 -0.502903 0.246436
v -0.100452 -0.500416 0.235740
v -0.178770 -0.360395 0.220000
v -0.159583 -0.352304 0.247904
v -0.150510 -0.378258 0.160689
v -0.129835 -0.396579 0.228333
v -0.144561 -0.385285 0.231701
v -0.118346 -0.396434 0.180512
v -0.185067 -0.487621 0.130773
v -0.178811 -0.440165 0.111759
v -0.187848 -0.462204 0.081008
v -0.167392 -0.487856 0.109368
v -0.154440 -0.468150 0.107136
v -0.152824 -0.482862 0.102751
v -0.160091 -0.497772 0.147755
v -0.135583 -0.449279 0.138342
v -0.127007 -0.507273 0.124587
v -0.111896 -0.495486 0.111705
v -0.112761 -0.430461 0.157016
v -0.119235 -0.450159 0.138692
v -0.113878 -0.471869 0.124648
v -0.093981 -0.434815 0.113378
v -0.162074 -0.371115 0.139878
v -0.117604 -0.409507 0.165690
v -0.187426 -0.473919 0.075916
v -0.089593 -0.533724 0.277443
v -0.045085 -0.515112 0.284718
v -0.043403 -0.559837 0.312740
v -0.017152 -0.540482 0.300185
v -0.021114 -0.520508 0.278068
v 0.000119 -0.526463 0.292312
v -0.050871 -0.388792 0.350815
v -0.059316 -0.408900 0.290353
v -0.024583 -0.405138 0.315779
v 0.008031 -0.403566 0.290879
v 0.001918 -0.388236 0.355686
v -0.079575 -0.512272 0.207636
v -0.025892 -0.526316 0.221276
v 0.032024 -0.520846 0.170973
v -0.001723 -0.586581 0.182889
v -0.088213 -0.504081 0.266701
v -0.062351 -0.511379 0.267047
v -0.083336 -0.404695 0.194893
v -0.042868 -0.396990 0.220534
v -0.024498 -0.396728 0.178192
v 0.008180 -0.395248 0.210349
v -0.049285 -0.511463 0.120689
v -0.045832 -0.588589 0.160176
v -0.010607 -0.590696 0.087177
v -0.002804 -0.508768 0.108353
v -0.092348 -0.492459 0.114551
v -0.085630 -0.508939 0.142791
v -0.073077 -0.477478 0.084487
v -0.086491 -0.449495 0.093976
v -0.045902 -0.497576 0.090040
v -0.087350 -0.413882 0.168265
v -0.056447 -0.419834 0.110631
v -0.013336 -0.425889 0.083978
v 0.009263 -0.403135 0.134428
v -0.057209 -0.459767 0.069358
v -0.056469 -0.433272 0.086286
v -0.019147 -0.476183 0.059716
v -0.008096 -0.449935 0.058982
v -0.215324 -0.033142 0.356516
v -0.242462 0.110608 0.356648
v -0.219599 0.123008 0.380421
v -0.196681 0.124792 0.397916
v -0.249882 -0.253907 0.264999
v -0.263187 -0.004275 0.321069
v -0.246879 -0.020888 0.334059
v -0.278388 0.023385 0.310582
v -0.271226 0.069715 0.321040
v -0.247550 0.050930 0.265623
v -0.254904 0.004735 0.289499
v -0.243097 0.084696 0.290378
v -0.228589 -0.008983 0.281683
v -0.247222 0.027155 0.263484
v -0.263034 0.091141 0.336881
v -0.211752 0.113801 0.325263
v -0.257918 -0.269443 0.212013
v -0.253682 -0.288699 0.179442
v -0.206306 -0.271486 0.230085
v -0.192627 -0.270991 0.261503
v -0.209590 -0.299835 0.183032
v -0.208660 0.026355 0.237209
v -0.210193 0.081906 0.260781
v -0.206843 0.048785 0.236353
v -0.257789 -0.312050 0.162986
v -0.212544 -0.328758 0.171353
v -0.162155 -0.309751 0.378837
v -0.081698 -0.204372 0.419573
v -0.178301 -0.036534 0.370736
v -0.145498 -0.032246 0.376890
v -0.108167 -0.015710 0.395459
v -0.113444 -0.000497 0.321150
v -0.173706 0.119767 0.345637
v -0.145910 0.114531 0.359060
v -0.133435 0.115392 0.420998
v -0.113850 0.096355 0.352608
v -0.106607 0.100602 0.420483
v -0.205644 -0.262680 0.297671
v -0.166247 -0.290624 0.316004
v -0.151650 -0.321130 0.341452
v -0.156732 -0.306001 0.270108
v -0.143717 -0.335938 0.322273
v -0.101930 -0.339327 0.351520
v -0.206563 -0.020372 0.297143
v -0.152164 -0.011211 0.283719
v -0.127906 -0.017701 0.340585
v -0.198172 -0.007946 0.266770
v -0.123810 0.018828 0.271729
v -0.188283 0.105134 0.295321
v -0.144902 0.098339 0.300363
v -0.178634 -0.327023 0.199738
v -0.165518 -0.312471 0.224718
v -0.168138 0.048819 0.233789
v -0.167086 0.022992 0.237412
v -0.144334 0.073129 0.260471
v -0.140174 0.039451 0.245646
v -0.116253 0.053500 0.274777
v -0.170883 0.085487 0.260799
v -0.047674 -0.332858 0.377001
v -0.079940 -0.320862 0.385602
v -0.039578 -0.318572 0.411323
v -0.025872 -0.261653 0.448181
v -0.003564 -0.320414 0.402349
v 0.000050 -0.327317 0.389542
v -0.074386 -0.187266 0.403041
v -0.041447 -0.214293 0.431023
v -0.047032 -0.192837 0.376420
v -0.032187 -0.199823 0.384655
v 0.014411 -0.210030 0.433316
v 0.000044 -0.193903 0.417329
v 0.000423 -0.177538 0.390254
v -0.009664 -0.180352 0.370649
v -0.075959 -0.154598 0.372733
v -0.069871 -0.096759 0.388572
v -0.048048 -0.170496 0.352660
v -0.017890 -0.082486 0.382634
v 0.000174 -0.151661 0.367130
v 0.000050 -0.121014 0.377700
v -0.040937 -0.076397 0.386787
v 0.002318 -0.044854 0.387914
v -0.082640 0.014259 0.398723
v -0.111096 0.075828 0.305358
v -0.075014 0.032962 0.408781
v -0.075481 0.068985 0.415323
v -0.090736 0.033336 0.328579
v -0.095373 0.052614 0.321357
v -0.027107 -0.178362 0.355176
v -0.047724 -0.116456 0.354033
v -0.039008 -0.148287 0.337752
v -0.035935 -0.129460 0.342159
v -0.030564 -0.102431 0.359543
v -0.016139 -0.144164 0.345412
v -0.036177 -0.515568 -0.068388
v 0.002813 -0.513902 -0.076772
v -0.041859 -0.506359 -0.073928
v 0.000141 -0.345906 0.374867
v 0.047825 -0.559646 0.311313
v 0.057923 -0.540632 0.289309
v 0.042659 -0.517854 0.283892
v 0.100636 -0.559528 0.290933
v 0.076954 -0.513158 0.268652
v 0.062519 -0.403097 0.286238
v 0.044301 -0.349624 0.363638
v 0.079647 -0.384294 0.337249
v 0.117496 -0.392978 0.274387
v 0.021045 -0.525773 0.235296
v 0.086157 -0.513471 0.212595
v 0.125059 -0.530243 0.251071
v 0.090071 -0.507605 0.260651
v 0.120109 -0.506039 0.196720
v 0.049849 -0.405164 0.272461
v 0.052758 -0.404153 0.155753
v 0.086698 -0.409511 0.189257
v 0.094225 -0.406680 0.229782
v 0.044911 -0.583365 0.158879
v 0.050895 -0.493055 0.093074
v 0.088908 -0.489069 0.120924
v 0.072833 -0.472368 0.086940
v 0.084151 -0.503519 0.152846
v 0.089124 -0.450170 0.106272
v 0.051919 -0.416820 0.115173
v 0.011803 -0.495009 0.079211
v 0.033782 -0.477668 0.066638
v 0.036891 -0.440465 0.073037
v 0.052374 -0.454808 0.072303
v 0.110504 -0.383236 0.317264
v 0.102314 -0.344455 0.340186
v 0.150490 -0.370819 0.294919
v 0.166978 -0.517869 0.206850
v 0.131921 -0.500528 0.235782
v 0.146128 -0.506318 0.201117
v 0.148468 -0.504214 0.237652
v 0.141112 -0.389717 0.170759
v 0.164938 -0.377865 0.226665
v 0.125479 -0.502079 0.126367
v 0.115462 -0.432756 0.161229
v 0.115335 -0.448248 0.145694
v 0.112434 -0.470346 0.129204
v 0.118003 -0.492062 0.116779
v 0.138060 -0.457404 0.137213
v 0.175790 -0.494443 0.139173
v 0.153721 -0.485764 0.109361
v 0.165496 -0.474275 0.107934
v 0.177797 -0.480451 0.107898
v 0.095031 -0.417503 0.171761
v 0.145547 -0.398080 0.158190
v 0.155471 -0.419298 0.147325
v 0.190189 -0.415252 0.123549
v 0.023819 -0.316178 0.407516
v 0.056330 -0.326434 0.381148
v 0.071960 -0.315628 0.394639
v 0.026128 -0.193397 0.376670
v 0.009487 -0.174925 0.366205
v 0.068806 -0.228044 0.436490
v 0.048873 -0.209038 0.422262
v 0.072119 -0.167226 0.387447
v 0.045748 -0.186519 0.369964
v 0.078066 -0.183341 0.407698
v 0.011883 -0.096361 0.380779
v 0.064829 -0.102110 0.390517
v 0.052297 -0.162689 0.350510
v 0.068079 -0.141035 0.373862
v 0.081079 -0.154863 0.380997
v 0.087496 -0.106827 0.392166
v 0.037241 -0.078962 0.386648
v 0.069162 -0.058359 0.400809
v 0.110212 -0.027407 0.393827
v 0.074213 0.023735 0.402637
v 0.077614 0.049987 0.407527
v 0.089162 -0.007394 0.401042
v 0.092213 0.065553 0.341679
v 0.104650 0.088584 0.422311
v 0.119665 0.099411 0.423982
v 0.017214 -0.139000 0.347863
v 0.030560 -0.171169 0.346160
v 0.039390 -0.110664 0.353457
v 0.036227 -0.140609 0.340705
v 0.096060 0.010191 0.324449
v 0.098205 0.042624 0.309377
v 0.110476 -0.306638 0.413397
v 0.105293 -0.319406 0.370834
v 0.159638 -0.312240 0.357163
v 0.166050 -0.042933 0.368274
v 0.189135 -0.044481 0.369192
v 0.130442 0.096976 0.370425
v 0.176549 0.111906 0.398559
v 0.161884 0.097868 0.320143
v 0.186253 0.104136 0.335400
v 0.213396 0.112123 0.392125
v 0.148411 -0.328949 0.324227
v 0.133130 -0.020711 0.305051
v 0.158606 -0.035122 0.322126
v 0.165769 -0.017924 0.274794
v 0.211938 -0.027394 0.298718
v 0.218528 -0.004787 0.257969
v 0.131927 0.008282 0.262878
v 0.119342 0.059635 0.284722
v 0.119314 0.033971 0.268705
v 0.129299 0.084108 0.319924
v 0.147647 0.065161 0.259217
v 0.197620 0.080041 0.273736
v 0.147291 0.031771 0.243180
v 0.167591 0.069111 0.255235
v 0.182148 0.011598 0.234354
v 0.179412 0.052764 0.238258
v 0.234833 0.103330 0.369952
v 0.242115 -0.026472 0.342074
v 0.250804 -0.006338 0.293485
v 0.274985 0.000783 0.321949
v 0.265186 0.066053 0.323345
v 0.256108 0.024802 0.274832
v 0.276763 0.043461 0.321053
v 0.222984 0.094967 0.320822
v 0.262931 0.077527 0.335021
v 0.217594 0.015998 0.243030
v 0.217918 0.037734 0.244323
v 0.224315 0.058741 0.259773
vn -0.0043 0.7738 0.6334
vn 0.0396 0.8782 0.4767
vn -0.1490 0.4190 0.8957
vn 0.0085 0.8072 0.5902
vn -0.4993 0.2772 0.8209
vn -0.8823 -0.3986 0.2505
vn -0.7241 -0.6284 0.2843
vn -0.7043 -0.5402 0.4606
vn -0.2588 -0.9539 0.1518
vn -0.0809 0.9961 0.0361
vn -0.1279 0.5279 0.8396
vn -0.2368 0.3504 0.9062
vn -0.1487 0.9472 0.2841
vn 0.0425 0.9984 -0.0361
vn -0.1810 0.8122 0.5546
vn 0.1352 0.9892 -0.0560
vn -0.8250 0.2957 0.4815
vn -0.9120 -0.0465 0.4075
vn -0.6485 -0.7483 0.1400
vn -0.3611 -0.9313 0.0471
vn -0.5735 -0.8002 0.1757
vn -0.4614 -0.8527 0.2448
vn 0.2512 0.9477 0.1970
vn -0.5675 -0.4443 0.6932
vn -0.5615 -0.5856 0.5847
vn 0.0105 0.7683 0.6400
vn -0.4278 -0.3739 0.8229
vn 0.0772 0.1498 0.9857
vn 0.2663 0.9578 0.1079
vn -0.3610 -0.5281 0.7687
vn 0.0964 0.9278 0.3604
vn -0.2010 0.3054 0.9308
vn 0.0924 -0.6723 0.7345
vn 0.3469 -0.5841 0.7338
vn 0.2179 -0.4014 0.8896
vn 0.6070 -0.6337 0.4795
vn -0.6825 -0.3648 0.6333
vn -0.4519 -0.5448 0.7064
vn -0.6431 0.4894 0.5890
vn -0.3435 0.3812 0.8583
vn -0.0152 0.8002 0.5996
vn -0.1103 0.6419 0.7588
vn -0.0299 0.5266 0.8496
vn 0.1452 0.9894 0.0047
vn 0.0425 0.6473 0.7610
vn -0.1732 -0.7653 0.6199
vn -0.0759 -0.9915 0.1061
vn 0.0091 -0.9713 0.2378
vn 0.0088 -0.9979 -0.0645
vn 0.1085 -0.8560 0.5054
vn 0.2341 0.9699 -0.0664
vn 0.1188 0.9929 -0.0050
vn -0.1297 0.9769 0.1697
vn 0.0571 -0.9981 -0.0227
vn -0.1318 0.8208 0.5557
vn 0.2726 0.9595 -0.0715
vn -0.0137 -0.9901 0.1400
vn 0.1286 -0.9901 -0.0563
vn 0.0886 -0.9866 0.1371
vn -0.0686 -0.9976 -0.0110
vn 0.1531 0.9423 0.2976
vn 0.0579 -0.9978 0.0325
vn 0.0582 -0.9967 0.0568
vn -0.0494 0.9444 0.3250
vn 0.2885 0.6361 0.7156
vn 0.1151 0.9716 0.2067
vn 0.5418 0.4027 0.7377
vn 0.6584 -0.2711 0.7021
vn 0.2229 0.7952 0.5639
vn 0.1308 -0.9147 0.3825
vn 0.2480 -0.8993 0.3602
vn 0.0439 -0.8263 0.5615
vn -0.0204 -0.9597 0.2804
vn 0.4319 -0.0930 0.8971
vn 0.3179 -0.6966 0.6432
vn 0.1162 0.3899 0.9135
vn 0.0130 -0.3589 0.9333
vn 0.0807 0.9719 0.2209
vn 0.3757 -0.8887 0.2628
vn 0.0599 -0.9832 0.1726
vn -0.0759 -0.9936 0.0832
vn -0.2757 -0.9517 0.1350
vn 0.6078 0.7074 0.3609
vn 0.3364 0.8937 0.2969
vn 0.8627 0.1590 0.4801
vn 0.7891 -0.4351 0.4335
vn 0.6987 -0.2809 0.6580
vn 0.6367 0.5893 0.4973
vn 0.5577 -0.6790 0.4775
vn 0.3770 0.7753 0.5067
vn 0.6644 0.2503 0.7042
vn 0.5709 -0.7437 0.3478
vn 0.2122 -0.9320 0.2937
vn -0.2015 -0.8544 0.4789
vn -0.2203 -0.7146 0.6639
vn -0.4591 -0.8167 0.3495
vn -0.5804 -0.7991 0.1566
vn -0.4508 -0.5577 0.6970
vn 0.3015 0.3359 0.8924
vn 0.2804 -0.6972 0.6598
vn 0.2919 -0.2752 0.9160
vn -0.2097 -0.2861 0.9350
vn -0.4120 0.0162 0.9110
vn -0.4293 -0.8905 0.1504
vn -0.0298 0.7012 0.7124
vn -0.1029 0.9680 0.2291
vn -0.3166 0.9296 0.1885
vn -0.6606 0.7308 0.1719
vn -0.6992 0.6477 0.3027
vn -0.1141 -0.9767 0.1817
vn -0.3441 -0.9279 0.1433
vn -0.3677 -0.9264 0.0806
vn -0.6169 -0.7619 0.1973
vn -0.5924 -0.7977 0.1131
vn -0.5729 -0.8194 -0.0179
vn -0.8095 -0.5869 -0.0130
vn -0.6720 -0.7218 0.1657
vn -0.8758 -0.4594 0.1482
vn -0.7700 -0.5713 0.2843
vn -0.3845 -0.6292 0.6755
vn 0.0788 0.9479 0.3087
vn -0.3210 0.8401 0.4373
vn -0.4699 0.8538 0.2241
vn 0.0663 0.8115 0.5806
vn -0.7020 0.4506 0.5516
vn 0.0139 -0.9137 0.4062
vn -0.3844 -0.8462 0.3691
vn -0.7678 -0.1041 0.6321
vn -0.8509 -0.3372 0.4028
vn -0.1732 -0.2495 0.9528
vn -0.2150 0.4574 0.8629
vn -0.4759 -0.5994 0.6436
vn -0.5943 0.0328 0.8036
vn -0.8031 -0.2115 0.5571
vn -0.1272 -0.7563 0.6417
vn -0.1724 -0.7077 0.6852
vn -0.2105 -0.8434 0.4943
vn -0.0625 -0.9093 0.4115
vn -0.0633 0.3215 0.9448
vn 0.0631 -0.8710 0.4872
vn 0.0314 -0.7889 0.6138
vn 0.3065 0.8057 0.5068
vn -0.0294 0.7465 0.6648
vn 0.3187 0.8011 0.5066
vn -0.0805 0.9133 0.3993
vn 0.1226 0.7624 0.6353
vn 0.0446 0.8691 0.4926
vn -0.0858 0.8325 0.5473
vn -0.6384 0.5797 0.5064
vn 0.6872 0.0026 0.7264
vn 0.4662 -0.6060 0.6445
vn 0.3853 0.5201 0.7623
vn -0.1099 -0.3637 0.9250
vn -0.0274 0.1917 0.9811
vn -0.0057 -0.4247 0.9053
vn 0.2017 -0.5711 0.7957
vn -0.0165 -0.1302 0.9913
vn -0.8796 0.4341 0.1947
vn -0.7336 -0.5718 0.3672
vn -0.9783 0.0780 0.1921
vn -0.8889 -0.4183 0.1867
vn -0.9339 0.1871 0.3045
vn -0.9173 -0.2359 0.3209
vn -0.2016 0.6419 0.7398
vn 0.4230 -0.4734 0.7727
vn 0.1887 0.0953 0.9774
vn 0.0298 -0.3761 0.9261
vn -0.1587 -0.5952 0.7878
vn -0.5844 -0.0204 0.8112
vn -0.1483 -0.5753 -0.8043
vn 0.0449 -0.5365 0.8427
vn 0.0846 0.6991 0.7100
vn 0.2405 0.5152 0.8226
vn 0.0639 0.8245 0.5623
vn 0.2775 0.6852 0.6734
vn 0.0743 0.8446 0.5301
vn 0.1171 -0.9748 0.1897
vn 0.2477 -0.5569 0.7928
vn 0.2759 -0.7082 0.6499
vn 0.2777 -0.9452 0.1717
vn -0.0827 0.9959 -0.0355
vn -0.2119 0.9773 0.0092
vn 0.3512 0.4244 0.8346
vn 0.0344 0.8627 0.5045
vn -0.1336 0.9910 -0.0004
vn -0.0265 -0.9988 0.0401
vn -0.2306 -0.9558 0.1824
vn 0.0453 -0.9870 0.1542
vn 0.2196 -0.9731 0.0701
vn 0.0579 -0.9979 0.0304
vn -0.3283 0.8175 0.4732
vn -0.2553 0.7443 0.6171
vn -0.6136 0.2911 0.7340
vn -0.0491 0.9581 0.2823
vn -0.6668 -0.4320 0.6072
vn -0.3291 -0.8365 0.4381
vn -0.0919 0.8188 0.5666
vn -0.2792 0.3912 0.8769
vn -0.2734 -0.6118 0.7422
vn -0.4705 -0.2285 0.8523
vn 0.2273 -0.9410 0.2509
vn 0.3831 -0.6087 0.6948
vn 0.4290 -0.5036 0.7499
vn 0.5001 0.8621 -0.0817
vn 0.0766 0.9246 0.3731
vn 0.1608 0.9870 -0.0025
vn 0.2415 0.9161 0.3201
vn 0.4118 -0.8418 0.3489
vn 0.3700 -0.9277 0.0488
vn -0.0174 0.9137 0.4059
vn 0.1435 -0.5071 0.8499
vn -0.3052 -0.6828 0.6638
vn -0.3521 -0.3663 0.8613
vn 0.1695 0.1931 0.9664
vn 0.3118 -0.5365 0.7842
vn -0.1739 0.9510 0.2555
vn 0.0055 0.4782 0.8782
vn 0.2868 -0.2472 0.9256
vn -0.1179 0.7221 0.6817
vn -0.0671 -0.8136 0.5775
vn 0.4092 -0.4474 0.7952
vn 0.4668 -0.3721 0.8023
vn 0.5456 -0.4201 0.7252
vn 0.0858 -0.8812 0.4649
vn 0.1975 -0.7797 0.5941
vn 0.1631 -0.8944 0.4164
vn 0.2206 0.8612 0.4578
vn 0.6749 0.5086 0.5347
vn 0.1961 0.7111 0.6752
vn -0.0306 0.8474 0.5301
vn -0.5509 0.5797 0.6004
vn -0.4248 0.7578 0.4952
vn -0.3150 0.6954 0.6459
vn 0.1906 -0.3795 0.9053
vn -0.4597 -0.4083 0.7887
vn -0.6263 0.2611 0.7346
vn -0.6867 -0.0971 0.7205
vn -0.0979 0.5152 0.8515
vn -0.1489 -0.3995 0.9046
vn -0.1816 -0.4306 0.8841
vn -0.2921 -0.1915 0.9370
vn 0.6014 0.7742 0.1974
vn 0.9733 0.1113 0.2008
vn 0.9191 -0.3769 0.1147
vn 0.8115 0.5493 0.1992
vn 0.8265 -0.5064 0.2460
vn 0.7127 -0.6958 0.0888
vn 0.2538 -0.9626 0.0948
vn 0.5648 -0.1491 0.8116
vn 0.1351 0.4978 0.8567
vn -0.1941 -0.5347 0.8224
vn -0.1587 -0.1470 0.9763
vn 0.8665 0.3891 0.3127
vn 0.9092 -0.1215 0.3983
vn 0.0888 -0.9570 0.2763
vn 0.2408 -0.8441 0.4791
vn 0.2148 -0.8986 0.3827
vn 0.1616 0.9725 0.1677
vn -0.0346 0.9738 0.2249
vn 0.3928 -0.9075 0.1489
vn 0.1560 -0.9804 0.1206
vn 0.2082 -0.9323 0.2957
vn 0.0008 -0.9723 0.2336
vn -0.0674 -0.9830 0.1707
vn 0.3725 -0.6997 0.6097
vn 0.5095 0.7896 0.3420
vn 0.1687 0.9584 0.2302
vn 0.1723 0.8447 0.5067
vn -0.2072 0.9224 0.3260
vn -0.3546 0.7027 0.6168
vn 0.6031 0.4936 0.6265
vn 0.6788 -0.5514 0.4849
vn 0.7875 -0.0519 0.6141
vn 0.4683 -0.8300 0.3029
vn 0.4485 -0.6409 0.6230
vn -0.1581 -0.8513 0.5003
vn 0.4885 -0.0241 0.8722
vn 0.1299 -0.7817 0.6099
vn 0.0495 0.3847 0.9217
vn 0.0089 -0.4365 0.8997
vn -0.1668 -0.9629 0.2121
vn -0.3175 0.9266 0.2013
vn -0.5981 0.6423 0.4793
vn -0.7369 0.4353 0.5171
vn -0.6177 -0.5997 0.5088
vn -0.7595 0.0133 0.6504
vn -0.7448 -0.4331 0.5077
vn -0.2894 -0.8853 0.3639
vn -0.4905 -0.6671 0.5607
vn -0.4455 0.2384 0.8630
vn -0.4427 -0.2352 0.8653
vn -0.5001 -0.5840 0.6394
vt 0.347744 0.230942
vt 0.364019 0.214192
vt 0.351154 0.220744
vt 0.372844 0.220134
vt 0.427196 0.218278
vt 0.433238 0.257821
vt 0.422343 0.236674
vt 0.395630 0.145671
vt 0.411807 0.160789
vt 0.407713 0.137932
vt 0.427582 0.158966
vt 0.410460 0.165387
vt 0.426721 0.157200
vt 0.407641 0.158706
vt 0.417713 0.186209
vt 0.380204 0.167788
vt 0.347905 0.138474
vt 0.368626 0.131317
vt 0.342109 0.123816
vt 0.314799 0.132634
vt 0.346526 0.121530
vt 0.338905 0.142206
vt 0.374864 0.098322
vt 0.373469 0.107372
vt 0.344208 0.115977
vt 0.376603 0.129572
vt 0.386983 0.122844
vt 0.400878 0.134354
vt 0.382181 0.109374
vt 0.389845 0.103947
vt 0.363322 0.166554
vt 0.401760 0.146606
vt 0.487938 0.156559
vt 0.475005 0.162401
vt 0.500065 0.161337
vt 0.490916 0.161597
vt 0.487635 0.211212
vt 0.477081 0.235318
vt 0.467928 0.199626
vt 0.504393 0.198852
vt 0.534225 0.200062
vt 0.435891 0.150643
vt 0.449161 0.161832
vt 0.441753 0.130357
vt 0.463494 0.156681
vt 0.435690 0.153576
vt 0.469444 0.163923
vt 0.478255 0.135492
vt 0.423792 0.136728
vt 0.506186 0.155776
vt 0.438296 0.079441
vt 0.414026 0.100641
vt 0.481461 0.127459
vt 0.392014 0.092419
vt 0.386505 0.073153
vt 0.381598 0.088122
vt 0.424966 0.063786
vt 0.424911 0.091554
vt 0.407772 0.074376
vt 0.510949 0.102678
vt 0.390230 0.061470
vt 0.450617 0.041680
vt 0.495883 0.066815
vt 0.523542 0.051056
vt 0.474935 0.062727
vt 0.478289 0.041875
vt 0.398707 0.484007
vt 0.413526 0.474724
vt 0.403318 0.482100
vt 0.388355 0.552325
vt 0.383691 0.517828
vt 0.380603 0.544359
vt 0.380066 0.523878
vt 0.389069 0.570036
vt 0.391501 0.492119
vt 0.390716 0.496723
vt 0.404974 0.579916
vt 0.394493 0.566876
vt 0.408153 0.590788
vt 0.383664 0.270559
vt 0.347982 0.261695
vt 0.364250 0.238126
vt 0.385100 0.503907
vt 0.385177 0.526493
vt 0.385582 0.549050
vt 0.392030 0.576340
vt 0.339730 0.246358
vt 0.357989 0.220598
vt 0.425881 0.595573
vt 0.451150 0.581350
vt 0.426938 0.587240
vt 0.450294 0.580981
vt 0.438569 0.591460
vt 0.433479 0.274001
vt 0.416320 0.253236
vt 0.455082 0.262032
vt 0.443040 0.239412
vt 0.428654 0.471805
vt 0.421651 0.488920
vt 0.441364 0.474647
vt 0.442823 0.484525
vt 0.457507 0.487808
vt 0.445957 0.499536
vt 0.431956 0.520043
vt 0.457118 0.531030
vt 0.436299 0.556477
vt 0.454083 0.549557
vt 0.409668 0.592826
vt 0.428462 0.591277
vt 0.419467 0.576652
vt 0.444465 0.572975
vt 0.398961 0.232061
vt 0.398956 0.278666
vt 0.391397 0.212153
vt 0.408971 0.221802
vt 0.383868 0.218508
vt 0.402397 0.525157
vt 0.398314 0.492390
vt 0.417471 0.544116
vt 0.400769 0.553454
vt 0.500020 0.277561
vt 0.498590 0.285938
vt 0.484733 0.290943
vt 0.479980 0.271021
vt 0.500060 0.262783
vt 0.469393 0.358038
vt 0.484743 0.353720
vt 0.470953 0.363575
vt 0.486713 0.347947
vt 0.480217 0.350300
vt 0.490823 0.332026
vt 0.505291 0.356404
vt 0.500017 0.361551
vt 0.487877 0.352232
vt 0.495851 0.355893
vt 0.478674 0.399691
vt 0.483218 0.438263
vt 0.471684 0.423496
vt 0.471387 0.551564
vt 0.460481 0.572539
vt 0.478449 0.357801
vt 0.468004 0.377125
vt 0.481700 0.369089
vt 0.483346 0.385439
vt 0.486503 0.411958
vt 0.492569 0.374267
vt 0.500075 0.375303
vt 0.500021 0.401304
vt 0.492564 0.432487
vt 0.467474 0.511141
vt 0.994171 0.047234
vt 1.077440 0.047413
vt 1.081997 0.052912
vt 0.523738 0.161124
vt 0.524260 0.163170
vt 0.531449 0.159020
vt 0.514197 0.134416
vt 0.544400 0.158733
vt 0.561280 0.133735
vt 0.529469 0.102598
vt 0.528800 0.190877
vt 0.564392 0.206769
vt 0.561936 0.174508
vt 0.543845 0.087792
vt 0.455645 0.087803
vt 0.480730 0.046979
vt 0.579641 0.067456
vt 0.580098 0.106179
vt 0.600901 0.094782
vt 0.567404 0.093676
vt 0.551980 0.123005
vt 0.611068 0.095134
vt 0.580430 0.139897
vt 0.574675 0.049387
vt 0.599773 0.061700
vt 0.610984 0.075007
vt 0.574440 0.058466
vt 0.581187 0.157553
vt 0.552953 0.158415
vt 0.573550 0.154880
vt 0.587240 0.136045
vt 0.588872 0.161462
vt 0.600004 0.145282
vt 0.568367 0.149700
vt 0.600118 0.203168
vt 0.624439 0.108495
vt 0.625830 0.103578
vt 0.613972 0.111160
vt 0.606572 0.125090
vt 0.625490 0.128068
vt 0.629281 0.150327
vt 0.598911 0.136774
vt 0.643421 0.135515
vt 0.651586 0.117913
vt 0.658023 0.125647
vt 0.658311 0.159121
vt 0.618379 0.157604
vt 0.609916 0.164525
vt 0.519294 0.257425
vt 0.523353 0.276262
vt 0.509292 0.290226
vt 0.528705 0.287799
vt 0.511022 0.349323
vt 0.500172 0.364099
vt 0.519581 0.352329
vt 0.518339 0.354521
vt 0.529290 0.372263
vt 0.530110 0.367612
vt 0.504122 0.358195
vt 0.523572 0.363010
vt 0.528668 0.386880
vt 0.533372 0.379549
vt 0.515282 0.436163
vt 0.504965 0.421140
vt 0.500951 0.463358
vt 0.526182 0.419646
vt 0.527195 0.454637
vt 0.541954 0.558299
vt 0.529953 0.538170
vt 0.529010 0.518432
vt 0.538660 0.563935
vt 0.507869 0.379130
vt 0.517664 0.403976
vt 0.514014 0.354316
vt 0.516859 0.376041
vt 0.548919 0.541561
vt 0.543428 0.478700
vt 0.545813 0.509584
vt 0.534818 0.494272
vt 0.544031 0.279755
vt 0.553887 0.577060
vt 0.566366 0.579988
vt 0.543781 0.570645
vt 0.580678 0.584368
vt 0.574511 0.584775
vt 0.546497 0.254906
vt 0.565493 0.480218
vt 0.572818 0.468963
vt 0.586390 0.482240
vt 0.598210 0.476237
vt 0.567417 0.466298
vt 0.575349 0.465998
vt 0.611856 0.495493
vt 0.574028 0.508961
vt 0.563170 0.560738
vt 0.566508 0.536617
vt 0.561128 0.576103
vt 0.582404 0.568453
vt 0.586675 0.535424
vt 0.605154 0.512432
vt 0.602723 0.555736
vt 0.592471 0.570853
vt 0.599519 0.574096
vt 0.579320 0.578325
vt 0.612545 0.494774
vt 0.619390 0.520985
vt 0.609323 0.549866
vt 0.613363 0.553956
vt 0.613230 0.532523
vt 0.616220 0.515598
vt 0.615918 0.536527
vt 0.450287 0.159144
vt 0.442064 0.210879
vt 0.411221 0.196277
vt 0.311250 0.128375
vt 0.478052 0.163457
vt 0.500858 0.236084
vt 0.416678 0.586912
vt 0.359502 0.283865
vt 0.379671 0.306220
vt 0.368789 0.208609
vt 0.403782 0.300105
vt 0.422921 0.282540
vt 0.435632 0.294826
vt 0.467466 0.282375
vt 0.407683 0.585179
vt 0.471115 0.525193
vt 0.536911 0.233565
vt 0.553343 0.229105
vt 0.498501 0.096209
vt 0.568321 0.262823
vt 0.575095 0.232005
vt 0.553003 0.160107
vt 0.608089 0.150959
vt 0.663189 0.130036
vt 0.524884 0.348349
vt 0.534937 0.417286
vt 0.541561 0.302080
vt 0.566897 0.285587
vt 0.590017 0.573714
vt 0.598029 0.479920
vt 0.612504 0.500589
vt 0.596669 0.575899
vt 0.605904 0.557317
s 1
f 1/1/1 4/2/4 3/3/3
f 1/1/1 2/4/2 4/2/4
f 7/5/7 119/6/119 6/7/6
f 10/8/10 13/9/13 14/10/14
f 15/11/15 11/12/11 12/13/12
f 22/14/22 20/15/20 19/16/19
f 23/17/23 29/18/29 26/19/26
f 25/20/25 27/21/27 24/22/24
f 32/23/32 26/19/26 31/24/31
f 28/25/28 26/19/26 32/23/32
f 30/26/30 34/27/34 33/28/33
f 31/24/31 29/18/29 14/10/14
f 34/27/34 30/26/30 35/29/35
f 35/29/35 30/26/30 27/21/27
f 27/21/27 32/23/32 35/29/35
f 27/21/27 28/25/28 32/23/32
f 33/28/33 34/27/34 36/30/36
f 36/30/36 34/27/34 35/29/35
f 37/31/37 38/32/38 19/16/19
f 38/32/38 24/22/24 30/26/30
f 44/33/44 41/34/41 45/35/45
f 41/34/41 43/36/43 45/35/45
f 48/37/48 46/38/46 47/39/47
f 49/40/49 179/41/177 48/37/48
f 16/42/16 15/11/15 55/43/55
f 14/10/14 16/42/16 51/44/51
f 51/44/51 16/42/16 56/45/56
f 56/45/56 55/43/55 41/34/41
f 57/46/57 20/15/20 22/14/22
f 57/46/57 47/39/47 20/15/20
f 58/47/58 47/39/47 57/46/57
f 59/48/59 57/46/57 70/49/70
f 60/50/60 49/40/49 58/47/58
f 59/48/59 60/50/60 58/47/58
f 61/51/61 66/52/66 52/53/52
f 65/54/65 31/24/31 66/52/66
f 67/55/67 35/29/35 65/54/65
f 68/56/68 35/29/35 67/55/67
f 65/54/65 66/52/66 61/51/61
f 65/54/65 61/51/61 69/57/69
f 67/55/67 65/54/65 69/57/69
f 71/58/71 70/49/70 36/30/36
f 75/59/75 71/58/71 36/30/36
f 59/48/59 70/49/70 71/58/71
f 73/60/73 59/48/59 71/58/71
f 74/61/74 75/59/75 68/56/68
f 76/62/76 67/55/67 69/57/69
f 69/57/69 64/63/64 199/64/197
f 69/57/69 199/64/197 76/62/76
f 72/65/72 75/59/75 77/66/77
f 84/67/84 78/68/78 121/69/121
f 86/70/86 85/71/85 87/72/87
f 87/72/87 85/71/85 91/73/91
f 89/74/89 86/70/86 87/72/87
f 90/75/90 83/76/83 84/67/84
f 89/74/89 79/77/79 92/78/92
f 93/79/93 79/77/79 89/74/89
f 96/80/96 95/81/95 98/82/98
f 91/73/91 88/83/88 99/84/99
f 99/84/99 101/85/101 91/73/91
f 89/74/89 87/72/87 100/86/100
f 95/81/95 102/87/102 98/82/98
f 98/82/98 102/87/102 103/88/103
f 110/89/110 112/90/112 81/91/81
f 113/92/113 112/90/112 111/93/111
f 119/6/119 117/94/117 118/95/118
f 120/96/120 119/6/119 8/97/8
f 120/96/120 117/94/117 119/6/119
f 78/68/78 106/98/106 121/69/121
f 121/69/121 106/98/106 122/99/122
f 106/98/106 107/100/107 122/99/122
f 123/101/123 107/100/107 108/102/108
f 109/103/109 123/101/123 108/102/108
f 125/104/125 109/103/109 162/105/162
f 134/106/134 162/105/162 163/107/163
f 126/108/126 93/79/93 100/86/100
f 110/89/110 81/91/81 93/79/93
f 126/108/126 110/89/110 93/79/93
f 126/108/126 127/109/127 110/89/110
f 132/110/132 159/111/159 127/109/127
f 159/111/159 113/92/113 127/109/127
f 96/80/96 129/112/129 97/113/97
f 17/114/17 18/115/18 128/116/128
f 129/112/129 6/7/6 118/95/118
f 131/117/131 124/118/124 122/99/122
f 131/117/131 125/104/125 133/119/133
f 132/110/132 130/120/130 133/119/133
f 134/106/134 159/111/159 132/110/132
f 141/121/141 140/122/140 138/123/138
f 141/121/141 136/124/136 173/125/171
f 105/126/105 143/127/143 142/128/142
f 142/128/142 143/127/143 145/129/145
f 144/130/144 142/128/142 145/129/145
f 143/127/143 139/131/139 146/132/146
f 143/127/143 146/132/146 147/133/147
f 145/129/145 143/127/143 147/133/147
f 164/134/164 145/129/145 149/135/149
f 165/136/165 156/137/156 151/138/151
f 162/105/162 161/139/161 163/107/163
f 113/92/113 161/139/161 114/140/114
f 152/141/152 145/129/145 164/134/164
f 165/136/165 150/142/150 166/143/166
f 166/143/166 152/141/152 164/134/164
f 165/136/165 167/144/167 168/145/168
f 169/146/169 164/134/164 149/135/149
f 168/145/168 167/144/167 169/146/169
f 149/135/149 154/147/154 169/146/169
f 169/146/169 154/147/154 155/148/155
f 168/145/168 153/149/153 156/137/156
f 162/105/162 109/103/109 158/150/158
f 171/151/170 170/152/170 172/153/170
f 44/33/44 45/35/45 176/154/174
f 43/36/43 174/155/172 175/156/173
f 45/35/45 175/156/173 176/154/174
f 52/53/52 44/33/44 183/157/181
f 183/157/181 176/154/174 178/158/176
f 183/157/181 178/158/176 184/159/182
f 53/160/53 183/157/181 184/159/182
f 60/50/60 188/161/186 49/40/49
f 182/162/180 179/41/177 191/163/189
f 192/164/190 62/165/62 63/166/63
f 64/63/64 53/160/53 193/167/191
f 196/168/194 53/160/53 184/159/182
f 194/169/192 53/160/53 196/168/194
f 72/65/72 198/170/196 73/60/73
f 189/171/187 60/50/60 73/60/73
f 197/172/195 222/173/220 198/170/196
f 199/64/197 64/63/64 193/167/191
f 77/66/77 200/174/198 202/175/200
f 200/174/198 199/64/197 193/167/191
f 200/174/198 193/167/191 195/176/193
f 202/175/200 200/174/198 195/176/193
f 201/177/199 197/172/195 198/170/196
f 202/175/200 195/176/193 197/172/195
f 201/177/199 198/170/196 72/65/72
f 207/178/205 186/179/184 185/180/183
f 187/181/185 184/159/182 186/179/184
f 207/178/205 209/182/207 208/183/206
f 190/184/188 211/185/209 191/163/189
f 184/159/182 187/181/185 212/186/210
f 194/169/192 196/168/194 212/186/210
f 194/169/192 216/187/214 215/188/213
f 215/188/213 214/189/212 197/172/195
f 217/190/215 215/188/213 216/187/214
f 224/191/222 213/192/211 217/190/215
f 218/193/216 187/181/185 208/183/206
f 219/194/217 212/186/210 218/193/216
f 224/191/222 220/195/218 225/196/223
f 222/173/220 213/192/211 223/197/221
f 222/173/220 210/198/208 190/184/188
f 173/125/171 180/199/178 227/200/225
f 227/200/225 226/201/224 141/121/141
f 227/200/225 228/202/226 226/201/224
f 229/203/227 148/204/148 147/133/147
f 234/205/232 229/203/227 232/206/230
f 233/207/231 232/206/230 235/208/233
f 230/209/228 154/147/154 148/204/148
f 234/205/232 233/207/231 238/210/236
f 239/211/237 233/207/231 240/212/238
f 242/213/240 153/149/153 236/214/234
f 157/215/157 153/149/153 242/213/240
f 242/213/240 237/216/235 243/217/241
f 248/218/246 246/219/244 245/220/243
f 248/218/246 249/221/247 246/219/244
f 236/214/234 155/148/155 251/222/249
f 253/223/251 236/214/234 251/222/249
f 252/224/250 251/222/249 230/209/228
f 251/222/249 252/224/250 254/225/252
f 251/222/249 254/225/252 253/223/251
f 252/224/250 229/203/227 234/205/232
f 253/223/251 239/211/237 237/216/235
f 253/223/251 242/213/240 236/214/234
f 248/218/246 245/220/243 256/226/254
f 244/227/242 255/228/253 247/229/245
f 258/230/256 228/202/226 227/200/225
f 262/231/260 249/221/247 248/218/246
f 263/232/261 250/233/248 262/231/260
f 265/234/263 263/232/261 264/235/262
f 227/200/225 204/236/202 258/230/256
f 268/237/266 269/238/267 270/239/268
f 271/240/269 260/241/258 261/242/259
f 270/239/268 271/240/269 272/243/270
f 268/237/266 255/228/253 244/227/242
f 273/244/271 255/228/253 268/237/266
f 274/245/272 256/226/254 275/246/273
f 275/246/273 256/226/254 255/228/253
f 276/247/274 262/231/260 248/218/246
f 276/247/274 264/235/262 262/231/260
f 277/248/275 264/235/262 276/247/274
f 274/245/272 275/246/273 277/248/275
f 273/244/271 279/249/277 275/246/273
f 270/239/268 273/244/271 268/237/266
f 279/249/277 273/244/271 281/250/279
f 282/251/280 279/249/277 281/250/279
f 280/252/278 278/253/276 264/235/262
f 265/234/263 266/254/264 263/232/261
f 271/240/269 285/255/283 272/243/270
f 288/256/286 287/257/285 294/258/292
f 289/259/287 287/257/285 288/256/286
f 281/250/279 272/243/270 292/260/290
f 294/258/292 282/251/280 293/261/291
f 294/258/292 278/253/276 282/251/280
f 293/261/291 281/250/279 292/260/290
f 292/260/290 288/256/286 293/261/291
f 7/5/7 8/97/8 119/6/119
f 15/11/15 13/9/13 11/12/11
f 16/42/16 14/10/14 13/9/13
f 15/11/15 12/13/12 40/262/40
f 16/42/16 13/9/13 15/11/15
f 18/115/18 7/5/7 6/7/6
f 20/15/20 9/263/9 21/264/21
f 24/22/24 27/21/27 30/26/30
f 27/21/27 26/19/26 28/25/28
f 29/18/29 10/8/10 14/10/14
f 31/24/31 26/19/26 29/18/29
f 37/31/37 24/22/24 38/32/38
f 19/16/19 38/32/38 22/14/22
f 33/28/33 38/32/38 30/26/30
f 39/265/39 26/19/26 27/21/27
f 55/43/55 40/262/40 41/34/41
f 40/262/40 42/266/42 43/36/43
f 41/34/41 40/262/40 43/36/43
f 41/34/41 44/33/44 56/45/56
f 136/124/136 120/96/120 46/38/46
f 9/263/9 47/39/47 46/38/46
f 48/37/48 50/267/50 46/38/46
f 173/125/171 136/124/136 46/38/46
f 47/39/47 49/40/49 48/37/48
f 51/44/51 56/45/56 52/53/52
f 52/53/52 66/52/66 51/44/51
f 52/53/52 56/45/56 44/33/44
f 15/11/15 40/262/40 55/43/55
f 16/42/16 55/43/55 56/45/56
f 20/15/20 47/39/47 9/263/9
f 59/48/59 58/47/58 57/46/57
f 58/47/58 49/40/49 47/39/47
f 61/51/61 52/53/52 53/160/53
f 64/63/64 61/51/61 53/160/53
f 65/54/65 32/23/32 31/24/31
f 65/54/65 35/29/35 32/23/32
f 68/56/68 36/30/36 35/29/35
f 66/52/66 14/10/14 51/44/51
f 66/52/66 31/24/31 14/10/14
f 38/32/38 57/46/57 22/14/22
f 38/32/38 33/28/33 70/49/70
f 70/49/70 57/46/57 38/32/38
f 36/30/36 70/49/70 33/28/33
f 71/58/71 72/65/72 73/60/73
f 74/61/74 68/56/68 67/55/67
f 75/59/75 36/30/36 68/56/68
f 76/62/76 74/61/74 67/55/67
f 75/59/75 74/61/74 77/66/77
f 77/66/77 74/61/74 76/62/76
f 69/57/69 61/51/61 64/63/64
f 75/59/75 72/65/72 71/58/71
f 88/83/88 85/71/85 83/76/83
f 88/83/88 91/73/91 85/71/85
f 88/83/88 83/76/83 90/75/90
f 90/75/90 84/67/84 121/69/121
f 89/74/89 92/78/92 86/70/86
f 93/79/93 80/268/80 79/77/79
f 89/74/89 100/86/100 93/79/93
f 96/80/96 94/269/94 95/81/95
f 96/80/96 97/113/97 82/270/82
f 90/75/90 99/84/99 88/83/88
f 101/85/101 87/72/87 91/73/91
f 87/72/87 101/85/101 100/86/100
f 99/84/99 90/75/90 124/118/124
f 103/88/103 102/87/102 3/3/3
f 103/88/103 3/3/3 5/271/5
f 110/89/110 111/93/111 112/90/112
f 113/92/113 114/140/114 112/90/112
f 115/272/115 97/113/97 116/273/116
f 116/273/116 117/94/117 104/274/104
f 118/95/118 117/94/117 116/273/116
f 6/7/6 119/6/119 118/95/118
f 117/94/117 137/275/137 104/274/104
f 120/96/120 137/275/137 117/94/117
f 123/101/123 122/99/122 107/100/107
f 124/118/124 90/75/90 121/69/121
f 124/118/124 121/69/121 122/99/122
f 125/104/125 122/99/122 109/103/109
f 109/103/109 122/99/122 123/101/123
f 125/104/125 162/105/162 134/106/134
f 93/79/93 81/91/81 80/268/80
f 127/109/127 111/93/111 110/89/110
f 135/276/135 127/109/127 126/108/126
f 127/109/127 113/92/113 111/93/111
f 159/111/159 134/106/134 163/107/163
f 97/113/97 129/112/129 118/95/118
f 98/82/98 129/112/129 96/80/96
f 128/116/128 129/112/129 98/82/98
f 118/95/118 116/273/116 97/113/97
f 129/112/129 128/116/128 18/115/18
f 129/112/129 18/115/18 6/7/6
f 131/117/131 99/84/99 124/118/124
f 130/120/130 101/85/101 99/84/99
f 101/85/101 130/120/130 135/276/135
f 130/120/130 99/84/99 131/117/131
f 131/117/131 133/119/133 130/120/130
f 125/104/125 131/117/131 122/99/122
f 132/110/132 133/119/133 134/106/134
f 134/106/134 133/119/133 125/104/125
f 100/86/100 135/276/135 126/108/126
f 100/86/100 101/85/101 135/276/135
f 132/110/132 135/276/135 130/120/130
f 132/110/132 127/109/127 135/276/135
f 103/88/103 5/271/5 128/116/128
f 98/82/98 103/88/103 128/116/128
f 136/124/136 138/123/138 137/275/137
f 136/124/136 141/121/141 138/123/138
f 149/135/149 145/129/145 147/133/147
f 149/135/149 147/133/147 148/204/148
f 144/130/144 152/141/152 142/128/142
f 149/135/149 148/204/148 154/147/154
f 157/215/157 156/137/156 153/149/153
f 109/103/109 108/102/108 158/150/158
f 162/105/162 160/277/160 161/139/161
f 162/105/162 158/150/158 160/277/160
f 113/92/113 159/111/159 161/139/161
f 159/111/159 163/107/163 161/139/161
f 137/275/137 120/96/120 136/124/136
f 152/141/152 144/130/144 145/129/145
f 166/143/166 150/142/150 152/141/152
f 167/144/167 165/136/165 166/143/166
f 166/143/166 164/134/164 169/146/169
f 169/146/169 167/144/167 166/143/166
f 153/149/153 169/146/169 155/148/155
f 153/149/153 168/145/168 169/146/169
f 168/145/168 156/137/156 165/136/165
f 43/36/43 42/266/42 174/155/172
f 175/156/173 45/35/45 43/36/43
f 178/158/176 176/154/174 175/156/173
f 180/199/178 173/125/171 50/267/50
f 48/37/48 181/278/179 50/267/50
f 48/37/48 179/41/177 181/278/179
f 204/236/202 180/199/178 181/278/179
f 179/41/177 182/162/180 203/279/201
f 53/160/53 52/53/52 183/157/181
f 176/154/174 183/157/181 44/33/44
f 186/179/184 178/158/176 175/156/173
f 184/159/182 178/158/176 186/179/184
f 188/161/186 179/41/177 49/40/49
f 60/50/60 190/184/188 188/161/186
f 189/171/187 190/184/188 60/50/60
f 188/161/186 191/163/189 179/41/177
f 190/184/188 191/163/189 188/161/186
f 62/165/62 192/164/190 54/280/54
f 194/169/192 193/167/191 53/160/53
f 193/167/191 194/169/192 195/176/193
f 195/176/193 194/169/192 215/188/213
f 197/172/195 195/176/193 215/188/213
f 73/60/73 60/50/60 59/48/59
f 198/170/196 189/171/187 73/60/73
f 189/171/187 222/173/220 190/184/188
f 198/170/196 222/173/220 189/171/187
f 197/172/195 214/189/212 222/173/220
f 77/66/77 201/177/199 72/65/72
f 76/62/76 199/64/197 200/174/198
f 77/66/77 76/62/76 200/174/198
f 201/177/199 77/66/77 202/175/200
f 202/175/200 197/172/195 201/177/199
f 267/281/265 204/236/202 205/282/203
f 185/180/183 175/156/173 177/283/175
f 185/180/183 186/179/184 175/156/173
f 187/181/185 186/179/184 207/178/205
f 207/178/205 208/183/206 187/181/185
f 209/182/207 207/178/205 185/180/183
f 206/284/204 208/183/206 209/182/207
f 191/163/189 211/185/209 182/162/180
f 210/198/208 211/185/209 190/184/188
f 196/168/194 184/159/182 212/186/210
f 216/187/214 194/169/192 212/186/210
f 214/189/212 217/190/215 213/192/211
f 214/189/212 215/188/213 217/190/215
f 217/190/215 216/187/214 220/195/218
f 216/187/214 212/186/210 219/194/217
f 220/195/218 216/187/214 219/194/217
f 218/193/216 212/186/210 187/181/185
f 224/191/222 217/190/215 220/195/218
f 220/195/218 219/194/217 221/285/219
f 221/285/219 219/194/217 218/193/216
f 214/189/212 213/192/211 222/173/220
f 222/173/220 223/197/221 210/198/208
f 223/197/221 213/192/211 224/191/222
f 140/122/140 141/121/141 226/201/224
f 141/121/141 173/125/171 227/200/225
f 229/203/227 230/209/228 148/204/148
f 229/203/227 147/133/147 146/132/146
f 229/203/227 146/132/146 232/206/230
f 232/206/230 146/132/146 231/286/229
f 234/205/232 232/206/230 233/207/231
f 236/214/234 153/149/153 155/148/155
f 241/287/239 237/216/235 239/211/237
f 240/212/238 233/207/231 235/208/233
f 242/213/240 253/223/251 237/216/235
f 247/229/245 255/228/253 245/220/243
f 227/200/225 180/199/178 204/236/202
f 230/209/228 251/222/249 154/147/154
f 251/222/249 155/148/155 154/147/154
f 229/203/227 252/224/250 230/209/228
f 252/224/250 234/205/232 238/210/236
f 238/210/236 233/207/231 239/211/237
f 254/225/252 252/224/250 238/210/236
f 238/210/236 239/211/237 253/223/251
f 253/223/251 254/225/252 238/210/236
f 255/228/253 256/226/254 245/220/243
f 228/202/226 258/230/256 257/288/255
f 264/235/262 263/232/261 262/231/260
f 204/236/202 267/281/265 258/230/256
f 258/230/256 267/281/265 259/289/257
f 269/238/267 268/237/266 244/227/242
f 269/238/267 244/227/242 260/241/258
f 271/240/269 269/238/267 260/241/258
f 270/239/268 269/238/267 271/240/269
f 256/226/254 274/245/272 248/218/246
f 273/244/271 275/246/273 255/228/253
f 274/245/272 276/247/274 248/218/246
f 274/245/272 277/248/275 276/247/274
f 277/248/275 280/252/278 264/235/262
f 264/235/262 278/253/276 265/234/263
f 277/248/275 275/246/273 279/249/277
f 282/251/280 277/248/275 279/249/277
f 281/250/279 273/244/271 270/239/268
f 280/252/278 277/248/275 282/251/280
f 272/243/270 281/250/279 270/239/268
f 282/251/280 278/253/276 280/252/278
f 265/234/263 283/290/281 266/254/264
f 271/240/269 261/242/259 284/291/282
f 285/255/283 271/240/269 284/291/282
f 285/255/283 286/292/284 288/256/286
f 290/293/288 283/290/281 265/234/263
f 278/253/276 290/293/288 265/234/263
f 278/253/276 294/258/292 290/293/288
f 287/257/285 291/294/289 290/293/288
f 294/258/292 287/257/285 290/293/288
f 293/261/291 282/251/280 281/250/279
f 272/243/270 285/255/283 288/256/286
f 288/256/286 292/260/290 272/243/270
f 294/258/292 293/261/291 288/256/286
